<?xml version="1.0" encoding="UTF-8"?>
<svg width="64" height="64" version="1.1" viewBox="0 0 16.933333 16.933334" xmlns="http://www.w3.org/2000/svg" xmlns:xlink="http://www.w3.org/1999/xlink">
 <defs>
  <linearGradient id="linearGradient1455" x1="130.16949" x2="130.16949" y1="6.7796607" y2="47.728813" gradientTransform="matrix(.34001978 0 0 .34055744 -36.834059 -298.44484)" gradientUnits="userSpaceOnUse">
   <stop style="stop-color:#a8a8a8" offset="0"/>
   <stop style="stop-color:#d0d0d0" offset="1"/>
  </linearGradient>
  <linearGradient id="linearGradient1468" x1="130.16949" x2="130.16949" y1="6.0678883" y2="47.728813" gradientTransform="matrix(.34001978 0 0 .34055744 -35.214053 -297.0927)" gradientUnits="userSpaceOnUse">
   <stop style="stop-color:#e99817" offset="0"/>
   <stop style="stop-color:#f0c852" offset="1"/>
  </linearGradient>
 </defs>
 <g transform="translate(0,-280.06665)">
  <path transform="scale(1,-1)" d="m2.116667-296.47083h11.079996v14.52287h-11.079996z" style="fill:url(#linearGradient1455);paint-order:stroke fill markers"/>
  <path transform="scale(1,-1)" d="m3.7366705-295.11868h11.079996v14.52286h-11.079996z" style="fill:url(#linearGradient1468);paint-order:stroke fill markers"/>
  <path d="m6.6308351 285.21142v5.29166h5.2916669v-5.29166zm0.661459 0.66146h3.9687499v1.65364l-0.661459-0.66146-1.6536459 1.65365-0.661458-0.66146-0.992187 0.99219zm0.992187 0.33072c-0.366448 0-0.661458 0.29502-0.661458 0.66146 0 0.36645 0.29501 0.66146 0.661458 0.66146s0.661458-0.29501 0.661458-0.66146c0-0.36644-0.29501-0.66146-0.661458-0.66146z" style="color-rendering:auto;color:#000000;fill:#ffffff;image-rendering:auto;isolation:auto;mix-blend-mode:normal;shape-rendering:auto;solid-color:#000000"/>
 </g>
</svg>
