<?xml version="1.0" encoding="UTF-8"?>
<svg id="svg31" version="1.1" viewBox="0 0 64 64" xmlns="http://www.w3.org/2000/svg" xmlns:xlink="http://www.w3.org/1999/xlink">
 <defs id="defs35">
  <linearGradient id="linearGradient888" x1="9.3150644" x2="9.3150644" y1="-295.13004" y2="-280.55145" gradientTransform="matrix(3.7795275,0,0,3.7795275,-2.8073486e-6,1058.5196)" gradientUnits="userSpaceOnUse">
   <stop id="stop882" style="stop-color:#ee4e74" offset="0"/>
   <stop id="stop884" style="stop-color:#f57d99" offset="1"/>
  </linearGradient>
  <linearGradient id="linearGradient1455" x1="130.16949" x2="130.16949" y1="6.7796607" y2="47.728813" gradientTransform="matrix(1.2851141,0,0,1.2871462,-139.21534,-69.460852)" gradientUnits="userSpaceOnUse">
   <stop id="stop1493" style="stop-color:#a8a8a8" offset="0"/>
   <stop id="stop1495" style="stop-color:#d0d0d0" offset="1"/>
  </linearGradient>
 </defs>
 <rect id="rect1243" transform="scale(1,-1)" x="7.9999981" y="-62.000011" width="41.877155" height="54.889561" style="fill:url(#linearGradient1455);paint-order:stroke fill markers"/>
 <rect id="rect1466" transform="scale(1,-1)" x="14.122847" y="-56.889549" width="41.877155" height="54.889561" style="fill:url(#linearGradient888);paint-order:stroke fill markers"/>
 <g id="g23" transform="matrix(.0453411 0 0 .0453411 24.061379 18.444746)" style="fill:#ffffff;stroke-opacity:.8">
  <path id="path13" d="m121.305 30.327h242.604v60.651h30.327v-60.651c0-16.732-13.562-30.327-30.327-30.327h-242.604c-16.731 0-30.327 13.595-30.327 30.327v60.651h30.327z" style="fill:#ffffff"/>
  <path id="path15" d="m454.89 121.304h-424.562c-16.731 0-30.327 13.591-30.327 30.324v151.629c0 16.764 13.595 30.327 30.327 30.327h60.651v121.302c0 16.764 13.595 30.326 30.327 30.326h242.604c16.765 0 30.327-13.562 30.327-30.326v-121.302h60.653c16.759 0 30.322-13.563 30.322-30.327v-151.629c0-16.733-13.564-30.324-30.322-30.324zm-90.981 333.582h-242.604v-212.28h242.604zm60.653-242.604c-16.764 0-30.326-13.564-30.326-30.327 0-16.731 13.562-30.327 30.326-30.327 16.765 0 30.327 13.595 30.327 30.327 1e-3 16.762-13.562 30.327-30.327 30.327z" style="fill:#ffffff"/>
  <path id="path17" d="m151.629 272.92999h121.304v30.327h-121.304z" style="fill:#ffffff"/>
  <path id="path19" d="m151.629 333.58401h181.95799v30.321h-181.95799z" style="fill:#ffffff"/>
  <path id="path21" d="m151.629 394.237h181.95799v30.322h-181.95799z" style="fill:#ffffff"/>
 </g>
 <text id="text879" transform="scale(.99364346 1.0063972)" x="-4.8173752" y="33.610004" style="fill:#000000;font-family:sans-serif;font-size:49.582413px;letter-spacing:0px;line-height:1.25;stroke-width:.99999994;word-spacing:0px" xml:space="preserve"><tspan id="tspan877" x="-4.8173752" y="77.478821" style="stroke-width:.99999994"/></text>
</svg>
