<?xml version="1.0" encoding="UTF-8"?>
<svg width="64" height="64" version="1.1" viewBox="0 0 16.933333 16.933334" xmlns="http://www.w3.org/2000/svg" xmlns:xlink="http://www.w3.org/1999/xlink">
 <defs>
  <linearGradient id="linearGradient1468" x1="130.16949" x2="130.16949" y1="6.0678883" y2="47.728813" gradientTransform="matrix(.34001978 0 0 -.34055744 -35.214055 17.026045)" gradientUnits="userSpaceOnUse">
   <stop style="stop-color:#ed1e1b" offset="0"/>
   <stop style="stop-color:#ec5452" offset="1"/>
  </linearGradient>
  <linearGradient id="linearGradient1455" x1="130.16949" x2="130.16949" y1="6.7796607" y2="47.728813" gradientTransform="matrix(.34001978 0 0 -.34055744 -36.834062 18.378185)" gradientUnits="userSpaceOnUse">
   <stop style="stop-color:#a8a8a8" offset="0"/>
   <stop style="stop-color:#d0d0d0" offset="1"/>
  </linearGradient>
 </defs>
 <path d="m2.1166667 16.40417h11.079996v-14.522863h-11.079996z" style="fill:url(#linearGradient1455);paint-order:stroke fill markers"/>
 <path d="m3.7366706 15.052027h11.079996v-14.522863h-11.079996z" style="fill:url(#linearGradient1468);paint-order:stroke fill markers"/>
 <path d="m6.6215248 6.8520638 0.3359057 0.2693384-0.3161496 0.6215161c-0.1580697 0.2865953 0.1134862 0.5657763 0.2865038 0.6629609 0.1703285 0.095672 0.4346967 0.1070441 0.6816844 0.1035968l0.4445736-0.7458332 0.3359036 0.1864572-0.5828911-1.108379-1.1855304 0.0103293zm0.049393 1.5214341 0.7212005 1.3673495c0.1448977 0.1899044 0.4182332 0.2347978 0.7014443 0.2278917h0.760717v-1.2948359l-1.4424008-0.010369c-0.2239261 0.0138112-0.5170262-0.0345261-0.7409606-0.2900479zm4.5374332-2.5198668-0.392386 0.1709198-0.376438-0.5850684c-0.16761-0.2808192-0.5372181-0.1724388-0.7039188-0.0642525-0.1641033 0.1064969-0.301973 0.338269-0.4187727 0.5616242l0.4201168 0.7606154-0.3217633 0.2110947 1.22723 0.014195 0.565932-1.0691157zm-1.3206159-0.6932541-1.5150015-0.0156157c-0.2320981 0.037969-0.4028721 0.2615448-0.5342895 0.5191024l-0.3687993 0.6827859 1.1035546 0.6277517 0.7081197-1.289617c0.096792-0.2077003 0.280084-0.4473281 0.606416-0.524437zm0.065901 5.276052 0.044535-0.435059 0.6811476-0.054214c0.3205893-0.0143193 0.4074063-0.3985824 0.3960273-0.6006624-0.0112-0.1989265-0.141901-0.4350324-0.275641-0.6481501l-0.8519216 0.0083053-0.023921-0.3911415-0.6070603 1.0946294 0.6368212 1.0262763zm1.2310989-0.8492199 0.747765-1.3522272c0.080157-0.2267394-0.027594-0.4884079-0.183387-0.7312274l-0.403119-0.6620433-1.070029 0.6861556 0.7558 1.2607981c0.130091 0.1875631 0.245454 0.4682447 0.15297 0.7985442z" style="fill:#ffffff;stroke-width:.22277589"/>
</svg>
