<?xml version="1.0" encoding="UTF-8"?>
<svg id="svg8" width="64" height="64" version="1.1" viewBox="0 0 16.933332 16.933333" xmlns="http://www.w3.org/2000/svg" xmlns:xlink="http://www.w3.org/1999/xlink">
 <defs id="defs2">
  <style id="current-color-scheme" type="text/css">.ColorScheme-Text {
        color:#4d4d4d;
      }</style>
  <style id="current-color-scheme-5" type="text/css">.ColorScheme-Text {
        color:#4d4d4d;
      }</style>
  <linearGradient id="linearGradient1455" x1="130.16949" x2="130.16949" y1="6.7796607" y2="47.728813" gradientTransform="matrix(.34001978 0 0 .34055744 -36.83406 -298.44476)" gradientUnits="userSpaceOnUse">
   <stop id="stop1493" style="stop-color:#a8a8a8" offset="0"/>
   <stop id="stop1495" style="stop-color:#d0d0d0" offset="1"/>
  </linearGradient>
  <linearGradient id="linearGradient1468" x1="130.16949" x2="130.16949" y1="6.3482614" y2="47.728813" gradientTransform="matrix(.34001978 0 0 .34055744 -35.214053 -297.09263)" gradientUnits="userSpaceOnUse">
   <stop id="stop1449" style="stop-color:#3bd450" offset="0"/>
   <stop id="stop1451" style="stop-color:#52ef84" offset="1"/>
  </linearGradient>
 </defs>
 <g id="layer1" transform="translate(0,-280.06659)">
  <rect id="rect1243" transform="scale(1,-1)" x="2.1166661" y="-296.47076" width="11.079997" height="14.522863" style="fill:url(#linearGradient1455);paint-order:stroke fill markers"/>
  <rect id="rect1466" transform="scale(1,-1)" x="3.7366695" y="-295.11862" width="11.079997" height="14.522863" style="fill:url(#linearGradient1468);paint-order:stroke fill markers"/>
  <text id="text879" x="-17.955767" y="287.53424" style="fill:#000000;font-family:sans-serif;font-size:10.583334px;letter-spacing:0px;line-height:1.25;stroke-width:.26458335;word-spacing:0px" xml:space="preserve"><tspan id="tspan877" x="-17.955767" y="296.89801" style="stroke-width:.26458335"/></text>
  <path id="path851" d="m12.187085 287.85719q0 0.71641-0.298504 1.13432-0.298504 0.4179-0.820887 0.4179-0.559695 0-0.835812-0.54477-0.3656675 0.54477-1.0447648 0.54477-0.6268587 0-1.0373021-0.43283-0.4104433-0.43283-0.4104433-1.08954 0-0.64925 0.4104433-1.08208 0.4179059-0.44029 1.0074518-0.44029 0.5746208 0 0.9552141 0.44029h0.02985v-0.33581h0.537307v1.85819q0 0.597 0.440294 0.597 0.529845 0 0.529845-1.06715 0-0.97014-0.68656-1.6567t-1.6716238-0.68656q-0.9850641 0-1.6716237 0.68656-0.6865598 0.68656-0.6865598 1.6567 0 0.9776 0.6865598 1.66416 0.679097 0.6791 1.6716237 0.6791 0.5373076 0 0.9477508-0.20895l0.208953 0.50745q-0.5373074 0.23881-1.1567038 0.23881-0.7984987 0-1.477596-0.3806-0.6641719-0.38059-1.0596901-1.05222-0.1940277-0.34328-0.2910416-0.70895-0.097014-0.36567-0.097014-0.74626 0-0.37313 0.089551-0.73134 0.097014-0.36566 0.2910416-0.70148 0.1940277-0.33582 0.4626817-0.60447 0.2761162-0.26866 0.604471-0.44776 0.3358173-0.18656 0.7089475-0.28358 0.3731303-0.10448 0.7686485-0.10448 0.7910362 0 1.4552082 0.3806 0.671635 0.38059 1.052228 1.05223 0.388055 0.66417 0.388055 1.44774zm-3.8507048 0.0299q0 0.20895 0.067164 0.38806 0.067163 0.17164 0.1865651 0.2985 0.1268642 0.12687 0.2910416 0.20149 0.1641774 0.0672 0.3582051 0.0672 0.1940279 0 0.3582051-0.0672 0.1641773-0.0746 0.283579-0.19403 0.1268649-0.12686 0.1940279-0.2985 0.06716-0.1791 0.06716-0.39552 0-0.20895-0.06716-0.38805-0.06716-0.17911-0.1940279-0.29851-0.1194017-0.12686-0.283579-0.19403-0.1641772-0.0746-0.3582051-0.0746-0.1940277 0-0.3582051 0.0746-0.1641774 0.0672-0.2910416 0.19403-0.1194017 0.12687-0.1865651 0.30597-0.067164 0.17164-0.067164 0.38059z" style="fill:#ffffff;stroke-width:.26458332"/>
 </g>
</svg>
