<?xml version="1.0" encoding="UTF-8"?>
<svg id="svg29" version="1.1" viewBox="0 0 64 64" xmlns="http://www.w3.org/2000/svg" xmlns:xlink="http://www.w3.org/1999/xlink">
 <defs id="defs33">
  <linearGradient id="linearGradient1455-5" x1="130.16949" x2="130.16949" y1="6.7796607" y2="47.728813" gradientTransform="matrix(1.2851141,0,0,1.2871462,-139.21534,-69.460855)" gradientUnits="userSpaceOnUse">
   <stop id="stop1493" style="stop-color:#a8a8a8" offset="0"/>
   <stop id="stop1495" style="stop-color:#d0d0d0" offset="1"/>
  </linearGradient>
  <linearGradient id="linearGradient1468-6" x1="130.16949" x2="130.16949" y1="6.0678883" y2="47.728813" gradientTransform="matrix(1.2851141,0,0,1.2871462,-133.09249,-64.350405)" gradientUnits="userSpaceOnUse">
   <stop id="stop1449-9" style="stop-color:#ffb40d" offset="0"/>
   <stop id="stop1451-1" style="stop-color:#ffcc5d" offset="1"/>
  </linearGradient>
 </defs>
 <g id="g1548">
  <rect id="rect1243-9" transform="scale(1,-1)" x="8" y="-62.000015" width="41.877151" height="54.889561" style="fill:url(#linearGradient1455-5);paint-order:stroke fill markers"/>
  <rect id="rect1466-3" transform="scale(1,-1)" x="14.122849" y="-56.889549" width="41.877151" height="54.889561" style="fill:url(#linearGradient1468-6);paint-order:stroke fill markers"/>
  <g id="g1309" transform="translate(-46.78355,-50.441797)" style="fill:#ffffff">
   <path id="path1219" d="m80.294612 77.927171c-1.411311 3.7e-5 -8.448346 0.11332-8.449637 2.351249v0.0016c0 2.613241 1.112624 4.956898 2.863622 6.566238-1.624714 0.437094-2.857612 1.137114-2.857612 2.222558 0 2.256013 5.31111 2.858441 8.449635 2.858441 3.138353 0 8.449637-0.602428 8.449637-2.858441 0-1.085444-1.23299-1.785464-2.857611-2.222558 0.34175-0.313924 0.66326-0.650417 0.952536-1.017411 0.03864 6.68e-4 0.07387 3e-3 0.12921 3e-3 0.752738 0 2.61818-0.135676 3.68094-1.39137 1.360872-1.608406 1.585177-3.590706 0.512327-4.513248-0.345723-0.297149-0.792773-0.454201-1.293589-0.454201-0.405714 0-0.837492 0.108253-1.266544 0.301287-0.976212-1.750604-7.016743-1.847086-8.312914-1.847086zm9.579458 2.919001c0.17483 0 0.312926 0.04227 0.410163 0.125662 0.415042 0.356102 0.217574 1.534516-0.665574 2.57835-0.461025 0.543831-1.239786 0.761245-1.855495 0.849357 0.487516-0.948714 0.809877-1.999639 0.933006-3.114308 0.444816-0.298862 0.871969-0.439061 1.1779-0.439061z" style="fill:#ffffff;stroke-width:1.181818"/>
   <g id="g1256" transform="translate(.6101055)" style="fill:#ffffff">
    <path id="path1197" d="m77.933464 74.964606s-2.585402-1.40234-1.406286-3.635252c0.84918-1.612992 1.406286-4.014424 1.406286-4.014424s2.747671 1.528732 0.800506 4.971387c-0.816732 1.44447-0.800506 2.678289-0.800506 2.678289z" style="fill:#ffffff"/>
    <path id="path1201" d="m81.399035 77.31493s-2.585403-1.40234-1.406286-3.635252c0.849179-1.612992 1.406286-4.014425 1.406286-4.014425s2.74767 1.528733 0.800505 4.971388c-0.816732 1.44447-0.800505 2.678289-0.800505 2.678289z" style="fill:#ffffff"/>
   </g>
  </g>
  <text id="text879" x="-188.37758" y="23.818127" style="fill:#000000;font-family:sans-serif;font-size:40px;letter-spacing:0px;line-height:1.25;word-spacing:0px" xml:space="preserve"><tspan id="tspan877" x="-188.37758" y="59.208752"/></text>
  <text id="text879-5" transform="scale(.99364346 1.0063972)" x="-31.127766" y="28.433458" style="fill:#000000;font-family:sans-serif;font-size:49.582409px;letter-spacing:0px;line-height:1.25;word-spacing:0px" xml:space="preserve"><tspan id="tspan877-3" x="-31.127766" y="72.302269"/></text>
  <text id="text879-1" transform="scale(.99364346 1.0063972)" x="-154.48148" y="34.166618" style="fill:#000000;font-family:sans-serif;font-size:49.582409px;letter-spacing:0px;line-height:1.25;word-spacing:0px" xml:space="preserve"><tspan id="tspan877-2" x="-154.48148" y="78.035431"/></text>
 </g>
</svg>
