<?xml version="1.0" encoding="UTF-8"?>
<svg width="64" height="64" version="1.1" viewBox="0 0 16.933333 16.933334" xmlns="http://www.w3.org/2000/svg">
 <defs>
  <linearGradient id="linearGradient1455" x1="130.16949" x2="130.16949" y1="6.7796607" y2="47.728813" gradientTransform="matrix(.34001978 0 0 .34055744 -36.834059 -18.37819)" gradientUnits="userSpaceOnUse">
   <stop style="stop-color:#a8a8a8" offset="0"/>
   <stop style="stop-color:#d0d0d0" offset="1"/>
  </linearGradient>
  <linearGradient id="linearGradient1004" x1="9.3536682" x2="9.3536682" y1="-294.99213" y2="-280.74127" gradientTransform="translate(0,280.06665)" gradientUnits="userSpaceOnUse">
   <stop style="stop-color:#e63a3a" offset="0"/>
   <stop style="stop-color:#fd7070" offset="1"/>
  </linearGradient>
  <linearGradient id="e-5-2" x1="15.122512" x2="28.881227" y1="1024.7061" y2="1024.7061" gradientTransform="matrix(.42306515 0 0 .43229677 -.03153526 -435.186)" gradientUnits="userSpaceOnUse">
   <stop stop-color="#f6fbff" offset="0"/>
   <stop stop-color="#eaeff2" offset="1"/>
  </linearGradient>
 </defs>
 <path transform="scale(1,-1)" d="m2.116667-16.404175h11.079996v14.522864h-11.079996z" style="fill:url(#linearGradient1455);paint-order:stroke fill markers"/>
 <path transform="scale(1,-1)" d="m3.7366705-15.052032h11.079996v14.522863h-11.079996z" style="fill:url(#linearGradient1004);paint-order:stroke fill markers"/>
 <path d="m12.092898 8.46733c-0.116356-0.11709-0.374401-0.17915-0.767075-0.18442-0.265807-5e-3 -0.585734 0.0208-0.922241 0.0691-0.15068-0.0889-0.30596-0.1855-0.4278825-0.30192-0.32793-0.31289-0.601661-0.74722-0.772231-1.22482 0.01111-0.0446 0.020574-0.0838 0.029382-0.12381 0 0 0.184713-1.0721 0.135817-1.43454-0.0067-0.0497-0.01087-0.0642-0.02395-0.10279l-0.01604-0.0419c-0.050235-0.11843-0.1487468-0.24387-0.3031932-0.23704l-0.090573-5e-3 -0.00252-5e-5c-0.1722235 0-0.3125919 0.09-0.3494394 0.22454-0.1120007 0.42192 0.00357 1.05316 0.2129995 1.87072l-0.05361 0.13319c-0.1499612 0.37351-0.3378826 0.74973-0.503689 1.08161l-0.02156 0.0433c-0.1744336 0.34881-0.3327098 0.64494-0.4761884 0.89575l-0.1481438 0.0801c-0.010792 6e-3 -0.2646787 0.143-0.3242307 0.17983-0.5051956 0.30823-0.8399685 0.65813-0.8955096 0.93579-0.017679 0.0886-0.00452 0.20197 0.085367 0.2545l0.1432823 0.0737c0.062155 0.032 0.1276981 0.0479 0.1948456 0.0479 0.3598183 0 0.7775513-0.45801 1.3530047-1.4842 0.6644054-0.22103 1.420854-0.40472 2.0838195-0.50605 0.50523 0.29068 1.126613 0.49257 1.518811 0.49257 0.06964 0 0.129663-7e-3 0.178444-0.0199 0.07522-0.0203 0.138616-0.0642 0.177267-0.12363 0.07608-0.11709 0.09152-0.27819 0.07086-0.44324-0.0061-0.0489-0.04444-0.10951-0.08586-0.15082zm-5.3743515 1.9564c0.065609-0.18333 0.3253431-0.54573 0.7093717-0.86731 0.024146-0.0199 0.083616-0.077 0.1380765-0.12983-0.4015925 0.6545-0.670527 0.91535-0.8474482 0.99714zm2.2745741-5.35222c0.1156674 0 0.1814561 0.29794 0.1869231 0.57719 0.00545 0.27932-0.058471 0.47531-0.1377658 0.62035-0.065674-0.21472-0.097415-0.55316-0.097415-0.77449 0 0-0.00483-0.42305 0.048258-0.42305zm-0.678516 3.8141c0.080571-0.14736 0.1643994-0.30278 0.2500607-0.46761 0.2088092-0.4035 0.3406817-0.71921 0.4388988-0.97877 0.1953375 0.36318 0.4386044 0.67188 0.7245804 0.91925 0.03568 0.0307 0.07347 0.0618 0.113153 0.0928-0.5815412 0.11757-1.0841668 0.26059-1.526699 0.43436zm3.6665554-0.0332c-0.03542 0.0225-0.13688 0.0359-0.202146 0.0359-0.210627 0-0.47123-0.0984-0.836566-0.25843 0.14037-0.011 0.269085-0.016 0.384505-0.016 0.211264 0 0.273847 0 0.480428 0.0529 0.206583 0.0539 0.209187 0.16322 0.173779 0.18583z" style="fill:url(#e-5-2);stroke-width:.4654744"/>
</svg>
