<?xml version="1.0" encoding="UTF-8"?>
<svg width="64" height="64" version="1.1" viewBox="0 0 16.933333 16.933334" xmlns="http://www.w3.org/2000/svg" xmlns:xlink="http://www.w3.org/1999/xlink">
 <defs>
  <linearGradient id="linearGradient1468-3" x1="130.16949" x2="130.16949" y1="6.16957" y2="47.728813" gradientTransform="matrix(.34001978 0 0 -.34055744 -35.214053 297.0927)" gradientUnits="userSpaceOnUse">
   <stop style="stop-color:#1e9ff4" offset="0"/>
   <stop style="stop-color:#68bff8" offset="1"/>
  </linearGradient>
  <linearGradient id="linearGradient1455-5" x1="130.16949" x2="130.16949" y1="6.7796607" y2="47.728813" gradientTransform="matrix(.34001978 0 0 -.34055744 -36.834059 298.44483)" gradientUnits="userSpaceOnUse">
   <stop style="stop-color:#a8a8a8" offset="0"/>
   <stop style="stop-color:#d0d0d0" offset="1"/>
  </linearGradient>
 </defs>
 <g transform="translate(0,-280.06665)">
  <path d="m2.1166667 296.47082h11.079997v-14.52287h-11.079997z" style="fill:url(#linearGradient1455-5);paint-order:stroke fill markers"/>
  <path d="m3.7366702 295.11867h11.079997v-14.52286h-11.079997z" style="fill:url(#linearGradient1468-3);paint-order:stroke fill markers"/>
  <path d="m9.2766685 284.94683c-1.6123708 0-2.9104164 1.29805-2.9104164 2.91042s1.2980456 2.91041 2.9104164 2.91041c1.6123705 0 2.9104165-1.29804 2.9104165-2.91041s-1.298046-2.91042-2.9104165-2.91042zm0 0.26458c0.4396375 0 0.8523665 0.10793 1.2164635 0.29611 0.0011 0.0105 8.47e-4 0.0182 0 0.03 0.01534 7e-3 0.0242 0.0353 0.05013 0.0496 0.0095 5e-3 0.01581 8e-3 0.02481 0.0124 0.01534 8e-3 0.02798 0.0224 0.0248 0.0372-0.0042 0.0217-0.03479 0.0208-0.04961 0.0367 0.0021 0.0307-0.01687 0.0295-0.02481 0.0501 0.0048 0.0132 0.02269 9e-3 0.02481 0.0248-0.0027 0.0169-0.03116 0.0192-0.02481 0.0367 0.02857 0.0222 0.05983 4e-3 0.08682 0 0.05926-7e-3 0.111801 4e-3 0.148311-0.0248-0.0048-0.028 0.04038-0.0366 0.03721-0.062-0.0027-0.019-0.03532-0.0235-0.04961-0.0367-0.0032-3e-3 -0.0073-0.0104-0.01085-0.016 0.04366 0.0287 0.08533 0.0598 0.127124 0.0909-0.0103 8e-3 -0.01881 0.019-0.02945 0.0238-0.01111 5e-3 -0.02715 6e-3 -0.03721 0.0124-0.01482 0.0101-0.02027 0.0256-0.03721 0.0367-0.01217 8e-3 -0.04931 0.0372-0.06201 0.0372-0.01534 0-0.0385-0.0156-0.04961-0.0119-0.01587 5e-3 -0.0068 0.0303-0.0248 0.0367-0.03492 0.0127-0.09945-0.0276-0.111622 0.0248 0.01482 0.0301 0.06036 0.0208 0.08682 0.0372 0.0164 0.0106 0.04538 0.0564 0.04961 0.0744 0.0042 0.0148 0.0064 0.071 0 0.0868-0.0164 0.0423-0.06294 0.0383-0.111621 0.0372-0.01323 0-0.02504 1e-3 -0.03721 0-0.08201-5e-3 -0.160882-0.0339-0.19792 0.0248 0.0027 0.045 0.01006 0.0725 0 0.11162-0.0074 0.0286-0.03879 0.0495-0.03721 0.0744 5.03e-4 0.0127 0.02163 0.0322 0.0248 0.0496 0.0021 0.01-0.0042 0.0288 0 0.0372 0.01376 0.0259 0.05007-4e-3 0.07441 0 0.02328 4e-3 0.05013 0.0361 0.05013 0.062 0 0.0185-0.01368 0.0564-0.02532 0.0744-0.02328 0.0349-0.06588 0.0306-0.09922 0.0496-0.02752 0.0159-0.03321 0.0474-0.04961 0.0749-0.01746 0.0296-0.03168 0.0445-0.0248 0.0868-0.02381 0.0471-0.05053 0.0765-0.09974 0.0992-0.01429 6e-3 -0.03638 0.0153-0.04961 0.0248-0.01058 7e-3 -0.02239 0.0203-0.03721 0.0372-0.01852 0.0206-0.039556 0.0337-0.049609 0.0496-0.00741 0.0122-0.00447 0.0332-0.012404 0.0496-0.011644 0.0222-0.034794 0.0398-0.04961 0.062-0.00688 0.0106-0.017396 0.0235-0.024805 0.0372-0.016933 0.0307-0.040381 0.0598-0.037207 0.0868 0.00266 0.0259 0.03562 0.0269 0.037207 0.0496 0.00159 0.0127-0.01293 0.0229-0.012404 0.0367 5.027e-4 0.0201 0.010816 0.0342 0.012404 0.0501 0.0037 0.0392-0.017399 0.0474-0.024805 0.0744-0.0037 0.0127 0.00318 0.0272 0 0.0372-0.00635 0.0196-0.036678 0.0382-0.037207 0.0615-5.027e-4 0.0164 0.023217 0.0268 0.024805 0.0501 0.00106 0.0159-0.01506 0.0348-0.011885 0.0496 0.00582 0.0286 0.064593 0.0646 0.086816 0.0868 0.03016 0.0301 0.061186 0.0551 0.074414 0.0868 0.011115 0.027 0.016576 0.0667 0.037207 0.0868 0.01534 0.0148 0.04243 0.0214 0.06201 0.0367 0.01852 0.0143 0.04192 0.0219 0.0615 0.0372 0.03228 0.0254 0.0727 0.0781 0.124023 0.0744 0.02698-2e-3 0.05666-0.0195 0.08682-0.0248 0.03122-5e-3 0.06747-0.0151 0.09922-0.0119 0.02434 3e-3 0.04953 0.0135 0.07493 0.0119 0.02646-2e-3 0.05666-0.0116 0.08682-0.0248 0.05238-0.0228 0.13413-0.0607 0.210323-0.0496 0.0582 8e-3 0.05899 0.0733 0.09974 0.0992 0.04656 4e-3 0.08647-9e-3 0.123507 0 0.02804 7e-3 0.05937 0.0527 0.06201 0.0749 0.0027 0.0227-0.02163 0.0472-0.0248 0.0615-0.0074 0.0307-0.0071 0.0673-0.0124 0.0868-0.0042 0.0153-0.01242 0.0343-0.01188 0.0496 0 0.0138 0.02292 0.044 0.03721 0.062 0.01746 0.0222 0.04033 0.0377 0.06149 0.062 0.03863 0.0444 0.05983 0.10251 0.08682 0.16123 0.0069 0.0148-0.0063 0.0187 0 0.0372-0.01164 0.0889-0.04101 0.14965-0.09922 0.24804-0.02751 0.0317-0.06254 0.072-0.06201 0.11163-0.0021 0.0952 0.05384 0.14308 0.04961 0.23512-0.0095 0.12379-0.0024 0.14472-0.01188 0.21084 0.0418 0.0212 0.02406 0.0796 0.01188 0.12351-0.01799 0.0524-0.03956 0.0648-0.04961 0.0997 0.03277 0.0142 0.06877 0.0107 0.105421 2e-3 -0.482054 0.5138-1.166215 0.8356-1.9296018 0.8356-0.3248332 0-0.6343576-0.0607-0.9213911-0.16691-0.010541-4e-3 -0.022167-7e-3 -0.032556-0.0124-0.016404-0.01-0.026922-0.0295-0.024805-0.0496 0.027516-0.0116 0.079629 0.0262 0.099735-0.0124 0.010057-0.0185-0.013229-0.0559 0-0.0744 0.00953-0.0127 0.067239-0.0216 0.086817-0.0248 0.028044-5e-3 0.05854-2e-3 0.074414-0.0124 0.01746-0.0111 0.040382-0.0416 0.037207-0.0744-0.00159-0.0153-0.012634-0.0235-0.024805-0.0372-0.010057-0.0116-0.00552-0.0261-0.012401-0.0367-0.0127-0.0185-0.031916-0.0226-0.037207-0.0496 0.038097-7e-3 0.0938 0.0401 0.1488281 0.0248 0.025929-7e-3 0.062244-0.0625 0.074414-0.0868 0.0037-7e-3 -0.00423-0.0282 0-0.0372 0.00476-0.0101 0.023733-0.0195 0.025321-0.0248 0.0037-0.0143-0.00318-0.0158 0-0.0248 0.00953-0.027 0.033735-0.0424 0.049609-0.062 0.012168-0.0148 0.026099-0.0343 0.037207-0.0496 0.012703-0.0164 0.016341-0.0229 0.024805-0.0372 0.00794-0.0481-0.024045-0.0812-0.012404-0.12351 0.012703-0.0476 0.07799-0.078 0.1240234-0.0997 0.015872-7e-3 0.03638-0.02 0.049609-0.0248 0.031747-0.0111 0.069587-0.0142 0.099219-0.0248 0.049737-0.018 0.062477-0.0661 0.086816-0.11162 0.011644-0.0212 0.023207-0.0467 0.025321-0.062 0.00214-0.0138-0.00266-0.0208 0-0.0367s0.00765-0.0327 0.011885-0.0501c0.00582-0.0227 0.012404-0.0609 0.012404-0.0863 0-0.0212-0.011874-0.0311-0.012404-0.0501-0.0037-0.0688 0.024215-0.0741 0.049609-0.11162 0.012703-0.0185 0.015812-0.0483 0.024805-0.0615 0.042859-0.0635 0.1169122-0.0903 0.1116208-0.18656-0.00214-0.0317-0.013404-0.10157-0.03669-0.11162-0.013229-6e-3 -0.042434-4e-3 -0.062012-0.0119-0.062436-0.0233-0.1085509-0.0944-0.1736331-0.0997-0.013756-5e-4 -0.021863 5.3e-4 -0.037207 0-0.025397-5e-4 -0.057727-0.0216-0.086299-0.0248-0.017992-2e-3 -0.051429 5e-3 -0.062012 0-0.016404-8e-3 -0.011578-0.0406-0.024805-0.0496-0.010578-7e-3 -0.033723-7e-3 -0.050126-0.0124-0.025929-0.0101-0.044254-0.0227-0.074414-0.0248-0.00953-5e-4 -0.026624 2e-3 -0.037207 0-0.016404-3e-3 -0.034265-0.0153-0.04961-0.0248-0.01905-0.0116-0.02927-0.0203-0.037207-0.0367 0.017462-0.0571-0.037968-0.0664-0.049609-0.0997-0.00529-0.0153 0.00529-0.0358 0-0.0496-0.00688-0.0196-0.027916-0.0332-0.049609-0.0496-0.038097-0.0296-0.069524-0.0551-0.1240234-0.062-0.024342-3e-3 -0.057715 2e-3 -0.086817 0-0.030689-2e-3 -0.063535-0.0232-0.086816-0.0496-0.022225-0.0259-0.030032-0.0498-0.049609-0.062-0.018518-0.0116-0.049312-0.0126-0.062012-0.0248-0.00582-5e-3 -0.00659-0.0126-0.011885-0.0248-0.00953-0.019-0.024045-0.0269-0.012404-0.0501-0.021167-0.0106-0.013938 0.0166-0.03669 0.0124-0.020638-0.0291-0.040254-0.0462-0.086816-0.0372-0.021167 4e-3 -0.037143 0.0367-0.062012 0.0372-0.020635 5e-4 -0.035026-0.0335-0.062012-0.0372-0.020635-3e-3 -0.047725 0.0156-0.062012 0.0124-0.022754-4e-3 -0.028974-0.0235-0.049609-0.0372-0.015346-0.01-0.041144-0.0372-0.049609-0.0367-0.026456 5.3e-4 -0.050307 0.0563-0.086816 0.0367-0.017992-0.0227 0.033052-0.0285 0.011885-0.0496-0.015872-0.0159-0.023992 4e-3 -0.03669 0.0124-0.014817 0.01-0.033207 0.019-0.049609 0.0248-0.03651 0.0138-0.058244 0.01-0.086816 0.0248-0.026456 0.0138-0.034782 0.035-0.050126 0.062-0.012168 0.0222-0.03109 0.0604-0.049609 0.0615-0.022225 2e-3 -0.041905-0.0282-0.062012-0.0367-0.060849-0.0265-0.098045 0.0114-0.1483114 0.0119-0.046563 5.1e-4 -0.1137375-0.0677-0.1116214-0.11163 0.00159-0.027 0.02163-0.0659 0.024805-0.0992 0.00266-0.0264 0.024281-0.0506 0.024805-0.0749 5.027e-4 -0.0323-0.053766-0.0578-0.074931-0.0615-0.049737-9e-3 -0.1164997 0.0222-0.1731161 0-0.010578-0.018 0.018455-0.0327 0.024805-0.0501 0.0037-0.01-0.0037-0.0137 0-0.0248 0.00635-0.0169 0.028754-0.0316 0.03669-0.0496 0.00582-0.0138 0.00659-0.0327 0.012401-0.0496 0.00688-0.019 0.023217-0.0359 0.024805-0.0496 0.00214-0.018-0.010517-0.0385-0.024805-0.0501-0.043917 3e-3 -0.074337 7.7e-4 -0.099736 0.0124-0.057145 0.0259-0.041544 0.10603-0.099219 0.12402-0.019579 6e-3 -0.052191 8e-3 -0.074414 0.0119-0.00968 2e-3 -0.020675 3e-3 -0.031523 6e-3 0.036954-0.19208 0.094157-0.37673 0.1700154-0.55138 0.012724-1e-5 0.025919-2e-3 0.034623 0 0.020106 4e-3 0.032665 0.0232 0.050126 0.0248 0.048679 4e-3 0.059005-0.0409 0.099219-0.062 0.041272 6e-3 0.062168-4e-3 0.099735 0 0.025397 3e-3 0.054308 0.0356 0.074414 0.0372 0.016933 5e-4 0.021336-0.0151 0.037207-0.0124 0.015875 3e-3 0.046964 0.0306 0.049609 0.0496 0.00266 0.0238-0.019283 0.0485-0.012404 0.0749 0.024868 0.0254 0.07617 0.0348 0.1116211 0.0496 0.023281-0.019 0.0037-0.0593 0-0.0868-5.027e-4 -0.0122 0.00159-0.0261 0-0.0372-0.00266-0.019-0.011885-0.0332-0.011885-0.0496 0-0.0756 0.060825-0.1068 0.1116208-0.13642 0.021693-0.0127 0.042963-0.0401 0.062012-0.0496 0.026984-0.0132 0.039789-0.0121 0.062012-0.0248 0.040213-0.0227 0.080403-0.049 0.111621-0.0749 0.01429-0.0344-0.00159-0.0778 0-0.11162 0.01429-9e-3 0.021344 2e-3 0.036691 0 0.024342-5e-3 0.036369-0.0359 0.050126-0.0496 0.00794-8e-3 0.027167-0.0169 0.03669-0.0248 0.024342-0.0191 0.028444-0.0412 0.04961-0.0496 0.00741-3e-3 0.025567-9e-3 0.037207-0.0124 0.015878-4e-3 0.036614-0.0158 0.062012-0.0248 0.016404-6e-3 0.055662-6e-3 0.062012-0.0119 0.00794-8e-3 -0.00214-0.038 0-0.0501 0.012703-0.0598 0.1077894-0.0662 0.1612307-0.0863 0.037038-0.0143 0.07035-0.0451 0.1116211-0.0372-0.00794 0.0286-0.044086 0.0276-0.037207 0.062 0.00899 0.0481 0.069884-0.0179 0.086816-0.0248 0.032277-0.0138 0.094096-0.0219 0.1364258-0.0372 0.037039-0.0132 0.096934-0.0316 0.062012-0.0744-0.029102-2e-3 -0.036614 0.0261-0.062012 0.0367-0.01746 3e-3 -0.02187-0.0108-0.03669-0.0119-0.01429-5.3e-4 -0.022924 0.0145-0.037207 0.0119-0.01429-3e-3 -0.035091-0.0327-0.037207-0.0496-0.00582-0.0444 0.044021-0.054 0.062011-0.0868-0.012168-0.0402-0.065355-9e-3 -0.099219-0.0248 0.0037-0.0238 0.021569-0.0448 0.049609-0.0496 0.022754-4e-3 0.073059 7.6e-4 0.086816 0.0119 0.00794 7e-3 -2.911e-4 0.0261 0.011885 0.0372 0.013756 0.0122 0.032136 3e-3 0.050126 0 0.00635-0.0301-0.042499-0.0176-0.037207-0.0372 0.03598-0.0233 0.1049108-6e-3 0.1488279-0.0119 0.025397-4e-3 0.051662-0.025 0.074414-0.0372 0.021167-0.0122 0.039789-0.032 0.062012-0.0119 0.00635 0.0217-0.012639 0.0385-0.024805 0.0496-0.040743 0.036-0.079874 0.0698-0.1116211 0.11162 0.019579 0.019 0.054011 8e-3 0.086817 0.0119 0.0127 2e-3 0.023461 0.0103 0.03669 0.0124 0.015875 3e-3 0.037427-3e-3 0.050126 0 0.022225 5e-3 0.027385 0.0372 0.049609 0.0372 0.03598 0 0.032523-0.0377 0.011885-0.062 0.00635-0.0249 0.021402-0.0446 0.012404-0.062-0.016404-0.0328-0.083641 5e-3 -0.086816-0.0372-0.00214-0.0265 0.027684-0.0295 0.037207-0.0496-0.00423-0.0508 0.041982-0.0532 0.03669-0.0992-0.00266-0.019-0.023461-0.0192-0.03669-0.0372-0.00688-0.01-0.00447-0.0303-0.012404-0.0372-0.027513-0.0233-0.083642-0.0171-0.086817-0.0615-0.00159-0.0264 0.0037-0.0464 0-0.0749-0.0037-0.027-0.026329-0.10634-0.049609-0.11163-0.02963-6e-3 -0.051365 0.0456-0.086816 0.062-0.019047 9e-3 -0.054837 0.0161-0.074414 0.0124-0.012703-3e-3 -0.03562-0.0129-0.037207-0.0372-0.00266-0.028 0.019518-0.0324 0.024805-0.062 0.227955-0.0636 0.4674421-0.10025 0.7162348-0.10025zm-1.0671183 0.22428c-0.00762 0.10882-0.1046911 0.16521-0.219108 0.16226-0.024342 0.0233-0.011578 0.067-0.024805 0.0992-0.011113 0.027-0.047429 0.0522-0.074414 0.0501-0.019579-2e-3 -0.049609-0.0316-0.049609-0.0501 0-0.0227 0.031465-0.0356 0.011885-0.0615 8.203e-4 -5e-3 0.00794-0.0109 0.013436-0.0165 0.1094121-0.0689 0.2230705-0.13094 0.3426148-0.18345zm2.2086508 0.12609c-0.0097 2e-3 -0.01515 7e-3 -0.02377 0.0119-0.02011 0.0122-0.02186 0.0314-0.03721 0.0372-0.02169 8e-3 -0.04643 5e-3 -0.04961 0.0248-0.0027 0.0164 0.01293 0.0219 0.0124 0.0367-0.0079 0.0196-0.02057 0.0258-0.02481 0.0496 0.02698 0.0439 0.09017-2e-3 0.123506-0.0119 0.01482-4e-3 0.02927-7.7e-4 0.03721-0.0124 9e-3 -0.0143 5e-3 -0.0414 0.01189-0.0615 0.0074-0.0222 0.02745-0.0176 0.02481-0.0372-0.0021-0.0196-0.04161-0.0404-0.07441-0.0372zm-2.896464 0.31574c0.025739 0.0132 0.069181 0.0728 0.019635 0.094-0.00529 3e-3 -0.074118 0.0145-0.086816 0.0119-0.010247-1e-3 -0.018767-0.0109-0.027388-0.0202 0.030416-0.0297 0.062744-0.0576 0.094568-0.0858zm0.093534 0.11834c0.012703 5.3e-4 0.022392 0.0238 0.037207 0.0248 0.01429 1e-3 0.02874-0.0151 0.037207-0.0124 0.022225 6e-3 0.033052 0.0456 0.011885 0.062-0.017462 2e-3 -0.023992-0.0145-0.03669-0.0119-0.03598 6e-3 -0.047946 0.0765-0.074931 0.0744-0.025397-3e-3 -0.037814-0.0559-0.011885-0.0744 5.027e-4 -0.0159-0.013465-0.0213-0.012401-0.0372 0.00794-0.0101 0.028444-0.0264 0.049609-0.0248v-5e-4zm-0.1235067 0.0124c0.00741 0 0.00924-3e-3 0.011885 0-0.0037 0.028-0.014994 0.0369-0.03669 0.0501-0.037568 0.0227-0.062761 0.0505-0.074931 0.0992-0.0037 0.0143-0.043505 0.0533-0.061495 0.0496-0.041801-9e-3 0.01528-0.0871 0.024805-0.0992 0.010578-0.0132 0.024519-0.0224 0.036691-0.0372 0.012168-0.0148 0.013168-0.0412 0.024805-0.0496 0.012703-9e-3 0.052707-0.0135 0.074931-0.0124v-5e-4zm3.7434407 0.0708c0.01671 0.0184 0.03394 0.0364 0.05013 0.0553-0.01668-0.0195-0.04391-0.027-0.05013-0.0553zm-0.161747 5e-3c0.0418-3e-3 0.06777 0.049 0.08682 0.0744 0.01587 0.0206 0.06089 0.0477 0.08682 0.062 0.01482 8e-3 0.03321 0.0174 0.04961 0.0248 0.03439 0.0153 0.09763 0.0654 0.09922 0.0992 6.09e-4 0.0169-0.01452 0.0342-0.01188 0.0501 0.02593 4e-3 0.04908-0.0361 0.04961-0.062 0-6e-3 -0.0021-0.01-0.0047-0.014 0.07489 0.10477 0.142359 0.21472 0.201537 0.33021-0.02332 7e-3 -0.04327 0.0181-0.04703 0.0408-0.0053 0.0296 0.01964 0.0691-0.02481 0.0744-0.02804 4e-3 -0.06111-0.0287-0.09973-0.0372-0.01588-4e-3 -0.03691 4e-3 -0.04961 0-0.0291-0.0101-0.02474-0.044-0.04961-0.0615-0.01428-0.0101-0.05218-0.0222-0.07493-0.0248-0.01429-2e-3 -0.02187 2e-3 -0.03669 0-0.01799-2e-3 -0.0472-3e-3 -0.06201-0.0124-0.01429-9e-3 -0.04591-0.025-0.04961-0.0372-0.0058-0.0196 0.03563-0.0451 0.03669-0.0615 1e-3 -0.0127-0.0092-0.0182-0.01189-0.0372-0.0021-0.0116 0.0027-0.0298 0-0.0372-0.0037-0.0137-0.02843-0.0243-0.05013-0.0248-0.01905 0-0.03321 0.0124-0.04961 0.0124-0.02328 5.1e-4 -0.07012-0.0151-0.09922-0.0124-0.01746 2e-3 -0.03372 0.0113-0.05013 0.0124-0.04603 4e-3 -0.07564-3e-3 -0.111621 0-0.02593 2e-3 -0.07488 0.0137-0.09922 0.0248-0.01217 6e-3 -0.02134 0.0169-0.03721 0.0248-0.0074 4e-3 -0.01528 8e-3 -0.02481 0.0119-0.01482 7e-3 -0.03532 0.0216-0.04961 0.0253-0.02064 5e-3 -0.04925-2e-3 -0.08682 0-0.02698 2e-3 -0.07389-5e-3 -0.07441-0.0372-5.03e-4 -0.0492 0.08986-0.0288 0.136426-0.0372 0.01746-4e-3 0.02844-0.0245 0.04961-0.0367 0.01006-6e-3 0.01528-6e-3 0.02481-0.0124 0.01588-0.0111 0.04696-0.0369 0.04961-0.0496 0.0021-0.0116-0.01347-0.0287-0.01188-0.0372 0.0021-0.0111 0.0224-0.0224 0.03669-0.0367 0.02222-0.0222 0.0345-0.0477 0.06201-0.062 0.01852-0.01 0.05355-0.01 0.06201-0.0248 0.0021-0.0169-5.03e-4 -0.0219 0-0.0372 0.01164-0.0106 0.01528-0.0227 0.0248-0.0248 0.02857-6e-3 0.05348 0.0135 0.08682 0.0119 0.01429-5e-4 0.03426-2e-3 0.04961-0.0119 0.0127-8e-3 0.02451-0.0185 0.03721-0.0248 0.01376-7e-3 0.02028-0.0238 0.03721-0.0248zm-3.3109093 0.0253h5.027e-4c0.012168-5.3e-4 0.023979 0 0.037207 0 0.013229 0 0.031399-5e-3 0.03669 0-0.00847 0.0349-0.084106 0.0246-0.1116209 0.0119 0.00159-0.0132 0.020275-0.0103 0.037207-0.0119zm3.5227823 0.0253c0.01511 0.0176 0.03082 0.0347 0.04547 0.0527-0.0025-1e-3 -0.0061-2e-3 -0.0083-4e-3 -0.01472-0.0116-0.02258-0.0312-0.03721-0.0491zm-3.6468057 0.0367c0.00899 0 0.015793-4e-3 0.025321 0-0.024342 0.0206-0.057406 0.0364-0.099735 0.0496-0.020106 6e-3 -0.045906 0.01-0.049609-0.0124-0.00423-0.0275 0.019219-0.0222 0.037207-0.0248 0.023281-3e-3 0.059314-0.0114 0.0863-0.0119l5.027e-4 -5e-4zm3.4473347 5e-4c-0.01746 6e-3 -0.02593 0.0448 0 0.0496 0.01217-7e-3 0.01558-0.0274 0.0124-0.0496-0.0069-7e-3 -0.0071-2e-3 -0.0124 0zm-0.01189 0.0744c-0.0085 3e-3 -0.01581 2e-3 -0.02481 0.0119 5.03e-4 0.0296 0.0058 0.049 0 0.0749 0.01693 0.0328 0.05303 0.01 0.0615-0.0124 0.01006-0.055-0.01129-0.0813-0.03669-0.0744zm0.235128 0.14882c-0.02328-1e-3 -0.04774 7.7e-4 -0.06149 0.0119 0.01958 0.0317 0.0553 0.0417 0.09922 0.0496 0.01586-0.0116 0.0174-0.0414 0.02481-0.0615-0.01904 0-0.03873 1e-3 -0.06201 0h-5.03e-4zm-4.6493285 1.08986c0.029828 0.0271 0.050602 0.0723 0.0863 0.0899 0.013229 7e-3 0.032677 9e-3 0.04961 0.0124 0.013756 3e-3 0.023979 8e-3 0.037207 0.0119 0.028044 0.01 0.064593 0.0153 0.086816 0.0253 0.033864 0.0148 0.057714 0.0694 0.086817 0.0863 0.00159 0.0169-0.00529 0.0374 0 0.0501 0.013756 0.0185 0.039788 0.0245 0.062012 0.0367 0.026985 0.0148 0.036097 0.0504 0.061495 0.062 0.00899 4e-3 0.02345-4e-3 0.037207 0 0.034922 0.0106 0.044771 0.0586 0.074931 0.0496 0.019579-6e-3 0.02163-0.0306 0.024805-0.0496 0.013227-0.0143 0.028974-0.0372 0.049609-0.0372 0.032806-5.3e-4 0.037439 0.0427 0.04961 0.0749 0.00688 0.018 0.02004 0.0306 0.024805 0.0496 0.00794 0.0328 0.00688 0.12925 0 0.14882-0.00847 0.0243-0.041905 0.0351-0.062012 0.0615-0.00953 0.0127-0.017396 0.0287-0.024805 0.0372-0.012703 0.0159-0.027165 0.0229-0.036691 0.0372-0.00529 8e-3 -0.00764 0.0256-0.012404 0.0367-0.015875 0.0339-0.038033 0.059-0.024805 0.0997 0.00529 0.0164 0.024805 0.03 0.024805 0.0496 0 0.0233-0.045905 0.0366-0.049609 0.062-0.00266 0.0185 0.018981 0.0496 0.024805 0.0744 0.00423 0.0185 0.038498 0.0375 0.049609 0.0496 0.018521 0.0206 0.033194 0.0485 0.050126 0.0749 0.033335 0.0513 0.053494 0.11098 0.0863 0.16124 0.01746 0.0259 0.050371 0.0469 0.062012 0.0744 0.00582 0.0138-0.00529 0.0369 0 0.0496 0.019047 0.0428 0.1059686 0.0905 0.1488282 0.11162 0.020106 0.01 0.043492 0.0147 0.062012 0.0253 0.028044 0.0159 0.084932 0.0496 0.099219 0.0744 0.012703 0.0222 0.018455 0.0762 0.024805 0.11163 0.00794 0.0466-0.00214 0.0862 0 0.13642 0.00159 0.0275 0.012401 0.0469 0.012401 0.0744 0 0.01 5.027e-4 0.0277 0 0.0372-5.027e-4 0.0328 0.00266 0.0659 0 0.0992-0.00159 0.018-0.00106 0.0348 0 0.0501 0.00159 0.0164 0.010829 0.0224 0.011885 0.0367 0.00106 0.0153-0.013473 0.038-0.011885 0.0501 0.0037 0.0333 0.030857 0.0556 0.037207 0.0863 0.00529 0.0243 0.01506 0.0825 0.011885 0.11162-0.00214 0.0154-0.00977 0.0332-0.011885 0.0501-0.00159 0.0132 0.00214 0.0245 0 0.0367-0.00169 0.0118-0.0046 0.0218-0.00775 0.032-0.7360682-0.46885-1.2242142-1.28986-1.2242142-2.23087 0-0.12671 0.01188-0.2502 0.028939-0.37207zm1.0293945 0.28991c0.025397-0.0116 0.020635 0.034 0 0.0372-0.019579 3e-3 -0.01905-0.0282 0-0.0372z" style="fill:#ffffff;stroke-width:.22371341"/>
 </g>
</svg>
