<?xml version="1.0" encoding="UTF-8"?>
<svg width="64" height="64" version="1.1" viewBox="0 0 16.933333 16.933334" xmlns="http://www.w3.org/2000/svg" xmlns:xlink="http://www.w3.org/1999/xlink">
 <defs>
  <linearGradient id="linearGradient1455" x1="130.16949" x2="130.16949" y1="6.7796607" y2="47.728813" gradientTransform="matrix(.34001978 0 0 .34055744 -36.834059 -298.44484)" gradientUnits="userSpaceOnUse">
   <stop style="stop-color:#a8a8a8" offset="0"/>
   <stop style="stop-color:#d0d0d0" offset="1"/>
  </linearGradient>
  <linearGradient id="linearGradient1468" x1="130.16949" x2="130.16949" y1="6.7796607" y2="47.728813" gradientTransform="matrix(.34001978 0 0 .34055744 -35.214053 -297.09271)" gradientUnits="userSpaceOnUse">
   <stop style="stop-color:#ff771d" offset="0"/>
   <stop style="stop-color:#ff944d" offset="1"/>
  </linearGradient>
 </defs>
 <g transform="translate(0,-280.06665)">
  <path transform="scale(1,-1)" d="m2.116667-296.47083h11.079996v14.52287h-11.079996z" style="fill:url(#linearGradient1455);paint-order:stroke fill markers"/>
  <path transform="scale(1,-1)" d="m3.7366705-295.11868h11.079996v14.52286h-11.079996z" style="fill:url(#linearGradient1468);paint-order:stroke fill markers"/>
  <path d="m9.6185676 284.64654c1.3453804 0 2.4362264 1.08866 2.4362264 2.43409h-2.4362264c5.304e-4 0 5.304e-4 -2.43409 0-2.43409zm-0.6848066 0.66183v2.4364h2.436224c0 1.34683-1.090343 2.4363-2.436224 2.4363-1.3458857 0-2.4352178-1.08947-2.4352178-2.4363 0-1.3459 1.0898369-2.4364 2.4352178-2.4364z" style="fill:#ffffff;stroke-width:.43451941"/>
 </g>
</svg>
