<?xml version="1.0" encoding="UTF-8"?>
<svg id="svg29" version="1.1" viewBox="0 0 64 64" xmlns="http://www.w3.org/2000/svg" xmlns:xlink="http://www.w3.org/1999/xlink">
 <defs id="defs33">
  <linearGradient id="linearGradient1455" x1="130.16949" x2="130.16949" y1="6.7796607" y2="47.728813" gradientTransform="matrix(1.2851141,0,0,1.2871462,-139.21535,-69.460851)" gradientUnits="userSpaceOnUse">
   <stop id="stop1493" style="stop-color:#a8a8a8" offset="0"/>
   <stop id="stop1495" style="stop-color:#d0d0d0" offset="1"/>
  </linearGradient>
  <linearGradient id="linearGradient1468" x1="130.16949" x2="130.16949" y1="6.7796607" y2="47.728813" gradientTransform="matrix(1.2851141,0,0,1.2871462,-133.09249,-64.350438)" gradientUnits="userSpaceOnUse">
   <stop id="stop1449" style="stop-color:#d3d7da" offset="0"/>
   <stop id="stop1451" style="stop-color:#eeeeee" offset="1"/>
  </linearGradient>
 </defs>
 <rect id="rect1243" transform="scale(1,-1)" x="8" y="-62.000011" width="41.877155" height="54.889561" style="fill:url(#linearGradient1455);paint-order:stroke fill markers"/>
 <rect id="rect1466" transform="scale(1,-1)" x="14.122845" y="-56.889549" width="41.877155" height="54.889561" style="fill:url(#linearGradient1468);paint-order:stroke fill markers"/>
 <path id="path25" d="m41.061422 31.444769h-2v-4h2c2.209 0 4-1.791 4-4s-1.791-4-4-4c-2.20925 0-4 1.791-4 4v2h-4v-2c0-2.209-1.791-4-4-4s-4 1.791-4 4 1.791 4 4 4h2v4h-2c-2.209 0-4 1.791-4 4s1.791 4 4 4c2.20925 0 4-1.791 4-4v-2h4v1.995c0 2e-3 -2.5e-4 0.0035-2.5e-4 5e-3 0 2.209 1.791 4 4 4s4-1.791 4-4-1.79075-3.9995-3.99975-4zm0-10c1.1045 0 2 0.8955 2 2s-0.8955 2-2 2h-2v-2c0-1.1045 0.8955-2 2-2zm-14 2c0-1.1045 0.8955-2 2-2s2 0.8955 2 2v2h-2c-1.1045 0-2-0.89575-2-2zm2 14c-1.1045 0-2-0.8955-2-2s0.8955-2 2-2h2v2c0 1.1045-0.8955 2-2 2zm4-6v-4h4v4zm8 6c-1.1045 0-2-0.8955-2-2v-2h1.99975c1.1045 0 2 0.8955 2 2s-0.89525 2-1.99975 2z" style="fill:#4d4d4d;stroke-width:.27500001"/>
</svg>
