<?xml version="1.0" encoding="UTF-8"?>
<svg id="svg41" version="1.1" viewBox="0 0 64 64" xmlns="http://www.w3.org/2000/svg" xmlns:xlink="http://www.w3.org/1999/xlink">
 <defs id="defs45">
  <linearGradient id="linearGradient1455-5" x1="130.16949" x2="130.16949" y1="6.7796607" y2="47.728813" gradientTransform="matrix(1.2851141,0,0,1.2871462,-139.21534,-69.460853)" gradientUnits="userSpaceOnUse">
   <stop id="stop1493" style="stop-color:#a8a8a8" offset="0"/>
   <stop id="stop1495" style="stop-color:#d0d0d0" offset="1"/>
  </linearGradient>
  <linearGradient id="linearGradient1468-6" x1="130.16949" x2="130.16949" y1="6.0678883" y2="47.728813" gradientTransform="matrix(1.2851141,0,0,1.2871462,-133.09249,-64.350403)" gradientUnits="userSpaceOnUse">
   <stop id="stop1449-9" style="stop-color:#ffb40d" offset="0"/>
   <stop id="stop1451-1" style="stop-color:#ffcc5d" offset="1"/>
  </linearGradient>
 </defs>
 <rect id="rect1243-9" transform="scale(1,-1)" x="8" y="-62.000011" width="41.877151" height="54.889561" style="fill:url(#linearGradient1455-5);paint-order:stroke fill markers"/>
 <rect id="rect1466-3" transform="scale(1,-1)" x="14.122849" y="-56.889545" width="41.877151" height="54.889561" style="fill:url(#linearGradient1468-6);paint-order:stroke fill markers"/>
 <text id="text879" x="-126.0047" y="23.546938" style="fill:#000000;font-family:sans-serif;font-size:40px;letter-spacing:0px;line-height:1.25;word-spacing:0px" xml:space="preserve"><tspan id="tspan877" x="-126.0047" y="58.937561"/></text>
 <text id="text879-5" transform="scale(.99364346 1.0063972)" x="31.644129" y="28.163994" style="fill:#000000;font-family:sans-serif;font-size:49.582409px;letter-spacing:0px;line-height:1.25;word-spacing:0px" xml:space="preserve"><tspan id="tspan877-3" x="31.644129" y="72.032806"/></text>
 <text id="text879-1" transform="scale(.99364346 1.0063972)" x="-91.709587" y="33.897156" style="fill:#000000;font-family:sans-serif;font-size:49.582409px;letter-spacing:0px;line-height:1.25;word-spacing:0px" xml:space="preserve"><tspan id="tspan877-2" x="-91.709587" y="77.765968"/></text>
 <text id="text879-7" x="-244.98289" y="33.830395" style="fill:#000000;font-family:sans-serif;font-size:40px;letter-spacing:0px;line-height:1.25;word-spacing:0px" xml:space="preserve"><tspan id="tspan877-5" x="-244.98289" y="69.221024"/></text>
 <text id="text879-5-3" transform="scale(.99364346 1.0063972)" x="-88.0952" y="38.382084" style="fill:#000000;font-family:sans-serif;font-size:49.582409px;letter-spacing:0px;line-height:1.25;word-spacing:0px" xml:space="preserve"><tspan id="tspan877-3-5" x="-88.0952" y="82.250893"/></text>
 <text id="text879-1-6" transform="scale(.99364346 1.0063972)" x="-211.44891" y="44.115242" style="fill:#000000;font-family:sans-serif;font-size:49.582409px;letter-spacing:0px;line-height:1.25;word-spacing:0px" xml:space="preserve"><tspan id="tspan877-2-2" x="-211.44891" y="87.984055"/></text>
 <path id="path4181" d="m25.061425 19.444765 1.428572 17.333333 8.571428 2.666667 8.571428-2.666667 1.428572-17.333333h-10zm2.717634 2.666668h14.567522l-0.856584 5.333332-0.429688 2.666667-0.92634 5.333333-2.215401 0.666667-2.857143 0.666666-2.857143-0.666666-2.784599-0.666667-0.357142-2.666667h2.368861l0.0586 0.533855 3.571429 1.065103 3.071986-1.065103 0.214844-1.867187 0.15346-1.333334h-9.796318l-0.287388-2.666666h10.644532l0.357142-2.666667h-11.213726z" style="fill-rule:evenodd;fill:#ffffff"/>
</svg>
