<?xml version="1.0" encoding="UTF-8" standalone="no"?>
<svg
   xmlns:dc="http://purl.org/dc/elements/1.1/"
   xmlns:cc="http://creativecommons.org/ns#"
   xmlns:rdf="http://www.w3.org/1999/02/22-rdf-syntax-ns#"
   xmlns:svg="http://www.w3.org/2000/svg"
   xmlns="http://www.w3.org/2000/svg"
   id="SVGRoot"
   version="1.1"
   viewBox="0 0 64 64"
   height="64px"
   width="64px">
  <defs
     id="defs1374">
    <linearGradient
       id="a"
       gradientTransform="matrix(1.0749904,0,0,1.0292896,113.08072,0.07343974)"
       gradientUnits="userSpaceOnUse"
       x1="-74.929466"
       x2="-74.929466"
       y1="52.199436"
       y2="1.6137927">
      <stop
         offset="0"
         stop-color="#d1d7df"
         id="stop2"
         style="stop-color:#c8c8c8;stop-opacity:1" />
      <stop
         offset="1"
         stop-color="#e0e5e7"
         id="stop4"
         style="stop-color:#dcdcdc;stop-opacity:1" />
    </linearGradient>
  </defs>
  <metadata
     id="metadata1377">
    <rdf:RDF>
      <cc:Work
         rdf:about="">
        <dc:format>image/svg+xml</dc:format>
        <dc:type
           rdf:resource="http://purl.org/dc/dcmitype/StillImage" />
        <dc:title></dc:title>
      </cc:Work>
    </rdf:RDF>
  </metadata>
  <rect
     height="52.831711"
     ry="2.5"
     width="44"
     x="10"
     y="1.7344997"
     id="rect9"
     style="fill:url(#a)"
     rx="2.5" />
  <path
     id="rect7"
     d="M 10 51.353516 L 10 57.066406 L 10 59.265625 L 10 59.765625 C 10 61.150625 11.115 62.265625 12.5 62.265625 L 51.5 62.265625 C 52.885 62.265625 54 61.150625 54 59.765625 L 54 59.265625 L 54 57.066406 L 54 51.353516 L 10 51.353516 z "
     style="fill:#363c42;fill-opacity:1" />
  <g
     transform="matrix(0.81954967,0,0,0.81954967,52.593044,10.071746)"
     id="g21"
     style="fill:#ffffff">
    <path
       style="fill:#ffffff"
       d="m -31.005783,60.228666 q -0.77,0 -1.18,-0.41 -0.4,-0.41 -0.4,-1.16 v -2.57 h -0.86 v -0.84 h 0.86 v -1.5 h 0.92 v 1.5 h 1.2 v 0.84 h -1.2 v 2.5 q 0,0.8 0.66,0.8 0.25,0 0.42,-0.08 l 0.32,0.79 q -0.3,0.13 -0.74,0.13 z"
       id="path13" />
    <path
       style="fill:#ffffff"
       d="m -27.429221,60.308666 q -1.11,0 -1.81,-0.74 -0.69,-0.74 -0.69,-1.87 0,-1.07 0.67,-1.84 0.68,-0.77 1.73,-0.77 1.09,0 1.74,0.71 0.66,0.71 0.66,1.9 l -0.01,0.17 h -3.87 q 0.04,0.74 0.49,1.17 0.46,0.43 1.07,0.43 0.99,0 1.34,-0.84 l 0.82,0.34 q -0.24,0.57 -0.79,0.96 -0.55,0.38 -1.35,0.38 z m 1.32,-3.2 q -0.03,-0.42 -0.39,-0.8 -0.35,-0.38 -1.05,-0.38 -0.51,0 -0.89,0.32 -0.37,0.32 -0.51,0.86 z"
       id="path15" />
    <path
       style="fill:#ffffff"
       d="m -20.315315,60.148666 h -1.08 l -1.21,-1.81 -1.19,1.81 h -1.08 l 1.73,-2.49 -1.69,-2.41 h 1.04 l 1.21,1.73 1.15,-1.73 h 1.08 l -1.71,2.41 z"
       id="path17" />
    <path
       style="fill:#ffffff"
       d="m -17.548752,60.228666 q -0.77,0 -1.18,-0.41 -0.4,-0.41 -0.4,-1.16 v -2.57 h -0.86 v -0.84 h 0.86 v -1.5 h 0.92 v 1.5 h 1.2 v 0.84 h -1.2 v 2.5 q 0,0.8 0.66,0.8 0.25,0 0.42,-0.08 l 0.32,0.79 q -0.3,0.13 -0.74,0.13 z"
       id="path19" />
  </g>
  <path
     id="rect3500"
     d="M 20.617188 12.392578 L 20.617188 13.228516 L 20.617188 41.246094 L 36.181641 41.246094 L 43.382812 34.195312 L 43.382812 19.791016 L 43.382812 12.392578 L 35.828125 12.392578 L 20.617188 12.392578 z M 22.324219 14.064453 L 35.828125 14.064453 L 41.675781 14.064453 L 41.675781 19.791016 L 41.675781 33.429688 L 35.431641 33.429688 L 35.431641 39.574219 L 22.324219 39.574219 L 22.324219 14.064453 z M 24.970703 18.447266 L 24.970703 19.291016 L 24.970703 24.375 L 30.988281 24.375 L 30.988281 18.447266 L 24.970703 18.447266 z M 32.595703 18.447266 L 32.595703 18.955078 L 38.804688 18.955078 L 38.804688 18.447266 L 32.595703 18.447266 z M 32.595703 20.482422 L 32.595703 20.992188 L 38.804688 20.992188 L 38.804688 20.482422 L 32.595703 20.482422 z M 32.595703 22.517578 L 32.595703 23.027344 L 38.804688 23.027344 L 38.804688 22.517578 L 32.595703 22.517578 z M 25.197266 25.347656 L 25.197266 25.857422 L 38.804688 25.857422 L 38.804688 25.347656 L 25.197266 25.347656 z M 25.197266 27.382812 L 25.197266 27.892578 L 38.804688 27.892578 L 38.804688 27.382812 L 25.197266 27.382812 z M 25.197266 29.419922 L 25.197266 29.929688 L 38.804688 29.929688 L 38.804688 29.419922 L 25.197266 29.419922 z M 25.197266 31.455078 L 25.197266 31.964844 L 38.804688 31.964844 L 38.804688 31.455078 L 25.197266 31.455078 z "
     style="color:#000000;font-style:normal;font-variant:normal;font-weight:normal;font-stretch:normal;font-size:medium;line-height:normal;font-family:sans-serif;font-variant-ligatures:normal;font-variant-position:normal;font-variant-caps:normal;font-variant-numeric:normal;font-variant-alternates:normal;font-feature-settings:normal;text-indent:0;text-align:start;text-decoration:none;text-decoration-line:none;text-decoration-style:solid;text-decoration-color:#000000;letter-spacing:normal;word-spacing:normal;text-transform:none;writing-mode:lr-tb;direction:ltr;text-orientation:mixed;dominant-baseline:auto;baseline-shift:baseline;text-anchor:start;white-space:normal;shape-padding:0;clip-rule:nonzero;display:inline;overflow:visible;visibility:visible;opacity:1;isolation:auto;mix-blend-mode:normal;color-interpolation:sRGB;color-interpolation-filters:linearRGB;solid-color:#000000;solid-opacity:1;vector-effect:none;fill:#363c42;fill-opacity:1;fill-rule:nonzero;stroke:none;stroke-width:1.68895781;stroke-linecap:butt;stroke-linejoin:miter;stroke-miterlimit:4;stroke-dasharray:none;stroke-dashoffset:0;stroke-opacity:1;color-rendering:auto;image-rendering:auto;shape-rendering:auto;text-rendering:auto;enable-background:accumulate" />
</svg>
