<?xml version="1.0" encoding="UTF-8" standalone="no"?>
<svg
   xmlns:dc="http://purl.org/dc/elements/1.1/"
   xmlns:cc="http://creativecommons.org/ns#"
   xmlns:rdf="http://www.w3.org/1999/02/22-rdf-syntax-ns#"
   xmlns:svg="http://www.w3.org/2000/svg"
   xmlns="http://www.w3.org/2000/svg"
   id="SVGRoot"
   version="1.1"
   viewBox="0 0 64 64"
   height="64px"
   width="64px">
  <defs
     id="defs1374">
    <linearGradient
       id="a"
       gradientTransform="matrix(1.0749904,0,0,1.0292896,113.08072,0.07343974)"
       gradientUnits="userSpaceOnUse"
       x1="-74.929466"
       x2="-74.929466"
       y1="52.199436"
       y2="1.6137927">
      <stop
         offset="0"
         stop-color="#d1d7df"
         id="stop2"
         style="stop-color:#c8c8c8;stop-opacity:1" />
      <stop
         offset="1"
         stop-color="#e0e5e7"
         id="stop4"
         style="stop-color:#dcdcdc;stop-opacity:1" />
    </linearGradient>
  </defs>
  <metadata
     id="metadata1377">
    <rdf:RDF>
      <cc:Work
         rdf:about="">
        <dc:format>image/svg+xml</dc:format>
        <dc:type
           rdf:resource="http://purl.org/dc/dcmitype/StillImage" />
        <dc:title></dc:title>
      </cc:Work>
    </rdf:RDF>
  </metadata>
  <rect
     height="52.831711"
     ry="2.5"
     width="44"
     x="10"
     y="1.7344997"
     id="rect9"
     style="fill:url(#a)"
     rx="2.5" />
  <path
     id="rect7"
     d="M 10 51.353516 L 10 57.066406 L 10 59.265625 L 10 59.765625 C 10 61.150625 11.115 62.265625 12.5 62.265625 L 51.5 62.265625 C 52.885 62.265625 54 61.150625 54 59.765625 L 54 59.265625 L 54 57.066406 L 54 51.353516 L 10 51.353516 z "
     style="fill:#363c42;fill-opacity:1" />
  <path
     id="rect3500"
     d="M 20.617188 12.392578 L 20.617188 13.228516 L 20.617188 41.246094 L 36.181641 41.246094 L 43.382812 34.195312 L 43.382812 19.791016 L 43.382812 12.392578 L 35.828125 12.392578 L 20.617188 12.392578 z M 22.324219 14.064453 L 35.828125 14.064453 L 41.675781 14.064453 L 41.675781 19.791016 L 41.675781 33.429688 L 35.431641 33.429688 L 35.431641 39.574219 L 22.324219 39.574219 L 22.324219 14.064453 z M 24.970703 18.447266 L 24.970703 19.291016 L 24.970703 24.375 L 30.988281 24.375 L 30.988281 18.447266 L 24.970703 18.447266 z M 32.595703 18.447266 L 32.595703 18.955078 L 38.804688 18.955078 L 38.804688 18.447266 L 32.595703 18.447266 z M 32.595703 20.482422 L 32.595703 20.992188 L 38.804688 20.992188 L 38.804688 20.482422 L 32.595703 20.482422 z M 32.595703 22.517578 L 32.595703 23.027344 L 38.804688 23.027344 L 38.804688 22.517578 L 32.595703 22.517578 z M 25.197266 25.347656 L 25.197266 25.857422 L 38.804688 25.857422 L 38.804688 25.347656 L 25.197266 25.347656 z M 25.197266 27.382812 L 25.197266 27.892578 L 38.804688 27.892578 L 38.804688 27.382812 L 25.197266 27.382812 z M 25.197266 29.419922 L 25.197266 29.929688 L 38.804688 29.929688 L 38.804688 29.419922 L 25.197266 29.419922 z M 25.197266 31.455078 L 25.197266 31.964844 L 38.804688 31.964844 L 38.804688 31.455078 L 25.197266 31.455078 z "
     style="color:#000000;font-style:normal;font-variant:normal;font-weight:normal;font-stretch:normal;font-size:medium;line-height:normal;font-family:sans-serif;font-variant-ligatures:normal;font-variant-position:normal;font-variant-caps:normal;font-variant-numeric:normal;font-variant-alternates:normal;font-feature-settings:normal;text-indent:0;text-align:start;text-decoration:none;text-decoration-line:none;text-decoration-style:solid;text-decoration-color:#000000;letter-spacing:normal;word-spacing:normal;text-transform:none;writing-mode:lr-tb;direction:ltr;text-orientation:mixed;dominant-baseline:auto;baseline-shift:baseline;text-anchor:start;white-space:normal;shape-padding:0;clip-rule:nonzero;display:inline;overflow:visible;visibility:visible;opacity:1;isolation:auto;mix-blend-mode:normal;color-interpolation:sRGB;color-interpolation-filters:linearRGB;solid-color:#000000;solid-opacity:1;vector-effect:none;fill:#363c42;fill-opacity:1;fill-rule:nonzero;stroke:none;stroke-width:1.68895781;stroke-linecap:butt;stroke-linejoin:miter;stroke-miterlimit:4;stroke-dasharray:none;stroke-dashoffset:0;stroke-opacity:1;color-rendering:auto;image-rendering:auto;shape-rendering:auto;text-rendering:auto;enable-background:accumulate" />
</svg>
