<?xml version="1.0" encoding="UTF-8" standalone="no"?>
<svg
   xmlns:dc="http://purl.org/dc/elements/1.1/"
   xmlns:cc="http://creativecommons.org/ns#"
   xmlns:rdf="http://www.w3.org/1999/02/22-rdf-syntax-ns#"
   xmlns:svg="http://www.w3.org/2000/svg"
   xmlns="http://www.w3.org/2000/svg"
   xmlns:xlink="http://www.w3.org/1999/xlink"
   id="SVGRoot"
   version="1.1"
   viewBox="0 0 64 64"
   height="64px"
   width="64px">
  <defs
     id="defs932">
    <linearGradient
       gradientUnits="userSpaceOnUse"
       y2="16.321087"
       x2="32.667969"
       y1="55.27832"
       x1="32.667969"
       id="linearGradient1026"
       xlink:href="#linearGradient-1"
       gradientTransform="translate(0,0.265501)" />
    <linearGradient
       id="linearGradient-1"
       y2="39.51638"
       x2="26.495173"
       y1="4.8640809"
       x1="26.495173"
       gradientTransform="matrix(0.90582163,0,0,1.1039701,-51.900203,-0.27966102)"
       gradientUnits="userSpaceOnUse">
      <stop
         id="stop6"
         offset="0%"
         stop-color="#DADEF0" />
      <stop
         id="stop8"
         offset="100%"
         stop-color="#F5F5FA" />
    </linearGradient>
  </defs>
  <metadata
     id="metadata935">
    <rdf:RDF>
      <cc:Work
         rdf:about="">
        <dc:format>image/svg+xml</dc:format>
        <dc:type
           rdf:resource="http://purl.org/dc/dcmitype/StillImage" />
        <dc:title></dc:title>
      </cc:Work>
    </rdf:RDF>
  </metadata>
  <g
     id="layer1">
    <rect
       rx="2.8362639"
       style="fill:url(#linearGradient1026);fill-opacity:1;stroke-width:1.0001055"
       id="rect7"
       y="1.734499"
       x="10"
       width="44"
       ry="2.8362639"
       height="52.842834" />
    <path
       id="path41"
       d="m 10,51.353392 v 5.71289 2.199219 0.5 c 0,1.385 1.115,2.5 2.5,2.5 h 39 c 1.385,0 2.5,-1.115 2.5,-2.5 v -0.5 -2.199219 -5.71289 z"
       style="fill:#3d434a" />
    <g
       style="fill:#ffffff"
       transform="translate(0,0.265496)"
       id="g53">
      <path
         id="path43"
         d="m 22.402344,54.254883 v 1.023437 h 0.789062 v 0.558594 h -0.789062 v 2.621094 q 0,0.253906 0.105468,0.382812 0.105469,0.125 0.359375,0.125 0.125,0 0.34375,-0.04687 v 0.585938 q -0.285156,0.07813 -0.554687,0.07813 -0.484375,0 -0.730469,-0.292969 -0.246094,-0.292969 -0.246094,-0.832031 V 55.836914 H 20.910156 V 55.27832 h 0.769531 v -1.023437 z" />
      <path
         id="path45"
         d="m 24.753906,55.790039 q 0.480469,-0.589844 1.25,-0.589844 1.339844,0 1.351563,1.511719 v 2.792969 h -0.722657 v -2.796875 q -0.0039,-0.457031 -0.210937,-0.675781 -0.203125,-0.21875 -0.636719,-0.21875 -0.351562,0 -0.617187,0.1875 -0.265625,0.1875 -0.414063,0.492187 v 3.011719 H 24.03125 v -6 h 0.722656 z" />
      <path
         id="path47"
         d="m 30.191406,59.583008 q -0.859375,0 -1.398437,-0.5625 -0.539063,-0.566406 -0.539063,-1.511719 v -0.132812 q 0,-0.628907 0.238281,-1.121094 0.242188,-0.496094 0.671875,-0.773438 0.433594,-0.28125 0.9375,-0.28125 0.824219,0 1.28125,0.542969 0.457032,0.542969 0.457032,1.554688 v 0.300781 h -2.863282 q 0.01563,0.625 0.363282,1.011719 0.351562,0.382812 0.890625,0.382812 0.382812,0 0.648437,-0.15625 0.265625,-0.15625 0.464844,-0.414062 l 0.441406,0.34375 q -0.53125,0.816406 -1.59375,0.816406 z m -0.08984,-3.789063 q -0.4375,0 -0.734375,0.320313 Q 29.070312,56.430664 29,57.004883 h 2.117187 v -0.05469 q -0.03125,-0.550781 -0.296875,-0.851562 -0.265625,-0.304688 -0.71875,-0.304688 z" />
      <path
         id="path49"
         d="m 33.351562,55.27832 0.01953,0.46875 q 0.464843,-0.546875 1.253906,-0.546875 0.886719,0 1.207031,0.679688 0.210938,-0.304688 0.546875,-0.492188 0.339844,-0.1875 0.800781,-0.1875 1.390625,0 1.414063,1.472657 v 2.832031 H 37.871094 V 56.71582 q 0,-0.453125 -0.207032,-0.675781 -0.207031,-0.226562 -0.695312,-0.226562 -0.402344,0 -0.667969,0.242187 -0.265625,0.238281 -0.308594,0.644531 v 2.804688 h -0.726562 v -2.769531 q 0,-0.921875 -0.902344,-0.921875 -0.710937,0 -0.972656,0.605468 v 3.085938 H 32.667969 V 55.27832 Z" />
      <path
         id="path51"
         d="m 41.441406,59.583008 q -0.859375,0 -1.398437,-0.5625 -0.539063,-0.566406 -0.539063,-1.511719 v -0.132812 q 0,-0.628907 0.238281,-1.121094 0.242188,-0.496094 0.671875,-0.773438 0.433594,-0.28125 0.9375,-0.28125 0.824219,0 1.28125,0.542969 0.457032,0.542969 0.457032,1.554688 v 0.300781 h -2.863282 q 0.01563,0.625 0.363282,1.011719 0.351562,0.382812 0.890625,0.382812 0.382812,0 0.648437,-0.15625 0.265625,-0.15625 0.464844,-0.414062 l 0.441406,0.34375 q -0.53125,0.816406 -1.59375,0.816406 z m -0.08984,-3.789063 q -0.4375,0 -0.734375,0.320313 -0.296875,0.316406 -0.367187,0.890625 h 2.117187 v -0.05469 q -0.03125,-0.550781 -0.296875,-0.851562 -0.265625,-0.304688 -0.71875,-0.304688 z" />
    </g>
    <g
       transform="matrix(0.91510135,0,0,0.91510135,2.4155947,4.0844227)"
       id="g878">
      <path
         style="fill:#4d4d4d;fill-rule:evenodd;stroke:none;stroke-width:1.34352458"
         d="m 37.245128,38.237398 c -0.86312,0 -1.461108,0.0987 -1.793968,0.296086 -0.332863,0.197402 -0.499294,0.534131 -0.499291,1.010201 -3e-6,0.379305 0.123859,0.681201 0.371566,0.905688 0.251579,0.220619 0.59218,0.330929 1.021807,0.330929 0.59218,0 1.066314,-0.209005 1.422402,-0.627021 0.35995,-0.421878 0.539927,-0.981162 0.539933,-1.67785 v -0.238038 h -1.062449 m 2.130701,-0.441234 v 3.70986 h -1.068252 v -0.986977 c -0.243846,0.394793 -0.547679,0.687011 -0.9115,0.876667 -0.363829,0.185783 -0.808933,0.278674 -1.335315,0.278674 -0.665726,0 -1.19598,-0.185783 -1.590768,-0.557348 -0.39092,-0.375437 -0.586379,-0.876667 -0.586379,-1.503682 0,-0.731521 0.24384,-1.283063 0.731521,-1.654634 0.49155,-0.37156 1.22307,-0.557342 2.194564,-0.557348 h 1.497877 v -0.104499 c -6e-6,-0.491547 -0.162567,-0.870852 -0.487682,-1.137922 -0.321254,-0.270927 -0.7741,-0.406391 -1.358539,-0.406396 -0.371569,5e-6 -0.733459,0.04454 -1.08567,0.133519 -0.352215,0.08904 -0.690882,0.222562 -1.016001,0.400598 v -0.986972 c 0.390917,-0.150945 0.770224,-0.263186 1.137921,-0.336733 0.367693,-0.0774 0.725713,-0.116108 1.074059,-0.116121 0.940522,5e-6 1.643015,0.243848 2.107477,0.731521 0.464452,0.487684 0.696681,1.226945 0.696687,2.217785"
         id="path4446" />
      <path
         style="fill:#4d4d4d;fill-rule:evenodd;stroke:none;stroke-width:1.34352458"
         d="m 28.641187,32.091671 -3.358811,9.404672 h 1.343525 l 0.940468,-2.687049 h 3.493161 l 0.940469,2.687049 h 1.343525 l -3.306902,-9.404672 z m -0.671762,5.374098 1.343525,-4.030574 1.343524,4.030574 z"
         id="Combined-Shape" />
    </g>
    <g
       transform="matrix(1.4306872,0,0,1.4306872,16.262441,11.638965)"
       id="Group"
       style="fill:none;fill-rule:evenodd;stroke:none;stroke-width:1">
      <path
         id="path4155"
         d="m 20.166667,9.2857143 c -1.012523,0 -1.833334,0.8314707 -1.833334,1.8571427 C 18.333333,12.168529 19.154144,13 20.166667,13 21.179189,13 22,12.168529 22,11.142857 22,10.117185 21.179189,9.2857143 20.166667,9.2857143 Z"
         style="fill:#fc0000" />
      <path
         id="path4153"
         d="m 16.5,9.9047619 c -0.675015,0 -1.222222,0.5543141 -1.222222,1.2380951 0,0.683782 0.547207,1.238095 1.222222,1.238095 0.675015,0 1.222222,-0.554313 1.222222,-1.238095 0,-0.683781 -0.547207,-1.2380951 -1.222222,-1.2380951 z"
         style="fill:#fc0000" />
      <path
         id="path4123"
         d="m 14.055556,10.52381 c -0.337508,0 -0.611112,0.277156 -0.611112,0.619047 0,0.341891 0.273604,0.619048 0.611112,0.619048 0.337507,0 0.611111,-0.277157 0.611111,-0.619048 0,-0.341891 -0.273604,-0.619047 -0.611111,-0.619047 z"
         style="fill:#fc0000" />
      <path
         id="path4161"
         d="m 18.021899,4.8916679 c -0.876869,0.5128345 -1.177307,1.6486445 -0.671046,2.5369035 0.506261,0.8882591 1.62751,1.1925984 2.50438,0.6797607 C 20.732103,7.5954976 21.03254,6.4596876 20.52628,5.5714286 20.020018,4.6831695 18.898769,4.3788302 18.021899,4.8916679 Z"
         style="fill:#ff6600" />
      <path
         id="path4159"
         d="m 15.152029,7.2849214 c -0.58458,0.3418907 -0.784872,1.0990974 -0.447365,1.6912691 0.337508,0.5921716 1.085007,0.7950645 1.669587,0.4531738 0.58458,-0.3418907 0.784871,-1.0990974 0.447364,-1.6912691 C 16.484108,7.1459236 15.736609,6.9430307 15.152029,7.2849214 Z"
         style="fill:#ff6600" />
      <path
         id="path4125"
         d="m 13.340633,9.0591274 c -0.29229,0.1709438 -0.392436,0.5495471 -0.223682,0.8456345 0.168754,0.2960871 0.542503,0.3975341 0.834793,0.2265871 C 14.244034,9.960405 14.34418,9.5818017 14.175427,9.2857143 14.006673,8.9896269 13.632923,8.8881836 13.340633,9.0591274 Z"
         style="fill:#ff6600" />
      <path
         id="path4167"
         d="m 13.99562,2.1726219 c -0.506261,0.888256 -0.205823,2.024069 0.671047,2.5369036 0.87687,0.5128345 1.998118,0.2084952 2.504379,-0.6797607 C 17.677308,3.1415057 17.37687,2.0056957 16.5,1.4928612 15.62313,0.98002357 14.501881,1.2843629 13.99562,2.1726219 Z"
         style="fill:#ffd700" />
      <path
         id="path4165"
         d="m 12.691524,5.69881 c -0.337507,0.5921717 -0.137215,1.3493783 0.447365,1.691269 0.58458,0.3418908 1.332079,0.1389979 1.669587,-0.4531738 C 15.145983,6.3447336 14.945691,5.5875269 14.361111,5.2456362 13.776531,4.9037455 13.029032,5.1066383 12.691524,5.69881 Z"
         style="fill:#ffd700" />
      <path
         id="path4127"
         d="m 11.99854,8.1527798 c -0.168753,0.2960842 -0.06861,0.6746876 0.223682,0.8456345 0.29229,0.1709438 0.66604,0.069497 0.834794,-0.2265869 C 13.225769,8.47574 13.125623,8.0971367 12.833333,7.9261929 12.541044,7.7552459 12.167294,7.8566924 11.99854,8.1527798 Z"
         style="fill:#ffd700" />
      <path
         id="path4173"
         d="M 9.166667,1.8571429 C 9.1666667,2.882815 9.9874778,3.7142857 11,3.7142857 c 1.012522,0 1.833333,-0.8314707 1.833333,-1.8571428 C 12.833333,0.83147071 12.012522,0 11,0 9.9874778,0 9.1666667,0.83147071 9.166667,1.8571429 Z"
         style="fill:#25cc00" />
      <path
         id="path4171"
         d="m 9.7777778,5.5714286 c 0,0.6837814 0.5472082,1.2380952 1.2222222,1.2380952 0.675015,0 1.222222,-0.5543138 1.222223,-1.2380952 C 12.222222,4.8876471 11.675014,4.3333333 11,4.3333333 c -0.675014,0 -1.2222222,0.5543138 -1.2222222,1.2380953 z"
         style="fill:#25cc00" />
      <path
         id="path4129"
         d="m 10.388889,8.0476191 c 0,0.3418907 0.273604,0.6190476 0.611111,0.6190476 0.337507,0 0.611111,-0.2771569 0.611111,-0.6190476 0,-0.3418908 -0.273604,-0.6190477 -0.611111,-0.6190477 -0.337507,0 -0.611111,0.2771569 -0.611111,0.6190477 z"
         style="fill:#25cc00" />
      <path
         id="path4179"
         d="M 4.8289539,4.0297648 C 5.3352145,4.9180207 6.4564634,5.2223631 7.3333333,4.7095255 8.2102032,4.1966909 8.510641,3.0608779 8.0043798,2.1726219 7.4981188,1.2843629 6.3768699,0.98002357 5.5,1.4928612 4.6231301,2.0056957 4.3226923,3.1415057 4.8289539,4.0297648 Z"
         style="fill:#009999" />
      <path
         id="path4177"
         d="M 7.1915244,6.9369052 C 7.5290319,7.5290769 8.2765314,7.7319698 8.8611111,7.390079 9.4456911,7.0481883 9.6459828,6.2909817 9.3084759,5.69881 8.9709681,5.1066383 8.2234686,4.9037455 7.6388889,5.2456362 7.0543092,5.5875269 6.8540172,6.3447336 7.1915244,6.9369052 Z"
         style="fill:#009999" />
      <path
         id="path4131"
         d="M 8.9429844,8.7718274 C 9.1117385,9.0679117 9.4854879,9.1693581 9.7777778,8.9984143 10.070068,8.8274674 10.170213,8.448864 10.00146,8.1527798 9.8327063,7.8566924 9.4589565,7.7552459 9.1666667,7.9261929 8.8743768,8.0971367 8.774231,8.47574 8.9429844,8.7718274 Z"
         style="fill:#009999" />
      <path
         id="path4185"
         d="M 2.1447675,8.1083321 C 3.0216371,8.6211698 4.142886,8.3168305 4.6491473,7.4285714 5.1554082,6.5403124 4.8549704,5.4045024 3.9781005,4.8916679 3.1012306,4.3788302 1.9799817,4.6831695 1.4737207,5.5714286 0.96745947,6.4596876 1.2678973,7.5954976 2.1447675,8.1083321 Z"
         style="fill:#0033cc" />
      <path
         id="path4183"
         d="M 5.6257489,9.4293643 C 6.210329,9.771255 6.9578285,9.5683621 7.295336,8.9761905 7.6328432,8.3840188 7.4325512,7.6268121 6.8479718,7.2849214 6.2633914,6.9430307 5.5158919,7.1459236 5.1783847,7.7380952 4.8408776,8.3302669 5.0411692,9.0874736 5.6257489,9.4293643 Z"
         style="fill:#0033cc" />
      <path
         id="path4133"
         d="m 8.0482557,10.131349 c 0.2922902,0.170947 0.6660396,0.0695 0.8347934,-0.2265871 C 9.0518028,9.6086776 8.9516567,9.2300712 8.6593668,9.0591274 8.367077,8.8881836 7.9933272,8.9896269 7.8245735,9.2857143 7.65582,9.5818017 7.7559659,9.960405 8.0482557,10.131349 Z"
         style="fill:#0033cc" />
      <path
         id="path4191"
         d="M 1.8333336,13 C 2.8458555,13 3.6666667,12.168529 3.666667,11.142857 3.6666667,10.117185 2.8458555,9.2857143 1.8333333,9.2857143 0.82081114,9.2857143 0,10.117185 3.0555555e-7,11.142857 0,12.168529 0.82081114,13 1.8333336,13 Z"
         style="fill:#660099" />
      <path
         id="path4189"
         d="m 5.5,12.380952 c 0.6750147,0 1.2222222,-0.554313 1.2222225,-1.238095 C 6.7222222,10.459076 6.1750147,9.9047619 5.5,9.9047619 c -0.6750147,0 -1.2222222,0.5543141 -1.2222222,1.2380951 0,0.683782 0.5472075,1.238095 1.2222222,1.238095 z"
         style="fill:#660099" />
      <path
         id="path4135"
         d="m 7.9444444,11.761905 c 0.3375075,0 0.6111112,-0.277157 0.6111112,-0.619048 3e-7,-0.341891 -0.273604,-0.619047 -0.6111112,-0.619047 -0.3375072,0 -0.6111111,0.277156 -0.6111111,0.619047 0,0.341891 0.2736039,0.619048 0.6111111,0.619048 z"
         style="fill:#660099" />
    </g>
  </g>
</svg>
