<?xml version="1.0" encoding="UTF-8"?>
<svg id="svg22" version="1.1" viewBox="0 0 64 64" xmlns="http://www.w3.org/2000/svg" xmlns:xlink="http://www.w3.org/1999/xlink">
 <defs id="defs26">
  <linearGradient id="linearGradient1116" x2="0" y1="523.79797" y2="516.79797" gradientTransform="matrix(1.1689295,0,0,1.1689295,-880.99963,-1163.3425)" gradientUnits="userSpaceOnUse">
   <stop id="stop4302-8" style="stop-color:#e00a5e" offset="0"/>
   <stop id="stop4304-6" style="stop-color:#f62870" offset="1"/>
  </linearGradient>
  <linearGradient id="linearGradient1118" x2="0" y1="523.79797" y2="516.79797" gradientTransform="matrix(1.1689295,0,0,1.1689295,-880.99963,-1156.3289)" gradientUnits="userSpaceOnUse">
   <stop id="stop4302-4-0" style="stop-color:#f9b425" offset="0"/>
   <stop id="stop4304-1" style="stop-color:#f9bf3b" offset="1"/>
  </linearGradient>
  <linearGradient id="linearGradient1120" x2="0" y1="523.79797" y2="516.79797" gradientTransform="matrix(1.1689295,0,0,1.1689295,-880.99963,-1149.3154)" gradientUnits="userSpaceOnUse">
   <stop id="stop4302-4" style="stop-color:#22a7f0" offset="0"/>
   <stop id="stop4304-7" style="stop-color:#19b5fe" offset="1"/>
  </linearGradient>
  <linearGradient id="linearGradient1122" x2="0" y1="523.79797" y2="516.79797" gradientTransform="matrix(1.1689295,0,0,1.1689295,-880.99963,-1142.3018)" gradientUnits="userSpaceOnUse">
   <stop id="stop4302" style="stop-color:#26c281" offset="0"/>
   <stop id="stop4304" style="stop-color:#3fc380" offset="1"/>
  </linearGradient>
 </defs>
 <linearGradient id="a" x1="407.57144" x2="407.57144" y1="540.79797" y2="504.79797" gradientTransform="matrix(.87781775 0 0 .91583869 -325.32482 -447.71445)" gradientUnits="userSpaceOnUse">
  <stop id="stop2" stop-color="#63984b" offset="0"/>
  <stop id="stop4" stop-color="#8fc278" offset="1"/>
 </linearGradient>
 <linearGradient id="b" x1="408.57144" x2="408.57144" y1="535.79797" y2="511.79797" gradientTransform="matrix(.87781775 0 0 .91583869 -323.42651 -447.71445)" gradientUnits="userSpaceOnUse">
  <stop id="stop7" stop-color="#2a2c2f" offset="0"/>
  <stop id="stop9" stop-color="#424649" offset="1"/>
 </linearGradient>
 <path id="rect12" d="m9.3697305 14.599065h47.91343c0.831 0 1.5 0.669 1.5 1.5v31.801868c0 0.831-0.669 1.5-1.5 1.5h-47.91343c-0.831 0-1.5-0.669-1.5-1.5v-31.801868c0-0.831 0.669-1.5 1.5-1.5z" style="fill-rule:evenodd;fill:url(#a);stroke-width:.89662671"/>
 <path id="rect14" d="m24.813116 20.094097h20.823269c0.553998 0 0.999996 0.445998 0.999996 0.999996v21.811814c0 0.553998-0.445998 0.999996-0.999996 0.999996h-20.823269c-0.553998 0-0.999996-0.445998-0.999996-0.999996v-21.811814c0-0.553998 0.445998-0.999996 0.999996-0.999996z" style="fill-rule:evenodd;fill:url(#b);stroke-width:.89662671"/>
 <path id="path16" d="m27.073689 25.14984v3.044497h-1.630223v3.044531h-1.630215v1.522257h1.630215v3.044531h1.630223v1.522241h1.630197v-3.044506h1.630213v-1.522266h3.260437v1.522266h1.630224v1.522265h1.630206v1.522241h1.630214v3.044523h1.630215v-1.522266h1.630222v-3.044498h1.630223v-1.522265h1.630196v-1.522266h1.630215v-1.522257h-1.630215v-1.522266h-1.630196v-1.522265h-1.630223v-3.044497h-1.630222v-1.522266h-1.630215v3.044522h-1.630214v1.522241h-1.630206v1.522265h-1.630224v1.522266h-3.260437v-1.522266h-1.630213v-4.566762z" style="fill:#e0e0e0;stroke-width:.86642206"/>
 <path id="path18" d="m7.8697299 47.475683h50.91343v0.917826h-50.91343z" style="fill:#f8c44e;stroke-width:.89662671"/>
 <path id="rect1086" d="m6.3857727 7.4524808h4.6757183v49.095039h-4.6757183z" style="fill:#afc0c6;stroke-width:1.1689295"/>
 <path id="path1090" d="m6.3857696 19.141773c-0.6475869 0-1.1689295 0.521342-1.1689295 1.168929v2.337859c0 0.647587 0.5213426 1.16893 1.1689295 1.16893h1.1689295v-4.675718z" style="fill:#afc0c6;stroke-width:1.1689295"/>
 <path id="path1092" d="m11.0615 19.141773v4.675718h4.55928c0.0415 0 0.0761-0.0187 0.116426-0.02279v0.02279h1.168929v-4.675718h-1.168929v0.02279c-0.04033-0.0047-0.07493-0.02279-0.116426-0.02279z" style="fill:url(#linearGradient1116);stroke-width:1.1689295"/>
 <path id="path1094" d="m6.3857696 26.15535c-0.6475869 0-1.1689295 0.521342-1.1689295 1.168929v2.337859c0 0.647587 0.5213426 1.16893 1.1689295 1.16893h1.1689295v-4.675718z" style="fill:#afc0c6;stroke-width:1.1689295"/>
 <path id="path1096" d="m11.0615 26.15535v4.675718h4.55928c0.0415 0 0.0761-0.0187 0.116426-0.02279v0.02279h1.168929v-4.675718h-1.168929v0.02279c-0.04033-0.0047-0.07493-0.02279-0.116426-0.02279z" style="fill:url(#linearGradient1118);stroke-width:1.1689295"/>
 <path id="path1098" d="m6.3857696 33.168927c-0.6475869 0-1.1689295 0.521342-1.1689295 1.168929v2.337859c0 0.647587 0.5213426 1.16893 1.1689295 1.16893h1.1689295v-4.675718z" style="fill:#afc0c6;stroke-width:1.1689295"/>
 <path id="path1100" d="m11.0615 33.168927v4.675718h4.55928c0.0415 0 0.0761-0.0187 0.116426-0.02279v0.02279h1.168929v-4.675718h-1.168929v0.02279c-0.04033-0.0047-0.07493-0.02279-0.116426-0.02279z" style="fill:url(#linearGradient1120);stroke-width:1.1689295"/>
 <path id="path1102" d="m6.3857696 40.182504c-0.6475869 0-1.1689295 0.521342-1.1689295 1.168929v2.337859c0 0.647587 0.5213426 1.16893 1.1689295 1.16893h1.1689295v-4.675718z" style="fill:#afc0c6;stroke-width:1.1689295"/>
 <path id="path1104" d="m11.0615 40.182504v4.675718h4.55928c0.0415 0 0.0761-0.0187 0.116426-0.02279v0.02279h1.168929v-4.675718h-1.168929v0.02279c-0.04033-0.0047-0.07493-0.02279-0.116426-0.02279z" style="fill:url(#linearGradient1122);stroke-width:1.1689295"/>
 <g id="g1271" transform="translate(-2.1825287 .12759187)">
  <path id="rect1160" d="m38.849625 48.388458h4.16148v6.24222h-4.16148z" style="fill:#666666;stroke-width:1.04037"/>
  <path id="rect1162" d="m44.051476 48.388458h4.161479v6.24222h-4.161479z" style="fill:#666666;stroke-width:1.04037"/>
  <path id="rect1164" d="m49.253326 48.388458h4.16148v6.24222h-4.16148z" style="fill:#666666;stroke-width:1.04037"/>
  <path id="rect1168" d="m38.849625 47.348091h4.16148v6.24222h-4.16148z" style="fill:#ff9046;stroke-width:1.04037"/>
  <path id="rect1170" d="m44.051472 47.348091h4.16148v6.24222h-4.16148z" style="fill:#ff9046;stroke-width:1.04037"/>
  <path id="rect1172" d="m49.253326 47.348091h4.16148v6.24222h-4.16148z" style="fill:#ff9046;stroke-width:1.04037"/>
  <path id="rect1174" d="m54.455177 48.388462h4.16148v6.24222h-4.16148z" style="fill:#666666;stroke-width:1.04037"/>
  <path id="rect1176" d="m54.455177 47.348091h4.16148v6.24222h-4.16148z" style="fill:#ff9046;stroke-width:1.04037"/>
 </g>
</svg>
