<?xml version="1.0" encoding="UTF-8"?>
<svg width="64" height="64" version="1.1" viewBox="0 0 64 64.000003" xmlns="http://www.w3.org/2000/svg" xmlns:xlink="http://www.w3.org/1999/xlink">
 <defs>
  <linearGradient id="linearGradient885" x1="33.234016" x2="33.234016" y1="-1117.2163" y2="-1079.3861" gradientTransform="translate(-63.999996,1058.5195)" gradientUnits="userSpaceOnUse">
   <stop style="stop-color:#2c3e50" offset="0"/>
   <stop style="stop-color:#374d64" offset="1"/>
  </linearGradient>
 </defs>
 <path transform="scale(-1)" d="m-42-22.999903h20v17.999932h-20z" style="fill:#c4cbcf"/>
 <path transform="scale(-1)" d="m-41.999912-59.000027h19.999836c1.662038 0 3.000068 1.338031 3.000068 3.000069v31.999931c0 1.662038-1.33803 3.000069-3.000068 3.000069h-19.999836c-1.662038 0-3.000069-1.338031-3.000069-3.000069v-31.999931c0-1.662038 1.338031-3.000069 3.000069-3.000069z" style="fill:url(#linearGradient885)"/>
 <path transform="scale(-1)" d="m-39.000053-15.000147h4.000106c0.553971 0 0.999947 0.445976 0.999947 0.999947v4.000053c0 0.5539705-0.445976 0.9999467-0.999947 0.9999467h-4.000106c-0.553971 0-0.999947-0.4459762-0.999947-0.9999467v-4.000053c0-0.553971 0.445976-0.999947 0.999947-0.999947z" style="fill:#4c545a"/>
 <path transform="scale(-1)" d="m-29.000053-15.000147h4.000087c0.553971 0 0.999947 0.445976 0.999947 0.999947v4.00016c0 0.5539703-0.445976 0.9999465-0.999947 0.9999465h-4.000087c-0.553971 0-0.999947-0.4459762-0.999947-0.9999465v-4.00016c0-0.553971 0.445976-0.999947 0.999947-0.999947z" style="fill:#4c545a"/>
 <path transform="scale(-1)" d="m-38-15.000147h2v5.9999467h-2z" style="fill:#f39c12"/>
 <path transform="scale(-1)" d="m-28-15.000147h1.999979v6.0001756h-1.999979z" style="fill:#f39c12"/>
 <path d="m31.999996 24.999995 2 4h-1v17.8087c0.895426-0.8385 2.101536-1.7924 3-2.6094 0.593936-0.6564 1-1.25 1-2v-3.4709c-0.617705-0.3566-0.998733-1.0152-1-1.7285 0-1.1046 0.895431-2 2-2s2 0.8954 2 2c-5.54e-4 0.714-0.381677 1.3735-1 1.7305v4.2697c0 0.75-0.406064 1.3436-1 2-2.13887 1.945-5.021632 3.9339-5 6v0.2715c0.617705 0.3566 0.998733 1.0152 1 1.7285 0 1.1046-0.895431 2-2 2s-2-0.8954-2-2c5.54e-4 -0.714 0.381677-1.3735 1-1.7305v-4.2695c0.02163-2.0661-2.86113-4.055-5-6-0.593936-0.6564-1-1.25-1-2v-4.0001h-1v-4h4v4h-1v3.1993c0 0.75 0.406064 1.3436 1 2 0.898464 0.817 2.104574 1.7709 3 2.6094v-13.8088h-1z" style="fill:#ecf0f1"/>
</svg>
