<?xml version="1.0" encoding="UTF-8"?>
<svg id="svg2" width="48" height="48" version="1.1" viewBox="0 0 48 48.000002" xmlns="http://www.w3.org/2000/svg" xmlns:xlink="http://www.w3.org/1999/xlink">
 <defs id="defs4">
  <linearGradient id="linearGradient953" x1="32.40678" x2="32.40678" y1="58.847458" y2="5.0169492" gradientTransform="matrix(.8125 0 0 .81481666 -1.9999992 -2.0741266)" gradientUnits="userSpaceOnUse">
   <stop id="stop947" style="stop-color:#323438" offset="0"/>
   <stop id="stop949" style="stop-color:#424649" offset="1"/>
  </linearGradient>
 </defs>
 <path id="rect4159-3" d="M 11.851808,2.0000002 H 36.148192 C 36.620093,2.0000002 37,2.3799068 37,2.8518086 V 45.148192 C 37,45.620094 36.620093,46 36.148192,46 H 11.851808 C 11.379907,46 11,45.620094 11,45.148192 V 2.8518086 c 0,-0.4719018 0.379907,-0.8518084 0.851808,-0.8518084 z" style="fill:url(#linearGradient953)"/>
 <path id="rect4157-6" d="m11.812502 5.2592234v34.222219h24.375v-34.222219z" style="fill:#3ecdf6"/>
 <path id="rect4163-7" d="m11.812501 39.481468h24.375002v3.259211h-24.375002z" style="fill:#6d6d6d"/>
 <path id="path4248-5" d="m19.125002 40.296621-1.625 0.814453 1.625 0.814453zm4.875 0a0.8125 0.81481659 0 0 0-0.8125 0.814453 0.8125 0.81481659 0 0 0 0.8125 0.814453 0.8125 0.81481659 0 0 0 0.8125-0.814453 0.8125 0.81481659 0 0 0-0.8125-0.814453zm4.875 0v1.628906h1.625v-1.628906z" style="fill:#ffffff"/>
 <path id="rect835" d="m31.513672 5.2597656-19.701172 34.222656h1.875l19.703125-34.222656h-1.876953zm3.941406 0-19.703125 34.222656h5.628906l14.806641-25.71875v-8.5039064h-0.732422z" style="fill:#d2f3fc;paint-order:stroke fill markers"/>
</svg>
