<?xml version="1.0" encoding="UTF-8"?>
<svg id="svg942" width="48" height="48" version="1.1" viewBox="0 0 12.7 12.7" xmlns="http://www.w3.org/2000/svg" xmlns:xlink="http://www.w3.org/1999/xlink">
 <defs id="defs936">
  <linearGradient id="linearGradient995" x1="24.000002" x2="24.000002" y1="46.000008" y2="2.9447849" gradientTransform="matrix(.26458333 0 0 .26458333 -3.3578071e-8 -1.11e-6)" gradientUnits="userSpaceOnUse">
   <stop id="stop977" style="stop-color:#ee2825" offset="0"/>
   <stop id="stop979" style="stop-color:#ec5452" offset="1"/>
  </linearGradient>
 </defs>
 <path id="path1021-6" d="m6.3500007 0.5291655-5.0205939 2.1987166s-0.163533 4.4090511 1.1512131 6.5279932c1.0968119 1.7676977 3.1964263 2.6634167 3.8693808 2.9149597 0.6729571-0.25154 2.7725685-1.147259 3.8693793-2.9149597 1.314747-2.1189421 1.151213-6.5279932 1.151213-6.5279932z" style="fill:url(#linearGradient995);paint-order:stroke fill markers"/>
 <g id="g1202" transform="matrix(-.3615968 0 0 .3615968 190.63339 -184.56442)" style="stroke-width:.96396869">
  <path id="rect4152" d="m509.63783 518.93702c-1.54101 0-2.78161 1.1966-2.78161 2.68294v2.68292h-1.3908v5.36588h8.34483v-5.36588h-5.56323v-2.68292c0-0.74318 0.6203-1.34146 1.39081-1.34146 0.7705 0 1.3908 0.59828 1.3908 1.34146h1.3908c0-1.48634-1.24058-2.68294-2.7816-2.68294z" style="fill:#ffffff"/>
  <rect id="rect4172" x="504.07462" y="533.0224" width="11.126431" height="2.0121992" style="fill:#ffffff"/>
 </g>
</svg>
