<?xml version="1.0" encoding="UTF-8" standalone="no"?>
<svg
   xmlns:dc="http://purl.org/dc/elements/1.1/"
   xmlns:cc="http://creativecommons.org/ns#"
   xmlns:rdf="http://www.w3.org/1999/02/22-rdf-syntax-ns#"
   xmlns:svg="http://www.w3.org/2000/svg"
   xmlns="http://www.w3.org/2000/svg"
   id="svg6"
   version="1.1"
   viewBox="0 0 16 16">
  <metadata
     id="metadata10">
    <rdf:RDF>
      <cc:Work
         rdf:about="">
        <dc:format>image/svg+xml</dc:format>
        <dc:type
           rdf:resource="http://purl.org/dc/dcmitype/StillImage" />
        <dc:title></dc:title>
      </cc:Work>
    </rdf:RDF>
  </metadata>
  <defs
     id="defs3051">
    <style
       id="current-color-scheme"
       type="text/css">
      .ColorScheme-Text {
        color:#4d4d4d;
      }
      </style>
  </defs>
  <path
     style="color:#000000;clip-rule:nonzero;display:inline;overflow:visible;visibility:visible;opacity:1;isolation:auto;mix-blend-mode:normal;color-interpolation:sRGB;color-interpolation-filters:linearRGB;solid-color:#000000;solid-opacity:1;fill:#303030;fill-opacity:1;fill-rule:nonzero;stroke:none;stroke-width:0.97014165;stroke-linecap:butt;stroke-linejoin:miter;stroke-miterlimit:4;stroke-dasharray:none;stroke-dashoffset:0;stroke-opacity:1;color-rendering:auto;image-rendering:auto;shape-rendering:auto;text-rendering:auto;enable-background:accumulate"
     d="m 0.5,0.9411875 v 2.8235251 h 6.7499998 v 8.4705754 h -1.5 v 0.705877 H 0.5 v 1.411763 h 5.2499998 v 0.705885 H 10.25 V 14.352928 H 15.5 V 12.941165 H 10.25 V 12.235288 H 8.7499998 V 3.7647126 H 15.5 V 0.9411875 Z M 14,1.6470646 c 0.4155,0 0.75,0.314828 0.75,0.705885 0,0.391058 -0.3345,0.705878 -0.75,0.705878 -0.4155,0 -0.75,-0.31482 -0.75,-0.705878 0,-0.391057 0.3345,-0.705885 0.75,-0.705885 z M 7.9999998,12.941165 c 0.4155,0 0.75,0.314828 0.75,0.705885 0,0.391058 -0.3345,0.705878 -0.75,0.705878 -0.4155,0 -0.75,-0.31482 -0.75,-0.705878 0,-0.391057 0.3345,-0.705885 0.75,-0.705885 z"
     id="folderGlyph-1" />
</svg>
