<?xml version="1.0" encoding="UTF-8"?>
<svg version="1.1" viewBox="0 0 48 48" xmlns="http://www.w3.org/2000/svg" xmlns:xlink="http://www.w3.org/1999/xlink">
<defs>
<linearGradient id="linearGradient1045">
<stop stop-color="#696969" offset="0"/>
<stop stop-color="#868686" offset="1"/>
</linearGradient>
<linearGradient id="linearGradient1051" x1="24" x2="4" y1="24" y2="4" gradientTransform="translate(20,20)" gradientUnits="userSpaceOnUse" xlink:href="#linearGradient1045"/>
<linearGradient id="linearGradient1047-5" x1="24" x2="4" y1="24" y2="4" gradientUnits="userSpaceOnUse" xlink:href="#linearGradient1045"/>
<linearGradient id="linearGradient1066" x1="177.99649" x2="209.12213" y1="81.099777" y2="50.023277" gradientTransform="matrix(1.2851141,0,0,1.2871462,-224.7458,-60.387272)" gradientUnits="userSpaceOnUse">
<stop stop-color="#ff771d" offset="0"/>
<stop stop-color="#ff944d" offset="1"/>
</linearGradient>
<style id="current-color-scheme" type="text/css">.ColorScheme-Text {
        color:#4d4d4d;
      }</style>
<style type="text/css">.ColorScheme-Text {
        color:#4d4d4d;
      }</style>
<style type="text/css">.ColorScheme-Text {
        color:#4d4d4d;
      }</style>
<style type="text/css">.ColorScheme-Text {
        color:#4d4d4d;
      }</style>
</defs>
<g>
<path d="m4 4v40h40v-40z" color="#000000" color-rendering="auto" dominant-baseline="auto" fill="url(#linearGradient1066)" image-rendering="auto" shape-rendering="auto" solid-color="#000000" style="font-feature-settings:normal;font-variant-alternates:normal;font-variant-caps:normal;font-variant-ligatures:normal;font-variant-numeric:normal;font-variant-position:normal;isolation:auto;mix-blend-mode:normal;paint-order:fill markers stroke;shape-padding:0;text-decoration-color:#000000;text-decoration-line:none;text-decoration-style:solid;text-indent:0;text-orientation:mixed;text-transform:none;white-space:normal"/>
<path d="m4 4h20v20h-20z" fill="url(#linearGradient1047-5)" style="paint-order:fill markers stroke"/>
<path d="m24 24h20v20h-20z" fill="url(#linearGradient1051)" style="paint-order:fill markers stroke"/>
<path d="m23.457066 7.1288014v16.5h-16.5v1h16.5v16.5h1v-16.5h16.5v-1h-16.5v-16.5z" fill="#ffffff" style="paint-order:fill markers stroke"/>
<path d="m17.641992 19.847235h-7.2839841v-1.5369889q3.2744515-3.2911558 4.1933028-4.29354 0.81861288-0.91885127 1.1026216-1.3866308 0.28400841-0.48448442 0.28400841-1.1861523 0-0.71837552-0.5680171-1.2696852t-1.520281-0.55130968q-0.8687321 0-1.4033366 0.51789706-0.5346042 0.50119209-0.68496183 1.0859144l-1.4033363-0.56801733q0.28400841-0.90214361 1.1861534-1.7040521 0.90214472-0.80190573 2.3388939-0.80190573 1.5871068 0 2.6061963 0.96897158 1.0190895 0.96896886 1.0190895 2.322187 0 1.6706394-1.820996 3.5751672l-3.3412771 3.3579838h5.2959241z" fill="#ffffff"/>
<path d="m37.250279 18.164931q-1.2413128 1.6823045-3.2502792 1.6823045-2.0089662 0-3.25028-1.6823045-1.2413125-1.6823045-1.2413125-4.1649294 0-2.4989592 1.2413125-4.1649321 1.2413138-1.6823045 3.25028-1.6823045 2.0089664 0 3.2502792 1.6823045 1.2413125 1.6659728 1.2413125 4.1649321 0 2.4826249-1.2413125 4.1649294zm-3.2502792 0.24499616q1.339311 0 2.1396309-1.2576468 0.81665318-1.2576441 0.81665318-3.1522788 0-1.910969-0.81665318-3.1522814-0.80031993-1.2576441-2.1396309-1.2576441-1.355644 0-2.1559639 1.2576441-0.80031967 1.2413125-0.80031967 3.1522814 0 1.8946347 0.80031967 3.1522788 0.80031993 1.2576468 2.1559639 1.2576468z" fill="#ffffff"/>
<path d="m16.812486 39.847235h-1.5729406v-2.4619944h-5.5565838v-1.1968013l5.4198063-8.035675h1.7097181v7.7621199h1.5045518v1.4703564h-1.5045518zm-1.5729406-3.9323508v-5.4540005h-0.0683887l-3.7100882 5.4540005z" fill="#ffffff"/>
<path d="m36.694954 38.883585q-1.0943144 0.96365039-2.6949527 0.96365039-1.600641 0-2.6949554-0.96365039-1.094317-0.96365039-1.094317-2.3846272 0-0.93098441 0.5063267-1.6333043 0.50632403-0.71865421 1.3229762-1.126983v-0.065332q-0.63698795-0.40832608-1.045314-1.0289821-0.40832876-0.63698927-0.40832876-1.3229778 0-1.3556443 0.96365309-2.2539624 0.96365043-0.91465142 2.4499592-0.91465142 1.4863061 0 2.4499592 0.91465142 0.96365043 0.89831817 0.96365043 2.2539624 0 0.68598849-0.40832876 1.3229778-0.40832609 0.620656-1.045314 1.0289821v0.065332q0.81665218 0.40832874 1.3229762 1.126983 0.5063267 0.70231989 0.5063267 1.6333043 0 1.4209768-1.0943171 2.3846272zm-4.0505976-6.3208937q0.53899001 0.47365937 1.3556449 0.47365937 0.81665218 0 1.3393105-0.47365937 0.53899001-0.48999182 0.53899001-1.2739788t-0.53899001-1.2413126q-0.52265836-0.45732585-1.3393105-0.45732585-0.81665485 0-1.3556449 0.45732585-0.52265835 0.45732558-0.52265835 1.2413126t0.52265835 1.2739788zm-0.24499619 5.2919113q0.65332228 0.55532431 1.600641 0.55532431 0.9473161 0 1.6006384-0.55532431 0.65332228-0.55532432 0.65332228-1.4373084 0-0.86565246-0.65332228-1.4209768-0.65332228-0.55532432-1.6006384-0.55532432-0.94731877 0-1.600641 0.55532432-0.65332227 0.55532431-0.65332227 1.4209768 0 0.8819841 0.65332227 1.4373084z" fill="#ffffff"/>
</g>
</svg>
