<?xml version="1.0" encoding="UTF-8"?>
<svg version="1.1" viewBox="0 0 48 48" xmlns="http://www.w3.org/2000/svg" xmlns:xlink="http://www.w3.org/1999/xlink">
<defs>
<linearGradient id="linearGradient842" x1="23.611218" x2="23.611218" y1="47.291664" y2="1.4859011" gradientUnits="userSpaceOnUse">
<stop stop-color="#1c1e20" offset="0"/>
<stop stop-color="#747b80" offset="1"/>
</linearGradient>
</defs>
<linearGradient id="c" x1="516.32281" x2="516.32281" y1="540.99587" y2="500.99583" gradientTransform="matrix(.75000002 0 0 .75000002 -363.24217 -366.74683)" gradientUnits="userSpaceOnUse">
<stop stop-color="#e1e1e1" offset="0"/>
<stop stop-color="#ebebeb" offset="1"/>
</linearGradient>
<g>
<path d="m47 24a23 23 0 0 1-23 23 23 23 0 0 1-23-23 23 23 0 0 1 23-23 23 23 0 0 1 23 23z" fill="url(#linearGradient842)"/>
<path d="m23.5 4.0117188c-5.141533 0.1266959-9.7898621 2.2105578-13.265625 5.515625l0.70703125 0.70703125c3.2930434-3.1176771 7.6904437-5.0822041 12.558594-5.2089844z" color="#000000" color-rendering="auto" dominant-baseline="auto" fill="#ffffff" image-rendering="auto" shape-rendering="auto" solid-color="#000000" style="font-feature-settings:normal;font-variant-alternates:normal;font-variant-caps:normal;font-variant-ligatures:normal;font-variant-numeric:normal;font-variant-position:normal;isolation:auto;mix-blend-mode:normal;shape-padding:0;text-decoration-color:#000000;text-decoration-line:none;text-decoration-style:solid;text-indent:0;text-orientation:mixed;text-transform:none;white-space:normal"/>
<path d="m23.347656 9c-7.9486956 0-14.347656 6.3989606-14.347656 14.347656v1.3046875c0 7.9486956 6.3989606 14.347656 14.347656 14.347656h1.3046875c7.9486956 0 14.347656-6.3989606 14.347656-14.347656v-1.3046875c0-7.9486956-6.3989606-14.347656-14.347656-14.347656zm3.2363281 7.3144531c1.3036046 0.0340071 2.4723582 0.56610824 3.5039062 1.5976563 1.0315482 1.0315481 1.5636492 2.2003016 1.5976563 3.5039062 0.0453428 1.292269-0.40288742 2.4087468-1.34375 3.3496094-0.47609907 0.47609907-1.07725 0.79247208-1.8027344 0.95117188-0.71414875 0.14736402-1.4327188 0.14307482-2.1582031-0.015625l-0.0683594 0.0664062c0.28339227 0.85017702 0.35048892 1.7006044 0.203125 2.5507813-0.13602836 0.83884134-0.5257405 1.5823811-1.171875 2.2285156-0.9862053 0.9862053-2.1947496 1.4324824-3.6230469 1.3417969-1.4282974-0.0906855-2.6976958-0.68988332-3.8085937-1.8007813-1.1108978-1.1108978-1.7100958-2.3802963-1.8007813-3.8085937-0.0906856-1.4282973 0.35559157-2.6368416 1.3417969-3.6230469 0.6461345-0.6461345 1.3896744-1.0358465 2.2285156-1.171875 0.85017691-0.14736391 1.7006042-0.0802674 2.5507813 0.203125l0.0664062-0.0683594c-0.15869978-0.72548432-0.16298898-1.4440544-0.015625-2.1582031 0.1586998-0.72548433 0.47507281-1.3266353 0.95117188-1.8027344 0.94086257-0.94086256 2.0573404-1.3890928 3.3496094-1.34375zm0.11914062 2.1601563c-0.68014164-0.0453427-1.2918243 0.20393369-1.8359375 0.74804687-0.5441133 0.54411329-0.80392133 1.1663276-0.78125 1.8691406 0.0453428 0.70281287 0.35118413 1.3375122 0.91796875 1.9042969 0.56678474 0.56678474 1.1952415 0.86833664 1.8867188 0.90234375 0.71414866 0.034007 1.3426055-0.22151172 1.8867188-0.765625 0.54411319-0.54411319 0.78910023-1.1620383 0.73242187-1.8535156-0.0453428-0.68014155-0.35118402-1.304309-0.91796874-1.8710938-0.56678464-0.56678463-1.1971947-0.8769153-1.888672-0.93359372zm-5.40625 4.8964844c-0.83884131-0.0680141-1.5593645 0.19803639-2.1601562 0.79882813-0.61212743 0.61212743-0.88442042 1.33694-0.81640625 2.1757812 0.0680141 0.8388412 0.43042043 1.5886236 1.0878906 2.2460938 0.65747021 0.6574702 1.4072525 1.0198765 2.2460938 1.0878906 0.83884128 0.0680142 1.5636538-0.20427882 2.1757812-0.81640625 0.60079174-0.60079173 0.86684227-1.3213149 0.79882813-2.1601562-0.0680142-0.83884123-0.43042042-1.5866704-1.0878906-2.2441406-0.65747019-0.6574702-1.4052995-1.0198765-2.2441407-1.0878907z" fill="url(#c)"/>
</g>
</svg>
