<?xml version="1.0" encoding="UTF-8"?>
<svg version="1.1" viewBox="0 0 48 48" xmlns="http://www.w3.org/2000/svg">
<defs>
<linearGradient id="linearGradient854" x1="4.2156515" x2="44.283447" y1="24.466085" y2="24.466085" gradientTransform="rotate(-90,23.999998,24)" gradientUnits="userSpaceOnUse">
<stop stop-color="#d2d2d2" offset="0"/>
<stop stop-color="#ebebeb" offset="1"/>
</linearGradient>
</defs>
<g>
<rect x="4" y="4" width="40" height="40" rx="4" ry="4" fill="url(#linearGradient854)" style="paint-order:fill markers stroke"/>
<path d="m13.000012 33.607414c-0.0109874-5.2790627 7.6229958-20.53188 11.178743-20.606996 1.776499-0.0436547 4.4403308 3.3343192 6.6779132 7.699342 2.241249 4.362012 4.0571638 9.7161911 4.1433315 13.626301 0 0-8.6010794-16.803163-10.746078-16.849828-2.180748-0.0602134-8.1143291 11.835855-7.4066615 13.157991 0.69116558 1.292632 13.470408-2.8723316 13.470408-2.8723316-0.27591565 0.4225478-8.618495 5.9408084-14.874741 7.238107-0.94508251-0.0391387-2.3631661 0-2.4419994-1.3934895" fill="#4387f7" fill-rule="evenodd"/>
</g>
</svg>
