<?xml version="1.0" encoding="UTF-8"?>
<svg id="svg8" width="48" height="48" version="1.1" viewBox="0 0 12.7 12.7" xmlns="http://www.w3.org/2000/svg" xmlns:xlink="http://www.w3.org/1999/xlink">
 <defs id="defs2">
  <linearGradient id="linearGradient988" x1="23.355932" x2="23.355932" y1="44.883537" y2="2.5784509" gradientTransform="matrix(.26458333 0 0 .26788316 3.5762786e-8 -.00717186)" gradientUnits="userSpaceOnUse">
   <stop id="stop982" style="stop-color:#0cb997" offset="0"/>
   <stop id="stop984" style="stop-color:#0edbb3" offset="1"/>
  </linearGradient>
  <linearGradient id="b-2-7-7-2" x2="0" y1="543.79999" y2="503.79999" gradientTransform="matrix(.28745653 0 0 .29104163 -111.09612 -146.0976)" gradientUnits="userSpaceOnUse">
   <stop id="stop7-8-5-5-9" stop-color="#1d1e1e" offset="0"/>
   <stop id="stop9-9-3-3-1" stop-color="#44484c" offset="1"/>
  </linearGradient>
 </defs>
 <path id="rect9-2" d="m1.110608 0.52916676h10.478784c0.322118 0 0.581441 0.25932273 0.581441 0.58144114v10.478702c0 0.322118-0.259323 0.581441-0.581441 0.581441h-10.478784c-0.32211842 0-0.58144118-0.259323-0.58144118-0.581441v-10.478702c0-0.32211841 0.25932276-0.58144114 0.58144118-0.58144114z" style="fill:url(#linearGradient988);stroke-width:.26458329"/>
 <path id="rect31-6" d="m5.2001734 0.52916676h2.2996523v11.641666h-2.2996523z" style="fill:url(#b-2-7-7-2);stroke-opacity:.55;stroke-width:.7408334"/>
 <path id="rect13-7" d="m5.9846476 0.85246102c-0.1431252 0-0.2583822 0.11669446-0.2583822 0.26160458v0.059122c0 0.1449102 0.115257 0.2616047 0.2583822 0.2616047h0.7772136c0.143125 0 0.2578653-0.1166945 0.2578653-0.2616047v-0.059122c0-0.14491012-0.1147403-0.26160458-0.2578653-0.26160458zm-0.00259 0.84184378c-0.1431253 0-0.2583823 0.1166945-0.2583823 0.2616046v0.059122c0 0.1449101 0.115257 0.2616046 0.2583823 0.2616046h0.7766968c0.1431251 0 0.2583821-0.1166945 0.2583821-0.2616046v-0.059122c0-0.1449101-0.115257-0.2616046-0.2583821-0.2616046zm-0.00827 0.8319027c-0.1431253 0-0.2583823 0.1166945-0.2583823 0.2616047v0.059122c3e-7 0.14491 0.115257 0.2616045 0.2583823 0.2616045h0.7772124c0.1431253 0 0.2583823-0.1166945 0.2583823-0.2616045v-0.059122c0-0.1449102-0.115257-0.2616047-0.2583823-0.2616047zm0.01447 0.8659114c-0.1431251 0-0.2583821 0.1166944-0.2583821 0.2616048v0.0586c0 0.1449101 0.115257 0.2616046 0.2583821 0.2616046h0.7766968c0.1431253 0 0.2583823-0.1166945 0.2583823-0.2616046v-0.0586c0-0.1449104-0.115257-0.2616048-0.2583823-0.2616048zm0 0.8507382c-0.1431251 0-0.2583821 0.1166945-0.2583821 0.2616048v0.0586c0 0.1449101 0.115257 0.2616045 0.2583821 0.2616045h0.7766968c0.1431253 0 0.2583823-0.1166944 0.2583823-0.2616045v-0.0586c0-0.1449103-0.115257-0.2616048-0.2583823-0.2616048zm0 0.8706204c-0.1431251 0-0.2583821 0.1166944-0.2583821 0.2616048v0.0586c0 0.14491 0.115257 0.2616045 0.2583821 0.2616045h0.7766968c0.1431253 0 0.2583823-0.1166945 0.2583823-0.2616045v-0.0586c0-0.1449104-0.115257-0.2616048-0.2583823-0.2616048zm0.0863 0.8800381c-0.1133017 0-0.2051552 0.082896-0.2051552 0.1852161v0.367293l-0.3167767 0.8413206c-0.035604 0.094113-0.044535 0.1923057-0.038757 0.2893346-0.0225 0.1864735 0.02927 0.3770389 0.1524455 0.532627 0.1598697 0.201573 0.4189487 0.3217738 0.6934975 0.3217738 0.2745989 0 0.5336339-0.1202008 0.6934978-0.3217738 0.1231683-0.1555766 0.1749343-0.3457267 0.1524455-0.5321038 0.00586-0.097172-0.0031-0.1951258-0.038757-0.2893347l-0.3167784-0.8418437v-0.367293c0-0.1023407-0.091854-0.1852161-0.2051556-0.1852161zm-0.024805 1.3566818h0.6201171l0.1064535 0.2825329c0.00849 0.022528 0.012171 0.045883 0.016021 0.069064-0.011001 0.05884-0.0355 0.116054-0.074931 0.1658572-0.1644962 0.2079416-0.5511991 0.2079416-0.7157186 0-0.039423-0.049804-0.06342-0.106996-0.074414-0.1658572 0.00385-0.023204 0.00753-0.0465 0.016021-0.069064z" style="fill:#ffffff;opacity:.92900002;stroke-width:.26458332"/>
</svg>
