<?xml version="1.0" encoding="UTF-8"?>
<svg version="1.1" viewBox="0 0 48 48" xmlns="http://www.w3.org/2000/svg">
<defs>
<linearGradient id="linearGradient1003" x1="33.513947" x2="33.513947" y1="31.98617" y2="6.4860544" gradientTransform="matrix(1.0769231 0 0 1.0769231 56.423077 -2.8539666)" gradientUnits="userSpaceOnUse">
<stop stop-color="#1d9ef4" offset="0"/>
<stop stop-color="#59c1f9" offset="1"/>
</linearGradient>
<linearGradient id="linearGradient995" x1="15.166731" x2="15.166731" y1="42.111179" y2="13.305493" gradientTransform="matrix(1.0666667 0 0 1.0666667 -48.880231 -2.8847464)" gradientUnits="userSpaceOnUse">
<stop stop-color="#3bd450" offset="0"/>
<stop stop-color="#52ef84" offset="1"/>
</linearGradient>
</defs>
<style type="text/css">.st0{fill:none;stroke:#000000;}</style>
<g shape-rendering="auto">
<path d="m33 4.9999998c-7.7256086 0-14 6.2743914-14 14 1e-8 7.7256086 6.2743914 14 14 14h11.728365l-1.3545673-4.7178486c2.2915828-2.5576527 3.6196133-5.8397867 3.6262019-9.2821514 0-7.7256086-6.2743914-14-14-14z" color="#000000" color-rendering="auto" dominant-baseline="auto" fill="url(#linearGradient1003)" image-rendering="auto" solid-color="#000000" style="font-feature-settings:normal;font-variant-alternates:normal;font-variant-caps:normal;font-variant-ligatures:normal;font-variant-numeric:normal;font-variant-position:normal;isolation:auto;mix-blend-mode:normal;paint-order:fill markers stroke;shape-padding:0;text-decoration-color:#000000;text-decoration-line:none;text-decoration-style:solid;text-indent:0;text-orientation:mixed;text-transform:none;white-space:normal"/>
<path d="m17 10.999999c-8.830239 0-16 7.1697613-16 16 0.006753 4.2416778 1.7224259 8.2859244 4.7166667 11.277084l-1.35625 4.7229168h12.639583c8.8302389-1e-8 16-7.1697613 16-16 0-8.830239-7.1697613-16-16-16.000001z" color="#000000" color-rendering="auto" dominant-baseline="auto" fill="url(#linearGradient995)" image-rendering="auto" solid-color="#000000" style="font-feature-settings:normal;font-variant-alternates:normal;font-variant-caps:normal;font-variant-ligatures:normal;font-variant-numeric:normal;font-variant-position:normal;isolation:auto;mix-blend-mode:normal;paint-order:fill markers stroke;shape-padding:0;text-decoration-color:#000000;text-decoration-line:none;text-decoration-style:solid;text-indent:0;text-orientation:mixed;text-transform:none;white-space:normal"/>
</g>
</svg>
