<?xml version="1.0" encoding="UTF-8"?>
<svg version="1.1" viewBox="0 0 48 48" xmlns="http://www.w3.org/2000/svg">
 <defs>
  <linearGradient id="linearGradient850-3" x1="1.0169487" x2="46" y1="22.966103" y2="22.966103" gradientTransform="translate(-48.016948,1.0338974)" gradientUnits="userSpaceOnUse">
   <stop style="stop-color:#fe9e22" offset="0"/>
   <stop style="stop-color:#feb336" offset="1"/>
  </linearGradient>
 </defs>
 <path transform="rotate(-90)" d="m-1 24a23 23 0 0 1-23 23 23 23 0 0 1-23-23 23 23 0 0 1 23-23 23 23 0 0 1 23 23z" style="fill:url(#linearGradient850-3)"/>
 <path d="m22.182997 13.994819 0.144965 0.03066c1.687043-0.560066 5.473416 1.646001 4.629894 3.612056-0.213737 0.308615-0.177515 0.857269 0.0802 1.202104l-4.734863 4.728417c-0.265277-0.26482-0.854988-0.259107-1.126005 0l-7.83037 7.502214c-0.713785 0.683934-0.15263 1.264969 0.148895 1.571697l1.404598 1.402148c0.307292 0.304775 1.118379 0.716288 1.694724 0.106803l7.389502-7.774636c0.257664-0.270532 0.25959-0.851593 0-1.118287 0 0 0.0039-0.0039 0-0.0039l4.753968-4.743615c0.501923 0.451522 0.975971 0.490548 1.425645 0.367705 0.868447-0.237273 1.35256 0.610887 1.872185 1.230686l-0.234743 0.230497c-0.347339 0.35055-0.314905 0.941113 0.07444 1.329745 0.389314 0.388659 0.98285 0.42104 1.330204 0.07444l1.553466-1.54886c0.347313-0.350537 0.314905-0.941125-0.07627-1.327856-0.351147-0.352485-0.860709-0.398221-1.215702-0.14669-1.064913-1.192578-0.505723-1.371667-1.910361-2.924307l-2.631771-2.684271c-1.895068-1.855544-4.35699-1.853642-6.742553-1.116374z" style="fill:#ffffff;stroke-width:1.1175365"/>
</svg>
