<?xml version="1.0" encoding="UTF-8"?>
<svg id="svg8" width="48" height="48" version="1.1" viewBox="0 0 12.7 12.7" xmlns="http://www.w3.org/2000/svg" xmlns:xlink="http://www.w3.org/1999/xlink">
 <defs id="defs2">
  <linearGradient id="linearGradient3364" x1="399.9939" x2="399.9939" y1="545.13873" y2="518.13873" gradientTransform="matrix(.43467295 0 0 .43467295 -167.76756 -224.80818)" gradientUnits="userSpaceOnUse">
   <stop id="stop7-6" stop-color="#197ff1" offset="0"/>
   <stop id="stop9-7" stop-color="#21c6fb" offset="1"/>
  </linearGradient>
 </defs>
 <path id="circle12" d="m12.435387 6.3499875a6.085403 6.085403 0 0 1-6.0854033 6.0854025 6.085403 6.085403 0 0 1-6.085403-6.0854025 6.085403 6.085403 0 0 1 6.085403-6.085403 6.085403 6.085403 0 0 1 6.0854033 6.085403z" style="fill:url(#linearGradient3364);stroke-width:.5650748"/>
 <path id="path889" d="m6.4248434 3.3916939c-0.8206168 0-1.5393458 0.28986-2.1173868 0.8545301-0.5744801 0.5611299-0.8678741 1.2759999-0.8678741 2.1036899 0 0.8277 0.2932909 1.5450301 0.867307 2.1109601l0.00127 0.00127c0.578185 0.55957 1.2966161 0.8461701 2.1168226 0.8461701 0.8524935 0 1.5719562-0.2836601 2.1128611-0.8428202 0.4392232-0.4342699 0.651424-1.02548 0.6903292-1.7118399h0.03223v-0.1889701c0-0.1404599-0.01329-0.28437-0.04014-0.43257l-0.027679-0.15549h-2.9581254v1.0139301h1.9070582c-0.059409 0.3139901-0.1658509 0.5721099-0.3482769 0.7519599-0.3668241 0.36166-0.8092361 0.53736-1.3676786 0.53736-0.5208812 0-0.9548262-0.1729399-1.3388462-0.5328999-0.373806-0.3600001-0.558038-0.8109202-0.558038-1.39689 0-0.5864402 0.1837029-1.03462 0.5574761-1.3896401 0.3844279-0.3653099 0.8186509-0.5395899 1.3394081-0.5395899 0.5826302 0 1.0056794 0.184 1.3258374 0.56188l0.133999 0.15776 0.7451842-0.7341201-0.1130782-0.13267c-0.2318628-0.2721399-0.5388038-0.4867101-0.9119748-0.64438-0.3738772-0.15797-0.7695369-0.2374599-1.1799676-0.2374599z" style="color-rendering:auto;color:#000000;dominant-baseline:auto;fill:#ffffff;font-feature-settings:normal;font-variant-alternates:normal;font-variant-caps:normal;font-variant-ligatures:normal;font-variant-numeric:normal;font-variant-position:normal;image-rendering:auto;isolation:auto;mix-blend-mode:normal;shape-padding:0;shape-rendering:auto;solid-color:#000000;text-decoration-color:#000000;text-decoration-line:none;text-decoration-style:solid;text-indent:0;text-orientation:mixed;text-transform:none;white-space:normal"/>
</svg>
