<?xml version="1.0" encoding="UTF-8"?>
<svg version="1.1" viewBox="0 0 48 48" xmlns="http://www.w3.org/2000/svg">
 <defs>
  <linearGradient id="linearGradient850-3-7" x1="1.0169487" x2="46" y1="22.966103" y2="22.966103" gradientTransform="rotate(-90,24.525423,23.491526)" gradientUnits="userSpaceOnUse">
   <stop style="stop-color:#fe9e22" offset="0"/>
   <stop style="stop-color:#feb336" offset="1"/>
  </linearGradient>
 </defs>
 <path d="m24 1a23 23 0 0 1 23 23 23 23 0 0 1-23 23 23 23 0 0 1-23-23 23 23 0 0 1 23-23z" style="fill:url(#linearGradient850-3-7)"/>
 <path d="m32.696676 15.303195c-2.0477-2.047455-4.618754-2.796429-5.437395-1.977545l-3.295584 3.295584c-0.499886 0.499886-0.935728 2.1731-0.735774 3.866603l-9.974506 9.97475c-0.591553 0.591553-0.1122 2.030101 1.070905 3.212963 1.183105 1.18335 2.621654 1.662458 3.213207 1.071394l9.974506-9.974505c1.693992 0.199955 3.366717-0.236377 3.866604-0.736019l3.295583-3.295584c0.818885-0.81913 0.07015-3.389939-1.977546-5.437641zm-10.968901 9.968153c-0.455399-0.455399-0.307022-1.340527 0.329509-1.977546 0.636774-0.636532 1.522638-0.784909 1.977547-0.32951 0.454419 0.454665 0.30702 1.340526-0.32951 1.977301-0.637018 0.636775-1.523127 0.784419-1.977546 0.329755zm8.250448-7.249455c-1.586436-1.586192-1.984634-3.679115-1.843835-3.820647 0.141288-0.141288 2.151834 0.339531 3.738759 1.925723 1.585947 1.586682 2.062123 3.601627 1.925479 3.738515-0.136644 0.136644-2.234456-0.256909-3.820403-1.843591z" style="fill:#ffffff;stroke-width:.19279902"/>
</svg>
