<?xml version="1.0" encoding="UTF-8"?>
<svg id="svg8" width="48" height="48" version="1.1" viewBox="0 0 12.7 12.7" xmlns="http://www.w3.org/2000/svg">
 <defs id="defs2">
  <linearGradient id="a" x1="368.96432" x2="368.96432" y1="545.75293" y2="517.39703" gradientTransform="matrix(.36451391 0 0 .3865627 -127.94246 -199.23535)" gradientUnits="userSpaceOnUse">
   <stop id="stop2" stop-color="#ff3069" offset="0"/>
   <stop id="stop4" stop-color="#ffa548" offset="1"/>
  </linearGradient>
 </defs>
 <path id="rect7" d="m1.2144628 0.92603701h10.271074c0.379654 0 0.685296 0.30564199 0.685296 0.68529599v9.477325c0 0.379654-0.305642 0.685296-0.685296 0.685296h-10.271074c-0.37965397 0-0.68529598-0.305642-0.68529598-0.685296v-9.477325c0-0.379654 0.30564201-0.68529599 0.68529598-0.68529599z" style="fill:url(#a);opacity:.98799995;stroke-width:.34264785"/>
 <path id="rect4148-2" transform="scale(.26458333)" d="m8.7324219 9.2792969c-0.3020674 0-0.5449219 0.2448529-0.5449219 0.546875v27.802734 0.544922c0 0.301984 0.2428567 0.546875 0.5449219 0.546875h0.546875 29.988281c0.30206 0 0.544922-0.244815 0.544922-0.546875v-28.347656c0-0.3019843-0.242843-0.546875-0.544922-0.546875h-29.988281-0.546875zm1.5859371 3.3242191h27.363282c0.57949 0 1.046875 0.528576 1.046875 1.18164v22.689453c0 0.653103-0.467385 1.179688-1.046875 1.179688h-27.363282c-0.5794957 0-1.0468746-0.526585-1.0468746-1.179688v-22.689453c0-0.653064 0.4673789-1.18164 1.0468746-1.18164z" style="fill:#34495e"/>
 <path id="path865" transform="scale(.26458333)" d="m10.318359 12.603516c-0.5794945 0-1.0468746 0.528576-1.0468746 1.18164v22.689453c0 0.653103 0.4673801 1.179688 1.0468746 1.179688h27.363282c0.57949 0 1.046875-0.526585 1.046875-1.179688v-22.689453c0-0.653064-0.467385-1.18164-1.046875-1.18164h-27.363282zm2.025391 3.43164h2.816406v0.5625h-2.253906v2.251953h-0.5625v-2.251953-0.5625zm20.496094 0.167969h2.253906 0.5625v2.814453h-0.5625v-2.251953h-2.253906v-0.5625zm-10.972656 1.591797h4.265624c0.293938 0 0.581045 0.097062 0.861329 0.289062 0.280282 0.192 0.47248 0.418385 0.578125 0.683594l0.423828 1.103516h1.865234c0.588595 0 1.091699 0.203945 1.507813 0.609375 0.416113 0.405316 0.623046 0.893291 0.623047 1.466797v7.269531c0 0.573505-0.206935 1.061442-0.623047 1.466797-0.416832 0.406034-0.919218 0.609375-1.507813 0.609375h-11.720703c-0.588597 0-1.091699-0.203983-1.507813-0.609375-0.41611-0.405355-0.624999-0.893292-0.625-1.466797v-7.269531c0-0.573506 0.20889-1.061481 0.625-1.466797 0.416114-0.405355 0.919216-0.609375 1.507813-0.609375h1.863281l0.423828-1.103516c0.105646-0.265323 0.29784-0.491707 0.578125-0.683594 0.280286-0.192 0.567389-0.289062 0.861329-0.289062zm2.132812 4.154297c-1.026988 0-1.906544 0.35491-2.636719 1.066406-0.729457 0.710778-1.09375 1.567956-1.09375 2.568359 0 1.000404 0.363573 1.855629 1.09375 2.566407 0.730175 0.710778 1.609731 1.066406 2.636719 1.066406s1.90459-0.35491 2.634766-1.066406c0.729456-0.710778 1.095703-1.566003 1.095703-2.566407 0-1.000403-0.36553-1.857581-1.095703-2.568359-0.730176-0.71074-1.607778-1.066406-2.634766-1.066406zm0 1.296875c0.660463 0 1.226019 0.230404 1.695312 0.6875 0.469296 0.457058 0.703125 1.006472 0.703126 1.65039 0 0.643238-0.233831 1.191342-0.703126 1.648438-0.469292 0.457058-1.034849 0.6875-1.695312 0.6875-0.661182 0-1.22602-0.230442-1.695312-0.6875-0.469296-0.457096-0.703125-1.004482-0.703126-1.648438 0-0.643918 0.233831-1.193332 0.703126-1.65039 0.469292-0.457096 1.034848-0.6875 1.695312-0.6875zm11.037109 7.878906h0.5625v2.251953 0.564453h-2.814453v-0.564453h2.251953v-2.251953zm-22.693359 0.28125h0.5625v2.251953h2.253906v0.564453h-2.253906-0.5625v-2.816406z" style="fill:#ffffff;stroke-width:1.7654083"/>
</svg>
