<?xml version="1.0" encoding="UTF-8"?>
<svg id="svg34" version="1.1" viewBox="0 0 48 48" xmlns="http://www.w3.org/2000/svg" xmlns:xlink="http://www.w3.org/1999/xlink">
 <defs id="defs38">
  <linearGradient id="linearGradient3364" x1="399.9939" x2="399.9939" y1="545.13873" y2="518.13873" gradientTransform="matrix(1.6428584,0,0,1.6428584,-634.08211,-849.66872)" gradientUnits="userSpaceOnUse">
   <stop id="stop7-6" stop-color="#197ff1" offset="0"/>
   <stop id="stop9-7" stop-color="#21c6fb" offset="1"/>
  </linearGradient>
 </defs>
 <path id="circle12" d="M 46.999895,23.999949 A 22.999949,22.999949 0 0 1 23.999947,46.999897 22.999949,22.999949 0 0 1 0.99999809,23.999949 22.999949,22.999949 0 0 1 23.999947,1 22.999949,22.999949 0 0 1 46.999895,23.999949 Z" style="fill:url(#linearGradient3364);stroke-width:2.1357157"/>
 <path id="path24" d="m23.999021 11.924725c-1.16352 0-2.159701 0.413769-2.988281 1.242188-0.82857 0.828411-1.242188 1.82477-1.242187 2.988281v6.769531c0 1.16352 0.413777 2.16003 1.242187 2.988282 0.82842 0.828251 1.824761 1.242187 2.988281 1.242187 1.16351 0 2.159867-0.413936 2.988282-1.242187 0.82842-0.828252 1.242187-1.824762 1.242187-2.988282v-6.769531c0-1.163511-0.413449-2.159702-1.242187-2.988281-0.828415-0.828419-1.824772-1.242188-2.988282-1.242188zm-6.767578 8.460938c-0.2293 0-0.428243 0.08449-0.595703 0.251953-0.16747 0.167467-0.251953 0.364616-0.251953 0.59375v1.693359c0 1.947957 0.651182 3.642981 1.951172 5.083985s2.905629 2.267075 4.818359 2.478515v1.744141h-3.384765c-0.229131 0-0.426281 0.08448-0.59375 0.251953-0.167471 0.167467-0.251954 0.36657-0.251954 0.595703 0 0.228966 0.08444 0.426442 0.251954 0.59375 0.16747 0.167466 0.364619 0.251953 0.59375 0.251953h8.460937c0.229134 0 0.428563-0.08449 0.595703-0.251953 0.167634-0.167308 0.251953-0.364784 0.251953-0.59375 0-0.229133-0.08432-0.428236-0.251953-0.595703-0.16714-0.167475-0.366569-0.251953-0.595703-0.251953h-3.382813v-1.744141c1.912411-0.21144 3.518216-1.037511 4.81836-2.478515 1.300153-1.441004 1.951172-3.136028 1.951172-5.083985v-1.693359c0-0.229134-0.08432-0.426124-0.251953-0.59375-0.16714-0.167467-0.366571-0.251953-0.595703-0.251953-0.229135 0-0.426284 0.08449-0.59375 0.251953-0.167475 0.167467-0.251954 0.364616-0.251954 0.59375v1.693359c0 1.630708-0.579314 3.02446-1.738281 4.183594-1.158808 1.159126-2.554847 1.740234-4.185547 1.740235-1.63071 0-3.024463-0.581109-4.183594-1.740235-1.158979-1.158816-1.738281-2.552886-1.738281-4.183594v-1.693359c0-0.229134-0.08445-0.426283-0.251953-0.59375-0.16747-0.167467-0.36445-0.251953-0.59375-0.251953z" style="fill:#ffffff;stroke-width:1.2173911"/>
</svg>
