<?xml version="1.0" encoding="UTF-8"?>
<svg id="svg35" version="1.1" viewBox="0 0 48 48" xmlns="http://www.w3.org/2000/svg" xmlns:xlink="http://www.w3.org/1999/xlink">
 <title id="title2">drive-removable-media-48px</title>
 <desc id="desc4">Created with Sketch.</desc>
 <path id="Rectangle-1-3" d="m7.0000001 5.1091601c0-0.6125722 0.4937409-1.1091601 1.1119109-1.1091601h31.776177c0.614092 0 1.111911 0.4921532 1.111911 1.1091601l1e-6 33.705655h-34z" style="fill-rule:evenodd;fill:url(#linearGradient895)"/>
 <path id="Rectangle-3-6" d="m7.0000001 34.744251c0-0.615588 0.4937409-1.114621 1.1119109-1.114621h31.776178c0.614092 0 1.111911 0.495048 1.111911 1.114621v4.811305h-34z" style="fill-rule:evenodd;fill:#ffffff"/>
 <path id="path16" d="m7.0000001 38.449184c0-0.616268 0.4937409-1.115851 1.1119109-1.115851h31.776177c0.614091 0 1.11191 0.501084 1.11191 1.115851v4.434966c0 0.616267-0.49374 1.11585-1.11191 1.11585h-31.776177c-0.6140916 0-1.1119109-0.501084-1.1119109-1.11585z" style="fill-rule:evenodd;fill:#dcdddd"/>
 <path id="Rectangle-path-7" d="m26.957031 39.550781v2.222657h0.738281v-2.222657h-0.738281zm2.216797 0v2.222657h0.738281v-2.222657h-0.738281zm2.216797 0v2.222657h0.740234v-2.222657h-0.740234zm2.21875 0v2.222657h0.738281v-2.222657h-0.738281zm2.216797 0v2.222657h0.738281v-2.222657h-0.738281zm2.216797 0v2.222657h0.740234v-2.222657h-0.740234z" style="fill-rule:evenodd;fill:#4d4d4d"/>
 <path id="Oval-9" d="m11.065217 41.777778c0.612316 0 1.108696-0.497462 1.108696-1.111111 0-0.61365-0.49638-1.111111-1.108696-1.111111-0.612315 0-1.1086952 0.497461-1.1086952 1.111111 0 0.613649 0.4963802 1.111111 1.1086952 1.111111z" style="fill-rule:evenodd;fill:#4d4d4d"/>
 <defs id="defs11">
  <linearGradient id="c" x1="388.57" x2="398.82" y1="519.85" y2="528.52" gradientUnits="userSpaceOnUse">
   <stop id="stop12" stop-color="#4d4d4d" offset="0"/>
   <stop id="stop14" stop-color="#31363b" offset="1"/>
  </linearGradient>
  <linearGradient id="linearGradient933" x1="-12.247115" x2="-13.564342" y1="10.836634" y2="22.711594" gradientTransform="matrix(.75917117 0 0 .84210815 34.297657 7.8743822)" gradientUnits="userSpaceOnUse" xlink:href="#c"/>
  <linearGradient id="linearGradient895" x1="32" x2="32" y1="51.932205" y2="5.5593219" gradientTransform="matrix(.73913043 0 0 .74074074 .34782624 .29629632)" gradientUnits="userSpaceOnUse">
   <stop id="stop889" style="stop-color:#53e418" offset="0"/>
   <stop id="stop891" style="stop-color:#80ed54" offset="1"/>
  </linearGradient>
 </defs>
 <path id="path54" d="m24.428432 18.821788-3.123489 8.546779c1.373507 0.418165 2.864775 0.551489 4.375785 0.285512 4.953943-0.871977 8.303268-5.484081 7.69974-10.410363z" style="fill:url(#linearGradient933)"/>
 <path id="path56" d="m21.312209 9.4165256 3.06206 8.3980134 8.846104-1.56196c-1.120804-4.835318-5.851896-7.9969674-10.805795-7.1249224-0.383074 0.0674-0.739407 0.1785711-1.102369 0.288869z" style="fill:url(#linearGradient933)"/>
 <path id="path58" d="m20.357083 9.7412432c-2.505507 1.0648488-4.400687 3.1664828-5.243059 5.6778238-0.482058 1.437096-0.614765 3.010805-0.332608 4.608211 0.573496 3.24684 2.763659 5.78255 5.589748 6.98851l3.141423-8.620288z" style="fill:url(#linearGradient933)"/>
</svg>
