<?xml version="1.0" encoding="UTF-8"?>
<svg id="svg13" version="1.1" viewBox="0 0 48 48" xmlns="http://www.w3.org/2000/svg">
 <defs id="defs17">
  <linearGradient id="a-3" x1="409.57144" x2="409.93887" y1="542.79797" y2="501.2316" gradientTransform="matrix(.93161886 0 0 1.0102051 -356.63286 -504.32799)" gradientUnits="userSpaceOnUse">
   <stop id="stop2-6" stop-color="#00a199" offset="0"/>
   <stop id="stop4-7" stop-color="#00f89a" stop-opacity=".988235" offset="1"/>
  </linearGradient>
  <linearGradient id="b" x1="3.1466999" x2="18.771702" y1="1041.4948" y2="1041.4948" gradientTransform="matrix(.1859203 0 0 .1859203 12.28728 14.112737)" gradientUnits="userSpaceOnUse">
   <stop id="stop7" stop-color="#e6f3ff" offset="0"/>
   <stop id="stop9" stop-color="#dcffe7" offset="1"/>
  </linearGradient>
 </defs>
 <path id="rect4148-2" d="m2.7586205 3.5172413c-0.4203047 0-0.7586207 0.3383449-0.7586207 0.7586207v39.448276c0 0.420276 0.338316 0.758621 0.7586207 0.758621h42.482758c0.420305 0 0.758621-0.338345 0.758621-0.758621v-39.448276c0-0.4202758-0.338316-0.7586207-0.758621-0.7586207h-41.724138z" style="fill:#34495e"/>
 <path id="path4155-0" d="m35.835938 4.8984375a0.9889245 0.9889245 0 0 0-0.988282 0.9882813 0.9889245 0.9889245 0 0 0 0.324219 0.7324218 0.9889245 0.9889245 0 0 0 0.734375 0.328125 0.9889245 0.9889245 0 0 0 0.990234-0.9882812 0.9889245 0.9889245 0 0 0-0.322265-0.7285156 0.9889245 0.9889245 0 0 0-0.738281-0.3320313zm3.414062 0.0703125a0.9889245 0.9889245 0 0 0-0.990234 0.9902344 0.9889245 0.9889245 0 0 0 0.990234 0.9882812 0.9889245 0.9889245 0 0 0 0.988281-0.9882812 0.9889245 0.9889245 0 0 0-0.988281-0.9902344zm3.341797 0a0.9889245 0.9889245 0 0 0-0.990235 0.9902344 0.9889245 0.9889245 0 0 0 0.990235 0.9882812 0.9889245 0.9889245 0 0 0 0.988281-0.9882812 0.9889245 0.9889245 0 0 0-0.988281-0.9902344z" style="fill:#ff5555"/>
 <path id="rect12" d="m4.5856442 8.6521521h38.828711c0.599018 0 1.08126 0.4822417 1.08126 1.0812595v32.18445c0 0.599018-0.482242 1.08126-1.08126 1.08126h-38.828711c-0.5990177 0-1.0812594-0.482242-1.0812594-1.08126v-32.18445c0-0.5990178 0.4822417-1.0812595 1.0812594-1.0812595z" style="fill:url(#a-3);stroke-width:.65762758"/>
 <path id="path22" d="m35.512072 23.818707c-0.08107-0.106152-0.18685-0.169368-0.31811-0.189453l-2.771885-0.424084c-0.151518-0.484695-0.35864-0.979428-0.62116-1.484387 0.181645-0.252482 0.454204-0.608333 0.817678-1.067927 0.363475-0.459595 0.620973-0.795181 0.772499-1.007317 0.08088-0.111183 0.121039-0.227195 0.121039-0.348415 0-0.141301-0.03513-0.252293-0.105981-0.333168-0.363473-0.515186-1.196581-1.373393-2.499326-2.575183-0.120849-0.100949-0.247274-0.151329-0.378348-0.151329-0.151518 0-0.272745 0.04537-0.363659 0.136098l-2.150726 1.620853c-0.41423-0.212136-0.86862-0.398985-1.363353-0.56055l-0.424084-2.786944c-0.01-0.131257-0.06823-0.239838-0.174209-0.325734-0.106152-0.08589-0.229612-0.128654-0.371282-0.128654h-3.362555c-0.292825 0-0.474654 0.141301-0.545304 0.424084-0.131256 0.504773-0.277764 1.443856-0.439329 2.817249-0.474656 0.151708-0.934065 0.343582-1.378415 0.575796l-2.0903-1.620854c-0.131256-0.100949-0.262521-0.151329-0.393781-0.151329-0.222174 0-0.699245 0.360871-1.431399 1.082985-0.732155 0.722115-1.229306 1.264816-1.492011 1.62829-0.09092 0.131256-0.13627 0.24746-0.13627 0.348415 0 0.121228 0.05038 0.242439 0.151346 0.363475 0.676564 0.818049 1.216847 1.514693 1.620852 2.090486-0.25248 0.46443-0.449369 0.929046-0.590669 1.393473l-2.817435 0.424085c-0.110994 0.02026-0.206931 0.08589-0.287806 0.197075-0.08088 0.110994-0.121211 0.227195-0.121211 0.348229v3.362741c0 0.131446 0.04035 0.249876 0.121211 0.355851 0.08088 0.106153 0.18685 0.169558 0.31811 0.18964l2.772073 0.409023c0.141301 0.494735 0.348228 0.994487 0.620973 1.499262-0.181644 0.25248-0.454389 0.608331-0.817865 1.067926-0.363473 0.459594-0.621158 0.795182-0.772497 1.007316-0.08088 0.111373-0.121228 0.227195-0.121228 0.348415 0 0.131256 0.03532 0.247274 0.10598 0.348228 0.393779 0.545491 1.226889 1.393845 2.499328 2.544878 0.111183 0.111184 0.237419 0.166578 0.378718 0.166578 0.151518 0 0.277766-0.04537 0.37872-0.136098l2.135853-1.621038c0.41423 0.212134 0.868618 0.398984 1.363353 0.560735l0.424085 2.786946c0.01017 0.131256 0.06823 0.239836 0.174206 0.325731 0.10598 0.08608 0.229798 0.128655 0.371098 0.128655h3.36274c0.293196 0 0.474841-0.141301 0.545676-0.424084 0.131067-0.504961 0.277394-1.443858 0.438959-2.817252 0.474653-0.151518 0.934248-0.34358 1.378412-0.575795l2.090488 1.636098c0.141302 0.09073 0.272746 0.136098 0.393779 0.136098 0.221988 0 0.696644-0.358268 1.423593-1.075363 0.727319-0.716909 1.227073-1.2624 1.499446-1.636099 0.09092-0.100949 0.136459-0.216969 0.136459-0.348229 0-0.131256-0.05038-0.25787-0.151518-0.37872-0.726949-0.888698-1.267232-1.585341-1.620854-2.0903 0.20191-0.373702 0.398986-0.83311 0.590855-1.378414l2.802192-0.423899c0.121039-0.02026 0.22236-0.08608 0.303049-0.197261 0.08069-0.111184 0.120849-0.22738 0.120849-0.348415v-3.362554c1.86e-4 -0.131256-0.03997-0.249691-0.121039-0.355851zm-8.770045 4.748591c-0.757255 0.757438-1.671239 1.136158-2.741768 1.136158s-1.984327-0.37872-2.741766-1.136158c-0.757254-0.757255-1.135974-1.671053-1.135974-2.741582s0.378534-1.984327 1.135974-2.741766c0.757439-0.757254 1.671423-1.135974 2.741766-1.135974 1.070529 0 1.984513 0.37872 2.741768 1.135974 0.757252 0.757439 1.135972 1.671237 1.135972 2.741766s-0.37872 1.984327-1.135972 2.741582z" style="fill:url(#b);stroke-width:.10790659"/>
</svg>
