<?xml version="1.0" encoding="UTF-8"?>
<svg version="1.1" viewBox="0 0 48 48" xmlns="http://www.w3.org/2000/svg">
<defs>
<linearGradient id="linearGradient887" x1="-31.750002" x2="-31.750002" y1="48.292973" y2="3.8647718" gradientTransform="translate(55.75,-1.2929689)" gradientUnits="userSpaceOnUse">
<stop stop-color="#ee4d73" offset="0"/>
<stop stop-color="#f47391" offset="1"/>
</linearGradient>
</defs>
<path d="m23.999998 1.000005c12.742 0 23 10.258 23 23s-10.258 23-23 23-23-10.258-23-23 10.258-23 23-23z" fill="url(#linearGradient887)"/>
<path d="m20.304266 12.21875-0.96679688 0.25976562 0.13085938 0.48242188c0.24362961 0.90923809 0.0540778 1.9403294-0.16601562 3.0507812-0.22009341 1.1104519-0.47094888 2.3002774-0.1484375 3.5039062l0.12890624 0.484375 0.96484376-0.25976562-0.12890626-0.48242188c-0.24362961-0.90923809-0.0560309-1.9403294 0.1640625-3.0507812 0.22009341-1.1104519 0.472902-2.3002774 0.15039063-3.5039062z" color="#000000" color-rendering="auto" dominant-baseline="auto" fill="#ffffff" image-rendering="auto" shape-rendering="auto" solid-color="#000000" style="font-feature-settings:normal;font-variant-alternates:normal;font-variant-caps:normal;font-variant-ligatures:normal;font-variant-numeric:normal;font-variant-position:normal;isolation:auto;mix-blend-mode:normal;paint-order:fill markers stroke;shape-padding:0;text-decoration-color:#000000;text-decoration-line:none;text-decoration-style:solid;text-indent:0;text-orientation:mixed;text-transform:none;white-space:normal"/>
<path d="m24.474188 12.21875-0.96679688 0.25976562 0.12890625 0.48242188c0.24362961 0.90923809 0.0560309 1.9403294-0.1640625 3.0507812s-0.472902 2.3002774-0.15039063 3.5039062l0.13085938 0.484375 0.96484375-0.25976562-0.12890625-0.48242188c-0.24362961-0.90923809-0.0560309-1.9403294 0.1640625-3.0507812s0.472902-2.3002774 0.15039062-3.5039062z" color="#000000" color-rendering="auto" dominant-baseline="auto" fill="#ffffff" image-rendering="auto" shape-rendering="auto" solid-color="#000000" style="font-feature-settings:normal;font-variant-alternates:normal;font-variant-caps:normal;font-variant-ligatures:normal;font-variant-numeric:normal;font-variant-position:normal;isolation:auto;mix-blend-mode:normal;paint-order:fill markers stroke;shape-padding:0;text-decoration-color:#000000;text-decoration-line:none;text-decoration-style:solid;text-indent:0;text-orientation:mixed;text-transform:none;white-space:normal"/>
<path d="m28.642156 12.21875-0.96484374 0.25976562 0.12890624 0.48242188c0.24362961 0.90923809 0.0560309 1.9403294-0.1640625 3.0507812s-0.472902 2.3002774-0.15039062 3.5039062l0.12890625 0.484375 0.96679687-0.25976562-0.12890624-0.48242188c-0.24362962-0.90923809-0.0560309-1.9403294 0.1640625-3.0507812s0.47290199-2.3002774 0.15039062-3.5039062z" color="#000000" color-rendering="auto" dominant-baseline="auto" fill="#ffffff" image-rendering="auto" shape-rendering="auto" solid-color="#000000" style="font-feature-settings:normal;font-variant-alternates:normal;font-variant-caps:normal;font-variant-ligatures:normal;font-variant-numeric:normal;font-variant-position:normal;isolation:auto;mix-blend-mode:normal;paint-order:fill markers stroke;shape-padding:0;text-decoration-color:#000000;text-decoration-line:none;text-decoration-style:solid;text-indent:0;text-orientation:mixed;text-transform:none;white-space:normal"/>
<path d="m28.497083 25a8.000152 5 0 0 0-5.1250974 1.1621094c0.80432776 0.99063877 1.4274564 2.0403643 1.8457382 3.0976562 1.1853381 0.0367675 2.280924 0.22456019 3.3535793 0.41992188 2.3645685 0.43065657 4.6471046 0.84367913 7.8419459-0.3671875a8.000152 5 0 0 0-7.916166-4.3125zm-3.048886 4.8925781c0.0756825 0.23764169 0.14077237 0.47458534 0.19531622 0.7109375 0.32292325 1.3993075 0.25871521 2.8178072-0.31836543 3.9804688a8.000152 5 0 0 0 3.1719353 0.41601562 8.000152 5 0 0 0 8.000152-5 8.000152 5 0 0 0-0.003906-0.0507813c-3.2626509 1.2073858-5.6761863 0.77376369-8.0157773 0.34765625-0.99503502-0.18122478-1.9829011-0.35142343-3.0293548-0.40429687z" fill="#ffffff" style="paint-order:fill markers stroke"/>
<path d="m21.703319 25.793634a8.000076 5.0000475 44.998758 0 0-9.1925628-2.1213204 8.000076 5.0000475 44.998758 0 0-0.0330231 0.0377573c3.1970791 1.4678257 4.6150525 3.4888638 5.969015 5.4458221 1.3674764 1.9764908 2.6886027 3.8813489 5.8039249 5.2841879a8.000076 5.0000475 44.998758 0 0-2.547354-8.6464469zm-6.0183891 0.86807518c-0.8997237-0.90270615-2.022978-1.7352221-3.5993041-2.4443176a8.000076 5.0000475 44.998758 0 0 2.546491 8.6473102 8.000076 5.0000475 44.998758 0 0 9.1925628 2.1213203 8.000076 5.0000475 44.998758 0 0 0.0338862-0.0386204c-3.1608095-1.453248-4.5609864-3.4662874-5.9140178-5.4219001-0.68370039-0.98819077-1.3598942-1.9610864-2.2596181-2.8637924z" fill="#ffffff" style="paint-order:fill markers stroke"/>
</svg>
