<?xml version="1.0" encoding="UTF-8"?>
<svg version="1.1" viewBox="0 0 48 48" xmlns="http://www.w3.org/2000/svg" xmlns:xlink="http://www.w3.org/1999/xlink">
<defs>
<style id="current-color-scheme" type="text/css">.ColorScheme-Text {
        color:#4d4d4d;
      }</style>
<style type="text/css">.ColorScheme-Text {
        color:#4d4d4d;
      }</style>
<style type="text/css">.ColorScheme-Text {
        color:#4d4d4d;
      }</style>
<style type="text/css">.ColorScheme-Text {
        color:#4d4d4d;
      }</style>
<linearGradient id="linearGradient935" x1="-52.59132" x2="-52.59132" y1="61.495655" y2="23.513037" gradientTransform="translate(-1.3559327,2.6744092e-5)" gradientUnits="userSpaceOnUse">
<stop stop-color="#a159bf" offset="0"/>
<stop stop-color="#ce8fe8" offset="1"/>
</linearGradient>
</defs>
<g transform="translate(75.423958 -18.363493)">
<rect x="-71.423958" y="23.363493" width="40" height="38" fill="url(#linearGradient935)" style="paint-order:fill markers stroke"/>
<rect transform="rotate(90)" x="21.363493" y="61.423958" width="42" height="10" fill="#e9eaea" style="paint-order:fill markers stroke"/>
<rect transform="rotate(90)" x="21.363493" y="31.423958" width="42" height="10" fill="#e9eaea" style="paint-order:fill markers stroke"/>
<path d="m-69.423958 42.363993c0 1.662 1.338 3 3 3s3-1.338 3-3c0-1.305-0.841-2.398-2-2.813v-8.375c1.159-0.414 2-1.507 2-2.813 0-1.662-1.338-3-3-3s-3 1.338-3 3c0 1.305 0.841 2.398 2 2.813v8.375c-1.159 0.414-2 1.507-2 2.813" fill="#454c53"/>
<path d="m-69.423958 56.363993c0 1.662 1.338 3 3 3s3-1.338 3-3c0-1.305-0.841-2.398-2-2.813v-8.375c1.159-0.414 2-1.507 2-2.813 0-1.662-1.338-3-3-3s-3 1.338-3 3c0 1.305 0.841 2.398 2 2.813v8.375c-1.159 0.414-2 1.507-2 2.813" fill="#43b4f7"/>
<path d="m-35.423958 39.553993v-8.375c1.159-0.414 2-1.507 2-2.813 0-1.662-1.338-3-3-3s-3 1.338-3 3c0 1.305 0.841 2.398 2 2.813v8.375c1-0.188 1-0.188 2 0" fill="#454c53"/>
<path d="m-39.423958 56.363993c0 1.662 1.338 3 3 3s3-1.338 3-3c0-1.305-0.841-2.398-2-2.813v-8.375c1.159-0.414 2-1.507 2-2.813 0-1.662-1.338-3-3-3s-3 1.338-3 3c0 1.305 0.841 2.398 2 2.813v8.375c-1.159 0.414-2 1.507-2 2.813" fill="#43b4f7"/>
<path d="m-55.423958 35.363493v4h8v-4zm0 6v2h-3l7 6 7-6h-3v-2z" fill="#ffffff" stroke-width="1.5455245"/>
</g>
</svg>
