<?xml version="1.0" encoding="UTF-8"?>
<svg version="1.1" viewBox="0 0 48 48" xmlns="http://www.w3.org/2000/svg">
<defs>
<linearGradient id="linearGradient1043" x1="125.16376" x2="125.16376" y1="87.237366" y2="56.755367" gradientTransform="matrix(1.2851141,0,0,1.2871462,-131.46536,-65.706367)" gradientUnits="userSpaceOnUse">
<stop stop-color="#38d7b8" offset="0"/>
<stop stop-color="#6ee2cb" offset="1"/>
</linearGradient>
</defs>
<g>
<path d="m3.6472382 8.3629668 28.977775-7.7645714 10.352762 38.637033-28.977775 7.7645714z" fill="#27a289" style="paint-order:fill markers stroke"/>
<path d="m14 7h30v40h-30z" fill="url(#linearGradient1043)" style="paint-order:fill markers stroke"/>
<path d="m29 19.11908c-3.9701765 0-7.3919433 2.3403958-8.9637934 5.7177493-0.0482755 0.10234404-0.0482755 0.22206726 0 0.32634232 1.57185 3.3773341 4.9936362 5.7177493 8.9637934 5.7177493s7.3919433-2.3403958 8.9637934-5.7177493c0.0482755-0.10234404 0.0482755-0.22206725 0-0.32634232-1.57185-3.3773534-4.9936169-5.7177493-8.9637934-5.7177493zm0 9.9389776c-2.2419138 0-4.0570724-1.8171088-4.0570724-4.0570917 0-2.2419138 1.8170895-4.0570724 4.0570724-4.0570724 2.2419138 0 4.0570724 1.8170895 4.0570724 4.0570724s-1.8170895 4.0570917-4.0570724 4.0570917z" fill="#ffffff" stroke-width=".025267387"/>
<path d="m31.5 24.999035a2.5 2.5 0 0 1-2.5 2.5 2.5 2.5 0 0 1-2.5-2.5 2.5 2.5 0 0 1 2.5-2.5 2.5 2.5 0 0 1 2.5 2.5z" fill="#ffffff" stroke-width=".025267387"/>
</g>
</svg>
