<?xml version="1.0" encoding="UTF-8"?>
<svg version="1.1" viewBox="0 0 48 48" xmlns="http://www.w3.org/2000/svg">
<defs>
<linearGradient id="linearGradient905" x1="23.040001" x2="23.040001" y1="43.826092" y2="4.5913043" gradientTransform="translate(-1.355934,2.7e-5)" gradientUnits="userSpaceOnUse">
<stop stop-color="#a159bf" offset="0"/>
<stop stop-color="#ce8fe8" offset="1"/>
</linearGradient>
</defs>
<g>
<rect x="4" y="4" width="40" height="40" rx="4" ry="4" fill="url(#linearGradient905)" style="paint-order:fill markers stroke"/>
<path d="m13 13v2h1v-2zm2 0v1h2v-1h-1.5zm3 0v1h1.4511719a11 11 0 0 0-5.4511719 5.4453125v-0.4453125h-1v2h0.42773438a11 11 0 0 0-0.23632813 1h-0.19140625v0.5h2v3h-2v1.5h0.41992188a11 11 0 0 0 0.33398437 1h-0.75390625v2h1v-1.4511719a11 11 0 0 0 5.4453125 5.4511719h-0.4453125v1h2v-0.42773438a11 11 0 0 0 1 0.23632813v0.19140625h0.5v-2h3v2h1.5v-0.41992188a11 11 0 0 0 1-0.33398437v0.75390625h2v-1h-1.4511719a11 11 0 0 0 5.4511719-5.4453125v0.4453125h1v-2h-0.42773438a11 11 0 0 0 0.23632813-1h0.19140625v-0.5h-2v-3h2v-1.5h-0.41992188a11 11 0 0 0-0.33398437-1h0.75390625v-2h-1v1.4511719a11 11 0 0 0-5.4453125-5.4511719h0.4453125v-1h-2v0.42773438a11 11 0 0 0-1-0.23632813v-0.19140625h-0.5v2h-3v-2h-1.5v0.41992188a11 11 0 0 0-1 0.33398437v-0.75390625h-1.5zm12 0v1h2v-1h-1.5zm3 0v1h2v-1h-1.5zm1 2v2h1v-2zm-21 1v2h1v-2zm21 14v2h1v-2zm-21 1v2h1v-2zm21 2v2h1v-2zm-21 1v1h2v-1h-1.5zm3 0v1h2v-1h-1.5zm15 0v1h2v-1h-1.5z" fill="#ffffff" style="paint-order:fill markers stroke"/>
<path d="m22 11.5v4h4v-4zm1 1h2v2h-2z" color="#000000" color-rendering="auto" dominant-baseline="auto" fill="#38d7b8" image-rendering="auto" shape-rendering="auto" solid-color="#000000" style="font-feature-settings:normal;font-variant-alternates:normal;font-variant-caps:normal;font-variant-ligatures:normal;font-variant-numeric:normal;font-variant-position:normal;isolation:auto;mix-blend-mode:normal;paint-order:fill markers stroke;shape-padding:0;text-decoration-color:#000000;text-decoration-line:none;text-decoration-style:solid;text-indent:0;text-orientation:mixed;text-transform:none;white-space:normal"/>
<path d="m22 32.5v4h4v-4zm1 1h2v2h-2z" color="#000000" color-rendering="auto" dominant-baseline="auto" fill="#38d7b8" image-rendering="auto" shape-rendering="auto" solid-color="#000000" style="font-feature-settings:normal;font-variant-alternates:normal;font-variant-caps:normal;font-variant-ligatures:normal;font-variant-numeric:normal;font-variant-position:normal;isolation:auto;mix-blend-mode:normal;paint-order:fill markers stroke;shape-padding:0;text-decoration-color:#000000;text-decoration-line:none;text-decoration-style:solid;text-indent:0;text-orientation:mixed;text-transform:none;white-space:normal"/>
<path d="m32.5 22v4h4v-4h-0.5zm1 1h2v2h-2z" color="#000000" color-rendering="auto" dominant-baseline="auto" fill="#38d7b8" image-rendering="auto" shape-rendering="auto" solid-color="#000000" style="font-feature-settings:normal;font-variant-alternates:normal;font-variant-caps:normal;font-variant-ligatures:normal;font-variant-numeric:normal;font-variant-position:normal;isolation:auto;mix-blend-mode:normal;paint-order:fill markers stroke;shape-padding:0;text-decoration-color:#000000;text-decoration-line:none;text-decoration-style:solid;text-indent:0;text-orientation:mixed;text-transform:none;white-space:normal"/>
<path d="m15.5 22h-4v4h4zm-1 1v2h-2v-2z" color="#000000" color-rendering="auto" dominant-baseline="auto" fill="#38d7b8" image-rendering="auto" shape-rendering="auto" solid-color="#000000" style="font-feature-settings:normal;font-variant-alternates:normal;font-variant-caps:normal;font-variant-ligatures:normal;font-variant-numeric:normal;font-variant-position:normal;isolation:auto;mix-blend-mode:normal;paint-order:fill markers stroke;shape-padding:0;text-decoration-color:#000000;text-decoration-line:none;text-decoration-style:solid;text-indent:0;text-orientation:mixed;text-transform:none;white-space:normal"/>
</g>
</svg>
