<?xml version="1.0" encoding="UTF-8"?>
<svg id="svg57" version="1.1" viewBox="0 0 64 64" xmlns="http://www.w3.org/2000/svg" xmlns:xlink="http://www.w3.org/1999/xlink">
 <defs id="defs5455">
  <linearGradient id="linearGradient4303">
   <stop id="stop4305" style="stop-color:#c6cdd1" offset="0"/>
   <stop id="stop4307" style="stop-color:#e0e5e7" offset="1"/>
  </linearGradient>
  <linearGradient id="linearGradient5002">
   <stop id="stop5004" style="stop-color:#2e5d89" offset="0"/>
   <stop id="stop5006" style="stop-color:#1b92f4" offset="1"/>
  </linearGradient>
  <linearGradient id="linearGradient4327" x1="407.60321" x2="407.60321" y1="529.32129" y2="509.04092" gradientTransform="matrix(1.2000014 0 0 1.2000014 -81.71483 -104.96033)" gradientUnits="userSpaceOnUse" xlink:href="#linearGradient5002"/>
  <linearGradient id="linearGradient4352" x1="400.57144" x2="415.57144" y1="512.79797" y2="527.79797" gradientTransform="matrix(1.1818182 0 0 1.1818182 -74.28571 -95.23599)" gradientUnits="userSpaceOnUse" xlink:href="#linearGradient5002"/>
  <linearGradient id="linearGradient4356-7" x1="409.13077" x2="409.13077" y1="530.49091" y2="509.15393" gradientTransform="matrix(.80000084 0 0 .80000084 81.713957 102.95909)" gradientUnits="userSpaceOnUse" xlink:href="#linearGradient5002"/>
  <linearGradient id="linearGradient4199">
   <stop id="stop4201" style="stop-color:#2f3943" offset="0"/>
   <stop id="stop4203" style="stop-color:#4d5662" offset="1"/>
  </linearGradient>
  <linearGradient id="linearGradient4191">
   <stop id="stop4193" style="stop-color:#18222a" offset="0"/>
   <stop id="stop4195" style="stop-color:#566069" offset="1"/>
  </linearGradient>
  <linearGradient id="linearGradient4510" x1="398.5715" x2="418.57147" y1="508.798" y2="528.79797" gradientTransform="matrix(-1.2142883 0 0 -1.2142879 904.69496 1149.9824)" gradientUnits="userSpaceOnUse" xlink:href="#linearGradient4199"/>
  <linearGradient id="linearGradient4545" x2="0" y1="28" y2="12" gradientTransform="matrix(1.2500005 0 0 1.1875001 382.57144 495.54797)" gradientUnits="userSpaceOnUse" xlink:href="#linearGradient4199"/>
  <linearGradient id="linearGradient4545-5" x2="0" y1="28" y2="12" gradientTransform="matrix(-1.2500007 0 0 1.1875001 434.57144 495.54797)" gradientUnits="userSpaceOnUse" xlink:href="#linearGradient4199"/>
  <linearGradient id="linearGradient4577" x1="405.57144" x2="411.57144" y1="534.79797" y2="538.79797" gradientTransform="matrix(1.2500048 0 0 .70910087 -102.14482 157.57228)" gradientUnits="userSpaceOnUse" xlink:href="#linearGradient4191"/>
  <linearGradient id="linearGradient4510-8" x1="398.30478" x2="419.77139" y1="509.53143" y2="530.99805" gradientTransform="matrix(.92857223 0 0 .92857223 29.18337 36.12792)" gradientUnits="userSpaceOnUse" xlink:href="#linearGradient4191"/>
  <linearGradient id="linearGradient4609" x1="408.1795" x2="408.1795" y1="536.04608" y2="504.32617" gradientTransform="matrix(1.1875 0 0 1.1875 -76.60712 -98.46213)" gradientUnits="userSpaceOnUse">
   <stop id="stop866" style="stop-color:#a0acb2" offset="0"/>
   <stop id="stop868" style="stop-color:#d4dbde" offset="1"/>
  </linearGradient>
  <linearGradient id="linearGradient4617" x2="0" y1="531.79797" y2="501.69922" gradientTransform="matrix(1.0833321 0 0 1.2045475 -34.04704 -106.77793)" gradientUnits="userSpaceOnUse" xlink:href="#linearGradient4303"/>
  <linearGradient id="linearGradient4784-5" x2="0" y1="541.79797" y2="543.79797" gradientTransform="matrix(1.1874992 0 0 1.000019 -76.60685 3.98971)" gradientUnits="userSpaceOnUse">
   <stop id="stop4161-5" style="stop-color:#1d1e1e" offset="0"/>
   <stop id="stop4163-7" style="stop-color:#44484c" offset="1"/>
  </linearGradient>
  <linearGradient id="linearGradient4828" x2="0" y1="537.79797" y2="539.79797" gradientTransform="matrix(1.1874993 0 0 1.3636306 -76.60685 -193.01434)" gradientUnits="userSpaceOnUse" xlink:href="#linearGradient4303"/>
 </defs>
 <g id="layer1" transform="translate(-376.57144 -491.79797)">
  <path id="rect4820" d="m389.57144 540.34344h37.99998v5.45453h-37.99998z" style="fill:url(#linearGradient4828);stroke-linecap:round;stroke-linejoin:round;stroke-width:2"/>
  <path id="rect4288" d="m382.57153 504.88885h52v28.90912h-52z" style="fill:url(#linearGradient4617);stroke-linecap:round;stroke-linejoin:round;stroke-width:2"/>
  <path id="rect4284" d="m403.57143 536.79798h10v4.72731s-1.25002 1.18182-4.99999 1.18182-5.00001-1.18182-5.00001-1.18182z" style="fill:url(#linearGradient4577);stroke-linecap:round;stroke-linejoin:round;stroke-width:2"/>
  <path id="rect4290" d="m389.57144 545.79797h37.99998v2.00001h-37.99998z" style="fill:url(#linearGradient4784-5);stroke-linecap:round;stroke-linejoin:round;stroke-width:2"/>
  <path id="path4286" d="m427.57144 518.79797a19 19 0 0 1-19 19 19 19 0 0 1-19-19 19 19 0 0 1 19-19 19 19 0 0 1 19 19z" style="fill:url(#linearGradient4609);stroke-linecap:round;stroke-linejoin:round;stroke-width:2"/>
  <path id="path4286-9" d="m391.57144 518.79796a17.000003 16.999998 0 0 1 17-16.99999 17.000003 16.999998 0 0 1 17 16.99999 17.000003 16.999998 0 0 1-17 17.00001 17.000003 16.999998 0 0 1-17-17.00001z" style="fill:url(#linearGradient4510);stroke-linecap:round;stroke-linejoin:round;stroke-width:2"/>
  <path id="path4286-9-4" d="m421.57143 518.79797a12.999987 12.999987 0 0 1-12.99999 12.99999 12.999987 12.999987 0 0 1-12.99998-12.99999 12.999987 12.999987 0 0 1 12.99998-12.99998 12.999987 12.999987 0 0 1 12.99999 12.99998z" style="fill:url(#linearGradient4510-8);stroke-linecap:round;stroke-linejoin:round;stroke-width:2"/>
  <path id="circle4309" d="m420.57144 518.79797a12 12 0 0 1-12 12 12 12 0 0 1-12-12 12 12 0 0 1 12-12 12 12 0 0 1 12 12z" style="fill:url(#linearGradient4327);stroke-linecap:round;stroke-linejoin:round;stroke-width:2"/>
  <path id="circle4354-5" d="m416.57144 518.79797a7.9999995 7.9999995 0 0 1-8 8 7.9999995 7.9999995 0 0 1-8-8 7.9999995 7.9999995 0 0 1 8-8 7.9999995 7.9999995 0 0 1 8 8z" style="fill:url(#linearGradient4356-7);stroke-linecap:round;stroke-linejoin:round;stroke-width:1.9999999"/>
  <path id="circle4354-5-1" d="m413.57144 518.79797a5 5 0 0 1-5 5 5 5 0 0 1-5-5 5 5 0 0 1 5-5 5 5 0 0 1 5 5z" style="fill:#2c3e50;stroke-linecap:round;stroke-linejoin:round;stroke-width:2"/>
  <path id="rect4512" d="m382.57144 509.79797v19h2.5c1.38502 0 2.5-1.05923 2.5-2.375v-14.25001c0-1.31576-1.11498-2.37499-2.5-2.37499h-2.5z" style="fill:url(#linearGradient4545);stroke-linecap:round;stroke-linejoin:round;stroke-width:2"/>
  <path id="rect4512-0" d="m434.57144 509.79797v19h-2.50001c-1.38501 0-2.49999-1.05923-2.49999-2.375v-14.25001c0-1.31576 1.11498-2.37499 2.49999-2.37499h2.50001z" style="fill:url(#linearGradient4545-5);stroke-linecap:round;stroke-linejoin:round;stroke-width:2"/>
  <path id="path4292" d="m433.57144 514.29797a1.5 1.5 0 0 1-1.5 1.5 1.5 1.5 0 0 1-1.5-1.5 1.5 1.5 0 0 1 1.5-1.5 1.5 1.5 0 0 1 1.5 1.5z" style="fill:#11d116;stroke-linecap:round;stroke-linejoin:round;stroke-width:2"/>
 </g>
</svg>
