<?xml version="1.0" encoding="UTF-8"?>
<svg id="svg942" width="48" height="48" version="1.1" viewBox="0 0 12.7 12.7" xmlns="http://www.w3.org/2000/svg">
 <defs id="defs936">
  <linearGradient id="linearGradient1041" x1="510.76035" x2="510.76035" y1="549.24927" y2="504.17557" gradientTransform="matrix(.26149986 0 0 .25843447 -127.21375 -129.77411)" gradientUnits="userSpaceOnUse">
   <stop id="stop1034" style="stop-color:#05a0de" offset="0"/>
   <stop id="stop1037" style="stop-color:#2dc0fa" offset="1"/>
  </linearGradient>
 </defs>
 <path id="path1021" d="m6.3500002 0.529165-5.0205933 2.19872s-0.1635336 4.40905 1.1512128 6.52799c1.0968117 1.7677 3.196426 2.66342 3.8693805 2.91496 0.6729571-0.25154 2.7725687-1.14726 3.8693798-2.91496 1.314747-2.11894 1.151213-6.52799 1.151213-6.52799z" style="fill:url(#linearGradient1041);paint-order:stroke fill markers"/>
 <path id="path9" d="m6.7109159 8.8524352q-0.147493 0.1433999-0.3726148 0.1433999-0.2251231 0-0.380379-0.1433999-0.1474941-0.14341-0.1474941-0.3441801 0-0.20076 0.1474941-0.34417 0.1552559-0.14341 0.380379-0.14341 0.2251218 0 0.3726148 0.14341 0.155257 0.14341 0.155257 0.34417 0 0.2007701-0.155257 0.3441801zm-0.0077-1.49142h-0.7297054v-0.3370101q0-0.3226599 0.1474941-0.55211 0.1474938-0.2366201 0.52011-0.5521101 0.2095968-0.1792599 0.2949869-0.2653 0.09315-0.0932 0.1785461-0.25096 0.09315-0.1649201 0.09315-0.337 0-0.3298299-0.232886-0.5306-0.225121-0.20077-0.6287892-0.20077-0.6676038 0-0.916015 0.68835l-0.6676043-0.2581299q0.1630188-0.40871 0.5589238-0.7313699 0.4036682-0.3298301 1.0246942-0.3298301 0.7064179 0 1.1489 0.3871899 0.442482 0.38003 0.442482 0.97516 0 0.2581301-0.1474941 0.5234299-0.1474938 0.2653001-0.263937 0.3800203-0.1086789 0.10756-0.3105131 0.27964-0.023249 0.0215-0.03878 0.0358-0.473533 0.39437-0.473533 0.7887301v0.28682z" style="fill:#ffffff;stroke-width:.65542507"/>
</svg>
