<?xml version="1.0" encoding="UTF-8"?>
<svg width="48" height="48" version="1.1" viewBox="0 0 12.7 12.7" xmlns="http://www.w3.org/2000/svg">
 <defs>
  <linearGradient id="b" x1="399.9939" x2="399.9939" y1="545.13873" y2="518.13873" gradientTransform="matrix(.43467295 0 0 .43467295 -167.76756 -224.80818)" gradientUnits="userSpaceOnUse">
   <stop stop-color="#197ff1" offset="0"/>
   <stop stop-color="#21c6fb" offset="1"/>
  </linearGradient>
 </defs>
 <circle cx="6.3499837" cy="6.3499875" r="6.085403" style="fill:url(#b);stroke-width:.5650748"/>
 <path d="m6.7109128 8.85243q-0.147493 0.1434-0.3726148 0.1434-0.2251231 0-0.380379-0.1434-0.1474941-0.14341-0.1474941-0.34418 0-0.20076 0.1474941-0.34417 0.1552559-0.14341 0.380379-0.14341 0.2251218 0 0.3726148 0.14341 0.155257 0.14341 0.155257 0.34417 0 0.2007701-0.155257 0.34418zm-0.0077-1.49142h-0.7297054v-0.3370101q0-0.3226599 0.1474941-0.55211 0.1474938-0.2366201 0.52011-0.5521101 0.2095968-0.1792599 0.2949869-0.2653 0.09315-0.0932 0.1785461-0.25096 0.09315-0.1649201 0.09315-0.337 0-0.3298299-0.232886-0.5305999-0.225121-0.2007701-0.6287892-0.2007701-0.6676038 0-0.916015 0.68835l-0.6676043-0.2581299q0.1630188-0.4087099 0.5589238-0.7313698 0.4036682-0.3298302 1.0246942-0.3298302 0.7064179 0 1.1489 0.3871899 0.442482 0.3800301 0.442482 0.97516 0 0.2581301-0.1474941 0.5234299-0.1474938 0.2653001-0.263937 0.3800203-0.1086789 0.10756-0.3105131 0.27964-0.023249 0.0215-0.03878 0.0358-0.473533 0.3943699-0.473533 0.78873v0.28682z" style="fill:#ffffff;stroke-width:.65542507"/>
</svg>
