<?xml version="1.0" encoding="UTF-8"?>
<svg width="48" height="48" version="1.1" viewBox="0 0 12.7 12.7" xmlns="http://www.w3.org/2000/svg" xmlns:xlink="http://www.w3.org/1999/xlink">
 <defs>
  <linearGradient id="linearGradient1076" x1="-4.5522666" x2="-4.5522666" y1="56.553329" y2="11.811927" gradientTransform="matrix(1.0434782,0,0,1.0434782,28.750191,-11.012167)" gradientUnits="userSpaceOnUse">
   <stop style="stop-color:#e3a041" offset="0"/>
   <stop style="stop-color:#e2af62" offset="1"/>
  </linearGradient>
  <linearGradient id="linearGradient1090" x1="6.3499999" x2="6.3499999" y1="9.260417" y2="3.9991488" gradientUnits="userSpaceOnUse">
   <stop style="stop-color:#ececec" offset="0"/>
   <stop style="stop-color:#fafafa" offset="1"/>
  </linearGradient>
 </defs>
 <path transform="scale(.26458333)" d="m24 0-6 3.4277344v2.5683594a19 19 0 0 0-0.007812 0.0039062 19 19 0 0 0-0.019532 0.0058594 19 19 0 0 0-6.5625 3.7949218l-2.269531-1.3105468-5.8203125 3.3261716-0.3203125 0.554688v6.433594l2.3886719 1.378906a19 19 0 0 0-0.2167969 1.419922 19 19 0 0 0-0.0742188 0.482422 19 19 0 0 0-0.0429687 0.818359 19 19 0 0 0-0.0546875 1.095703 19 19 0 0 0 0.0976562 1.761719 19 19 0 0 0 0.0488282 0.40039 19 19 0 0 0 0.2597656 1.644532l-2.40625 1.388671v6.431641l0.3222656 0.556641 5.8164063 3.324218 2.2656251-1.308593a19 19 0 0 0 6.595703 3.8125v2.560547l6 3.427734 6-3.427734v-2.570313a19 19 0 0 0 6.591797-3.804687l2.269531 1.310546 5.816406-3.324218 0.322266-0.556641v-6.431641l-2.388672-1.378906a19 19 0 0 0 0.351563-3.072265 19 19 0 0 0 0.037109-0.744141 19 19 0 0 0-0.40625-3.806641l2.40625-1.388671v-6.433594l-0.320312-0.554688-5.820313-3.3242185-2.263672 1.3066406a19 19 0 0 0-3.005859-2.1796875 19 19 0 0 0-0.09375-0.0566406 19 19 0 0 0-1.589844-0.8164062 19 19 0 0 0-0.101562-0.0488282 19 19 0 0 0-1.804688-0.7089844v-2.5605468l-6-3.4277344zm0 5a19 19 0 0 0-0.658203 0.0234375 19 19 0 0 1 0.658203-0.0234375zm-1.992188 0.1269531a19 19 0 0 0-0.607421 0.0742188 19 19 0 0 1 0.607421-0.0742188zm-2.005859 0.3222657a19 19 0 0 0-0.359375 0.0820312 19 19 0 0 1 0.359375-0.0820312zm8.316406 37.029297a19 19 0 0 1-0.326171 0.072265 19 19 0 0 0 0.326171-0.072265zm-1.761718 0.326172a19 19 0 0 1-0.552735 0.068359 19 19 0 0 0 0.552735-0.068359zm-1.945313 0.173828a19 19 0 0 1-0.611328 0.021484 19 19 0 0 0 0.611328-0.021484z" style="fill:url(#linearGradient1076);font-variant-east_asian:normal;paint-order:fill markers stroke"/>
 <path d="m5.0270831 3.96875v1.3229166h2.6458332v-1.3229166zm0 1.8520833v1.0583333h-1.3229166l2.6458333 2.3812501 2.6458336-2.38125h-1.3229171v-1.0583334z" style="fill:url(#linearGradient1090);stroke-width:.40891996"/>
</svg>
