<?xml version="1.0" encoding="UTF-8"?>
<svg id="svg2" width="48" height="48" version="1.1" viewBox="0 0 48 48.000002" xmlns="http://www.w3.org/2000/svg" xmlns:xlink="http://www.w3.org/1999/xlink">
 <defs id="defs4">
  <linearGradient id="g" x1="406.82001" x2="411.76001" y1="518.73999" y2="523.66998" gradientUnits="userSpaceOnUse">
   <stop id="stop852" stop-color="#18222a" offset="0"/>
   <stop id="stop854" stop-color="#566069" offset="1"/>
  </linearGradient>
  <linearGradient id="h" x1="19" x2="25" y1="31" y2="37" gradientTransform="translate(384.57,499.8)" gradientUnits="userSpaceOnUse">
   <stop id="stop857" offset="0"/>
   <stop id="stop859" stop-opacity="0" offset="1"/>
  </linearGradient>
  <linearGradient id="j" x1="421.57001" x2="414.57001" y1="506.79999" y2="516.79999" gradientUnits="userSpaceOnUse">
   <stop id="stop863" stop-color="#18222a" offset="0"/>
   <stop id="stop865" stop-color="#18222a" stop-opacity="0" offset="1"/>
  </linearGradient>
  <linearGradient id="linearGradient1022" x1="75.661018" x2="75.661018" y1="44.338982" y2=".67796606" gradientTransform="translate(.94915254 .94915254)" gradientUnits="userSpaceOnUse">
   <stop id="stop1016" style="stop-color:#2c3e4f" offset="0"/>
   <stop id="stop1018" style="stop-color:#365f88" offset="1"/>
  </linearGradient>
  <linearGradient id="linearGradient1071" x1="75.661018" x2="75.661018" y1="44.338982" y2=".67796606" gradientTransform="matrix(.90909091 0 0 .81818179 7.6579352 6.9519882)" gradientUnits="userSpaceOnUse">
   <stop id="stop1073" style="stop-color:#4d83b8" offset="0"/>
   <stop id="stop1075" style="stop-color:#7fa6cc" offset="1"/>
  </linearGradient>
  <linearGradient id="f-3" x1="416.82999" x2="416.57001" y1="514.09998" y2="503.79999" gradientUnits="userSpaceOnUse" xlink:href="#b-6"/>
  <linearGradient id="b-6" x1="41" x2="25" gradientTransform="translate(383.57,500.8)" gradientUnits="userSpaceOnUse" spreadMethod="reflect">
   <stop id="stop843-7" stop-color="#197cf1" offset="0"/>
   <stop id="stop845-5" stop-color="#21c9fb" offset="1"/>
  </linearGradient>
  <linearGradient id="n-3" x1="410.70999" x2="392.13" y1="513.03003" y2="524.07001" gradientUnits="userSpaceOnUse" xlink:href="#b-6"/>
  <linearGradient id="linearGradient961-5" x1="406.82001" x2="411.76001" y1="518.73999" y2="523.66998" gradientUnits="userSpaceOnUse" xlink:href="#g"/>
  <linearGradient id="c-9" x2="0" y1="528.79999" y2="502.79999" gradientTransform="translate(-384.57,-499.8)" gradientUnits="userSpaceOnUse" xlink:href="#a-1"/>
  <linearGradient id="a-1" x1="425.57001" x2="409.57001" gradientTransform="translate(-1,1)" gradientUnits="userSpaceOnUse" spreadMethod="reflect">
   <stop id="stop838-2" stop-color="#2f3943" offset="0"/>
   <stop id="stop840-7" stop-color="#808c9b" offset="1"/>
  </linearGradient>
  <linearGradient id="i-0" x1="23" x2="27" y1="9" y2="15" gradientUnits="userSpaceOnUse" xlink:href="#h"/>
  <linearGradient id="linearGradient963-6" x1="19" x2="25" y1="31" y2="37" gradientTransform="translate(384.57,499.8)" gradientUnits="userSpaceOnUse" xlink:href="#h"/>
  <linearGradient id="linearGradient965-0" x1="425.57001" x2="409.57001" gradientTransform="translate(-1,1)" gradientUnits="userSpaceOnUse" spreadMethod="reflect" xlink:href="#a-1"/>
  <linearGradient id="linearGradient967-6" x1="41" x2="25" gradientTransform="translate(383.57,500.8)" gradientUnits="userSpaceOnUse" spreadMethod="reflect" xlink:href="#b-6"/>
  <linearGradient id="d-2" x2="0" y1="528.79999" y2="502.79999" gradientUnits="userSpaceOnUse" xlink:href="#a-1"/>
  <linearGradient id="linearGradient969-6" x1="421.57001" x2="414.57001" y1="506.79999" y2="516.79999" gradientUnits="userSpaceOnUse" xlink:href="#j"/>
  <linearGradient id="l-7" x1="420.95001" x2="424.85001" y1="509.60999" y2="513.52002" gradientUnits="userSpaceOnUse" xlink:href="#j"/>
  <linearGradient id="m-9" x1="423.57001" x2="411.57001" y1="527.79999" y2="519.29999" gradientUnits="userSpaceOnUse" xlink:href="#b-6"/>
  <linearGradient id="e-2" x2="0" y1="512.79999" y2="501.79999" gradientUnits="userSpaceOnUse" xlink:href="#a-1"/>
  <linearGradient id="k-0" x1="400.07001" x2="405.23001" y1="519.29999" y2="524.45001" gradientUnits="userSpaceOnUse" xlink:href="#g"/>
 </defs>
 <g id="g1140" transform="translate(-50.745762,1.0352664)">
  <rect id="rect1014" x="52.745762" y=".9647336" width="44" height="44" style="fill:url(#linearGradient1022);paint-order:stroke fill markers"/>
  <rect id="rect1069" x="54.745762" y="6.9647369" width="40" height="36" style="fill:url(#linearGradient1071);paint-order:stroke fill markers"/>
  <circle id="path4155" cx="93.745758" cy="3.9826028" r="1" style="fill:#ecf0f1"/>
  <g id="g1115" transform="matrix(.73442946 0 0 .73010916 56.562367 8.9318909)" style="stroke-width:1.3656238">
   <g id="g888" transform="matrix(.82744063 0 0 .82179492 -311.73686 -408.49666)" style="fill-rule:evenodd;stroke-width:1.9237732">
    <path id="path874" d="m403.57 506.8c2-3 6-3 6-3s0.208 0.426 0 1c1.738-0.781 4 0 4 0s-0.317 0.667-1 1c1.723 0.629 3 2 3 2s-0.317 0.605-1 1c1.707 0.161 3 2 3 2s-0.453 0.777-1 1c1.422 0.613 2 0.821 2 2s-3 3-3 3-1.75-4.502-3-6-2.463-2.313-4-3-5-1-5-1" style="fill:url(#f-3);stroke-width:1.9237732"/>
    <path id="path876" d="m409.57 508.8s0 6-3 8-9 3-13 5-5 5-5 5 4-2 6-2 5 1 5 1 2-2 5-2 6 1 6 1l1-11z" style="fill:url(#n-3);stroke-width:1.9237732"/>
    <path id="path878" d="m410.57 511.8s0.188 3.5-2.813 5.5c-3 2-10.721 3.239-14.5 5.313-2.766 1.517-4.688 4.188-4.688 4.188s4-2 6-2 5 1 5 1 2-2 5-2 6 1 6 1l1-11z" style="fill:url(#linearGradient961-5);stroke-width:1.9237732"/>
    <path id="path880" transform="translate(384.57,499.8)" d="m23 5.625c-1 0.125-1 1.375-1 1.375l3 6c2 4 1 13-6 17 0 0 0.477 0.234 1.236 0.525-3.079 2.523-7.654 5.475-12.236 5.475h17.734c1.264-1.318 2.348-2.795 3.295-4.258 0.057-0.404 0.252-1.305 0.971-2.742 1-2 2-6 2-6s1 0 2 1c0.835 0.835-3.036 5.638-4.393 7.27 0.839-0.278 1.651-0.676 2.393-1.27 5-4 2.254-14.214-2-19-4-4.5-6-5.5-7-5.375" style="fill:url(#c-9);stroke-width:1.9237732"/>
    <path id="path882" transform="translate(384.57,499.8)" d="m24 6-1.5 2 2.5 5c0.459 0.917 0.751 2.105 0.857 3.428l5.143-3.428z" style="fill:url(#i-0);opacity:.2;stroke-width:1.9237732"/>
    <path id="path884" d="m409.34 528.14c-1.945 2.427-1.842 2.708-4.572 4.755-0.015 0.011-0.032 0.022-0.047 0.033l2.783 2.74c10.03-8.376 1.835-7.528 1.835-7.528m-5.443 5.382c-1.132 0.803-2.384 1.593-3.729 2.273h6.04z" style="fill:#2980b9;stroke-width:1.9237732"/>
    <path id="path886" d="m404.81 530.32c-3.079 2.523-7.654 5.475-12.236 5.475h17.734c1.367-1.426 2.532-3.039 3.531-4.617 0.961-0.277-9.789-1.149-9.03-0.857" style="fill:url(#linearGradient963-6);opacity:.2;stroke-width:1.9237732"/>
   </g>
   <g id="g1067" style="stroke-width:1.3656238">
    <g id="g894" transform="matrix(.82744063 0 0 .82179492 -311.73686 -408.49666)" style="color:#000000;stroke-linejoin:round;stroke-width:5.7713189">
     <path id="path890" d="m392.57 535.8v8h32v-8z" style="fill:url(#linearGradient965-0);stroke-width:5.7713189"/>
     <path id="path892" d="m392.57 537.8v4h5v-4zm6 0v4h6v-4zm7 0v4h6v-4zm7 0v4h6v-4zm7 0v4h5v-4z" style="fill:url(#linearGradient967-6);stroke-width:5.7713189"/>
    </g>
    <g id="g908" transform="matrix(.82744063 0 0 .82179492 -311.73686 -408.49666)" style="fill-rule:evenodd;stroke-width:1.9237732">
     <path id="path896" d="m421.57 506.8c-1 0-1 3-4 6s-4 3-4 3 3 2 3 6c3 2 3 6 3 6l4-11-1-8z" style="fill:url(#d-2);stroke-width:1.9237732"/>
     <path id="path898" d="m421.57 506.8c-1 0-1 3-4 6s-4 3-4 3 3 2 3 6-2 7-2 7l9-12-1-8z" style="fill:url(#linearGradient969-6);stroke-width:1.9237732"/>
     <path id="path900" d="m421.57 506.8c-2 13.5-7.313 14.375-7.938 18.25-0.637 3.949 0.938 3.75 0.938 3.75l9-12-1-8z" style="fill:url(#l-7);stroke-width:1.9237732"/>
     <path id="path902" d="m421.57 506.8c1 0 4 6 3 15s-6 11-6 11-7-1-9-1-3 1-3 1-3-2-7-2-9 4-9 4 1-4 7-6 15.799-0.159 19-4c10-12 4-18 5-18" style="fill:url(#m-9);stroke-width:1.9237732"/>
     <path id="path904" d="m406.57 510.8c-2.121 0.707-5 0-6 1l-1 1s-1-2 0-3 3-1 4-3 4-2 5-1c2 2 1 4-2 5" style="fill:url(#e-2);stroke-width:1.9237732"/>
     <path id="path906" d="m407.76 517.3c-3 2-10.721 3.239-14.5 5.313-2.766 1.517-4.688 4.188-4.688 4.188s4-2 6-2 5 1 5 1 11.188-10.5 8.188-8.5" style="fill:url(#k-0);stroke-width:1.9237732"/>
    </g>
   </g>
  </g>
 </g>
</svg>
