<?xml version="1.0" encoding="UTF-8"?>
<svg width="48" height="48" version="1.1" viewBox="0 0 12.7 12.7" xmlns="http://www.w3.org/2000/svg">
 <defs>
  <linearGradient id="a-3" x1="368.96432" x2="368.96432" y1="545.75293" y2="517.39703" gradientTransform="matrix(.36451391 0 0 .3865627 -127.94245 -199.23534)" gradientUnits="userSpaceOnUse">
   <stop stop-color="#c61423" offset="0"/>
   <stop stop-color="#ff4c63" offset="1"/>
  </linearGradient>
 </defs>
 <path d="m1.2767622 0.92604321h10.146476c0.414168 0 0.747595 0.33342759 0.747595 0.74759539v9.3527244c0 0.414168-0.333427 0.747596-0.747595 0.747596h-10.146476c-0.41416782 0-0.74759538-0.333428-0.74759538-0.747596v-9.3527244c0-0.4141678 0.33342756-0.74759539 0.74759538-0.74759539z" style="fill:url(#a-3);opacity:.98799995;stroke-width:.37379771"/>
 <path transform="scale(.26458333)" d="m8.7324219 9.2792969c-0.3020674 0-0.5449219 0.2449285-0.5449219 0.546875v28.347656c0 0.301984 0.2428575 0.546875 0.5449219 0.546875h30.535156c0.30206 0 0.544922-0.244928 0.544922-0.546875v-28.347656c0-0.3019843-0.242836-0.546875-0.544922-0.546875h-29.988281-0.546875zm3.6113281 6.7558591h2.816406v0.5625h-2.253906v2.251953h-0.5625v-2.814453zm20.496094 0.167969h2.816406v2.816406h-0.5625v-2.253906h-2.253906v-0.5625zm-8.839844 3.433594a5.491525 5.491525 0 0 1 5.492188 5.492187 5.491525 5.491525 0 0 1-5.492188 5.492188 5.491525 5.491525 0 0 1-5.492188-5.492188 5.491525 5.491525 0 0 1 5.492188-5.492187zm11.037109 11.488281h0.5625v2.816406h-2.814453v-0.564453h2.251953v-2.251953zm-22.693359 0.28125h0.5625v2.251953h2.253906v0.564453h-2.816406v-2.816406z" style="fill:#34495e;stroke-width:3.7795277"/>
 <path transform="scale(.26458333)" d="m10.318359 12.603516c-0.5794949 0-1.0468746 0.528538-1.0468746 1.18164v22.689453c0 0.653103 0.4673797 1.179688 1.0468746 1.179688h27.363282c0.579491 0 1.046875-0.526585 1.046875-1.179688v-22.689453c0-0.653102-0.467384-1.18164-1.046875-1.18164h-27.363282zm2.025391 3.43164h2.816406v0.5625h-2.253906v2.251953h-0.5625v-2.814453zm20.496094 0.167969h2.816406v2.816406h-0.5625v-2.253906h-2.253906v-0.5625zm-8.839844 3.433594a5.491525 5.491525 0 0 1 5.492188 5.492187 5.491525 5.491525 0 0 1-5.492188 5.492188 5.491525 5.491525 0 0 1-5.492188-5.492188 5.491525 5.491525 0 0 1 5.492188-5.492187zm11.037109 11.488281h0.5625v2.816406h-2.814453v-0.564453h2.251953v-2.251953zm-22.693359 0.28125h0.5625v2.251953h2.253906v0.564453h-2.816406v-2.816406z" style="fill:#ffffff;stroke-width:1.7654083"/>
</svg>
