<?xml version="1.0" encoding="UTF-8"?>
<svg version="1.1" viewBox="0 0 48 48" xmlns="http://www.w3.org/2000/svg">
 <linearGradient id="a" x1="488.20423" x2="488.11148" y1="547.74359" y2="537.67596" gradientTransform="matrix(4.1818183,0,0,4.1818183,-2017.8077,-2244.3185)" gradientUnits="userSpaceOnUse">
  <stop stop-color="#ffeb96" offset="0"/>
  <stop stop-color="#fff1b7" offset="1"/>
 </linearGradient>
 <path d="m47.042212 23.699013a23 23 0 0 1-23 23 23 23 0 0 1-23-23 23 23 0 0 1 23-23 23 23 0 0 1 23 23z" style="fill:url(#a);stroke-width:4.1818185"/>
 <path d="m33.819815 30.788753c0 0.291473 3.275535 0.580896 3.255546 0.867602-0.459456 6.586907-6.111393 11.798415-13.031382 11.82246-6.893602 0.02509-12.566573-5.109596-13.111715-11.65732-0.02509-0.311128 1.273363-0.625475 1.271273-0.942582l11.79394-0.09033z" style="fill:#f7aa86;stroke-width:4.1818185"/>
 <path d="m11.292611 29.442124h25.414875c0.204909 0 0.369673 0.164763 0.369673 0.369672v1.609039c0 0.204909-0.04182 0.862625-0.04182 0.862625h-26.070541s-0.04182-0.657716-0.04182-0.862625v-1.609039c0-0.204909 0.164764-0.369672 0.369673-0.369672z" style="fill:#f3f3f3;stroke-width:4.1818185"/>
 <path d="m37.269144 22.056282c-0.344238-0.0051-0.68185 0.129554-1.00793 0.367113-0.362237 0.263901-0.707504 0.652486-1.030703 1.102711-0.422962 0.589202-0.81057 1.288438-1.110976 1.894312l0.440253 0.289403 0.440212 0.290179c0.292084-0.589091 0.629586-1.249858 0.978868-1.813365 0.267654-0.431815 0.521304-0.772409 0.762647-1.008966 0.210726-0.206548 0.400632-0.322486 0.578906-0.365563 0.172346-0.04164 0.362354-0.02216 0.586914 0.08961 0.226296 0.112643 0.465382 0.308631 0.720294 0.577102 0.264391 0.278454 0.534401 0.622808 0.803709 0.992589 0.207156 0.284442 0.633492 0.908433 1.07973 1.563728l0.04407-0.02749c-0.278002-0.473372-0.566893-0.988607-0.964361-1.671024-0.233056-0.400136-0.471823-0.794555-0.709937-1.128975-0.227563-0.3196-0.466845-0.602465-0.726688-0.80684-0.263945-0.207601-0.556435-0.339579-0.885004-0.344521z" style="fill:#414141;stroke-width:.51800001;stroke:#414141"/>
 <path d="m10.730856 22.056282c0.344238-0.0051 0.68185 0.129554 1.00793 0.367113 0.362237 0.263901 0.707504 0.652486 1.030703 1.102711 0.422962 0.589202 0.81057 1.288438 1.110976 1.894312l-0.440253 0.289403-0.440212 0.290179c-0.292084-0.589091-0.629586-1.249858-0.978868-1.813365-0.267654-0.431815-0.521304-0.772409-0.762647-1.008966-0.210726-0.206548-0.400632-0.322486-0.578906-0.365563-0.172346-0.04164-0.362354-0.02216-0.586914 0.08961-0.226296 0.112643-0.465382 0.308631-0.720294 0.577102-0.264391 0.278454-0.534401 0.622808-0.803709 0.992589-0.207156 0.284442-0.633492 0.908433-1.07973 1.563728l-0.04407-0.02749c0.278002-0.473372 0.566893-0.988607 0.964361-1.671024 0.233056-0.400136 0.471823-0.794555 0.709937-1.128975 0.227563-0.3196 0.466845-0.602465 0.726688-0.80684 0.263945-0.207601 0.556435-0.339579 0.885004-0.344521z" style="fill:#414141;stroke-width:.51800001;stroke:#414141"/>
</svg>
