<?xml version="1.0" encoding="UTF-8"?>
<svg id="SVGRoot" version="1.1" viewBox="0 0 48 48" xmlns="http://www.w3.org/2000/svg" xmlns:xlink="http://www.w3.org/1999/xlink">
 <defs id="defs855">
  <linearGradient id="linearGradient6821" x1="282.24246" x2="282.24246" y1="537.76331" y2="1069.6909" gradientTransform="matrix(.08496573 0 0 .08496573 .01906111 -91.994893)" gradientUnits="userSpaceOnUse">
   <stop id="stop27" stop-color="#5043e2" offset="0"/>
   <stop id="stop29" stop-color="#418dff" offset="1"/>
  </linearGradient>
  <linearGradient id="linearGradient1542" x1="25.04561" x2="25.04561" y1="41.514755" y2="8.7376184" gradientTransform="matrix(.9626063 0 0 .98168191 1.2051571 -.0476503)" gradientUnits="userSpaceOnUse">
   <stop id="stop1536" style="stop-color:#f5c400" offset="0"/>
   <stop id="stop1538" style="stop-color:#fff618" offset="1"/>
  </linearGradient>
 </defs>
 <circle id="path854-5" transform="scale(1,-1)" cx="24" cy="-24" r="23" style="fill:url(#linearGradient6821);paint-order:stroke fill markers"/>
 <path id="path1300" d="m35.073326 34.67101c-2.617462 3.187411-10.025309 4.475338-13.423167 5.328941-0.08689-0.570776 0.313267-1.348851 0.313267-1.348851-3.412168-0.404882-3.584873 0.150813-5.447397 0.41776 2.78065-14.937451 14.047902-2.004134 16.033112-14.518947-0.03127-0.140223-0.499538 0.34252-1.617299 0.586848 2.103785-3.28396 0.209442-8.705383-5.144994-8.921664 1.003097 0.657712 2.360532 2.46414 2.538607 3.694883 4.21e-4 0.0013 4.39e-4 0.0031 8.4e-4 0.0043 0.238582 1.29042 0.309004 2.126822 0.797582 2.444199 0.489321 0.317135 0.354748 0.997695-0.311768 1.043518-0.667566 0.04617-1.912879-0.224714-2.668103-1.539303-0.532314-0.927354-0.629306-2.650522-2.799143-3.218712-1.665734-0.435845-2.278646-0.0118-2.644172 0.342046-0.100478 0.155093-0.185824 0.308561-0.254939 0.457839-0.215478 0.46542 0.04845 0.941335 0.171588 1.230142 0.403757 0.291218 0.808005 0.484545 1.27951 0.639674-0.09964 0.109691-0.235825 0.251344-0.397539 0.4046-0.02942 0.09094-0.226793 0.254504-0.493368 0.42865-0.245819 0.194396-0.516501 0.378866-0.792866 0.516575 2.24e-4 3.13e-4 2.2e-4 6.81e-4 1.41e-4 8e-4 8.71e-4 0.0018 0.0013 0.0032 0.0022 5e-3 8.86e-4 0.0027 8.96e-4 0.0054 4.19e-4 0.0084-1.78e-4 7.25e-4 -3.99e-4 0.0014-1.4e-5 0.0018-8.38e-4 0.0044-0.0027 0.0089-0.0056 0.01458-0.07612 0.121742-0.03139 0.551927 0.05627 1.054753 0.07854 0.450592 0.191484 0.959361 0.283093 1.357447 0.08104 0.352404 0.145299 0.618059 0.154098 0.679502 0.0031 0.02342 0.0074 0.05119 0.01123 0.0821 3.55e-4 0.0059 0.0014 0.01151 0.0021 0.01747 4.41e-4 4e-3 8.88e-4 0.0072 0.0013 0.01103 0.02347 0.209953 0.02238 0.560266-0.304348 0.9667-8.36e-4 9.81e-4 -0.0015 0.0021-0.0023 0.0029-0.0097 0.01181-0.01969 0.02366-0.02986 0.03581-0.0072 0.0082-0.01451 0.01657-0.02147 0.02545-0.0057 0.0064-0.0111 0.01319-0.01722 0.01937-0.01388 0.01507-0.02803 0.03038-0.04237 0.0459-9.54e-4 9.17e-4 -0.0016 0.0019-0.0026 0.0027-0.03466 0.03626-0.07183 0.073-0.112306 0.110051-0.02277 0.02052-0.04345 0.03895-0.06473 0.0532-0.0011 7.24e-4 -0.0022 0.0014-0.0035 0.0027-0.0022 0.0014-0.0044 0.0027-0.0064 0.0039-0.0038 0.0023-8e-3 0.0045-0.01173 0.0066-5.34e-4 2.74e-4 -0.0012 6.21e-4 -0.0013 4.86e-4 -0.0044 0.0027-0.0089 0.0045-0.01336 0.0064-2.25e-4 4.8e-5 -3.13e-4 1.37e-4 -4.89e-4 2.27e-4 -0.124122 0.05073-0.296166-0.05772-0.880932-0.634188-4.86e-4 -4.13e-4 -9.2e-4 -8.66e-4 -0.0018-0.0017-0.238589-0.235244-0.545394-0.54813-0.946169-0.959544-0.702272-0.721563-1.782617-0.414533-2.174294-0.268736-0.770686 1.133671-0.948739 2.320026-0.594267 3.609171 0.0066 0.02438-0.0035 0.02859-0.02648 0.01526 0.06254 0.25888-1.915948-1.948539-1.658693-4.154274-1.055661-0.64836-1.778585-1.414458-2.264968-2.214056-0.125512-0.120826-0.292579-0.260462-0.51057-0.40621-0.804715-0.04106-2.115399 0.06208-2.9904425 0.888389 0 0 4.22e-5 -0.0036-9.385e-4 -0.0099-0.00852 0.0079-0.0174 0.01506-0.025933 0.02287 0 0-0.2994261-2.320162 2.586306-4.870117 0.04266-0.04442 0.08306-0.08741 0.121736-0.12953 0.123436-0.836413 0.347122-1.417147 0.421807-1.519549 0.318956-0.954696 0.950099-2.237229 2.128892-3.959287 0 0-0.386217 0.757438-0.667748 1.774346 2.570122-3.136381 4.64727-4.796271 8.613055-5.9245906 8.416461-1.8632691 14.561805 2.4742826 17.262885 8.3880916 2.701075 5.913806 1.957883 13.40387-3.402726 17.845619z" style="fill:url(#linearGradient1542);stroke-width:.0654027"/>
</svg>
