<?xml version="1.0" encoding="UTF-8"?>
<svg id="SVGRoot" version="1.1" viewBox="0 0 48 48" xmlns="http://www.w3.org/2000/svg" xmlns:xlink="http://www.w3.org/1999/xlink">
 <defs id="defs855">
  <linearGradient id="linearGradient11364-9" x1="407.56076" x2="407.56076" y1="531.59259" y2="565.29022" gradientTransform="matrix(.951039 0 0 .951039 -363.60618 -552.56531)" gradientUnits="userSpaceOnUse">
   <stop id="stop23" stop-color="#0c275c" offset="0"/>
   <stop id="stop25" stop-color="#1072c0" offset="1"/>
  </linearGradient>
  <linearGradient id="linearGradient1542-2" x1="24.811687" x2="24.811687" y1="40.805115" y2="8.0743332" gradientTransform="matrix(.96260634 0 0 .98168802 1.2053469 -.04775449)" gradientUnits="userSpaceOnUse">
   <stop id="stop1536" style="stop-color:#1078e8" offset="0"/>
   <stop id="stop1538" style="stop-color:#1fcaff" offset="1"/>
  </linearGradient>
 </defs>
 <circle id="path854-5" transform="scale(1,-1)" cx="24" cy="-24" r="23" style="fill:url(#linearGradient11364-9);paint-order:stroke fill markers"/>
 <path id="path1300" d="m35.073518 34.67112c-2.617462 3.187432-10.025308 4.475367-13.423168 5.328975-0.08688-0.570779 0.313268-1.348859 0.313268-1.348859-3.412169-0.404885-3.584873 0.150813-5.447397 0.417762 2.780649-14.937543 14.047902-2.004146 16.033112-14.519038-0.03127-0.140223-0.499538 0.342523-1.617299 0.586852 2.103785-3.28398 0.209442-8.705436-5.144994-8.921719 1.003097 0.657716 2.360532 2.464156 2.538607 3.694906 4.21e-4 0.0013 4.39e-4 0.0031 8.41e-4 0.0043 0.238581 1.290428 0.309002 2.126836 0.797582 2.444215 0.48932 0.317136 0.354747 0.997701-0.311768 1.043526-0.667567 0.04617-1.91288-0.224717-2.668104-1.539314-0.532315-0.927359-0.629305-2.650538-2.799143-3.218732-1.665734-0.435848-2.278645-0.0118-2.644172 0.342049-0.100482 0.155094-0.185824 0.308561-0.254939 0.457841-0.215478 0.465424 0.04845 0.941341 0.171588 1.23015 0.403757 0.291219 0.808005 0.484547 1.27951 0.639677-0.09964 0.109692-0.235824 0.251347-0.397538 0.404603-0.02942 0.09095-0.226795 0.254507-0.493369 0.428653-0.24582 0.194398-0.516502 0.378869-0.792867 0.516578 2.25e-4 3.13e-4 2.21e-4 6.81e-4 1.41e-4 8e-4 8.72e-4 0.0018 0.0013 0.0032 0.0022 5e-3 8.86e-4 0.0027 8.96e-4 0.0054 4.19e-4 0.0084-1.78e-4 7.26e-4 -4e-4 0.0014-1.4e-5 0.0018-8.38e-4 0.0044-0.0027 0.0089-0.0056 0.01458-0.07612 0.121742-0.03139 0.55193 0.05627 1.054759 0.07854 0.450593 0.191483 0.959367 0.283093 1.357455 0.08104 0.352406 0.145298 0.618064 0.154097 0.679507 0.0031 0.02342 0.0074 0.05119 0.01123 0.0821 3.54e-4 0.0059 0.0014 0.01152 0.0021 0.01748 4.43e-4 4e-3 8.88e-4 0.0072 0.0013 0.01102 0.02347 0.209953 0.02238 0.560269-0.304349 0.966705-8.35e-4 9.82e-4 -0.0015 0.0021-0.0024 0.0029-0.0097 0.01181-0.0197 0.02366-0.02985 0.03581-0.0072 0.0082-0.01451 0.01657-0.02147 0.02546-0.0057 0.0064-0.0111 0.01319-0.01722 0.01937-0.01388 0.01507-0.02803 0.03038-0.04237 0.0459-9.55e-4 9.16e-4 -0.0016 0.0019-0.0026 0.0027-0.03466 0.03626-0.07183 0.073-0.112305 0.110052-0.02277 0.02052-0.04346 0.03895-0.06473 0.0532-0.0011 7.23e-4 -0.0022 0.0014-0.0035 0.0026-0.0022 0.0014-0.0044 0.0027-0.0065 0.0039-0.0038 0.0023-8e-3 0.0045-0.01173 0.0066-5.33e-4 2.73e-4 -0.0012 6.2e-4 -0.0013 4.85e-4 -0.0044 0.0027-0.0089 0.0045-0.01336 0.0064-2.24e-4 4.7e-5 -3.12e-4 1.37e-4 -4.89e-4 2.27e-4 -0.124122 0.05073-0.296165-0.05772-0.880931-0.634191-4.86e-4 -4.13e-4 -9.21e-4 -8.67e-4 -0.0018-0.0017-0.238589-0.235245-0.545394-0.548133-0.946169-0.95955-0.702272-0.721567-1.782617-0.414535-2.174294-0.268737-0.770686 1.133677-0.948739 2.32004-0.594267 3.609193 0.0066 0.02438-0.0035 0.02859-0.02648 0.01526 0.06254 0.258882-1.915947-1.948552-1.658692-4.154301-1.055661-0.648362-1.778586-1.414467-2.264969-2.214068-0.125512-0.120828-0.292579-0.260465-0.51057-0.406213-0.804715-0.04106-2.1154003 0.06208-2.9904431 0.888394 0 0 4.14e-5 -0.0036-9.385e-4 -0.0099-0.00857 0.0079-0.017404 0.01506-0.025933 0.02287 0 0-0.2994264-2.320176 2.5863056-4.870146 0.04266-0.04441 0.08306-0.08741 0.121737-0.129531 0.123436-0.83642 0.347122-1.417157 0.421807-1.519559 0.318956-0.954701 0.950099-2.237243 2.128893-3.959311 0 0-0.386217 0.757443-0.667748 1.774356 2.570121-3.1364 4.647269-4.7962988 8.613054-5.9246256 8.416462-1.8632811 14.561807 2.4742966 17.262885 8.3881416 2.701076 5.913844 1.957884 13.403955-3.402725 17.845731z" style="fill:url(#linearGradient1542-2);stroke-width:.06540271"/>
</svg>
