<?xml version="1.0" encoding="UTF-8"?>
<svg version="1.1" viewBox="0 0 48 48" xmlns="http://www.w3.org/2000/svg" xmlns:xlink="http://www.w3.org/1999/xlink">
<defs>
<style id="current-color-scheme" type="text/css">.ColorScheme-Text {
        color:#4d4d4d;
      }</style>
<style type="text/css">.ColorScheme-Text {
        color:#4d4d4d;
      }</style>
<style type="text/css">.ColorScheme-Text {
        color:#4d4d4d;
      }</style>
<style type="text/css">.ColorScheme-Text {
        color:#4d4d4d;
      }</style>
<linearGradient id="linearGradient1077" x1="23.874783" x2="23.874783" y1="31.304348" y2="15.902994" gradientUnits="userSpaceOnUse" xlink:href="#linearGradient850-3"/>
<linearGradient id="linearGradient849" x1="24.160297" x2="24.075815" y1="46.312599" y2="1.333231" gradientUnits="userSpaceOnUse" xlink:href="#linearGradient850-3"/>
<linearGradient id="linearGradient850-3" x1="1.0169487" x2="46" y1="22.966103" y2="22.966103" gradientTransform="translate(-48.016948,1.0338974)" gradientUnits="userSpaceOnUse">
<stop stop-color="#fe9e22" offset="0"/>
<stop stop-color="#feb336" offset="1"/>
</linearGradient>
</defs>
<g>
<path d="m26.828427 2.7867968 18.384776 18.384776c1.5669486 1.5669486 1.5669486 4.0899056 0 5.6568542l-18.384776 18.384776c-1.5669486 1.5669486-4.0899056 1.5669486-5.6568542 0l-18.384776-18.384776c-1.5669486-1.5669486-1.5669486-4.0899056 0-5.6568542l18.384776-18.384776c1.5669486-1.5669486 4.0899056-1.5669486 5.6568542 0z" fill="url(#linearGradient849)" style="paint-order:fill markers stroke"/>
<path d="m25.414214 5.6152232 16.970563 16.970563c0.78347427 0.78347427 0.78347427 2.0449527 0 2.828427l-16.970563 16.970563c-0.78347426 0.78347426-2.0449527 0.78347426-2.828427 0l-16.970563-16.970563c-0.78347426-0.78347426-0.78347426-2.0449527 0-2.828427l16.970563-16.970563c0.78347427-0.78347427 2.0449527-0.78347426 2.828427 0z" fill="#ffffff" style="paint-order:fill markers stroke"/>
<path d="m17 16v16h14v-16zm1.1666667 1.1428572h2.3333333v2.8571428h-2.3333333zm9.3333333 0h2.3333333v2.8571428h-2.3333333zm-9.3333333 4h2.3333333v2.2857143h-2.3333333zm9.3333333 0h2.3333333v2.2857143h-2.3333333zm-5.8333333 2.2857143h4.6666667v1.1428571h-4.6666667zm-3.5 1.1428571h2.3333333v2.2857143h-2.3333333zm9.3333333 0h2.3333333v2.2857143h-2.3333333zm-9.3333333 3.4285714h2.3333333v2.8571429h-2.3333333zm9.3333333 0h2.3333333v2.8571429h-2.3333333z" fill="url(#linearGradient1077)"/>
</g>
</svg>
