<?xml version="1.0" encoding="UTF-8"?>
<svg id="SVGRoot" version="1.1" viewBox="0 0 48 48" xmlns="http://www.w3.org/2000/svg" xmlns:xlink="http://www.w3.org/1999/xlink">
 <defs id="defs1219">
  <linearGradient id="linearGradient944-6" x1="22.062117" x2="24.761248" y1="22.874729" y2="28.271175" gradientTransform="matrix(1.0012576,0,0,1.0012576,16.523526,10.494495)" gradientUnits="userSpaceOnUse">
   <stop id="stop937" style="stop-color:#aaaaaa" offset="0"/>
   <stop id="stop943" style="stop-color:#2a2a2a" offset=".78410405"/>
   <stop id="stop939" style="stop-color:#333333" offset="1"/>
  </linearGradient>
  <linearGradient id="linearGradient952-6" x1="27.224386" x2="23.616724" y1="35.230782" y2="28.982126" gradientTransform="matrix(1.0012576,0,0,1.0012576,16.327967,10.453449)" gradientUnits="userSpaceOnUse">
   <stop id="stop946" style="stop-color:#999999" offset="0"/>
   <stop id="stop1189" style="stop-color:#808080" offset=".30666909"/>
   <stop id="stop945" style="stop-color:#2b2b2b" offset=".75545245"/>
   <stop id="stop948" style="stop-color:#161616" offset="1"/>
  </linearGradient>
  <linearGradient id="linearGradient1119" x1="72.205086" x2="64.267349" y1="33.331169" y2="24.558252" gradientTransform="matrix(.95384552 0 0 .95373239 -51.9667 -1.5531895)" gradientUnits="userSpaceOnUse">
   <stop id="stop1113" style="stop-color:#2f2f2f" offset="0"/>
   <stop id="stop1115" style="stop-color:#515151" offset="1"/>
  </linearGradient>
  <linearGradient id="linearGradient1031" x1="42.59322" x2="2.0000019" y1="42.59322" y2="2.0000019" gradientUnits="userSpaceOnUse">
   <stop id="stop1025" style="stop-color:#f00e0e" offset="0"/>
   <stop id="stop1033" style="stop-color:#cdf621" offset=".51847887"/>
   <stop id="stop1027" style="stop-color:#62ff0f" offset="1"/>
  </linearGradient>
  <linearGradient id="linearGradient1041" x1="34.05619" x2="20.641994" y1="32.74725" y2="14.645555" gradientTransform="matrix(.90084273 0 0 .9003025 2.3806765 2.6365558)" gradientUnits="userSpaceOnUse">
   <stop id="stop1035" style="stop-color:#2f2f2f" offset="0"/>
   <stop id="stop1037" style="stop-color:#505050" offset="1"/>
  </linearGradient>
 </defs>
 <path id="rect1408" d="m4.8695669 2.0000019h38.260866c1.589739 0 2.869565 1.279826 2.869565 2.869565v38.260866c0 1.589739-1.279826 2.869565-2.869565 2.869565h-38.260866c-1.589739 0-2.869565-1.279826-2.869565-2.869565v-38.260866c0-1.589739 1.279826-2.869565 2.869565-2.869565z" style="fill:url(#linearGradient1031);paint-order:normal"/>
 <path id="path1412" d="m38.363458 33.116668a8.8773329 13.28159 51.253564 0 1-6.144438 10.088844 8.8773329 13.28159 51.253564 0 1-1.646598 1.169424l15.427576-8.379666a8.7514361 5.8494055 36.253564 0 1-6.85431-2.252826 8.7514361 5.8494055 36.253564 0 1-0.78223-0.625776z" style="fill:url(#linearGradient944-6);stroke-width:.35998923"/>
 <path id="path1414" d="m45.999998 35.945342-17.314449 9.402369h-2e-3l-1.146485 0.624982 15.558639 0.02646c1.590557 0.0028 2.875525-1.274684 2.880855-2.86526z" style="fill:url(#linearGradient952-6);stroke-width:.35998923"/>
 <path id="path1001" d="m14.961433 13.801898s3.077514 4.96975 9.090229 4.265273c12.600127-1.479052 14.19314-8.1429503 14.4203-9.1041704 0.22716-0.9612193 0.725587-0.8649133 0.920583-0.01401 7.647517 36.273913-26.572298 23.57235-28.334776 17.436705 6.316275-2.464734 4.388102-5.890477 4.388102-5.890477z" style="fill-rule:evenodd;fill:url(#linearGradient1041);stroke-width:.97794503;stroke:#ffda36"/>
 <path id="path1003" d="m38.74313 11.048575c-0.425267 0.860973-1.08858 1.902973-2.146951 2.941021-2.174498 2.132741-5.966854 4.241644-12.431815 5.000526-3.777094 0.442543-6.394779-1.122907-8.047066-2.579683l0.265906 3.936651c0.157401 0.356679 0.489938 1.187259 0.173917 2.393902-0.34006 1.298435-1.686394 2.719012-4.114815 3.9264 0.268501 0.437909 0.532326 0.875855 1.270922 1.461387 1.006263 0.797726 2.378641 1.630867 3.983928 2.346146 3.210575 1.430559 7.287383 2.422337 10.971937 2.142894 3.684556-0.27944 6.937324-1.736125 8.93146-5.258427 1.838314-3.247069 2.509737-8.518509 1.142577-16.310817z" style="fill:none;opacity:.18539303;stroke-width:.97794503"/>
 <path id="path1005" d="m22.291359 21.037199a3.5881791 3.6601075 89.99998 1 1-7.287837 0.674206 3.5881791 3.6601075 89.99998 1 1 7.287837-0.674206z" style="fill-rule:evenodd;fill:#333333;stroke-miterlimit:10;stroke-width:.97794425;stroke:#ffcf36"/>
 <path id="path1007" d="m15.162021 23.054678a5.430419 3.8642389 47.079971 1 1-5.8671678 5.035135 5.430419 3.8642389 47.079971 1 1 5.8671678-5.035135z" style="fill-rule:evenodd;fill:url(#linearGradient1119);stroke-miterlimit:10;stroke-width:.97794503;stroke:#ffcf36"/>
 <path id="path1009" d="m21.304937 21.662393a1.7276417 1.762274 89.999982 1 1-3.508959 0.324617 1.7276417 1.762274 89.999982 1 1 3.508959-0.324617z" style="fill-rule:evenodd;fill:#fce396;stroke-miterlimit:10;stroke-width:.97794515;stroke:#ffcf36"/>
 <path id="path1011" d="m30.487937 20.670672a4.2122093 4.2966473 89.999976 1 1-8.555287 0.791458 4.2122093 4.2966473 89.999976 1 1 8.555287-0.791458z" style="fill-rule:evenodd;fill:#333333;stroke-miterlimit:10;stroke-width:.97794384;stroke:#ffcf36"/>
 <path id="path1013" d="m29.329969 21.404598a2.0281016 2.0687569 89.999982 1 1-4.119214 0.381072 2.0281016 2.0687569 89.999982 1 1 4.119214-0.381072z" style="fill-rule:evenodd;fill:#fce396;stroke-miterlimit:10;stroke-width:.97794503;stroke:#ffcf36"/>
</svg>
