<?xml version="1.0" encoding="UTF-8"?>
<svg id="svg29" version="1.1" viewBox="0 0 48 48" xmlns="http://www.w3.org/2000/svg" xmlns:xlink="http://www.w3.org/1999/xlink">
 <defs id="defs33">
  <linearGradient id="linearGradient920" x1="24.129076" x2="24.129076" y1="36.972687" y2="10.769164" gradientTransform="matrix(1.6660601,0,0,1.6660601,-15.984797,-15.981597)" gradientUnits="userSpaceOnUse">
   <stop id="stop978" style="stop-color:#59c110" offset="0"/>
   <stop id="stop980" style="stop-color:#87d82e" offset="1"/>
  </linearGradient>
 </defs>
 <path id="path930" d="m24.088685 1.9996909c-0.825939-0.00146-1.655745 0.041019-2.479942 0.1319951-0.637866 0.070408-1.107983 0.619404-1.086516 1.2583891 0.07165 2.0400759-1.13855 3.9277826-3.013998 4.6959404-1.798512 0.734623-4.136018 0.1963372-5.444833-1.2430339-0.432575-0.474157-1.156526-0.5308535-1.660459-0.1381403-1.3186222 1.0345169-2.5188974 2.2208388-3.5603314 3.5204137-0.406221 0.505238-0.345924 1.234989 0.131995 1.66967 1.531316 1.386664 2.0262932 3.594068 1.230761 5.490875-0.7595 1.808443-2.638154 2.974099-4.788011 2.974099-0.697632-0.02247-1.194336 0.44612-1.270677 1.080373-0.193486 1.65287-0.194405 3.336555-0.0095 5.002863 0.06899 0.621162 0.812063 1.083454 1.442546 1.083454 1.915899-0.04903 3.752455 1.136284 4.52407 3.013982 0.7691942 1.875215 0.274218 4.059204-1.230761 5.438704-0.470699 0.432355-0.525635 1.154624-0.128855 1.657394 1.022308 1.302029 2.1952732 2.486055 3.4805174 3.520416 0.50409 0.406188 1.235759 0.352477 1.672732-0.128855 1.316342-1.455951 3.671652-1.994801 5.484748-1.233825 1.899035 0.794322 3.094112 2.714212 2.977164 4.775738-0.03819 0.64747 0.437743 1.208966 1.080373 1.28295 0.840696 0.09807 1.684047 0.147252 2.532127 0.147252 0.80501 0 1.613522-0.04542 2.418562-0.134981 0.638041-0.07041 1.107937-0.618256 1.086518-1.258385-0.07386-2.03893 1.137888-3.926009 3.010918-4.692877 1.810611-0.739495 4.138954-0.194876 5.447911 1.243034 0.434993 0.473148 1.153776 0.52639 1.66046 0.13498 1.316202-1.032082 2.51393-2.214192 3.560315-3.517351 0.406031-0.50409 0.348218-1.238227-0.131995-1.672733-1.531318-1.386697-2.029358-3.592293-1.233826-5.48781 0.747902-1.784369 2.557695-2.983293 4.502573-2.983293l0.273165 0.0095c0.630828 0.05139 1.209564-0.436469 1.286014-1.080373 0.193854-1.654362 0.196352-3.336555 0.0095-5.002877h0.0031c-0.06961-0.618524-0.791306-1.080373-1.41492-1.080373-2.016267 0-3.807458-1.186242-4.557825-3.017063-0.766555-1.875231-0.271925-4.060413 1.230761-5.438702 0.473023-0.432388 0.531607-1.157692 0.13498-1.660462-1.031958-1.3103864-2.206005-2.4945702-3.48666-3.5204141-0.501498-0.4024174-1.237897-0.3433307-1.672733 0.1381403-1.311423 1.4523186-3.667566 1.9902283-5.48781 1.2307611-1.89442-0.7968676-3.087903-2.7153912-2.971019-4.7757384 0.0385-0.6472026-0.435151-1.2108678-1.080373-1.2860133-0.821981-0.095085-1.644889-0.1450415-2.470842-0.1474065z" style="clip-rule:evenodd;fill-rule:evenodd;fill:url(#linearGradient920);stroke-width:.93449414"/>
 <path id="path928" d="m30.419922 14c-4.161044 0-4.940427 5.925781-2.59961 5.925781 2.340485 0 6.760818-5.925781 2.59961-5.925781zm-6.636719 0.738281c-2.341689 0.30393-1.520297 4.377055-0.273437 4.453125 1.246361 0.076077 2.61594-4.757071 0.273437-4.453125zm-3.925781 1.603516c-0.102685 0.01083-0.21249 0.039341-0.330078 0.087891-1.882132 0.776657-0.284857 3.981096 0.769531 3.765624 0.989283-0.201696 1.100885-4.017007-0.439453-3.853515zm-2.923828 2.507812c-0.163641-0.005507-0.338926 0.047684-0.527344 0.177735-1.50665 1.041031 0.508095 3.557984 1.394531 3.167968 0.775627-0.341413 0.278319-3.307193-0.867187-3.345703zm8.605468 1.923829c-3.230063-0.05465-7.492104 1.566165-8.21875 4.820312-0.786977 3.521547 3.242064 8.40625 7.44336 8.40625 2.066819 0 4.44852-1.866307 4.894531-4.230469 0.340629-1.802843-4.007844-1.081496-3.851562 0.111328v0.003907c0.187225 1.42987-1.049099 2.134666-2.259766 1.21289-3.854062-2.934324 6.379755-4.399369 5.705078-8.408203-0.210007-1.247839-1.774861-1.883195-3.712891-1.916015z" style="clip-rule:evenodd;fill-rule:evenodd;fill:#ffffff;stroke-width:.93449414"/>
</svg>
