<?xml version="1.0" encoding="UTF-8"?>
<svg style="enable-background:new 0 0 48 48" version="1.1" viewBox="0 0 48 48" xml:space="preserve" xmlns="http://www.w3.org/2000/svg"><defs><linearGradient id="linearGradient3364" x1="401.18011" x2="401.18011" y1="547.01532" y2="517.82788" gradientTransform="matrix(1.6428584,0,0,1.6428584,-635.08211,-850.66872)" gradientUnits="userSpaceOnUse"><stop stop-color="#197ff1" style="stop-color:#2585f1" offset="0"/><stop stop-color="#21c6fb" style="stop-color:#04b3ec" offset="1"/></linearGradient></defs>
<g style="display:none;opacity:.5">
	<rect x="-.018" y="-.005" width="48" height="48" style="display:inline"/>
</g>

<path d="m24 0-6 3.4277344v2.5683594a19 19 0 0 0-0.007812 0.0039062 19 19 0 0 0-0.019532 0.0058594 19 19 0 0 0-6.5625 3.7949218l-2.269531-1.3105468-5.8203125 3.3261716-0.3203125 0.554688v6.433594l2.3886719 1.378906a19 19 0 0 0-0.2167969 1.419922 19 19 0 0 0-0.0742188 0.482422 19 19 0 0 0-0.0429687 0.818359 19 19 0 0 0-0.0546875 1.095703 19 19 0 0 0 0.0976562 1.761719 19 19 0 0 0 0.0488282 0.40039 19 19 0 0 0 0.2597656 1.644532l-2.40625 1.388671v6.431641l0.3222656 0.556641 5.8164063 3.324218 2.2656251-1.308593a19 19 0 0 0 6.595703 3.8125v2.560547l6 3.427734 6-3.427734v-2.570313a19 19 0 0 0 6.591797-3.804687l2.269531 1.310546 5.816406-3.324218 0.322266-0.556641v-6.431641l-2.388672-1.378906a19 19 0 0 0 0.351563-3.072265 19 19 0 0 0 0.037109-0.744141 19 19 0 0 0-0.40625-3.806641l2.40625-1.388671v-6.433594l-0.320312-0.554688-5.820313-3.3242185-2.263672 1.3066406a19 19 0 0 0-3.005859-2.1796875 19 19 0 0 0-0.09375-0.0566406 19 19 0 0 0-1.589844-0.8164062 19 19 0 0 0-0.101562-0.0488282 19 19 0 0 0-1.804688-0.7089844v-2.5605468l-6-3.4277344zm0 14a10 10 0 0 1 10 10 10 10 0 0 1-10 10 10 10 0 0 1-10-10 10 10 0 0 1 10-10z" style="fill:url(#linearGradient3364);font-variant-east_asian:normal;paint-order:fill markers stroke;stroke-width:2.1357157"/></svg>
