<?xml version="1.0" encoding="UTF-8"?>
<svg version="1.1" viewBox="0 0 48 48" xmlns="http://www.w3.org/2000/svg" xmlns:xlink="http://www.w3.org/1999/xlink">
<defs>
<linearGradient id="linearGradient1032" x1="125.47365" x2="137.73256" y1="68.814667" y2="68.413544" gradientTransform="matrix(1.2851141,0,0,1.2871462,-133.09249,-64.350407)" gradientUnits="userSpaceOnUse">
<stop stop-color="#ffb40d" offset="0"/>
<stop stop-color="#ffcc5d" offset="1"/>
</linearGradient>
<linearGradient id="linearGradient1040" x1="13.917447" x2="29.359476" y1="42.026165" y2="25.872736" gradientUnits="userSpaceOnUse">
<stop stop-color="#e63a3a" offset="0"/>
<stop stop-color="#fd7070" offset="1"/>
</linearGradient>
<linearGradient id="linearGradient853" x1="127.87021" x2="157.57692" y1="971.64636" y2="916.49384" gradientTransform="matrix(.34001978 0 0 .34055744 -35.214053 -297.09271)" gradientUnits="userSpaceOnUse">
<stop stop-color="#1e9ff4" offset="0"/>
<stop stop-color="#58c1f9" offset="1"/>
</linearGradient>
</defs>
<g>
<path d="m8.7229796 4.6174973c-0.45793912 0.4782401-0.72297961 1.2227562-0.72297961 2.1869595v34.39227c0 0.96420335 0.2650405 1.7087194 0.72297961 2.1869211l0.11306669 0.10508871 19.319442-19.264509v-0.45487852l-19.319442-19.26449-0.11306669 0.11277344z" fill="url(#linearGradient853)"/>
<path d="m34.740138 17.428119-22.774524-12.909735c-1.3406968-0.75039489-2.5196549-0.65900421-3.2426346 0.099133045l19.43249 19.379185z" fill="#46e068"/>
<path d="m34.740138 30.565303-6.5846688-6.5686017-19.43249 19.386946c0.72297961 0.75817568 1.9019378 0.84952793 3.2426346 0.0912562l22.774524-12.909716" fill="url(#linearGradient1040)"/>
<path d="m34.588145 30.648874-6.432676-6.4247435v-0.45487851l6.4404612-6.4247435 0.14428375 0.0835715 7.6272427 4.3291747c2.1767241 1.2285774 2.1767241 3.2502575 0 4.4866156l-7.6272427 4.3214131-0.15189767 0.0835715z" fill="url(#linearGradient1032)"/>
</g>
</svg>
