<?xml version="1.0" encoding="UTF-8"?>
<svg id="图层_1" enable-background="new 0 0 48 48" version="1.1" viewBox="0 0 48 48" xmlns="http://www.w3.org/2000/svg" xmlns:xlink="http://www.w3.org/1999/xlink">
 <defs id="defs21">
  <linearGradient id="linearGradient892-3" x1="23.873842" x2="23.873842" y1="44.979816" y2="2.1219532" gradientTransform="matrix(1.0555556,0,0,1.0682853,-1.3539506,-2.060319)" gradientUnits="userSpaceOnUse">
   <stop id="stop886" style="stop-color:#f1f1f1" offset="0"/>
   <stop id="stop888" style="stop-color:#f9f9f9" offset="1"/>
  </linearGradient>
  <linearGradient id="linearGradient876-5" x1="9.7796459" x2="19.787357" y1="6.4365029" y2="16.503786" gradientTransform="matrix(1.0555556,0,0,1.0682853,-1.3539506,-2.060319)" gradientUnits="userSpaceOnUse">
   <stop id="stop870" style="stop-color:#009bc2" offset="0"/>
   <stop id="stop872" style="stop-color:#00c6f7" offset="1"/>
  </linearGradient>
  <linearGradient id="linearGradient884-6" x1="33.078217" x2="27.181664" y1="34.337257" y2="27.721615" gradientTransform="matrix(1.0555556,0,0,1.0682853,-1.3539506,-2.060319)" gradientUnits="userSpaceOnUse">
   <stop id="stop878" style="stop-color:#ff0000" offset="0"/>
   <stop id="stop880" style="stop-color:#ff4444" offset="1"/>
  </linearGradient>
 </defs>
 <path id="path863" d="m6.8781461 1.9999997a29.990743 16.187238 0 0 0-0.69477 0.2670713c-0.011424 0.00418-0.021739 0.010053-0.032986 0.014606a29.990743 16.187238 0 0 0-0.2102865 0.081373h0.074219c-0.2729018 0.1617943-0.4789324 0.4297861-0.5215933 0.7657434-0.3219444 2.5467922-0.49273 5.1992609-0.49273 7.9265936 0 24.524626 15.213723 34.944613 19.000001 34.944613s19.000001-10.475538 19.000001-34.944613c0-2.7273328-0.170786-5.3787331-0.492731-7.9265936-0.04266-0.336632-0.248691-0.6041714-0.521592-0.7657436h0.07628c0.0083 0 0.01653 4e-3 0.02474 0.00418a29.990743 16.187238 0 0 0-0.243272-0.089719c-0.0082-0.00327-0.0164-0.00529-0.02474-0.00834a29.990743 16.187238 0 0 0-0.746311-0.2691711z" style="fill:url(#linearGradient892-3)"/>
 <path id="path6" d="m30.294773 4.8322578h-21.223001c-0.5003334 0-0.9215001 0.3503975-0.9626667 0.8065554-0.1572778 1.786173-0.2375001 3.5990531-0.2375001 5.4183428 0 4.953639 0.6491667 9.275921 1.6920557 13.010647 0.1847222 0.662337 1.080889 0.889882 1.608667 0.407017l19.800112-18.144826c0.602722-0.5533717 0.175222-1.4977359-0.677667-1.4977359z" style="fill:url(#linearGradient876-5)"/>
 <path id="path8" d="m16.670717 37.790996c2.905944 3.398215 5.742222 5.165159 7.101778 5.523035 0.149889 0.03953 0.304 0.03953 0.452833 0 3.006223-0.793736 13.24089-8.492868 15.469168-25.485014 0.108722-0.825785-0.990112-1.317196-1.631889-0.728571l-21.310612 19.529324c-0.339889 0.311939-0.377889 0.815101-0.08128 1.161226z" style="fill:url(#linearGradient884-6)"/>
</svg>
