<?xml version="1.0" encoding="UTF-8"?>
<svg id="SVGRoot" version="1.1" viewBox="0 0 48 48" xmlns="http://www.w3.org/2000/svg" xmlns:xlink="http://www.w3.org/1999/xlink">
 <defs id="defs1738">
  <linearGradient id="linearGradient893-3-1" x1="24.588072" x2="24.010084" y1="41.23737" y2="12.093443" gradientTransform="matrix(1.0356723 0 0 1.015264 -.85613592 -.36634898)" gradientUnits="userSpaceOnUse">
   <stop id="stop887" style="stop-color:#0a84ff" offset="0"/>
   <stop id="stop889" style="stop-color:#3bc7ff" offset="1"/>
  </linearGradient>
  <linearGradient id="linearGradient866" x1="-21.585217" x2="-21.585217" y1="35.581108" y2="1.5770005" gradientTransform="matrix(1,0,0,1.1764706,43.199183,2.0919472)" gradientUnits="userSpaceOnUse">
   <stop id="stop860" style="stop-color:#16181a" offset="0"/>
   <stop id="stop862" style="stop-color:#4b525a" offset="1"/>
  </linearGradient>
  <linearGradient id="linearGradient953" x1="24.246407" x2="24.246407" y1="41.396305" y2="6.6036949" gradientUnits="userSpaceOnUse">
   <stop id="stop947" style="stop-color:#d9efff" offset="0"/>
   <stop id="stop949" style="stop-color:#ddf4ff" offset="1"/>
  </linearGradient>
 </defs>
 <path id="rect858" d="m2.0000007 3.9999993h44v40h-44z" style="fill:url(#linearGradient866);paint-order:stroke fill markers"/>
 <g id="g918" style="fill:url(#linearGradient953)">
  <path id="path898" d="m43.275239 6.407393c0.348475-0.0019 0.637617 0.353639 0.639205 0.795158l0.01015 2.500484c0.0016 0.438124-0.285945 0.801117-0.635158 0.803089l-2.059208 0.0119c-0.351187 0.0019-0.639652-0.357034-0.641227-0.795156l-0.0081-2.500485c-0.0016-0.441519 0.283971-0.801107 0.635158-0.80309z" style="fill:url(#linearGradient953);stroke-width:.09122407"/>
  <path id="path896" d="m38.044285 6.437143c0.351186-2e-3 0.637616 0.353639 0.639203 0.795158l0.01015 2.500484c0.0016 0.438124-0.284007 0.801107-0.635193 0.803089l-2.057185 0.0119c-0.25582 0.0014-0.473631-0.189355-0.576498-0.460041l-0.01214-3.170718c0.100284-0.273217 0.317277-0.466522 0.574475-0.467973z" style="fill:url(#linearGradient953);stroke-width:.09122407"/>
  <path id="path894" d="m32.813331 6.466893c0.08712-4.92e-4 0.17059 0.02152 0.246781 0.06147 5.85e-4 3.03e-4 0.0014-3.05e-4 0.0021 0 0.227885 0.120225 0.389212 0.403182 0.3904 0.733687l0.0081 2.500485c7.89e-4 0.219051-0.06902 0.419195-0.184075 0.565135-0.115054 0.145941-0.274454 0.236967-0.44906 0.237953l-2.055163 0.0119c-0.08829 4.82e-4 -0.172084-0.02111-0.248804-0.06147-0.07672-0.04037-0.146089-0.100196-0.204303-0.172516-0.116462-0.14463-0.189389-0.344089-0.190177-0.563151l-0.01015-2.500484c-7.77e-4 -0.22076 0.07072-0.420028 0.186098-0.565137 0.05769-0.07255 0.127877-0.131711 0.204302-0.172516 0.07521-0.03964 0.158299-0.06297 0.244758-0.06345z" style="fill:url(#linearGradient953);stroke-width:.09122407"/>
  <path id="path892" d="m27.582376 6.496643c0.08779-4.95e-4 0.170463 0.02152 0.246782 0.06147 5.88e-4 3.05e-4 0.0014-3.07e-4 0.0021 0 0.07579 0.03992 0.144687 0.09904 0.20228 0.170532 0.11585 0.143805 0.187326 0.342396 0.18812 0.563155l0.0081 2.500483c7.77e-4 0.219063-0.06926 0.419195-0.184074 0.565137-0.114805 0.145943-0.273468 0.236962-0.449061 0.237953l-2.05314 0.0119c-0.08813 5.07e-4 -0.172115-0.02111-0.248803-0.06147-0.230067-0.121082-0.393263-0.407082-0.394445-0.735674l-0.01015-2.500484c-0.0016-0.439825 0.282496-0.796403 0.633136-0.801106z" style="fill:url(#linearGradient953);stroke-width:.09122407"/>
  <path id="path890" d="m22.349399 6.526393c0.08813-4.98e-4 0.172117 0.02153 0.248804 0.06147 0.0772 0.03997 0.145853 0.0961 0.204303 0.168549 0.116014 0.143804 0.189349 0.344378 0.190143 0.565137l0.0081 2.500483c3.89e-4 0.109531-0.01659 0.213598-0.04854 0.309339-0.09585 0.287222-0.322236 0.492259-0.586611 0.493751l-2.055155 0.0119c-0.176077 1e-3 -0.336761-0.09006-0.453107-0.233986-0.1161-0.144635-0.189354-0.344092-0.190143-0.563155l-0.0081-2.500483c-7.76e-4 -0.220759 0.06902-0.42003 0.184075-0.565137 0.115381-0.14511 0.274505-0.234973 0.451084-0.23597z" style="fill:url(#linearGradient953);stroke-width:.09122407"/>
  <path id="path888" d="m17.120468 6.556143c6.75e-4 -4e-6 0.0013 1e-6 0.0021 0 0.174895-9.86e-4 0.332873 0.08622 0.449062 0.23002 0.05809 0.0719 0.106784 0.158436 0.139572 0.253816 0.03279 0.09538 0.05017 0.200942 0.05057 0.311322l0.01015 2.4985c0.0016 0.438124-0.285287 0.803097-0.635159 0.805073l-2.057184 0.0119c-0.175745 1e-3 -0.334657-0.09007-0.451084-0.233987-0.115936-0.144645-0.189356-0.344093-0.190144-0.563155l-0.0081-2.500483c-8.75e-4 -0.220761 0.06909-0.420032 0.183976-0.565139 0.115467-0.145112 0.274833-0.234975 0.451084-0.23597z" style="fill:url(#linearGradient953);stroke-width:.09122407"/>
  <path id="path886" d="m11.887491 6.585893c0.255935-0.0014 0.473217 0.188501 0.576497 0.460041l0.01214 3.172699c-0.101879 0.271074-0.319588 0.464552-0.574475 0.46599l-2.0551619 0.0119c-0.353157 2e-3 -0.63965-0.359017-0.641227-0.79714l-0.01015-2.500486c-0.0016-0.441519 0.284025-0.801096 0.637181-0.803089z" style="fill:url(#linearGradient953);stroke-width:.09122407"/>
  <path id="path884" d="m6.6585601 6.613653c0.353157-2e-3 0.639637 0.353639 0.641226 0.795158l0.0081 2.500484c0.0016 0.438123-0.281345 0.803074-0.635158 0.805071l-2.055162 0.0099c-0.353157 0.0021-0.639651-0.356982-0.641228-0.795106l-0.0081-2.500519c-0.0015-0.441519 0.282002-0.801096 0.63516-0.80309z" style="fill:url(#linearGradient953);stroke-width:.09122407"/>
  <path id="path882" d="m43.386493 37.275817c0.348477-2e-3 0.637623 0.354125 0.639204 0.793175l0.01015 2.500483c0.0016 0.440697-0.285942 0.803101-0.635158 0.805073l-2.059244 0.0119c-0.351187 2e-3 -0.639642-0.356443-0.641227-0.797141l-0.0081-2.500484c-0.0016-0.439053 0.283971-0.801109 0.635158-0.80309z" style="fill:url(#linearGradient953);stroke-width:.09122407"/>
  <path id="path880" d="m38.155539 37.303577c0.351186-2e-3 0.637623 0.356109 0.639203 0.795157l0.01015 2.500484c0.0016 0.440697-0.283972 0.80309-0.635158 0.805073l-2.057186 0.01c-0.256412 0.0015-0.473938-0.190072-0.576497-0.462024l-0.01214-3.168734c0.100305-0.27266 0.317328-0.46652 0.574475-0.467974z" style="fill:url(#linearGradient953);stroke-width:.09122407"/>
  <path id="path878" d="m32.924585 37.333327c0.08712-4.83e-4 0.17059 0.02141 0.246781 0.06147 5.85e-4 3.05e-4 0.0015-3.06e-4 0.0021 0 0.07567 0.04004 0.142496 0.099 0.200257 0.170533 0.11619 0.143901 0.189353 0.343629 0.190143 0.563154l0.0081 2.500484c7.76e-4 0.220348-0.06903 0.421498-0.184075 0.567121-0.115052 0.145623-0.274453 0.234984-0.449061 0.235969l-2.055162 0.0119c-0.08829 4.82e-4 -0.172085-0.0213-0.248804-0.06147-0.230157-0.120508-0.393255-0.403164-0.394445-0.733687l-0.01015-2.502467c-7.76e-4 -0.219527 0.07072-0.417942 0.186097-0.563155 0.115059-0.144487 0.271946-0.236965 0.447039-0.237952z" style="fill:url(#linearGradient953);stroke-width:.09122407"/>
  <path id="path876" d="m27.691607 37.363077c0.08779-5.08e-4 0.172486 0.02141 0.248805 0.06147 5.88e-4 3.07e-4 0.0015-3.08e-4 0.0021 0 0.228258 0.120564 0.389216 0.405031 0.3904 0.733687l0.0081 2.500484c7.77e-4 0.220348-0.06927 0.421501-0.184074 0.567121-0.114805 0.14562-0.273468 0.234978-0.449061 0.235969l-2.05314 0.0119c-0.08863 5.09e-4 -0.175806-0.02088-0.252849-0.06147-0.229367-0.120869-0.389213-0.403799-0.3904-0.733688l-0.01015-2.502466c-0.0011-0.329288 0.159193-0.614889 0.388377-0.737654 0.07534-0.03976 0.157652-0.06297 0.244758-0.06345z" style="fill:url(#linearGradient953);stroke-width:.09122407"/>
  <path id="path874" d="m22.460653 37.392827c0.08813-5.07e-4 0.172117 0.02141 0.248804 0.06147 0.07721 0.04009 0.145852 0.09802 0.204303 0.170533 0.116015 0.143913 0.189353 0.34363 0.190143 0.563154l0.0081 2.500485c3.89e-4 0.110174-0.01659 0.215461-0.04854 0.311321s-0.07805 0.182988-0.135528 0.2558c-0.05773 0.07282-0.127909 0.131491-0.204302 0.172515-0.07575 0.04044-0.159327 0.06296-0.246781 0.06345l-2.057185 0.0119c-0.176072 9.76e-4 -0.33474-0.08842-0.451084-0.232003-0.05805-0.07217-0.106924-0.158317-0.139574-0.253816-0.03266-0.09549-0.05018-0.201148-0.05057-0.311321l-0.0081-2.500484c-7.77e-4 -0.219526 0.06902-0.419928 0.184074-0.565139 0.115382-0.145211 0.274505-0.234972 0.451084-0.235969z" style="fill:url(#linearGradient953);stroke-width:.09122407"/>
  <path id="path872" d="m17.231722 37.422577c0.174894-9.64e-4 0.334894 0.08811 0.451084 0.232005 0.05809 0.07195 0.106784 0.156649 0.139572 0.251833 0.03279 0.09518 0.05018 0.199575 0.05057 0.309337l0.01015 2.502468c0.0011 0.330522-0.160305 0.61657-0.388377 0.739635-0.07627 0.04102-0.160351 0.06296-0.248804 0.06345l-2.055162 0.0119c-0.175782 9.75e-4 -0.334696-0.08842-0.451121-0.232013-0.115935-0.144324-0.18935-0.34479-0.190144-0.565138l-0.0081-2.500484c-7.78e-4 -0.219525 0.06918-0.419928 0.184074-0.565137 0.115464-0.145214 0.274835-0.234976 0.451084-0.23597z" style="fill:url(#linearGradient953);stroke-width:.09122407"/>
  <path id="path870" d="m11.998744 37.452317c0.255343-0.0015 0.472909 0.18799 0.576498 0.458058l0.01214 3.176666c-0.1019 0.271257-0.319614 0.462569-0.574475 0.464007l-2.0551619 0.0119c-0.353157 2e-3 -0.639641-0.356447-0.641227-0.797142l-0.01015-2.500486c-0.0016-0.439068 0.284023-0.799131 0.63718-0.801124z" style="fill:url(#linearGradient953);stroke-width:.09122407"/>
  <path id="path12" d="m6.7698131 37.482067c0.353158-2e-3 0.639648 0.354125 0.641227 0.793175l0.0081 2.502467c0.0016 0.440696-0.281345 0.801092-0.635158 0.803089l-2.055162 0.0119c-0.353157 2e-3 -0.639642-0.356448-0.641228-0.797143l-0.0081-2.500508c-0.0016-0.43905 0.282002-0.799113 0.635159-0.801106z" style="fill:url(#linearGradient953);stroke-width:.09122407"/>
 </g>
 <path id="path875" d="m3.8763781 11.625442h40.247241v24.74909h-40.247241z" style="fill:url(#linearGradient893-3-1);stroke-width:2.3911841"/>
 <g id="g32" transform="matrix(.02595006 -.01236813 .01128179 .02844883 15.765307 20.645909)" style="fill:#ffffff;opacity:.82999998;stroke-width:.99245429">
  <path id="path20" d="m65.459 55.53-61.277 8.903 44.331 43.222-10.458 61.028 54.806-28.82 54.806 28.82-10.46-61.028 44.331-43.222-61.275-8.903-27.402-55.53z" style="stroke-width:.99245429"/>
  <path id="path22" d="m326.207 248.92-35.937 72.82-80.344 11.676 58.133 56.669-13.724 80.028 71.872-37.792 71.874 37.792-13.727-80.028 58.134-56.669-80.345-11.676z" style="stroke-width:.99245429"/>
  <path id="path24" d="m388.514 38.901-33.748 23.645 38.108 15.658 23.66 33.741 15.649-38.116 33.748-23.644-38.108-15.658-23.659-33.741z" style="stroke-width:.99245429"/>
  <path id="path26" d="m127.18 272.417 23.797-21.132-30.637-8.65-21.15-23.821-8.641 30.652-23.814 21.135 30.639 8.648 21.148 23.822z" style="stroke-width:.99245429"/>
  <path id="path28" d="m93.353 401.482 43.576-14.354-43.576-14.365-14.371-43.576-14.356 43.576-43.577 14.365 43.577 14.354 14.356 43.577z" style="stroke-width:.99245429"/>
  <path id="path30" d="m282.801 148.458-42.652-16.936 24.228 38.971-16.927 42.645 38.955-24.23 42.652 16.936-24.23-38.971 16.928-42.644z" style="stroke-width:.99245429"/>
 </g>
</svg>
