<?xml version="1.0" encoding="UTF-8"?>
<svg id="svg2" version="1.1" viewBox="0 0 48 48" xmlns="http://www.w3.org/2000/svg" xmlns:xlink="http://www.w3.org/1999/xlink">
 <defs id="defs4">
  <linearGradient id="linearGradient3044-3" x1="25.074917" x2="25.074917" y1="44.581306" y2="3.2435782" gradientTransform="matrix(.78499277 0 0 1.0232587 5.1601734 -.71820914)" gradientUnits="userSpaceOnUse">
   <stop id="stop956" style="stop-color:#1659b9" offset="0"/>
   <stop id="stop958" style="stop-color:#4696fb" offset="1"/>
  </linearGradient>
 </defs>
 <path id="path1481-2" d="M 8.3730469 2 C 7.6098659 2 7 2.8153776 7 3.8339844 L 7 24 L 7 24.849609 L 7 44.208984 C 7 45.203824 7.6098659 46 8.3730469 46 L 39.626953 46 C 40.390136 46 41 45.203824 41 44.208984 L 41 24.849609 L 41 24 L 41 3.8339844 C 41 2.8153776 40.390136 2 39.626953 2 L 8.3730469 2 z " style="fill:url(#linearGradient3044-3)"/>
 <path id="path858-5" d="m29.498419 18.263159c4e-3 -0.839436 0.0066-2.120154 0.0066-2.846086v-1.320287h-0.03204c-0.01764 0-1.406083-0.01369-3.085441-0.0356-1.679354-0.0178-3.114418-0.0356-3.189028-0.0356h-0.135643v2.244063c0 1.234577 0.0011 2.244748 0.0027 2.244748 0.0014 0 1.440859 0.286019 3.198894 0.63543 1.758033 0.349275 3.20346 0.635567 3.212057 0.635841 0.01393-4.11e-4 0.01601-0.14253 0.02195-1.526073zm-6.985123-2.047588c0.0036-1.205688 0.0052-2.192583 4e-3 -2.193678-0.0021 0-3.824633-0.04518-3.945859-0.04381h-0.07644v3.629933l0.02219 0.01369c0.01736 0.01369 3.960809 0.789187 3.984048 0.793158 0.0034 0 0.0088-0.991413 0.01191-2.196964zm-1.926737-2.701091c0.908859-0.01369 1.715735-0.0178 1.793056-0.01917h0.140584v-4.3924204l-0.02712 0.013692c-0.0149 0-0.920549 0.1819622-2.012493 0.3982904l-1.985367 0.393224-7.9e-5 1.817705-1.59e-4 1.817432h0.21951c0.120829 0 0.963213-0.01369 1.872076-0.02465zm5.819958-0.06435c1.70068-0.0178 3.093574-0.03697 3.095324-0.03834 0.0018 0 0.0018-1.284141 7.53e-4 -2.849509l-0.0027-2.845949-2.925122 0.5803896c-1.608818 0.3190157-3.056094 0.6059929-3.216159 0.6376207l-0.291034 0.058874-0.0027 2.2463907-0.0027 2.246118h0.125799c0.07001-2.74e-4 1.518091-0.01506 3.218769-0.0356z" style="fill:#ffffff;stroke-width:.94788766"/>
 <path id="path876" d="m19.4989 28.001877v12.494245l10.832708-6.246988z" style="color:#000000;fill:#ffffff"/>
</svg>
