<?xml version="1.0" encoding="UTF-8"?>
<svg id="svg67" version="1.1" viewBox="0 0 48 48" xmlns="http://www.w3.org/2000/svg" xmlns:xlink="http://www.w3.org/1999/xlink">
 <defs id="defs71">
  <linearGradient id="linearGradient1049">
   <stop id="stop1045" style="stop-color:#ff766a" offset="0"/>
   <stop id="stop1047" style="stop-color:#ff8a80" offset="1"/>
  </linearGradient>
  <linearGradient id="linearGradient1041">
   <stop id="stop1037" style="stop-color:#d22f7a" offset="0"/>
   <stop id="stop1039" style="stop-color:#da5693" offset="1"/>
  </linearGradient>
  <linearGradient id="linearGradient1043" x1="25.350834" x2="23.998541" y1="41.023708" y2="32.394608" gradientTransform="matrix(.93064999 0 0 .93065221 1.6196599 1.6323599)" gradientUnits="userSpaceOnUse" xlink:href="#linearGradient1041"/>
  <linearGradient id="linearGradient1051" x1="18.96129" x2="24.183382" y1="10.758353" y2="30.247467" gradientTransform="matrix(.93064999 0 0 .93065221 1.6196599 1.6323599)" gradientUnits="userSpaceOnUse" xlink:href="#linearGradient1049"/>
  <linearGradient id="linearGradient1077" x1="25.350834" x2="23.998541" y1="41.023708" y2="32.394608" gradientTransform="matrix(.93064999 0 0 .93065221 14.77495 9.3930516)" gradientUnits="userSpaceOnUse" xlink:href="#linearGradient1041"/>
  <linearGradient id="linearGradient1088" x1="15.848533" x2="39.1595" y1="54.380257" y2="54.380257" gradientTransform="matrix(.93065009 0 0 .93065213 3.0680338 -9.9150942)" gradientUnits="userSpaceOnUse" xlink:href="#linearGradient1049"/>
  <linearGradient id="linearGradient1114" x1="48.834454" x2="48.834454" y1="10.052524" y2="-21.167816" gradientTransform="matrix(.91046718 0 0 .93065221 -17.896257 22.110127)" gradientUnits="userSpaceOnUse">
   <stop id="stop2" stop-color="#86d0fb" offset="0"/>
   <stop id="stop4" stop-color="#2794f5" offset="1"/>
  </linearGradient>
 </defs>
 <linearGradient id="f" x1="610.60565" x2="609.27734" y1="499.57687" y2="459.90085" gradientTransform="matrix(.53874705 0 0 .53874825 -300.50737 -217.72406)" gradientUnits="userSpaceOnUse">
  <stop id="stop27" stop-color="#c2c9cc" offset="0"/>
  <stop id="stop29" stop-color="#edf3f5" offset="1"/>
 </linearGradient>
 <path id="rect1104" d="m8.0230511 2.0001359h35.41139c0.657321 0 1.1865 0.4708725 1.1865 1.0557679v27.669334c0 0.584896-0.529179 1.055768-1.1865 1.055768h-35.41139c-0.6573209 0-1.1864999-0.470872-1.1864999-1.055768v-27.669334c0-0.5848954 0.529179-1.0557679 1.1864999-1.0557679z" style="fill:url(#linearGradient1114)"/>
 <path id="circle951" transform="rotate(.36369057)" d="m19.114399 10.02219a3.7137403 3.7137494 0 0 1-3.71374 3.71375 3.7137403 3.7137494 0 0 1-3.713741-3.71375 3.7137403 3.7137494 0 0 1 3.713741-3.7137493 3.7137403 3.7137494 0 0 1 3.71374 3.7137493z" style="fill:#ffff08;opacity:.81099997;stroke-width:.52544439"/>
 <path id="path883" d="m43.607306 35.084353-4.508851-25.384235c-0.156101-0.8789319-1.108612-1.4390623-2.135635-1.2559028l-33.369005 5.9510089c-1.0270197 0.183181-1.7281488 1.038196-1.5720301 1.917127l4.5088503 25.384236c0.1561023 0.878932 1.1086127 1.439062 2.1356366 1.255904l33.369002-5.951012c1.027025-0.183159 1.728151-1.038197 1.572032-1.917126z" style="fill:url(#linearGradient1051);stroke-width:.99999994"/>
 <path id="path887" d="m29.526432 15.908114c2.628567-0.467865 5.138742 1.283556 5.606627 3.911995 0.467934 2.628432-1.283699 5.138544-3.912259 5.606454-2.628567 0.467866-5.138739-1.283556-5.606624-3.911998-0.467933-2.62843 1.283696-5.138541 3.912256-5.606451z" style="enable-background:new;fill-rule:evenodd;fill:#fdc9c9;stroke-width:.99999994"/>
 <path id="path891" d="m5.4034232 35.35053 1.1272103 6.346059c0.1561023 0.878933 1.1086127 1.439063 2.1356362 1.255904l33.369003-5.951012c1.027024-0.183158 1.728149-1.038197 1.572031-1.917128l-1.127209-6.346058z" style="fill:url(#linearGradient1043);stroke-width:.99999994"/>
 <path id="path893" d="m5.4235724 35.463965-0.1610137-0.9067s2.4053161-1.987741 3.1336412-2.253565c0.7282869-0.265882 1.6350851-0.316888 2.5735291-0.332234 0.938424-0.01583 2.335744-0.06011 2.763034-0.123502 0.427357-0.06312 1.188696-0.244728 2.074306-0.450379 0.885763-0.204692 2.358282-0.51037 2.820693-0.588152 0.461604-0.08232 1.623614-0.233407 2.863452-0.388334 1.239777-0.154728 2.946147-0.348078 3.334219-0.386237 0.388118-0.03836 0.847914-0.0633 1.369318-0.09408 0.521261-0.03126 1.421321-0.0985 1.738568-0.129445 0.317073-0.03134 1.057276-0.07529 1.910317-0.159053 0.853002-0.08387 2.203306-0.301277 2.587699-0.395118 0.384433-0.09384 1.155579-0.485547 2.023434-0.874616 0.867829-0.388965 1.832299-0.775435 2.603076-0.859863 0.770867-0.08421 5.281374 0.42229 5.281374 0.42229l0.160999 0.90662-32.57371 5.80918z" style="stroke-width:.99999994"/>
 <path id="circle1055" transform="rotate(-9.7994218)" d="m38.973078 40.694012a10.30843 10.308453 0 0 1-10.30843 10.308452 10.30843 10.308453 0 0 1-10.30843-10.308452 10.30843 10.308453 0 0 1 10.30843-10.308453 10.30843 10.308453 0 0 1 10.30843 10.308453z" style="fill:url(#linearGradient1088)"/>
 <path id="path1069" d="m42.776923 34.2042c-0.433564-0.01274-0.773227-0.01044-0.98518 0.01272-1.695422 0.18571-3.816783 1.03481-5.72568 1.890387-1.908954 0.855804-3.605879 1.718495-4.451487 1.924924-0.845521 0.206413-3.814859 0.684367-5.691142 0.868851-0.159857 0.0157-0.202252 0.01462-0.358083 0.02908a10.30843 10.308453 0 0 0 1.735881 2.928283l17.55693-3.130045a10.30843 10.308453 0 0 0 0.583474-4.351526c-1.004073-0.07876-1.983068-0.152648-2.664713-0.172674z" style="stroke-width:.99999982"/>
 <path id="path1063" d="m35.471685 24.917673a10.30843 10.308453 0 0 0-2.053975 0.145414 10.30843 10.308453 0 0 0-6.476378 3.962543c1.591505 2.182623 4.332266 3.397181 7.170731 2.891929 3.056347-0.544088 5.320412-2.919291 5.878363-5.794764a10.30843 10.308453 0 0 0-4.518741-1.205122z" style="enable-background:new;fill-rule:evenodd;fill:#fdc9c9;stroke-width:.99999994"/>
 <path id="path1075" d="m44.970858 38.399405-17.891383 3.191848a10.30843 10.308453 0 0 0 9.848169 3.788044 10.30843 10.308453 0 0 0 8.043214-6.979892z" style="fill:url(#linearGradient1077);stroke-width:.99999994"/>
 <path id="circle63" transform="rotate(-9.7994218)" d="m38.931616 40.574894a10.30843 10.308453 0 0 1-10.30843 10.308453 10.30843 10.308453 0 0 1-10.30843-10.308453 10.30843 10.308453 0 0 1 10.30843-10.308453 10.30843 10.308453 0 0 1 10.30843 10.308453z" style="fill:none;stroke-linecap:round;stroke-linejoin:round;stroke-width:1.1577865;stroke:url(#f)"/>
</svg>
