<?xml version="1.0" encoding="UTF-8"?>
<svg id="svg2" width="48" height="48" version="1.1" viewBox="0 0 48 48.000002" xmlns="http://www.w3.org/2000/svg" xmlns:xlink="http://www.w3.org/1999/xlink">
 <defs id="defs4">
  <linearGradient id="linearGradient846" x1="29" x2="29" y1="1115.5197" y2="1065.5197" gradientTransform="matrix(.81481481 0 0 .81481481 -2.0740741 209.94808)" gradientUnits="userSpaceOnUse">
   <stop id="stop848" style="stop-color:#7b483f" offset="0"/>
   <stop id="stop850" style="stop-color:#a36054" offset="1"/>
  </linearGradient>
 </defs>
 <g id="layer1" transform="translate(0,-1074.5196)">
  <path id="rect4148" d="m46 1077.3344c0-0.4514-0.363377-0.8148-0.814815-0.8148h-6.518518v44h6.518518c0.451438 0 0.814815-0.3634 0.814815-0.8148z" style="fill:#552a26"/>
  <path id="rect4295" d="m43.637014 1078.964v39.1111h-13.851852v-39.1111z" style="fill:#e6ebc5"/>
  <path id="rect4172" d="m41.111111 1077.3344c0-0.4514-0.363407-0.8148-0.814815-0.8148h-37.481481c-0.4514384 0-0.8148148 0.3634-0.8148148 0.8148v42.3704c0 0.4514 0.3633764 0.8148 0.8148148 0.8148h37.481481c0.451408 0 0.814815-0.3634 0.814815-0.8148z" style="fill:url(#linearGradient846)"/>
  <path id="rect4174" d="m46 1095.2603h-10.592593c-0.902845 0-1.629629 0.7269-1.629629 1.6297v3.2592c0 0.9028 0.726784 1.6297 1.629629 1.6297h10.592593v-4.8889z" style="fill:#9c6a60"/>
  <path id="path4176" transform="rotate(90)" d="m1100.1493-37.036995a1.6296296 1.6296296 0 0 1-1.6296 1.62963 1.6296296 1.6296296 0 0 1-1.6297-1.62963 1.6296296 1.6296296 0 0 1 1.6297-1.62963 1.6296296 1.6296296 0 0 1 1.6296 1.62963z" style="fill:#bdc3c7"/>
  <path id="rect4231" d="m15.703571 1088.8322c-0.670853 0-1.210926 0.54-1.210926 1.2109s0.540073 1.2109 1.210926 1.2109 1.210925-0.54 1.210925-1.2109-0.540072-1.2109-1.210925-1.2109zm8.476478 0-2.421851 2.4218 3.632777 3.6328-3.632777 3.6328 2.421851 2.4218 3.632777-3.6327 2.421851-2.4219zm-11.503792 7.2655c-1.006279 0-1.816388 0.8101-1.816388 1.8164s0.810109 1.8164 1.816388 1.8164 1.816388-0.8101 1.816388-1.8164-0.810109-1.8164-1.816388-1.8164zm5.449165 7.2656c-1.341706 0-2.421851 1.0801-2.421851 2.4218s1.080145 2.4219 2.421851 2.4219c1.341705 0 2.421851-1.0802 2.421851-2.4219s-1.080146-2.4218-2.421851-2.4218z" style="fill:#fefdfd"/>
 </g>
</svg>
