<?xml version="1.0" encoding="UTF-8"?>
<svg id="svg30" version="1.1" viewBox="0 0 48 48" xmlns="http://www.w3.org/2000/svg" xmlns:xlink="http://www.w3.org/1999/xlink">
 <defs id="defs34">
  <linearGradient id="linearGradient842" x1="25.220337" x2="25.220337" y1="42.706993" y2="10.414769" gradientUnits="userSpaceOnUse">
   <stop id="stop836" style="stop-color:#666666" offset="0"/>
   <stop id="stop838" style="stop-color:#898989" offset="1"/>
  </linearGradient>
 </defs>
 <path id="rect4148-2" d="m2.7586205 3.5172413c-0.4203047 0-0.7586207 0.3383449-0.7586207 0.7586207v39.448276c0 0.420276 0.338316 0.758621 0.7586207 0.758621h42.482758c0.420305 0 0.758621-0.338345 0.758621-0.758621v-39.448276c0-0.4202758-0.338316-0.7586207-0.758621-0.7586207h-41.724138z" style="fill:#34495e"/>
 <g id="g873" transform="matrix(.98892453 0 0 .98892453 62.738697 6.745991)" style="fill:#ff5555">
  <circle id="path4155-0" cx="-20.3729" cy="-.7965467" r="1" style="fill:#ff5555"/>
  <circle id="circle858" cx="-23.75263" cy="-.7965467" r="1" style="fill:#ff5555"/>
  <circle id="circle860" cx="-27.204269" cy="-.86845589" r="1" style="fill:#ff5555"/>
  <circle id="circle856" cx="-27.13236" cy="-.7965467" r="1" style="fill:#ff5555"/>
 </g>
 <rect id="rect12-6" x="3.5043848" y="8.6521521" width="40.99123" height="34.34697" rx="1.0812595" ry="1.0812595" style="fill:url(#linearGradient842);stroke-width:.65762758"/>
 <rect id="rect852" x="-64.101685" y="-6.5025291" width="43.999996" height="33.20134" rx="1.5624161" ry="1.5624161" style="fill:url(#a-36);stroke-width:.65762758"/>
 <g id="g860" transform="matrix(.65762761 0 0 .65762761 -287.20161 -332.72247)" style="fill:#ffffff">
  <circle id="circle854" cx="358.05319" cy="501.34467" r="2.7088671" style="fill-opacity:.85204103"/>
  <circle id="circle856-5" cx="351.39838" cy="501.40213" r="2.7088671" style="fill-opacity:.85204103"/>
  <circle id="circle858-3" cx="344.85678" cy="501.46628" r="2.7088671" style="fill-opacity:.85204103"/>
 </g>
 <path id="path862" d="m-63.998945 22.549726c-0.03657 0-0.06724 0.01835-0.102755 0.02243v2.565044c0 0.865576 0.696244 1.561819 1.56182 1.561819h40.876356c0.865576 0 1.56182-0.696243 1.56182-1.561819v-2.587469z" style="fill:url(#b-7);stroke-width:.65762758"/>
 <circle id="circle864" cx="-131.40062" cy="-16.306013" r="0" style="fill:url(#c);stroke-width:.65762758"/>
 <path id="path866" d="m24.040245 14.187189c-3.693624 0-6.970265 1.750327-9.087138 4.454842l1.450683 0.924131c1.810446-2.22354 4.576049-3.640277 7.658758-3.640277 5.450733 0 9.875519 4.435447 9.875519 9.901691 0 5.462367-4.424786 9.897822-9.875519 9.897822-3.072039 0-5.827949-1.408993-7.640337-3.620893l-1.450681 0.924131c2.124626 2.696762 5.390612 4.435448 9.087139 4.435448 6.398136 0 11.587048-5.212186 11.587048-11.636508 0-6.42044-5.192791-11.632625-11.587048-11.632625m-11.704387 4.840789v13.575914l11.773237-6.855837m-0.08728-7.022633c-2.082937 0-3.954473 0.905708-5.253881 2.340878l1.50402 0.939653c0.965827-0.958076 2.291419-1.545717 3.753743-1.545717 2.958581 0 5.359579 2.424271 5.359579 5.409037 0 2.988638-2.398097 5.412908-5.359579 5.412908-1.488507 0-2.833493-0.609944-3.803202-1.598076l-1.450681 0.924131c1.299409 1.43517 3.167064 2.340878 5.253883 2.340878 3.917618 0 7.094384-3.189376 7.094384-7.113786 0-3.928291-3.177727-7.113787-7.094384-7.113787" style="fill-opacity:.85483901;fill-rule:evenodd;fill:#ffffff;stroke-width:.65762752"/>
</svg>
