<?xml version="1.0" encoding="UTF-8"?>
<svg id="SVGRoot" version="1.1" viewBox="0 0 48 48" xmlns="http://www.w3.org/2000/svg" xmlns:xlink="http://www.w3.org/1999/xlink">
 <defs id="defs1370">
  <linearGradient id="linearGradient998-2" x1="-17.771849" x2="-17.771849" y1="57.059589" y2="42.618912" gradientTransform="matrix(1.3121427,0,0,1.3121427,43.904727,-30.160224)" gradientUnits="userSpaceOnUse">
   <stop id="stop818-7" style="stop-color:#0652ff" offset="0"/>
   <stop id="stop820-5" style="stop-color:#1b99ff" offset="1"/>
  </linearGradient>
  <linearGradient id="linearGradient1150-36-6" x1="400.49738" x2="400.49738" y1="517.60938" y2="545.76392" gradientTransform="matrix(-1.3121427,0,0,-1.3121427,553.08033,718.16484)" gradientUnits="userSpaceOnUse">
   <stop id="stop847" style="stop-color:#929292" offset="0"/>
   <stop id="stop849" style="stop-color:#d1d1d1" offset="1"/>
  </linearGradient>
  <linearGradient id="linearGradient1099-8-2" x1="-8.8050728" x2="-9.9452295" y1="56.41531" y2="52.160187" gradientTransform="matrix(1.2241173,0,0,1.2241173,40.387389,-26.899538)" gradientUnits="userSpaceOnUse">
   <stop id="stop859" style="stop-color:#a5a5a5" offset="0"/>
   <stop id="stop861" style="stop-color:#dbdbdb" offset="1"/>
  </linearGradient>
  <linearGradient id="linearGradient1107-7-3" x1="-14.238014" x2="-14.238014" y1="57.635826" y2="33.47435" gradientTransform="matrix(1.2241173,0,0,1.2241173,40.387389,-26.899538)" gradientUnits="userSpaceOnUse">
   <stop id="stop1101" style="stop-color:#233040" offset="0"/>
   <stop id="stop1103" style="stop-color:#1e344d" offset="1"/>
  </linearGradient>
 </defs>
 <path id="path1130" d="M 41.907125,38.739995 V 2 H 13.04 v 27.554997 l 9.184986,9.184998 z" style="fill:url(#linearGradient1150-36-6);stroke-width:.99999982"/>
 <path id="rect4144" d="m5.9073198 46v-36.739995h28.867125v27.554996l-9.184985 9.184999z" style="fill:url(#linearGradient998-2);stroke-width:.99999994"/>
 <path id="path4164" d="m34.774446 36.815-9.184986 9.184997v-9.184997z" style="fill-rule:evenodd;fill:url(#linearGradient1099-8-2);stroke-width:.99999982"/>
 <path id="path884" d="m13.734375 16.955078v1.033203 3.734375h9.072266v-4.767578h-9.072266zm-2.480469 7.878906v0.748047h19.550782v-0.748047h-19.550782zm1.183594 2.990235v0.748047h17.183594v-0.748047h-17.183594zm0.498047 2.990234v0.748047h16.189453v-0.748047h-16.189453zm-2.179688 3.507813v0.392578h18.400391v-0.392578h-18.400391zm0 1.570312v0.394531h18.400391v-0.394531h-18.400391zm0 1.572266v0.392578h14.833985v-0.392578h-14.833985zm0 1.570312v0.394532h14.833985v-0.394532h-14.833985z" style="fill-rule:evenodd;fill:#ffffff"/>
 <path id="path27" d="m20.805046 14.0668a11.612916 11.612914 0 0 0-11.6129 11.612897 11.612916 11.612914 0 0 0 11.6129 11.612942 11.612916 11.612914 0 0 0 6.943794-2.323251l8.975011 8.975013 2.345417-2.345417-8.975012-8.975033a11.612916 11.612914 0 0 0 2.323228-6.943771 11.612916 11.612914 0 0 0-11.612921-11.612898m0 3.317976a8.2949402 8.2949392 0 0 1 8.294944 8.294922 8.2949402 8.2949392 0 0 1-0.0421 0.829505 8.2949402 8.2949392 0 0 1-1.338215 3.739208 8.2949402 8.2949392 0 0 1-2.345897 2.345898 8.2949402 8.2949392 0 0 1-0.631858 0.37587 8.2949402 8.2949392 0 0 1-0.0809 0.04867 8.2949402 8.2949392 0 0 1-0.01755 0.0066 8.2949402 8.2949392 0 0 1-0.735516 0.340222 8.2949402 8.2949392 0 0 1-0.722581 0.252741 8.2949402 8.2949392 0 0 1-0.06161 0.02281 8.2949402 8.2949392 0 0 1-0.01102 0.0044 8.2949402 8.2949392 0 0 1-0.754962 0.178245 8.2949402 8.2949392 0 0 1-0.0421 0.01101 8.2949402 8.2949392 0 0 1-0.0066 0 8.2949402 8.2949392 0 0 1-0.609144 0.0844 8.2949402 8.2949392 0 0 1-0.246254 0.03245 8.2949402 8.2949392 0 0 1-0.651305 0.02587 8.2949402 8.2949392 0 0 1-8.294942-8.294922 8.2949402 8.2949392 0 0 1 0.0421-0.829504 8.2949402 8.2949392 0 0 1 3.771634-6.149916 8.2949402 8.2949392 0 0 1 1.474276-0.751718 8.2949402 8.2949392 0 0 1 3.006916-0.563805" style="fill:url(#linearGradient1107-7-3);stroke-width:1.3"/>
</svg>
