<?xml version="1.0" encoding="UTF-8"?>
<svg version="1.1" viewBox="0 0 48 48" xmlns="http://www.w3.org/2000/svg" xmlns:xlink="http://www.w3.org/1999/xlink">
<defs>
<linearGradient id="linearGradient834" x1="6.3499999" x2="6.3499999" y1="12.435416" y2="1.3229166" gradientTransform="scale(3.7795276)" gradientUnits="userSpaceOnUse">
<stop stop-color="#ed1e1b" offset="0"/>
<stop stop-color="#ec5856" offset="1"/>
</linearGradient>
<linearGradient id="linearGradient844" x1="23.329945" x2="23.329945" y1="33.799999" y2="12.2" gradientUnits="userSpaceOnUse">
<stop stop-color="#fed600" offset="0"/>
<stop stop-color="#fcfc30" offset="1"/>
</linearGradient>
</defs>
<g>
<path d="M 6,1.0000001 24,5 42,1.0000001 v 36 L 24,47 6,37.0000001 Z" fill="url(#linearGradient834)" style="paint-order:fill markers stroke"/>
<path d="m23.584478 12.013573c-1.0015288 0.0559065-1.9990415 0.28606557-2.9448771 0.69040536 1.4838587-0.12207474 3.003442 0.22380253 4.3299496 0.98659774 3.3918667 1.957607 4.9501572 6.2571768 2.8702963 9.2139284-0.14963403 0.21272126-0.31659742 0.38601948-0.47731726 0.57320693l-4.1339085-4.1339085 2.3141365-2.3162673-2.5804965-2.5804965c-0.70948112 0.61382271-2.4561515 1.454472-3.5607016 1.0079066l-4.6581052 4.6602365 3.8568941 3.8568941 2.3141364-2.3141365 3.7460883 3.7460883c-1.5021226 0.56399101-3.107673 0.54721444-4.5174675 0.11080577l-6.1731617 6.1710304 2.3162673 2.3141364 5.0011771-5.003308c2.2204097 0.7436843 4.5617189 0.54678436 6.554589-0.41125999l3.8718104 3.8718104 2.3162673-2.3141364-3.5351311-3.5351311c0.42014978-0.45956829 0.80101205-0.96390006 1.1229741-1.5214488 1.9599392-3.396135 1.4140715-7.6826056-1.3339313-10.479671-0.5526853-0.56312666-1.179212-1.0499702-1.8623897-1.4447372-1.4861242-0.85474529-3.1678846-1.2417223-4.8370989-1.1485456z" fill="url(#linearGradient844)" style="paint-order:fill markers stroke"/>
</g>
</svg>
