<?xml version="1.0" encoding="UTF-8"?>
<svg id="svg35" version="1.1" viewBox="0 0 48 48" xmlns="http://www.w3.org/2000/svg" xmlns:xlink="http://www.w3.org/1999/xlink">
 <title id="title2">drive-removable-media-48px</title>
 <desc id="desc4">Created with Sketch.</desc>
 <defs id="defs11">
  <linearGradient id="linearGradient953-3" x1="24.011023" x2="24.771093" y1="38.608788" y2="4.3912129" gradientTransform="matrix(.50539571 0 0 1 229.14839 2.166555)" gradientUnits="userSpaceOnUse">
   <stop id="stop30-6" stop-color="#197cf1" offset="0"/>
   <stop id="stop32" stop-color="#20bcfa" offset="1"/>
  </linearGradient>
 </defs>
 <path id="Rectangle-1" d="m8 4h32c0.554 0 1 0.446 1 1v33c0 0.554-0.446 1-1 1h-32c-0.554 0-1-0.446-1-1v-33c0-0.554 0.446-1 1-1z" style="fill-rule:evenodd;fill:url(#linearGradient953-3)"/>
 <path id="Rectangle-3" d="m7 34h34v6h-34z" style="fill-rule:evenodd;fill:#ffffff"/>
 <path id="rect16" d="m8 38h32c0.554 0 1 0.446 1 1v4c0 0.554-0.446 1-1 1h-32c-0.554 0-1-0.446-1-1v-4c0-0.554 0.446-1 1-1z" style="fill-rule:evenodd;fill:#bbbec4"/>
 <path id="Rectangle-path" d="m26.986328 39.996094v2h1v-2zm2 0v2h1v-2zm2 0v2h1v-2zm2 0v2h1v-2zm2 0v2h1v-2zm2 0v2h1v-2z" style="fill-rule:evenodd;fill:#197ff1"/>
 <path id="Oval" d="m13 41a1 1 0 0 1-1 1 1 1 0 0 1-1-1 1 1 0 0 1 1-1 1 1 0 0 1 1 1z" style="fill-rule:evenodd;fill:#197ff1"/>
 <path id="rect60" d="m18.904683 14.741162 3.875107 3.873436c0.231642 0.231542 0.231316 0.603726-7.32e-4 0.834492l-3.908428 3.886842c-0.232048 0.230767-0.605344 0.230141-0.836986-0.0014l-3.875107-3.873435c-0.231643-0.231543-0.231316-0.603727 7.32e-4 -0.834493l3.908428-3.886842c0.232048-0.230766 0.605343-0.230141 0.836986 0.0014zm5.580506 5.680973 3.875106 3.873435c0.231643 0.231542 0.231316 0.603726-7.31e-4 0.834492l-3.908429 3.886842c-0.232047 0.230766-0.605343 0.230142-0.836986-0.0014l-3.875106-3.873435c-0.231643-0.231543-0.231316-0.603727 7.31e-4 -0.834492l3.908429-3.886843c0.232048-0.230766 0.605343-0.230141 0.836986 0.0014zm5.693609-5.663891 3.875107 3.873435c0.231643 0.231543 0.231316 0.603726-7.31e-4 0.834492l-3.908429 3.886843c-0.232048 0.230766-0.605343 0.230141-0.836986-0.0014l-3.875107-3.873435c-0.231642-0.231542-0.231316-0.603726 7.32e-4 -0.834492l3.908428-3.886843c0.232048-0.230766 0.605344-0.230141 0.836986 0.0014zm-5.652754-5.6503164 3.875107 3.8734354c0.231642 0.231543 0.231316 0.603726-7.32e-4 0.834492l-3.908428 3.886843c-0.232048 0.230766-0.605344 0.230141-0.836986-0.0014l-3.875107-3.873435c-0.231643-0.231542-0.231317-0.603726 7.31e-4 -0.834493l3.908429-3.8868421c0.232047-0.2307662 0.605344-0.2301408 0.836986 0.0014z" style="fill:#eff0f1"/>
</svg>
