<?xml version="1.0" encoding="UTF-8"?>
<svg id="SVGRoot" version="1.1" viewBox="0 0 48 48" xmlns="http://www.w3.org/2000/svg">
<defs>
<style id="current-color-scheme" type="text/css">.ColorScheme-Text {
        color:#4d4d4d;
      }</style>
<style type="text/css">.ColorScheme-Text {
        color:#4d4d4d;
      }</style>
<style type="text/css">.ColorScheme-Text {
        color:#4d4d4d;
      }</style>
<style type="text/css">.ColorScheme-Text {
        color:#4d4d4d;
      }</style>
<linearGradient id="linearGradient848" x1="6.2726955" x2="6.2726955" y1="8.1721735" y2="4.1302609" gradientTransform="scale(3.7795276)" gradientUnits="userSpaceOnUse">
<stop stop-color="#ed1e1b" offset="0"/>
<stop stop-color="#ec5452" offset="1"/>
</linearGradient>
<linearGradient id="linearGradient850" x1="6.3499999" x2="6.3499999" y1="12.435416" y2="1.3229166" gradientTransform="scale(3.7795276)" gradientUnits="userSpaceOnUse">
<stop stop-color="#ffd715" offset="0"/>
<stop stop-color="#fcfc00" offset="1"/>
</linearGradient>
</defs>
<g>
<path d="m6 0.99999999 18 3.9999999 18-3.9999999v36l-18 9.9999999-18-9.9999999z" fill="url(#linearGradient850)" style="paint-order:fill markers stroke"/>
<path d="m23.99991 14.999565v0.00272a7.9999926 7.9999926 0 0 0-0.65624634 0.0347682 7.9999926 7.9999926 0 0 0-0.52604395 0.0659124 7.9999926 7.9999926 0 0 0-0.2343622 0.0347682 7.9999926 7.9999926 0 0 0-0.62673736 0.14241366 7.9999926 7.9999926 0 0 0-0.12499755 0.0302402 7.9999926 7.9999926 0 0 0-0.68923614 0.23100619 7.9999926 7.9999926 0 0 0-0.0364322 0.0151201v0.00176a7.9999926 7.9999926 0 0 0-1.3923588 0.69443856l0.2673496 2.7326452-2.7326348-0.2672896a7.9999926 7.9999926 0 0 0-0.69617858 1.392386 7.9999926 7.9999926 0 0 0-0.0120961 0.0365842 7.9999926 7.9999926 0 0 0-0.23088539 0.68920894 7.9999926 7.9999926 0 0 0-0.0312642 0.12517835 7.9999926 7.9999926 0 0 0-0.14235286 0.62677096 7.9999926 7.9999926 0 0 0-0.0347442 0.2343318 7.9999926 7.9999926 0 0 0-0.0659764 0.52605356 7.9999926 7.9999926 0 0 0-0.0347122 0.65628074 7.9999926 7.9999926 0 0 0 0.0312642 0.63191019 7.9999926 7.9999926 0 0 0 0.0590243 0.50519023 7.9999926 7.9999926 0 0 0 0.0416643 0.27394244 7.9999926 7.9999926 0 0 0 0.1162895 0.52429835 7.9999926 7.9999926 0 0 0 0.0624644 0.24642628 7.9999926 7.9999926 0 0 0 0.23088539 0.71179547h0.008768a7.9999926 7.9999926 0 0 0 0.70485943 1.3923868l2.7256964-0.2675928-0.2673496 2.7325852a7.9999926 7.9999926 0 0 0 1.3923588 0.69619298 7.9999926 7.9999926 0 0 0 0.0208641 0.00608 7.9999926 7.9999926 0 0 0 0.70485863 0.23765822 7.9999926 7.9999926 0 0 0 0.12499755 0.0302322 7.9999926 7.9999926 0 0 0 0.62673736 0.14241366 7.9999926 7.9999926 0 0 0 0.23436221 0.0347682 7.9999926 7.9999926 0 0 0 0.52257033 0.0659124 7.9999926 7.9999926 0 0 0 0.65972076 0.0344722 7.9999926 7.9999926 0 0 0 0.65798554-0.0344722 7.9999926 7.9999926 0 0 0 0.42708256-0.0501923 7.9999926 7.9999926 0 0 0 0.34722209-0.0520083 7.9999926 7.9999926 0 0 0 0.52777757-0.11792231 7.9999926 7.9999926 0 0 0 0.19791479-0.0501923 7.9999926 7.9999926 0 0 0 0.73611001-0.23765823v-0.0120961a7.9999926 7.9999926 0 0 0 1.3923604-0.70487063l-0.26736241-2.7256908 2.7256932 0.267592a7.9999926 7.9999926 0 0 0 0.70486023-1.3923564h0.008648a7.9999926 7.9999926 0 0 0 0.23611342-0.72915078 7.9999926 7.9999926 0 0 0 0.0555603-0.21558529 7.9999926 7.9999926 0 0 0 0.11458149-0.5173751 7.9999926 7.9999926 0 0 0 0.0520803-0.34726529 7.9999926 7.9999926 0 0 0 0.0503443-0.42699856 7.9999926 7.9999926 0 0 0 0.0329922-0.65800395 7.9999926 7.9999926 0 0 0-0.0329922-0.65969835 7.9999926 7.9999926 0 0 0-0.0659764-0.52257514 7.9999926 7.9999926 0 0 0-0.0347202-0.23433261 7.9999926 7.9999926 0 0 0-0.14236247-0.62671016 7.9999926 7.9999926 0 0 0-0.0312402-0.12517835 7.9999926 7.9999926 0 0 0-0.94097204-2.1180599l-2.7326364 0.26728961 0.26736241-2.7257212a7.9999926 7.9999926 0 0 0-1.3923604-0.70480982v-0.0120961a7.9999926 7.9999926 0 0 0-0.74131885-0.23765742 7.9999926 7.9999926 0 0 0-0.16493379-0.0435443 7.9999926 7.9999926 0 0 0-0.57986108-0.12850478 7.9999926 7.9999926 0 0 0-0.27083043-0.0417282 7.9999926 7.9999926 0 0 0-0.50520783-0.0592643 7.9999926 7.9999926 0 0 0-0.63194219-0.0302322zm0 5.3350616a2.6666642 2.6666642 0 0 1 2.6666648 2.6666696 2.6666642 2.6666642 0 0 1-2.6666648 2.6666688 2.6666642 2.6666642 0 0 1-2.6666616-2.6666688 2.6666642 2.6666642 0 0 1 2.6666616-2.6666696z" fill="url(#linearGradient848)"/>
<path d="m24 12c-6.0692099 0-11 4.9307901-11 11s4.9307901 11 11 11 11-4.9307901 11-11-4.9307901-11-11-11zm0 1c5.5287698 0 10 4.4712302 10 10s-4.4712302 10-10 10-10-4.4712302-10-10 4.4712302-10 10-10z" color="#000000" color-rendering="auto" dominant-baseline="auto" fill="#ee3734" image-rendering="auto" shape-rendering="auto" solid-color="#000000" style="font-feature-settings:normal;font-variant-alternates:normal;font-variant-caps:normal;font-variant-ligatures:normal;font-variant-numeric:normal;font-variant-position:normal;isolation:auto;mix-blend-mode:normal;paint-order:fill markers stroke;shape-padding:0;text-decoration-color:#000000;text-decoration-line:none;text-decoration-style:solid;text-indent:0;text-orientation:mixed;text-transform:none;white-space:normal"/>
</g>
</svg>
