<?xml version="1.0" encoding="UTF-8"?>
<svg id="svg43" version="1.1" viewBox="0 0 48 48" xmlns="http://www.w3.org/2000/svg" xmlns:xlink="http://www.w3.org/1999/xlink">
 <defs id="defs47">
  <linearGradient id="linearGradient919" x1="-120.0489" x2="-87.755096" y1="168.09801" y2="168.09801" gradientTransform="matrix(0,-1.4244,-1.4244,0,263.44246,-124.00025)" gradientUnits="userSpaceOnUse">
   <stop id="stop1109" style="stop-color:#a9a9a9" offset="0"/>
   <stop id="stop1111" style="stop-color:#cacaca" offset="1"/>
  </linearGradient>
  <linearGradient id="linearGradient870" x1="400.43274" x2="400.78711" y1="544.8963" y2="518.50586" gradientTransform="matrix(1.5000043,0,0,1.5000045,-577.12144,-773.96708)" gradientUnits="userSpaceOnUse">
   <stop id="stop12-3" stop-color="#333" style="stop-color:#101010" offset="0"/>
   <stop id="stop14-5" stop-color="#4d4d4d" style="stop-color:#414141" offset="1"/>
  </linearGradient>
  <linearGradient id="linearGradient1148" x1="24.542095" x2="24.542095" y1="36.073921" y2="12.123202" gradientTransform="matrix(.99796959 0 0 .99796959 .08089091 .04872984)" gradientUnits="userSpaceOnUse">
   <stop id="stop1142" style="stop-color:#aaaaaa" offset="0"/>
   <stop id="stop1144" style="stop-color:#d1d1d1" offset="1"/>
  </linearGradient>
 </defs>
 <path id="circle917" d="m47 24a23 23 0 0 1-23 23 23 23 0 0 1-23-23 23 23 0 0 1 23-23 23 23 0 0 1 23 23z" style="fill:url(#linearGradient919)"/>
 <path id="circle29" d="m45 24a21 21 0 0 1-21 21 21 21 0 0 1-21-21 21 21 0 0 1 21-21 21 21 0 0 1 21 21z" style="fill:url(#linearGradient870);stroke-width:1.6041061"/>
 <path id="path1051" d="m24 12c-2.544181 0-4.922688 0.784724-6.941406 2.207031 0.105019 0.01386 0.210554 0.026176 0.314453 0.041016 0.278481 0.055698 0.501012 0.333792 0.445312 0.667969-0.055699 0.222785-0.276207 0.388672-0.554687 0.388672h-0.113281c-0.334177-0.05568-0.667775-0.054688-1.001953-0.054688-0.112184 0-0.206053-0.031975-0.289063-0.078125-0.120744 0.109385-0.24798 0.209629-0.365234 0.324219-1.181572 1.20905-2.078757 2.62406-2.671875 4.154297h0.095703c0.334178 0 0.557653 0.27816 0.501953 0.55664 0 0.334178-0.223471 0.556641-0.501953 0.556641h-0.464844c0.104347-0.373699 0.225464-0.739991 0.365234-1.101563-0.530185 1.372038-0.818359 2.83558-0.818359 4.337891 0 0.508493 0.042088 1.006168 0.103516 1.498047h0.589843c0.334177 0 0.557653 0.280113 0.501953 0.558594 0 0.334178-0.222462 0.554687-0.55664 0.554687h-0.34375c0.445055 2.001919 1.389737 3.81119 2.697266 5.298828 0.088691-0.174197 0.258905-0.285156 0.488281-0.285156h0.277343c0.334178 0 0.558594 0.27816 0.558594 0.556641 0 0.323414-0.212877 0.537061-0.529297 0.550781 2.147728 2.020768 5.031988 3.267578 8.212891 3.267578 2.545421 0 4.901603-0.798068 6.84375-2.150391-0.100181-0.104725-0.158203-0.245218-0.158203-0.386718 0-0.334178 0.276207-0.556641 0.554687-0.556641h0.28125c0.147496 0 0.266588 0.049513 0.361328 0.126953 1.418999-1.239442 2.542332-2.804239 3.253907-4.582031h-0.386719c-0.334177 0-0.5557-0.280113-0.5-0.558594 0-0.334177 0.27816-0.557653 0.556641-0.501953h0.501953c0.069212 0 0.130853 0.015153 0.189453 0.033203 0.322959-1.08565 0.501953-2.233437 0.501953-3.423828 0-0.454863-0.030767-0.902025-0.080078-1.34375h-0.611328c-0.334177 0-0.557653-0.276207-0.501953-0.554688 0-0.334179 0.278159-0.5557 0.55664-0.5h0.396485c-0.412251-2.031159-1.343271-3.871014-2.640625-5.388671-0.090052 0.185538-0.258662 0.318359-0.484375 0.318359-0.445571 0-0.836689-0.055628-1.226563-0.111328-0.075502-0.0151-0.146114-0.047277-0.208984-0.091797-0.058946 0.02296-0.118428 0.037109-0.179688 0.037109h-0.167969c-0.445569-0.111392-0.833792-0.334864-1.167968-0.501953l-0.333985-0.166015c-0.278482-0.111393-0.390688-0.448082-0.279297-0.726563 0.083546-0.208862 0.293073-0.320959 0.509766-0.318359 0.072231 8.8e-4 0.143271 0.013175 0.212891 0.041015 0.111393 0.055698 0.223536 0.112269 0.390625 0.167969 0.334177 0.167089 0.667775 0.331967 1.001953 0.44336 0.03609 0.01444 0.065536 0.040846 0.097656 0.060546 0.10347-0.04976 0.219288-0.082267 0.349609-0.060546 0.231309 0.038539 0.446496 0.050687 0.679688 0.054687-2.157355-2.075933-5.082887-3.359375-8.3125-3.359375zm8.3125 3.359375c0.282298 0.271669 0.55194 0.555544 0.806641 0.853516-0.254695-0.297944-0.524348-0.581877-0.806641-0.853516zm3.185547 12.064453c-0.104202 0.350214-0.226805 0.691314-0.361328 1.027344 0.134484-0.335994 0.257157-0.677165 0.361328-1.027344zm-4.654297 6.425781c0.35968-0.250446 0.701757-0.523214 1.03125-0.810547-0.329576 0.287578-0.671408 0.559919-1.03125 0.810547zm-18.548828-7.238281c-0.079609-0.358224-0.140765-0.724235-0.1875-1.09375 0.04683 0.369978 0.107758 0.735058 0.1875 1.09375zm3.564453-11.439453c0.381018-0.345267 0.778047-0.664994 1.191406-0.957031-0.413748 0.292057-0.810132 0.611627-1.191406 0.957031zm11.148437-1.035156h0.222657 0.335937c0.334177-1e-6 0.556641 0.278159 0.556641 0.55664-0.055697 0.334178-0.334799 0.556641-0.613281 0.556641h-0.333985-0.167969c-0.334177 0-0.55664-0.222463-0.55664-0.556641 0-0.334177 0.222462-0.55664 0.55664-0.55664zm-1.621093 0.1875c0.216694 0.013054 0.426225 0.160281 0.509765 0.36914 0.111392 0.278481-0.057457 0.613216-0.335937 0.72461-0.334177 0.111392-0.612143 0.221583-0.890625 0.388672-0.334177 0.167088-0.666768 0.333919-1.056641 0.445312-0.055698 0.05568-0.112268 0.056641-0.167969 0.056641-0.043203 0-0.088489-0.011688-0.130859-0.023438-0.070967 0.064122-0.154538 0.116906-0.261719 0.134766-0.445571 0.111393-0.88936 0.111328-1.390625 0.111328h-0.335937c-0.334176 0-0.554688-0.280113-0.554688-0.558594 0-0.334177 0.276208-0.554687 0.554688-0.554687h0.335937c0.445569 0 0.780048-0.057582 1.169922-0.113281 0.071025-0.01413 0.144067-0.011897 0.216797 0.001953 0.050535-0.046362 0.107255-0.085469 0.171875-0.111329 0.334177-0.111392 0.614096-0.223535 0.892578-0.390624 0.334176-0.167088 0.666767-0.333921 1.056641-0.445313 0.06962-0.02789 0.144567-0.039456 0.216797-0.035156zm-6.556641 0.382812c0.072231 8.8e-4 0.145224 0.015129 0.214844 0.042969l0.111328 0.054688 0.333984 0.166015c0.278481 0.111392 0.390689 0.448081 0.279297 0.726563-0.111392 0.222784-0.281121 0.332031-0.503906 0.332031-0.055698 0-0.165003-9.41e-4 -0.220703-0.056641-0.111392-0.055698-0.22259-0.110315-0.333984-0.166015l-0.113282-0.054688c-0.278481-0.111393-0.390689-0.448081-0.279297-0.726562 0.083545-0.208859 0.295027-0.32096 0.511719-0.31836zm8.513672 4.94336h1.335938c0.334178 0 0.5557 0.279104 0.5 0.613281 0.055695 0.278482-0.165822 0.5-0.5 0.5h-1.22461c-0.334179 1e-6 -0.555628-0.221518-0.611328-0.5 0-0.334177 0.221519-0.557581 0.5-0.613281zm3.158203 0.332031c0.074841-0.01209 0.152788-0.011967 0.236328 0.001953 0.556963 0.16709 1.062243 0.390495 1.507813 0.613281s0.887406 0.445247 1.388672 0.556641c0.278482 0.111391 0.448278 0.388477 0.392578 0.722656-0.111392 0.27848-0.335809 0.447266-0.558594 0.447266h-0.166016c-0.612658-0.167088-1.057327-0.391441-1.558593-0.669922-0.44557-0.222785-0.836624-0.389554-1.337891-0.556641-0.278481-0.111394-0.446325-0.388478-0.390625-0.722656 0.083545-0.208861 0.261802-0.356018 0.486328-0.392578zm-4.892578 0.02539c0.216693 0.015665 0.424273 0.171247 0.507813 0.421876 0.111392 0.334177-0.054496 0.613215-0.388672 0.724609-0.501266 0.167088-0.948962 0.331902-1.394532 0.554687-0.44557 0.222784-0.945935 0.448147-1.558593 0.615235h-0.109375c-0.222785 1e-6 -0.449154-0.167842-0.560547-0.390625-0.111393-0.278482 0.058402-0.613217 0.392578-0.72461 0.501266-0.167088 0.947008-0.389551 1.392578-0.55664 0.44557-0.222785 0.946943-0.44424 1.503906-0.611328 0.069619-0.02793 0.142614-0.038403 0.214844-0.033204zm-10.949219 0.03125c0.06701-0.012089 0.137411-0.011966 0.207032 0.001954 0.612657 0.167088 1.113024 0.443229 1.558593 0.666015 0.44557 0.222785 0.836624 0.393459 1.337891 0.560547 0.278475 0.111392 0.445377 0.388477 0.333984 0.722656 0.055698 0.167088-0.165888 0.333985-0.388672 0.333985h-0.167968c-0.556962-0.167089-1.058336-0.392451-1.503907-0.615235-0.445569-0.222785-0.892256-0.44424-1.449218-0.611328-0.278482-0.111394-0.444372-0.389488-0.388672-0.667968 0.083544-0.208861 0.259909-0.354065 0.460937-0.390626zm4.998047 1.50586h1.224609c0.334178 1e-6 0.555629 0.221518 0.611329 0.5 0 0.334177-0.221519 0.555628-0.5 0.611328h-0.78125-0.667969c-0.334177 0-0.5557-0.277151-0.5-0.611328 0.055698-0.334178 0.279104-0.5557 0.613281-0.5zm7.294922 3.953125h0.669922 0.666015c0.334178 0 0.559607 0.279103 0.503907 0.613281 0 0.278482-0.280113 0.5-0.558594 0.5h-0.611328-0.558594c-0.334179 0-0.557581-0.221518-0.613281-0.5 0-0.334178 0.223471-0.557581 0.501953-0.613281zm-1.734375 0.300781c0.216692 0.015665 0.426226 0.175149 0.509766 0.425781 0.111392 0.278481-0.056449 0.611264-0.390625 0.722657-0.501266 0.167088-0.892321 0.333855-1.337891 0.55664s-0.94499 0.444239-1.501953 0.611328h-0.224609c-0.222785 0-0.443295-0.165886-0.554688-0.388672-0.111392-0.278482 0.052543-0.613216 0.386719-0.724609 0.501267-0.167089 0.948961-0.333856 1.394531-0.556641s0.94499-0.446193 1.501953-0.613281c0.069621-0.02793 0.144567-0.038403 0.216797-0.033203zm-10.783203 0.087891c0.06701-0.01218 0.137411-0.01392 0.207031 0 0.612658 0.167088 1.11693 0.391442 1.5625 0.669922 0.44557 0.222786 0.834672 0.389551 1.335938 0.55664 0.278476 0.111392 0.445376 0.390433 0.333984 0.72461-0.055698 0.167089-0.279169 0.277343-0.501953 0.277343h-0.166016c-0.556963-0.167089-1.003648-0.388543-1.449219-0.611328-0.445568-0.222785-0.889359-0.445248-1.390624-0.55664-0.278482-0.111393-0.448279-0.389488-0.392579-0.667969 0.083545-0.208861 0.259908-0.356018 0.460938-0.392578zm15.621094 0c0.074842-0.01218 0.154741-0.01392 0.238281 0 0.556962 0.167088 1.058337 0.390496 1.503906 0.613281 0.44557 0.222785 0.891311 0.391506 1.392578 0.558594 0.278481 0.111393 0.446325 0.388478 0.390625 0.722656-0.167089 0.222784-0.392449 0.392577-0.615234 0.392578h-0.166016c-0.612659-0.167089-1.056382-0.392449-1.501953-0.615234-0.44557-0.222786-0.838578-0.389552-1.339844-0.556641-0.278481-0.111392-0.442418-0.388479-0.386718-0.722656 0.083546-0.208861 0.25985-0.356018 0.484375-0.392578zm-10.734375 1.451172h1.169922c0.334177 0 0.557581 0.221519 0.613281 0.5 0 0.334178-0.223472 0.557581-0.501953 0.613281h-0.72461-0.667968c-0.334179-1e-6 -0.555701-0.279103-0.5-0.613281-1e-6 -0.334177 0.27715-0.5557 0.611328-0.5zm6.90625 4.230468c0.44557 0 0.836688 0.057582 1.226562 0.113282 0.111392 0 0.166956 0.053675 0.222656 0.109375h0.277344c0.44557 0.111393 0.835744 0.334865 1.169922 0.501953 0.167089 0.111393 0.391505 0.165951 0.558594 0.277343 0.278481 0.111393 0.442479 0.446128 0.27539 0.72461-0.055698 0.222785-0.277215 0.335937-0.5 0.335937-0.055698 0-0.166956 0.001013-0.222656-0.054687-0.222785-0.111393-0.444239-0.169858-0.611328-0.28125-0.334178-0.167089-0.612079-0.27728-1.001953-0.388672-0.055697 0-0.112269-0.055628-0.167969-0.111328h-0.224609c-0.334178-0.055702-0.667775-0.111328-1.001953-0.111328-0.222785 0-0.445183-0.001013-0.667969 0.054687-0.334177 0.055698-0.555628-0.167775-0.611328-0.501953-0.055697-0.27848 0.165823-0.555628 0.5-0.611328 0.222786 0 0.500815-0.056641 0.779297-0.056641zm-11.226563 0.351563c0.246862 0.280219 0.505672 0.548607 0.777344 0.804687-0.271872-0.256298-0.530328-0.524214-0.777344-0.804687zm2.546875 0.005859c0.072231-0.00436 0.145224 0.005363 0.214844 0.033203 0.222784 0.111393 0.444239 0.165952 0.611328 0.277344 0.334177 0.167089 0.612078 0.281186 1.001953 0.392578 0.055698 0 0.112269 0.053675 0.167969 0.109375h0.224609c0.334178 0.055692 0.666767 0.113281 1.056641 0.113281 0.222784 1e-6 0.445185-9.4e-4 0.667969-0.05664 0.334178-0.055698 0.555628 0.165822 0.611328 0.5 0.055697 0.27848-0.165823 0.559534-0.5 0.615234-0.222784 0.111452-0.500816 0.109375-0.779297 0.109375-0.445571 0-0.836689-0.053675-1.226563-0.109375-0.111393 0-0.166956-0.057581-0.222656-0.113281h-0.277344c-0.445568-0.111393-0.83379-0.334865-1.167968-0.501953-0.167089-0.111394-0.391506-0.165952-0.558594-0.277344-0.278485-0.111392-0.445379-0.446127-0.333985-0.724609 0.083545-0.208861 0.293072-0.354138 0.509766-0.367188zm6.166016 0.214844c0.216693-0.00261 0.424272 0.111452 0.507812 0.320313 0.111393 0.278481 0.003091 0.611264-0.27539 0.722656l-0.392578 0.224609c-0.111394 0.05568-0.166957 0.054688-0.222657 0.054688-0.222787 0-0.388608-0.1112-0.5-0.333985-0.111393-0.278482-0.00309-0.613216 0.275391-0.724609l0.392578-0.222656c0.06962-0.02785 0.142614-0.040146 0.214844-0.041016z" style="fill:url(#linearGradient1148)"/>
</svg>
