<?xml version="1.0" encoding="UTF-8"?>
<svg id="svg942" width="48" height="48" version="1.1" viewBox="0 0 12.7 12.7" xmlns="http://www.w3.org/2000/svg">
 <defs id="defs936">
  <linearGradient id="b" x1="399.9939" x2="399.9939" y1="545.13873" y2="518.13873" gradientTransform="matrix(.43467295 0 0 .43467295 -167.76756 -224.80818)" gradientUnits="userSpaceOnUse">
   <stop id="stop7" stop-color="#197ff1" offset="0"/>
   <stop id="stop9" stop-color="#21c6fb" offset="1"/>
  </linearGradient>
 </defs>
 <path id="circle12" d="m12.435387 6.3499875a6.085403 6.085403 0 0 1-6.0854033 6.0854025 6.085403 6.085403 0 0 1-6.085403-6.0854025 6.085403 6.085403 0 0 1 6.085403-6.085403 6.085403 6.085403 0 0 1 6.0854033 6.085403z" style="fill:url(#b);stroke-width:.5650748"/>
 <path id="path975" d="m9.1241743 5.4798802c0-0.082262-0.062211-0.1333792-0.1867885-0.1533922l-1.6737679-0.2433895-0.7502223-1.5171426c-0.0421952-0.091143-0.0967092-0.1366941-0.1633784-0.1366941-0.066669 0-0.1211424 0.045552-0.1633781 0.1366941l-0.7502634 1.5171426-1.6738497 0.2433895c-0.1244571 0.020012-0.1867063 0.07113-0.1867063 0.1533922 0 0.046697 0.027789 0.1000651 0.083367 0.1600633l1.213714 1.1803591-0.2867304 1.6671782c-0.00446 0.031144-0.00667 0.053408-0.00667 0.06671 0 0.046694 0.011663 0.08611 0.034992 0.1184002 0.023329 0.032246 0.058321 0.048335 0.1050172 0.048335 0.040026 0 0.084472-0.013261 0.1333792-0.039988l1.4970926-0.7869722 1.4972109 0.786974c0.046738 0.026689 0.091185 0.039988 0.1333387 0.039988 0.044569 0 0.078415-0.016042 0.1017428-0.048336 0.023286-0.032246 0.034952-0.071702 0.034952-0.1183998 0-0.028894-0.00108-0.051116-0.00336-0.06671l-0.2867726-1.6671794 1.2103576-1.1803591c0.057872-0.057788 0.086723-0.1111561 0.086724-0.1600633z" style="fill:#ffffff;stroke-width:.06175921"/>
</svg>
