<?xml version="1.0" encoding="UTF-8"?>
<svg id="svg5453" version="1.1" viewBox="0 0 48 48" xmlns="http://www.w3.org/2000/svg" xmlns:xlink="http://www.w3.org/1999/xlink">
 <defs id="defs5455">
  <linearGradient id="linearGradient5578" x1="24.138405" x2="24.276943" y1="35.79874" y2="6.2055192" gradientTransform="matrix(.91666665 0 0 .91666665 1.9999893 .1666648)" gradientUnits="userSpaceOnUse">
   <stop id="stop919" style="stop-color:#2f4e6d" offset="0"/>
   <stop id="stop921" style="stop-color:#3b6289" offset="1"/>
  </linearGradient>
 </defs>
 <path id="rect4254" d="m18.499989 34.083331v10.083334h11v-10.083334z" style="fill:#999999"/>
 <path id="rect4173" d="m2 3.8333354h44v32.999997h-44z" style="fill:#4d4d4d"/>
 <path id="rect4295" d="m13.916666 43.249973h20.166666v0.916643h-20.166666z" style="fill:#797474"/>
 <path id="path3072" d="m24.916656 34.999999a0.91666665 0.91666665 0 0 1-0.916667 0.916666 0.91666665 0.91666665 0 0 1-0.916667-0.916666 0.91666665 0.91666665 0 0 1 0.916667-0.916668 0.91666665 0.91666665 0 0 1 0.916667 0.916668z" style="fill-rule:evenodd;fill:#dfdfdf;opacity:.75"/>
 <path id="rect4228" d="m4.4573684 5.8455777h39.279534v27.239298h-39.279534z" style="fill:url(#linearGradient5578)"/>
 <path id="path816" d="m24.097135 10.32237-1.999999 1.142857v1.446429a6.8571426 6.8571426 0 0 0-2.67634 1.544643l-1.272321-0.734375-2.05134 1.171875v2.261161l1.325893 0.765625a6.8571426 6.8571426 0 0 0-0.183036 1.544642 6.8571426 6.8571426 0 0 0 0.183036 1.544643l-1.325893 0.765624v2.261161l2.05134 1.171876 1.276785-0.736608a6.8571426 6.8571426 0 0 0 2.671876 1.549107v1.444197l1.999999 1.142857 2-1.142857v-1.448661a6.8571426 6.8571426 0 0 0 2.671876-1.54241l1.274553 0.736607 2.053571-1.174108v-2.261161l-1.328124-0.765624a6.8571426 6.8571426 0 0 0 0.185267-1.544643 6.8571426 6.8571426 0 0 0-0.185267-1.544642l1.328124-0.765625v-2.261161l-2.053571-1.174108-1.274553 0.736608a6.8571426 6.8571426 0 0 0-2.671876-1.549107v-1.441965zm0 6.857143a2.2857142 2.2857142 0 0 1 2.285715 2.285714 2.2857142 2.2857142 0 0 1-2.285715 2.285714 2.2857142 2.2857142 0 0 1-2.285714-2.285714 2.2857142 2.2857142 0 0 1 2.285714-2.285714z" style="fill:#c1cede;paint-order:fill markers stroke"/>
</svg>
