<?xml version="1.0" encoding="UTF-8"?>
<svg id="SVGRoot" width="48" height="48" enable-background="new -51 53 96 96" version="1.1" viewBox="-51 53 48 48" xmlns="http://www.w3.org/2000/svg" xmlns:xlink="http://www.w3.org/1999/xlink">
 <defs id="defs17">
  <linearGradient id="linearGradient925" x1="24.138405" x2="24.276943" y1="35.79874" y2="6.2055192" gradientTransform="matrix(.91666666 0 0 .91666666 -49.000011 53.166663)" gradientUnits="userSpaceOnUse">
   <stop id="stop919" style="stop-color:#2f4e6d" offset="0"/>
   <stop id="stop921" style="stop-color:#3b6289" offset="1"/>
  </linearGradient>
  <linearGradient id="linearGradient1029" x1="24.414061" x2="24.414061" y1="33.229767" y2="8.2697573" gradientTransform="matrix(.71707929 0 0 .71707929 6.572099 5.197909)" gradientUnits="userSpaceOnUse">
   <stop id="stop4623" style="stop-color:#c1cede" offset="0"/>
   <stop id="stop4625" style="stop-color:#c1e9e4" offset="1"/>
  </linearGradient>
 </defs>
 <path id="rect4254" d="m-32.500011 87.08333v10.083335h11.000001v-10.083335z" style="fill:#999999"/>
 <path id="rect4173" d="m-49 56.833336h44v32.999996h-44z" style="fill:#4d4d4d"/>
 <path id="rect4295" d="m-37.083332 96.249969h20.166666v0.916643h-20.166666z" style="fill:#797474"/>
 <path id="path3072" d="m-26.083344 87.999997a0.91666666 0.91666666 0 0 1-0.916666 0.916667 0.91666666 0.91666666 0 0 1-0.916667-0.916667 0.91666666 0.91666666 0 0 1 0.916667-0.916667 0.91666666 0.91666666 0 0 1 0.916666 0.916667z" style="fill-rule:evenodd;fill:#dfdfdf;opacity:.75"/>
 <path id="rect4228" d="m-46.542633 58.845577h39.279537v27.239298h-39.279537z" style="fill:url(#linearGradient925)"/>
 <path id="path835-2" transform="translate(-51,53)" d="m31.398438 11.029297c-0.124549-7.74e-4 -0.243533 0.008669-0.353516 0.029297-0.317972 0.06188-0.671193 0.211056-0.923828 0.392578-0.139385 0.09489-1.345918 1.217626-2.6875 2.488281l-2.431641 2.308594 0.091797 0.121094c0.05227 0.06601 0.213232 0.222156 0.361328 0.341797l0.261719 0.21875 2.578125-2.441407c2.343412-2.215394 2.588077-2.439453 2.71875-2.439453 0.182943 0 0.314453 0.123604 0.314453 0.296875 0 0.11964-0.241023 0.358606-2.580078 2.578125l-2.582031 2.447266 0.392578 0.371094 0.390625 0.371093 2.591797-2.455078c1.929612-1.827597 2.61931-2.453125 2.693359-2.453125 0.121962 0 0.355469 0.209143 0.355469 0.316406 0 0.04125-1.079442 1.09731-2.59961 2.53711l-2.605468 2.466797 0.361328 0.339843 0.357422 0.341797 2.527343-2.392578c1.393851-1.316034 2.586557-2.478893 2.65625-2.582031 0.418155-0.610574 0.448371-1.449075 0.078125-2.113281-0.169875-0.297037-0.552966-0.66745-0.853515-0.824219-0.323417-0.167083-0.739637-0.263305-1.113281-0.265625zm-12.201172 0.046875c-0.383309-0.0083-0.794054 0.006764-0.916016 0.027344-0.283126 0.05363-0.892578 0.244339-0.892578 0.277343 0 0.0165 0.610629 0.607258 1.355469 1.308594 0.879867 0.829225 1.385231 1.336097 1.4375 1.443359 0.104539 0.214527 0.104539 0.568678 0 0.783204-0.108895 0.218652-1.411567 1.440708-1.625 1.527343-0.191655 0.07426-0.456799 0.077719-0.705079 0.011719-0.148096-0.04125-0.401907-0.25657-1.560546-1.345703-1.354649-1.274779-1.380271-1.298669-1.423828-1.191406-0.165521 0.408424-0.201172 0.640023-0.201172 1.349609 0 0.627076 0.014439 0.766979 0.101562 1.072266 0.204722 0.709586 0.5616 1.298965 1.119141 1.847656 0.561895 0.561068 1.222578 0.931958 2.037109 1.146484 0.335396 0.09076 0.510074 0.112624 1.09375 0.125l0.697266 0.011719 4.857422 4.595703c3.737263 3.535553 4.916666 4.625598 5.099609 4.72461 0.579319 0.301161 1.399197 0.399175 1.978516 0.238281 1.620351-0.453806 2.395229-2.107096 1.65039-3.509766-0.06098-0.115515-0.204659-0.318937-0.322265-0.455078-0.113251-0.136142-2.29216-2.213974-4.835938-4.619141l-4.625-4.373046-0.007812-0.763672c-0.0044-0.65183-0.022711-0.80909-0.105469-1.09375-0.448645-1.501682-1.555415-2.574197-3.119141-3.015625-0.339752-0.09489-0.482436-0.110671-1.08789-0.123047zm1.849609 10.875c-0.01307 0-0.675098 0.617861-1.476563 1.376953l-1.449218 1.373047-0.609375 0.121094c-0.335395 0.06601-0.622752 0.128248-0.644531 0.140625-0.04792 0.03301-2.275096 3.228694-2.296876 3.298828-0.008699 0.03713 0.157521 0.227737 0.410157 0.46289l0.425781 0.400391 1.720703-1.072266c0.945206-0.589947 1.743397-1.098293 1.769531-1.123046 0.03049-0.028881 0.104585-0.309291 0.169922-0.626954l0.121094-0.578125 1.464844-1.394531 1.46289-1.388672-0.523437-0.496094c-0.287482-0.272283-0.531855-0.49414-0.544922-0.49414zm9.822266 3.490234c0.255902-0.030425 0.525692 0.020328 0.80664 0.152344 1.014898 0.478558 0.972069 1.822223-0.082031 2.300781-0.296194 0.136142-0.770972 0.132677-1.097656-0.011719-0.897291-0.391921-1.081382-1.480345-0.34961-2.107421 0.224323-0.191836 0.466754-0.303559 0.722657-0.333985z" style="fill:url(#linearGradient1029)"/>
</svg>
