<?xml version="1.0" encoding="UTF-8"?>
<svg id="svg43" version="1.1" viewBox="0 0 48 48" xmlns="http://www.w3.org/2000/svg" xmlns:xlink="http://www.w3.org/1999/xlink">
 <defs id="defs47">
  <linearGradient id="b-3" x1="399.9939" x2="399.9939" y1="545.13873" y2="518.13873" gradientTransform="matrix(1.6428584,0,0,1.6428584,-634.08211,-849.66872)" gradientUnits="userSpaceOnUse">
   <stop id="stop7-6" stop-color="#197ff1" offset="0"/>
   <stop id="stop9-7" stop-color="#21c6fb" offset="1"/>
  </linearGradient>
 </defs>
 <path id="circle12" d="m46.999898 23.999944a22.999949 22.999949 0 0 1-22.999952 22.999951 22.999949 22.999949 0 0 1-22.999951-22.999951 22.999949 22.999949 0 0 1 22.999951-22.999952 22.999949 22.999949 0 0 1 22.999952 22.999952z" style="fill:url(#b-3);stroke-width:2.1357157"/>
 <path id="path844" d="m21.190796 12.695741q-0.101489-0.202977 0-0.202977 0-0.101489 0.202977-0.101489 2.537212 0.101489 4.668471 1.826793 1.623816 0 3.450609 0 3.247631 0.304466 3.450609 2.537212 0.304465 0.811908-1.928282 1.319351-1.420839 0.405954-3.653585 1.319351 1.31935 1.217862 0.202976 2.334235-0.710419 0.608931-1.623815 2.02977 0.608931 0.405954 1.217861 1.116374 1.217863-0.507443 2.841678 1.014885 0.913397 1.623815-0.507442 1.928281-0.710419-0.101488-1.420839 0.202977 0.304466 5.683356-2.435724 7.205683-1.014885 0.710419-1.623816 0.101488-0.101489-0.101488-0.710419-0.507442-0.304466-0.101488-0.405955-0.202977-1.623815-0.608931-2.841678-2.131258-0.304465-0.608931-0.710419-1.014885-0.608931-0.405954-0.811908-1.623816 0.101488-1.116373 0.913397-1.826793 1.217861-0.913397 2.435724-1.420839 0.60893-0.202977 1.217862-0.608931-0.507443-0.71042-0.202978-2.232747 0.202978-1.014885 0.913397-1.014885 0.811908-0.101488 1.725305-1.826793 0.101488-0.304465 0.101488-0.405954-0.101488-0.101489-0.304466 0-0.811907 0.608931-1.420839 0.913396-0.913396 0.405954-1.31935 0.811908-0.710419 0.405955-1.725304 0.811909-0.101489 0.101488-0.202978 0.101488-0.608931 0.101488-0.507442-0.405954 0-0.811908 0.304466-1.522327 0.101488-0.507443 0.405954-0.608931 0 0 0.101488 0 0.507442-0.101489 1.319351-0.507443 2.841678-1.522328 3.34912-1.420839 3.247632-1.623816 4.465494-3.044655 0.202977-0.202977 0.101488-0.304465-0.101488-0.101489-0.405953 0-2.638702 0.101488-2.943167 0.913396-0.101489 1.116374-0.608931 1.31935-0.304465 0.101489-0.710419 0.608931-0.608932 0.608932-2.232747-0.811907-1.522328 0.608931-2.74019 0.304465-1.826793-0.304465-2.435724 0.71042 0 1.420839-0.405954 2.537212-0.405954 0.811908-0.710419 2.02977-0.101489 0.202977-0.101489 0.405954-0.304465 0.811908-0.507443 1.217862-0.304465 0.304466-0.710419-0.202977-0.608931-0.913396-0.71042-1.928282 0-0.710419 0.304466-1.217861 1.725305-3.146144 1.116373-4.668471-0.101488-0.304466 0.101489-0.405955 0.202977-0.101488 0.405954 0.101489t0.507443 0.71042q0.304465 0.507442 0.405953 0.710419 2.029771-1.522328 4.668471-2.638701 0.202978-0.101488-0.101488-0.507442-0.507442-0.608931-1.217862-1.826793zm4.871448 14.715832q0.101488-0.304466-0.101488-0.405954-0.101489-0.101489-0.405954 0.101488-0.913397 0.304466-2.334236 1.217862-1.420839 0.913397-2.841678 1.725305-0.71042 0.60893-0.101488 1.31935 1.217861 1.116374 2.435724 1.420839 2.029769 0.304466 2.6387-0.405954 1.014885-1.826793 0.811908-3.958051-0.202976 0-0.60893 0.101488-0.405954 0-0.507443 0-0.304466 0-0.405954-0.101488 0-0.101489 0.304465-0.202977 0.608932-0.304466 1.116374-0.811908z" style="fill:#f9f9f9"/>
</svg>
