<?xml version="1.0" encoding="UTF-8"?>
<svg id="svg27" version="1.1" viewBox="0 0 48 48" xmlns="http://www.w3.org/2000/svg" xmlns:xlink="http://www.w3.org/1999/xlink">
 <defs id="defs31">
  <linearGradient id="linearGradient3550" x1="24.414061" x2="24.414061" y1="33.229767" y2="8.2697573" gradientTransform="matrix(.79037364 0 0 .79037364 4.7851208 2.8592778)" gradientUnits="userSpaceOnUse">
   <stop id="stop4623" style="stop-color:#c1cede" offset="0"/>
   <stop id="stop4625" style="stop-color:#c1e9e4" offset="1"/>
  </linearGradient>
  <linearGradient id="linearGradient925" x1="24.138405" x2="24.276943" y1="35.79874" y2="6.2055192" gradientTransform="matrix(.91666666 0 0 .91666666 1.999989 .1666625)" gradientUnits="userSpaceOnUse">
   <stop id="stop919" style="stop-color:#2f4e6d" offset="0"/>
   <stop id="stop921" style="stop-color:#3b6289" offset="1"/>
  </linearGradient>
 </defs>
 <path id="rect4254" d="m18.499989 34.083329v10.083335h11.000001v-10.083335z" style="fill:#999999"/>
 <path id="rect4173" d="m2 3.8333355h44v32.999996h-44z" style="fill:#4d4d4d"/>
 <path id="rect4295" d="m13.916668 43.249968h20.166666v0.916643h-20.166666z" style="fill:#797474"/>
 <path id="path3072" d="m24.916656 34.999996a0.91666666 0.91666666 0 0 1-0.916666 0.916667 0.91666666 0.91666666 0 0 1-0.916667-0.916667 0.91666666 0.91666666 0 0 1 0.916667-0.916667 0.91666666 0.91666666 0 0 1 0.916666 0.916667z" style="fill-rule:evenodd;fill:#dfdfdf;opacity:.75"/>
 <path id="rect4228" d="m4.457367 5.8455765h39.279537v27.239298h-39.279537z" style="fill:url(#linearGradient925)"/>
 <path id="path835-2" d="m32.148438 9.2871094c-0.137279-8.518e-4 -0.269402 0.008514-0.390626 0.03125-0.350473 0.068204-0.739119 0.2335182-1.017578 0.4335937-0.153631 0.1045856-1.484181 1.3397029-2.96289 2.7402349l-0.080078 0.078124c0.370565 0.15004 0.76863 0.279302 1.18164 0.388672 2.368238-2.238284 2.706087-2.548828 2.845703-2.548828 0.201643 0 0.345704 0.137144 0.345703 0.328125 0 0.118879-0.440191 0.556784-2.371093 2.392578 0.1362 0.02109 0.270388 0.04951 0.408203 0.0625l0.144531 0.013672 0.042969 0.023438c0.269064 0.04855 0.522467 0.143763 0.75 0.277343 1.252792-1.176349 1.960862-1.824218 2.02539-1.824218 0.134428 0 0.392579 0.233337 0.392579 0.351562 0 0.03496-0.826981 0.841424-1.914063 1.882813 0.259423 0.274891 0.449482 0.610944 0.546875 0.986328 1.131987-1.080251 2.073085-1.996611 2.134766-2.087891 0.460895-0.672982 0.494029-1.596029 0.085937-2.328125-0.187231-0.327404-0.608184-0.737364-0.939453-0.910156-0.356472-0.1841613-0.81668-0.2884565-1.228515-0.2910156zm-13.447266 0.0507812c-0.422488-0.00907-0.875336 0.008484-1.009766 0.03125-0.312064 0.059108-0.984375 0.2683101-0.984375 0.3046875 0 0.018191 0.67317 0.6683859 1.494141 1.4414059 0.969801 0.913982 1.526373 1.473569 1.583984 1.591797 0.01582 0.03247 0.023677 0.073829 0.035156 0.111328 1.300883-0.423757 2.336529-1.050288 2.851563-1.404297-0.636484-0.927728-1.579974-1.6030985-2.771484-1.9394526-0.374479-0.1045852-0.53188-0.1230771-1.199219-0.1367188zm5.398437 2.0371094c-0.278222 0-0.554854 0.086118-0.789062 0.257812v-0.001953c-0.649982 0.475835-2.736349 1.827804-5.148438 2.054688-0.777903 0.07281-1.392637 0.738323-1.40625 1.525391v0.001953c-0.01723 1.13086 0.052008 3.563367 0.941407 6.013671s2.698496 4.972116 6.005859 5.865235c0.259903 0.0697 0.535019 0.0697 0.794922 0 3.307429-0.892356 5.116297-3.414794 6.005859-5.865235 0.889342-2.449835 0.959785-4.881193 0.94336-6.011718-0.01024-0.792241-0.628294-1.458748-1.40625-1.53125-2.410188-0.227091-4.496512-1.575172-5.150391-2.052735-0.234208-0.171689-0.510841-0.255859-0.789063-0.255859h-0.001953zm-10.117187 1.052734c-0.03286-0.0077-0.042678 0.013419-0.054688 0.042969-0.182438 0.45017-0.220703 0.706167-0.220703 1.488281 0 0.691171 0.013344 0.84515 0.109375 1.181641 0.225647 0.782114 0.619846 1.430383 1.234375 2.035156 0.332823 0.332334 0.701837 0.600999 1.107422 0.81836-0.124647-1.067901-0.139461-1.968297-0.130859-2.546875v-0.001954-0.007812-0.005859c0.0058-0.337498 0.093618-0.654243 0.232422-0.94336-0.226709-0.207299-0.380007-0.344312-0.761719-0.703125-1.119833-1.053808-1.417043-1.33404-1.515625-1.357422zm10.11914 3.017578c1.89186 1e-6 3.678722 0.891914 4.902344 2.447266 0.16257 0.206226 0.136728 0.514153-0.05664 0.6875-0.085691 0.077211-0.188959 0.115234-0.292969 0.115234-0.13055 0-0.260973-0.058823-0.351563-0.173828-1.049162-1.333159-2.580137-2.097656-4.201172-2.097656-1.621034 0-3.151992 0.764183-4.201171 2.097656-0.090569 0.11501-0.221029 0.173828-0.351563 0.173828-0.103994 1e-6 -0.207279-0.038354-0.292969-0.115234-0.193677-0.173644-0.219213-0.480942-0.05664-0.6875 1.223933-1.555352 3.010486-2.447266 4.902343-2.447266zm0 2.070313c1.351422 0 2.627529 0.637413 3.501954 1.748047 0.162544 0.206244 0.137023 0.513856-0.056641 0.6875-0.085707 0.077211-0.188959 0.115234-0.292969 0.115234-0.130223 0-0.260972-0.058491-0.351562-0.173828-0.699655-0.889088-1.720186-1.40039-2.800782-1.40039-1.080595 0-2.101438 0.511302-2.800781 1.40039-0.090275 0.115009-0.221029 0.173828-0.351562 0.173828-0.104011 0-0.207279-0.038354-0.292969-0.115234-0.193677-0.173644-0.219198-0.480942-0.056641-0.6875 0.874097-1.110651 2.150533-1.748047 3.501953-1.748047zm0 2.150391c0.811262 0 1.57758 0.380628 2.101563 1.046875 0.16256 0.206541 0.137039 0.515791-0.056641 0.689453-0.08569 0.077213-0.190911 0.115234-0.294922 0.115234-0.130238 0-0.259019-0.060444-0.349609-0.175781-0.349819-0.444719-0.860249-0.699219-1.400391-0.699219-0.540141 0-1.050554 0.2545-1.40039 0.699219-0.090275 0.115001-0.22103 0.175781-0.351563 0.175781-0.104011 0-0.207278-0.038354-0.292968-0.115234-0.193677-0.173644-0.219214-0.482895-0.056641-0.689453 0.523967-0.666247 1.290284-1.046875 2.101562-1.046875zm-0.039062 1.855468c0.357814-0.036418 0.729319 0.174863 0.792969 0.746094 0 0.444316-0.337975 0.804688-0.753907 0.804688-0.415931 0-0.753906-0.360372-0.753906-0.804688 0.012122-0.425559 0.35703-0.709676 0.714844-0.746094zm6.986328 0.521485c-0.650329 1.637552-1.733717 3.281367-3.367187 4.488281 1.4951 1.398343 2.434831 2.261877 2.564453 2.332031 0.638532 0.331943 1.541155 0.441012 2.179687 0.263672 1.785972-0.500189 2.641284-2.3231 1.820313-3.869141-0.06721-0.127321-0.227795-0.351895-0.357422-0.501953-0.06654-0.08-1.76373-1.685819-2.839844-2.71289zm-12.990234 1.798828-0.544922 0.515625-0.671875 0.130859c-0.369678 0.07276-0.686933 0.142609-0.710938 0.15625-0.05282 0.03638-2.505289 3.559417-2.529297 3.636719-0.009599 0.04093 0.172714 0.250577 0.451172 0.509766l0.470704 0.439453 1.896484-1.181641c1.041817-0.650247 1.91846-1.209045 1.947266-1.236328 0.033609-0.03183 0.117439-0.341273 0.189453-0.691406l0.132812-0.636719 0.339844-0.322266c-0.365075-0.419821-0.687223-0.863813-0.970703-1.320312zm13.507812 1.330078c0.282057-0.03354 0.579007 0.02246 0.888672 0.167969 1.118632 0.527472 1.070038 2.009637-0.091797 2.537109-0.326469 0.150057-0.848909 0.145485-1.208984-0.013672-0.989005-0.431981-1.191333-1.633047-0.384766-2.324219 0.247252-0.211444 0.514816-0.333651 0.796875-0.367187z" style="fill:url(#linearGradient3550)"/>
</svg>
