<?xml version="1.0" encoding="UTF-8"?>
<svg id="svg13" version="1.1" viewBox="0 0 48 48" xmlns="http://www.w3.org/2000/svg" xmlns:xlink="http://www.w3.org/1999/xlink">
 <defs id="defs17">
  <linearGradient id="linearGradient1052">
   <stop id="stop1048" style="stop-color:#e3e3e3" offset="0"/>
   <stop id="stop1050" style="stop-color:#ececec;stop-opacity:.94527364" offset="1"/>
  </linearGradient>
  <linearGradient id="linearGradient1054" x1="24.40678" x2="24.813559" y1="43.525425" y2="8.7457628" gradientUnits="userSpaceOnUse" xlink:href="#linearGradient1052"/>
  <linearGradient id="linearGradient1081" x1="24.40678" x2="24.813559" y1="43.525425" y2="8.7457628" gradientTransform="matrix(.5336415 0 0 .5336415 5.4976894 16.480739)" gradientUnits="userSpaceOnUse" xlink:href="#linearGradient1052"/>
 </defs>
 <g id="g1230" transform="matrix(.73540909 0 0 .73540909 9.8226674 3.2731201)" style="stroke-width:1.3597875">
  <path id="rect4148-2" d="m2.7586205 3.5172413c-0.4203047 0-0.7586207 0.3383449-0.7586207 0.7586207v39.448276c0 0.420276 0.338316 0.758621 0.7586207 0.758621h42.482758c0.420305 0 0.758621-0.338345 0.758621-0.758621v-39.448276c0-0.4202758-0.338316-0.7586207-0.758621-0.7586207h-41.724138z" style="fill:#34495e"/>
  <rect id="rect12-6" x="3.5043848" y="8.6521521" width="40.99123" height="34.34697" rx="1.4702832" ry="1.4702832" style="fill:url(#linearGradient1054);stroke-width:.8942337"/>
 </g>
 <g id="g1234" transform="matrix(1.1293184 0 0 1.0362802 -3.0654296 .46254541)" style="stroke-width:.92438573">
  <path id="path1058" d="m6.9698038 18.357685c-0.224292 0-0.4048315 0.180555-0.4048315 0.404831v21.051238c0 0.224276 0.1805395 0.404831 0.4048315 0.404831h22.670563c0.224292 0 0.404831-0.180555 0.404831-0.404831v-21.051238c0-0.224276-0.180539-0.404831-0.404831-0.404831h-22.265732z" style="fill:#1a1a1a"/>
  <rect id="rect1070" x="7.3677745" y="21.097887" width="21.874622" height="18.328968" rx=".95744431" ry="1.0434046" style="fill:url(#linearGradient1081);stroke-width:.60790151"/>
 </g>
 <g id="g857" transform="matrix(1.2392143,0,0,1.2392143,-7.3692299,-3.821346)" style="stroke-width:.80696297">
  <path id="path969" d="m26.578482 12.338591a0.56627089 0.56647672 0 0 0-0.406966 0.318617l-1.698643 3.39852a0.56627089 0.56647672 0 0 0 0.336188 0.778827l1.415538 0.477918a0.56627089 0.56647672 0 0 0 0.176938 0.03537h0.566217a0.56627089 0.56647672 0 0 0 0.176945-0.03537l1.41553-0.477918a0.56627089 0.56647672 0 0 0 0.336196-0.778827l-1.698643-3.39852a0.56627089 0.56647672 0 0 0-0.566216-0.318617 0.56627089 0.56647672 0 0 0-0.05304 0zm-3.662695 5.380996a0.56627089 0.56647672 0 0 0-0.159251 0.05306l-3.397285 1.69926a0.56627089 0.56647672 0 0 0 0 1.02664l3.397285 1.69926a0.56627089 0.56647672 0 0 0 0.778543-0.336311l0.477744-1.416052a0.56627089 0.56647672 0 0 0 0.03536-0.17701v-0.566415a0.56627089 0.56647672 0 0 0-0.03536-0.177009l-0.477744-1.416057a0.56627089 0.56647672 0 0 0-0.619292-0.389413zm7.378474 0a0.56627089 0.56647672 0 0 0-0.46005 0.389413l-0.477736 1.416052a0.56627089 0.56647672 0 0 0-0.03536 0.177002v0.566423a0.56627089 0.56647672 0 0 0 0.03536 0.177001l0.477736 1.416053a0.56627089 0.56647672 0 0 0 0.778551 0.33631l3.397286-1.69926a0.56627089 0.56647672 0 0 0 0-1.026631l-3.397286-1.699261a0.56627089 0.56647672 0 0 0-0.318501-0.05306zm-3.627306 0.265506c-1.087787 0-1.981748 0.894294-1.981748 1.982475 0 1.088174 0.893961 1.982468 1.981748 1.982468 1.087778 0 1.981747-0.894294 1.981747-1.982468 0-1.088181-0.893969-1.982475-1.981747-1.982475zm-0.318494 4.637563a0.56627089 0.56647672 0 0 0-0.123862 0.03537l-1.415538 0.477918a0.56627089 0.56647672 0 0 0-0.336188 0.778826l1.698643 3.398521a0.56627089 0.56647672 0 0 0 1.026266 0l1.698643-3.398521a0.56627089 0.56647672 0 0 0-0.336196-0.778826l-1.41553-0.477918a0.56627089 0.56647672 0 0 0-0.176945-0.03537h-0.566217a0.56627089 0.56647672 0 0 0-0.05304 0z" style="fill:#e3e3e3;stroke-width:.62582886"/>
  <g id="g1207" transform="translate(-6.0789496,1.8058326)" style="stroke-width:.80696297">
   <path id="path971" d="m32.763599 11.099181-1.698643 3.39852 1.415531 0.477918h0.566217l1.415538-0.477918zm-3.680397 5.380995-3.397286 1.69926 3.397286 1.69926 0.477744-1.416052v-0.566423zm7.360787 0-0.477744 1.416045v0.566423l0.477744 1.416052 3.397285-1.69926zm-3.963502 4.90307-1.415531 0.477918 1.698643 3.39852 1.698643-3.39852-1.415538-0.477918z" style="fill:#1a1a1a;stroke-width:.62582886"/>
   <ellipse id="circle973" cx="32.745899" cy="18.154472" rx="1.4155358" ry="1.4160503" style="fill:#f67400;stroke-width:.62582886"/>
  </g>
 </g>
</svg>
