<?xml version="1.0" encoding="UTF-8"?>
<svg id="SVGRoot" width="48" height="48" enable-background="new -51 53 96 96" version="1.1" viewBox="-51 53 48 48" xmlns="http://www.w3.org/2000/svg">
 <path id="rect4254" d="m-32.50001 87.08333v10.083333h11v-10.083333z" style="fill:#999999"/>
 <path id="rect4173" d="m-49 56.833336h44v32.999996h-44z" style="fill:#4d4d4d"/>
 <path id="rect4295" d="m-37.083332 96.249969h20.166666v0.916643h-20.166666z" style="fill:#797474"/>
 <path id="path3072" d="m-26.083344 87.999997a0.91666666 0.91666666 0 0 1-0.916666 0.916667 0.91666666 0.91666666 0 0 1-0.916667-0.916667 0.91666666 0.91666666 0 0 1 0.916667-0.916667 0.91666666 0.91666666 0 0 1 0.916666 0.916667z" style="fill-rule:evenodd;fill:#dfdfdf;opacity:.75"/>
 <path id="rect4228" d="m-46.542629 58.845577h39.279533v27.239298h-39.279533z" style="fill:#3ecdf6"/>
 <path id="path1104" transform="translate(-51,53)" d="m24.507812 5.8457031-14.96875 26.714844h5.4414065l14.96875-26.714844h-5.441407zm9.00586 0-14.970703 26.714844h10.888672l14.304687-25.529297v-1.1855469h-10.222656z" style="fill:#d2f3fc;paint-order:stroke fill markers"/>
 <path id="rect1066" d="m-46.542629 82.846794h39.279533v3.238082h-39.279533z" style="fill:#6d6d6d"/>
 <path id="path1068" d="m-44.971211 83.65633v0.809525h0.785714v-0.809525zm0.785714 0.809525v0.809523h0.785714v-0.809523z" style="fill:#ebf1fa"/>
 <path id="ellipse1070" transform="translate(-51,53)" d="m37.3125 30.695312a0.70458192 0.77043831 0 0 0-0.705078 0.771485 0.70458192 0.77043831 0 0 0 0.705078 0.769531 0.70458192 0.77043831 0 0 0 0.705078-0.769531 0.70458192 0.77043831 0 0 0-0.705078-0.771485zm2.277344 0a0.70458192 0.77043831 0 0 0-0.705078 0.771485 0.70458192 0.77043831 0 0 0 0.705078 0.769531 0.70458192 0.77043831 0 0 0 0.705078-0.769531 0.70458192 0.77043831 0 0 0-0.705078-0.771485zm2.279297 0a0.70458192 0.77043831 0 0 0-0.705079 0.771485 0.70458192 0.77043831 0 0 0 0.705079 0.769531 0.70458192 0.77043831 0 0 0 0.703125-0.769531 0.70458192 0.77043831 0 0 0-0.703125-0.771485z" style="fill:#ebf1fa"/>
</svg>
