<?xml version="1.0" encoding="UTF-8"?>
<svg version="1.1" viewBox="0 0 64 64" xmlns="http://www.w3.org/2000/svg" xmlns:xlink="http://www.w3.org/1999/xlink">
 <defs>
  <linearGradient id="linearGradient4313" x2="0" y1="29.999729" y2="3" gradientTransform="matrix(2,0,0,2,-6.2946494e-8,-1)" gradientUnits="userSpaceOnUse">
   <stop style="stop-color:#18222a" offset="0"/>
   <stop style="stop-color:#566069" offset="1"/>
  </linearGradient>
  <linearGradient id="linearGradient4353" x1="7.00001" x2="9" gradientTransform="matrix(2,0,0,2,-6.2946494e-8,-1)" gradientUnits="userSpaceOnUse">
   <stop style="stop-color:#283845" offset="0"/>
   <stop style="stop-color:#4e575f" offset="1"/>
  </linearGradient>
  <linearGradient id="linearGradient4367" x1="24" x2="25.00001" gradientTransform="matrix(2,0,0,2,-6.2946494e-8,-1)" gradientUnits="userSpaceOnUse">
   <stop style="stop-color:#253440" offset="0"/>
   <stop style="stop-color:#566069;stop-opacity:.463277" offset="1"/>
  </linearGradient>
  <linearGradient id="linearGradient4467" x1="400.70703" x2="400.70703" y1="525.15393" y2="520.67938" gradientTransform="matrix(2,0,0,2,-769.14286,-1031.7954)" gradientUnits="userSpaceOnUse">
   <stop style="stop-color:#cccccc" offset="0"/>
   <stop style="stop-color:#f9f9f9" offset="1"/>
  </linearGradient>
 </defs>
 <path d="m32 5c-5.77592 1.7559-7.83918 2.20396-14 4-1.88838 6.6785-2.56637 11.74083-1.65625 19.40625-0.0931 0.37004-0.18543 0.77963-0.28125 1.16016l-0.0625-0.56641v0.82422c-0.20993 0.83799-0.42087 1.6659-0.60938 2.54687-0.58921 1.30769-1.39062 3.23829-1.39062 4.62891 0 1.50492 0.28073 2.62887 1.13281 5.27734 0.20913 0.90646 0.4729 1.81314 0.86719 2.72266 0.5 4.04662 1.11355 5.07389 3.46875 7.96875 4.991 2.86976 7.80053 5.02755 12.53125 6.03125 4.16574-0.7239 8.35401-3.34779 10.91797-6.04297l1.08203 0.043c2.09022-2.23618 3.47644-5.29076 4-8 2.00002-8 2.00002-6 2-8-1e-5 -1.06337-0.53295-3.66811-1.0625-6.01953-0.30941-2.04661-0.7721-4.12437-1.35938-6.39844l0.0234-3.58203 0.33203-0.40234c-0.0212-2.63596-0.24087-4.04241-0.72265-6.16797l-0.26172-0.85547-0.70703-0.39453c-0.24204-1.90718-0.71327-3.79125-1.84375-5.37891-4.7193 0.18758-9.42802-2.56364-12.39844-2.80078z" style="fill-rule:evenodd;fill:url(#linearGradient4313)"/>
 <path d="m16.29297 27.89844c0.0163 0.16906 0.0299 0.33158 0.0508 0.50781-0.0931 0.37004-0.18543 0.77963-0.28125 1.16016l-0.0625-0.56641v0.82422c-0.20993 0.83799-0.42087 1.6659-0.60938 2.54687-0.58921 1.30769-1.39062 3.23829-1.39062 4.62891 0 1.50492 0.28073 2.62887 1.13281 5.27734 0.20913 0.90646 0.4729 1.81314 0.86719 2.72266 0.0667 0.54005 0.14834 0.93635 0.22656 1.35938 3.1061-8.47572 0.77895-16.39017 0.0664-18.46094z" style="fill-rule:evenodd;fill:url(#linearGradient4353)"/>
 <path d="m47.82422 25.61719-1.61328 24.21093c0.8558-1.5793 1.4848-3.25367 1.78906-4.82812 2.00002-8 2.00002-6 2-8-1e-5 -1.06337-0.53295-3.66811-1.0625-6.01953-0.26067-1.72425-0.65217-3.49604-1.11328-5.36328z" style="fill-rule:evenodd;fill:url(#linearGradient4367)"/>
 <path d="m32 5.00005c-0.21061 0.0443-0.29888 0.058-0.5 0.10001v17.55377c0 0.19177 0.223 0.34615 0.5 0.34615s0.5-0.15438 0.5-0.34615v-17.59703c-0.16515-0.0177-0.34417-0.0481-0.5-0.0568z" style="fill:#9cb3c3"/>
 <path d="m30.50003 10h2.99995c0.277 0 0.5 0.223 0.5 0.5v7c0 0.277-0.223 0.5-0.5 0.5h-2.99995c-0.277 0-0.5-0.223-0.5-0.5v-7c0-0.277 0.223-0.5 0.5-0.5z" style="fill:url(#linearGradient4467)"/>
</svg>
