<?xml version="1.0" encoding="UTF-8"?>
<svg id="SVGRoot" width="48" height="48" enable-background="new -51 53 96 96" version="1.1" viewBox="-51 53 48 48" xmlns="http://www.w3.org/2000/svg">
<defs>
<linearGradient id="linearGradient893" x1="26.550262" x2="26.550262" y1="579.38257" y2="711.36957" gradientTransform="matrix(.34001978 0 0 -.34055744 -35.214055 297.0927)" gradientUnits="userSpaceOnUse">
<stop stop-color="#197ff1" offset="0"/>
<stop stop-color="#21c6fb" offset="1"/>
</linearGradient>
</defs>
<g>
<circle cx="-27" cy="77" r="23" fill="url(#linearGradient893)" style="paint-order:stroke fill markers"/>
<path d="m-26.971875 65c-0.43142827 0-0.81807265 0.260584-1.0072269 0.671875-0.72701952 1.4766637-1.4874821 3.0116358-2.1515686 4.489584v4.015625l-5.8060485 8.902777c-0.0408746 0.06237-0.0632813 0.135599-0.0632813 0.21007v2.225694c0 0.213961 0.17570723 0.387153 0.39199241 0.387153h4.3031249v0.387153c0 0.21396 0.17570723 0.387153 0.39199241 0.387153h1.1742185v1.935763c0 0.21396 0.17394851 0.387153 0.39023471 0.387153h4.696874c0.2162862 0 0.39023471-0.173193 0.39023471-0.387153v-1.935763h1.1742185c0.21628417 0 0.3919924-0.173193 0.3919924-0.387153v-0.387153h4.303125c0.2162862 0 0.39199241-0.173192 0.39199241-0.387153v-2.361111c0-0.07523-0.021627-0.148678-0.0632812-0.211805l-5.8060546-8.769098v-4.012152c-0.60778306-1.49794-1.3863085-3.0015563-2.0900389-4.480903-0.19297541-0.41923-0.58107172-0.680556-1.0125-0.680556z" fill="#ffffff"/>
</g>
</svg>
