<?xml version="1.0" encoding="UTF-8"?>
<svg id="svg22" version="1.1" viewBox="0 0 48 48" xmlns="http://www.w3.org/2000/svg">
 <defs id="defs26">
  <linearGradient id="b-3-1" x1="399.9939" x2="399.9939" y1="545.13873" y2="518.13873" gradientTransform="matrix(1.6428584,0,0,1.6428584,-634.08211,-849.66872)" gradientUnits="userSpaceOnUse">
   <stop id="stop7-6-2" stop-color="#197ff1" offset="0"/>
   <stop id="stop9-7-7" stop-color="#21c6fb" offset="1"/>
  </linearGradient>
 </defs>
 <path id="circle12-6" d="M 46.999895,23.999949 A 22.999949,22.999949 0 0 1 23.999947,46.999897 22.999949,22.999949 0 0 1 0.99999809,23.999949 22.999949,22.999949 0 0 1 23.999947,1 22.999949,22.999949 0 0 1 46.999895,23.999949 Z" style="fill:url(#b-3-1);stroke-width:2.1357157"/>
 <path id="path18" d="m23.999998 12.999998c1.210002 0 2.200002 0.99 2.200002 2.200002 0 1.210003-0.99 2.200003-2.200002 2.200003-1.210003 0-2.200003-0.99-2.200003-2.200003 0-1.210002 0.99-2.200002 2.200003-2.200002zm9.899999 7.700005h-6.6v14.299995h-2.200002v-6.599999h-2.199994v6.599999h-2.200003v-14.299995h-6.599999v-2.200003h19.799998z" style="fill:#ffffff"/>
</svg>
