<?xml version="1.0" encoding="UTF-8"?>
<svg id="svg5453" version="1.1" viewBox="0 0 48 48" xmlns="http://www.w3.org/2000/svg" xmlns:xlink="http://www.w3.org/1999/xlink">
 <defs id="defs5455">
  <linearGradient id="linearGradient5578" x1="24.138405" x2="24.276943" y1="35.79874" y2="6.2055192" gradientTransform="matrix(.91666665 0 0 .91666665 1.9999893 .1666648)" gradientUnits="userSpaceOnUse">
   <stop id="stop919" style="stop-color:#2f4e6d" offset="0"/>
   <stop id="stop921" style="stop-color:#3b6289" offset="1"/>
  </linearGradient>
 </defs>
 <g id="g1041">
  <path id="rect4254" d="m18.499989 34.083331v10.083334h11v-10.083334z" style="fill:#999999"/>
  <path id="rect4173" d="m2 3.8333354h44v32.999997h-44z" style="fill:#4d4d4d"/>
  <path id="rect4295" d="m13.916666 43.249973h20.166666v0.916643h-20.166666z" style="fill:#797474"/>
  <path id="path3072" d="m24.916656 34.999999a0.91666665 0.91666665 0 0 1-0.916667 0.916666 0.91666665 0.91666665 0 0 1-0.916667-0.916666 0.91666665 0.91666665 0 0 1 0.916667-0.916668 0.91666665 0.91666665 0 0 1 0.916667 0.916668z" style="fill-rule:evenodd;fill:#dfdfdf;opacity:.75"/>
  <path id="rect4228" d="m4.4573684 5.8455777h39.279534v27.239298h-39.279534z" style="fill:url(#linearGradient5578)"/>
  <path id="path4174" d="m18.043995 19.615873a2.4734302 2.5391598 0 0 1-2.47343 2.53916 2.4734302 2.5391598 0 0 1-2.47343-2.53916 2.4734302 2.5391598 0 0 1 2.47343-2.539159 2.4734302 2.5391598 0 0 1 2.47343 2.539159z" style="fill:#c1cede"/>
  <path id="ellipse4278" d="m27.451273 19.465227a3.3541393 3.4432733 0 0 1-3.354139 3.443273 3.3541393 3.4432733 0 0 1-3.35414-3.443273 3.3541393 3.4432733 0 0 1 3.35414-3.443273 3.3541393 3.4432733 0 0 1 3.354139 3.443273z" style="fill:#c1cede"/>
  <path id="ellipse4286" d="m35.097133 19.615873a2.4734302 2.5391598 0 0 1-2.47343 2.53916 2.4734302 2.5391598 0 0 1-2.47343-2.53916 2.4734302 2.5391598 0 0 1 2.47343-2.539159 2.4734302 2.5391598 0 0 1 2.47343 2.539159z" style="fill:#c1cede"/>
 </g>
</svg>
