<?xml version="1.0" encoding="UTF-8"?>
<svg version="1.1" viewBox="0 0 48 48" xmlns="http://www.w3.org/2000/svg" xmlns:xlink="http://www.w3.org/1999/xlink">
 <title>drive-harddisk-linux-48px</title>
 <desc>Created with Sketch.</desc>
 <defs>
  <linearGradient id="linearGradient4575-6" x1="-26.63039" x2="-26.63039" y1="-100.24435" y2="-55.66119" gradientTransform="translate(50.999995,53.000106)" gradientUnits="userSpaceOnUse">
   <stop style="stop-color:#53e418" offset="0"/>
   <stop style="stop-color:#80ed54" offset="1"/>
  </linearGradient>
  <linearGradient id="linearGradient892" x1="-24.40678" x2="-24.40678" y1="30.305084" y2="11.593221" gradientTransform="translate(49.220339,3.254237)" gradientUnits="userSpaceOnUse">
   <stop style="stop-color:#4c4c4d" offset="0"/>
   <stop style="stop-color:#59595a" offset="1"/>
  </linearGradient>
 </defs>
 <circle transform="scale(1,-1)" cx="24" cy="-24" r="23" style="fill:url(#linearGradient4575-6);stroke-width:.99999994"/>
 <g transform="matrix(1.0833333,0,0,1.0833333,-1.9999992,-1.9999992)" style="stroke-width:.92307693">
  <path d="m18 14.5a6.0000002 5.5416665 0 0 0-6 5.542284v10.29043c0 1.754335 1.91087 3.167286 4.285157 3.167286 2.374284 0 4.287109-1.412951 4.287109-3.167286v-3.16543h6.855468v3.16543c0 1.754335 1.912825 3.167286 4.28711 3.167286 2.374287 0 4.285156-1.412951 4.285156-3.167286v-10.29043a6.0000002 5.5416665 0 0 0-6-5.542284 6.0000002 5.5416665 0 0 0-4.199218 1.582714h-3.609376a6.0000002 5.5416665 0 0 0-4.191406-1.582714z" style="fill:url(#linearGradient892);paint-order:fill markers stroke;stroke-width:.92307693"/>
  <path d="m16.714844 18.3h1.71289v1.582716h1.714845v1.584568h-1.714845v1.582716h-1.71289v-1.582716h-1.714844v-1.584568h1.714844z" style="fill:#f9f9f9;paint-order:fill markers stroke;stroke-width:.92307693"/>
  <path d="m30.571901 18.299159c-0.473399 0-0.857421 0.353793-0.857421 0.791016 0 0.437221 0.384021 0.792968 0.857421 0.792968 0.473397 0 0.857422-0.355747 0.857422-0.792968 0-0.437223-0.384025-0.791016-0.857422-0.791016zm-1.714843 1.583984c-0.473375 0-0.857422 0.353793-0.857422 0.791016 0 0.437219 0.384047 0.791016 0.857422 0.791016 0.473389 0 0.857422-0.353797 0.857422-0.791016 0-0.437225-0.384033-0.791016-0.857422-0.791016zm3.429687 0c-0.47339 0-0.857422 0.353793-0.857422 0.791016 0 0.437219 0.384032 0.791016 0.857422 0.791016 0.473375 0 0.857422-0.353797 0.857422-0.791016 0-0.437225-0.384047-0.791016-0.857422-0.791016zm-1.714844 1.582032c-0.473393-1e-6 -0.857421 0.355746-0.857421 0.792968 0 0.437223 0.384028 0.791016 0.857421 0.791016 0.473399 0 0.857422-0.353795 0.857422-0.791016 0-0.437222-0.384024-0.792968-0.857422-0.792968z" style="fill:#3fc0ff;paint-order:fill markers stroke;stroke-width:.92307693"/>
 </g>
</svg>
