<?xml version="1.0" encoding="UTF-8"?>
<svg id="svg13" version="1.1" viewBox="0 0 48 48" xmlns="http://www.w3.org/2000/svg" xmlns:xlink="http://www.w3.org/1999/xlink">
 <defs id="defs17">
  <linearGradient id="linearGradient906" x1="-37.423729" x2="-37.423729" y1="41.694916" y2="10.372881" gradientTransform="translate(60.941045 -.3995987)" gradientUnits="userSpaceOnUse">
   <stop id="stop900" style="stop-color:#ececec" offset="0"/>
   <stop id="stop902" style="stop-color:#fcfcfc" offset="1"/>
  </linearGradient>
  <linearGradient id="linearGradient898" x1="-37.627117" x2="-37.627117" y1="44.949154" y2="3.6610169" gradientTransform="translate(60.941045 -.3995987)" gradientUnits="userSpaceOnUse">
   <stop id="stop892" style="stop-color:#34495e" offset="0"/>
   <stop id="stop894" style="stop-color:#45617d" offset="1"/>
  </linearGradient>
 </defs>
 <path id="rect834" d="m2 4h44v40h-44z" style="fill:url(#linearGradient898);paint-order:stroke fill markers"/>
 <path id="rect855" d="m4 9.9999981h40v32h-40z" style="fill:url(#linearGradient906);paint-order:stroke fill markers"/>
 <path id="circle878" d="m36.326172 6.0039062a0.9889245 0.96561652 0 0 0-0.988281 0.9667969 0.9889245 0.96561652 0 0 0 0.988281 0.9648438 0.9889245 0.96561652 0 0 0 0.988281-0.9648438 0.9889245 0.96561652 0 0 0-0.988281-0.9667969zm3.341797 0a0.9889245 0.96561652 0 0 0-0.988281 0.9667969 0.9889245 0.96561652 0 0 0 0.988281 0.9648438 0.9889245 0.96561652 0 0 0 0.990234-0.9648438 0.9889245 0.96561652 0 0 0-0.990234-0.9667969zm3.34375 0a0.9889245 0.96561652 0 0 0-0.990235 0.9667969 0.9889245 0.96561652 0 0 0 0.990235 0.9648438 0.9889245 0.96561652 0 0 0 0.988281-0.9648438 0.9889245 0.96561652 0 0 0-0.988281-0.9667969z" style="fill:#ff5555"/>
 <path id="path4" class="ColorScheme-Text" d="m32.175421 27.820718v0.88994h-3.41229v0.889941h0.853072v8.8994h8.530725v-8.8994h0.853072v-0.889941h-3.41229v-0.88994zm0.853072 0.88994h1.706145v0.889941h2.559217v8.00946h-6.824579v-8.00946h2.559217zm-0.853072 2.669821v4.4497h0.853072v-4.4497zm2.559217 0v4.4497h0.853072v-4.4497z" style="color:#4d4d4d;fill:#212121"/>
 <path id="path7078" d="m11.984126 29.082483c-0.191084 7.65e-4 -0.410837 0.05101-0.635439 0.168007-0.817983 0.419707-1.5706785 1.794125-1.9796705 3.576116-0.3486401 1.513716-0.4766825 3.583642-0.2688355 4.416189 0.1810211 0.71557 0.4944317 1.032087 1.050904 1.032087 0.824684-0.01371 1.86029-0.907972 2.517343-2.112093 0.475224-0.666553 1.577381-0.969643 2.639561-0.936079 1.0621-0.03617 2.164256 0.269486 2.639559 0.936079 0.657051 1.204121 1.692658 2.098344 2.517344 2.112093 0.556488 0 0.869866-0.316479 1.050905-1.032087 0.207845-0.832547 0.07981-2.902473-0.268839-4.416189-0.408983-1.782067-1.161685-3.156464-1.979671-3.576116-0.449202-0.233934-0.82019-0.227054-1.148674 0-0.415687 0.288979-1.281933 0.598743-2.810587 0.600027-1.528652 0.0015-2.394889-0.311048-2.810583-0.600027-0.16426-0.113532-0.322155-0.168868-0.513238-0.168007zm0.195523 2.304099h0.782074v0.768034h0.782084v0.768032h-0.782084v0.768034h-0.782074v-0.768034h-0.782083v-0.768032h0.782083zm5.865603 0c0.215967 0 0.391034 0.171932 0.391034 0.384016 0 0.212085-0.175067 0.384018-0.391034 0.384018-0.215971 0-0.391039-0.171933-0.391039-0.384018 0-0.212084 0.175068-0.384016 0.391039-0.384016zm-0.782085 0.768034c0.215969 0 0.391046 0.171931 0.391046 0.384015 0 0.212085-0.175077 0.384017-0.391046 0.384017-0.21596 0-0.391036-0.171932-0.391036-0.384017 0-0.212084 0.175076-0.384015 0.391036-0.384015zm1.564136 0c0.215959 0 0.391037 0.171931 0.391037 0.384015 0 0.212085-0.175078 0.384017-0.391037 0.384017-0.21597 0-0.391046-0.171932-0.391046-0.384017 0-0.212084 0.175076-0.384015 0.391046-0.384015zm-0.782086 0.768032c0.215972 0 0.39104 0.171932 0.39104 0.384017s-0.175068 0.384017-0.39104 0.384017c-0.215967 0-0.391034-0.171932-0.391034-0.384017s0.175067-0.384017 0.391034-0.384017z" style="fill:#212121;stroke-width:.59945649"/>
 <path id="folderGlyph" d="m13.377358 13.499999v1.615681l1.995114-1.600979 5.985344 4.802771-0.644905 0.7212-5.340439-4.286401-5.340438 4.286401-0.6449052-0.7212 2.9926722-2.401303v-2.41617zm6.982901 4.2494v7.082332h-9.975573v-7.082332h0.997557v6.137966h2.992672v-3.777134h1.995115v3.777134h2.992672v-6.137966z" style="color-rendering:auto;color:#000000;fill:#212121;image-rendering:auto;isolation:auto;mix-blend-mode:normal;shape-rendering:auto;solid-color:#000000"/>
 <path id="path4-5" class="ColorScheme-NegativeText" d="m32.175419 14.228865v0.889941h-3.412289v0.889938h0.853072v8.899402h8.530726v-8.899402h0.85307v-0.889938h-3.412289v-0.889941zm0.853073 0.889941h1.706146v0.889938h2.559216v8.009462h-6.824579v-8.009462h2.559217zm-0.853073 2.669819v4.449701h0.853073v-4.449701zm2.559219 0v4.449701h0.853071v-4.449701z" style="color:#da4453;fill:#d61629"/>
</svg>
