<?xml version="1.0" encoding="UTF-8"?>
<svg version="1.1" viewBox="0 0 48 48" xmlns="http://www.w3.org/2000/svg">
<defs>
<linearGradient id="c-3" x1="32" x2="32" y1="1017.8702" y2="1015.3622" gradientTransform="matrix(.81818174 0 0 1.0000001 -2.9999985 -994.86216)" gradientUnits="userSpaceOnUse" spreadMethod="reflect">
<stop stop-color="#007fcc" offset="0"/>
<stop stop-color="#d3ffd8" offset="1"/>
</linearGradient>
<linearGradient id="linearGradient913" x1="23.690435" x2="23.690435" y1="42.866085" y2="5.3008695" gradientTransform="translate(0 .075000005)" gradientUnits="userSpaceOnUse">
<stop stop-color="#3889e9" offset="0"/>
<stop stop-color="#5ea5fb" offset="1"/>
</linearGradient>
</defs>
<g>
<path d="m12 5h24c1.108 0 2 0.892 2 2v34c0 1.108-0.892 2-2 2h-24c-1.108 0-2-0.892-2-2v-34c0-1.108 0.892-2 2-2z" fill="url(#linearGradient913)" style="paint-order:fill markers stroke"/>
<path d="m6 20.5h36v5h-36z" fill="url(#c-3)" opacity=".91000001"/>
<path d="m6 22.5h36v1h-36z" fill="#ffffff"/>
<path d="m7 2v6h1v-5h5v-1z" fill="#285b99" style="paint-order:fill markers stroke"/>
<path d="m7 46v-6h1v5h5v1z" fill="#285b99" style="paint-order:fill markers stroke"/>
<path d="m41 2v6h-1v-5h-5v-1z" fill="#285b99" style="paint-order:fill markers stroke"/>
<path d="m41 46v-6h-1v5h-5v1z" fill="#285b99" style="paint-order:fill markers stroke"/>
<path d="m20 11h12v1h-12z" fill="#ffffff" style="paint-order:fill markers stroke"/>
<path d="m16 14h16v1h-16z" fill="#ffffff" style="paint-order:fill markers stroke"/>
<path d="m16 17h16v1h-16z" fill="#ffffff" style="paint-order:fill markers stroke"/>
</g>
</svg>
