<?xml version="1.0" encoding="UTF-8"?>
<svg version="1.1" viewBox="0 0 48 48" xmlns="http://www.w3.org/2000/svg">
<defs>
<linearGradient id="linearGradient1261" x1="24.777779" x2="6" y1="44" y2="12" gradientTransform="matrix(1.3846154,0,0,1,-2.3076923,2)" gradientUnits="userSpaceOnUse">
<stop stop-color="#ffd700" offset="0"/>
<stop stop-color="#ffff00" offset="1"/>
</linearGradient>
<linearGradient id="linearGradient1301" x1="32" x2="37" y1="38.953079" y2="12" gradientTransform="translate(1,2)" gradientUnits="userSpaceOnUse">
<stop stop-color="#808080" offset="0"/>
<stop stop-color="#969696" offset="1"/>
</linearGradient>
<linearGradient id="linearGradient1279" x1="42" x2="37" y1="39.02116" y2="12" gradientTransform="translate(1,2)" gradientUnits="userSpaceOnUse">
<stop stop-color="#545454" offset="0"/>
<stop stop-color="#7c7c7c" stop-opacity=".93725491" offset="1"/>
</linearGradient>
<linearGradient id="linearGradient1277" x1="32" x2="42" y1="40" y2="40" gradientTransform="translate(1,2)" gradientUnits="userSpaceOnUse">
<stop stop-color="#4d4d4d" offset="0"/>
<stop stop-color="#6c6c6c" stop-opacity=".93725491" offset="1"/>
</linearGradient>
</defs>
<g>
<path d="M 29,2 C 25.1219571,2 22,5.2333734 22,9.2109375 V 14.5 h 1 V 9.2109375 C 23,5.7532384 25.6760429,3 29,3 c 3.3239571,0 6,2.7532384 6,6.2109375 V 14.5 h 1 V 9.2109375 C 36,5.2333734 32.8780429,2 29,2 Z" color="#000000" color-rendering="auto" dominant-baseline="auto" fill="#545454" image-rendering="auto" shape-rendering="auto" solid-color="#000000" style="font-feature-settings:normal;font-variant-alternates:normal;font-variant-caps:normal;font-variant-ligatures:normal;font-variant-numeric:normal;font-variant-position:normal;isolation:auto;mix-blend-mode:normal;paint-order:fill markers stroke;shape-padding:0;text-decoration-color:#000000;text-decoration-line:none;text-decoration-style:solid;text-indent:0;text-orientation:mixed;text-transform:none;white-space:normal"/>
<path d="m5 12v34h38v-34zm7.5 2.5c0.82842712 0 1.5 0.67157288 1.5 1.5s-0.67157288 1.5-1.5 1.5-1.5-0.67157288-1.5-1.5 0.67157288-1.5 1.5-1.5zm13 0c0.82842712 0 1.5 0.67157288 1.5 1.5s-0.67157288 1.5-1.5 1.5-1.5-0.67157288-1.5-1.5 0.67157288-1.5 1.5-1.5z" color="#000000" color-rendering="auto" dominant-baseline="auto" fill="url(#linearGradient1261)" image-rendering="auto" shape-rendering="auto" solid-color="#000000" style="font-feature-settings:normal;font-variant-alternates:normal;font-variant-caps:normal;font-variant-ligatures:normal;font-variant-numeric:normal;font-variant-position:normal;isolation:auto;mix-blend-mode:normal;paint-order:fill markers stroke;shape-padding:0;text-decoration-color:#000000;text-decoration-line:none;text-decoration-style:solid;text-indent:0;text-orientation:mixed;text-transform:none;white-space:normal"/>
<path d="m33 12v34h10v-34z" color="#000000" color-rendering="auto" dominant-baseline="auto" fill="url(#linearGradient1301)" image-rendering="auto" shape-rendering="auto" solid-color="#000000" style="font-feature-settings:normal;font-variant-alternates:normal;font-variant-caps:normal;font-variant-ligatures:normal;font-variant-numeric:normal;font-variant-position:normal;isolation:auto;mix-blend-mode:normal;paint-order:fill markers stroke;shape-padding:0;text-decoration-color:#000000;text-decoration-line:none;text-decoration-style:solid;text-indent:0;text-orientation:mixed;text-transform:none;white-space:normal"/>
<path d="m38 12v34h5v-34z" color="#000000" color-rendering="auto" dominant-baseline="auto" fill="url(#linearGradient1279)" image-rendering="auto" shape-rendering="auto" solid-color="#000000" style="font-feature-settings:normal;font-variant-alternates:normal;font-variant-caps:normal;font-variant-ligatures:normal;font-variant-numeric:normal;font-variant-position:normal;isolation:auto;mix-blend-mode:normal;paint-order:fill markers stroke;shape-padding:0;text-decoration-color:#000000;text-decoration-line:none;text-decoration-style:solid;text-indent:0;text-orientation:mixed;text-transform:none;white-space:normal"/>
<path d="m38 38 5 8h-10z" fill="url(#linearGradient1277)" style="paint-order:fill markers stroke"/>
<path d="m19 2c-3.8780429 0-7 3.2333734-7 7.2109375v4.8613281c-0.8581098 0.22478884-1.5 1.0024289-1.5 1.9277344 0 1.0986472 0.90135282 2 2 2s2-0.90135282 2-2c0-0.92530551-0.6418902-1.7029455-1.5-1.9277344v-4.8613281c0-3.4576991 2.6760429-6.2109375 6-6.2109375s6 2.7532384 6 6.2109375v4.8613281c-0.8581098 0.22478884-1.5 1.0024289-1.5 1.9277344 0 1.0986472 0.90135282 2 2 2s2-0.90135282 2-2c0-0.92530551-0.6418902-1.7029455-1.5-1.9277344v-4.8613281c0-3.9775641-3.1219571-7.2109375-7-7.2109375zm-6.5 13c0.55820707 0 1 0.44179293 1 1s-0.44179293 1-1 1-1-0.44179293-1-1 0.44179293-1 1-1zm13 0c0.55820707 0 1 0.44179293 1 1s-0.44179293 1-1 1-1-0.44179293-1-1 0.44179293-1 1-1z" color="#000000" color-rendering="auto" dominant-baseline="auto" fill="#696969" image-rendering="auto" shape-rendering="auto" solid-color="#000000" style="font-feature-settings:normal;font-variant-alternates:normal;font-variant-caps:normal;font-variant-ligatures:normal;font-variant-numeric:normal;font-variant-position:normal;isolation:auto;mix-blend-mode:normal;paint-order:fill markers stroke;shape-padding:0;text-decoration-color:#000000;text-decoration-line:none;text-decoration-style:solid;text-indent:0;text-orientation:mixed;text-transform:none;white-space:normal"/>
<path d="m17.513672 23c-0.46599319 0.96935434-0.91805813 1.9650544-1.3574219 2.9882812-0.42607098 1.0097038-0.86960181 2.076159-1.3222656 3.2070312-0.10006355 0.25754294-0.19935787 0.53554418-0.30078126 0.80078125h2.9628906c0.0318638-0.08833 0.06810067-0.18644304 0.09960937-0.2734375 0.21302269-0.55200777 0.40111643-1.0540218 0.57421876-1.5117188 0.17309682-0.45777292 0.32387949-0.86092151 0.45703124-1.2109375 0.13313345-0.35002786 0.23421499-0.62807534 0.30078126-0.83007812 0.07987909 0.20200279 0.18520212 0.47996885 0.31835937 0.83007812 0.13314536 0.35001596 0.29176523 0.75318834 0.46484375 1.2109375 0.18640149 0.45769699 0.37447692 0.959711 0.57421875 1.5117188 0.031507 0.0869945 0.0677995 0.18510656 0.09960937 0.2734375h3.0722656c-0.10381544-0.26531299-0.20742505-0.54316147-0.31054687-0.80078125-0.44041977-1.1309646-0.8830126-2.1973576-1.3222656-3.2070312-0.43953944-1.0230869-0.88717995-2.0188454-1.3398438-2.9882812h-2.9707031zm-4.0546875 7.5800781c-0.80791333 0-1.4589844 0.64940609-1.4589844 1.4570313 0 0.80762513 0.6510711 1.4589844 1.4589844 1.4589844h11.083984c0.80791241 0 1.4570312-0.65135929 1.4570312-1.4589844 0-0.80762514-0.64911888-1.4570313-1.4570312-1.4570313h-11.083984zm11.494141 3.4511719c-1.0886654 0.10247783-2.182391 0.02648033-3.2734375 0.04882812 0.31815222 0.96291254 0.67011625 1.9120848 0.9765625 2.8789063 1.1130226 0.07856939 2.2274602 0.01485755 3.3417969 0.03515624-0.34509645-0.9888892-0.67780265-1.9818409-1.0449219-2.9628906zm-11.914062 0.00195312c-0.35173734 0.98514965-0.69882795 1.9717491-1.0390625 2.9609375h3.2363281c0.29060221-0.98418822 0.65048396-1.94616 0.984375-2.9160156-1.0601398-0.0238023-2.12373 0.05337912-3.1816406-0.04492188z" fill="#545454"/>
</g>
</svg>
