<?xml version="1.0" encoding="UTF-8"?>
<svg version="1.1" viewBox="0 0 48 48" xmlns="http://www.w3.org/2000/svg">
<defs>
<linearGradient id="linearGradient1261" x1="24.777779" x2="6" y1="44" y2="12" gradientTransform="matrix(1.3846154,0,0,1,-2.3076923,2)" gradientUnits="userSpaceOnUse">
<stop stop-color="#ffd700" offset="0"/>
<stop stop-color="#ffff00" offset="1"/>
</linearGradient>
<linearGradient id="linearGradient1301" x1="32" x2="37" y1="38.953079" y2="12" gradientTransform="translate(1,2)" gradientUnits="userSpaceOnUse">
<stop stop-color="#808080" offset="0"/>
<stop stop-color="#969696" offset="1"/>
</linearGradient>
<linearGradient id="linearGradient1279" x1="42" x2="37" y1="39.02116" y2="12" gradientTransform="translate(1,2)" gradientUnits="userSpaceOnUse">
<stop stop-color="#545454" offset="0"/>
<stop stop-color="#7c7c7c" stop-opacity=".93725491" offset="1"/>
</linearGradient>
<linearGradient id="linearGradient1277" x1="32" x2="42" y1="40" y2="40" gradientTransform="translate(1,2)" gradientUnits="userSpaceOnUse">
<stop stop-color="#4d4d4d" offset="0"/>
<stop stop-color="#6c6c6c" stop-opacity=".93725491" offset="1"/>
</linearGradient>
</defs>
<g>
<path d="M 29,2 C 25.1219571,2 22,5.2333734 22,9.2109375 V 14.5 h 1 V 9.2109375 C 23,5.7532384 25.6760429,3 29,3 c 3.3239571,0 6,2.7532384 6,6.2109375 V 14.5 h 1 V 9.2109375 C 36,5.2333734 32.8780429,2 29,2 Z" color="#000000" color-rendering="auto" dominant-baseline="auto" fill="#545454" image-rendering="auto" shape-rendering="auto" solid-color="#000000" style="font-feature-settings:normal;font-variant-alternates:normal;font-variant-caps:normal;font-variant-ligatures:normal;font-variant-numeric:normal;font-variant-position:normal;isolation:auto;mix-blend-mode:normal;paint-order:fill markers stroke;shape-padding:0;text-decoration-color:#000000;text-decoration-line:none;text-decoration-style:solid;text-indent:0;text-orientation:mixed;text-transform:none;white-space:normal"/>
<path d="m5 12v34h38v-34zm7.5 2.5c0.82842712 0 1.5 0.67157288 1.5 1.5s-0.67157288 1.5-1.5 1.5-1.5-0.67157288-1.5-1.5 0.67157288-1.5 1.5-1.5zm13 0c0.82842712 0 1.5 0.67157288 1.5 1.5s-0.67157288 1.5-1.5 1.5-1.5-0.67157288-1.5-1.5 0.67157288-1.5 1.5-1.5z" color="#000000" color-rendering="auto" dominant-baseline="auto" fill="url(#linearGradient1261)" image-rendering="auto" shape-rendering="auto" solid-color="#000000" style="font-feature-settings:normal;font-variant-alternates:normal;font-variant-caps:normal;font-variant-ligatures:normal;font-variant-numeric:normal;font-variant-position:normal;isolation:auto;mix-blend-mode:normal;paint-order:fill markers stroke;shape-padding:0;text-decoration-color:#000000;text-decoration-line:none;text-decoration-style:solid;text-indent:0;text-orientation:mixed;text-transform:none;white-space:normal"/>
<path d="m33 12v34h10v-34z" color="#000000" color-rendering="auto" dominant-baseline="auto" fill="url(#linearGradient1301)" image-rendering="auto" shape-rendering="auto" solid-color="#000000" style="font-feature-settings:normal;font-variant-alternates:normal;font-variant-caps:normal;font-variant-ligatures:normal;font-variant-numeric:normal;font-variant-position:normal;isolation:auto;mix-blend-mode:normal;paint-order:fill markers stroke;shape-padding:0;text-decoration-color:#000000;text-decoration-line:none;text-decoration-style:solid;text-indent:0;text-orientation:mixed;text-transform:none;white-space:normal"/>
<path d="m38 12v34h5v-34z" color="#000000" color-rendering="auto" dominant-baseline="auto" fill="url(#linearGradient1279)" image-rendering="auto" shape-rendering="auto" solid-color="#000000" style="font-feature-settings:normal;font-variant-alternates:normal;font-variant-caps:normal;font-variant-ligatures:normal;font-variant-numeric:normal;font-variant-position:normal;isolation:auto;mix-blend-mode:normal;paint-order:fill markers stroke;shape-padding:0;text-decoration-color:#000000;text-decoration-line:none;text-decoration-style:solid;text-indent:0;text-orientation:mixed;text-transform:none;white-space:normal"/>
<path d="m38 38 5 8h-10z" fill="url(#linearGradient1277)" style="paint-order:fill markers stroke"/>
<path d="m19 2c-3.8780429 0-7 3.2333734-7 7.2109375v4.8613281c-0.8581098 0.22478884-1.5 1.0024289-1.5 1.9277344 0 1.0986472 0.90135282 2 2 2s2-0.90135282 2-2c0-0.92530551-0.6418902-1.7029455-1.5-1.9277344v-4.8613281c0-3.4576991 2.6760429-6.2109375 6-6.2109375s6 2.7532384 6 6.2109375v4.8613281c-0.8581098 0.22478884-1.5 1.0024289-1.5 1.9277344 0 1.0986472 0.90135282 2 2 2s2-0.90135282 2-2c0-0.92530551-0.6418902-1.7029455-1.5-1.9277344v-4.8613281c0-3.9775641-3.1219571-7.2109375-7-7.2109375zm-6.5 13c0.55820707 0 1 0.44179293 1 1s-0.44179293 1-1 1-1-0.44179293-1-1 0.44179293-1 1-1zm13 0c0.55820707 0 1 0.44179293 1 1s-0.44179293 1-1 1-1-0.44179293-1-1 0.44179293-1 1-1z" color="#000000" color-rendering="auto" dominant-baseline="auto" fill="#696969" image-rendering="auto" shape-rendering="auto" solid-color="#000000" style="font-feature-settings:normal;font-variant-alternates:normal;font-variant-caps:normal;font-variant-ligatures:normal;font-variant-numeric:normal;font-variant-position:normal;isolation:auto;mix-blend-mode:normal;paint-order:fill markers stroke;shape-padding:0;text-decoration-color:#000000;text-decoration-line:none;text-decoration-style:solid;text-indent:0;text-orientation:mixed;text-transform:none;white-space:normal"/>
<path d="m14.5 24c-0.27217091 2.18e-6 -0.52212436 0.0670909-0.75195382 0.20117237-0.22985345 0.13407054-0.41273236 0.31515381-0.54687381 0.54492218-0.13416764 0.22976727-0.20117237 0.48186-0.20117237 0.75390545 0 0.27206946 0.0670582 0.52216037 0.20117237 0.75195382 0.13414145 0.22971818 0.31506872 0.41278146 0.54492218 0.54687382 0.22985236 0.13409345 0.48173454 0.20117236 0.75390545 0.20117236 0.27216982 0 0.524076-0.06708 0.75390546-0.20117236 0.22983054-0.13406836 0.41077854-0.31713055 0.54492218-0.54687382 0.13411963-0.22976945 0.20117236-0.47990836 0.20117236-0.75195382 0-0.27206945-0.06708-0.52416218-0.20117236-0.75390545-0.13414364-0.22974437-0.31509164-0.41082764-0.54492218-0.54492218-0.22987746-0.13409346-0.48171164-0.20117237-0.75390546-0.20117237z" fill="#545454"/>
<path d="m19.001952 24c-0.27217091 0-0.524076 0.0670364-0.75390655 0.20117237-0.22985236 0.13411963-0.41273127 0.31702145-0.54687381 0.54687491-0.13416764 0.22985236-0.20117237 0.47980581-0.20117237 0.75195272 0 0.27217091 0.0670582 0.52402909 0.20117237 0.75390546 0.13414254 0.22980545 0.31702145 0.41077963 0.54687381 0.54492218 0.22985455 0.13414364 0.48173564 0.20117236 0.75390655 0.20117236 0.27216982 0 0.52212218-0.0670364 0.75195273-0.20117236 0.22982945-0.13411855 0.41077963-0.31509273 0.54492218-0.54492218 0.13412073-0.22985237 0.20117236-0.48175855 0.20117236-0.75390546 0-0.27217091-0.06708-0.52212436-0.20117236-0.75195272-0.13414255-0.22982946-0.31509273-0.41273128-0.54492218-0.54687491-0.22987746-0.13414364-0.47975891-0.20117237-0.75195273-0.20117237z" fill="#545454"/>
<path d="m23.501952 24c-0.27216982 0-0.52407709 0.0670364-0.75390655 0.20117237-0.22985345 0.13411963-0.41273127 0.31702254-0.54687381 0.54687491-0.13416764 0.22985345-0.20117237 0.4798069-0.20117237 0.75195272 0 0.27217091 0.0670582 0.52402909 0.20117237 0.75390546 0.13414254 0.22980545 0.31702036 0.41077963 0.54687381 0.54492218 0.22985455 0.13414364 0.48173673 0.20117236 0.75390655 0.20117236s0.52212218-0.0670364 0.75195273-0.20117236c0.22982945-0.13411855 0.41077854-0.31509273 0.54492218-0.54492218 0.13411964-0.22985237 0.20117236-0.48175746 0.20117236-0.75390546 0-0.27217091-0.06708-0.52212436-0.20117236-0.75195272-0.13414364-0.22982619-0.31509273-0.41273019-0.54492218-0.54687491-0.22987855-0.13414364-0.47975891-0.20117237-0.75195273-0.20117237z" fill="#545454"/>
<path d="m14.5 28.5c-0.27217091 0-0.52407709 0.0670364-0.75390545 0.20117237-0.22985346 0.13411963-0.41078073 0.31506763-0.54492218 0.54492218-0.13416764 0.22985236-0.20117237 0.48176073-0.20117237 0.75390545 0 0.27217091 0.0670582 0.52207528 0.20117237 0.75195382 0.13414145 0.22980436 0.31506872 0.41273236 0.54492218 0.54687382 0.22985236 0.13414473 0.48173454 0.20117236 0.75390545 0.20117236 0.27216982 0 0.524076-0.0670364 0.75390546-0.20117236 0.22983054-0.13411746 0.41077854-0.31704546 0.54492218-0.54687382 0.13411963-0.22985345 0.20117236-0.479808 0.20117236-0.75195382 0-0.27216982-0.06708-0.524076-0.20117236-0.75390545-0.13414364-0.22983055-0.31509164-0.41077855-0.54492218-0.54492218-0.22987746-0.13414364-0.48171164-0.20117237-0.75390546-0.20117237z" fill="#545454"/>
<path d="m19.001952 28.5c-0.27217091 0-0.524076 0.0670364-0.75390655 0.20117237-0.22985236 0.13411963-0.41273127 0.31702145-0.54687381 0.54687491-0.13416764 0.22985236-0.20117237 0.4798069-0.20117237 0.75195272 0 0.27217091 0.0670582 0.52402909 0.20117237 0.75390546 0.13414254 0.22980545 0.31702145 0.41078072 0.54687381 0.54492218 0.22985455 0.13414364 0.48173564 0.20117236 0.75390655 0.20117236 0.27216982 0 0.52212218-0.0670364 0.75195273-0.20117236 0.22982945-0.13411746 0.41077963-0.31509273 0.54492218-0.54492218 0.13412073-0.22985237 0.20117236-0.48175855 0.20117236-0.75390546 0-0.27216982-0.06708-0.52212436-0.20117236-0.75195272-0.13414255-0.22982946-0.31509273-0.41273128-0.54492218-0.54687491-0.22987746-0.13414364-0.47975891-0.20117237-0.75195273-0.20117237z" fill="#545454"/>
<path d="m23.501952 28.5c-0.27216982 0-0.52407709 0.0670364-0.75390655 0.20117237-0.22985345 0.13411963-0.41273127 0.31702254-0.54687381 0.54687491-0.13416764 0.22985345-0.20117237 0.4798069-0.20117237 0.75195272 0 0.27217091 0.0670582 0.52402909 0.20117237 0.75390546 0.13414254 0.22980545 0.31702036 0.41078072 0.54687381 0.54492218 0.22985455 0.13414364 0.48173673 0.20117236 0.75390655 0.20117236s0.52212218-0.0670364 0.75195273-0.20117236c0.22982945-0.13411855 0.41077854-0.31509273 0.54492218-0.54492218 0.13411964-0.22985237 0.20117236-0.48175746 0.20117236-0.75390546 0-0.27216982-0.06708-0.52212436-0.20117236-0.75195272-0.13414364-0.22982619-0.31509273-0.41273019-0.54492218-0.54687491-0.22987855-0.13414364-0.47975891-0.20117237-0.75195273-0.20117237z" fill="#545454"/>
<path d="m14.5 33c-0.27217091 0-0.52407709 0.0670364-0.75390545 0.20117237-0.22985346 0.13411963-0.41078073 0.31506763-0.54492218 0.54492218-0.13416764 0.22985236-0.20117237 0.48176073-0.20117237 0.75390545 0 0.27217091 0.0670582 0.52207528 0.20117237 0.75195382 0.13414145 0.22980436 0.31506872 0.41273237 0.54492218 0.54687382 0.22985236 0.13414473 0.48173454 0.20117236 0.75390545 0.20117236 0.27216982 0 0.524076-0.0670364 0.75390546-0.20117236 0.22983054-0.13411745 0.41077854-0.31704546 0.54492218-0.54687382 0.13411963-0.22985345 0.20117236-0.479808 0.20117236-0.75195382 0-0.27216982-0.06708-0.524076-0.20117236-0.75390545-0.13414364-0.22983055-0.31509164-0.41077855-0.54492218-0.54492218-0.22987746-0.13414364-0.48171164-0.20117237-0.75390546-0.20117237z" fill="#545454"/>
<path d="m19.001952 33c-0.27217091 0-0.524076 0.0670364-0.75390655 0.20117237-0.22985236 0.13411963-0.41273127 0.31702145-0.54687381 0.54687491-0.13416764 0.22985236-0.20117237 0.4798069-0.20117237 0.75195272 0 0.27217091 0.0670582 0.52402909 0.20117237 0.75390546 0.13414254 0.22980545 0.31702145 0.41078073 0.54687381 0.54492218 0.22985455 0.13414364 0.48173564 0.20117236 0.75390655 0.20117236 0.27216982 0 0.52212218-0.0670254 0.75195273-0.20117236 0.22982945-0.13411745 0.41077963-0.31509273 0.54492218-0.54492218 0.13412073-0.22985237 0.20117236-0.48175855 0.20117236-0.75390546 0-0.27216982-0.06708-0.52212436-0.20117236-0.75195272-0.13414255-0.22982946-0.31509273-0.41273128-0.54492218-0.54687491-0.22987746-0.13414364-0.47975891-0.20117237-0.75195273-0.20117237z" fill="#545454"/>
<path d="m23.501952 33c-0.27216982 0-0.52407709 0.0670364-0.75390655 0.20117237-0.22985345 0.13411963-0.41273127 0.31702254-0.54687381 0.54687491-0.13416764 0.22985345-0.20117237 0.4798069-0.20117237 0.75195272 0 0.27217091 0.0670582 0.52402909 0.20117237 0.75390546 0.13414254 0.22980545 0.31702036 0.41078073 0.54687381 0.54492218 0.22985455 0.13414364 0.48173673 0.20117236 0.75390655 0.20117236s0.52212218-0.0670364 0.75195273-0.20117236c0.22982945-0.13411855 0.41077854-0.31509273 0.54492218-0.54492218 0.13411964-0.22985237 0.20117236-0.48175746 0.20117236-0.75390546 0-0.27216982-0.06708-0.52212436-0.20117236-0.75195272-0.13414364-0.22982619-0.31509273-0.41273019-0.54492218-0.54687491-0.22987855-0.13414364-0.47975891-0.20117237-0.75195273-0.20117237z" fill="#545454"/>
</g>
</svg>
