<?xml version="1.0" encoding="UTF-8"?>
<svg version="1.1" viewBox="0 0 48 48" xmlns="http://www.w3.org/2000/svg">
<defs>
<linearGradient id="linearGradient1261" x1="24.777779" x2="6" y1="44" y2="12" gradientTransform="matrix(1.3846154,0,0,1,-2.3076923,2)" gradientUnits="userSpaceOnUse">
<stop stop-color="#ffd700" offset="0"/>
<stop stop-color="#ffff00" offset="1"/>
</linearGradient>
<linearGradient id="linearGradient1301" x1="32" x2="37" y1="38.953079" y2="12" gradientTransform="translate(1,2)" gradientUnits="userSpaceOnUse">
<stop stop-color="#808080" offset="0"/>
<stop stop-color="#969696" offset="1"/>
</linearGradient>
<linearGradient id="linearGradient1279" x1="42" x2="37" y1="39.02116" y2="12" gradientTransform="translate(1,2)" gradientUnits="userSpaceOnUse">
<stop stop-color="#545454" offset="0"/>
<stop stop-color="#7c7c7c" stop-opacity=".93725491" offset="1"/>
</linearGradient>
<linearGradient id="linearGradient1277" x1="32" x2="42" y1="40" y2="40" gradientTransform="translate(1,2)" gradientUnits="userSpaceOnUse">
<stop stop-color="#4d4d4d" offset="0"/>
<stop stop-color="#6c6c6c" stop-opacity=".93725491" offset="1"/>
</linearGradient>
</defs>
<g>
<path d="M 29,2 C 25.1219571,2 22,5.2333734 22,9.2109375 V 14.5 h 1 V 9.2109375 C 23,5.7532384 25.6760429,3 29,3 c 3.3239571,0 6,2.7532384 6,6.2109375 V 14.5 h 1 V 9.2109375 C 36,5.2333734 32.8780429,2 29,2 Z" color="#000000" color-rendering="auto" dominant-baseline="auto" fill="#545454" image-rendering="auto" shape-rendering="auto" solid-color="#000000" style="font-feature-settings:normal;font-variant-alternates:normal;font-variant-caps:normal;font-variant-ligatures:normal;font-variant-numeric:normal;font-variant-position:normal;isolation:auto;mix-blend-mode:normal;paint-order:fill markers stroke;shape-padding:0;text-decoration-color:#000000;text-decoration-line:none;text-decoration-style:solid;text-indent:0;text-orientation:mixed;text-transform:none;white-space:normal"/>
<path d="m5 12v34h38v-34zm7.5 2.5c0.82842712 0 1.5 0.67157288 1.5 1.5s-0.67157288 1.5-1.5 1.5-1.5-0.67157288-1.5-1.5 0.67157288-1.5 1.5-1.5zm13 0c0.82842712 0 1.5 0.67157288 1.5 1.5s-0.67157288 1.5-1.5 1.5-1.5-0.67157288-1.5-1.5 0.67157288-1.5 1.5-1.5z" color="#000000" color-rendering="auto" dominant-baseline="auto" fill="url(#linearGradient1261)" image-rendering="auto" shape-rendering="auto" solid-color="#000000" style="font-feature-settings:normal;font-variant-alternates:normal;font-variant-caps:normal;font-variant-ligatures:normal;font-variant-numeric:normal;font-variant-position:normal;isolation:auto;mix-blend-mode:normal;paint-order:fill markers stroke;shape-padding:0;text-decoration-color:#000000;text-decoration-line:none;text-decoration-style:solid;text-indent:0;text-orientation:mixed;text-transform:none;white-space:normal"/>
<path d="m33 12v34h10v-34z" color="#000000" color-rendering="auto" dominant-baseline="auto" fill="url(#linearGradient1301)" image-rendering="auto" shape-rendering="auto" solid-color="#000000" style="font-feature-settings:normal;font-variant-alternates:normal;font-variant-caps:normal;font-variant-ligatures:normal;font-variant-numeric:normal;font-variant-position:normal;isolation:auto;mix-blend-mode:normal;paint-order:fill markers stroke;shape-padding:0;text-decoration-color:#000000;text-decoration-line:none;text-decoration-style:solid;text-indent:0;text-orientation:mixed;text-transform:none;white-space:normal"/>
<path d="m38 12v34h5v-34z" color="#000000" color-rendering="auto" dominant-baseline="auto" fill="url(#linearGradient1279)" image-rendering="auto" shape-rendering="auto" solid-color="#000000" style="font-feature-settings:normal;font-variant-alternates:normal;font-variant-caps:normal;font-variant-ligatures:normal;font-variant-numeric:normal;font-variant-position:normal;isolation:auto;mix-blend-mode:normal;paint-order:fill markers stroke;shape-padding:0;text-decoration-color:#000000;text-decoration-line:none;text-decoration-style:solid;text-indent:0;text-orientation:mixed;text-transform:none;white-space:normal"/>
<path d="m38 38 5 8h-10z" fill="url(#linearGradient1277)" style="paint-order:fill markers stroke"/>
<path d="m19 2c-3.8780429 0-7 3.2333734-7 7.2109375v4.8613281c-0.8581098 0.22478884-1.5 1.0024289-1.5 1.9277344 0 1.0986472 0.90135282 2 2 2s2-0.90135282 2-2c0-0.92530551-0.6418902-1.7029455-1.5-1.9277344v-4.8613281c0-3.4576991 2.6760429-6.2109375 6-6.2109375s6 2.7532384 6 6.2109375v4.8613281c-0.8581098 0.22478884-1.5 1.0024289-1.5 1.9277344 0 1.0986472 0.90135282 2 2 2s2-0.90135282 2-2c0-0.92530551-0.6418902-1.7029455-1.5-1.9277344v-4.8613281c0-3.9775641-3.1219571-7.2109375-7-7.2109375zm-6.5 13c0.55820707 0 1 0.44179293 1 1s-0.44179293 1-1 1-1-0.44179293-1-1 0.44179293-1 1-1zm13 0c0.55820707 0 1 0.44179293 1 1s-0.44179293 1-1 1-1-0.44179293-1-1 0.44179293-1 1-1z" color="#000000" color-rendering="auto" dominant-baseline="auto" fill="#696969" image-rendering="auto" shape-rendering="auto" solid-color="#000000" style="font-feature-settings:normal;font-variant-alternates:normal;font-variant-caps:normal;font-variant-ligatures:normal;font-variant-numeric:normal;font-variant-position:normal;isolation:auto;mix-blend-mode:normal;paint-order:fill markers stroke;shape-padding:0;text-decoration-color:#000000;text-decoration-line:none;text-decoration-style:solid;text-indent:0;text-orientation:mixed;text-transform:none;white-space:normal"/>
<path d="m 19,22 -1.75,1 v 1.265625 a 6,6 0 0 0 -2.3417968,1.3515625 L 13.7949219,24.9746094 12,26 v 1.9785156 l 1.1601563,0.6699219 A 6,6 0 0 0 13,30 6,6 0 0 0 13.1601563,31.3515625 L 12,32.021484 V 34 l 1.7949219,1.025391 1.1171875,-0.644532 A 6,6 0 0 0 17.25,35.736328 V 37 l 1.75,1 1.75,-1 v -1.267578 a 6,6 0 0 0 2.337891,-1.349609 L 24.203125,35.027344 26,34 V 32.021484 L 24.837891,31.3515625 A 6,6 0 0 0 25,30 6,6 0 0 0 24.837891,28.6484375 L 26,27.9785156 V 26 l -1.796875,-1.0273438 -1.115234,0.6445313 A 6,6 0 0 0 20.75,24.2617188 V 23 Z m 0,6 A 2,2 0 0 1 20.9999998,30 2,2 0 0 1 19,32 2,2 0 0 1 17,30 2,2 0 0 1 19,28 Z" fill="#545454" style="paint-order:fill markers stroke"/>
</g>
</svg>
