<?xml version="1.0" encoding="UTF-8"?>
<svg version="1.1" viewBox="0 0 48 48" xmlns="http://www.w3.org/2000/svg" xmlns:xlink="http://www.w3.org/1999/xlink">
<defs>
<linearGradient id="linearGradient1301" x1="32" x2="37" y1="38.953079" y2="12" gradientTransform="translate(1,2)" gradientUnits="userSpaceOnUse">
<stop stop-color="#808080" offset="0"/>
<stop stop-color="#969696" offset="1"/>
</linearGradient>
<linearGradient id="linearGradient1279" x1="42" x2="37" y1="39.02116" y2="12" gradientTransform="translate(1,2)" gradientUnits="userSpaceOnUse">
<stop stop-color="#545454" offset="0"/>
<stop stop-color="#7c7c7c" stop-opacity=".93725491" offset="1"/>
</linearGradient>
<linearGradient id="linearGradient1277" x1="32" x2="42" y1="40" y2="40" gradientTransform="translate(1,2)" gradientUnits="userSpaceOnUse">
<stop stop-color="#4d4d4d" offset="0"/>
<stop stop-color="#6c6c6c" stop-opacity=".93725491" offset="1"/>
</linearGradient>
<linearGradient id="linearGradient1075" x1="38" x2="5" y1="46" y2="12" gradientUnits="userSpaceOnUse">
<stop stop-color="#ff6835" offset="0"/>
<stop stop-color="#ff956f" offset="1"/>
</linearGradient>
</defs>
<linearGradient id="a" x1="399.57144" x2="399.57144" y1="545.79797" y2="517.79797" gradientUnits="userSpaceOnUse" xlink:href="#b"/>
<linearGradient id="b">
<stop stop-color="#3889e9" offset="0"/>
<stop stop-color="#5ea5fb" offset="1"/>
</linearGradient>
<linearGradient id="e" x1="-116.96115" x2="-116.96115" y1="-19.395931" y2="-67.396074" gradientUnits="userSpaceOnUse" xlink:href="#b"/>
<linearGradient id="f" x1="-35.683323" x2="-35.683323" y1="42.153272" y2="-3.6957904" gradientUnits="userSpaceOnUse" xlink:href="#b"/>
<g>
<circle transform="matrix(1.5558699 0 0 1.5558699 -655.79926 -800.71359)" cx="400.57138" cy="531.79791" r="0" fill="url(#a)"/>
<circle cx="-34.045952" cy="19.228647" r="0" fill="url(#f)"/>
<circle cx="-115.24696" cy="-43.396095" r="0" fill="url(#e)"/>
<path d="M 29,2 C 25.1219571,2 22,5.2333734 22,9.2109375 V 14.5 h 1 V 9.2109375 C 23,5.7532384 25.6760429,3 29,3 c 3.3239571,0 6,2.7532384 6,6.2109375 V 14.5 h 1 V 9.2109375 C 36,5.2333734 32.8780429,2 29,2 Z" color="#000000" color-rendering="auto" dominant-baseline="auto" fill="#545454" image-rendering="auto" shape-rendering="auto" solid-color="#000000" style="font-feature-settings:normal;font-variant-alternates:normal;font-variant-caps:normal;font-variant-ligatures:normal;font-variant-numeric:normal;font-variant-position:normal;isolation:auto;mix-blend-mode:normal;paint-order:fill markers stroke;shape-padding:0;text-decoration-color:#000000;text-decoration-line:none;text-decoration-style:solid;text-indent:0;text-orientation:mixed;text-transform:none;white-space:normal"/>
<path d="m5 12v34h38v-34zm7.5 2.5c0.82842712 0 1.5 0.67157288 1.5 1.5s-0.67157288 1.5-1.5 1.5-1.5-0.67157288-1.5-1.5 0.67157288-1.5 1.5-1.5zm13 0c0.82842712 0 1.5 0.67157288 1.5 1.5s-0.67157288 1.5-1.5 1.5-1.5-0.67157288-1.5-1.5 0.67157288-1.5 1.5-1.5z" color="#000000" color-rendering="auto" dominant-baseline="auto" fill="url(#linearGradient1075)" image-rendering="auto" shape-rendering="auto" solid-color="#000000" style="font-feature-settings:normal;font-variant-alternates:normal;font-variant-caps:normal;font-variant-ligatures:normal;font-variant-numeric:normal;font-variant-position:normal;isolation:auto;mix-blend-mode:normal;paint-order:fill markers stroke;shape-padding:0;text-decoration-color:#000000;text-decoration-line:none;text-decoration-style:solid;text-indent:0;text-orientation:mixed;text-transform:none;white-space:normal"/>
<path d="m33 12v34h10v-34z" color="#000000" color-rendering="auto" dominant-baseline="auto" fill="url(#linearGradient1301)" image-rendering="auto" shape-rendering="auto" solid-color="#000000" style="font-feature-settings:normal;font-variant-alternates:normal;font-variant-caps:normal;font-variant-ligatures:normal;font-variant-numeric:normal;font-variant-position:normal;isolation:auto;mix-blend-mode:normal;paint-order:fill markers stroke;shape-padding:0;text-decoration-color:#000000;text-decoration-line:none;text-decoration-style:solid;text-indent:0;text-orientation:mixed;text-transform:none;white-space:normal"/>
<path d="m38 12v34h5v-34z" color="#000000" color-rendering="auto" dominant-baseline="auto" fill="url(#linearGradient1279)" image-rendering="auto" shape-rendering="auto" solid-color="#000000" style="font-feature-settings:normal;font-variant-alternates:normal;font-variant-caps:normal;font-variant-ligatures:normal;font-variant-numeric:normal;font-variant-position:normal;isolation:auto;mix-blend-mode:normal;paint-order:fill markers stroke;shape-padding:0;text-decoration-color:#000000;text-decoration-line:none;text-decoration-style:solid;text-indent:0;text-orientation:mixed;text-transform:none;white-space:normal"/>
<path d="m38 38 5 8h-10z" fill="url(#linearGradient1277)" style="paint-order:fill markers stroke"/>
<path d="m19 2c-3.8780429 0-7 3.2333734-7 7.2109375v4.8613281c-0.8581098 0.22478884-1.5 1.0024289-1.5 1.9277344 0 1.0986472 0.90135282 2 2 2s2-0.90135282 2-2c0-0.92530551-0.6418902-1.7029455-1.5-1.9277344v-4.8613281c0-3.4576991 2.6760429-6.2109375 6-6.2109375s6 2.7532384 6 6.2109375v4.8613281c-0.8581098 0.22478884-1.5 1.0024289-1.5 1.9277344 0 1.0986472 0.90135282 2 2 2s2-0.90135282 2-2c0-0.92530551-0.6418902-1.7029455-1.5-1.9277344v-4.8613281c0-3.9775641-3.1219571-7.2109375-7-7.2109375zm-6.5 13c0.55820707 0 1 0.44179293 1 1s-0.44179293 1-1 1-1-0.44179293-1-1 0.44179293-1 1-1zm13 0c0.55820707 0 1 0.44179293 1 1s-0.44179293 1-1 1-1-0.44179293-1-1 0.44179293-1 1-1z" color="#000000" color-rendering="auto" dominant-baseline="auto" fill="#696969" image-rendering="auto" shape-rendering="auto" solid-color="#000000" style="font-feature-settings:normal;font-variant-alternates:normal;font-variant-caps:normal;font-variant-ligatures:normal;font-variant-numeric:normal;font-variant-position:normal;isolation:auto;mix-blend-mode:normal;paint-order:fill markers stroke;shape-padding:0;text-decoration-color:#000000;text-decoration-line:none;text-decoration-style:solid;text-indent:0;text-orientation:mixed;text-transform:none;white-space:normal"/>
<path d="m23.883666 22.003305c-0.0731552-0.005333-0.14524378-0.003556-0.21626568 6.9955e-4 -0.47353651 0.0334221-0.91205806 0.29578532-1.1674436 0.7380233-0.40712792 0.70684121-0.16341259 1.6049882 0.5448864 2.0136077 0.70684122 0.40710925 1.6064816 0.17047122 2.0135997-0.53860198 0.40856703-0.70462701 0.17457698-1.6194415-0.53226423-2.0272521-0.19920798-0.11457725-0.4230914-0.17313699-0.64249485-0.18687115zm-3.8791823 1.566384c-1.0218176 0-1.9774754 0.24136778-2.8345559 0.66663784l1.0267686 1.8540093c0.55300192-0.25822193 1.1590525-0.4104879 1.8078495-0.4104879 2.258443 5.33e-6 4.1224523 1.7281788 4.3169314 3.937982l2.0965424-0.0261954c-0.10451597-1.6285161-0.81702738-3.0934356-1.9107202-4.1689587-0.56316276 0.21125237-1.202759 0.1788703-1.7637262-0.14697711-0.56093967-0.32438963-0.91581804-0.8665827-1.0131056-1.4624289-0.54719839-0.15023932-1.1315868-0.24355445-1.7259219-0.24355445zm-3.5589704 1.0834262c-1.2946616 0.86433383-2.2481231 2.1908256-2.6487435 3.7395296 0.46882452 0.38099382 0.75065435 0.95066232 0.75065435 1.6031038-8.9e-7 0.6480326-0.28110094 1.2388752-0.75065435 1.6220193 0.40062039 1.5479485 1.3540827 2.8689024 2.6487426 3.7332363l1.0831062-1.8216539c-1.1110527-0.78084977-1.8340707-2.0721861-1.8340707-3.5337616 1.78e-6 -1.4630778 0.72301892-2.7528585 1.8340716-3.5337705zm-3.9704974 3.8676268c-0.81789138 3.56e-6 -1.475019 0.657117-1.4750164 1.4750075-9.78e-6 0.81498294 0.65712589 1.4750146 1.4750164 1.4750146 0.81858292 8.8e-7 1.4823666-0.66003255 1.4823666-1.4750155-3.56e-6 -0.8178896-0.66378364-1.4750057-1.4823666-1.4750066zm11.846408 1.8666404c-0.194496 2.2061944-2.0584884 3.937982-4.3169403 3.937982-0.64952681-8.9e-7 -1.2548387-0.14580378-1.8078406-0.40418482l-1.0267686 1.840356c0.85708054 0.42673583 1.8127926 0.66034365 2.834556 0.66034365 0.59439728 8.9e-7 1.1787315-0.0793774 1.7259201-0.23096694 0.0972538-0.59508262 0.45141216-1.1355602 1.013134-1.4614076 0.56245076-0.32434519 1.200599-0.35582949 1.7637075-0.1417238 1.0936848-1.0769818 1.8061162-2.538984 1.9107202-4.1689587zm-0.64777482 4.662344c-0.2140168 0.0182221-0.43005137 0.0894218-0.62884069 0.20472706-0.70823765 0.40571371-0.95199654 1.3019141-0.54488729 2.0073064 0.40860258 0.70904565 1.3186429 0.94673346 2.0261872 0.53962509 0.70770343-0.40788436 0.94082148-1.3077905 0.53227223-2.0146317-0.25536772-0.4422202-0.70012036-0.70366789-1.1737369-0.7369913-0.0711108-0.006222-0.13974158-0.006222-0.21101237 4.45e-6z" fill="#ffffff"/>
</g>
</svg>
