<?xml version="1.0" encoding="UTF-8"?>
<svg version="1.1" viewBox="0 0 48 48" xmlns="http://www.w3.org/2000/svg" xmlns:xlink="http://www.w3.org/1999/xlink">
 <defs>
  <linearGradient id="linearGradient1065" x1="66.508476" x2="66.508476" y1="51.661018" y2="7.7288136" gradientTransform="translate(-43.033901,-5.3949718)" gradientUnits="userSpaceOnUse">
   <stop style="stop-color:#292926" offset="0"/>
   <stop style="stop-color:#46494b" offset="1"/>
  </linearGradient>
  <linearGradient id="d-3-3-2" x1="37.736294" x2="37.589489" y1="1056.5404" y2="1039.0248" gradientTransform="matrix(.91666877 0 0 .91666199 -3.201336 -917.58946)" gradientUnits="userSpaceOnUse">
   <stop stop-color="#fc7816" offset="0"/>
   <stop stop-color="#ffac01" offset="1"/>
  </linearGradient>
 </defs>
 <path d="m7 2h34v44h-34z" style="fill:url(#linearGradient1065);paint-order:fill markers stroke"/>
 <g>
  <path d="m12.111776 7.7722503 1.594504 0.00766-0.0036 1.0448402-1.594505-0.00766z" style="fill-rule:evenodd;fill:#ffffff;stroke-width:.66030705"/>
  <path d="m12.097293 11.951925 1.594504 0.0077-0.0036 1.04484-1.594505-0.0077z" style="fill-rule:evenodd;fill:#ffffff;stroke-width:.66030705"/>
  <path d="m12.104534 9.8621396 1.594505 0.00766-0.0036 1.0448404-1.594505-0.0077z" style="fill-rule:evenodd;fill:#ffffff;stroke-width:.66030705"/>
  <path d="m12.090051 14.041814 1.594505 0.0077-0.0036 1.04484-1.594506-0.0077z" style="fill-rule:evenodd;fill:#ffffff;stroke-width:.66030705"/>
  <path d="m12.075568 18.221594 1.594505 0.0077-0.0036 1.04484-1.594504-0.0077z" style="fill-rule:evenodd;fill:#ffffff;stroke-width:.66030705"/>
  <path d="m12.082809 16.131704 1.594505 0.0077-0.0036 1.044841-1.594505-0.0077z" style="fill-rule:evenodd;fill:#ffffff;stroke-width:.66030705"/>
  <path d="m12.068327 20.311483 1.594505 0.0077-0.0036 1.044842-1.594503-0.0077z" style="fill-rule:evenodd;fill:#ffffff;stroke-width:.66030705"/>
  <path d="m12.053844 24.491263 1.594504 0.0077-0.0036 1.04484-1.594503-0.0077z" style="fill-rule:evenodd;fill:#ffffff;stroke-width:.66030705"/>
  <path d="m12.061085 22.401374 1.594504 0.0077-0.0036 1.04484-1.594504-0.0077z" style="fill-rule:evenodd;fill:#ffffff;stroke-width:.66030705"/>
  <path d="m14.503531 7.7836124 7.175269 0.034728-0.0036 1.0448402-7.17527-0.034728z" style="fill-rule:evenodd;fill:#f92672;stroke-width:.66030705"/>
  <path d="m22.476053 7.8224051 4.783513 0.023157-0.0036 1.0448401-4.783512-0.023157z" style="fill-rule:evenodd;fill:#ffffff;stroke-width:.66030705"/>
  <path d="m28.056817 7.8494134 3.189009 0.015433-0.0036 1.0448402-3.189008-0.015433z" style="fill-rule:evenodd;fill:#ffffff;stroke-width:.66030705"/>
  <path d="m14.496289 9.8735031 3.986261 0.019295-0.0036 1.0449449-3.98626-0.01929z" style="fill-rule:evenodd;fill:#fd971f;stroke-width:.66030705"/>
  <path d="m19.279803 9.8966525 1.594505 0.00766-0.0036 1.0450485-1.594505-0.0077z" style="fill-rule:evenodd;fill:#ffffff;stroke-width:.66030705"/>
  <path d="m21.671558 9.9084368 7.17527 0.034728-0.0036 1.0448412-7.175271-0.03473z" style="fill-rule:evenodd;fill:#a6e22e;stroke-width:.66030705"/>
  <path d="m14.489047 11.963392 5.580765 0.027-0.0036 1.04484-5.580765-0.027z" style="fill-rule:evenodd;fill:#f92672;stroke-width:.66030705"/>
  <path d="m20.867065 11.994467 3.986261 0.01929-0.0036 1.044842-3.98626-0.0193z" style="fill-rule:evenodd;fill:#fd971f;stroke-width:.66030705"/>
  <path d="m25.650578 12.017513 1.594505 0.0077-0.0036 1.044841-1.594506-0.0077z" style="fill-rule:evenodd;fill:#ffffff;stroke-width:.66030705"/>
  <path d="m16.076311 14.061 3.189009 0.01543-0.0036 1.044841-3.189011-0.01543z" style="fill-rule:evenodd;fill:#f92672;stroke-width:.66030705"/>
  <path d="m20.062571 14.080499 7.972522 0.03859-0.0036 1.044841-7.972522-0.03859z" style="fill-rule:evenodd;fill:#a6e22e;stroke-width:.66030705"/>
  <path d="m28.832345 14.122942 3.189009 0.01543-0.0036 1.044841-3.189009-0.01543z" style="fill-rule:evenodd;fill:#ffffff;stroke-width:.66030705"/>
  <path d="m16.06907 16.150889 4.783512 0.02316-0.0036 1.04484-4.783513-0.02316z" style="fill-rule:evenodd;fill:#f92672;stroke-width:.66030705"/>
  <path d="m21.649834 16.178106 4.783512 0.02314-0.0036 1.044842-4.783513-0.02316z" style="fill-rule:evenodd;fill:#66d9ef;stroke-width:.66030705"/>
  <path d="m27.2306 16.205114 3.189008 0.01543-0.0036 1.044842-3.189008-0.01543z" style="fill-rule:evenodd;fill:#a6e22e;stroke-width:.66030705"/>
  <path d="m16.061828 18.240779 1.594504 0.0077-0.0036 1.044841-1.594505-0.0077z" style="fill-rule:evenodd;fill:#f92672;stroke-width:.66030705"/>
  <path d="m18.453583 18.252564 10.364278 0.05016-0.0036 1.04484-10.364278-0.05016z" style="fill-rule:evenodd;fill:#66d9ef;stroke-width:.66030705"/>
  <path d="m29.615115 18.306579 4.384885 0.021218-0.0036 1.044841-4.384886-0.02122z" style="fill-rule:evenodd;fill:#ffffff;stroke-width:.66030705"/>
  <path d="m16.054587 20.330669 2.391756 0.01157-0.0036 1.04484-2.391756-0.01157z" style="fill-rule:evenodd;fill:#f92672;stroke-width:.66030705"/>
  <path d="m19.243594 20.34631 8.769775 0.04244-0.0036 1.044842-8.769775-0.04244z" style="fill-rule:evenodd;fill:#66d9ef;stroke-width:.66030705"/>
  <path d="m28.81062 20.392611 3.18901 0.01543-0.0036 1.044841-3.189009-0.01543z" style="fill-rule:evenodd;fill:#ffffff;stroke-width:.66030705"/>
  <path d="m14.452854 22.41287 1.594469 0.0077c1e-5 0 1.8e-5 8e-6 1.8e-5 1.8e-5l-0.0036 1.044927c0 1e-5 -8e-6 1.8e-5 -1.8e-5 1.8e-5l-1.594468-0.0077c-1e-5 0-1.8e-5 -8e-6 -1.8e-5 -1.8e-5l0.0036-1.044927c0-1e-5 8e-6 -1.8e-5 1.8e-5 -1.8e-5z" style="fill-rule:evenodd;fill:#ffffff;stroke-width:.66030735"/>
  <path d="m16.844595 22.424626 6.378018 0.03087-0.0036 1.044841-6.378018-0.03087z" style="fill-rule:evenodd;fill:#66d9ef;stroke-width:.66030705"/>
  <path d="m24.019866 22.459351 2.391756 0.01157-0.0036 1.044841-2.391756-0.01157z" style="fill-rule:evenodd;fill:#fd971f;stroke-width:.66030705"/>
  <path d="m14.445599 24.502731 3.189008 0.01543-0.0036 1.04484-3.189007-0.01543z" style="fill-rule:evenodd;fill:#f92672;stroke-width:.66030705"/>
  <path d="m18.431859 24.522233 8.769773 0.04244-0.0036 1.044841-8.769773-0.04244z" style="fill-rule:evenodd;fill:#a6e22e;stroke-width:.66030705"/>
  <path d="m27.998886 24.568532 1.99313 0.0096-0.0036 1.04484-1.993129-0.0096z" style="fill-rule:evenodd;fill:#ffffff;stroke-width:.66030705"/>
  <path d="m14.481806 14.053283 0.797251 0.0039-0.02534 7.314613-0.797253-0.0039z" style="fill-rule:evenodd;fill:#faffeb;stroke-width:.66030705"/>
  <path d="m12.025285 26.598602 1.594504 0.0077-0.0036 1.044842-1.594505-0.0077z" style="fill-rule:evenodd;fill:#ffffff;stroke-width:.66030705"/>
  <path d="m12.018043 28.688491 1.594505 0.0077-0.0036 1.044842-1.594505-0.0077z" style="fill-rule:evenodd;fill:#ffffff;stroke-width:.66030705"/>
  <path d="m12.00356 32.868271 1.594505 0.0077-0.0036 1.044842-1.594465-0.0077z" style="fill-rule:evenodd;fill:#ffffff;stroke-width:.66030705"/>
  <path d="m12.010801 30.778382 1.594505 0.0077-0.0036 1.044842-1.594505-0.0077z" style="fill-rule:evenodd;fill:#ffffff;stroke-width:.66030705"/>
  <path d="m16.011548 26.617685 1.594503 0.0077-0.0036 1.044842-1.594505-0.0077z" style="fill-rule:evenodd;fill:#f92672;stroke-width:.66030705"/>
  <path d="m18.402344 26.628906-2e-3 1.044922 7.259765 0.03516c0.353339-0.391527 0.743757-0.745541 1.175782-1.039062zm0.791015 2.09375-0.0039 1.044922 5.255859 0.02539c0.11497-0.370921 0.267467-0.71755 0.449219-1.042969z" style="fill-rule:evenodd;fill:#66d9ef;stroke-width:.66030705"/>
  <path d="m16.004305 28.707574 2.391758 0.01157-0.0036 1.044842-2.391758-0.01157z" style="fill-rule:evenodd;fill:#f92672;stroke-width:.66030705"/>
  <path d="m14.402573 30.789802 1.594469 0.0077c1e-5 0 1.8e-5 7e-6 1.8e-5 1.7e-5l-0.0036 1.044928c0 1e-5 -8e-6 1.7e-5 -1.8e-5 1.6e-5l-1.59447-0.0077c-9e-6 0-1.7e-5 -7e-6 -1.7e-5 -1.7e-5l0.0036-1.044928c0-1e-5 8e-6 -1.7e-5 1.7e-5 -1.7e-5z" style="fill-rule:evenodd;fill:#ffffff;stroke-width:.66030735"/>
  <path d="m16.794315 30.801637 6.378018 0.03087-0.0036 1.04484-6.378017-0.03087z" style="fill-rule:evenodd;fill:#66d9ef;stroke-width:.66030705"/>
  <path d="m23.96875 30.835938-2e-3 1.044921 0.244141 2e-3c-0.01999-0.34217-0.01955-0.689885 0.01758-1.044921z" style="fill-rule:evenodd;fill:#fd971f;stroke-width:.66030705"/>
  <path d="m14.395319 32.879638 3.189007 0.01543-0.0036 1.044842-3.189009-0.01543z" style="fill-rule:evenodd;fill:#f92672;stroke-width:.66030705"/>
  <path d="m18.380859 32.898438-2e-3 1.044921 6.328125 0.03125c-0.14636-0.330242-0.264425-0.680648-0.349609-1.046875z" style="fill-rule:evenodd;fill:#a6e22e;stroke-width:.66030705"/>
 </g>
 <path d="m31.336029 27.333402c-0.478803 0-0.957195 0.05958-1.41813 0.158216-1.843737 0.39004-3.465559 1.563001-3.699312 3.534649-0.153873 1.409551 0.263086 2.423746 0.97765 3.119126 0.714562 0.695288 1.692973 1.084044 2.671526 1.389476 0.978553 0.30534 1.96537 0.527722 2.693016 0.832512 0.363821 0.153266 0.659201 0.325232 0.859471 0.521123 0.191935 0.187732 0.293151 0.394989 0.324092 0.662471-0.07001 0.581806-0.306721 0.946271-0.675043 1.187078-0.376108 0.246032-0.89955 0.363181-1.479009 0.365381-1.158918 0-2.524984-0.455306-3.237346-0.941778-0.35718-0.287557-0.735924-0.411857-1.092247-0.363549-0.362885 0.04767-0.672348 0.257216-0.94363 0.528181l-0.01968 0.01833-0.01615 0.02292c-0.414618 0.621955-0.420019 1.6158 0.318721 2.221989h0.0018c1.402075 1.157102 3.847468 1.662549 6.010935 1.289285 1.082164-0.186724 2.097921-0.600414 2.86133-1.30001 0.763405-0.699597 1.261385-1.691975 1.296368-2.961552 0.03513-1.334477-0.508198-2.275705-1.307113-2.907743-0.798916-0.632222-1.833403-0.982204-2.832678-1.271319-0.999276-0.28939-1.970339-0.519289-2.619601-0.843421-0.32463-0.161516-0.562177-0.34549-0.700112-0.54798-0.136926-0.200933-0.192296-0.423956-0.139662-0.75203 0.08579-0.417356 0.298874-0.68383 0.617746-0.87367 0.320358-0.190941 0.754043-0.291774 1.231911-0.306349 0.955733-0.02933 2.074964 0.293332 2.71271 0.698313 0.677374 0.48354 1.489914 0.244474 1.885467-0.293606 0.398739-0.542298 0.383621-1.413402-0.352741-2.009049h-0.0055c-0.696759-0.535055-1.570419-0.887053-2.501392-1.056361-0.465487-0.08433-0.9447-0.125216-1.423502-0.118616z" style="fill:url(#d-3-3-2);stroke-width:.91666198"/>
</svg>
