<?xml version="1.0" encoding="UTF-8"?>
<svg id="svg102" version="1.1" viewBox="0 0 48 48" xmlns="http://www.w3.org/2000/svg" xmlns:xlink="http://www.w3.org/1999/xlink">
 <defs id="defs54">
  <linearGradient id="l" x1="14.187" x2="34.19" y1="34.612" y2="54.612" gradientTransform="matrix(1,0,0,1.0440589,7.9999935,-1.176223)" gradientUnits="userSpaceOnUse">
   <stop id="stop49" stop-color="#383e51" offset="0"/>
   <stop id="stop51" stop-color="#655c6f" stop-opacity="0" offset="1"/>
  </linearGradient>
  <linearGradient id="h-7-6" x2="0" y1="557.79999" y2="505.79999" gradientTransform="matrix(.61141 0 0 .80312143 -229.65001 -403.22242)" gradientUnits="userSpaceOnUse">
   <stop id="stop33-5-1" stop-color="#42a603" offset="0"/>
   <stop id="stop35-3-8" stop-color="#78da06" offset="1"/>
  </linearGradient>
  <linearGradient id="g-5-7" x2="0" y1="551.79999" y2="528.79999" gradientTransform="matrix(.49677 0 0 .80312143 -182.00001 -421.69183)" gradientUnits="userSpaceOnUse">
   <stop id="stop28-6-9" stop-color="#c6cdd1" offset="0"/>
   <stop id="stop30-2-2" stop-color="#e0e5e7" offset="1"/>
  </linearGradient>
  <linearGradient id="linearGradient915" x1="398.57001" x2="400.57001" gradientTransform="matrix(1.5625,0,0,1.6062533,-604.52001,-828.71819)" gradientUnits="userSpaceOnUse" xlink:href="#i-9-0"/>
  <linearGradient id="i-9-0" x1="398.57001" x2="400.57001" gradientTransform="matrix(1.5625,0,0,1.53847,-227.95,-292.82)" gradientUnits="userSpaceOnUse">
   <stop id="stop38-1-2" stop-color="#faae2a" offset="0"/>
   <stop id="stop40-2-3" stop-color="#ffc35a" offset="1"/>
  </linearGradient>
  <linearGradient id="j-7-7" x1="398.57001" x2="400.57001" gradientTransform="matrix(1.5625,0,0,1.6062533,-595.14001,-828.71819)" gradientUnits="userSpaceOnUse" xlink:href="#i-9-0"/>
  <linearGradient id="c-0-5" x1="388.57001" x2="398.82001" y1="519.84998" y2="528.52002" gradientUnits="userSpaceOnUse">
   <stop id="stop12-9-9" stop-color="#4d4d4d" offset="0"/>
   <stop id="stop14-3-2" stop-color="#31363b" offset="1"/>
  </linearGradient>
 </defs>
 <path id="path96" d="m30.408038 6.0833798-0.01428-0.1609087c-0.04822-0.027425-0.117979 0.00705-0.178666 0.043611-0.143037 0.085426-0.395251 0.2567005-0.510478 0.3505921l-0.0946 0.078335c-0.142908 0.1140604-0.276369 0.2245076-0.337415 0.3588303-0.19684 0.3852714-0.286818 0.9170023-0.413085 1.7437778-0.197886 1.2787974-0.0034 3.1530477 0.490221 4.7730457 0.186741 0.576749 0.426425 1.112167 0.636201 1.582551 0.642304 1.440599 1.104406 2.481718-0.343975 3.289338-1.804721 1.011146-4.603335 0.278502-4.629244 0.269308l-0.06238 0.02391 0.0026 0.05829s2.082546 2.081926 2.139284 2.130938l0.08883 0.05776 0.08941 0.03841c0.264373 0.116689 0.844157 0.330492 2.096147 0.736072 2.421602 0.78918 3.218449 2.493749 3.258224 4.025693 0.012 0.372157-0.131237 0.909003-0.355912 1.306858-0.571726 1.028121-2.184054 1.554342-2.772846 1.73413-0.668339 0.202624-0.726694 0.190576-0.783713 0.197139l-0.06359 0.03394 0.0077 0.05443 0.03139 0.02049 1.773739 1.682026 0.405875-0.06569c0.267775-0.04144 0.565943-0.08688 0.951457-0.100777 2.426393-0.08475 4.589896 0.983143 5.507033 2.723839 0.618263 1.176329 1.335992 3.47732-0.845193 5.676976-0.909778 0.918641-2.30261 1.4181-3.636215 1.303902-1.363135-0.114348-2.433687-0.843834-2.94142-1.995598-0.50139-1.14463-0.463866-2.163061 0.105329-2.945411 0.575724-0.788684 1.539413-1.265173 2.454514-1.212407 0.983262 0.05533 1.617608 0.466245 1.936319 1.252505 0.247122 0.595676 0.0994 1.166759-0.142574 1.443103-0.07638 0.08283-0.218525 0.234852-0.456178 0.327863l-0.0094 0.0037c-0.650248 0.249196-0.98914-0.223333-1.031343-0.329552-0.01021-0.03433-0.05269-0.197826-0.05856-0.436545l0.01157-0.201412-0.0065-0.05683c-0.03784-0.423458-0.405583-0.703235-0.859847-0.651513-0.08315 0.01082-0.163693 0.03024-0.241197 0.05994-0.279748 0.107215-0.500319 0.335221-0.595125 0.610611l-0.01918 0.0628c-0.04561 0.143716-0.05838 0.263345-0.06342 0.387684-0.01993 0.349968 0.01043 0.642419 0.09232 0.917027 0.280762 0.934678 1.555759 1.897527 3.226649 1.278099 0.941987-0.351492 1.670809-1.107075 1.996179-2.071368 0.372361-1.110439 0.140538-2.693084-1.213445-3.723191-1.665668-1.270181-4.059404-0.849885-5.468737 0.187565-2.038863 1.504426-2.688412 3.790184-1.731189 6.110295 0.677452 1.643237 2.143207 2.850436 3.919832 3.221304 0.786446 0.165186 1.618141 0.192554 2.403584 0.0789 1.79931-0.25939 3.472626-1.336866 4.178135-1.930455 2.246178-1.889888 3.887092-4.488706 4.881895-7.72152l0.06344-0.204082c2.061101-6.854498 0.763325-10.648641-0.186301-13.430656-1.118485-3.277645-3.438328-6.331948-3.76391-6.759855 0.120506-0.04817 1.207405-0.485844 1.207405-0.485844l0.03369-0.02827-0.0018-0.04139c-0.100617-0.210118-2.30609-4.6890631-4.199311-6.2067073-0.236764-0.1865542-0.439949-0.24637-0.661796-0.3334549-0.799036-0.3133655-3.65541-0.0389038-4.226594 0.0939308l-0.04613 0.050204c-7.76e-4 0.032804-0.03889 0.1239244-0.07928 0.2426761-0.22131 0.6069332-0.740571 2.0299543-0.18292 3.3844304 0.500045 1.2178199 1.79245 2.5641429 3.830739 4.0032279-0.252923-5.51e-4 -1.459855-7.9e-4 -1.662297-0.0016l-0.04358-0.01201c-0.250425-0.225291-2.62968-2.398124-3.009378-3.7844695-0.306039-1.1181511-0.063246-2.5289038 0.109271-3.1228749zm3.425159 0.121469c1.228705-0.5130499 2.539443-0.030539 2.919162 1.0804056 0.183526 0.5378204 0.125015 1.1397247-0.166419 1.6951272-0.290926 0.5571197-0.780465 0.9991242-1.373515 1.2493934-1.229217 0.511331-2.537553 0.02981-2.918649-1.0786897-0.184586-0.5412338-0.125535-1.1414377 0.165906-1.6968423 0.291438-0.5554026 0.778575-0.9983963 1.373515-1.2493942" style="fill:#61d230;stroke-width:1.9012996"/>
 <g id="g103" transform="matrix(.87038483 0 0 1 -5.4446188 -.176512)">
  <path id="path66" d="m31.999993 20.696811c-1.659-1e-3 -3 1.404259-3 3.132176-1e-3 0.180623 0.014 0.360201 0.043 0.538735 0.237-1.515974 1.49-2.628941 2.961-2.631029 1.46 0 2.709 1.096262 2.959 2.597619 0.027-0.16705 0.042-0.336187 0.043-0.505325 1e-3 -1.732093-1.343-3.132176-3-3.132176" style="opacity:.1;stroke-opacity:.55;stroke-width:8.774128"/>
  <path id="path68" d="m35.999993 23.88119c0 1.067028-0.391 2.133013-1.174 2.950511s-1.804 1.225725-2.826 1.225725v1.044059c1.277 0 2.555-0.509501 3.533-1.531635 0.978-1.021089 1.467-2.355396 1.467-3.68866z" style="fill:#95a5a6;stroke-opacity:.55;stroke-width:8.774128"/>
  <path id="rect72" d="m12.000001 21.793062h25v22.969296h-25z" style="fill:url(#h-7-6);stroke-width:1.021792"/>
  <path id="rect74" d="m12.000001 43.7183h25v1.044059h-25z" style="fill:#46943b;stroke-opacity:.55;stroke-width:2.8610175"/>
  <path id="rect76" d="m14.000001 3h21v18.79306h-21z" style="fill:url(#g-5-7);stroke-width:1.021792"/>
  <g id="g82" transform="matrix(1,0,0,1.0440589,-376.57001,-522.99686)" style="fill:#23262c">
   <path id="rect78" d="m393.57001 506.79999h6v6h-6z" style=""/>
   <path id="rect80" d="m402.57001 506.79999h6v6h-6z" style=""/>
  </g>
  <path id="rect84" d="m18.000002 6.1321764h4v6.2643536h-4z" style="fill:url(#linearGradient915);stroke-width:1.021792"/>
  <path id="rect86" d="m27.000002 6.1321764h4v6.2643536h-4z" style="fill:url(#j-7-7);stroke-width:1.021792"/>
  <g id="g94" transform="matrix(1,0,0,1.0440589,-376.57001,-522.99686)" style="color:#000000;stroke-linejoin:round;stroke-width:3">
   <path id="path90" d="m388.94 519.85c-0.241 1.277-0.373 2.594-0.373 3.943s0.132 2.666 0.373 3.943l11.627-1.943c1.095-0.168 2-0.892 2-2s-0.905-1.832-2-2z" style="fill:url(#c-0-5)"/>
   <path id="circle92" d="m401.57001 523.79999a1 1 0 0 1-1 1 1 1 0 0 1-1-1 1 1 0 0 1 1-1 1 1 0 0 1 1 1z" style="fill:#27ae60;stroke-linecap:round"/>
  </g>
  <path id="path98" d="m33.189993 31.617667 8e-3 0.04072 6e-3 0.0063c0.324 0.34976 0.754 1.806222 0.799 2.108999l-0.018 0.03028c-0.017 0.0052-0.057 0.03654-0.111 0.07308-0.081 0.05951-0.202 0.143036-0.344 0.228649l-8e-3 0.458342c0.099-0.04907 0.239-0.103362 0.301-0.143036v-0.0021l0.086-0.01879c0.024 0.01984 0.021 0.06056 0.014 0.09605-0.016 0.08353-0.056 0.234913-0.082 0.305909l-0.021 0.05951c-0.031 0.0877-0.062 0.170181-0.121 0.220296-0.162 0.154521-0.421 0.27772-0.828 0.462518-0.629 0.287116-1.647 0.466695-2.594 0.46043-0.339-0.0073-0.667-0.04594-0.955-0.07935-0.882-0.10545-1.52-0.181666-1.652 0.654625-0.167 1.044059 0.778 2.323031 0.787 2.334515v0.03445l-0.031 0.0084s-1.506-0.724577-1.543-0.746502l-0.047-0.03445-0.039-0.03863c-0.114-0.113803-0.342-0.369597-0.805-0.930257-0.898-1.083733-1.95-1.227813-2.76-1.022134-0.197 0.04907-0.448 0.199416-0.611 0.369597-0.423 0.435373-0.374 1.312382-0.35 1.631864 0.028 0.361245 0.045 0.38839 0.053 0.417624l-4e-3 0.03654-0.031 0.0042-0.018-0.01253-1.234-0.630611-0.047-0.211944c-0.032-0.13886-0.069-0.291292-0.139-0.485487-0.442-1.215285-1.434-2.131969-2.527-2.328252-0.739-0.132595-2.086-0.147212-2.799 1.258091-0.298 0.586761-0.28 1.352056 0.047 1.996241 0.333 0.658801 0.928 1.081645 1.633 1.162037 0.699 0.07935 1.225-0.08874 1.52-0.487575 0.297-0.401963 0.352-0.951138 0.141-1.396951-0.226-0.479223-0.568-0.732929-1.043-0.774692-0.361-0.03341-0.63 0.123199-0.727 0.28294-0.028 0.05011-0.079 0.143036-0.08 0.275632v0.0042c0 0.359156 0.315 0.458342 0.379 0.462518 0.02 0 0.115-0.0021 0.24-0.03445l0.061-0.02088 0.043-0.0167 0.029-0.0042c0.229-0.04385 0.45 0.0971 0.514 0.329923 0.011 0.04281 0.018 0.08352 0.018 0.126331 0 0.15452-0.075 0.297556-0.199 0.385257l-0.029 0.02088c-0.066 0.04385-0.127 0.06682-0.191 0.0877-0.179 0.0616-0.338 0.08979-0.498 0.08979-0.545-1e-3 -1.304-0.489664-1.314-1.40948-5e-3 -0.518897 0.244-0.9929 0.684-1.296721 0.506-0.348716 1.381-0.467738 2.191 0.05116 0.998 0.63792 1.257 1.886614 0.996 2.738566-0.378 1.233034-1.442 1.892879-2.848 1.762372-0.493-0.04594-0.966-0.204636-1.387-0.453122l5.316 4.645018h15.984v-9.163705z" style="fill-rule:evenodd;fill:url(#l);opacity:.477;stroke-width:1.021792"/>
 </g>
</svg>
