<?xml version="1.0" encoding="UTF-8"?>
<svg width="48" height="48" version="1.1" viewBox="0 0 12.7 12.7" xmlns="http://www.w3.org/2000/svg">
<defs>
<linearGradient id="linearGradient1301-3-7-3" x1="-46.576271" x2="-.30630216" y1="24.20339" y2="24.20339" gradientTransform="matrix(0 -.23012621 .2301211 0 .82821203 .82576052)" gradientUnits="userSpaceOnUse">
<stop stop-color="#f2f2f2" offset="0"/>
<stop stop-color="#f9f9f9" offset="1"/>
</linearGradient>
<linearGradient id="linearGradient860-5" x1="-18.532173" x2="-18.532173" y1="55.719997" y2="10.307825" gradientTransform="matrix(.26458333 0 0 .26458333 11.087192 -14.952409)" gradientUnits="userSpaceOnUse">
<stop stop-color="#3ccdfb" offset="0"/>
<stop stop-color="#1c8ef3" offset="1"/>
</linearGradient>
</defs>
<g>
<circle transform="scale(1,-1)" cx="6.3499999" cy="-6.3499999" r="6.0854168" fill="url(#linearGradient860-5)" stroke-width=".26458332" style="paint-order:fill markers stroke"/>
<path d="m1.0583333 6.3500001c0-2.9315833 2.3600833-5.2916667 5.2916667-5.2916667 2.9315833 0 5.2916667 2.3600833 5.2916667 5.2916667 0 2.9315833-2.3600833 5.2916667-5.2916667 5.2916667-2.9315833 0-5.2916667-2.3600833-5.2916667-5.2916667z" fill="url(#linearGradient1301-3-7-3)" stroke-width=".26458332"/>
<rect x="5.2916665" y="5.0270834" width="2.1166666" height="1.0583333" fill="#2098f4" stroke-width=".99999994"/>
<rect x="5.2916665" y="3.4395831" width="2.1166666" height="1.0583333" fill="#3ccdfb" stroke-width=".99999994"/>
<path d="m3.761844 6.6576593 2.5883494 2.5879056 2.5879626-2.5879056h-1.1060925l-1.4818701 1.482222-1.4822569-1.482222z" fill="#1d90f3"/>
</g>
</svg>
