<?xml version="1.0" encoding="UTF-8"?>
<svg version="1.1" viewBox="0 0 48 48" xmlns="http://www.w3.org/2000/svg" xmlns:xlink="http://www.w3.org/1999/xlink">
 <defs>
  <linearGradient id="linearGradient912" x1="744.57147" x2="744.57147" y1="408.86908" y2="301.798" gradientTransform="matrix(.12730919 0 0 .12755651 -70.115533 -27.020755)" gradientUnits="userSpaceOnUse">
   <stop stop-color="#cbcbcb" offset="0"/>
   <stop stop-color="#e9e9e9" offset=".60000002"/>
   <stop stop-color="#bebebe" offset="1"/>
  </linearGradient>
  <linearGradient id="linearGradient914" x1="747.80255" x2="746.38837" y1="499.83661" y2="417.81219" gradientTransform="matrix(.12755651 0 0 .12755651 -70.304725 -27.020755)" gradientUnits="userSpaceOnUse" xlink:href="#c"/>
  <linearGradient id="linearGradient916" x1="744.57147" x2="744.57147" y1="380.99802" y2="310.99802" gradientTransform="matrix(.12755651 0 0 .12755651 -70.304725 -27.020755)" gradientUnits="userSpaceOnUse" xlink:href="#e"/>
  <linearGradient id="linearGradient918" x1="745.90625" x2="742.22821" y1="499.56796" y2="438.56796" gradientTransform="matrix(.12755651 0 0 .12755651 -70.304725 -27.020755)" gradientUnits="userSpaceOnUse" xlink:href="#b"/>
  <linearGradient id="linearGradient920" x1="735.7807" x2="736.69702" y1="464.76047" y2="504.26047" gradientTransform="matrix(.12755651 0 0 .12755651 -70.304725 -27.020755)" gradientUnits="userSpaceOnUse" xlink:href="#b"/>
  <linearGradient id="linearGradient922" x1="736.45404" x2="736.62952" y1="501.81488" y2="571.81488" gradientTransform="matrix(.12738692 0 0 .12755651 -70.281079 -27.020755)" gradientUnits="userSpaceOnUse" xlink:href="#a"/>
  <linearGradient id="linearGradient926" x1="754.57147" x2="752.57147" y1="302.79797" y2="258.79797" gradientTransform="matrix(.12755651 0 0 .12755651 -70.304725 -27.020755)" gradientUnits="userSpaceOnUse" xlink:href="#a"/>
  <linearGradient id="linearGradient928" x1="736.81683" x2="736.81683" y1="307.46643" y2="234.82149" gradientTransform="matrix(.12755651 0 0 .12755651 -70.304725 -27.020755)" gradientUnits="userSpaceOnUse">
   <stop stop-color="#cbcbcb" offset="0"/>
   <stop stop-color="#f3f3f3" style="stop-color:#e8e8e8" offset="1"/>
  </linearGradient>
  <linearGradient id="linearGradient936" x1="743.7807" x2="748.19672" y1="547.50397" y2="463.91818" gradientTransform="matrix(.12755651 0 0 .12755651 -70.304725 -27.020755)" gradientUnits="userSpaceOnUse">
   <stop stop-color="#f4f4f4" offset="0"/>
   <stop stop-color="#b0b0b0" offset="1"/>
  </linearGradient>
  <linearGradient id="linearGradient1905" x1="736.81683" x2="738.93817" y1="307.46643" y2="233.2202" gradientTransform="matrix(.12755651 0 0 .12755651 -70.304725 -27.020755)" gradientUnits="userSpaceOnUse">
   <stop stop-color="#cbcbcb" offset="0"/>
   <stop stop-color="#f3f3f3" offset="1"/>
  </linearGradient>
 </defs>
 <linearGradient id="a">
  <stop stop-color="#1f1f1f" offset="0"/>
  <stop stop-color="#444" offset="1"/>
 </linearGradient>
 <linearGradient id="b">
  <stop stop-color="#060606" offset="0"/>
  <stop stop-color="#343434" offset="1"/>
 </linearGradient>
 <linearGradient id="c" x1="747.80255" x2="746.38837" y1="499.83662" y2="417.8122" gradientUnits="userSpaceOnUse">
  <stop stop-color="#a8a8a8" offset="0"/>
  <stop stop-color="#ccc" offset="1"/>
 </linearGradient>
 <linearGradient id="e" x1="744.57147" x2="744.57147" y1="380.99801" y2="310.99801" gradientUnits="userSpaceOnUse">
  <stop stop-color="#333" offset="0"/>
  <stop stop-color="#4e4e4e" offset=".64285713"/>
  <stop stop-color="#333" offset="1"/>
 </linearGradient>
 <path d="m4.8196246 12.564106h38.092218l4.062643 3.891602v9.637809h-45.963584v-9.682906z" style="fill-rule:evenodd;fill:url(#linearGradient912);stroke-width:.17881167"/>
 <path d="m47 26.087176v9.532389c0 0.975194-0.785085 1.760278-1.76028 1.760278h-42.479439c-0.9751963 0-1.7602811-0.785084-1.7602811-1.760278v-9.628057z" style="fill-rule:evenodd;fill:url(#linearGradient914);stroke-width:.17881167"/>
 <path d="m9.9550369 12.473362h28.115536l1.275564 2.726829v4.939839s0.0073 1.984312-1.984317 1.984312h-26.698038s-1.920532-0.07827-1.9843102-1.894117v-5.061923z" style="fill-rule:evenodd;fill:url(#linearGradient916);stroke-width:.17881167"/>
 <path d="m8.982356 29.503609h30.035284c1.249218 0 2.254906 1.005688 2.254906 2.254905v5.637275h-34.545096v-5.637275c0-1.249217 1.0056887-2.254905 2.2549057-2.254905z" style="fill-rule:evenodd;fill:url(#linearGradient918);stroke-width:.17881167"/>
 <path d="m11.134791 31.848729h26.156863c1.249215 0 2.254901 1.005686 2.254901 2.254902v3.292158h-30.666665v-3.292158c0-1.249216 1.0056861-2.254902 2.2549012-2.254902z" style="fill-rule:evenodd;fill:url(#linearGradient920);stroke-width:.17881167"/>
 <path d="m6.7184666 37.379843h34.544199l2.038192 7.892158h-38.365808z" style="fill-rule:evenodd;fill:url(#linearGradient922);stroke-width:.17881167"/>
 <path d="m8.3429777 4.7405564h30.99623v7.7809496h-30.99623z" style="fill-rule:evenodd;fill:url(#linearGradient926);stroke-width:.17881167"/>
 <path d="m10.557528 2.7279992h26.923528v9.8313728h-26.923528z" style="fill-rule:evenodd;fill:url(#linearGradient1905);stroke-width:.17881167"/>
 <path d="m47 26.087176v9.532389c0 0.975194-0.785085 1.760278-1.76028 1.760278h-42.479439c-0.9751963 0-1.7602811-0.785084-1.7602811-1.760278v-9.628057z" style="fill-rule:evenodd;fill:url(#linearGradient914);stroke-width:.17881167"/>
 <path d="m9.9550369 12.473362h28.115536l1.275564 2.726829v4.939839s0.0073 1.984312-1.984317 1.984312h-26.698038s-1.920532-0.07827-1.9843102-1.894117v-5.061923z" style="fill-rule:evenodd;fill:url(#linearGradient916);stroke-width:.17881167"/>
 <path d="m8.982356 29.503609h30.035284c1.249218 0 2.254906 1.005688 2.254906 2.254905v5.637275h-34.545096v-5.637275c0-1.249217 1.0056887-2.254905 2.2549057-2.254905z" style="fill-rule:evenodd;fill:url(#linearGradient918);stroke-width:.17881167"/>
 <path d="m11.134791 31.848729h26.156863c1.249215 0 2.254901 1.005686 2.254901 2.254902v3.292158h-30.666665v-3.292158c0-1.249216 1.0056861-2.254902 2.2549012-2.254902z" style="fill-rule:evenodd;fill:url(#linearGradient920);stroke-width:.17881167"/>
 <path d="m10.86362 31.84873h26.833332l1.275564 11.4549h-29.38446z" style="fill-rule:evenodd;fill:url(#linearGradient936);stroke-width:.17881167"/>
 <path d="m8.3429777 4.7405564h30.99623v7.7809496h-30.99623z" style="fill-rule:evenodd;fill:url(#linearGradient926);stroke-width:.17881167"/>
 <path d="m10.557528 2.7279992h26.923528v9.8313728h-26.923528z" style="fill-rule:evenodd;fill:url(#linearGradient928);stroke-width:.17881167"/>
</svg>
