<?xml version="1.0" encoding="UTF-8"?>
<svg id="svg13" version="1.1" viewBox="0 0 48 48" xmlns="http://www.w3.org/2000/svg" xmlns:xlink="http://www.w3.org/1999/xlink">
 <defs id="defs17">
  <linearGradient id="linearGradient898" x1="-37.627117" x2="-37.627117" y1="44.949154" y2="3.6610169" gradientTransform="translate(60.94104 -.3995986)" gradientUnits="userSpaceOnUse">
   <stop id="stop892" style="stop-color:#34495e" offset="0"/>
   <stop id="stop894" style="stop-color:#45617d" offset="1"/>
  </linearGradient>
  <linearGradient id="linearGradient906" x1="-37.423729" x2="-37.423729" y1="41.694916" y2="10.372881" gradientTransform="translate(60.94104 -.3995986)" gradientUnits="userSpaceOnUse">
   <stop id="stop900" style="stop-color:#00d4aa" offset="0"/>
   <stop id="stop902" style="stop-color:#00f6c5" offset="1"/>
  </linearGradient>
 </defs>
 <path id="rect834" d="m2 4h44v40h-44z" style="fill:url(#linearGradient898);paint-order:stroke fill markers"/>
 <path id="rect855" d="m4 9.9999981h40v32h-40z" style="fill:url(#linearGradient906);paint-order:stroke fill markers"/>
 <path id="circle878" d="m36.255859 5.9355469a0.98892453 0.96561653 0 0 0-0.990234 0.9648437 0.98892453 0.96561653 0 0 0 0.990234 0.9648438 0.98892453 0.96561653 0 0 0 0.988282-0.9648438 0.98892453 0.96561653 0 0 0-0.988282-0.9648437zm3.41211 0.0683593a0.98892453 0.96561653 0 0 0-0.988281 0.9667969 0.98892453 0.96561653 0 0 0 0.988281 0.9648438 0.98892453 0.96561653 0 0 0 0.990234-0.9648438 0.98892453 0.96561653 0 0 0-0.990234-0.9667969zm3.34375 0a0.98892453 0.96561653 0 0 0-0.990235 0.9667969 0.98892453 0.96561653 0 0 0 0.990235 0.9648438 0.98892453 0.96561653 0 0 0 0.988281-0.9648438 0.98892453 0.96561653 0 0 0-0.988281-0.9667969z" style="fill:#ff5555"/>
 <path id="path2" d="m18.016949 17.999998 14 8.050313-14 7.949687z" style="fill:#ffffff;stroke-width:2.6995385"/>
</svg>
