<?xml version="1.0" encoding="UTF-8"?>
<svg id="svg102" version="1.1" viewBox="0 0 48 48" xmlns="http://www.w3.org/2000/svg" xmlns:xlink="http://www.w3.org/1999/xlink">
 <defs id="defs54">
  <linearGradient id="linearGradient952" x1="23.655031" x2="23.655031" y1="47.112938" y2="1.2813141" gradientUnits="userSpaceOnUse">
   <stop id="stop946" style="stop-color:#d2d2d2" offset="0"/>
   <stop id="stop948" style="stop-color:#ebebeb" offset="1"/>
  </linearGradient>
  <linearGradient id="linearGradient980">
   <stop id="stop976" style="stop-color:#197ff1" offset="0"/>
   <stop id="stop978" style="stop-color:#1fb8f9" offset="1"/>
  </linearGradient>
  <linearGradient id="linearGradient1043" x1="60.123203" x2="60.123203" y1="48.591377" y2="14.685832" gradientTransform="matrix(.69755496 0 0 .69296053 -19.325437 2.5661028)" gradientUnits="userSpaceOnUse" xlink:href="#linearGradient980"/>
 </defs>
 <path id="path929" d="m47 24a23 23 0 0 1-23 23 23 23 0 0 1-23-23 23 23 0 0 1 23-23 23 23 0 0 1 23 23z" style="fill:url(#linearGradient952);paint-order:stroke fill markers"/>
 <path id="path914" d="m34.390382 20.36382c-0.1606 0.0011-0.310489 0.06595-0.566764 0.163766-0.268476 0.118564-2.12389 0.569301-4.10086 0.99613-3.368166 0.711384-3.661568 0.735304-4.393778 0.403325-0.414919-0.189702-0.927139-0.30864-1.073581-0.261214-0.366105 0.118565-0.414023 0.829976-0.09673 1.138242 0.146441 0.142277 0.585091 1.730952 1.00001 3.556837 0.585769 2.584694 0.878243 3.437885 1.341976 3.888429l0.585837 0.592806 0.610361-0.545436c0.781023-0.735097 2.001844-0.948056 4.955092-0.971769 1.366794 0 2.538641-0.09528 2.636268-0.213843 0.07322-0.118563-6.98e-4 -0.49768-0.147141-0.829658-0.24407-0.497969-0.170234-0.924523 0.415536-2.560706 0.39051-1.067075 0.951114-2.324711 1.268406-2.751541 0.292883-0.42683 0.48864-0.900575 0.391012-1.019139-0.07322-0.118564-0.707626-0.544993-1.391023-0.924398-0.869499-0.489076-1.166953-0.663684-1.43462-0.661831zm-1.470042 1.870451c0.658989-0.02371 0.682732 0.261851 0.145778 3.202236l-0.414174 2.18039-2.318825 0.403324c-2.684772 0.474256-2.538126 0.593137-3.099487-2.015269-0.219662-0.972223-0.439045-1.943968-0.512267-2.157381-0.09763-0.308267 0.365833-0.47456 2.51365-0.901391 1.46442-0.284553 2.758104-0.569742 2.880139-0.617168 0.146443-0.04743 0.487894-0.09474 0.805186-0.09474z" style="fill:url(#linearGradient1043)"/>
 <path id="path916" d="m22.181104 13.081529c1.293572 1.280491 1.220351 1.422768-1.049501 2.394992-1.464422 0.616532-1.537643 0.68767-1.195945 1.138213 0.195257 0.260841 0.341698 1.043363 0.341698 1.731034 0 1.351628 0.17085 1.493905 1.220351 0.901085 0.732211-0.403117 1.854934-0.450543 2.904436-0.09485 0.585767 0.213415 0.756617 0.379405 0.707802 0.782522-0.07322 0.42683-0.292883 0.521681-1.537642 0.687671-0.805431 0.09485-1.903746 0.260841-2.4407 0.355692l-0.976282 0.165989-0.07322 1.233065c-0.07322 1.351629-0.24407 1.209352 2.196632 1.636182 0.927467 0.142277 1.464422 0.687671 1.732898 1.70732 0.414919 1.61247-0.805431 1.636183-2.587144 0.04743l-1.317978-1.161927-0.146443 3.011523c-0.09763 1.659895-0.170848 4.054887-0.170848 5.311665 0 3.177512-0.292885 3.675481-1.440015 2.466129-0.73221-0.758809-0.97628-1.897023-0.756617-3.604343 0.09763-0.758809 0.24407-2.608406 0.341698-4.078599l0.146442-2.703258-3.319354 3.106376c-2.904435 2.72697-4.00275 3.50949-4.00275 2.940384 0-0.07114 0.805431-1.114501 1.806119-2.30014 1.854933-2.229001 5.14988-7.018984 4.832589-7.018984-0.09763 0-1.317979 0.284553-2.733586 0.640245-2.562737 0.616532-4.051564 0.640245-3.856308 0 0.07322-0.165989 1.684084-0.711384 3.636645-1.256778l3.51461-0.972224 0.07322-1.375341c0.122035-2.063013 0.146443-2.063013-2.172224-1.399055-2.147818 0.616533-3.270541 0.735097-3.02647 0.33198 0.09763-0.142277 1.122723-0.711384 2.269853-1.280491 1.171536-0.569107 2.831213-1.541331 3.661052-2.157863 1.342386-0.948511 1.537642-1.18564 1.415607-1.683608-0.268477-0.948511 0.756617-0.711384 2.001375 0.497968z" style="fill:url(#linearGradient1043)"/>
</svg>
