<?xml version="1.0" encoding="UTF-8"?>
<svg id="svg12" version="1" viewBox="0 0 48 48" xmlns="http://www.w3.org/2000/svg" xmlns:xlink="http://www.w3.org/1999/xlink">
 <defs id="defs16">
  <linearGradient id="linearGradient900" x1="-36.40678" x2="-36.40678" y1="35.984604" y2="-10.05962" gradientTransform="matrix(.84954577 0 0 .92780104 55.274762 11.923122)" gradientUnits="userSpaceOnUse">
   <stop id="stop894" style="stop-color:#77c51e" offset="0"/>
   <stop id="stop896" style="stop-color:#a3e851" offset="1"/>
  </linearGradient>
  <linearGradient id="linearGradient892-3-3" x1="23.670452" x2="23.670452" y1="44.483337" y2="11.77158" gradientTransform="matrix(.96473848 0 0 .92780104 .8274708 1.3675756)" gradientUnits="userSpaceOnUse">
   <stop id="stop836" style="stop-color:#7ed020" offset="0"/>
   <stop id="stop838" style="stop-color:#a3e851" offset="1"/>
  </linearGradient>
 </defs>
 <path id="path891" d="m6.5901479 2-0.1244449 0.045305c-0.2345503 0.083122-0.4667345 0.1671999-0.6968934 0.2536951-0.018316 0.0064 6.932e-4 8.118e-4 -0.011613 0.00547-0.00212 8.044e-4 -0.0045 0.00102-0.00662 0.00185-0.019276 0.00751-0.032555 0.013258-0.024891 0.010874h-0.00169c0.00433-0.0014-0.021909 0.00936-0.011613 0.00547-0.067895 0.024763-0.1365731 0.049238-0.2040899 0.074298l0.1061764 0.7031125-0.1443564-0.6505485c-0.4551842 0.2564408-0.8768163 0.7410915-0.9656948 1.4061989-0.3306586 2.4856002-0.5044179 5.0717224-0.5044179 7.730467 0 11.973728 3.9238047 20.582412 8.356079 26.16689 2.216137 2.792238 4.555144 4.833269 6.608869 6.18836 2.053725 1.355089 3.749232 2.058558 5.034223 2.058558 1.286748 0 2.983981-0.708314 5.03754-2.067619 2.05356-1.359304 4.391292-3.403851 6.607209-6.199234 4.431837-5.590762 8.35608-14.199377 8.35608-26.146955 0-2.6587447-0.173774-5.2439318-0.504418-7.730467h-0.0017c-0.088776-0.6653478-0.509083-1.1502188-0.964074-1.4061989l-0.0979 0.4403436 0.07632-0.4928942c-0.07704-0.027287-0.154789-0.054628-0.232297-0.081545l-0.01825-0.00724c-0.01093-0.00352-0.0365-0.010753-0.02158-0.00547l-0.0033-0.00185c-0.252283-0.089288-0.506044-0.1756359-0.763229-0.26095l-0.117808-0.039868z" style="color-rendering:auto;color:#000000;dominant-baseline:auto;fill:url(#linearGradient900);font-feature-settings:normal;font-variant-alternates:normal;font-variant-caps:normal;font-variant-ligatures:normal;font-variant-numeric:normal;font-variant-position:normal;image-rendering:auto;isolation:auto;mix-blend-mode:normal;shape-padding:0;shape-rendering:auto;solid-color:#000000;text-decoration-color:#000000;text-decoration-line:none;text-decoration-style:solid;text-indent:0;text-orientation:mixed;text-transform:none;white-space:normal"/>
 <path id="path910" d="m8.2328244 4.0766793-0.1128298 0.039867c-0.2180342 0.077269-0.4332734 0.1550873-0.6471152 0.2355743-0.027322 0.010645-0.065398 0.026249-0.034849 0.014497-0.061712 0.02251-0.1228087 0.046087-0.184179 0.06886l0.0962389 0.6360514-0.1310824-0.5889362c-0.412237 0.2322439-0.7939421 0.6715637-0.8744349 1.2739142-0.2994598 2.2510753-0.4579587 4.594115-0.4579587 7.001999 0 10.843966 3.5538518 18.639419 7.5679267 23.696981 2.007037 2.528782 4.125034 4.377628 5.984983 5.604861 1.85995 1.227232 3.395923 1.864663 4.559672 1.864663 1.165341 0 2.701531-0.640863 4.561331-1.871912 1.859799-1.231049 3.978144-3.084106 5.984983-5.615733 4.013678-5.063256 7.567927-12.858577 7.567926-23.67886 0-2.407884-0.15851-4.7500769-0.457958-7.001999-0.08037-0.6025637-0.462371-1.0420871-0.874435-1.2739142l-0.08794 0.3968523 0.06803-0.4439672c-0.06937-0.024566-0.139293-0.05006-0.20907-0.074296l-0.01825-0.00544c-0.0079-0.00251-0.03056-0.00987-0.01825-0.00544l-0.0033-0.00181c-0.228413-0.0808078-0.459113-0.160152-0.691922-0.2373801l-0.106193-0.03443z" style="color-rendering:auto;color:#000000;dominant-baseline:auto;fill:#ffffff;font-feature-settings:normal;font-variant-alternates:normal;font-variant-caps:normal;font-variant-ligatures:normal;font-variant-numeric:normal;font-variant-position:normal;image-rendering:auto;isolation:auto;mix-blend-mode:normal;shape-padding:0;shape-rendering:auto;solid-color:#000000;text-decoration-color:#000000;text-decoration-line:none;text-decoration-style:solid;text-indent:0;text-orientation:mixed;text-transform:none;white-space:normal"/>
 <path id="path863" d="m8.3512987 4.8939441a27.41042 14.058545 0 0 0-0.6349938 0.2319502c-0.010441 0.00362-0.019871 0.00872-0.03015 0.012683a27.41042 14.058545 0 0 0-0.1921944 0.07067h0.067828c-0.2494223 0.1405189-0.4377267 0.373268-0.4767174 0.6650457-0.2942452 2.2118777-0.4503374 4.515535-0.4503374 6.884212 0 21.299528 13.904774 30.349241 17.365291 30.349241s17.365292-9.097958 17.365292-30.349241c0-2.368677-0.156093-4.6714066-0.450338-6.884212-0.03899-0.2923631-0.227294-0.5247206-0.476715-0.6650451h0.06972c0.0076 0 0.01511 0.00343 0.02262 0.00362a27.41042 14.058545 0 0 0-0.22234-0.077916c-0.0075-0.00288-0.01499-0.00455-0.02262-0.00724a27.41042 14.058545 0 0 0-0.682107-0.2337678z" style="fill:url(#linearGradient892-3-3)"/>
 <path id="path8" d="m24.434562 13.180663s-2.737431 0-3.788667 2.356037l-2.890897 6.479101h-2.053075l2.628089-5.890092h-2.053073l-2.62809 5.890092c-0.788427 1.767027 1.264647 1.767027 1.264647 1.767027h2.053072l-1.051234 2.356037s-1.051235 2.356036 1.686194 2.356036h8.212293c2.737433 0 3.788669-2.356036 3.788669-2.356036l2.890897-6.4791h-4.790505l-1.051235 2.356036h2.737431l-6.892975 4.712073-2.688034-4.712073h2.737431l2.890898-6.479101h4.106148l-1.051236 2.356037h4.790504l1.051235-2.356037s1.051237-2.356037-1.686195-2.356037z" style="fill:#ffffff;stroke-width:.78882724"/>
</svg>
