<?xml version="1.0" encoding="UTF-8"?>
<svg version="1.1" viewBox="0 0 48 48" xmlns="http://www.w3.org/2000/svg" xmlns:xlink="http://www.w3.org/1999/xlink">
 <defs>
  <linearGradient id="linearGradient1282" x1="-9.2889891" x2="-9.2889891" y1="1036.1134" y2="1010.4963" gradientTransform="matrix(1.686599,0,0,1.6350627,40.208809,-1649.389)" gradientUnits="userSpaceOnUse">
   <stop stop-color="#3bd450" offset="0"/>
   <stop stop-color="#53f086" offset="1"/>
  </linearGradient>
 </defs>
 <path d="m6 2h36c2.216 0 4 1.784 4 4v36c0 2.216-1.784 4-4 4h-36c-2.216 0-4-1.784-4-4v-36c0-2.216 1.784-4 4-4z" style="fill:url(#linearGradient1282);paint-order:stroke fill markers"/>
 <path d="m20.526249 12.999969s-1.687509-0.03287-3.496093 0.720703c-1.808585 0.753577-4.029297 2.840131-4.029297 5.9375 0 3.097368 2.220712 5.183923 4.029297 5.9375 1.808584 0.753577 3.496093 0.720703 3.496093 0.720703h6.947266s0.918165 0.03133 1.714844 0.363281c0.796678 0.33195 1.179687 0.417372 1.179687 1.66211 0 1.244736-0.383009 1.330159-1.179687 1.662109-0.796679 0.331949-1.714844 0.365234-1.714844 0.365234h-12.158203a2.316021 2.316021 0 1 0 0 4.63086h12.158203s1.687509 0.03287 3.496094-0.720703c1.808585-0.753577 4.03125-2.840132 4.03125-5.9375 0-3.097369-2.222665-5.183923-4.03125-5.9375-1.808585-0.753578-3.496094-0.720704-3.496094-0.720704h-6.947266s-0.918165-0.03133-1.714843-0.363281c-0.796679-0.331949-1.179688-0.417373-1.179688-1.662109 0-1.244738 0.383009-1.33016 1.179688-1.66211 0.796678-0.331949 1.714843-0.365234 1.714843-0.365234h12.158204a2.316021 2.316021 0 1 0 0-4.630859z" style="color-rendering:auto;color:#000000;dominant-baseline:auto;fill-opacity:.99009902;fill:#ffffff;font-feature-settings:normal;font-variant-alternates:normal;font-variant-caps:normal;font-variant-ligatures:normal;font-variant-numeric:normal;font-variant-position:normal;image-rendering:auto;isolation:auto;mix-blend-mode:normal;shape-padding:0;shape-rendering:auto;solid-color:#000000;text-decoration-color:#000000;text-decoration-line:none;text-decoration-style:solid;text-indent:0;text-orientation:mixed;text-transform:none;white-space:normal"/>
 <path d="m7 4c-1.6447028 0-3 1.3552972-3 3v34c0 1.644703 1.3552972 3 3 3h34c1.644703 0 3-1.355297 3-3v-34c0-1.6447028-1.355297-3-3-3zm0 2h34c0.571297 0 1 0.4287028 1 1v34c0 0.571297-0.428703 1-1 1h-34c-0.5712972 0-1-0.428703-1-1v-34c0-0.5712972 0.4287028-1 1-1z" style="color-rendering:auto;color:#000000;dominant-baseline:auto;fill:#ffffff;font-feature-settings:normal;font-variant-alternates:normal;font-variant-caps:normal;font-variant-ligatures:normal;font-variant-numeric:normal;font-variant-position:normal;image-rendering:auto;isolation:auto;mix-blend-mode:normal;paint-order:stroke fill markers;shape-padding:0;shape-rendering:auto;solid-color:#000000;text-decoration-color:#000000;text-decoration-line:none;text-decoration-style:solid;text-indent:0;text-orientation:mixed;text-transform:none;white-space:normal"/>
</svg>
