<?xml version="1.0" encoding="UTF-8"?>
<svg id="svg32" version="1.1" viewBox="0 0 48 48" xmlns="http://www.w3.org/2000/svg" xmlns:xlink="http://www.w3.org/1999/xlink">
 <defs id="defs36">
  <linearGradient id="linearGradient857-3" x1="-45.35593" x2="-45.35593" y1="48.203388" y2="7.7288136" gradientTransform="matrix(1,0,0,1.1,69.118646,-6.5762692)" gradientUnits="userSpaceOnUse">
   <stop id="stop851" style="stop-color:#0050de" offset="0"/>
   <stop id="stop853" style="stop-color:#1fb3cd" offset="1"/>
  </linearGradient>
 </defs>
 <path id="rect849" d="M 4.7734976,2 H 43.226502 C 44.76302,2 46,3.2369799 46,4.7734976 V 43.226502 C 46,44.76302 44.76302,46 43.226502,46 H 4.7734976 C 3.2369799,46 2,44.76302 2,43.226502 V 4.7734976 C 2,3.2369799 3.2369799,2 4.7734976,2 Z" style="fill:url(#linearGradient857-3)"/>
 <path id="path28" d="m31.90573 26.41303-2.628865 0.01779-0.03792-4.932782 2.628865-0.01778c2.903581-0.01966 5.240751-2.24423 5.219811-4.968359-0.02094-2.724128-2.392069-4.916852-5.29565-4.897205-2.903909 0.01965-5.240751 2.244229-5.219811 4.968358l0.01895 2.466391-5.257729 0.03557-0.01897-2.46639c-0.02094-2.724129-2.392067-4.916852-5.295649-4.897207-2.903581 0.01966-5.240752 2.244229-5.21981 4.968358 0.02094 2.724129 2.392067 4.916852 5.295649 4.897205l2.628865-0.01778 0.03792 4.932781-2.628865 0.01779c-2.903582 0.01966-5.240753 2.244229-5.219811 4.968357 0.02094 2.724129 2.392067 4.916852 5.295649 4.897205 2.90391-0.01966 5.240752-2.244227 5.21981-4.968356l-0.01895-2.466391 5.25773-0.03557 0.01892 2.460223c1.9e-5 0.0024-2.95e-4 0.0043-2.81e-4 0.0062 0.02094 2.724128 2.392068 4.916853 5.29565 4.897206 2.903581-0.01966 5.240751-2.244229 5.21981-4.968358-0.02094-2.724128-2.391735-4.916237-5.295321-4.897207zm-0.0948-12.331955c1.451791-0.0097 2.637353 1.08654 2.647824 2.448603 0.01043 1.362065-1.158115 2.474356-2.609906 2.484179l-2.628865 0.01778-0.01895-2.46639c-0.01043-1.362065 1.158115-2.474355 2.609906-2.48418zm-18.383095 2.590908c-0.01043-1.362065 1.158114-2.474356 2.609904-2.484179 1.451791-0.0097 2.637355 1.086538 2.647825 2.448602l0.01895 2.466392-2.628865 0.01778c-1.451791 0.0097-2.637357-1.086847-2.647824-2.448603zm2.761582 17.246946c-1.451791 0.0097-2.637355-1.086538-2.647826-2.448602-0.01043-1.362065 1.158115-2.474356 2.609906-2.484179l2.628865-0.01779 0.01896 2.466391c0.01043 1.362065-1.158114 2.474354-2.609905 2.484178zm5.200851-7.434747-0.03792-4.932782 5.257731-0.03557 0.03792 4.932782zm10.572338 7.32802c-1.45179 0.0097-2.637353-1.086538-2.647824-2.448603l-0.01895-2.46639 2.628536-0.01778c1.451791-0.0097 2.637354 1.086539 2.647824 2.448603 0.01043 1.362064-1.157786 2.474354-2.609577 2.484177z" style="fill:#ffffff;stroke-width:.41249508"/>
</svg>
