<?xml version="1.0" encoding="UTF-8"?>
<svg id="svg8" width="48" height="48" version="1.1" viewBox="0 0 12.7 12.7" xmlns="http://www.w3.org/2000/svg" xmlns:xlink="http://www.w3.org/1999/xlink">
 <defs id="defs2">
  <linearGradient id="linearGradient1301" x1="-46.576271" x2="-2.0338986" y1="24.20339" y2="24.20339" gradientTransform="matrix(.26464514 0 0 .26463926 -284.29711 -5.5868151e-5)" gradientUnits="userSpaceOnUse">
   <stop id="stop1295" style="stop-color:#f2f2f2" offset="0"/>
   <stop id="stop1297" style="stop-color:#f9f9f9" offset="1"/>
  </linearGradient>
  <linearGradient id="linearGradient1370" x1="23.791016" x2="23.791016" y1="46.476032" y2="1.0019531" gradientTransform="matrix(.26459849 0 0 .26458333 -1.5671519e-5 284.2999)" gradientUnits="userSpaceOnUse">
   <stop id="stop1364" style="stop-color:#42a603" offset="0"/>
   <stop id="stop1366" style="stop-color:#78da06" offset="1"/>
  </linearGradient>
 </defs>
 <g id="layer1" transform="translate(0,-284.29998)">
  <path id="rect884-3" transform="rotate(-90)" d="m-290.65 0.26458362c3.37133 0 6.08542 2.7140959 6.08542 6.0854168s-2.71409 6.0854166-6.08542 6.0854166c-3.37132 0-6.08541-2.7140957-6.08541-6.0854166s2.71409-6.0854168 6.08541-6.0854168z" style="fill:url(#linearGradient1301);stroke-width:.30792442"/>
  <path id="path31-6" d="m6.2950511 284.565c-0.1870859 2e-3 -0.3750329 0.0134-0.5638224 0.0331-0.00206 2e-4 -0.00415 3.2e-4 -0.0062 5.3e-4 -5.027e-4 5e-5 -0.00103-6e-5 -0.00156 0-0.056941 6e-3 -0.1140219 0.014-0.1710587 0.0217-0.055769 7e-3 -0.1116489 0.0145-0.1669243 0.0233-3.44e-4 5e-5 -6.879e-4 -6e-5 -0.00103 0-0.00103 1.6e-4 -0.00206 3.4e-4 -0.0031 5.3e-4 -2.907312 0.46085-5.1167665 2.96633-5.1167665 6.00738 0 0.21061 0.0103095 0.41875 0.0310076 0.62374 0.0207002 0.20498 0.051596 0.40677 0.0919893 0.60513 0.0201967 0.0992 0.042768 0.19722 0.0677 0.29455 0.0498643 0.19467 0.10869094 0.38605 0.17674354 0.57258 0.0340264 0.0933 0.0701417 0.18491 0.10852671 0.27595 9.512e-5 2.3e-4 9.1811e-4 2.9e-4 0.001035 5.3e-4 0.0766938 0.18183 0.16144716 0.35954 0.25477941 0.53175 0.14696033 0.27117 0.31988753 0.52535 0.50490763 0.76946 0.05029 0.0663 0.096436 0.13582 0.1493535 0.19999v5.3e-4c0.1237248 0.15001 0.254872 0.29413 0.3922465 0.4315 0.2161914 0.21618 0.4524267 0.41054 0.6992222 0.59221 0.067081 0.0494 0.130841 0.10321 0.1999993 0.14986h5.292e-4c0.1616752 0.10903 0.3289758 0.21048 0.5012902 0.30386h5.291e-4c0.2585487 0.14008 0.5285886 0.26229 0.8082659 0.36432h5.291e-4c0.093115 0.034 0.1869625 0.0656 0.2821694 0.0951h5.292e-4c0.095209 0.0295 0.1917118 0.0573 0.2888877 0.0822h5.291e-4c0.1945347 0.0498 0.3926499 0.0903 0.5943132 0.12092h5.292e-4c0.1007417 0.0153 0.202575 0.0284 0.3049084 0.0388h5.292e-4c0.2047711 0.0206 0.4126783 0.031 0.6231655 0.031 1.1995581 0 2.314822-0.34533 3.2552848-0.94 0.080254-0.0507 0.1595739-0.10275 0.2372082-0.15709 0.00992-7e-3 0.019582-0.0142 0.029457-0.0212 0.070929-0.0503 0.1406837-0.10182 0.2093017-0.15503 0.0093-7e-3 0.01862-0.0144 0.02791-0.0217 0.06529-0.0512 0.129674-0.10379 0.192764-0.15762 0.01583-0.0135 0.03136-0.0272 0.04703-0.0408 0.0565-0.0492 0.112295-0.0991 0.166924-0.15038 0.01851-0.0173 0.03651-0.0352 0.05478-0.0527 0.05044-0.0485 0.100105-0.0976 0.148837-0.14779 0.02387-0.0246 0.04737-0.0495 0.0708-0.0744 0.0372-0.0396 0.07394-0.0798 0.110077-0.1204 0.03411-0.0384 0.06768-0.0771 0.100775-0.11628 0.02929-0.0347 0.0583-0.0696 0.08682-0.1049 0.03082-0.0382 0.06109-0.0769 0.09096-0.11575 0.03268-0.0426 0.06507-0.0852 0.09664-0.12868 0.02196-0.0302 0.04321-0.0609 0.0646-0.0915 0.03588-0.0513 0.07111-0.10306 0.105426-0.15554 0.01994-0.0305 0.03953-0.0611 0.05892-0.092 0.03001-0.0478 0.05915-0.096 0.08785-0.14469 0.02266-0.0384 0.04486-0.0769 0.06667-0.11576 0.02525-0.045 0.05029-0.0902 0.07442-0.1359 0.02418-0.0458 0.04727-0.0921 0.07028-0.1385 0.0177-0.0357 0.0357-0.0714 0.05271-0.10748 0.02634-0.0558 0.05133-0.11236 0.07597-0.16899 0.01424-0.0328 0.0287-0.0656 0.04238-0.0987 0.02649-0.0639 0.05165-0.12838 0.07597-0.19327 0.0082-0.0219 0.01637-0.0436 0.02429-0.0656 0.02936-0.0812 0.05626-0.16297 0.08217-0.24546 0.0014-4e-3 0.0033-9e-3 0.0047-0.0129 7.93e-4 -3e-3 0.0013-5e-3 0.0021-8e-3 0.02862-0.0923 0.05535-0.18529 0.07959-0.27905 2.2e-4 -8.5e-4 2.91e-4 -2e-3 5.3e-4 -3e-3 1.34e-4 -5.3e-4 3.7e-4 -1e-3 5.29e-4 -2e-3 0.253195-0.98256 0.264762-2.04285-0.01757-3.09645-0.736121-2.74694-3.2179015-4.54189-5.9307513-4.51187zm0.053747 0.67644c2.392989-5e-3 4.5737559 1.58447 5.2237529 4.01009 0.12548 0.46826 0.185529 0.93799 0.186562 1.39992h-0.0016c0 0.10521-0.0039 0.20946-0.0098 0.31316-0.0061 0.10773-0.01599 0.21492-0.02842 0.32142-0.0072 0.062-0.01451 0.12416-0.02377 0.18552-0.01832 0.12037-0.04089 0.23937-0.06718 0.3576-0.01064 0.0482-0.02117 0.0965-0.03308 0.14418-0.0296 0.11772-0.06447 0.23377-0.101809 0.34881-0.03182 0.0986-0.06872 0.19494-0.105943 0.29094-0.02721 0.0699-0.05315 0.14016-0.0832 0.20878-0.03746 0.0858-0.07974 0.16881-0.121447 0.25218-0.03707 0.074-0.07328 0.1485-0.113695 0.22066-0.04216 0.0754-0.08824 0.14811-0.133849 0.22117-0.04623 0.074-0.09181 0.14841-0.141602 0.22014-0.04724 0.0681-0.09807 0.13321-0.14832 0.19896-0.05613 0.0734-0.112166 0.14699-0.172092 0.21755-0.05032 0.0593-0.103793 0.1156-0.156589 0.1726-0.06436 0.0695-0.128763 0.13899-0.196898 0.20516-0.05378 0.0523-0.11048 0.1014-0.1664072 0.15141-0.076307 0.0681-0.1526294 0.13604-0.2330741 0.19999-0.050881 0.0405-0.1042249 0.0781-0.1565886 0.11679-0.090264 0.0666-0.181061 0.13262-0.2759681 0.19378-0.098347 0.0636-0.1981306 0.12466-0.3007738 0.18191-0.047386 0.0263-0.095296 0.0515-0.1436688 0.0765-0.1053732 0.0546-0.2126321 0.10672-0.3219627 0.15451-0.055708 0.0243-0.112667 0.0467-0.1695082 0.0692-0.092986 0.0369-0.187216 0.071-0.2826864 0.10284-0.1053402 0.0352-0.212163 0.0685-0.320929 0.0977l5.291e-4 2e-3c-0.4462589 0.11842-0.9154543 0.18242-1.3999945 0.18242-1.4981581 0-2.8497871-0.60279-3.8273758-1.58026-0.2443995-0.24437-0.4654221-0.51234-0.6594314-0.79995-0.582028-0.86283-0.92144361-1.90423-0.92144361-3.02772 0-2.51113 1.6949121-4.61134 4.0077369-5.22552l5.292e-4 2e-3c0.1808824-0.0485 0.3623447-0.0874 0.5431501-0.11679 0.051075-8e-3 0.1019583-0.0144 0.152971-0.0212 0.049735-6e-3 0.099196-0.0135 0.1493538-0.0186 0.1822599-0.0184 0.3672499-0.0279 0.5545199-0.0279z" style="fill:url(#linearGradient1370);stroke-opacity:.55;stroke-width:.74083316"/>
  <path id="rect1139-2" transform="scale(1,-1)" d="m5.4112625-291.9126h1.8749023v1.26547h-1.8749023z" style="fill:#63c605"/>
  <path id="rect1141-6" transform="scale(1,-1)" d="m5.4112625-293.53354h1.8749023v1.26547h-1.8749023z" style="fill:#52b504"/>
  <path id="rect1145-1" d="m3.7605579 290.35716 2.5883494-2.58791 2.5879625 2.58791h-1.1060924l-1.4818701-1.48222-1.482257 1.48222z" style="fill:#78da06"/>
 </g>
</svg>
