<?xml version="1.0" encoding="UTF-8"?>
<svg id="svg27" version="1.1" viewBox="0 0 48 48" xmlns="http://www.w3.org/2000/svg" xmlns:xlink="http://www.w3.org/1999/xlink">
 <defs id="defs31">
  <linearGradient id="linearGradient2562" x1="23.59322" x2="23.59322" y1="33.152542" y2="5.4915257" gradientUnits="userSpaceOnUse">
   <stop id="stop2556" style="stop-color:#51e415" offset="0"/>
   <stop id="stop2558" style="stop-color:#7bdf53" offset="1"/>
  </linearGradient>
 </defs>
 <path id="rect4254" d="m18.249992 34.541665v10.541666h11.499999v-10.541666z" style="fill:#999999"/>
 <path id="rect4173" d="m1.0000001 2.9166687h46v34.499996h-46z" style="fill:#4d4d4d"/>
 <path id="rect4295" d="m13.458336 44.124977h21.083332v0.958308h-21.083332z" style="fill:#797474"/>
 <path id="path3072" d="m24.958325 35.499997a0.95833328 0.95833336 0 0 1-0.958334 0.958334 0.95833328 0.95833336 0 0 1-0.958332-0.958334 0.95833328 0.95833336 0 0 1 0.958332-0.958332 0.95833328 0.95833336 0 0 1 0.958334 0.958332z" style="fill-rule:evenodd;fill:#dfdfdf;opacity:.75"/>
 <path id="rect32" d="m4.0412552 5.0203757h40.120602c0.26159 0 0.472183 0.2105936 0.472183 0.472183v27.533083c0 0.26159-0.210593 0.472183-0.472183 0.472183h-40.120602c-0.2615893 0-0.472183-0.210593-0.472183-0.472183v-27.533083c0-0.2615894 0.2105937-0.472183 0.472183-0.472183z" style="fill-rule:evenodd;fill:url(#linearGradient2562);stroke-width:.88903129"/>
 <path id="path983-5-7" d="m24.100574 10.259206c-0.317556 0-0.634645 0.09823-0.901965 0.294196v-7.24e-4c-0.741875 0.543108-3.124051 2.084713-5.877157 2.343673-0.887881 0.0831-1.588345 0.843501-1.603882 1.741841v0.002026c-0.01967 1.290738 0.0602 4.067393 1.075336 6.864117 1.015141 2.796724 3.078576 5.675002 6.853527 6.694388l7.37e-4 7.36e-4h7.36e-4c0.296647 0.07955 0.608827 0.07955 0.905474 0h7.37e-4l7.36e-4 -7.36e-4c3.775027-1.018515 5.838128-3.896803 6.853455-6.693681 1.015075-2.796188 1.096191-5.572346 1.077444-6.862703-0.01169-0.904246-0.716643-1.663332-1.604585-1.746084l-0.0013-7.24e-4c-2.750891-0.259241-5.130135-1.797174-5.876458-2.342254-0.26732-0.195962-0.585112-0.294197-0.902667-0.294197z" style="color-rendering:auto;color:#000000;dominant-baseline:auto;fill:#35577a;font-feature-settings:normal;font-variant-alternates:normal;font-variant-caps:normal;font-variant-ligatures:normal;font-variant-numeric:normal;font-variant-position:normal;image-rendering:auto;isolation:auto;mix-blend-mode:normal;shape-padding:0;shape-rendering:auto;solid-color:#000000;text-decoration-color:#000000;text-decoration-line:none;text-decoration-style:solid;text-indent:0;text-orientation:mixed;text-transform:none;white-space:normal"/>
 <g id="g4160-6-4-4" transform="matrix(.76239839 0 0 .81440082 18.002369 11.863718)" style="fill:#78df4f;stroke-width:.3438459">
  <g id="g3-4-8-7-7-9" transform="matrix(.02451023 0 0 .02451023 -4.6569066 1.7149281)" style="fill:#78df4f;stroke-width:.3438459">
   <g id="Wi-Fi-38-5-4-1" style="fill:#78df4f;stroke-width:.3438459">
    <g id="g6-0-3-4-7" style="fill:#78df4f;stroke-width:.3438459">
     <g id="g4692-73-5-3-0" transform="translate(973.09344,-210.39858)" style="fill:#78df4f;stroke-width:.3438459">
      <path id="path8-15-6-0-6" d="m-456.70043 534.13427c-49.553 0-96.331 21.852-128.335 59.948-9.93 11.811-8.402 29.434 3.428 39.363 5.234 4.396 11.605 6.557 17.958 6.557 7.973 0 15.891-3.39 21.405-9.966 21.368-25.429 52.552-40.016 85.544-40.016s64.177 14.587 85.544 40.016c5.533 6.595 13.45 9.966 21.405 9.966 6.353 0 12.724-2.142 17.958-6.557 11.83-9.93 13.357-27.553 3.428-39.363-32.005-38.096-78.783-59.948-128.335-59.948z" style="fill:#78df4f;stroke-width:.3438459"/>
      <path id="path8-4-43-2-7-0" d="m-456.71026 411.20563c-82.545 0-160.489 36.419-213.879 99.926-9.929 11.811-8.402 29.434 3.428 39.363 5.234 4.396 11.605 6.558 17.958 6.558 7.973 0 15.891-3.391 21.405-9.967 42.716-50.838 105.086-79.993 171.089-79.993s128.372 29.155 171.107 79.993c5.533 6.595 13.45 9.967 21.404 9.967 6.353 0 12.724-2.14299 17.959-6.558 11.829-9.929 13.356-27.57 3.428-39.363-53.41-63.506-131.354-99.926-213.899-99.926z" style="fill:#78df4f;stroke-width:.3438459"/>
      <path id="path8-8-0-9-8-8" d="m-157.25874 432.76761c-74.739-88.935-183.887-139.923-299.442-139.923s-224.68501 50.988-299.44301 139.923c-9.93 11.811-8.402 29.434 3.428 39.363 5.234 4.396 11.587 6.558 17.939 6.558 7.973 0 15.891-3.391 21.423-9.967 64.08401-76.248 157.63901-119.989 256.65201-119.989s192.568 43.741 256.651 119.971c5.533 6.576 13.45 9.967 21.424 9.967 6.353 0 12.724-2.14299 17.958-6.558 11.81099-9.912 13.33999-27.553 3.41-39.345z" style="fill:#78df4f;stroke-width:.3438459"/>
      <path id="path8-1-37-1-6-5" d="m-502.72533 682.97548c0 25.40596 20.61957 46.02476 46.02469 46.02476 25.40511 0 46.02469-20.6188 46.02469-46.02476-7.77548-65.32599-90.56863-48.66693-92.04938 0z" style="fill:#78df4f;stroke-width:.3438459"/>
     </g>
    </g>
   </g>
  </g>
 </g>
</svg>
