<?xml version="1.0" encoding="UTF-8" standalone="no"?>
<svg
   xmlns:dc="http://purl.org/dc/elements/1.1/"
   xmlns:cc="http://creativecommons.org/ns#"
   xmlns:rdf="http://www.w3.org/1999/02/22-rdf-syntax-ns#"
   xmlns:svg="http://www.w3.org/2000/svg"
   xmlns="http://www.w3.org/2000/svg"
   xmlns:xlink="http://www.w3.org/1999/xlink"
   width="48"
   height="48"
   viewBox="0 0 48 48"
   id="svg2"
   version="1.1">
  <defs
     id="defs4">
    <linearGradient
       id="linearGradient4157">
      <stop
         style="stop-color:#0055d4;stop-opacity:1;"
         offset="0"
         id="stop4159" />
      <stop
         style="stop-color:#3771c8;stop-opacity:1"
         offset="1"
         id="stop4161" />
    </linearGradient>
    <linearGradient
       xlink:href="#linearGradient834"
       id="linearGradient4163"
       x1="757.59961"
       y1="726.43201"
       x2="727.20221"
       y2="696.11487"
       gradientUnits="userSpaceOnUse"
       gradientTransform="matrix(1.0693111,0,0,1.0693111,-51.496891,-49.30761)" />
    <clipPath
       id="clipPath6043"
       clipPathUnits="userSpaceOnUse">
      <rect
         transform="matrix(0.70825126,0.70596045,-0.70596045,0.70825126,0,0)"
         ry="2.0792313"
         rx="1.9360958"
         y="694.52728"
         x="726.11261"
         height="33.736721"
         width="33.736721"
         id="rect6045"
         style="opacity:1;fill:url(#linearGradient6047);fill-opacity:1;stroke:none;stroke-width:1.9604038;stroke-miterlimit:4;stroke-dasharray:none;stroke-opacity:1" />
    </clipPath>
    <linearGradient
       y2="696.11487"
       x2="727.20221"
       y1="726.43201"
       x1="757.59961"
       gradientTransform="matrix(1.0693111,0,0,1.0693111,-51.496891,-49.30761)"
       gradientUnits="userSpaceOnUse"
       id="linearGradient6047"
       xlink:href="#linearGradient4157" />
    <linearGradient
       xlink:href="#linearGradient834"
       id="linearGradient4160"
       x1="1.8169441"
       y1="1027.3596"
       x2="46.347672"
       y2="1030.2302"
       gradientUnits="userSpaceOnUse"
       gradientTransform="matrix(1.0217247,0,0,1.0217247,-1037.0034,-1184.1474)" />
    <linearGradient
       id="linearGradient834">
      <stop
         id="stop830"
         offset="0"
         style="stop-color:#1472ff;stop-opacity:1" />
      <stop
         id="stop832"
         offset="1"
         style="stop-color:#43c4f0;stop-opacity:1" />
    </linearGradient>
  </defs>
  <metadata
     id="metadata7">
    <rdf:RDF>
      <cc:Work
         rdf:about="">
        <dc:format>image/svg+xml</dc:format>
        <dc:type
           rdf:resource="http://purl.org/dc/dcmitype/StillImage" />
        <dc:title></dc:title>
      </cc:Work>
    </rdf:RDF>
  </metadata>
  <g
     id="layer1"
     transform="translate(0,-1004.3622)">
    <rect
       style="opacity:1;fill:url(#linearGradient4163);fill-opacity:1.0;stroke:none;stroke-width:1.9604038;stroke-miterlimit:4;stroke-dasharray:none;stroke-opacity:1"
       id="rect4136"
       width="33.736721"
       height="33.736721"
       x="726.11261"
       y="694.52728"
       rx="1.9360958"
       ry="2.0792313"
       transform="matrix(0.70825126,0.70596045,-0.70596045,0.70825126,0,0)" />
    <path
       d="m 22.383988,1033.757 q 0.03025,-1.7999 0.408375,-2.8435 0.378125,-1.0436 1.542749,-2.3141 l 1.981374,-2.0419 q 1.2705,-1.4369 1.2705,-3.0855 0,-1.5881 -0.831875,-2.4805 -0.831874,-0.9075 -2.419999,-0.9075 -1.542749,0 -2.480499,0.8168 -0.937749,0.8167 -0.937749,2.1931 l -2.798124,0 q 0.03025,-2.4503 1.739374,-3.9476 1.724249,-1.5125 4.476998,-1.5125 2.858624,0 4.446748,1.5427 1.60325,1.5276 1.60325,4.2048 0,2.6468 -2.450249,5.2181 l -1.648625,1.6335 q -1.104124,1.2251 -1.104124,3.5241 l -2.798124,0 z m -0.121,4.7946 q 0,-0.6806 0.408375,-1.1343 0.4235,-0.4689 1.240249,-0.4689 0.81675,0 1.24025,0.4689 0.4235,0.4537 0.4235,1.1343 0,0.6807 -0.4235,1.1344 -0.4235,0.4386 -1.24025,0.4386 -0.816749,0 -1.240249,-0.4386 -0.408375,-0.4537 -0.408375,-1.1344 z"
       style="font-style:normal;font-variant:normal;font-weight:normal;font-stretch:normal;font-size:medium;line-height:125%;font-family:Roboto;-inkscape-font-specification:Roboto;letter-spacing:0px;word-spacing:0px;fill:#ffffff;fill-opacity:1;stroke:none;stroke-width:1px;stroke-linecap:butt;stroke-linejoin:miter;stroke-opacity:1"
       id="path5889" />
    <circle
       r="0"
       transform="rotate(-93.688344)"
       cy="-133.5101"
       cx="-1013.5016"
       id="path4136-1"
       style="opacity:1;fill:#0044aa;fill-opacity:1" />
    <text
       id="text4162"
       y="1033.2733"
       x="-73.45536"
       style="font-style:normal;font-weight:normal;font-size:35.82603073px;line-height:125%;font-family:sans-serif;letter-spacing:0px;word-spacing:0px;fill:#000000;fill-opacity:1;stroke:none;stroke-width:1px;stroke-linecap:butt;stroke-linejoin:miter;stroke-opacity:1"
       xml:space="preserve"><tspan
         style="font-style:normal;font-variant:normal;font-weight:normal;font-stretch:normal;font-family:'DejaVu Sans';-inkscape-font-specification:'DejaVu Sans';fill:#ffffff"
         y="1033.2733"
         x="-73.45536"
         id="tspan4164" /></text>
  </g>
</svg>
