<?xml version="1.0" encoding="UTF-8" standalone="no"?>
<svg
   xmlns:dc="http://purl.org/dc/elements/1.1/"
   xmlns:cc="http://creativecommons.org/ns#"
   xmlns:rdf="http://www.w3.org/1999/02/22-rdf-syntax-ns#"
   xmlns:svg="http://www.w3.org/2000/svg"
   xmlns="http://www.w3.org/2000/svg"
   version="1.1"
   id="svg2"
   viewBox="0 0 64 64.000003"
   height="64"
   width="64">
  <defs
     id="defs4" />
  <metadata
     id="metadata7">
    <rdf:RDF>
      <cc:Work
         rdf:about="">
        <dc:format>image/svg+xml</dc:format>
        <dc:type
           rdf:resource="http://purl.org/dc/dcmitype/StillImage" />
        <dc:title></dc:title>
      </cc:Work>
    </rdf:RDF>
  </metadata>
  <g
     transform="translate(0,-1058.5196)"
     id="layer1">
    <rect
       style="opacity:1;fill:#323438;fill-opacity:1;stroke:none;stroke-width:1;stroke-linecap:round;stroke-linejoin:miter;stroke-miterlimit:4;stroke-dasharray:none;stroke-opacity:0.29943501"
       id="rect4159-3"
       width="32"
       height="53.999878"
       x="15.999999"
       y="1063.5197"
       ry="0.85180831"
       rx="0.85180831" />
    <path
       style="opacity:1;fill:#3ecdf6;fill-opacity:1;stroke:none;stroke-width:1;stroke-opacity:1"
       d="m 17.000001,1067.5196 v 41.9999 h 30.000001 v -41.9999 z"
       id="rect4157-6" />
    <rect
       ry="0"
       y="1109.5195"
       x="17"
       height="3.9999313"
       width="30.000002"
       id="rect4163-7"
       style="opacity:1;fill:#14284a;fill-opacity:1;stroke:none;stroke-width:1;stroke-linecap:round;stroke-linejoin:miter;stroke-miterlimit:4;stroke-dasharray:none;stroke-opacity:0.29943501" />
    <rect
       style="opacity:1;fill:#ffffff;fill-opacity:1;stroke:none;stroke-width:1;stroke-linecap:round;stroke-linejoin:miter;stroke-miterlimit:4;stroke-dasharray:none;stroke-opacity:0.29943501"
       id="rect4244-5"
       width="28"
       height="3.9999447"
       x="18"
       y="1071.5197" />
    <ellipse
       ry="0.99999994"
       rx="1"
       style="opacity:1;fill:#666666;fill-opacity:1;stroke:none;stroke-width:1;stroke-linecap:round;stroke-linejoin:miter;stroke-miterlimit:4;stroke-dasharray:none;stroke-opacity:0.29943501"
       id="path4246-3"
       cx="43.000004"
       cy="1073.5195" />
    <ellipse
       ry="0.99999994"
       rx="1"
       style="opacity:1;fill:#ffffff;fill-opacity:1;stroke:none;stroke-width:1;stroke-linecap:round;stroke-linejoin:miter;stroke-miterlimit:4;stroke-dasharray:none;stroke-opacity:0.29943501"
       id="path4248-5"
       cx="32"
       cy="1111.5195" />
    <path
       style="fill:#ffffff;fill-opacity:1;fill-rule:evenodd;stroke:none;stroke-width:1px;stroke-linecap:butt;stroke-linejoin:miter;stroke-opacity:1"
       d="m 26.000001,1112.5195 -2,-1 2,-1 z"
       id="path4252-6" />
    <rect
       style="opacity:1;fill:#ffffff;fill-opacity:1;stroke:none;stroke-width:1;stroke-linecap:round;stroke-linejoin:miter;stroke-miterlimit:4;stroke-dasharray:none;stroke-opacity:0.29943501"
       id="rect4254-2"
       width="2"
       height="1.9999999"
       x="38"
       y="1110.5197" />
    <rect
       style="opacity:1;fill:#4b4e54;fill-opacity:1;stroke:none;stroke-width:1;stroke-linecap:round;stroke-linejoin:miter;stroke-miterlimit:4;stroke-dasharray:none;stroke-opacity:0.29943501"
       id="rect4355-9"
       width="6.0000005"
       height="1.9999999"
       x="29"
       y="1064.5197" />
    <path
       id="Page-1"
       d="m 36.790978,1079.3581 c -0.451131,0.028 -0.927809,0.1588 -1.427736,0.3927 -0.499886,0.2337 -0.948529,0.5265 -1.347655,0.8789 -0.49744,0.4227 -0.828377,0.8414 -0.990235,1.2558 -0.332512,0.8495 -0.396393,1.5945 -0.195313,2.2343 0.201094,0.6398 0.600407,1.297 1.201173,1.9727 1.318593,1.4893 2.388594,2.6233 3.208984,3.4023 0.231117,0.4891 0.390125,1.6394 0.478516,3.4493 -0.02295,0.2832 0.0042,0.6162 0.08007,0.9999 0.07575,0.3839 0.15855,0.716 0.25,0.9942 0.09146,0.2782 0.233652,0.671 0.423829,1.1817 0.190176,0.5106 0.323018,0.8731 0.398438,1.0859 0.06352,0.1833 0.114938,0.416 0.156249,0.6973 0.04132,0.2812 0.102858,0.5388 0.183595,0.7734 0.08075,0.2345 0.211549,0.4649 0.392578,0.6934 0.135409,0.1749 0.26752,0.3149 0.394531,0.4179 0.186726,0.1576 0.460779,0.8919 0.27539,0.6738 0.221166,0.2602 0.340625,0.495 0.359375,0.7032 0.01876,0.2081 -0.02814,0.4776 -0.140625,0.8105 -0.06508,0.1871 -0.254256,0.4296 -0.570312,0.7246 -0.316069,0.295 -0.488499,0.5339 -0.517578,0.7168 -0.01796,0.1339 0.0293,0.2711 0.142579,0.4121 0.113282,0.141 0.249607,0.2659 0.408201,0.375 0.158604,0.1092 0.334932,0.2395 0.529299,0.3907 0.194446,0.151 0.339076,0.291 0.435546,0.4199 0.06391,0.09 0.173308,0.3573 0.326173,0.8008 0.15286,0.4435 0.342216,0.721 0.568358,0.832 0.109819,0.052 0.237627,0.072 0.384765,0.059 0.147121,-0.013 0.321796,-0.068 0.52539,-0.1622 0.203541,-0.094 0.386392,-0.185 0.546875,-0.2752 0.160516,-0.09 0.381467,-0.2187 0.662112,-0.3849 0.280656,-0.1661 0.50629,-0.2957 0.677734,-0.3886 0.574345,-0.3169 1.273012,-0.6278 2.095701,-0.9316 0.119253,-0.043 0.186208,-0.078 0.29297,-0.1192 v -4.2285 c -0.131958,-0.039 -0.311363,-0.085 -0.392578,-0.1174 0.210067,-0.2181 0.310307,-0.4532 0.298828,-0.7071 -0.01139,-0.2539 -0.09866,-0.4646 -0.259767,-0.6308 -0.161096,-0.1663 -0.352246,-0.255 -0.572264,-0.2657 -0.127419,-0.012 -0.730579,-6e-4 -1.812501,0.029 -1.081928,0.029 -1.775452,0.022 -2.078124,-0.024 -0.05664,0 -0.213569,0 -0.470702,0 -0.257137,0.012 -0.442291,-0.019 -0.558595,-0.079 -1.009032,-0.4737 -1.589005,-1.0749 -1.736329,-1.8065 l -0.002,-0.097 c 0.03175,-0.04 0.09454,0.026 0.187499,0.1972 0.136195,0.2533 0.302546,0.4803 0.500001,0.6817 0.440421,0.456 0.883538,0.6994 1.330079,0.7285 0.297324,0.024 0.399626,-0.083 0.304687,-0.3184 -0.0061,-0.1 -0.178113,-0.3435 -0.513673,-0.7305 -0.335561,-0.387 -0.554478,-0.6559 -0.65625,-0.8066 -0.309564,-0.4883 -0.585948,-1.1822 -0.830078,-2.082 -0.24412,-0.8998 -0.297118,-1.4471 -0.160155,-1.6427 -0.325989,-0.1056 -0.574685,-0.3087 -0.746095,-0.6112 -0.171427,-0.3026 -0.281032,-0.5932 -0.326172,-0.8712 -0.04516,-0.278 -0.113,-0.5852 -0.203126,-0.9238 -0.09009,-0.3386 -0.21628,-0.6036 -0.378905,-0.7949 -0.04549,-0.054 -0.07407,-0.095 -0.08594,-0.125 -0.03558,-0.088 0.131935,-0.087 0.501953,0.012 0.724728,0.2013 1.20328,0.277 1.435546,0.2247 0.246401,-0.052 0.430661,-0.2152 0.552735,-0.4902 0.122052,-0.2752 0.236615,-0.6561 0.343749,-1.1427 0.107143,-0.4865 0.222497,-0.8747 0.345703,-1.1641 0.01647,-0.027 0.03742,-0.075 0.06445,-0.1445 0.027,-0.069 0.04946,-0.1201 0.06642,-0.1542 0.017,-0.034 0.03799,-0.08 0.06055,-0.1388 0.02262,-0.059 0.03697,-0.1056 0.04687,-0.1405 0.01,-0.035 0.01879,-0.073 0.02539,-0.1115 0.0068,-0.039 0.0067,-0.071 -0.002,-0.096 -0.0086,-0.026 -0.02018,-0.047 -0.0332,-0.062 -0.07386,-0.056 -0.142308,-0.07 -0.205079,-0.043 -0.06276,0.027 -0.120866,0.094 -0.175781,0.1993 -0.0549,0.1056 -0.109514,0.2317 -0.164062,0.3769 -0.05453,0.1452 -0.113247,0.3083 -0.177735,0.4883 -0.06448,0.18 -0.136814,0.3554 -0.214844,0.5273 -0.07807,0.1718 -0.170988,0.3422 -0.277343,0.5117 -0.10638,0.1695 -0.220126,0.3134 -0.343751,0.4316 -0.314914,0.2809 -0.643438,0.4158 -0.984374,0.4024 -0.220034,-0.012 -0.347199,-0.028 -0.380859,-0.053 -0.03362,-0.024 -0.0056,-0.061 0.08398,-0.1115 0.458788,-0.2977 0.768922,-0.5472 0.927733,-0.748 0.172958,-0.1998 0.364999,-0.5137 0.578125,-0.9454 0.04287,-0.089 0.153524,-0.3119 0.332032,-0.6679 0.1785,-0.3561 0.325448,-0.6228 0.439453,-0.7989 0.0723,-0.1009 0.103503,-0.1905 0.09571,-0.2695 -0.0077,-0.079 -0.03477,-0.1357 -0.08203,-0.168 -0.04722,-0.032 -0.100464,-0.042 -0.158204,-0.033 -0.123204,0.026 -0.17257,0.1215 -0.15039,0.2872 0.02029,0.1009 -0.0032,0.2351 -0.07031,0.4043 -0.06716,0.1691 -0.138862,0.3153 -0.21289,0.4375 -0.07404,0.1223 -0.171314,0.2745 -0.29297,0.457 -0.121694,0.1825 -0.186413,0.2841 -0.195312,0.3047 -0.310299,0.4879 -0.652683,0.8775 -1.025391,1.168 -0.174834,0.1354 -0.331643,0.2257 -0.470704,0.2715 -0.139092,0.046 -0.252823,0.056 -0.339842,0.032 -0.08706,-0.025 -0.210154,-0.045 -0.369141,-0.061 -0.158998,-0.016 -0.317355,-0.012 -0.476563,0.02 -0.10908,0.027 -0.196278,-0.019 -0.261719,-0.1348 -0.06545,-0.1162 -0.09435,-0.2693 -0.08593,-0.461 0.0012,-0.014 0.03887,-0.1289 0.113282,-0.3437 0.07444,-0.2148 0.10476,-0.3932 0.08789,-0.537 -0.02217,-0.1658 0.0014,-0.377 0.07228,-0.6349 -0.01832,-0.038 -0.08399,-0.1265 -0.197267,-0.2675 -0.11327,-0.141 -0.277102,-0.2598 -0.490234,-0.3555 -0.213138,-0.096 -0.385525,-0.087 -0.515625,0.024 -0.190176,0.1484 -0.273003,0.3123 -0.251953,0.4921 0.02108,0.1798 0.107084,0.3498 0.257812,0.5117 0.131254,0.139 0.276155,0.2374 0.435547,0.293 0.159386,0.055 0.264801,0.059 0.318361,0.014 0.07767,-0.079 0.130281,-0.072 0.158203,0.024 0.02564,0.1232 0.01021,0.2304 -0.04687,0.3183 -0.04057,0.061 -0.1427,0.06 -0.308595,0 -0.165873,-0.063 -0.338075,-0.1655 -0.515626,-0.3046 -0.177932,-0.1387 -0.31044,-0.2694 -0.400389,-0.3907 -0.186346,-0.2502 -0.31815,-0.5313 -0.392579,-0.8437 -0.07443,-0.3125 -0.0041,-0.5526 0.208984,-0.7207 0.220782,-0.1745 0.502867,-0.1908 0.847656,-0.049 0.344764,0.142 0.69934,0.4343 1.062501,0.877 0.06849,0.034 0.143912,0 0.226561,-0.094 0.08303,-0.096 0.208347,-0.2044 0.375,-0.3261 0.166647,-0.122 0.312027,-0.1784 0.439455,-0.168 0.0076,-0.012 -0.0372,-0.067 -0.134767,-0.1817 -0.957375,-0.8471 -1.052005,-1.649 -0.285155,-2.4062 0.141931,-0.081 0.269359,-0.1406 0.382812,-0.1777 0.113447,-0.038 0.25206,-0.055 0.416016,-0.056 0.163963,-9e-4 0.343893,0.047 0.539062,0.1445 0.195148,0.098 0.40918,0.2444 0.642578,0.4414 l 0.361329,0.4258 c 0.208141,0.245 0.27461,0.4239 0.201171,0.539 -0.114855,0.1907 -0.230008,0.286 -0.347657,0.2872 -0.117675,0 -0.196907,-0.1057 -0.236327,-0.3223 -0.08604,-0.2563 -0.289423,-0.4654 -0.611238,-0.6269 -0.321799,-0.1615 -0.61524,-0.1116 -0.878906,0.1523 -0.184813,0.1704 -0.233387,0.3917 -0.148438,0.6621 0.08491,0.2706 0.218738,0.4922 0.404297,0.6641 0.185591,0.1719 0.313201,0.2338 0.380859,0.1895 0.05243,-0.032 0.239173,-0.085 0.5625,-0.1621 0.323339,-0.077 0.553214,-0.152 0.687501,-0.2266 0.350505,-0.1925 0.601185,-0.2427 0.753907,-0.1484 0.152676,0.094 0.296757,0.2995 0.431639,0.6133 0.134914,0.3137 0.285893,0.5371 0.453126,0.6718 0.173725,0.1424 0.361233,0.2463 0.562499,0.3125 0.201269,0.066 0.39856,0.1174 0.591798,0.1504 0.193228,0.034 0.487963,0.1503 0.884766,0.3535 0.396795,0.2032 0.850881,0.4975 1.361328,0.8809 0.01416,0 0.06549,0 0.154296,0.012 0.08878,0 0.186621,0.019 0.294923,0.045 0.108281,0.027 0.248263,0.069 0.417968,0.1289 0.169704,0.06 0.392467,0.1708 0.667968,0.3321 0.128433,0.075 0.279313,0.1889 0.41797,0.2813 v -1.4865 c -0.653156,-0.2624 -1.138311,-0.3936 -1.449218,-0.3905 0.37293,-0.07 0.862909,-0.018 1.449218,0.1366 v -1.7284 c -0.03576,0 -0.07403,-0.015 -0.109373,-0.02 -1.440657,-0.1596 -2.659038,-0.5615 -3.654297,-1.2051 -1.041934,-0.683 -1.851922,-1.4045 -2.43164,-2.1641 -0.404073,-0.5529 -0.998137,-1.0223 -1.779297,-1.4063 -0.781169,-0.3839 -1.524947,-0.5512 -2.234375,-0.5019 z m 1.833984,3.9981 c 0.07195,-0.012 0.154486,0 0.248047,0.035 0.09354,0.033 0.176496,0.092 0.248046,0.1759 l 0.006,0.053 c -0.02869,0.09 -0.05277,0.1245 -0.07228,0.1009 -0.206248,-0.1806 -0.374633,-0.24 -0.507812,-0.1796 -0.0218,0 -0.04461,0.012 -0.06641,0.015 -0.0926,-5e-4 -0.08894,-0.049 0.01176,-0.1485 0.01649,-0.027 0.06083,-0.045 0.132812,-0.053 z m -2.599609,2.3633 c 0.04639,0.012 0.100745,0.031 0.164061,0.062 0.126699,0.063 0.234617,0.1707 0.322266,0.3204 0.01956,0.022 0.01708,0.043 -0.006,0.062 -0.08422,0.072 -0.179951,0.022 -0.287109,-0.1504 -0.07464,-0.1343 -0.150033,-0.1685 -0.226563,-0.1033 -0.02941,0.012 -0.06741,0 -0.115243,-0.021 -0.05852,-0.069 -0.0487,-0.1247 0.0332,-0.168 0.02947,-0.012 0.06883,-0.012 0.115242,0 z"
       style="fill:#d2f3fc;fill-opacity:1;fill-rule:evenodd;stroke:none;stroke-width:1.49200904" />
    <path
       id="path46"
       d="m 20.537109,1087.5723 c -0.156929,0.019 -0.271393,0.1311 -0.277342,0.2949 l -0.132813,3.7304 c -1.03849,-0.2706 -2.100897,-0.3308 -3.126953,-0.1425 v 8.5234 c 2.527441,2.2904 5.628276,4.1318 8.410156,4.8965 2.667019,-2.357 2.648163,-5.4382 1.244141,-8.0664 l 3.505859,-0.8555 c 0.212291,-0.052 0.296187,-0.2712 0.187499,-0.4921 -0.108704,-0.2211 -0.36775,-0.3585 -0.580077,-0.3068 l -3.58203,0.8751 c -1.226362,-1.8518 -3.126469,-3.3898 -5.201174,-4.1601 l 0.138673,-3.7793 c 0.006,-0.1638 -0.0996,-0.3319 -0.251953,-0.4317 -0.05071,-0.033 -0.106462,-0.059 -0.166016,-0.074 -0.0596,-0.015 -0.115665,-0.018 -0.16797,-0.012 z"
       style="fill:#d2f3fc;fill-opacity:1;fill-rule:evenodd;stroke-width:0.80215162" />
  </g>
</svg>
