<?xml version="1.0" encoding="UTF-8" standalone="no"?>
<svg
   xmlns:dc="http://purl.org/dc/elements/1.1/"
   xmlns:cc="http://creativecommons.org/ns#"
   xmlns:rdf="http://www.w3.org/1999/02/22-rdf-syntax-ns#"
   xmlns:svg="http://www.w3.org/2000/svg"
   xmlns="http://www.w3.org/2000/svg"
   xmlns:xlink="http://www.w3.org/1999/xlink"
   xmlns:sodipodi="http://sodipodi.sourceforge.net/DTD/sodipodi-0.dtd"
   xmlns:inkscape="http://www.inkscape.org/namespaces/inkscape"
   height="64"
   width="64"
   version="1.1"
   id="svg34"
   sodipodi:docname="audio-input-microphone.svg"
   inkscape:version="0.92.2 5c3e80d, 2017-08-06">
  <sodipodi:namedview
     pagecolor="#ffffff"
     bordercolor="#666666"
     borderopacity="1"
     objecttolerance="10"
     gridtolerance="10"
     guidetolerance="10"
     inkscape:pageopacity="0"
     inkscape:pageshadow="2"
     inkscape:window-width="640"
     inkscape:window-height="480"
     id="namedview39"
     showgrid="false"
     inkscape:zoom="3.6875"
     inkscape:cx="-16.677966"
     inkscape:cy="32"
     inkscape:current-layer="svg34" />
  <metadata
     id="metadata40">
    <rdf:RDF>
      <cc:Work
         rdf:about="">
        <dc:format>image/svg+xml</dc:format>
        <dc:type
           rdf:resource="http://purl.org/dc/dcmitype/StillImage" />
        <dc:title />
      </cc:Work>
    </rdf:RDF>
  </metadata>
  <defs
     id="defs38">
    <linearGradient
       id="linearGradient850">
      <stop
         id="stop846"
         offset="0"
         style="stop-color:#3da3f9;stop-opacity:1" />
      <stop
         id="stop848"
         offset="1"
         style="stop-color:#4ac7fd;stop-opacity:1" />
    </linearGradient>
    <linearGradient
       xlink:href="#linearGradient902"
       id="linearGradient904"
       x1="-0.14685822"
       y1="16.000034"
       x2="32.146942"
       y2="16.000034"
       gradientUnits="userSpaceOnUse"
       gradientTransform="matrix(1.6721475,0,0,1.6721475,-58.75443,5.2455868)" />
    <linearGradient
       id="linearGradient902">
      <stop
         style="stop-color:#5c5c5c;stop-opacity:1"
         offset="0"
         id="stop898" />
      <stop
         style="stop-color:#aeaeae;stop-opacity:1"
         offset="1"
         id="stop900" />
    </linearGradient>
    <linearGradient
       id="d-3"
       gradientUnits="userSpaceOnUse"
       x1="367.63321"
       x2="367.63321"
       xlink:href="#a-6"
       y1="546.94806"
       y2="517.33881"
       gradientTransform="matrix(1.424422,0,0,1.424422,-471.59976,-729.57261)" />
    <linearGradient
       id="a-6">
      <stop
         offset="0"
         stop-color="#d3d3d3"
         id="stop2-7" />
      <stop
         offset="1"
         stop-color="#fcf9f9"
         id="stop4-5" />
    </linearGradient>
    <linearGradient
       id="g"
       gradientUnits="userSpaceOnUse"
       x1="331.76804"
       x2="331.76804"
       y1="562.19806"
       y2="531.61774"
       gradientTransform="matrix(1.424422,0,0,1.424422,-471.59976,-729.57261)">
      <stop
         offset="0"
         stop-color="#8d3aff"
         id="stop16" />
      <stop
         offset="1"
         stop-color="#ff3680"
         id="stop18" />
    </linearGradient>
    <linearGradient
       xlink:href="#linearGradient1331"
       id="linearGradient890"
       x1="16.248608"
       y1="30.113657"
       x2="16.248608"
       y2="2.3934879"
       gradientUnits="userSpaceOnUse"
       gradientTransform="matrix(1.8897478,0,0,1.8897478,4.0250437,-59.974945)" />
    <linearGradient
       id="linearGradient1331">
      <stop
         style="stop-color:#00ff72;stop-opacity:1"
         offset="0"
         id="stop1327" />
      <stop
         style="stop-color:#00ffcc;stop-opacity:1"
         offset="1"
         id="stop1329" />
    </linearGradient>
    <linearGradient
       xlink:href="#linearGradient850"
       id="linearGradient890-3"
       x1="16.248608"
       y1="30.113657"
       x2="16.248608"
       y2="2.3934879"
       gradientUnits="userSpaceOnUse"
       gradientTransform="matrix(1.8897478,0,0,1.8897478,1.7639582,-62.236031)" />
  </defs>
  <linearGradient
     id="a">
    <stop
       offset="0"
       stop-color="#1365f4"
       id="stop2" />
    <stop
       offset="1"
       stop-color="#05b2fc"
       id="stop4" />
  </linearGradient>
  <linearGradient
     id="b"
     gradientUnits="userSpaceOnUse"
     x1="399.57144"
     x2="399.57144"
     y1="545.79797"
     y2="517.79797">
    <stop
       offset="0"
       stop-color="#3889e9"
       id="stop7" />
    <stop
       offset="1"
       stop-color="#5ea5fb"
       id="stop9" />
  </linearGradient>
  <linearGradient
     id="c"
     gradientUnits="userSpaceOnUse"
     x1="400.5119"
     x2="400.69922"
     xlink:href="#a"
     y1="546.07446"
     y2="517.77289" />
  <linearGradient
     gradientUnits="userSpaceOnUse"
     x1="41.16489"
     x2="54.039001"
     y1="89.36377"
     y2="20.836"
     id="linearGradient17">
    <stop
       offset="0"
       stop-color="#e3e3e3"
       id="stop13" />
    <stop
       offset="1"
       stop-color="#fffcff"
       id="stop15" />
  </linearGradient>
  <linearGradient
     id="d"
     gradientUnits="userSpaceOnUse"
     x1="394.81812"
     x2="396.73026"
     xlink:href="#a"
     y1="546.72809"
     y2="518.37012" />
  <circle
     transform="scale(1,-1)"
     cx="32"
     cy="-32"
     r="27"
     id="circle882"
     style="fill:url(#linearGradient890-3);fill-opacity:1;stroke:none;stroke-width:1.05747402" />
  <circle
     cx="52.328667"
     cy="28.693014"
     r="0"
     id="circle27"
     style="fill:url(#d-3);stroke-width:1" />
  <circle
     cx="1.2501712"
     cy="49.732624"
     r="0"
     id="circle29"
     style="fill:none;stroke:url(#g);stroke-width:1.41979885" />
  <circle
     cx="156.12773"
     cy="28.100084"
     r="0"
     id="circle33"
     style="stroke-width:1" />
  <g
     transform="matrix(1.2173911,0,0,1.2173911,-507.36424,-609.64779)"
     id="g28"
     style="fill:#1d1d1d;fill-opacity:1">
    <path
       style="fill:#1d1d1d;fill-opacity:1"
       d="m 443.04918,532.12257 c 1.39017,0 2.58006,-0.495 3.56985,-1.4846 0.9898,-0.9896 1.48479,-2.17987 1.48479,-3.57005 v -8.08782 c 0,-1.39017 -0.49461,-2.58006 -1.48479,-3.57005 -0.98979,-0.9898 -2.17968,-1.48499 -3.56985,-1.48499 -1.39018,0 -2.58007,0.49519 -3.57006,1.48499 -0.98998,0.98979 -1.48498,2.17988 -1.48498,3.57005 v 8.08782 c 0,1.39018 0.49519,2.58045 1.48498,3.57005 0.9898,0.9896 2.17988,1.4846 3.57006,1.4846 z"
       id="path24" />
    <path
       style="fill:#1d1d1d;fill-opacity:1"
       d="m 451.84779,524.33508 c -0.1997,-0.20009 -0.43702,-0.30014 -0.71079,-0.30014 -0.27377,0 -0.5107,0.10005 -0.71079,0.30014 -0.2001,0.20009 -0.30014,0.43702 -0.30014,0.71079 v 2.02205 c 0,1.94838 -0.69257,3.61465 -2.07731,4.99959 -1.38455,1.38493 -3.05121,2.07731 -4.99958,2.07731 -1.94838,0 -3.61484,-0.69238 -4.99978,-2.07731 -1.38475,-1.38456 -2.07712,-3.05121 -2.07712,-4.99959 v -2.02205 c 0,-0.27377 -0.10004,-0.5107 -0.30014,-0.71079 -0.20009,-0.20009 -0.43682,-0.30014 -0.71079,-0.30014 -0.27396,0 -0.51089,0.10005 -0.71098,0.30014 -0.20009,0.20009 -0.30014,0.43702 -0.30014,0.71079 v 2.02205 c 0,2.32743 0.77671,4.352 2.32995,6.07372 1.55323,1.72172 3.47252,2.709 5.75787,2.96163 v 2.08546 h -4.04391 c -0.27377,0 -0.5107,0.10004 -0.71079,0.30014 -0.20009,0.20009 -0.30014,0.43702 -0.30014,0.71079 0,0.27357 0.10005,0.51089 0.30014,0.71079 0.20009,0.20009 0.43702,0.30033 0.71079,0.30033 h 10.10968 c 0.27377,0 0.51109,-0.10024 0.71079,-0.30033 0.20029,-0.1999 0.30053,-0.43722 0.30053,-0.71079 0,-0.27377 -0.10024,-0.5107 -0.30053,-0.71079 -0.1997,-0.2001 -0.43702,-0.30014 -0.71079,-0.30014 h -4.04352 v -2.08546 c 2.28496,-0.25263 4.20426,-1.23991 5.75768,-2.96163 1.55343,-1.72172 2.33034,-3.74629 2.33034,-6.07372 v -2.02205 c 0,-0.27377 -0.10024,-0.51051 -0.30053,-0.71079 z"
       id="path26" />
  </g>
</svg>
