<?xml version="1.0" encoding="UTF-8" standalone="no"?>
<svg
   xmlns:dc="http://purl.org/dc/elements/1.1/"
   xmlns:cc="http://creativecommons.org/ns#"
   xmlns:rdf="http://www.w3.org/1999/02/22-rdf-syntax-ns#"
   xmlns:svg="http://www.w3.org/2000/svg"
   xmlns="http://www.w3.org/2000/svg"
   xmlns:xlink="http://www.w3.org/1999/xlink"
   height="64"
   width="64"
   version="1.1"
   id="svg26">
  <metadata
     id="metadata32">
    <rdf:RDF>
      <cc:Work
         rdf:about="">
        <dc:format>image/svg+xml</dc:format>
        <dc:type
           rdf:resource="http://purl.org/dc/dcmitype/StillImage" />
        <dc:title></dc:title>
      </cc:Work>
    </rdf:RDF>
  </metadata>
  <defs
     id="defs30">
    <linearGradient
       id="linearGradient916">
      <stop
         style="stop-color:#3ecdf6;stop-opacity:1;"
         offset="0"
         id="stop912" />
      <stop
         style="stop-color:#57d4f7;stop-opacity:1"
         offset="1"
         id="stop914" />
    </linearGradient>
    <linearGradient
       id="a-3"
       gradientUnits="userSpaceOnUse"
       x1="357.30374"
       x2="357.30374"
       y1="547.43585"
       y2="513.9823"
       gradientTransform="matrix(1.2386856,0,0,1.2386856,-410.68811,-625.24212)">
      <stop
         offset="0"
         stop-color="#2e3e46"
         id="stop10" />
      <stop
         offset="1"
         stop-color="#47606a"
         id="stop12" />
    </linearGradient>
    <linearGradient
       xlink:href="#linearGradient1370"
       id="linearGradient1372"
       x1="30.768103"
       y1="39.531185"
       x2="35.706829"
       y2="43.022717"
       gradientUnits="userSpaceOnUse"
       gradientTransform="matrix(0.40873821,0,0,0.40873821,18.918037,0.9764794)" />
    <linearGradient
       id="linearGradient1370">
      <stop
         style="stop-color:#696969;stop-opacity:1"
         offset="0"
         id="stop1366" />
      <stop
         style="stop-color:#a8a8a8;stop-opacity:1"
         offset="1"
         id="stop1368" />
    </linearGradient>
    <linearGradient
       xlink:href="#linearGradient1362"
       id="linearGradient951"
       gradientUnits="userSpaceOnUse"
       gradientTransform="matrix(0.40873821,0,0,0.40873821,15.737588,-10.543906)"
       x1="48.095524"
       y1="46.430908"
       x2="54.367523"
       y2="46.568394" />
    <linearGradient
       id="linearGradient1362">
      <stop
         style="stop-color:#181818;stop-opacity:1"
         offset="0"
         id="stop1358" />
      <stop
         style="stop-color:#646464;stop-opacity:1"
         offset="1"
         id="stop1360" />
    </linearGradient>
    <filter
       style="color-interpolation-filters:sRGB"
       id="filter1128"
       x="-0.059892505"
       width="1.119785"
       y="-0.015006733"
       height="1.0300134">
      <feGaussianBlur
         stdDeviation="0.08499745"
         id="feGaussianBlur1130" />
    </filter>
    <linearGradient
       xlink:href="#linearGradient1378"
       id="linearGradient1380"
       x1="46.189655"
       y1="19.516348"
       x2="51.591782"
       y2="20.272301"
       gradientUnits="userSpaceOnUse"
       gradientTransform="matrix(0.40873821,0,0,0.40873821,18.918037,0.9764794)" />
    <linearGradient
       id="linearGradient1378">
      <stop
         style="stop-color:#111111;stop-opacity:1"
         offset="0"
         id="stop1374" />
      <stop
         style="stop-color:#5b5b5b;stop-opacity:1"
         offset="1"
         id="stop1376" />
    </linearGradient>
    <linearGradient
       gradientTransform="translate(0.13652778,-4.287077)"
       xlink:href="#linearGradient916"
       id="linearGradient918"
       x1="31.875919"
       y1="54.320972"
       x2="31.875919"
       y2="18.795549"
       gradientUnits="userSpaceOnUse" />
  </defs>
  <linearGradient
     id="a">
    <stop
       offset="0"
       stop-color="#141414"
       id="stop2" />
    <stop
       offset="1"
       stop-color="#2d2d2f"
       id="stop4" />
  </linearGradient>
  <linearGradient
     id="b">
    <stop
       offset="0"
       stop-color="#08f"
       id="stop7" />
    <stop
       offset="1"
       stop-color="#02c3ff"
       id="stop9" />
  </linearGradient>
  <linearGradient
     id="c"
     gradientTransform="matrix(.93022459 0 0 .91890978 -17.300742 32.586917)"
     gradientUnits="userSpaceOnUse"
     x1="169.50124"
     x2="159.23744"
     xlink:href="#b"
     y1="624.71625"
     y2="63.268539" />
  <linearGradient
     id="d"
     gradientTransform="matrix(.89345856 0 0 1.1220651 635.99074 79.547898)"
     gradientUnits="userSpaceOnUse"
     x1="-564.93671"
     x2="-563.83557"
     xlink:href="#b"
     y1="524.75562"
     y2="459.55716" />
  <linearGradient
     gradientUnits="userSpaceOnUse"
     x1="184.70731"
     x2="187.27681"
     xlink:href="#a"
     y1="448.4129"
     y2="70.32579"
     id="linearGradient14" />
  <linearGradient
     id="e"
     gradientTransform="matrix(.81976031 0 0 1.0295099 .521817 -19.381076)"
     gradientUnits="userSpaceOnUse"
     x1="159.46292"
     x2="160.66307"
     xlink:href="#b"
     y1="668.02557"
     y2="596.96564" />
  <linearGradient
     id="f"
     gradientUnits="userSpaceOnUse"
     x1="8.166716"
     x2="8.114987"
     xlink:href="#a"
     y1="1050.4657"
     y2="1038.3525" />
  <rect
     rx="1.5040506"
     style="fill:url(#a-3);fill-opacity:1;stroke-width:1.6318717"
     id="rect15"
     y="10.360868"
     x="3.3227921"
     width="57.354416"
     ry="1.5040506"
     height="43.278263" />
  <rect
     rx="1.2566074"
     height="36.158218"
     ry="1.2566074"
     width="49.873405"
     x="7.0632949"
     y="13.920889"
     id="rect935"
     style="fill:url(#linearGradient918);fill-opacity:1;stroke-width:1.39093137" />
  <g
     id="g906"
     transform="translate(0.40677572,-4.287077)">
    <rect
       style="opacity:1;fill:#ffffff;fill-opacity:1;stroke:none;stroke-width:1.2840991;stroke-linecap:round;stroke-linejoin:miter;stroke-miterlimit:4;stroke-dasharray:none;stroke-opacity:0.29943501"
       id="rect896"
       width="46.169491"
       height="3.9999447"
       x="8.5084763"
       y="21.406868" />
    <ellipse
       ry="0.99999994"
       rx="1"
       style="opacity:1;fill:#666666;fill-opacity:1;stroke:none;stroke-width:1;stroke-linecap:round;stroke-linejoin:miter;stroke-miterlimit:4;stroke-dasharray:none;stroke-opacity:0.29943501"
       id="ellipse898"
       cx="51.542377"
       cy="23.406841" />
  </g>
  <path
     style="fill:#d2f3fc;fill-opacity:1;fill-rule:evenodd;stroke:none;stroke-width:1.26540196"
     d="m 48.278267,23.781115 c -0.382613,0.02375 -0.786893,0.134681 -1.210891,0.333056 -0.423963,0.198206 -0.804466,0.446535 -1.142972,0.745413 -0.421889,0.3585 -0.702563,0.713607 -0.839838,1.065068 -0.28201,0.720478 -0.336189,1.352327 -0.165649,1.894953 0.170552,0.542627 0.509217,1.100011 1.018739,1.673086 1.118324,1.263104 2.025813,2.224872 2.721601,2.885557 0.196015,0.414815 0.330873,1.390407 0.405839,2.925418 -0.01946,0.240188 0.0036,0.522612 0.06791,0.848035 0.06424,0.325593 0.13447,0.607254 0.21203,0.8432 0.07757,0.235947 0.198165,0.569089 0.359458,1.002223 0.161292,0.43305 0.273958,0.740493 0.337923,0.920973 0.05387,0.155461 0.09748,0.352818 0.132518,0.591394 0.03504,0.238491 0.08723,0.456967 0.15571,0.655936 0.06849,0.198884 0.179419,0.39429 0.332953,0.588086 0.114843,0.148336 0.226889,0.267072 0.33461,0.354429 0.158365,0.133663 0.390795,0.756438 0.233563,0.571463 0.187575,0.22068 0.288891,0.419819 0.304793,0.596397 0.01591,0.176494 -0.02387,0.405062 -0.119267,0.687401 -0.05519,0.158683 -0.215639,0.364352 -0.483692,0.614548 -0.268065,0.250195 -0.414306,0.452811 -0.438968,0.607932 -0.01523,0.113563 0.02485,0.229925 0.120924,0.34951 0.09608,0.119585 0.211696,0.225515 0.346203,0.318044 0.134515,0.09262 0.284062,0.203125 0.448909,0.331361 0.164913,0.128066 0.287577,0.246803 0.369395,0.356125 0.0542,0.07633 0.146986,0.303033 0.276633,0.679174 0.129644,0.376141 0.29024,0.611494 0.482036,0.705636 0.09314,0.0441 0.201536,0.06106 0.326327,0.05004 0.124776,-0.01103 0.272921,-0.05767 0.445593,-0.137565 0.172627,-0.07972 0.327707,-0.156902 0.463815,-0.233403 0.136137,-0.07633 0.32353,-0.185483 0.561551,-0.326441 0.238029,-0.140873 0.429394,-0.250789 0.574799,-0.329579 0.487113,-0.268769 1.079666,-0.53245 1.777405,-0.790108 0.101141,-0.03647 0.157926,-0.06615 0.248473,-0.101096 v -3.586273 c -0.111916,-0.03308 -0.264073,-0.07209 -0.332953,-0.09957 0.178162,-0.184975 0.263178,-0.384367 0.253442,-0.599705 -0.0097,-0.215338 -0.08367,-0.394036 -0.220313,-0.534994 -0.136629,-0.141042 -0.298747,-0.21627 -0.485349,-0.225345 -0.108066,-0.01018 -0.619618,-5.09e-4 -1.537217,0.0246 -0.917604,0.0246 -1.505795,0.01866 -1.762497,-0.02036 -0.04804,0 -0.181132,0 -0.399212,0 -0.218083,0.01018 -0.375116,-0.01611 -0.473755,-0.067 -0.85578,-0.401754 -1.347666,-0.911644 -1.472615,-1.532128 l -0.0017,-0.08227 c 0.02693,-0.03393 0.08018,0.02205 0.159022,0.167249 0.115509,0.214828 0.256595,0.407352 0.42406,0.578163 0.37353,0.386742 0.749346,0.593175 1.128066,0.617855 0.252166,0.02035 0.338931,-0.07039 0.258411,-0.270041 -0.0052,-0.08481 -0.151061,-0.291329 -0.435656,-0.619552 -0.284596,-0.328222 -0.470264,-0.556281 -0.556578,-0.684093 -0.262548,-0.414137 -0.496954,-1.002647 -0.704006,-1.765785 -0.207043,-0.763138 -0.251991,-1.227313 -0.13583,-1.393206 -0.276478,-0.08956 -0.487402,-0.261814 -0.632778,-0.51837 -0.145391,-0.256641 -0.238349,-0.503105 -0.276633,-0.738882 -0.0383,-0.235777 -0.09584,-0.496319 -0.172275,-0.783493 -0.07641,-0.287173 -0.183431,-0.511925 -0.321357,-0.67417 -0.03858,-0.0458 -0.06282,-0.08057 -0.07289,-0.106015 -0.03018,-0.07463 0.111896,-0.07379 0.425716,0.01018 0.614656,0.170726 1.020525,0.234929 1.217515,0.190572 0.208977,-0.0441 0.365252,-0.182515 0.468785,-0.415748 0.103515,-0.233403 0.200678,-0.556451 0.29154,-0.969146 0.09087,-0.41261 0.188704,-0.74185 0.293198,-0.987296 0.01397,-0.0229 0.03174,-0.06361 0.05466,-0.122553 0.0229,-0.05852 0.04195,-0.10186 0.05633,-0.130781 0.01442,-0.02884 0.03222,-0.06785 0.05135,-0.117718 0.01918,-0.05004 0.03136,-0.08956 0.03975,-0.119161 0.0085,-0.02968 0.01594,-0.06191 0.02153,-0.09457 0.0058,-0.03308 0.0057,-0.06022 -0.0017,-0.08142 -0.0073,-0.02205 -0.01712,-0.03986 -0.02816,-0.05258 -0.06264,-0.04749 -0.120694,-0.05937 -0.173932,-0.03647 -0.05323,0.0229 -0.102508,0.07972 -0.149083,0.169031 -0.04656,0.08956 -0.09288,0.196509 -0.139144,0.319656 -0.04625,0.123147 -0.09605,0.261475 -0.150741,0.414137 -0.05469,0.152661 -0.116034,0.301421 -0.182213,0.447213 -0.06621,0.145707 -0.145018,0.290226 -0.23522,0.433983 -0.09022,0.143756 -0.186693,0.2658 -0.291542,0.366048 -0.267085,0.238237 -0.545712,0.352648 -0.834867,0.341283 -0.186615,-0.01018 -0.294466,-0.02375 -0.323014,-0.04495 -0.02851,-0.02036 -0.0047,-0.05174 0.07122,-0.09456 0.389107,-0.252485 0.652138,-0.464091 0.786829,-0.634394 0.146689,-0.169454 0.309563,-0.435679 0.490319,-0.801812 0.03636,-0.07548 0.130207,-0.264528 0.281603,-0.566459 0.151389,-0.302015 0.276019,-0.528209 0.372708,-0.677562 0.06132,-0.08558 0.08778,-0.161567 0.08117,-0.228569 -0.0065,-0.067 -0.02949,-0.11509 -0.06957,-0.142484 -0.04005,-0.02714 -0.08521,-0.03562 -0.134176,-0.02799 -0.104492,0.02205 -0.14636,0.103047 -0.127549,0.24358 0.01721,0.08557 -0.0027,0.199393 -0.05963,0.342895 -0.05696,0.143417 -0.117772,0.267412 -0.180556,0.371052 -0.0628,0.103725 -0.145295,0.232809 -0.248474,0.387591 -0.103211,0.154782 -0.1581,0.240951 -0.165648,0.258422 -0.26317,0.413797 -0.553553,0.744225 -0.869654,0.990603 -0.14828,0.114836 -0.281273,0.191421 -0.399213,0.230265 -0.117967,0.03901 -0.214424,0.04749 -0.288227,0.02714 -0.07384,-0.0212 -0.178235,-0.03817 -0.313075,-0.05174 -0.13485,-0.01357 -0.269155,-0.01018 -0.404183,0.01696 -0.09251,0.0229 -0.166467,-0.01611 -0.221969,-0.114327 -0.05551,-0.09855 -0.08002,-0.228398 -0.07288,-0.390983 10e-4,-0.01187 0.03297,-0.109322 0.09608,-0.291499 0.06313,-0.182176 0.08885,-0.33348 0.07454,-0.45544 -0.0188,-0.140618 0.0012,-0.319741 0.0613,-0.538471 -0.01554,-0.03223 -0.07123,-0.107287 -0.167306,-0.226872 -0.09607,-0.119585 -0.235015,-0.220341 -0.415777,-0.301506 -0.180766,-0.08142 -0.326971,-0.07379 -0.437311,0.02036 -0.161292,0.125861 -0.23154,0.264867 -0.213687,0.417359 0.01788,0.152492 0.09082,0.296672 0.218656,0.433983 0.111319,0.117889 0.234212,0.201344 0.369396,0.248499 0.135178,0.04665 0.224583,0.05004 0.270008,0.01187 0.06587,-0.067 0.110494,-0.06106 0.134175,0.02036 0.02175,0.104488 0.0087,0.195406 -0.03975,0.269956 -0.03441,0.05174 -0.121027,0.05089 -0.261726,0 -0.14068,-0.05343 -0.286728,-0.140364 -0.437312,-0.258337 -0.150908,-0.117634 -0.263291,-0.228484 -0.339578,-0.33136 -0.158044,-0.2122 -0.269829,-0.450606 -0.332954,-0.715559 -0.06313,-0.265037 -0.0035,-0.468671 0.177243,-0.61124 0.18725,-0.147996 0.426492,-0.161821 0.718914,-0.04156 0.292401,0.120432 0.593124,0.368338 0.901128,0.7438 0.05809,0.02884 0.122054,0 0.192151,-0.07972 0.07042,-0.08142 0.176703,-0.173356 0.318044,-0.276572 0.141337,-0.10347 0.264637,-0.151304 0.372711,-0.142484 0.0064,-0.01018 -0.03155,-0.05682 -0.114299,-0.154103 -0.811968,-0.718442 -0.892226,-1.398549 -0.241845,-2.040745 0.120374,-0.0687 0.228448,-0.119246 0.32467,-0.150711 0.09622,-0.03223 0.213777,-0.04665 0.352831,-0.0475 0.139061,-7.63e-4 0.291663,0.03986 0.457189,0.122554 0.165509,0.08311 0.347034,0.20728 0.544983,0.374359 l 0.30645,0.36113 c 0.176529,0.207789 0.232903,0.359518 0.170617,0.457136 -0.09741,0.161737 -0.195074,0.242562 -0.294854,0.24358 -0.0998,0 -0.167001,-0.08965 -0.200434,-0.273349 -0.07297,-0.217373 -0.245465,-0.394715 -0.518403,-0.531686 -0.272924,-0.136971 -0.521797,-0.09465 -0.745417,0.129169 -0.156743,0.144519 -0.19794,0.332208 -0.125893,0.56154 0.07201,0.229501 0.185516,0.417444 0.342892,0.563236 0.157403,0.145791 0.265632,0.19829 0.323014,0.160718 0.04447,-0.02714 0.202847,-0.07209 0.477067,-0.13748 0.27423,-0.06531 0.469192,-0.128914 0.583083,-0.192184 0.29727,-0.163263 0.509877,-0.205838 0.639403,-0.125861 0.129488,0.07972 0.251686,0.254012 0.366082,0.520152 0.114423,0.266055 0.242471,0.455525 0.384305,0.569767 0.147339,0.120772 0.306369,0.208892 0.477066,0.265037 0.1707,0.05598 0.338027,0.09957 0.501916,0.127557 0.16388,0.02884 0.413851,0.127473 0.750387,0.299811 0.33653,0.172337 0.721649,0.421939 1.154569,0.747108 0.01201,0 0.05554,0 0.130861,0.01018 0.0753,0 0.158277,0.01611 0.25013,0.03817 0.09183,0.0229 0.210557,0.05852 0.354487,0.109322 0.143929,0.05089 0.332859,0.144859 0.566517,0.281661 0.108926,0.06361 0.236891,0.16021 0.354488,0.238576 v -1.26073 c -0.553954,-0.222546 -0.965424,-0.33382 -1.22911,-0.33119 0.316289,-0.05937 0.73185,-0.01527 1.22911,0.115853 v -1.46589 c -0.03033,0 -0.06279,-0.01272 -0.09276,-0.01696 -1.221819,-0.135365 -2.255152,-0.476224 -3.099251,-1.022074 -0.883684,-0.579266 -1.570651,-1.191184 -2.062321,-1.835416 -0.342702,-0.468925 -0.846539,-0.867032 -1.509056,-1.19271 -0.662525,-0.325593 -1.293338,-0.467484 -1.895017,-0.425671 z m 1.555438,3.390866 c 0.06102,-0.01018 0.131022,0 0.210373,0.02969 0.07933,0.02799 0.14969,0.07803 0.210373,0.149184 l 0.0051,0.04495 c -0.02433,0.07633 -0.04476,0.105591 -0.0613,0.08557 -0.174923,-0.15317 -0.317733,-0.203548 -0.430685,-0.152322 -0.01849,0 -0.03784,0.01018 -0.05632,0.01272 -0.07853,-4.24e-4 -0.07543,-0.04156 0.01,-0.125946 0.01399,-0.0229 0.05159,-0.03816 0.112641,-0.04495 z m -2.20478,2.004361 c 0.03934,0.01018 0.08544,0.02629 0.139144,0.05258 0.107456,0.05343 0.198983,0.144774 0.27332,0.271737 0.01659,0.01866 0.01449,0.03647 -0.0051,0.05258 -0.07143,0.06106 -0.15262,0.01866 -0.243503,-0.127558 -0.0633,-0.113902 -0.127246,-0.142908 -0.192152,-0.08761 -0.02494,0.01018 -0.05717,0 -0.09774,-0.01781 -0.04963,-0.05852 -0.0413,-0.10576 0.02816,-0.142484 0.02499,-0.01018 0.05838,-0.01018 0.09774,0 z"
     id="path908" />
  <path
     style="fill:#d2f3fc;fill-opacity:1;fill-rule:evenodd;stroke-width:0.67223501"
     d="m 10.027532,27.793709 c -0.131513,0.01592 -0.227438,0.109867 -0.232424,0.247138 L 9.683806,31.16707 C 8.8135097,30.940297 7.9231704,30.889847 7.0632947,31.04765 v 7.142948 c 2.1180963,1.919446 4.7167193,3.462613 7.0480453,4.103462 2.235068,-1.97526 2.219266,-4.557428 1.04264,-6.759964 l 2.938049,-0.716943 c 0.177909,-0.04358 0.248217,-0.227277 0.157132,-0.4124 -0.0911,-0.18529 -0.308189,-0.300437 -0.486128,-0.25711 l -3.001883,0.733368 c -1.027741,-1.551882 -2.620106,-2.840787 -4.358791,-3.486329 l 0.116213,-3.167204 c 0.005,-0.137271 -0.08347,-0.278145 -0.211146,-0.361782 -0.0425,-0.02766 -0.08922,-0.04944 -0.139128,-0.06202 -0.04995,-0.01257 -0.09693,-0.01508 -0.140766,-0.01006 z"
     id="path910" />
</svg>
