<?xml version="1.0" encoding="UTF-8" standalone="no"?>
<svg
   xmlns:dc="http://purl.org/dc/elements/1.1/"
   xmlns:cc="http://creativecommons.org/ns#"
   xmlns:rdf="http://www.w3.org/1999/02/22-rdf-syntax-ns#"
   xmlns:svg="http://www.w3.org/2000/svg"
   xmlns="http://www.w3.org/2000/svg"
   xmlns:xlink="http://www.w3.org/1999/xlink"
   id="svg8"
   version="1.1"
   viewBox="0 0 12.7 12.7"
   height="48"
   width="48">
  <defs
     id="defs2">
    <linearGradient
       gradientTransform="scale(0.26458333)"
       gradientUnits="userSpaceOnUse"
       y2="2.5784509"
       x2="23.355932"
       y1="44.883537"
       x1="23.355932"
       id="linearGradient988"
       xlink:href="#linearGradient986" />
    <linearGradient
       id="linearGradient986">
      <stop
         id="stop982"
         offset="0"
         style="stop-color:#0cb997;stop-opacity:1" />
      <stop
         id="stop984"
         offset="1"
         style="stop-color:#0edbb3;stop-opacity:1" />
    </linearGradient>
    <linearGradient
       gradientTransform="matrix(0.28745653,0,0,0.28745653,-111.09612,-144.29086)"
       gradientUnits="userSpaceOnUse"
       x2="0"
       y2="503.79999"
       y1="543.79999"
       id="b-2-7">
      <stop
         id="stop7-8-5"
         stop-color="#1d1e1e" />
      <stop
         id="stop9-9-3"
         stop-color="#44484c"
         offset="1" />
    </linearGradient>
  </defs>
  <metadata
     id="metadata5">
    <rdf:RDF>
      <cc:Work
         rdf:about="">
        <dc:format>image/svg+xml</dc:format>
        <dc:type
           rdf:resource="http://purl.org/dc/dcmitype/StillImage" />
        <dc:title></dc:title>
      </cc:Work>
    </rdf:RDF>
  </metadata>
  <rect
     rx="0.58144116"
     style="fill-opacity:0.66666697;stroke-width:0.26458332"
     id="rect7-6"
     y="0.67264575"
     x="0.52916676"
     width="11.641666"
     ry="0.5814411"
     height="11.498181" />
  <rect
     rx="0.58144116"
     style="fill:url(#linearGradient988);fill-opacity:1;stroke-width:0.26458332"
     id="rect9-2"
     y="0.52973193"
     x="0.52916676"
     width="11.641666"
     ry="0.5814411"
     height="11.498181" />
  <rect
     style="fill:url(#b-2-7);stroke-width:0.7408334;stroke-opacity:0.55"
     width="2.2996523"
     x="5.2001734"
     y="0.52973193"
     height="11.498262"
     id="rect31-6" />
  <path
     style="fill-opacity:0.66666697;fill-rule:evenodd;stroke-width:0.26458332"
     id="path11-1"
     d="m 5.4837298,0.52917 v 4.1115 h -0.00486 v 1.34625 c -0.09919,0.867 1.8412698,0.867 1.738345,0 V 5.32077 h 5.821e-4 v -4.7916 h -1.734011 z" />
  <path
     style="opacity:0.92900002;fill:#ffffff;stroke-width:0.26458335"
     d="m 5.9846476,0.84904378 c -0.1431252,0 -0.2583822,0.11525699 -0.2583822,0.25838212 v 0.058394 c 0,0.1431252 0.115257,0.2583822 0.2583822,0.2583822 h 0.7772136 c 0.143125,0 0.2578653,-0.115257 0.2578653,-0.2583822 v -0.058394 c 0,-0.14312513 -0.1147403,-0.25838212 -0.2578653,-0.25838212 z m -0.00259,0.83147382 c -0.1431253,0 -0.2583823,0.115257 -0.2583823,0.2583821 v 0.058394 c 0,0.1431251 0.115257,0.2583821 0.2583823,0.2583821 h 0.7766968 c 0.1431251,0 0.2583821,-0.115257 0.2583821,-0.2583821 v -0.058394 c 0,-0.1431251 -0.115257,-0.2583821 -0.2583821,-0.2583821 z m -0.00827,0.8216552 c -0.1431253,0 -0.2583823,0.115257 -0.2583823,0.2583822 v 0.058394 c 3e-7,0.143125 0.115257,0.258382 0.2583823,0.258382 H 6.751 c 0.1431253,0 0.2583823,-0.115257 0.2583823,-0.258382 V 2.760555 c 0,-0.1431252 -0.115257,-0.2583822 -0.2583823,-0.2583822 z m 0.01447,0.8552449 c -0.1431251,0 -0.2583821,0.115257 -0.2583821,0.2583823 v 0.057878 c 0,0.1431251 0.115257,0.2583821 0.2583821,0.2583821 h 0.7766968 c 0.1431253,0 0.2583823,-0.115257 0.2583823,-0.2583821 V 3.6158 c 0,-0.1431253 -0.115257,-0.2583823 -0.2583823,-0.2583823 z m 0,0.8402587 c -0.1431251,0 -0.2583821,0.115257 -0.2583821,0.2583823 v 0.057878 c 0,0.1431251 0.115257,0.2583821 0.2583821,0.2583821 h 0.7766968 c 0.1431253,0 0.2583823,-0.115257 0.2583823,-0.2583821 v -0.057878 c 0,-0.1431253 -0.115257,-0.2583823 -0.2583823,-0.2583823 z m 0,0.8598959 c -0.1431251,0 -0.2583821,0.115257 -0.2583821,0.2583823 v 0.057878 c 0,0.143125 0.115257,0.258382 0.2583821,0.258382 h 0.7766968 c 0.1431253,0 0.2583823,-0.115257 0.2583823,-0.258382 v -0.057878 c 0,-0.1431253 -0.115257,-0.2583823 -0.2583823,-0.2583823 z m 0.0863,0.8691977 c -0.1133017,0 -0.2051552,0.081875 -0.2051552,0.1829345 v 0.1235068 0.2392619 l -0.3167767,0.830957 c -0.035604,0.092954 -0.044535,0.1899369 -0.038757,0.2857706 -0.0225,0.1841765 0.02927,0.3723944 0.1524455,0.526066 0.1598697,0.19909 0.4189487,0.3178101 0.6934975,0.3178101 0.2745989,0 0.5336339,-0.1187201 0.6934978,-0.3178101 C 7.1764778,7.9616066 7.2282438,7.7737988 7.205755,7.5897175 7.211615,7.4937425 7.202655,7.3969953 7.166998,7.3039469 L 6.8502196,6.4724732 V 6.2332113 6.1097045 c 0,-0.10108 -0.091854,-0.1829345 -0.2051556,-0.1829345 z m -0.024805,1.3399699 h 0.6201171 l 0.1064535,0.2790526 c 0.00849,0.022251 0.012171,0.045318 0.016021,0.068213 -0.011001,0.058115 -0.0355,0.1146244 -0.074931,0.1638141 -0.1644962,0.2053802 -0.5511991,0.2053802 -0.7157186,0 -0.039423,-0.04919 -0.06342,-0.105678 -0.074414,-0.1638141 0.00385,-0.022918 0.00753,-0.045927 0.016021,-0.068213 z"
     id="rect13-7" />
</svg>
