<?xml version="1.0" encoding="UTF-8" standalone="no"?>
<svg
   xmlns:dc="http://purl.org/dc/elements/1.1/"
   xmlns:cc="http://creativecommons.org/ns#"
   xmlns:rdf="http://www.w3.org/1999/02/22-rdf-syntax-ns#"
   xmlns:svg="http://www.w3.org/2000/svg"
   xmlns="http://www.w3.org/2000/svg"
   xmlns:xlink="http://www.w3.org/1999/xlink"
   height="48"
   width="48"
   version="1.1"
   id="svg43">
  <metadata
     id="metadata49">
    <rdf:RDF>
      <cc:Work
         rdf:about="">
        <dc:format>image/svg+xml</dc:format>
        <dc:type
           rdf:resource="http://purl.org/dc/dcmitype/StillImage" />
        <dc:title></dc:title>
      </cc:Work>
    </rdf:RDF>
  </metadata>
  <defs
     id="defs47">
    <linearGradient
       id="linearGradient886">
      <stop
         id="stop882"
         stop-color="#dcdfe0"
         offset="0"
         style="stop-color:#ececec;stop-opacity:1" />
      <stop
         style="stop-color:#ffffff;stop-opacity:1"
         id="stop884"
         stop-color="#fefeff"
         offset="1" />
    </linearGradient>
    <linearGradient
       id="linearGradient878">
      <stop
         style="stop-color:#ededed;stop-opacity:1"
         offset="0"
         id="stop874" />
      <stop
         style="stop-color:#adadad;stop-opacity:1"
         offset="1"
         id="stop876" />
    </linearGradient>
    <linearGradient
       xlink:href="#linearGradient878"
       id="linearGradient880"
       x1="23.998451"
       y1="0.50001007"
       x2="23.998451"
       y2="47.363766"
       gradientUnits="userSpaceOnUse" />
  </defs>
  <linearGradient
     id="a"
     gradientUnits="userSpaceOnUse"
     x1="404.889375"
     x2="404.889375"
     y1="546.476453"
     y2="517.476513"
     gradientTransform="matrix(1.6041596,0,0,1.6040528,-618.92804,-829.25272)">
    <stop
       offset="0"
       stop-color="#00cafe"
       id="stop2" />
    <stop
       offset="1"
       stop-color="#1460f3"
       id="stop4" />
  </linearGradient>
  <linearGradient
     id="b"
     gradientUnits="userSpaceOnUse"
     x1="400.571445"
     x2="400.571445"
     y1="545.797993"
     y2="517.797993"
     gradientTransform="matrix(1.6041596,0,0,1.6040528,-618.92804,-829.25272)">
    <stop
       offset="0"
       stop-color="#e3e3e3"
       id="stop7" />
    <stop
       offset="1"
       stop-color="#fcf9f9"
       id="stop9" />
  </linearGradient>
  <linearGradient
     id="c"
     gradientUnits="userSpaceOnUse"
     x1="400.43274"
     x2="400.78711"
     y1="544.8963"
     y2="518.50586"
     gradientTransform="matrix(1.6041596,0,0,1.6040528,-618.92804,-829.25272)">
    <stop
       style="stop-color:#212121;stop-opacity:1"
       offset="0"
       stop-color="#333"
       id="stop12" />
    <stop
       offset="1"
       stop-color="#4d4d4d"
       id="stop14"
       style="stop-color:#5b5b5b;stop-opacity:1" />
  </linearGradient>
  <linearGradient
     id="d"
     gradientUnits="userSpaceOnUse"
     x1="400.571445"
     x2="400.571445"
     y1="545.797993"
     y2="517.797993"
     gradientTransform="matrix(1.6041596,0,0,1.6040528,-618.92804,-829.25272)">
    <stop
       offset="0"
       stop-color="#d3d3d3"
       id="stop17" />
    <stop
       offset="1"
       stop-color="#fcf9f9"
       id="stop19" />
  </linearGradient>
  <linearGradient
     id="e">
    <stop
       offset="0"
       stop-color="#dcdfe0"
       id="stop22" />
    <stop
       offset="1"
       stop-color="#fefeff"
       id="stop24" />
  </linearGradient>
  <linearGradient
     id="f"
     gradientUnits="userSpaceOnUse"
     x1="401.65936"
     x2="402.0788"
     xlink:href="#linearGradient886"
     y1="539.15057"
     y2="524.59662"
     gradientTransform="matrix(1.6041596,0,0,1.6040528,-618.92804,-829.25272)" />
  <linearGradient
     id="g"
     gradientUnits="userSpaceOnUse"
     x1="404.942300554954"
     x2="404.942300554954"
     xlink:href="#e"
     y1="546.476130480766"
     y2="517.394395419478"
     gradientTransform="matrix(1.5700286,0,0,1.5699241,-605.24874,-811.09843)" />
  <ellipse
     style="fill:url(#c);stroke-width:1.60410619"
     id="circle29"
     cy="24.065601"
     cx="23.933243"
     rx="22.458168"
     ry="22.456673" />
  <circle
     style="fill:url(#b);stroke:url(#a);stroke-width:1.60410619"
     id="circle31"
     r="0"
     cy="24.065699"
     cx="23.93334" />
  <circle
     style="fill:url(#d);stroke-width:1.60410619"
     id="circle33"
     r="0"
     cy="24.065601"
     cx="23.933243" />
  <path
     style="fill:url(#f);stroke-width:1.60410619"
     id="path37"
     d="m 20.628658,15.022415 c -0.783392,0.219835 -1.414018,1.094011 -1.414018,1.94323 v 13.463312 c -0.79438,-0.435485 -1.814577,-0.611593 -2.872281,-0.323794 -1.908581,0.519184 -3.104625,2.197216 -2.695501,3.747532 0.409142,1.550222 2.289297,2.416121 4.197941,1.896809 1.522653,-0.414199 2.572287,-1.586263 2.739648,-2.82217 l 0.0446,-12.723107 9.898227,-2.775973 v 10.039734 c -0.79438,-0.435533 -1.814562,-0.611609 -2.872297,-0.323907 -1.908565,0.519216 -3.104578,2.197329 -2.695469,3.747549 0.409157,1.550301 2.289312,2.416073 4.197909,1.896873 1.522669,-0.414182 2.572303,-1.586216 2.739681,-2.822138 l 0.04475,-16.563258 c 0,-0.636825 -0.375918,-1.113261 -0.883747,-1.202879 l -10.428498,2.822187 z" />
  <path
     style="fill:url(#linearGradient880);stroke-width:1.60410619;fill-opacity:1"
     id="path39"
     d="m 23.998452,0.50001006 c -12.967577,0 -23.49843574,10.53328594 -23.49843574,23.49999994 0,12.966698 10.53085874,23.499999 23.49843574,23.499999 12.967577,0 23.501564,-10.533301 23.501564,-23.499999 0,-12.966714 -10.533987,-23.49999994 -23.501564,-23.49999994 z m 0,1.95806724 c 11.909057,0 21.543367,9.6336687 21.543367,21.5419327 0,11.908248 -9.63431,21.538789 -21.543367,21.538789 -11.909056,0 -21.5402221,-9.630541 -21.5402221,-21.538789 0,-11.908264 9.6311661,-21.5419327 21.5402221,-21.5419327 z" />
</svg>
