<?xml version="1.0" encoding="UTF-8" standalone="no"?>
<svg
   xmlns:dc="http://purl.org/dc/elements/1.1/"
   xmlns:cc="http://creativecommons.org/ns#"
   xmlns:rdf="http://www.w3.org/1999/02/22-rdf-syntax-ns#"
   xmlns:svg="http://www.w3.org/2000/svg"
   xmlns="http://www.w3.org/2000/svg"
   xmlns:xlink="http://www.w3.org/1999/xlink"
   width="48px"
   height="48px"
   viewBox="0 0 48 48"
   version="1.1"
   id="SVGRoot">
  <defs
     id="defs1370">
    <linearGradient
       id="linearGradient851">
      <stop
         style="stop-color:#929292;stop-opacity:1"
         offset="0"
         id="stop847" />
      <stop
         style="stop-color:#d1d1d1;stop-opacity:1"
         offset="1"
         id="stop849" />
    </linearGradient>
    <linearGradient
       xlink:href="#linearGradient863"
       id="linearGradient1150"
       gradientUnits="userSpaceOnUse"
       x1="400.49738"
       y1="517.60938"
       x2="400.49738"
       y2="551.26465"
       gradientTransform="matrix(-1.257157,0,0,-1.257157,531.18362,689.18237)" />
    <linearGradient
       id="linearGradient1148">
      <stop
         style="stop-color:#6e6e6e;stop-opacity:1"
         offset="0"
         id="stop1144" />
      <stop
         style="stop-color:#ababab;stop-opacity:1"
         offset="1"
         id="stop1146" />
    </linearGradient>
    <linearGradient
       xlink:href="#linearGradient822-6"
       id="linearGradient998"
       x1="-17.771849"
       y1="57.059589"
       x2="-17.771849"
       y2="42.618912"
       gradientUnits="userSpaceOnUse" />
    <linearGradient
       id="linearGradient822-6">
      <stop
         id="stop818-7"
         offset="0"
         style="stop-color:#0652ff;stop-opacity:1" />
      <stop
         id="stop820-5"
         offset="1"
         style="stop-color:#1b99ff;stop-opacity:1" />
    </linearGradient>
    <linearGradient
       xlink:href="#linearGradient863"
       id="linearGradient1099"
       x1="-8.8050728"
       y1="56.41531"
       x2="-9.9452295"
       y2="52.160187"
       gradientUnits="userSpaceOnUse"
       gradientTransform="matrix(1.1728204,0,0,1.1728204,39.390615,-24.659913)" />
    <linearGradient
       id="linearGradient863">
      <stop
         id="stop859"
         offset="0"
         style="stop-color:#a5a5a5;stop-opacity:1" />
      <stop
         id="stop861"
         offset="1"
         style="stop-color:#dbdbdb;stop-opacity:1" />
    </linearGradient>
    <linearGradient
       xlink:href="#linearGradient1105"
       id="linearGradient1107"
       x1="-14.238014"
       y1="57.635826"
       x2="-14.238014"
       y2="33.47435"
       gradientUnits="userSpaceOnUse"
       gradientTransform="matrix(1.1728204,0,0,1.1728204,39.390615,-24.659913)" />
    <linearGradient
       id="linearGradient1105">
      <stop
         style="stop-color:#233040;stop-opacity:1"
         offset="0"
         id="stop1101" />
      <stop
         style="stop-color:#1e344d;stop-opacity:1"
         offset="1"
         id="stop1103" />
    </linearGradient>
    <linearGradient
       xlink:href="#linearGradient1148"
       id="linearGradient1150-3"
       gradientUnits="userSpaceOnUse"
       x1="400.49738"
       y1="517.60938"
       x2="400.49738"
       y2="544.73138"
       gradientTransform="translate(-412.17475,-494.0435)" />
    <linearGradient
       xlink:href="#linearGradient822-6"
       id="linearGradient998-5"
       x1="-17.771849"
       y1="57.059589"
       x2="-17.771849"
       y2="42.618912"
       gradientUnits="userSpaceOnUse" />
    <linearGradient
       gradientUnits="userSpaceOnUse"
       y2="545.22168"
       x2="400.55444"
       y1="517.83185"
       x1="400.55444"
       id="linearGradient865"
       xlink:href="#linearGradient863" />
    <linearGradient
       gradientTransform="matrix(0.3097139,0,0,0.3097139,46.11353,7.59963)"
       gradientUnits="userSpaceOnUse"
       y2="2.4374466"
       x2="26.10714"
       y1="45.762711"
       x1="26.10714"
       id="linearGradient824"
       xlink:href="#linearGradient822-6" />
    <linearGradient
       xlink:href="#linearGradient851"
       id="linearGradient1150-36"
       gradientUnits="userSpaceOnUse"
       x1="400.49738"
       y1="517.60938"
       x2="400.49738"
       y2="545.76392"
       gradientTransform="matrix(-1.257157,0,0,-1.257157,530.88351,689.07571)" />
    <linearGradient
       xlink:href="#linearGradient822-6"
       id="linearGradient998-2"
       x1="-17.771849"
       y1="57.059589"
       x2="-17.771849"
       y2="42.618912"
       gradientUnits="userSpaceOnUse" />
    <linearGradient
       xlink:href="#linearGradient863"
       id="linearGradient1099-8"
       x1="-8.8050728"
       y1="56.41531"
       x2="-9.9452295"
       y2="52.160187"
       gradientUnits="userSpaceOnUse"
       gradientTransform="matrix(1.1728204,0,0,1.1728204,39.497281,-24.766579)" />
    <linearGradient
       xlink:href="#linearGradient1105"
       id="linearGradient1107-7"
       x1="-14.238014"
       y1="57.635826"
       x2="-14.238014"
       y2="33.47435"
       gradientUnits="userSpaceOnUse"
       gradientTransform="matrix(1.1728204,0,0,1.1728204,39.497281,-24.766579)" />
    <linearGradient
       xlink:href="#linearGradient851"
       id="linearGradient1150-36-6"
       gradientUnits="userSpaceOnUse"
       x1="400.49738"
       y1="517.60938"
       x2="400.49738"
       y2="545.76392"
       gradientTransform="matrix(-1.3144141,0,0,-1.3144141,554.18212,719.36652)" />
    <linearGradient
       xlink:href="#linearGradient863"
       id="linearGradient1099-8-2"
       x1="-8.8050728"
       y1="56.41531"
       x2="-9.9452295"
       y2="52.160187"
       gradientUnits="userSpaceOnUse"
       gradientTransform="matrix(1.2262364,0,0,1.2262364,40.415756,-26.987649)" />
    <linearGradient
       xlink:href="#linearGradient1105"
       id="linearGradient1107-7-3"
       x1="-14.238014"
       y1="57.635826"
       x2="-14.238014"
       y2="33.47435"
       gradientUnits="userSpaceOnUse"
       gradientTransform="matrix(1.2262364,0,0,1.2262364,40.415756,-26.987649)" />
  </defs>
  <metadata
     id="metadata1373">
    <rdf:RDF>
      <cc:Work
         rdf:about="">
        <dc:format>image/svg+xml</dc:format>
        <dc:type
           rdf:resource="http://purl.org/dc/dcmitype/StillImage" />
        <dc:title></dc:title>
      </cc:Work>
    </rdf:RDF>
  </metadata>
  <path
     d="M 42.123999,38.765511 V 1.9619158 H 13.206902 V 29.564613 l 9.200886,9.200898 z"
     id="path1130"
     style="fill:url(#linearGradient1150-36-6);fill-opacity:1;stroke-width:0.99999988" />
  <path
     d="m 13.855258,29.341563 9.200886,9.200898 v -9.200898 z"
     id="path1132"
     style="fill:#333333;fill-opacity:1;fill-rule:evenodd;stroke-width:0.99999988" />
  <g
     transform="matrix(1.3144141,0,0,1.3144141,43.939183,-30.253981)"
     id="g1061"
     style="stroke-width:0.76079524">
    <path
       style="fill:url(#linearGradient998-2);fill-opacity:1;stroke-width:0.76079524"
       id="rect4144"
       d="m -28.95829,58.04264 v -28 H -6.9583 v 21 l -6.99999,7 z" />
  </g>
  <path
     id="Combined-Shape-3-6"
     d="m 10.733869,34.339887 v 0.393914 h 18.431626 v -0.393914 z m 0,1.573985 v 0.393914 h 18.431626 v -0.393914 z m 0,1.573986 v 0.393914 h 18.431626 v -0.393914 z m 0,1.573985 v 0.393913 h 18.431626 v -0.393913 z"
     style="fill:#ffffff;fill-opacity:1;fill-rule:evenodd;stroke:none;stroke-width:0.56111431" />
  <path
     d="M 34.793096,36.837183 25.59221,46.038081 V 36.837183 Z"
     id="path4164"
     style="fill:url(#linearGradient1099-8-2);fill-opacity:1;fill-rule:evenodd;stroke-width:0.99999994" />
  <path
     id="path1056"
     d="m 13.717021,16.943706 v 1.034638 3.740979 h 9.087515 v -4.775617 z"
     style="color:#000000;font-style:normal;font-variant:normal;font-weight:normal;font-stretch:normal;font-size:medium;line-height:normal;font-family:sans-serif;font-variant-ligatures:normal;font-variant-position:normal;font-variant-caps:normal;font-variant-numeric:normal;font-variant-alternates:normal;font-feature-settings:normal;text-indent:0;text-align:start;text-decoration:none;text-decoration-line:none;text-decoration-style:solid;text-decoration-color:#000000;letter-spacing:normal;word-spacing:normal;text-transform:none;writing-mode:lr-tb;direction:ltr;text-orientation:mixed;dominant-baseline:auto;baseline-shift:baseline;text-anchor:start;white-space:normal;shape-padding:0;clip-rule:nonzero;display:inline;overflow:visible;visibility:visible;opacity:1;isolation:auto;mix-blend-mode:normal;color-interpolation:sRGB;color-interpolation-filters:linearRGB;solid-color:#000000;solid-opacity:1;vector-effect:none;fill:#ffffff;fill-opacity:1;fill-rule:nonzero;stroke:none;stroke-width:1.68895769;stroke-linecap:butt;stroke-linejoin:miter;stroke-miterlimit:4;stroke-dasharray:none;stroke-dashoffset:0;stroke-opacity:1;color-rendering:auto;image-rendering:auto;shape-rendering:auto;text-rendering:auto;enable-background:accumulate" />
  <path
     id="path1025"
     d="m 11.232736,24.835064 v 0.749578 h 19.583719 v -0.749578 z"
     style="fill:#ffffff;fill-opacity:1;fill-rule:evenodd;stroke:none;stroke-width:0.37899762" />
  <path
     id="path1023"
     d="m 12.417401,27.830197 v 0.749578 h 17.214383 v -0.749578 z"
     style="fill:#ffffff;fill-opacity:1;fill-rule:evenodd;stroke:none;stroke-width:0.37899762" />
  <path
     id="path987-0"
     d="m 12.916213,30.825331 v 0.749578 h 16.216764 v -0.749578 z"
     style="fill:#ffffff;fill-opacity:1;fill-rule:evenodd;stroke:none;stroke-width:0.37899762" />
  <path
     style="fill:url(#linearGradient1107-7-3);fill-opacity:1;stroke-width:1.29999995"
     id="path27"
     d="m 20.799514,14.049604 a 11.633019,11.633017 0 0 0 -11.6330021,11.633 11.633019,11.633017 0 0 0 11.6330021,11.633045 11.633019,11.633017 0 0 0 6.955814,-2.327272 l 8.990548,8.990549 2.349477,-2.349477 -8.990549,-8.99057 A 11.633019,11.633017 0 0 0 32.432054,25.683088 11.633019,11.633017 0 0 0 20.79903,14.050087 m 0,3.32372 a 8.3092997,8.3092984 0 0 1 8.309303,8.309281 8.3092997,8.3092984 0 0 1 -0.04217,0.830941 8.3092997,8.3092984 0 0 1 -1.340532,3.745681 8.3092997,8.3092984 0 0 1 -2.349958,2.349959 8.3092997,8.3092984 0 0 1 -0.632952,0.376521 8.3092997,8.3092984 0 0 1 -0.08104,0.04875 8.3092997,8.3092984 0 0 1 -0.01758,0.0066 8.3092997,8.3092984 0 0 1 -0.736789,0.340811 8.3092997,8.3092984 0 0 1 -0.723832,0.253179 8.3092997,8.3092984 0 0 1 -0.06172,0.02285 8.3092997,8.3092984 0 0 1 -0.01104,0.0044 8.3092997,8.3092984 0 0 1 -0.756269,0.178553 8.3092997,8.3092984 0 0 1 -0.04217,0.01103 8.3092997,8.3092984 0 0 1 -0.0066,0 8.3092997,8.3092984 0 0 1 -0.610199,0.08455 8.3092997,8.3092984 0 0 1 -0.24668,0.03251 8.3092997,8.3092984 0 0 1 -0.652432,0.02591 8.3092997,8.3092984 0 0 1 -8.309302,-8.309281 8.3092997,8.3092984 0 0 1 0.04217,-0.83094 8.3092997,8.3092984 0 0 1 3.778163,-6.160562 8.3092997,8.3092984 0 0 1 1.476828,-0.753019 8.3092997,8.3092984 0 0 1 3.012122,-0.564781" />
</svg>
