<?xml version="1.0" encoding="UTF-8" standalone="no"?>
<svg
   xmlns:dc="http://purl.org/dc/elements/1.1/"
   xmlns:cc="http://creativecommons.org/ns#"
   xmlns:rdf="http://www.w3.org/1999/02/22-rdf-syntax-ns#"
   xmlns:svg="http://www.w3.org/2000/svg"
   xmlns="http://www.w3.org/2000/svg"
   xmlns:xlink="http://www.w3.org/1999/xlink"
   xmlns:sodipodi="http://sodipodi.sourceforge.net/DTD/sodipodi-0.dtd"
   xmlns:inkscape="http://www.inkscape.org/namespaces/inkscape"
   height="48"
   width="48"
   version="1.1"
   id="svg19"
   sodipodi:docname="bluetooth.svg"
   inkscape:version="0.92.2 2405546, 2018-03-11">
  <metadata
     id="metadata25">
    <rdf:RDF>
      <cc:Work
         rdf:about="">
        <dc:format>image/svg+xml</dc:format>
        <dc:type
           rdf:resource="http://purl.org/dc/dcmitype/StillImage" />
      </cc:Work>
    </rdf:RDF>
  </metadata>
  <defs
     id="defs23">
    <linearGradient
       gradientTransform="translate(-419.00001,-506.71113)"
       gradientUnits="userSpaceOnUse"
       x2="425.21"
       y2="513.95"
       x1="395.91"
       y1="525.26"
       id="a-3">
      <stop
         id="stop2-6"
         stop-color="#da4453" />
      <stop
         id="stop4-7"
         stop-color="#ff7336"
         offset="1" />
    </linearGradient>
    <linearGradient
       gradientUnits="userSpaceOnUse"
       x2="44"
       y2="33.75"
       x1="26.362"
       y1="44.09"
       id="b">
      <stop
         id="stop7"
         stop-color="#c0392b" />
      <stop
         id="stop9"
         stop-opacity="0"
         stop-color="#c0392b"
         offset="1" />
    </linearGradient>
    <linearGradient
       gradientUnits="userSpaceOnUse"
       x2="398.82"
       y2="528.52"
       x1="388.57"
       y1="519.85"
       id="c">
      <stop
         id="stop12"
         stop-color="#4d4d4d" />
      <stop
         id="stop14"
         stop-color="#31363b"
         offset="1" />
    </linearGradient>
    <linearGradient
       gradientUnits="userSpaceOnUse"
       x2="422.73"
       y2="537.95"
       x1="394.57"
       y1="509.8"
       id="d">
      <stop
         id="stop17"
         stop-color="#e5e7e8" />
      <stop
         id="stop19"
         stop-color="#dcdee0"
         offset="1" />
    </linearGradient>
    <linearGradient
       gradientTransform="matrix(0.70711,0.70711,-0.70711,0.70711,105.48,-635.29)"
       gradientUnits="userSpaceOnUse"
       x2="427.57"
       x1="389.57"
       id="e">
      <stop
         id="stop22"
         stop-color="#fcfcfc" />
      <stop
         id="stop24"
         stop-color="#eff0f1"
         offset="1" />
    </linearGradient>
    <linearGradient
       gradientTransform="translate(-444.75968,-516.38672)"
       x2="799.04"
       gradientUnits="userSpaceOnUse"
       y2="160.66"
       x1="771.7"
       y1="133.33"
       id="f"
       xlink:href="#d" />
    <linearGradient
       gradientTransform="matrix(0.49677,0,0,0.76923,-191.25657,-404.02657)"
       x2="0"
       gradientUnits="userSpaceOnUse"
       y2="528.8"
       y1="551.8"
       id="g">
      <stop
         id="stop28"
         stop-color="#c6cdd1" />
      <stop
         id="stop30"
         stop-color="#e0e5e7"
         offset="1" />
    </linearGradient>
    <linearGradient
       gradientTransform="matrix(0.61141,0,0,0.76923,-238.90657,-386.33657)"
       x2="0"
       gradientUnits="userSpaceOnUse"
       y2="505.8"
       y1="557.8"
       id="h">
      <stop
         id="stop33"
         stop-color="#42a603" />
      <stop
         id="stop35"
         stop-color="#78da06"
         offset="1" />
    </linearGradient>
    <linearGradient
       gradientTransform="matrix(1.5625 0 0 1.53847-227.95-292.82)"
       gradientUnits="userSpaceOnUse"
       x2="400.57"
       x1="398.57"
       id="i">
      <stop
         id="stop38"
         stop-color="#faae2a" />
      <stop
         id="stop40"
         stop-color="#ffc35a"
         offset="1" />
    </linearGradient>
    <linearGradient
       gradientTransform="matrix(1.5625,0,0,1.53847,-604.39657,-793.87657)"
       x2="400.57"
       gradientUnits="userSpaceOnUse"
       x1="398.57"
       id="j"
       xlink:href="#i" />
    <linearGradient
       gradientTransform="matrix(1.1580635,0,0,1.4383458,-439.42451,-734.17514)"
       gradientUnits="userSpaceOnUse"
       x2="390.65"
       y2="529.73"
       x1="410.5"
       y1="539.88"
       id="k">
      <stop
         id="stop44"
         stop-color="#bcfd93" />
      <stop
         id="stop46"
         stop-color="#fafff5"
         offset="1" />
    </linearGradient>
    <linearGradient
       gradientTransform="matrix(1,0,0,1.0440589,7.9999935,-1.176223)"
       gradientUnits="userSpaceOnUse"
       x2="34.19"
       y2="54.612"
       x1="14.187"
       y1="34.612"
       id="l">
      <stop
         id="stop49"
         stop-color="#383e51" />
      <stop
         id="stop51"
         stop-opacity="0"
         stop-color="#655c6f"
         offset="1" />
    </linearGradient>
    <linearGradient
       gradientTransform="matrix(0.61141,0,0,0.76923,-238.90657,-386.33657)"
       x2="0"
       gradientUnits="userSpaceOnUse"
       y2="505.79999"
       y1="557.79999"
       id="h-7">
      <stop
         id="stop33-5"
         stop-color="#42a603" />
      <stop
         id="stop35-3"
         stop-color="#78da06"
         offset="1" />
    </linearGradient>
    <linearGradient
       gradientTransform="matrix(0.49677,0,0,0.76923,-191.25657,-404.02657)"
       x2="0"
       gradientUnits="userSpaceOnUse"
       y2="528.79999"
       y1="551.79999"
       id="g-5">
      <stop
         id="stop28-6"
         stop-color="#c6cdd1" />
      <stop
         id="stop30-2"
         stop-color="#e0e5e7"
         offset="1" />
    </linearGradient>
    <linearGradient
       gradientTransform="matrix(1.5625,0,0,1.53847,-227.95,-292.82)"
       gradientUnits="userSpaceOnUse"
       x2="400.57001"
       x1="398.57001"
       id="i-9">
      <stop
         id="stop38-1"
         stop-color="#faae2a" />
      <stop
         id="stop40-2"
         stop-color="#ffc35a"
         offset="1" />
    </linearGradient>
    <linearGradient
       gradientTransform="matrix(1.5625,0,0,1.53847,-604.39657,-793.87657)"
       x2="400.57001"
       gradientUnits="userSpaceOnUse"
       x1="398.57001"
       id="j-7"
       xlink:href="#i-9" />
    <linearGradient
       gradientTransform="matrix(1.5625,0,0,1.53847,-227.95,-292.82)"
       gradientUnits="userSpaceOnUse"
       x2="400.57001"
       x1="398.57001"
       id="linearGradient1040">
      <stop
         id="stop1036"
         stop-color="#faae2a" />
      <stop
         id="stop1038"
         stop-color="#ffc35a"
         offset="1" />
    </linearGradient>
    <linearGradient
       gradientTransform="matrix(0.61141,0,0,0.80312143,-229.65001,-403.22242)"
       x2="0"
       gradientUnits="userSpaceOnUse"
       y2="505.79999"
       y1="557.79999"
       id="h-7-6">
      <stop
         id="stop33-5-1"
         stop-color="#42a603" />
      <stop
         id="stop35-3-8"
         stop-color="#78da06"
         offset="1" />
    </linearGradient>
    <linearGradient
       gradientTransform="matrix(0.49677,0,0,0.80312143,-182.00001,-421.69183)"
       x2="0"
       gradientUnits="userSpaceOnUse"
       y2="528.79999"
       y1="551.79999"
       id="g-5-7">
      <stop
         id="stop28-6-9"
         stop-color="#c6cdd1" />
      <stop
         id="stop30-2-2"
         stop-color="#e0e5e7"
         offset="1" />
    </linearGradient>
    <linearGradient
       gradientTransform="matrix(1.5625,0,0,1.53847,-227.95,-292.82)"
       gradientUnits="userSpaceOnUse"
       x2="400.57001"
       x1="398.57001"
       id="i-9-0">
      <stop
         id="stop38-1-2"
         stop-color="#faae2a" />
      <stop
         id="stop40-2-3"
         stop-color="#ffc35a"
         offset="1" />
    </linearGradient>
    <linearGradient
       gradientTransform="matrix(1.5625,0,0,1.6062533,-595.14001,-828.71819)"
       x2="400.57001"
       gradientUnits="userSpaceOnUse"
       x1="398.57001"
       id="j-7-7"
       xlink:href="#i-9-0" />
    <linearGradient
       gradientTransform="matrix(1.5625,0,0,1.53847,-227.95,-292.82)"
       gradientUnits="userSpaceOnUse"
       x2="400.57001"
       x1="398.57001"
       id="linearGradient1181">
      <stop
         id="stop1177"
         stop-color="#faae2a" />
      <stop
         id="stop1179"
         stop-color="#ffc35a"
         offset="1" />
    </linearGradient>
    <linearGradient
       xlink:href="#linearGradient4793"
       id="linearGradient2100"
       x1="24"
       y1="46"
       x2="23.178896"
       y2="14.592526"
       gradientUnits="userSpaceOnUse"
       gradientTransform="matrix(1,0,0,0.99809762,-41.629865,-1.1746768)" />
    <linearGradient
       id="linearGradient4793">
      <stop
         style="stop-color:#54b60f;stop-opacity:1"
         offset="0"
         id="stop4795" />
      <stop
         style="stop-color:#92dc41;stop-opacity:1"
         offset="1"
         id="stop4797" />
    </linearGradient>
  </defs>
  <sodipodi:namedview
     pagecolor="#ffffff"
     bordercolor="#666666"
     borderopacity="1"
     objecttolerance="10"
     gridtolerance="10"
     guidetolerance="10"
     inkscape:pageopacity="0"
     inkscape:pageshadow="2"
     inkscape:window-width="1366"
     inkscape:window-height="695"
     id="namedview21"
     showgrid="false"
     inkscape:zoom="4.9166667"
     inkscape:cx="-5.7966102"
     inkscape:cy="24"
     inkscape:window-x="0"
     inkscape:window-y="0"
     inkscape:window-maximized="1"
     inkscape:current-layer="svg19" />
  <linearGradient
     id="a"
     gradientUnits="userSpaceOnUse"
     x1="197.88585"
     x2="183.32736"
     y1="364.75723"
     y2="12.945999">
    <stop
       offset="0"
       stop-color="#197cf1"
       id="stop2" />
    <stop
       offset="1"
       stop-color="#20bcfa"
       id="stop4" />
  </linearGradient>
  <g
     id="g1074"
     transform="matrix(1.0031785,0,0,1.0019052,72.76458,6.4751302)">
    <g
       transform="translate(-46.914447,-0.49648831)"
       style="display:inline"
       id="layer2" />
    <g
       transform="translate(-46.914447,-0.49648831)"
       style="display:inline"
       id="layer1" />
    <path
       id="path983"
       d="m -48.612563,-4.466575 c -0.773787,0 -1.546431,0.2396725 -2.197802,0.717778 v -0.00177 c -1.807717,1.3250649 -7.612322,5.0862557 -14.320771,5.7180672 -2.163485,0.2027579 -3.870293,2.0579651 -3.908152,4.2497285 v 0.00177 0.00345 c -0.04793,3.1491316 0.146689,9.9235843 2.620258,16.7470013 2.473569,6.823417 7.501509,13.845813 16.699869,16.332898 l 0.0018,0.0018 h 0.0018 c 0.722834,0.194084 1.483519,0.194084 2.206353,0 h 0.0018 l 0.0018,-0.0018 c 9.198717,-2.484966 14.225842,-9.507381 16.699868,-16.331173 2.473418,-6.822113 2.671072,-13.5953525 2.62539,-16.7435504 -0.02858,-2.2061728 -1.74623,-4.058182 -3.909863,-4.2600813 l -0.0034,-0.00177 c -6.70304,-0.6325077 -12.500502,-4.384737 -14.31906,-5.7146165 -0.651371,-0.4781055 -1.425725,-0.717778 -2.199511,-0.717778 z"
       style="color:#000000;font-style:normal;font-variant:normal;font-weight:normal;font-stretch:normal;font-size:medium;line-height:normal;font-family:sans-serif;font-variant-ligatures:normal;font-variant-position:normal;font-variant-caps:normal;font-variant-numeric:normal;font-variant-alternates:normal;font-feature-settings:normal;text-indent:0;text-align:start;text-decoration:none;text-decoration-line:none;text-decoration-style:solid;text-decoration-color:#000000;letter-spacing:normal;word-spacing:normal;text-transform:none;writing-mode:lr-tb;direction:ltr;text-orientation:mixed;dominant-baseline:auto;baseline-shift:baseline;text-anchor:start;white-space:normal;shape-padding:0;clip-rule:nonzero;display:inline;overflow:visible;visibility:visible;opacity:1;isolation:auto;mix-blend-mode:normal;color-interpolation:sRGB;color-interpolation-filters:linearRGB;solid-color:#000000;solid-opacity:1;vector-effect:none;fill:#28befa;fill-opacity:1;fill-rule:nonzero;stroke:none;stroke-width:5.10139561;stroke-linecap:butt;stroke-linejoin:miter;stroke-miterlimit:4;stroke-dasharray:none;stroke-dashoffset:0;stroke-opacity:1;color-rendering:auto;image-rendering:auto;shape-rendering:auto;text-rendering:auto;enable-background:accumulate"
       inkscape:connector-curvature="0" />
    <path
       inkscape:connector-curvature="0"
       d="m -30.720223,6.261537 c -0.01178,-0.9093685 -0.706806,-1.6605865 -1.605981,-1.7436561 -7.472512,-0.7037722 -13.570718,-4.72476501 -15.581149,-6.1955702 -0.420158,-0.3083953 -0.989529,-0.3083953 -1.409686,0 -2.006545,1.47080519 -8.104711,5.491798 -15.577223,6.1955702 -0.899214,0.083068 -1.590313,0.8342876 -1.606021,1.7436561 -0.09031,5.934621 0.856021,26.083036 17.43848,30.566661 0.294502,0.07908 0.604712,0.07908 0.899214,0 16.582458,-4.479632 17.528754,-24.632078 17.442366,-30.566661 z"
       id="path977"
       style="fill:#ffffff;fill-opacity:1;stroke-width:0.37481064" />
    <g
       transform="matrix(0.87569981,0,0,0.88341898,-69.567167,-3.7920466)"
       style="display:inline"
       id="layer2-3" />
    <g
       transform="matrix(0.87569981,0,0,0.88341898,-69.567167,-3.7920466)"
       style="display:inline"
       id="layer1-6" />
    <path
       style="fill:#28befa;fill-opacity:1;stroke-width:0.33158201"
       id="path1036"
       d="M -32.783584,7.5564815 C -32.794005,6.7519947 -33.408871,6.087418 -34.20434,6.0139292 -40.815013,5.3913263 -46.209885,1.8340929 -47.988444,0.53292236 c -0.371699,-0.27282667 -0.875402,-0.27282667 -1.247101,0 -1.775121,1.30117054 -7.169957,4.85840394 -13.780631,5.48100684 -0.795503,0.073487 -1.406895,0.7380655 -1.420791,1.5425523 -0.07989,5.2501545 0.757292,23.0747605 15.427221,27.0412685 0.260536,0.06996 0.534968,0.06996 0.795503,0 14.669928,-3.962975 15.507083,-21.791148 15.430659,-27.0412685 z"
       inkscape:connector-curvature="0" />
    <path
       inkscape:connector-curvature="0"
       id="path9"
       d="m -49.402214,5.6228077 c -0.204442,-0.023436 -0.415964,0.010148 -0.608912,0.102726 -0.385799,0.1851562 -0.631243,0.5754658 -0.631243,1.0034389 v 7.9917804 l -3.328917,-2.691718 c -0.477842,-0.386285 -1.178326,-0.312781 -1.564709,0.165255 -0.386384,0.47794 -0.312685,1.179815 0.165254,1.566199 l 4.615224,3.730887 -4.615224,3.730887 c -0.477939,0.386383 -0.551638,1.086771 -0.165254,1.56471 0.219927,0.272036 0.542033,0.413881 0.86647,0.413881 0.245739,0 0.492337,-0.08217 0.698239,-0.248626 l 3.328917,-2.690229 v 7.988803 c 0,0.427973 0.245444,0.818282 0.631243,1.003439 0.153209,0.07344 0.318734,0.108681 0.482365,0.108681 0.248466,10e-7 0.493937,-0.08277 0.695261,-0.24416 l 6.979409,-5.594842 c 0.263465,-0.211259 0.416859,-0.530276 0.416859,-0.86796 0,-0.337683 -0.153394,-0.656797 -0.416859,-0.86796 l -5.361103,-4.298112 5.361103,-4.298114 c 0.263465,-0.211259 0.416859,-0.530373 0.416859,-0.86796 0,-0.337586 -0.153394,-0.656797 -0.416859,-0.867959 L -48.8335,5.8610127 c -0.166943,-0.1338267 -0.364273,-0.2147682 -0.568714,-0.238205 z m 0.985573,3.4241984 4.086706,3.2768079 -4.086706,3.27532 z m 0,10.3321459 4.086706,3.276808 -4.086706,3.27532 z"
       style="fill:#ffffff;fill-opacity:1;stroke-width:0.09739942" />
  </g>
</svg>
