<?xml version="1.0" encoding="UTF-8" standalone="no"?>
<svg
   xmlns:dc="http://purl.org/dc/elements/1.1/"
   xmlns:cc="http://creativecommons.org/ns#"
   xmlns:rdf="http://www.w3.org/1999/02/22-rdf-syntax-ns#"
   xmlns:svg="http://www.w3.org/2000/svg"
   xmlns="http://www.w3.org/2000/svg"
   xmlns:xlink="http://www.w3.org/1999/xlink"
   xmlns:sodipodi="http://sodipodi.sourceforge.net/DTD/sodipodi-0.dtd"
   xmlns:inkscape="http://www.inkscape.org/namespaces/inkscape"
   height="48"
   width="48"
   version="1.1"
   id="svg26"
   sodipodi:docname="bluetooth-black.svg"
   inkscape:version="0.92.2 2405546, 2018-03-11">
  <metadata
     id="metadata32">
    <rdf:RDF>
      <cc:Work
         rdf:about="">
        <dc:format>image/svg+xml</dc:format>
        <dc:type
           rdf:resource="http://purl.org/dc/dcmitype/StillImage" />
      </cc:Work>
    </rdf:RDF>
  </metadata>
  <defs
     id="defs30">
    <linearGradient
       gradientTransform="translate(-419.00001,-506.71113)"
       gradientUnits="userSpaceOnUse"
       x2="425.21"
       y2="513.95"
       x1="395.91"
       y1="525.26"
       id="a-3">
      <stop
         id="stop2-6"
         stop-color="#da4453" />
      <stop
         id="stop4-7"
         stop-color="#ff7336"
         offset="1" />
    </linearGradient>
    <linearGradient
       gradientUnits="userSpaceOnUse"
       x2="44"
       y2="33.75"
       x1="26.362"
       y1="44.09"
       id="b-3">
      <stop
         id="stop7-6"
         stop-color="#c0392b" />
      <stop
         id="stop9-7"
         stop-opacity="0"
         stop-color="#c0392b"
         offset="1" />
    </linearGradient>
    <linearGradient
       gradientUnits="userSpaceOnUse"
       x2="398.82"
       y2="528.52"
       x1="388.57"
       y1="519.85"
       id="c-5">
      <stop
         id="stop12"
         stop-color="#4d4d4d" />
      <stop
         id="stop14"
         stop-color="#31363b"
         offset="1" />
    </linearGradient>
    <linearGradient
       gradientUnits="userSpaceOnUse"
       x2="422.73"
       y2="537.95"
       x1="394.57"
       y1="509.8"
       id="d-3">
      <stop
         id="stop17"
         stop-color="#e5e7e8" />
      <stop
         id="stop19"
         stop-color="#dcdee0"
         offset="1" />
    </linearGradient>
    <linearGradient
       gradientTransform="matrix(0.70711,0.70711,-0.70711,0.70711,105.48,-635.29)"
       gradientUnits="userSpaceOnUse"
       x2="427.57"
       x1="389.57"
       id="e">
      <stop
         id="stop22"
         stop-color="#fcfcfc" />
      <stop
         id="stop24"
         stop-color="#eff0f1"
         offset="1" />
    </linearGradient>
    <linearGradient
       gradientTransform="translate(-444.75968,-516.38672)"
       x2="799.04"
       gradientUnits="userSpaceOnUse"
       y2="160.66"
       x1="771.7"
       y1="133.33"
       id="f"
       xlink:href="#d-3" />
    <linearGradient
       gradientTransform="matrix(0.49677,0,0,0.76923,-191.25657,-404.02657)"
       x2="0"
       gradientUnits="userSpaceOnUse"
       y2="528.8"
       y1="551.8"
       id="g">
      <stop
         id="stop28"
         stop-color="#c6cdd1" />
      <stop
         id="stop30"
         stop-color="#e0e5e7"
         offset="1" />
    </linearGradient>
    <linearGradient
       gradientTransform="matrix(0.61141,0,0,0.76923,-238.90657,-386.33657)"
       x2="0"
       gradientUnits="userSpaceOnUse"
       y2="505.8"
       y1="557.8"
       id="h">
      <stop
         id="stop33"
         stop-color="#42a603" />
      <stop
         id="stop35"
         stop-color="#78da06"
         offset="1" />
    </linearGradient>
    <linearGradient
       gradientTransform="matrix(1.5625 0 0 1.53847-227.95-292.82)"
       gradientUnits="userSpaceOnUse"
       x2="400.57"
       x1="398.57"
       id="i">
      <stop
         id="stop38"
         stop-color="#faae2a" />
      <stop
         id="stop40"
         stop-color="#ffc35a"
         offset="1" />
    </linearGradient>
    <linearGradient
       gradientTransform="matrix(1.5625,0,0,1.53847,-604.39657,-793.87657)"
       x2="400.57"
       gradientUnits="userSpaceOnUse"
       x1="398.57"
       id="j"
       xlink:href="#i" />
    <linearGradient
       gradientTransform="matrix(1.1580635,0,0,1.4383458,-439.42451,-734.17514)"
       gradientUnits="userSpaceOnUse"
       x2="390.65"
       y2="529.73"
       x1="410.5"
       y1="539.88"
       id="k">
      <stop
         id="stop44"
         stop-color="#bcfd93" />
      <stop
         id="stop46"
         stop-color="#fafff5"
         offset="1" />
    </linearGradient>
    <linearGradient
       gradientTransform="matrix(1,0,0,1.0440589,7.9999935,-1.176223)"
       gradientUnits="userSpaceOnUse"
       x2="34.19"
       y2="54.612"
       x1="14.187"
       y1="34.612"
       id="l">
      <stop
         id="stop49"
         stop-color="#383e51" />
      <stop
         id="stop51"
         stop-opacity="0"
         stop-color="#655c6f"
         offset="1" />
    </linearGradient>
    <linearGradient
       gradientTransform="matrix(0.61141,0,0,0.76923,-238.90657,-386.33657)"
       x2="0"
       gradientUnits="userSpaceOnUse"
       y2="505.79999"
       y1="557.79999"
       id="h-7">
      <stop
         id="stop33-5"
         stop-color="#42a603" />
      <stop
         id="stop35-3"
         stop-color="#78da06"
         offset="1" />
    </linearGradient>
    <linearGradient
       gradientTransform="matrix(0.49677,0,0,0.76923,-191.25657,-404.02657)"
       x2="0"
       gradientUnits="userSpaceOnUse"
       y2="528.79999"
       y1="551.79999"
       id="g-5">
      <stop
         id="stop28-6"
         stop-color="#c6cdd1" />
      <stop
         id="stop30-2"
         stop-color="#e0e5e7"
         offset="1" />
    </linearGradient>
    <linearGradient
       gradientTransform="matrix(1.5625,0,0,1.53847,-227.95,-292.82)"
       gradientUnits="userSpaceOnUse"
       x2="400.57001"
       x1="398.57001"
       id="i-9">
      <stop
         id="stop38-1"
         stop-color="#faae2a" />
      <stop
         id="stop40-2"
         stop-color="#ffc35a"
         offset="1" />
    </linearGradient>
    <linearGradient
       gradientTransform="matrix(1.5625,0,0,1.53847,-604.39657,-793.87657)"
       x2="400.57001"
       gradientUnits="userSpaceOnUse"
       x1="398.57001"
       id="j-7"
       xlink:href="#i-9" />
    <linearGradient
       gradientTransform="matrix(1.5625,0,0,1.53847,-227.95,-292.82)"
       gradientUnits="userSpaceOnUse"
       x2="400.57001"
       x1="398.57001"
       id="linearGradient1040">
      <stop
         id="stop1036"
         stop-color="#faae2a" />
      <stop
         id="stop1038"
         stop-color="#ffc35a"
         offset="1" />
    </linearGradient>
    <linearGradient
       gradientTransform="matrix(0.61141,0,0,0.80312143,-229.65001,-403.22242)"
       x2="0"
       gradientUnits="userSpaceOnUse"
       y2="505.79999"
       y1="557.79999"
       id="h-7-6">
      <stop
         id="stop33-5-1"
         stop-color="#42a603" />
      <stop
         id="stop35-3-8"
         stop-color="#78da06"
         offset="1" />
    </linearGradient>
    <linearGradient
       gradientTransform="matrix(0.49677,0,0,0.80312143,-182.00001,-421.69183)"
       x2="0"
       gradientUnits="userSpaceOnUse"
       y2="528.79999"
       y1="551.79999"
       id="g-5-7">
      <stop
         id="stop28-6-9"
         stop-color="#c6cdd1" />
      <stop
         id="stop30-2-2"
         stop-color="#e0e5e7"
         offset="1" />
    </linearGradient>
    <linearGradient
       gradientTransform="matrix(1.5625,0,0,1.53847,-227.95,-292.82)"
       gradientUnits="userSpaceOnUse"
       x2="400.57001"
       x1="398.57001"
       id="i-9-0">
      <stop
         id="stop38-1-2"
         stop-color="#faae2a" />
      <stop
         id="stop40-2-3"
         stop-color="#ffc35a"
         offset="1" />
    </linearGradient>
    <linearGradient
       gradientTransform="matrix(1.5625,0,0,1.6062533,-595.14001,-828.71819)"
       x2="400.57001"
       gradientUnits="userSpaceOnUse"
       x1="398.57001"
       id="j-7-7"
       xlink:href="#i-9-0" />
    <linearGradient
       gradientTransform="matrix(1.5625,0,0,1.53847,-227.95,-292.82)"
       gradientUnits="userSpaceOnUse"
       x2="400.57001"
       x1="398.57001"
       id="linearGradient1181">
      <stop
         id="stop1177"
         stop-color="#faae2a" />
      <stop
         id="stop1179"
         stop-color="#ffc35a"
         offset="1" />
    </linearGradient>
    <linearGradient
       xlink:href="#linearGradient4793"
       id="linearGradient2100"
       x1="24"
       y1="46"
       x2="23.178896"
       y2="14.592526"
       gradientUnits="userSpaceOnUse"
       gradientTransform="matrix(1,0,0,0.99809762,-41.629865,-1.1746768)" />
    <linearGradient
       id="linearGradient4793">
      <stop
         style="stop-color:#54b60f;stop-opacity:1"
         offset="0"
         id="stop4795" />
      <stop
         style="stop-color:#92dc41;stop-opacity:1"
         offset="1"
         id="stop4797" />
    </linearGradient>
  </defs>
  <sodipodi:namedview
     pagecolor="#ffffff"
     bordercolor="#666666"
     borderopacity="1"
     objecttolerance="10"
     gridtolerance="10"
     guidetolerance="10"
     inkscape:pageopacity="0"
     inkscape:pageshadow="2"
     inkscape:window-width="1366"
     inkscape:window-height="695"
     id="namedview28"
     showgrid="false"
     inkscape:zoom="4.9166667"
     inkscape:cx="-35.59322"
     inkscape:cy="24.205476"
     inkscape:window-x="0"
     inkscape:window-y="0"
     inkscape:window-maximized="1"
     inkscape:current-layer="svg26" />
  <linearGradient
     id="a"
     gradientTransform="matrix(0 -1 1 0 -.000002 47.999998)"
     gradientUnits="userSpaceOnUse"
     x1="1"
     x2="47">
    <stop
       offset="0"
       stop-color="#2e2e2e"
       id="stop2" />
    <stop
       offset="1"
       stop-color="#505050"
       id="stop4" />
  </linearGradient>
  <linearGradient
     id="b"
     gradientUnits="userSpaceOnUse"
     x1="197.88585"
     x2="183.32736"
     y1="364.75723"
     y2="12.945999">
    <stop
       offset="0"
       stop-color="#197cf1"
       id="stop7" />
    <stop
       offset="1"
       stop-color="#20bcfa"
       id="stop9" />
  </linearGradient>
  <linearGradient
     id="c"
     gradientUnits="userSpaceOnUse"
     x1="172.17424"
     x2="172.17424"
     xlink:href="#a"
     y1="352.17371"
     y2="12.945999" />
  <linearGradient
     id="d"
     gradientUnits="userSpaceOnUse"
     x1="197.88585"
     x2="183.32736"
     xlink:href="#a"
     y1="364.75723"
     y2="12.945999" />
  <g
     transform="matrix(1.0031785,0,0,1.0019052,25.701026,5.9776632)"
     style="display:inline"
     id="layer2" />
  <g
     transform="matrix(1.0031785,0,0,1.0019052,25.701026,5.9776632)"
     style="display:inline"
     id="layer1" />
  <path
     id="path983"
     d="m 23.997513,2.0000127 c -0.776247,0 -1.551346,0.2401291 -2.204788,0.7191455 v -0.00177 C 19.979262,4.0449742 14.156207,7.8133309 7.426436,8.4463462 5.2560743,8.6494904 3.5438413,10.508232 3.5058619,12.704171 v 0.0018 0.0035 c -0.048082,3.155132 0.1471553,9.942491 2.6285865,16.778908 2.4814313,6.836417 7.5253526,13.872192 16.7529496,16.364015 l 0.0018,0.0018 h 0.0018 c 0.725132,0.194454 1.488234,0.194454 2.213366,0 h 0.0018 l 0.0018,-0.0018 c 9.227956,-2.4897 14.271059,-9.525494 16.752949,-16.362287 2.48128,-6.83511 2.679562,-13.621254 2.633735,-16.77545 -0.02867,-2.210376 -1.751781,-4.0659137 -3.922291,-4.2681976 l -0.0034,-0.00177 C 33.844623,7.8109031 28.028734,4.0515251 26.204395,2.7191119 25.550954,2.2400956 24.774139,1.9999665 23.997893,1.9999665 Z"
     style="color:#000000;font-style:normal;font-variant:normal;font-weight:normal;font-stretch:normal;font-size:medium;line-height:normal;font-family:sans-serif;font-variant-ligatures:normal;font-variant-position:normal;font-variant-caps:normal;font-variant-numeric:normal;font-variant-alternates:normal;font-feature-settings:normal;text-indent:0;text-align:start;text-decoration:none;text-decoration-line:none;text-decoration-style:solid;text-decoration-color:#000000;letter-spacing:normal;word-spacing:normal;text-transform:none;writing-mode:lr-tb;direction:ltr;text-orientation:mixed;dominant-baseline:auto;baseline-shift:baseline;text-anchor:start;white-space:normal;shape-padding:0;clip-rule:nonzero;display:inline;overflow:visible;visibility:visible;opacity:1;isolation:auto;mix-blend-mode:normal;color-interpolation:sRGB;color-interpolation-filters:linearRGB;solid-color:#000000;solid-opacity:1;vector-effect:none;fill:#333333;fill-opacity:1;fill-rule:nonzero;stroke:none;stroke-width:5.11436176;stroke-linecap:butt;stroke-linejoin:miter;stroke-miterlimit:4;stroke-dasharray:none;stroke-dashoffset:0;stroke-opacity:1;color-rendering:auto;image-rendering:auto;shape-rendering:auto;text-rendering:auto;enable-background:accumulate"
     inkscape:connector-curvature="0" />
  <path
     inkscape:connector-curvature="0"
     d="m 41.946724,12.748564 c -0.01182,-0.911101 -0.709053,-1.66375 -1.611086,-1.746978 -7.496263,-0.705113 -13.613852,-4.7337669 -15.630674,-6.2073742 -0.421493,-0.3089829 -0.992674,-0.3089829 -1.414166,0 -2.012923,1.4736073 -8.130472,5.5022612 -15.6267351,6.2073742 -0.9020722,0.08323 -1.5953678,0.835877 -1.6111257,1.746978 -0.090597,5.945928 0.8587418,26.132729 17.4939078,30.624897 0.295438,0.07923 0.606634,0.07923 0.902072,0 16.635166,-4.488167 17.584469,-24.679007 17.497807,-30.624897 z"
     id="path977"
     style="fill:#ffffff;fill-opacity:1;stroke-width:0.37576327" />
  <g
     transform="matrix(0.87848322,0,0,0.88510207,2.9763051,2.6758263)"
     style="display:inline"
     id="layer2-3" />
  <g
     transform="matrix(0.87848322,0,0,0.88510207,2.9763051,2.6758263)"
     style="display:inline"
     id="layer1-6" />
  <path
     style="fill:#333333;fill-opacity:1;stroke-width:0.33242476"
     id="path1036"
     d="m 39.876804,14.045976 c -0.01045,-0.80602 -0.627274,-1.471863 -1.425271,-1.545491 -6.631686,-0.62379 -12.043705,-4.1878003 -13.827917,-5.4914499 -0.372881,-0.2733465 -0.878185,-0.2733465 -1.251065,0 -1.780763,1.3036496 -7.192747,4.8676599 -13.8244326,5.4914499 -0.7980315,0.07363 -1.4113668,0.739471 -1.425307,1.545491 -0.080144,5.260157 0.7596991,23.118722 15.4762566,27.092787 0.261364,0.07009 0.536668,0.07009 0.798031,0 14.716556,-3.970525 15.556372,-21.832664 15.479705,-27.092787 z"
     inkscape:connector-curvature="0" />
  <path
     inkscape:connector-curvature="0"
     id="path9"
     d="m 23.205352,12.108618 c -0.205092,-0.02348 -0.417286,0.01017 -0.610847,0.102922 -0.387026,0.185509 -0.63325,0.576562 -0.63325,1.00535 v 8.007007 L 18.621757,18.52705 c -0.479361,-0.387021 -1.182071,-0.313377 -1.569682,0.16557 -0.387612,0.478851 -0.313679,1.182063 0.165779,1.569183 l 4.629894,3.737995 -4.629894,3.737995 c -0.479458,0.387119 -0.553391,1.088842 -0.165779,1.567691 0.220626,0.272555 0.543756,0.41467 0.869224,0.41467 0.24652,0 0.493902,-0.08233 0.700458,-0.2491 L 21.961255,26.7757 v 8.004023 c 0,0.428788 0.246224,0.819841 0.63325,1.005351 0.153696,0.07358 0.319747,0.108888 0.483898,0.108888 0.249256,10e-7 0.495507,-0.08293 0.697471,-0.244625 l 7.001593,-5.605502 c 0.264302,-0.211661 0.418184,-0.531286 0.418184,-0.869613 0,-0.338327 -0.153882,-0.658049 -0.418184,-0.869614 l -5.378143,-4.306301 5.378143,-4.306302 c 0.264302,-0.211662 0.418184,-0.531384 0.418184,-0.869614 0,-0.338229 -0.153882,-0.658048 -0.418184,-0.869613 L 23.775874,12.347277 C 23.6084,12.213195 23.410443,12.132099 23.205352,12.108618 Z m 0.988706,3.430722 4.099695,3.283051 -4.099695,3.28156 z m 0,10.351831 4.099695,3.283051 -4.099695,3.28156 z"
     style="fill:#999999;fill-opacity:1;stroke-width:0.09764697" />
</svg>
