<?xml version="1.0" encoding="UTF-8" standalone="no"?>
<svg
   xmlns:dc="http://purl.org/dc/elements/1.1/"
   xmlns:cc="http://creativecommons.org/ns#"
   xmlns:rdf="http://www.w3.org/1999/02/22-rdf-syntax-ns#"
   xmlns:svg="http://www.w3.org/2000/svg"
   xmlns="http://www.w3.org/2000/svg"
   xmlns:xlink="http://www.w3.org/1999/xlink"
   xmlns:sodipodi="http://sodipodi.sourceforge.net/DTD/sodipodi-0.dtd"
   xmlns:inkscape="http://www.inkscape.org/namespaces/inkscape"
   height="48"
   width="48"
   version="1.1"
   id="svg25"
   sodipodi:docname="bluetooth-inactive.svg"
   inkscape:version="0.92.2 2405546, 2018-03-11">
  <metadata
     id="metadata31">
    <rdf:RDF>
      <cc:Work
         rdf:about="">
        <dc:format>image/svg+xml</dc:format>
        <dc:type
           rdf:resource="http://purl.org/dc/dcmitype/StillImage" />
      </cc:Work>
    </rdf:RDF>
  </metadata>
  <defs
     id="defs29">
    <linearGradient
       id="a-3"
       y1="525.26"
       x1="395.91"
       y2="513.95"
       x2="425.21"
       gradientUnits="userSpaceOnUse"
       gradientTransform="translate(-419.00001,-506.71113)">
      <stop
         stop-color="#da4453"
         id="stop2-6" />
      <stop
         offset="1"
         stop-color="#ff7336"
         id="stop4-7" />
    </linearGradient>
    <linearGradient
       id="b"
       y1="44.09"
       x1="26.362"
       y2="33.75"
       x2="44"
       gradientUnits="userSpaceOnUse">
      <stop
         stop-color="#c0392b"
         id="stop7" />
      <stop
         offset="1"
         stop-color="#c0392b"
         stop-opacity="0"
         id="stop9" />
    </linearGradient>
    <linearGradient
       id="c"
       y1="519.85"
       x1="388.57"
       y2="528.52"
       x2="398.82"
       gradientUnits="userSpaceOnUse">
      <stop
         stop-color="#4d4d4d"
         id="stop12" />
      <stop
         offset="1"
         stop-color="#31363b"
         id="stop14" />
    </linearGradient>
    <linearGradient
       id="d"
       y1="509.8"
       x1="394.57"
       y2="537.95"
       x2="422.73"
       gradientUnits="userSpaceOnUse">
      <stop
         stop-color="#e5e7e8"
         id="stop17" />
      <stop
         offset="1"
         stop-color="#dcdee0"
         id="stop19" />
    </linearGradient>
    <linearGradient
       id="e"
       x1="389.57"
       x2="427.57"
       gradientUnits="userSpaceOnUse"
       gradientTransform="matrix(0.70711,0.70711,-0.70711,0.70711,105.48,-635.29)">
      <stop
         stop-color="#fcfcfc"
         id="stop22" />
      <stop
         offset="1"
         stop-color="#eff0f1"
         id="stop24" />
    </linearGradient>
    <linearGradient
       xlink:href="#d"
       id="f"
       y1="133.33"
       x1="771.7"
       y2="160.66"
       gradientUnits="userSpaceOnUse"
       x2="799.04"
       gradientTransform="translate(-444.75968,-516.38672)" />
    <linearGradient
       id="g"
       y1="551.8"
       y2="528.8"
       gradientUnits="userSpaceOnUse"
       x2="0"
       gradientTransform="matrix(0.49677,0,0,0.76923,-191.25657,-404.02657)">
      <stop
         stop-color="#c6cdd1"
         id="stop28" />
      <stop
         offset="1"
         stop-color="#e0e5e7"
         id="stop30" />
    </linearGradient>
    <linearGradient
       id="h"
       y1="557.8"
       y2="505.8"
       gradientUnits="userSpaceOnUse"
       x2="0"
       gradientTransform="matrix(0.61141,0,0,0.76923,-238.90657,-386.33657)">
      <stop
         stop-color="#42a603"
         id="stop33" />
      <stop
         offset="1"
         stop-color="#78da06"
         id="stop35" />
    </linearGradient>
    <linearGradient
       id="i"
       x1="398.57"
       x2="400.57"
       gradientUnits="userSpaceOnUse"
       gradientTransform="matrix(1.5625 0 0 1.53847-227.95-292.82)">
      <stop
         stop-color="#faae2a"
         id="stop38" />
      <stop
         offset="1"
         stop-color="#ffc35a"
         id="stop40" />
    </linearGradient>
    <linearGradient
       xlink:href="#i"
       id="j"
       x1="398.57"
       gradientUnits="userSpaceOnUse"
       x2="400.57"
       gradientTransform="matrix(1.5625,0,0,1.53847,-604.39657,-793.87657)" />
    <linearGradient
       id="k"
       y1="539.88"
       x1="410.5"
       y2="529.73"
       x2="390.65"
       gradientUnits="userSpaceOnUse"
       gradientTransform="matrix(1.1580635,0,0,1.4383458,-439.42451,-734.17514)">
      <stop
         stop-color="#bcfd93"
         id="stop44" />
      <stop
         offset="1"
         stop-color="#fafff5"
         id="stop46" />
    </linearGradient>
    <linearGradient
       id="l"
       y1="34.612"
       x1="14.187"
       y2="54.612"
       x2="34.19"
       gradientUnits="userSpaceOnUse"
       gradientTransform="matrix(1,0,0,1.0440589,7.9999935,-1.176223)">
      <stop
         stop-color="#383e51"
         id="stop49" />
      <stop
         offset="1"
         stop-color="#655c6f"
         stop-opacity="0"
         id="stop51" />
    </linearGradient>
    <linearGradient
       id="h-7"
       y1="557.79999"
       y2="505.79999"
       gradientUnits="userSpaceOnUse"
       x2="0"
       gradientTransform="matrix(0.61141,0,0,0.76923,-238.90657,-386.33657)">
      <stop
         stop-color="#42a603"
         id="stop33-5" />
      <stop
         offset="1"
         stop-color="#78da06"
         id="stop35-3" />
    </linearGradient>
    <linearGradient
       id="g-5"
       y1="551.79999"
       y2="528.79999"
       gradientUnits="userSpaceOnUse"
       x2="0"
       gradientTransform="matrix(0.49677,0,0,0.76923,-191.25657,-404.02657)">
      <stop
         stop-color="#c6cdd1"
         id="stop28-6" />
      <stop
         offset="1"
         stop-color="#e0e5e7"
         id="stop30-2" />
    </linearGradient>
    <linearGradient
       id="i-9"
       x1="398.57001"
       x2="400.57001"
       gradientUnits="userSpaceOnUse"
       gradientTransform="matrix(1.5625,0,0,1.53847,-227.95,-292.82)">
      <stop
         stop-color="#faae2a"
         id="stop38-1" />
      <stop
         offset="1"
         stop-color="#ffc35a"
         id="stop40-2" />
    </linearGradient>
    <linearGradient
       xlink:href="#i-9"
       id="j-7"
       x1="398.57001"
       gradientUnits="userSpaceOnUse"
       x2="400.57001"
       gradientTransform="matrix(1.5625,0,0,1.53847,-604.39657,-793.87657)" />
    <linearGradient
       id="linearGradient1040"
       x1="398.57001"
       x2="400.57001"
       gradientUnits="userSpaceOnUse"
       gradientTransform="matrix(1.5625,0,0,1.53847,-227.95,-292.82)">
      <stop
         stop-color="#faae2a"
         id="stop1036" />
      <stop
         offset="1"
         stop-color="#ffc35a"
         id="stop1038" />
    </linearGradient>
    <linearGradient
       id="h-7-6"
       y1="557.79999"
       y2="505.79999"
       gradientUnits="userSpaceOnUse"
       x2="0"
       gradientTransform="matrix(0.61141,0,0,0.80312143,-229.65001,-403.22242)">
      <stop
         stop-color="#42a603"
         id="stop33-5-1" />
      <stop
         offset="1"
         stop-color="#78da06"
         id="stop35-3-8" />
    </linearGradient>
    <linearGradient
       id="g-5-7"
       y1="551.79999"
       y2="528.79999"
       gradientUnits="userSpaceOnUse"
       x2="0"
       gradientTransform="matrix(0.49677,0,0,0.80312143,-182.00001,-421.69183)">
      <stop
         stop-color="#c6cdd1"
         id="stop28-6-9" />
      <stop
         offset="1"
         stop-color="#e0e5e7"
         id="stop30-2-2" />
    </linearGradient>
    <linearGradient
       id="i-9-0"
       x1="398.57001"
       x2="400.57001"
       gradientUnits="userSpaceOnUse"
       gradientTransform="matrix(1.5625,0,0,1.53847,-227.95,-292.82)">
      <stop
         stop-color="#faae2a"
         id="stop38-1-2" />
      <stop
         offset="1"
         stop-color="#ffc35a"
         id="stop40-2-3" />
    </linearGradient>
    <linearGradient
       xlink:href="#i-9-0"
       id="j-7-7"
       x1="398.57001"
       gradientUnits="userSpaceOnUse"
       x2="400.57001"
       gradientTransform="matrix(1.5625,0,0,1.6062533,-595.14001,-828.71819)" />
    <linearGradient
       id="linearGradient1181"
       x1="398.57001"
       x2="400.57001"
       gradientUnits="userSpaceOnUse"
       gradientTransform="matrix(1.5625,0,0,1.53847,-227.95,-292.82)">
      <stop
         stop-color="#faae2a"
         id="stop1177" />
      <stop
         offset="1"
         stop-color="#ffc35a"
         id="stop1179" />
    </linearGradient>
    <linearGradient
       gradientTransform="matrix(1,0,0,0.99809762,-41.629865,-1.1746768)"
       gradientUnits="userSpaceOnUse"
       y2="14.592526"
       x2="23.178896"
       y1="46"
       x1="24"
       id="linearGradient2100"
       xlink:href="#linearGradient4793" />
    <linearGradient
       id="linearGradient4793">
      <stop
         id="stop4795"
         offset="0"
         style="stop-color:#54b60f;stop-opacity:1" />
      <stop
         id="stop4797"
         offset="1"
         style="stop-color:#92dc41;stop-opacity:1" />
    </linearGradient>
  </defs>
  <sodipodi:namedview
     pagecolor="#ffffff"
     bordercolor="#666666"
     borderopacity="1"
     objecttolerance="10"
     gridtolerance="10"
     guidetolerance="10"
     inkscape:pageopacity="0"
     inkscape:pageshadow="2"
     inkscape:window-width="1366"
     inkscape:window-height="695"
     id="namedview27"
     showgrid="false"
     inkscape:zoom="4.9166667"
     inkscape:cx="-5.7966102"
     inkscape:cy="24"
     inkscape:window-x="0"
     inkscape:window-y="0"
     inkscape:window-maximized="1"
     inkscape:current-layer="svg25" />
  <linearGradient
     gradientUnits="userSpaceOnUse"
     x1="197.88585"
     x2="183.32736"
     y1="364.75723"
     y2="12.945999"
     id="linearGradient6">
    <stop
       offset="0"
       stop-color="#197cf1"
       id="stop2" />
    <stop
       offset="1"
       stop-color="#20bcfa"
       id="stop4" />
  </linearGradient>
  <linearGradient
     id="a"
     gradientUnits="userSpaceOnUse"
     x1="197.88585"
     x2="183.32736"
     y1="364.75723"
     y2="12.945999">
    <stop
       offset="0"
       stop-color="#6c6d6e"
       id="stop8" />
    <stop
       offset="1"
       stop-color="#9b9c9e"
       id="stop10" />
  </linearGradient>
  <g
     transform="matrix(1.0031785,0,0,1.0019052,25.701015,5.9776964)"
     style="display:inline"
     id="layer2" />
  <g
     transform="matrix(1.0031785,0,0,1.0019052,25.701015,5.9776964)"
     style="display:inline"
     id="layer1" />
  <path
     id="path983"
     d="m 23.997502,2.0000459 c -0.776247,0 -1.551346,0.2401291 -2.204788,0.7191455 V 2.717418 C 19.979251,4.0450074 14.156196,7.8133641 7.4264247,8.4463793 5.256063,8.6495235 3.54383,10.508265 3.5058506,12.704204 v 0.0018 0.0035 c -0.048082,3.155132 0.1471553,9.942491 2.6285865,16.778908 2.4814313,6.836417 7.5253529,13.872192 16.7529499,16.364015 l 0.0018,0.0018 h 0.0018 c 0.725132,0.194454 1.488234,0.194454 2.213366,0 h 0.0018 l 0.0018,-0.0018 c 9.227956,-2.4897 14.271059,-9.525494 16.752949,-16.362287 2.48128,-6.83511 2.679562,-13.621254 2.633735,-16.77545 -0.02867,-2.210376 -1.751781,-4.0659136 -3.922291,-4.2681975 l -0.0034,-0.00177 C 33.844612,7.8109363 28.028723,4.0515583 26.204384,2.7191451 25.550943,2.2401287 24.774128,1.9999996 23.997882,1.9999996 Z"
     style="color:#000000;font-style:normal;font-variant:normal;font-weight:normal;font-stretch:normal;font-size:medium;line-height:normal;font-family:sans-serif;font-variant-ligatures:normal;font-variant-position:normal;font-variant-caps:normal;font-variant-numeric:normal;font-variant-alternates:normal;font-feature-settings:normal;text-indent:0;text-align:start;text-decoration:none;text-decoration-line:none;text-decoration-style:solid;text-decoration-color:#000000;letter-spacing:normal;word-spacing:normal;text-transform:none;writing-mode:lr-tb;direction:ltr;text-orientation:mixed;dominant-baseline:auto;baseline-shift:baseline;text-anchor:start;white-space:normal;shape-padding:0;clip-rule:nonzero;display:inline;overflow:visible;visibility:visible;opacity:1;isolation:auto;mix-blend-mode:normal;color-interpolation:sRGB;color-interpolation-filters:linearRGB;solid-color:#000000;solid-opacity:1;vector-effect:none;fill:#808080;fill-opacity:1;fill-rule:nonzero;stroke:none;stroke-width:5.11436176;stroke-linecap:butt;stroke-linejoin:miter;stroke-miterlimit:4;stroke-dasharray:none;stroke-dashoffset:0;stroke-opacity:1;color-rendering:auto;image-rendering:auto;shape-rendering:auto;text-rendering:auto;enable-background:accumulate"
     inkscape:connector-curvature="0" />
  <path
     inkscape:connector-curvature="0"
     d="M 41.946713,12.748597 C 41.934895,11.837496 41.23766,11.084847 40.335627,11.001619 32.839364,10.296506 26.721775,6.2678523 24.704953,4.794245 c -0.421493,-0.3089829 -0.992674,-0.3089829 -1.414166,0 -2.012923,1.4736073 -8.130472,5.502261 -15.6267354,6.207374 -0.9020722,0.08323 -1.5953678,0.835877 -1.6111257,1.746978 -0.090597,5.945928 0.8587418,26.132729 17.4939081,30.624897 0.295438,0.07923 0.606634,0.07923 0.902072,0 16.635166,-4.488167 17.584469,-24.679007 17.497807,-30.624897 z"
     id="path977"
     style="fill:#ffffff;fill-opacity:1;stroke-width:0.37576327" />
  <g
     transform="matrix(0.87848322,0,0,0.88510207,2.9762938,2.6758594)"
     style="display:inline"
     id="layer2-3" />
  <g
     transform="matrix(0.87848322,0,0,0.88510207,2.9762938,2.6758594)"
     style="display:inline"
     id="layer1-6" />
  <path
     style="fill:#999999;fill-opacity:1;stroke-width:0.33242476"
     id="path1036"
     d="m 39.876793,14.046009 c -0.01045,-0.80602 -0.627274,-1.471863 -1.425271,-1.545491 -6.631686,-0.62379 -12.043705,-4.1878002 -13.827917,-5.4914497 -0.372881,-0.2733465 -0.878185,-0.2733465 -1.251065,0 -1.780763,1.3036495 -7.192747,4.8676597 -13.8244329,5.4914497 -0.7980315,0.07363 -1.4113668,0.739471 -1.425307,1.545491 -0.080144,5.260157 0.7596991,23.118722 15.4762569,27.092787 0.261364,0.07009 0.536668,0.07009 0.798031,0 C 39.113644,37.168271 39.95346,19.306132 39.876793,14.046009 Z"
     inkscape:connector-curvature="0" />
  <path
     inkscape:connector-curvature="0"
     id="path9"
     d="m 23.205341,12.108651 c -0.205092,-0.02348 -0.417286,0.01017 -0.610847,0.102922 -0.387026,0.185509 -0.63325,0.576562 -0.63325,1.00535 v 8.007007 l -3.339498,-2.696847 c -0.479361,-0.387021 -1.182071,-0.313377 -1.569682,0.16557 -0.387612,0.478851 -0.313679,1.182063 0.165779,1.569183 l 4.629894,3.737995 -4.629894,3.737995 c -0.479458,0.387119 -0.553391,1.088842 -0.165779,1.567691 0.220626,0.272555 0.543756,0.41467 0.869224,0.41467 0.24652,0 0.493902,-0.08233 0.700458,-0.2491 l 3.339498,-2.695354 v 8.004023 c 0,0.428788 0.246224,0.819841 0.63325,1.005351 0.153696,0.07358 0.319747,0.108888 0.483898,0.108888 0.249256,1e-6 0.495507,-0.08293 0.697471,-0.244625 l 7.001593,-5.605502 c 0.264302,-0.211661 0.418184,-0.531286 0.418184,-0.869613 0,-0.338327 -0.153882,-0.658049 -0.418184,-0.869614 l -5.378143,-4.306301 5.378143,-4.306302 c 0.264302,-0.211662 0.418184,-0.531384 0.418184,-0.869614 0,-0.338229 -0.153882,-0.658048 -0.418184,-0.869613 L 23.775863,12.34731 c -0.167474,-0.134082 -0.365431,-0.215178 -0.570522,-0.238659 z m 0.988706,3.430722 4.099695,3.283051 -4.099695,3.28156 z m 0,10.351831 4.099695,3.283051 -4.099695,3.28156 z"
     style="fill:#ffffff;fill-opacity:1;stroke-width:0.09764697" />
</svg>
