<?xml version="1.0" encoding="UTF-8" standalone="no"?>
<svg
   xmlns:dc="http://purl.org/dc/elements/1.1/"
   xmlns:cc="http://creativecommons.org/ns#"
   xmlns:rdf="http://www.w3.org/1999/02/22-rdf-syntax-ns#"
   xmlns:svg="http://www.w3.org/2000/svg"
   xmlns="http://www.w3.org/2000/svg"
   xmlns:xlink="http://www.w3.org/1999/xlink"
   width="64"
   height="64"
   viewBox="0 0 64 64.000003"
   id="svg2"
   version="1.1">
  <defs
     id="defs4">
    <linearGradient
       gradientTransform="translate(-1 1)"
       gradientUnits="userSpaceOnUse"
       x2="409.57"
       x1="425.57"
       id="a"
       spreadMethod="reflect">
      <stop
         id="stop838"
         stop-color="#2f3943" />
      <stop
         id="stop840"
         stop-color="#808c9b"
         offset="1" />
    </linearGradient>
    <linearGradient
       gradientTransform="translate(383.57 500.8)"
       gradientUnits="userSpaceOnUse"
       x2="25"
       x1="41"
       id="b"
       spreadMethod="reflect">
      <stop
         id="stop843"
         stop-color="#197cf1" />
      <stop
         id="stop845"
         stop-color="#21c9fb"
         offset="1" />
    </linearGradient>
    <linearGradient
       gradientTransform="translate(-384.57,-499.8)"
       gradientUnits="userSpaceOnUse"
       x2="0"
       y2="502.8"
       y1="528.8"
       id="c"
       xlink:href="#a" />
    <linearGradient
       gradientUnits="userSpaceOnUse"
       x2="0"
       y2="502.8"
       y1="528.8"
       id="d"
       xlink:href="#a" />
    <linearGradient
       gradientUnits="userSpaceOnUse"
       x2="0"
       y2="501.8"
       y1="512.8"
       id="e"
       xlink:href="#a" />
    <linearGradient
       gradientUnits="userSpaceOnUse"
       x2="416.57"
       y2="503.8"
       x1="416.83"
       y1="514.1"
       id="f"
       xlink:href="#b" />
    <linearGradient
       gradientUnits="userSpaceOnUse"
       x2="411.76"
       y2="523.67"
       x1="406.82"
       y1="518.74"
       id="g">
      <stop
         id="stop852"
         stop-color="#18222a" />
      <stop
         id="stop854"
         stop-color="#566069"
         offset="1" />
    </linearGradient>
    <linearGradient
       gradientTransform="translate(384.57 499.8)"
       gradientUnits="userSpaceOnUse"
       x2="25"
       y2="37"
       x1="19"
       y1="31"
       id="h">
      <stop
         id="stop857" />
      <stop
         id="stop859"
         stop-opacity="0"
         offset="1" />
    </linearGradient>
    <linearGradient
       gradientUnits="userSpaceOnUse"
       x2="27"
       y2="15"
       x1="23"
       y1="9"
       id="i"
       xlink:href="#h" />
    <linearGradient
       gradientUnits="userSpaceOnUse"
       x2="414.57"
       y2="516.8"
       x1="421.57"
       y1="506.8"
       id="j">
      <stop
         id="stop863"
         stop-color="#18222a" />
      <stop
         id="stop865"
         stop-opacity="0"
         stop-color="#18222a"
         offset="1" />
    </linearGradient>
    <linearGradient
       gradientUnits="userSpaceOnUse"
       x2="405.23"
       y2="524.45"
       x1="400.07"
       y1="519.3"
       id="k"
       xlink:href="#g" />
    <linearGradient
       gradientUnits="userSpaceOnUse"
       x2="424.85"
       y2="513.52"
       x1="420.95"
       y1="509.61"
       id="l"
       xlink:href="#j" />
    <linearGradient
       gradientUnits="userSpaceOnUse"
       x2="411.57"
       y2="519.3"
       x1="423.57"
       y1="527.8"
       id="m"
       xlink:href="#b" />
    <linearGradient
       gradientUnits="userSpaceOnUse"
       x2="392.13"
       y2="524.07"
       x1="410.71"
       y1="513.03"
       id="n"
       xlink:href="#b" />
    <linearGradient
       xlink:href="#g"
       id="linearGradient961"
       gradientUnits="userSpaceOnUse"
       x1="406.82"
       y1="518.74"
       x2="411.76"
       y2="523.67" />
    <linearGradient
       xlink:href="#h"
       id="linearGradient963"
       gradientUnits="userSpaceOnUse"
       gradientTransform="translate(384.57,499.8)"
       x1="19"
       y1="31"
       x2="25"
       y2="37" />
    <linearGradient
       xlink:href="#a"
       id="linearGradient965"
       gradientUnits="userSpaceOnUse"
       gradientTransform="translate(-1,1)"
       x1="425.57"
       x2="409.57"
       spreadMethod="reflect" />
    <linearGradient
       xlink:href="#b"
       id="linearGradient967"
       gradientUnits="userSpaceOnUse"
       gradientTransform="translate(383.57,500.8)"
       x1="41"
       x2="25"
       spreadMethod="reflect" />
    <linearGradient
       xlink:href="#j"
       id="linearGradient969"
       gradientUnits="userSpaceOnUse"
       x1="421.57"
       y1="506.8"
       x2="414.57"
       y2="516.8" />
  </defs>
  <metadata
     id="metadata7">
    <rdf:RDF>
      <cc:Work
         rdf:about="">
        <dc:format>image/svg+xml</dc:format>
        <dc:type
           rdf:resource="http://purl.org/dc/dcmitype/StillImage" />
        <dc:title></dc:title>
      </cc:Work>
    </rdf:RDF>
  </metadata>
  <g
     id="g949">
    <rect
       style="fill:#365f88;fill-opacity:1;stroke:none"
       id="rect4148"
       width="56"
       height="51.999947"
       x="4"
       y="6.0000534" />
    <path
       style="opacity:1;fill:#34495e;fill-opacity:1;stroke:none;stroke-opacity:1"
       d="M 4,5 C 3.445962,5 3,5.446 3,6 v 51 1 c 0,0.554 0.445962,1 1,1 h 1 55 c 0.554038,0 1,-0.446 1,-1 V 6 C 61,5.446 60.554038,5 60,5 H 5 Z M 5,9 H 59 V 57 H 5 Z"
       id="rect4151" />
    <circle
       style="opacity:1;fill:#ecf0f1;fill-opacity:1;stroke:none;stroke-opacity:1"
       id="path4155"
       cx="57.999981"
       cy="7.0000534"
       r="1" />
    <rect
       style="opacity:1;fill:#03c9a9;fill-opacity:1;stroke:none;stroke-opacity:1"
       id="rect4153"
       width="54"
       height="1.018868"
       x="5"
       y="9.0000534" />
    <path
       style="opacity:1;fill:#2c3e4f;fill-opacity:1;stroke:none;stroke-width:0.1;stroke-linecap:square;stroke-linejoin:miter;stroke-miterlimit:4;stroke-dasharray:none;stroke-dashoffset:0;stroke-opacity:1"
       d="m 3,58 c 0,0.554 0.4459619,1 1,1 h 56 c 0.554038,0 1,-0.446 1,-1 z"
       id="rect4171" />
    <g
       id="g910"
       transform="matrix(1.2080274,0,0,1.1170411,-459.58694,-551.92852)">
      <g
         id="g888"
         style="fill-rule:evenodd">
        <path
           id="path874"
           d="m 403.57,506.8 c 2,-3 6,-3 6,-3 0,0 0.208,0.426 0,1 1.738,-0.781 4,0 4,0 0,0 -0.317,0.667 -1,1 1.723,0.629 3,2 3,2 0,0 -0.317,0.605 -1,1 1.707,0.161 3,2 3,2 0,0 -0.453,0.777 -1,1 1.422,0.613 2,0.821 2,2 0,1.179 -3,3 -3,3 0,0 -1.75,-4.502 -3,-6 -1.25,-1.498 -2.463,-2.313 -4,-3 -1.537,-0.687 -5,-1 -5,-1"
           style="fill:url(#f)" />
        <path
           id="path876"
           d="m 409.57,508.8 c 0,0 0,6 -3,8 -3,2 -9,3 -13,5 -4,2 -5,5 -5,5 0,0 4,-2 6,-2 2,0 5,1 5,1 0,0 2,-2 5,-2 3,0 6,1 6,1 l 1,-11 z"
           style="fill:url(#n)" />
        <path
           id="path878"
           d="m 410.57,511.8 c 0,0 0.188,3.5 -2.813,5.5 -3,2 -10.721,3.239 -14.5,5.313 -2.766,1.517 -4.688,4.188 -4.688,4.188 0,0 4,-2 6,-2 2,0 5,1 5,1 0,0 2,-2 5,-2 3,0 6,1 6,1 l 1,-11 z"
           style="fill:url(#linearGradient961)" />
        <path
           id="path880"
           transform="translate(384.57,499.8)"
           d="M 23,5.625 C 22,5.75 22,7 22,7 l 3,6 c 2,4 1,13 -6,17 0,0 0.477,0.234 1.236,0.525 C 17.157,33.048 12.582,36 8,36 h 17.734 c 1.264,-1.318 2.348,-2.795 3.295,-4.258 C 29.086,31.338 29.281,30.437 30,29 c 1,-2 2,-6 2,-6 0,0 1,0 2,1 0.835,0.835 -3.036,5.638 -4.393,7.27 C 30.446,30.992 31.258,30.594 32,30 37,26 34.254,15.786 30,11 26,6.5 24,5.5 23,5.625"
           style="fill:url(#c)" />
        <path
           id="path882"
           transform="translate(384.57,499.8)"
           d="m 24,6 -1.5,2 2.5,5 c 0.459,0.917 0.751,2.105 0.857,3.428 L 31,13 Z"
           style="opacity:0.2;fill:url(#i)" />
        <path
           id="path884"
           d="m 409.34,528.14 c -1.945,2.427 -1.842,2.708 -4.572,4.755 -0.015,0.011 -0.032,0.022 -0.047,0.033 l 2.783,2.74 c 10.03,-8.376 1.835,-7.528 1.835,-7.528 m -5.443,5.382 c -1.132,0.803 -2.384,1.593 -3.729,2.273 h 6.04 z"
           style="fill:#2980b9" />
        <path
           id="path886"
           d="m 404.81,530.32 c -3.079,2.523 -7.654,5.475 -12.236,5.475 h 17.734 c 1.367,-1.426 2.532,-3.039 3.531,-4.617 0.961,-0.277 -9.789,-1.149 -9.03,-0.857"
           style="opacity:0.2;fill:url(#linearGradient963)" />
      </g>
      <g
         id="g894"
         style="color:#000000;stroke-width:3;stroke-linejoin:round">
        <path
           id="path890"
           d="m 392.57,535.8 v 8 h 32 v -8 z"
           style="fill:url(#linearGradient965)" />
        <path
           id="path892"
           d="m 392.57,537.8 v 4 h 5 v -4 z m 6,0 v 4 h 6 v -4 z m 7,0 v 4 h 6 v -4 z m 7,0 v 4 h 6 v -4 z m 7,0 v 4 h 5 v -4 z"
           style="fill:url(#linearGradient967)" />
      </g>
      <g
         id="g908"
         style="fill-rule:evenodd">
        <path
           id="path896"
           d="m 421.57,506.8 c -1,0 -1,3 -4,6 -3,3 -4,3 -4,3 0,0 3,2 3,6 3,2 3,6 3,6 l 4,-11 -1,-8 z"
           style="fill:url(#d)" />
        <path
           id="path898"
           d="m 421.57,506.8 c -1,0 -1,3 -4,6 -3,3 -4,3 -4,3 0,0 3,2 3,6 0,4 -2,7 -2,7 l 9,-12 -1,-8 z"
           style="fill:url(#linearGradient969)" />
        <path
           id="path900"
           d="m 421.57,506.8 c -2,13.5 -7.313,14.375 -7.938,18.25 -0.637,3.949 0.938,3.75 0.938,3.75 l 9,-12 -1,-8 z"
           style="fill:url(#l)" />
        <path
           id="path902"
           d="m 421.57,506.8 c 1,0 4,6 3,15 -1,9 -6,11 -6,11 0,0 -7,-1 -9,-1 -2,0 -3,1 -3,1 0,0 -3,-2 -7,-2 -4,0 -9,4 -9,4 0,0 1,-4 7,-6 6,-2 15.799,-0.159 19,-4 10,-12 4,-18 5,-18"
           style="fill:url(#m)" />
        <path
           id="path904"
           d="m 406.57,510.8 c -2.121,0.707 -5,0 -6,1 l -1,1 c 0,0 -1,-2 0,-3 1,-1 3,-1 4,-3 1,-2 4,-2 5,-1 2,2 1,4 -2,5"
           style="fill:url(#e)" />
        <path
           id="path906"
           d="m 407.76,517.3 c -3,2 -10.721,3.239 -14.5,5.313 -2.766,1.517 -4.688,4.188 -4.688,4.188 0,0 4,-2 6,-2 2,0 5,1 5,1 0,0 11.188,-10.5 8.188,-8.5"
           style="fill:url(#k)" />
      </g>
    </g>
  </g>
</svg>
