<?xml version="1.0" encoding="UTF-8" standalone="no"?>
<svg
   xmlns:dc="http://purl.org/dc/elements/1.1/"
   xmlns:cc="http://creativecommons.org/ns#"
   xmlns:rdf="http://www.w3.org/1999/02/22-rdf-syntax-ns#"
   xmlns:svg="http://www.w3.org/2000/svg"
   xmlns="http://www.w3.org/2000/svg"
   xmlns:xlink="http://www.w3.org/1999/xlink"
   xmlns:sodipodi="http://sodipodi.sourceforge.net/DTD/sodipodi-0.dtd"
   xmlns:inkscape="http://www.inkscape.org/namespaces/inkscape"
   height="48"
   viewBox="0 0 48 48"
   width="48"
   version="1.1"
   id="svg29"
   sodipodi:docname="gnome-tweak-tool.svg"
   inkscape:version="0.92.2 2405546, 2018-03-11">
  <metadata
     id="metadata35">
    <rdf:RDF>
      <cc:Work
         rdf:about="">
        <dc:format>image/svg+xml</dc:format>
        <dc:type
           rdf:resource="http://purl.org/dc/dcmitype/StillImage" />
      </cc:Work>
    </rdf:RDF>
  </metadata>
  <defs
     id="defs33">
    <linearGradient
       id="linearGradient982">
      <stop
         id="stop978"
         offset="0"
         style="stop-color:#59c110;stop-opacity:1" />
      <stop
         id="stop980"
         offset="1"
         style="stop-color:#87d82e;stop-opacity:1" />
    </linearGradient>
    <linearGradient
       id="linearGradient976">
      <stop
         id="stop972"
         offset="0"
         style="stop-color:#ff0f0f;stop-opacity:1" />
      <stop
         id="stop974"
         offset="1"
         style="stop-color:#ff4444;stop-opacity:1" />
    </linearGradient>
    <linearGradient
       inkscape:collect="always"
       id="linearGradient1099">
      <stop
         style="stop-color:#ffffff;stop-opacity:1;"
         offset="0"
         id="stop1095" />
      <stop
         style="stop-color:#e6e6e6;stop-opacity:1"
         offset="1"
         id="stop1097" />
    </linearGradient>
    <linearGradient
       id="linearGradient890">
      <stop
         style="stop-color:#f1f1f1;stop-opacity:1"
         offset="0"
         id="stop886" />
      <stop
         style="stop-color:#f9f9f9;stop-opacity:1"
         offset="1"
         id="stop888" />
    </linearGradient>
    <linearGradient
       id="linearGradient882">
      <stop
         style="stop-color:#ff0000;stop-opacity:1;"
         offset="0"
         id="stop878" />
      <stop
         style="stop-color:#ff4444;stop-opacity:1"
         offset="1"
         id="stop880" />
    </linearGradient>
    <linearGradient
       id="linearGradient874">
      <stop
         style="stop-color:#009bc2;stop-opacity:1"
         offset="0"
         id="stop870" />
      <stop
         style="stop-color:#00c6f7;stop-opacity:1"
         offset="1"
         id="stop872" />
    </linearGradient>
    <linearGradient
       xlink:href="#linearGradient874"
       id="linearGradient876"
       x1="9.7796459"
       y1="6.4365029"
       x2="19.787357"
       y2="16.503786"
       gradientUnits="userSpaceOnUse"
       gradientTransform="translate(-1.6466493,-0.19114146)" />
    <linearGradient
       xlink:href="#linearGradient882"
       id="linearGradient884"
       x1="33.078217"
       y1="34.337257"
       x2="27.181664"
       y2="27.721615"
       gradientUnits="userSpaceOnUse"
       gradientTransform="translate(-1.6466493,-0.19114146)" />
    <linearGradient
       xlink:href="#linearGradient890"
       id="linearGradient892"
       x1="23.873842"
       y1="44.979816"
       x2="23.873842"
       y2="2.1219532"
       gradientUnits="userSpaceOnUse"
       gradientTransform="translate(-1.6466493,-0.19114146)" />
    <linearGradient
       gradientTransform="translate(-419.00001,-506.71113)"
       gradientUnits="userSpaceOnUse"
       x2="425.21"
       y2="513.95"
       x1="395.91"
       y1="525.26"
       id="a-3">
      <stop
         id="stop2-6"
         stop-color="#da4453" />
      <stop
         id="stop4-7"
         stop-color="#ff7336"
         offset="1" />
    </linearGradient>
    <linearGradient
       gradientUnits="userSpaceOnUse"
       x2="44"
       y2="33.75"
       x1="26.362"
       y1="44.09"
       id="b-5">
      <stop
         id="stop7-3"
         stop-color="#c0392b" />
      <stop
         id="stop9-5"
         stop-opacity="0"
         stop-color="#c0392b"
         offset="1" />
    </linearGradient>
    <linearGradient
       gradientUnits="userSpaceOnUse"
       x2="398.82"
       y2="528.52"
       x1="388.57"
       y1="519.85"
       id="c-6">
      <stop
         id="stop12-2"
         stop-color="#4d4d4d" />
      <stop
         id="stop14-9"
         stop-color="#31363b"
         offset="1" />
    </linearGradient>
    <linearGradient
       gradientUnits="userSpaceOnUse"
       x2="422.73"
       y2="537.95"
       x1="394.57"
       y1="509.8"
       id="d">
      <stop
         id="stop17"
         stop-color="#e5e7e8" />
      <stop
         id="stop19"
         stop-color="#dcdee0"
         offset="1" />
    </linearGradient>
    <linearGradient
       gradientTransform="matrix(0.70711,0.70711,-0.70711,0.70711,105.48,-635.29)"
       gradientUnits="userSpaceOnUse"
       x2="427.57"
       x1="389.57"
       id="e">
      <stop
         id="stop22"
         stop-color="#fcfcfc" />
      <stop
         id="stop24"
         stop-color="#eff0f1"
         offset="1" />
    </linearGradient>
    <linearGradient
       gradientTransform="translate(-444.75968,-516.38672)"
       x2="799.04"
       gradientUnits="userSpaceOnUse"
       y2="160.66"
       x1="771.7"
       y1="133.33"
       id="f"
       xlink:href="#d" />
    <linearGradient
       gradientTransform="matrix(0.49677,0,0,0.76923,-191.25657,-404.02657)"
       x2="0"
       gradientUnits="userSpaceOnUse"
       y2="528.8"
       y1="551.8"
       id="g">
      <stop
         id="stop28"
         stop-color="#c6cdd1" />
      <stop
         id="stop30"
         stop-color="#e0e5e7"
         offset="1" />
    </linearGradient>
    <linearGradient
       gradientTransform="matrix(0.61141,0,0,0.76923,-238.90657,-386.33657)"
       x2="0"
       gradientUnits="userSpaceOnUse"
       y2="505.8"
       y1="557.8"
       id="h">
      <stop
         id="stop33"
         stop-color="#42a603" />
      <stop
         id="stop35"
         stop-color="#78da06"
         offset="1" />
    </linearGradient>
    <linearGradient
       gradientTransform="matrix(1.5625 0 0 1.53847-227.95-292.82)"
       gradientUnits="userSpaceOnUse"
       x2="400.57"
       x1="398.57"
       id="i">
      <stop
         id="stop38"
         stop-color="#faae2a" />
      <stop
         id="stop40"
         stop-color="#ffc35a"
         offset="1" />
    </linearGradient>
    <linearGradient
       gradientTransform="matrix(1.5625,0,0,1.53847,-604.39657,-793.87657)"
       x2="400.57"
       gradientUnits="userSpaceOnUse"
       x1="398.57"
       id="j"
       xlink:href="#i" />
    <linearGradient
       gradientTransform="matrix(1.1580635,0,0,1.4383458,-439.42451,-734.17514)"
       gradientUnits="userSpaceOnUse"
       x2="390.65"
       y2="529.73"
       x1="410.5"
       y1="539.88"
       id="k">
      <stop
         id="stop44"
         stop-color="#bcfd93" />
      <stop
         id="stop46"
         stop-color="#fafff5"
         offset="1" />
    </linearGradient>
    <linearGradient
       gradientTransform="matrix(1,0,0,1.0440589,7.9999935,-1.176223)"
       gradientUnits="userSpaceOnUse"
       x2="34.19"
       y2="54.612"
       x1="14.187"
       y1="34.612"
       id="l">
      <stop
         id="stop49"
         stop-color="#383e51" />
      <stop
         id="stop51"
         stop-opacity="0"
         stop-color="#655c6f"
         offset="1" />
    </linearGradient>
    <linearGradient
       gradientTransform="matrix(0.61141,0,0,0.76923,-238.90657,-386.33657)"
       x2="0"
       gradientUnits="userSpaceOnUse"
       y2="505.79999"
       y1="557.79999"
       id="h-7">
      <stop
         id="stop33-5"
         stop-color="#42a603" />
      <stop
         id="stop35-3"
         stop-color="#78da06"
         offset="1" />
    </linearGradient>
    <linearGradient
       gradientTransform="matrix(0.49677,0,0,0.76923,-191.25657,-404.02657)"
       x2="0"
       gradientUnits="userSpaceOnUse"
       y2="528.79999"
       y1="551.79999"
       id="g-5">
      <stop
         id="stop28-6"
         stop-color="#c6cdd1" />
      <stop
         id="stop30-2"
         stop-color="#e0e5e7"
         offset="1" />
    </linearGradient>
    <linearGradient
       gradientTransform="matrix(1.5625,0,0,1.53847,-227.95,-292.82)"
       gradientUnits="userSpaceOnUse"
       x2="400.57001"
       x1="398.57001"
       id="i-9">
      <stop
         id="stop38-1"
         stop-color="#faae2a" />
      <stop
         id="stop40-2"
         stop-color="#ffc35a"
         offset="1" />
    </linearGradient>
    <linearGradient
       gradientTransform="matrix(1.5625,0,0,1.53847,-604.39657,-793.87657)"
       x2="400.57001"
       gradientUnits="userSpaceOnUse"
       x1="398.57001"
       id="j-7"
       xlink:href="#i-9" />
    <linearGradient
       gradientTransform="matrix(1.5625,0,0,1.53847,-227.95,-292.82)"
       gradientUnits="userSpaceOnUse"
       x2="400.57001"
       x1="398.57001"
       id="linearGradient1040">
      <stop
         id="stop1036"
         stop-color="#faae2a" />
      <stop
         id="stop1038"
         stop-color="#ffc35a"
         offset="1" />
    </linearGradient>
    <linearGradient
       gradientTransform="matrix(0.61141,0,0,0.80312143,-229.65001,-403.22242)"
       x2="0"
       gradientUnits="userSpaceOnUse"
       y2="505.79999"
       y1="557.79999"
       id="h-7-6">
      <stop
         id="stop33-5-1"
         stop-color="#42a603" />
      <stop
         id="stop35-3-8"
         stop-color="#78da06"
         offset="1" />
    </linearGradient>
    <linearGradient
       gradientTransform="matrix(0.49677,0,0,0.80312143,-182.00001,-421.69183)"
       x2="0"
       gradientUnits="userSpaceOnUse"
       y2="528.79999"
       y1="551.79999"
       id="g-5-7">
      <stop
         id="stop28-6-9"
         stop-color="#c6cdd1" />
      <stop
         id="stop30-2-2"
         stop-color="#e0e5e7"
         offset="1" />
    </linearGradient>
    <linearGradient
       gradientTransform="matrix(1.5625,0,0,1.53847,-227.95,-292.82)"
       gradientUnits="userSpaceOnUse"
       x2="400.57001"
       x1="398.57001"
       id="i-9-0">
      <stop
         id="stop38-1-2"
         stop-color="#faae2a" />
      <stop
         id="stop40-2-3"
         stop-color="#ffc35a"
         offset="1" />
    </linearGradient>
    <linearGradient
       gradientTransform="matrix(1.5625,0,0,1.6062533,-595.14001,-828.71819)"
       x2="400.57001"
       gradientUnits="userSpaceOnUse"
       x1="398.57001"
       id="j-7-7"
       xlink:href="#i-9-0" />
    <linearGradient
       gradientTransform="matrix(1.5625,0,0,1.53847,-227.95,-292.82)"
       gradientUnits="userSpaceOnUse"
       x2="400.57001"
       x1="398.57001"
       id="linearGradient1181">
      <stop
         id="stop1177"
         stop-color="#faae2a" />
      <stop
         id="stop1179"
         stop-color="#ffc35a"
         offset="1" />
    </linearGradient>
    <linearGradient
       xlink:href="#linearGradient4793"
       id="linearGradient2100"
       x1="24"
       y1="46"
       x2="23.178896"
       y2="14.592526"
       gradientUnits="userSpaceOnUse"
       gradientTransform="matrix(1,0,0,0.99809762,-41.629865,-1.1746768)" />
    <linearGradient
       id="linearGradient4793">
      <stop
         style="stop-color:#54b60f;stop-opacity:1"
         offset="0"
         id="stop4795" />
      <stop
         style="stop-color:#92dc41;stop-opacity:1"
         offset="1"
         id="stop4797" />
    </linearGradient>
    <linearGradient
       inkscape:collect="always"
       xlink:href="#linearGradient874"
       id="linearGradient1093"
       x1="74.552101"
       y1="58.871185"
       x2="74.552101"
       y2="16.20076"
       gradientUnits="userSpaceOnUse"
       gradientTransform="translate(-51.661107,-13.016988)" />
    <linearGradient
       inkscape:collect="always"
       xlink:href="#linearGradient1099"
       id="linearGradient1101"
       x1="75.523193"
       y1="56.267803"
       x2="75.523193"
       y2="18.426706"
       gradientUnits="userSpaceOnUse"
       gradientTransform="translate(-51.661107,-13.016988)" />
    <linearGradient
       inkscape:collect="always"
       xlink:href="#linearGradient982"
       id="linearGradient920"
       x1="24.129076"
       y1="36.972687"
       x2="24.129076"
       y2="10.769164"
       gradientUnits="userSpaceOnUse"
       gradientTransform="matrix(0.85944108,0,0,0.85944108,3.37336,3.3730899)" />
    <linearGradient
       inkscape:collect="always"
       xlink:href="#b"
       id="linearGradient964"
       gradientUnits="userSpaceOnUse"
       gradientTransform="translate(-525.9997,-513.83194)"
       x1="350.066473577608"
       y1="547.074134049879"
       x2="350.066473577608"
       y2="499.073994449879" />
  </defs>
  <sodipodi:namedview
     pagecolor="#ffffff"
     bordercolor="#666666"
     borderopacity="1"
     objecttolerance="10"
     gridtolerance="10"
     guidetolerance="10"
     inkscape:pageopacity="0"
     inkscape:pageshadow="2"
     inkscape:window-width="1366"
     inkscape:window-height="695"
     id="namedview31"
     showgrid="false"
     inkscape:zoom="9.1590746"
     inkscape:cx="2.7096391"
     inkscape:cy="24"
     inkscape:window-x="0"
     inkscape:window-y="0"
     inkscape:window-maximized="1"
     inkscape:current-layer="svg29" />
  <linearGradient
     id="a"
     gradientUnits="userSpaceOnUse"
     x1="410.445439049232"
     x2="410.445439049232"
     y1="544.123707570166"
     y2="504.2732340244"
     gradientTransform="translate(-431.75787,-500.81495)">
    <stop
       offset="0"
       stop-color="#97a9b1"
       id="stop2" />
    <stop
       offset="1"
       stop-color="#cfdce1"
       id="stop4" />
  </linearGradient>
  <linearGradient
     id="b"
     gradientUnits="userSpaceOnUse"
     x1="350.066473577608"
     x2="350.066473577608"
     y1="547.074134049879"
     y2="499.073994449879"
     gradientTransform="translate(-483.41898,-513.83194)">
    <stop
       offset="0"
       stop-color="#3889e9"
       id="stop7" />
    <stop
       offset="1"
       stop-color="#5ea5fb"
       id="stop9" />
  </linearGradient>
  <linearGradient
     id="c"
     gradientTransform="matrix(0.82536309,0,0,0.82532602,4.19103,4.189914)"
     gradientUnits="userSpaceOnUse"
     x1="23.526918"
     x2="24.064453"
     y1="39.175846"
     y2="8">
    <stop
       offset="0"
       stop-color="#1d1e1e"
       id="stop12"
       style="stop-color:#009ec6;stop-opacity:1" />
    <stop
       offset="1"
       stop-color="#44484c"
       id="stop14"
       style="stop-color:#00c1f1;stop-opacity:1" />
  </linearGradient>
  <circle
     style="fill:url(#b)"
     id="circle21"
     r="0"
     cy="9.2420359"
     cx="-131.63831" />
  <g
     id="layer2"
     style="display:inline"
     transform="translate(1.016859,-14.033937)" />
  <g
     id="layer1"
     style="display:inline"
     transform="translate(1.016859,-14.033937)" />
  <path
     inkscape:connector-curvature="0"
     style="color:#000000;font-style:normal;font-variant:normal;font-weight:normal;font-stretch:normal;font-size:medium;line-height:normal;font-family:sans-serif;font-variant-ligatures:normal;font-variant-position:normal;font-variant-caps:normal;font-variant-numeric:normal;font-variant-alternates:normal;font-feature-settings:normal;text-indent:0;text-align:start;text-decoration:none;text-decoration-line:none;text-decoration-style:solid;text-decoration-color:#000000;letter-spacing:normal;word-spacing:normal;text-transform:none;writing-mode:lr-tb;direction:ltr;text-orientation:mixed;dominant-baseline:auto;baseline-shift:baseline;text-anchor:start;white-space:normal;shape-padding:0;clip-rule:nonzero;display:inline;overflow:visible;visibility:visible;opacity:1;isolation:auto;mix-blend-mode:normal;color-interpolation:sRGB;color-interpolation-filters:linearRGB;solid-color:#000000;solid-opacity:1;vector-effect:none;fill:url(#linearGradient1093);fill-opacity:1.0;fill-rule:nonzero;stroke:none;stroke-width:5.11437559;stroke-linecap:butt;stroke-linejoin:miter;stroke-miterlimit:4;stroke-dasharray:none;stroke-dashoffset:0;stroke-opacity:1;color-rendering:auto;image-rendering:auto;shape-rendering:auto;text-rendering:auto;enable-background:accumulate"
     d="m 23.997512,2.000009 c -0.77625,0 -1.551353,0.240129 -2.204798,0.719146 v -0.0018 C 19.979242,4.044945 14.15616,7.813305 7.426356,8.44632 5.255984,8.649465 3.543742,10.508208 3.505764,12.704149 v 0.0018 0.0035 c -0.04808,3.155134 0.147155,9.942499 2.628598,16.778921 2.481444,6.836422 7.525389,13.872203 16.75303,16.364029 l 0.0018,0.0018 h 0.0018 c 0.725135,0.194454 1.488241,0.194454 2.213377,0 h 0.0018 l 0.0018,-0.0018 c 9.227999,-2.489703 14.271127,-9.525503 16.753029,-16.362301 2.481291,-6.835115 2.679574,-13.621265 2.633746,-16.775463 -0.02867,-2.210378 -1.751788,-4.065917 -3.922309,-4.268201 l -0.0034,-0.0018 C 33.844459,7.810902 28.028541,4.051521 26.204195,2.719107 25.55075,2.24009 24.773931,1.999961 23.997682,1.999961 Z"
     id="path983" />
  <path
     style="fill:url(#linearGradient1101);fill-opacity:1;stroke-width:0.37576431"
     d="M 23.998047 4.5625 C 23.749877 4.5625 23.501763 4.6404304 23.291016 4.7949219 C 21.278084 6.2685309 15.16036 10.296839 7.6640625 11.001953 C 6.7619845 11.085183 6.0684914 11.836945 6.0527344 12.748047 C 5.9621344 18.693979 6.91163 38.880877 23.546875 43.373047 C 23.842315 43.452277 24.153779 43.452277 24.449219 43.373047 C 41.084464 38.884878 42.033929 18.69394 41.947266 12.748047 C 41.935456 11.836945 41.237974 11.085181 40.335938 11.001953 C 32.839638 10.296839 26.721909 6.2685309 24.705078 4.7949219 C 24.494331 4.6404304 24.246216 4.5625 23.998047 4.5625 z M 23.998047 5.8730469 C 24.229487 5.8730469 24.461663 5.9438138 24.658203 6.0878906 C 26.539074 7.4621599 32.24342 11.219373 39.234375 11.876953 C 40.075604 11.954571 40.725314 12.658131 40.736328 13.507812 C 40.817149 19.052879 39.931791 37.880795 24.417969 42.066406 C 24.142445 42.140296 23.853648 42.140296 23.578125 42.066406 C 8.0643027 37.877064 7.1772257 19.052916 7.2617188 13.507812 C 7.2764136 12.658132 7.9243583 11.954573 8.765625 11.876953 C 15.756579 11.219373 21.460655 7.4621599 23.337891 6.0878906 C 23.534431 5.9438138 23.766607 5.8730469 23.998047 5.8730469 z M 23.998047 7.1835938 C 23.783337 7.1835938 23.569052 7.2491503 23.386719 7.3828125 C 21.645179 8.6577422 16.352797 12.14386 9.8671875 12.753906 C 9.0867321 12.825916 8.4862889 13.477363 8.4726562 14.265625 C 8.3942712 19.409897 9.2150222 36.875205 23.607422 40.761719 C 23.863029 40.830269 24.133064 40.830269 24.388672 40.761719 C 38.781071 36.878666 39.602323 19.409864 39.527344 14.265625 C 39.517126 13.477363 38.913233 12.825914 38.132812 12.753906 C 31.647202 12.14386 26.354286 8.6577422 24.609375 7.3828125 C 24.427042 7.2491503 24.212757 7.1835938 23.998047 7.1835938 z "
     id="path977" />
  <g
     id="layer2-3"
     style="display:inline"
     transform="matrix(0.87848742,0,0,0.88510278,2.976204,2.675823)" />
  <g
     id="layer1-6"
     style="display:inline"
     transform="matrix(0.87848742,0,0,0.88510278,2.976204,2.675823)" />
  <path
     inkscape:connector-curvature="0"
     style="clip-rule:evenodd;fill:url(#linearGradient920);fill-opacity:1.0;fill-rule:evenodd;stroke-width:0.93449414"
     id="path25"
     d="m 24.045361,12.64878 c -0.426063,-7.54e-4 -0.85412,0.02116 -1.279284,0.06809 -0.329045,0.03632 -0.571556,0.319521 -0.560482,0.649143 0.03696,1.052378 -0.587324,2.026156 -1.554778,2.422412 -0.927767,0.378957 -2.133575,0.101281 -2.80873,-0.641222 -0.223145,-0.244595 -0.596597,-0.273842 -0.856552,-0.07126 -0.680214,0.533658 -1.299379,1.145625 -1.836605,1.816014 -0.20955,0.260628 -0.178446,0.637072 0.06809,0.861303 0.789933,0.715314 1.045268,1.854009 0.634891,2.832481 -0.39179,0.93289 -1.360898,1.534196 -2.469907,1.534196 -0.359875,-0.01159 -0.616101,0.230132 -0.655482,0.557313 -0.09981,0.852637 -0.100284,1.72117 -0.0049,2.580739 0.03559,0.320428 0.418905,0.558902 0.744141,0.558902 0.988321,-0.02529 1.935713,0.586155 2.333752,1.55477 0.396791,0.967334 0.141456,2.09395 -0.634891,2.805568 -0.242811,0.223031 -0.27115,0.595616 -0.06647,0.854971 0.52736,0.671654 1.132437,1.282437 1.795433,1.816015 0.260036,0.209533 0.637469,0.181826 0.862883,-0.06647 0.679038,-0.751056 1.89403,-1.029023 2.82932,-0.636472 0.979622,0.409753 1.596105,1.400133 1.535777,2.463576 -0.0197,0.333999 0.225811,0.623648 0.557313,0.661813 0.433675,0.05059 0.86872,0.07596 1.306204,0.07596 0.415266,0 0.832339,-0.02343 1.247621,-0.06963 0.329135,-0.03632 0.571532,-0.318929 0.560483,-0.649141 -0.0381,-1.051787 0.586982,-2.025241 1.553189,-2.420832 0.934008,-0.38147 2.135089,-0.100527 2.810318,0.641222 0.224392,0.244075 0.595178,0.27154 0.856552,0.06963 0.678966,-0.532402 1.296817,-1.142196 1.836597,-1.814434 0.209452,-0.260036 0.179629,-0.638742 -0.06809,-0.862883 -0.789934,-0.715331 -1.046849,-1.853093 -0.636472,-2.8309 0.385807,-0.920471 1.319393,-1.538939 2.322663,-1.538939 l 0.140913,0.0049 c 0.325414,0.02651 0.623956,-0.225154 0.663393,-0.557313 0.1,-0.853407 0.101289,-1.72117 0.0049,-2.580746 h 0.0016 c -0.03591,-0.319067 -0.408197,-0.557313 -0.72989,-0.557313 -1.040096,0 -1.964086,-0.611926 -2.351165,-1.556359 -0.395429,-0.967343 -0.140273,-2.094574 0.634891,-2.805568 0.24401,-0.223048 0.274231,-0.597198 0.06963,-0.856553 -0.532338,-0.675966 -1.137973,-1.28683 -1.798602,-1.816014 -0.258699,-0.207588 -0.638572,-0.177108 -0.862883,0.07126 -0.676501,0.749182 -1.891923,1.026664 -2.8309,0.634891 -0.977241,-0.411066 -1.592902,-1.400741 -1.532607,-2.463576 0.01986,-0.333861 -0.224474,-0.624629 -0.557313,-0.663393 -0.424021,-0.04905 -0.84852,-0.07482 -1.27459,-0.07604 z m 3.934445,5.21531 c 2.487433,0 -0.155715,3.541789 -1.554779,3.541789 -1.399264,0 -0.932556,-3.541789 1.554779,-3.541789 z m -3.96769,0.441741 c 1.400271,-0.181689 0.581949,2.706961 -0.163084,2.661485 -0.745332,-0.04547 -1.2367,-2.479806 0.163084,-2.661485 z m -2.346422,0.957881 c 0.920763,-0.09773 0.854185,2.183095 0.262824,2.303662 -0.630278,0.128802 -1.585809,-1.787156 -0.460733,-2.251416 0.07029,-0.02902 0.136527,-0.04572 0.197909,-0.0522 z m -1.747938,1.499364 c 0.684746,0.02302 0.981383,1.795586 0.517739,1.999672 -0.529882,0.233139 -1.733435,-1.271306 -0.832809,-1.8936 0.11263,-0.07774 0.217251,-0.109364 0.31507,-0.106072 z m 5.144071,1.149451 c 1.15849,0.01962 2.094217,0.400382 2.219752,1.146299 0.4033,2.396349 -5.714207,3.271278 -3.410376,5.02532 0.723697,0.551007 1.462448,0.129581 1.350531,-0.725148 v -0.0016 c -0.09342,-0.713045 2.505704,-1.14415 2.302088,-0.06647 -0.266611,1.413218 -1.690422,2.528501 -2.925898,2.528501 -2.511396,0 -4.919435,-2.920257 -4.449006,-5.025321 0.434364,-1.945222 2.982084,-2.914234 4.912909,-2.881566 z" />
  <circle
     cx="-174.21902"
     cy="9.2420359"
     r="0"
     id="circle948"
     style="fill:url(#linearGradient964)" />
  <g
     transform="translate(-41.563862,-14.033937)"
     style="display:inline"
     id="g950" />
  <g
     transform="translate(-41.563862,-14.033937)"
     style="display:inline"
     id="g952" />
  <g
     transform="matrix(0.87848742,0,0,0.88510278,-39.604517,2.675823)"
     style="display:inline"
     id="g958" />
  <g
     transform="matrix(0.87848742,0,0,0.88510278,-39.604517,2.675823)"
     style="display:inline"
     id="g960" />
</svg>
