<?xml version="1.0" encoding="UTF-8" standalone="no"?>
<svg
   xmlns:dc="http://purl.org/dc/elements/1.1/"
   xmlns:cc="http://creativecommons.org/ns#"
   xmlns:rdf="http://www.w3.org/1999/02/22-rdf-syntax-ns#"
   xmlns:svg="http://www.w3.org/2000/svg"
   xmlns="http://www.w3.org/2000/svg"
   xmlns:xlink="http://www.w3.org/1999/xlink"
   id="svg32"
   version="1.1"
   width="48"
   height="48">
  <metadata
     id="metadata38">
    <rdf:RDF>
      <cc:Work
         rdf:about="">
        <dc:format>image/svg+xml</dc:format>
        <dc:type
           rdf:resource="http://purl.org/dc/dcmitype/StillImage" />
        <dc:title></dc:title>
      </cc:Work>
    </rdf:RDF>
  </metadata>
  <defs
     id="defs36">
    <linearGradient
       id="linearGradient855">
      <stop
         id="stop851"
         offset="0"
         style="stop-color:#0050de;stop-opacity:1" />
      <stop
         id="stop853"
         offset="1"
         style="stop-color:#1fb3cd;stop-opacity:1" />
    </linearGradient>
    <linearGradient
       gradientTransform="matrix(1,0,0,1.0644068,69.118646,-6.2987627)"
       gradientUnits="userSpaceOnUse"
       y2="7.7288136"
       x2="-45.35593"
       y1="48.203388"
       x1="-45.35593"
       id="linearGradient857"
       xlink:href="#linearGradient855" />
  </defs>
  <linearGradient
     id="linearGradient8"
     y2="23.5"
     y1="23.5"
     x2="47"
     x1="0"
     gradientUnits="userSpaceOnUse">
    <stop
       id="stop2"
       stop-color="#a9a3d4"
       offset="0" />
    <stop
       id="stop4"
       stop-color="#87baff"
       offset=".47001833" />
    <stop
       id="stop6"
       stop-color="#89ec85"
       offset="1" />
  </linearGradient>
  <linearGradient
     y2="658.78589"
     y1="663.33796"
     x2="1410.32123"
     x1="359.88744"
     gradientUnits="userSpaceOnUse"
     id="a">
    <stop
       id="stop10"
       stop-color="#4e4e4f"
       offset="0" />
    <stop
       id="stop12"
       stop-color="#3f3f40"
       offset=".49668527" />
    <stop
       id="stop14"
       stop-color="#5a5a5c"
       offset="1" />
  </linearGradient>
  <linearGradient
     y2="278.17999"
     y1="907.84692"
     x2="363.04605"
     x1="366.95877"
     gradientUnits="userSpaceOnUse"
     id="b">
    <stop
       id="stop17"
       stop-color="#363636"
       offset="0" />
    <stop
       id="stop19"
       stop-color="#656567"
       offset="1" />
  </linearGradient>
  <rect
     rx="2.7734976"
     style="opacity:1;fill:#3a3a3a;fill-opacity:1;stroke:none;stroke-width:1.36541891;stroke-miterlimit:4;stroke-dasharray:none;stroke-opacity:1"
     id="rect865"
     width="44"
     height="10.156157"
     x="2"
     y="35.843842"
     ry="2.7734971" />
  <rect
     rx="2.7734976"
     ry="2.7734976"
     y="2"
     x="2"
     height="42.576271"
     width="44"
     id="rect849"
     style="opacity:1;fill:url(#linearGradient857);fill-opacity:1;stroke:none;stroke-width:1.36541891;stroke-miterlimit:4;stroke-dasharray:none;stroke-opacity:1" />
  <path
     d="m 31.90573,25.623086 -2.628865,0.01721 -0.03792,-4.773169 2.628865,-0.01721 c 2.903581,-0.01902 5.240751,-2.171612 5.219811,-4.807595 -0.02094,-2.635982 -2.392069,-4.757755 -5.29565,-4.738744 -2.903909,0.01901 -5.240751,2.171611 -5.219811,4.807594 l 0.01895,2.386585 -5.257729,0.03442 -0.01897,-2.386584 c -0.02094,-2.635983 -2.392067,-4.757755 -5.295649,-4.738745 -2.903581,0.01902 -5.240752,2.171611 -5.21981,4.807594 0.02094,2.635983 2.392067,4.757755 5.295649,4.738744 l 2.628865,-0.01721 0.03792,4.773169 -2.628865,0.01721 c -2.903582,0.01902 -5.240753,2.171612 -5.219811,4.807594 0.02094,2.635983 2.392067,4.757755 5.295649,4.738744 2.90391,-0.01902 5.240752,-2.17161 5.21981,-4.807593 l -0.01895,-2.386585 5.25773,-0.03442 0.01892,2.380617 c 1.9e-5,0.0023 -2.95e-4,0.0042 -2.81e-4,0.006 0.02094,2.635982 2.392068,4.757756 5.29565,4.738745 2.903581,-0.01902 5.240751,-2.171612 5.21981,-4.807595 -0.02094,-2.635982 -2.391735,-4.75716 -5.295321,-4.738745 z m -0.0948,-11.932924 c 1.451791,-0.0094 2.637353,1.051382 2.647824,2.369372 0.01043,1.317992 -1.158115,2.394292 -2.609906,2.403797 l -2.628865,0.01721 -0.01895,-2.386584 c -0.01043,-1.317992 1.158115,-2.394291 2.609906,-2.403798 z m -18.383095,2.507072 c -0.01043,-1.317992 1.158114,-2.394292 2.609904,-2.403797 1.451791,-0.0094 2.637355,1.051381 2.647825,2.369372 l 0.01895,2.386585 -2.628865,0.01721 c -1.451791,0.0094 -2.637357,-1.051679 -2.647824,-2.369372 z m 2.761582,16.688879 c -1.451791,0.0094 -2.637355,-1.051381 -2.647826,-2.369372 -0.01043,-1.317992 1.158115,-2.394292 2.609906,-2.403797 l 2.628865,-0.01721 0.01896,2.386584 c 0.01043,1.317992 -1.158114,2.394291 -2.609905,2.403797 z m 5.200851,-7.194178 -0.03792,-4.773169 5.257731,-0.03442 0.03792,4.773169 z m 10.572338,7.090904 c -1.45179,0.0094 -2.637353,-1.05138 -2.647824,-2.369372 l -0.01895,-2.386584 2.628536,-0.01721 c 1.451791,-0.0094 2.637354,1.051382 2.647824,2.369373 0.01043,1.317991 -1.157786,2.39429 -2.609577,2.403795 z"
     id="path28"
     style="opacity:1;fill:#ffffff;stroke-width:0.41249508" />
</svg>
