<?xml version="1.0" encoding="UTF-8" standalone="no"?>
<svg
   xmlns:dc="http://purl.org/dc/elements/1.1/"
   xmlns:cc="http://creativecommons.org/ns#"
   xmlns:rdf="http://www.w3.org/1999/02/22-rdf-syntax-ns#"
   xmlns:svg="http://www.w3.org/2000/svg"
   xmlns="http://www.w3.org/2000/svg"
   xmlns:xlink="http://www.w3.org/1999/xlink"
   height="48"
   width="48"
   version="1.1"
   id="svg27">
  <metadata
     id="metadata33">
    <rdf:RDF>
      <cc:Work
         rdf:about="">
        <dc:format>image/svg+xml</dc:format>
        <dc:type
           rdf:resource="http://purl.org/dc/dcmitype/StillImage" />
        <dc:title></dc:title>
      </cc:Work>
    </rdf:RDF>
  </metadata>
  <defs
     id="defs31">
    <linearGradient
       id="linearGradient865">
      <stop
         style="stop-color:#636363;stop-opacity:1"
         offset="0"
         id="stop861" />
      <stop
         style="stop-color:#909090;stop-opacity:0.92941177"
         offset="1"
         id="stop863" />
    </linearGradient>
    <linearGradient
       y2="102.25676"
       y1="226.20387"
       x2="41.357147"
       x1="41.749325"
       gradientUnits="userSpaceOnUse"
       gradientTransform="matrix(0.33952269,5.7557331e-4,-0.00112901,0.33676192,-8.4073693,-42.065611)"
       id="linearGradient4882">
      <stop
         style="stop-color:#040404;stop-opacity:1"
         id="stop4878"
         stop-color="#95a9bb"
         offset="0" />
      <stop
         style="stop-color:#454545;stop-opacity:1"
         id="stop4880"
         stop-color="#cad3dc"
         offset="1" />
    </linearGradient>
    <linearGradient
       id="linearGradient4689">
      <stop
         style="stop-color:#00b1b1;stop-opacity:1"
         offset="0"
         id="stop4685" />
      <stop
         style="stop-color:#5bffff;stop-opacity:1"
         offset="1"
         id="stop4687" />
    </linearGradient>
    <linearGradient
       id="linearGradient4675">
      <stop
         style="stop-color:#373e44;stop-opacity:1"
         offset="0"
         id="stop4671" />
      <stop
         style="stop-color:#192829;stop-opacity:1"
         offset="1"
         id="stop4673" />
    </linearGradient>
    <linearGradient
       id="linearGradient964">
      <stop
         id="stop960"
         offset="0"
         style="stop-color:#858585;stop-opacity:1" />
      <stop
         id="stop962"
         offset="1"
         style="stop-color:#0a0a0a;stop-opacity:1" />
    </linearGradient>
    <linearGradient
       id="linearGradient950">
      <stop
         style="stop-color:#bcbcbc;stop-opacity:1"
         offset="0"
         id="stop946" />
      <stop
         style="stop-color:#0a0a0a;stop-opacity:1"
         offset="1"
         id="stop948" />
    </linearGradient>
    <linearGradient
       xlink:href="#linearGradient950"
       id="linearGradient944"
       x1="23.331707"
       y1="27.191334"
       x2="23.999495"
       y2="28.423525"
       gradientUnits="userSpaceOnUse"
       gradientTransform="matrix(1.0012576,0,0,1.0012576,16.523524,10.443615)" />
    <linearGradient
       xlink:href="#linearGradient950"
       id="linearGradient952"
       x1="24.605272"
       y1="30.694342"
       x2="23.504618"
       y2="28.787952"
       gradientUnits="userSpaceOnUse"
       gradientTransform="matrix(1.0012576,0,0,1.0012576,16.327965,10.453393)" />
    <linearGradient
       xlink:href="#linearGradient4675"
       id="linearGradient4677"
       x1="39.020187"
       y1="32.783298"
       x2="9.2287321"
       y2="3.1927488"
       gradientUnits="userSpaceOnUse"
       gradientTransform="matrix(1.1598707,0,0,1.1598707,-3.7292766,3.8383557)" />
    <linearGradient
       xlink:href="#linearGradient4689"
       id="linearGradient4691"
       x1="-25.85408"
       y1="12.441418"
       x2="-34.574486"
       y2="4.3633075"
       gradientUnits="userSpaceOnUse"
       gradientTransform="matrix(1.0012576,0,0,1.0012576,56.433125,4.4845702)" />
    <linearGradient
       xlink:href="#linearGradient4689"
       id="linearGradient4744"
       gradientUnits="userSpaceOnUse"
       gradientTransform="matrix(1.1598707,0,0,1.1598707,61.541168,2.7968059)"
       x1="-17.253702"
       y1="33.681286"
       x2="-47.045158"
       y2="4.0907364" />
    <linearGradient
       xlink:href="#a"
       id="linearGradient4752"
       gradientUnits="userSpaceOnUse"
       x1="22.452526"
       y1="29.3601"
       x2="-13.058764"
       y2="-7.2837691"
       gradientTransform="translate(-40.259107,6.662234)" />
    <linearGradient
       xlink:href="#c-0"
       id="linearGradient4870"
       x1="-85.858658"
       y1="-3.9298353"
       x2="-52.002853"
       y2="32.131035"
       gradientUnits="userSpaceOnUse"
       gradientTransform="matrix(1.0581472,0,0,1.0581472,93.294887,6.289541)" />
    <linearGradient
       id="c-0"
       y1="519.84998"
       x1="388.57001"
       y2="528.52002"
       x2="398.82001"
       gradientUnits="userSpaceOnUse">
      <stop
         style="stop-color:#7a7a7a;stop-opacity:1"
         stop-color="#4d4d4d"
         id="stop12-9" />
      <stop
         style="stop-color:#3b4147;stop-opacity:1"
         offset="1"
         stop-color="#31363b"
         id="stop14-3" />
    </linearGradient>
    <linearGradient
       gradientTransform="matrix(0.95652169,0,0,0.95652169,1.0089607,1.0434703)"
       xlink:href="#linearGradient865"
       id="linearGradient867"
       x1="35.970463"
       y1="39.798359"
       x2="2.5336967"
       y2="2.4163504"
       gradientUnits="userSpaceOnUse" />
  </defs>
  <linearGradient
     id="a"
     gradientTransform="matrix(0.33952269,5.7557331e-4,-0.00112901,0.33676192,-8.4073693,-42.065611)"
     gradientUnits="userSpaceOnUse"
     x1="41.749325"
     x2="41.357147"
     y1="226.20387"
     y2="102.25676">
    <stop
       offset="0"
       stop-color="#95a9bb"
       id="stop2"
       style="stop-color:#1f2229;stop-opacity:1" />
    <stop
       offset="1"
       stop-color="#cad3dc"
       id="stop4"
       style="stop-color:#949b86;stop-opacity:1" />
  </linearGradient>
  <rect
     style="opacity:1;fill:url(#linearGradient867);fill-opacity:1;stroke:none;stroke-width:0.89189738;stroke-linecap:butt;stroke-linejoin:miter;stroke-miterlimit:4;stroke-dasharray:none;stroke-opacity:1;paint-order:normal"
     id="rect4853"
     width="43.999996"
     height="43.999996"
     x="2"
     y="2.000001"
     ry="2.869565" />
  <path
     style="fill:url(#linearGradient4677);fill-opacity:1;stroke:url(#linearGradient4744);stroke-width:0.86108154;stroke-miterlimit:4;stroke-dasharray:none;stroke-opacity:1"
     id="path21"
     d="M 21.439232,7.8576788 8.131267,20.607813 c -5.0350054,4.709482 3.006497,4.570449 5.850314,6.50947 1.314136,0.919035 -4.3772089,1.855238 -3.259844,3.049088 1.086129,1.192811 6.704792,2.442542 7.791958,3.604126 1.086128,1.192811 -2.359239,2.297477 -1.27311,3.49029 1.054892,1.191775 3.71517,0.186051 4.096513,2.824753 0.279239,1.947536 4.778371,1.128003 6.832594,-0.460588 1.284799,-1.020195 -2.120078,-1.133405 -0.957116,-2.251436 2.905852,-2.748234 5.352929,-1.103765 6.47098,-3.692609 0.608995,-1.386547 -4.168336,-2.545779 -2.857493,-3.408795 3.132906,-2.052918 14.414703,-2.771982 9.401657,-8.128175 L 27.343096,8.0539794 C 25.739431,6.4375495 23.021778,6.3471889 21.439232,7.8576788 Z M 35.370373,33.736992 c -0.02181,0.65578 5.057429,1.199808 4.815749,0.0038 -0.339635,-2.012071 -4.187026,-1.983681 -4.815749,-0.0038 z m -21.825232,2.744419 c 1.122558,1.03771 2.912345,-0.122003 3.521341,-1.508548 -1.075744,-1.505087 -5.282234,-0.08184 -3.521341,1.508548 z M 34.69994,35.090233 c -1.480528,1.263784 0.160603,2.693885 1.596398,1.835022 0.383153,-0.237356 0.01755,-1.468736 -1.596398,-1.835022 z" />
  <path
     style="opacity:1;fill:url(#linearGradient944);fill-opacity:1;stroke-width:0.35998923"
     d="M 38.363456,33.065779 A 8.8773329,13.28159 51.253564 0 1 32.219018,43.154623 8.8773329,13.28159 51.253564 0 1 30.57242,44.32406 L 46,35.944395 a 8.7514361,5.8494055 36.253564 0 1 -6.854312,-2.252831 8.7514361,5.8494055 36.253564 0 1 -0.782232,-0.625785 z"
     id="rect19" />
  <path
     style="opacity:1;fill:url(#linearGradient952);fill-opacity:1;stroke-width:0.35998923"
     d="m 46,35.944395 -18.102816,9.830707 -0.002,-0.09386 a 8.8773329,13.28159 51.253564 0 1 -0.660986,0.291381 l 15.861719,0.02738 c 1.590559,0.0028 2.875239,-1.274373 2.880572,-2.864926 z"
     id="path923" />
  <path
     style="fill:url(#linearGradient4691);fill-opacity:1;stroke-width:0.27073181"
     id="path23"
     d="m 26.227278,9.308605 4.24661,4.62104 c 0.391041,0.417806 0.363256,1.253482 0.112497,1.488027 l -2.125059,-1.851799 -0.518394,2.600503 -1.774429,-1.030532 -3.001102,1.76232 -0.840798,-3.941074 -1.676944,3.344606 -3.909121,-0.156956 c -0.755038,-0.0251 -0.621183,-0.803277 0.186812,-1.559035 1.59351,-1.647197 4.682603,-4.432098 5.659565,-5.3981328 1.003926,-0.9651399 2.701865,-0.881696 3.640363,0.1210409 z" />
</svg>
