<?xml version="1.0" encoding="UTF-8" standalone="no"?>
<svg
   xmlns:dc="http://purl.org/dc/elements/1.1/"
   xmlns:cc="http://creativecommons.org/ns#"
   xmlns:rdf="http://www.w3.org/1999/02/22-rdf-syntax-ns#"
   xmlns:svg="http://www.w3.org/2000/svg"
   xmlns="http://www.w3.org/2000/svg"
   xmlns:xlink="http://www.w3.org/1999/xlink"
   width="48px"
   height="48px"
   viewBox="0 0 48 48"
   version="1.1"
   id="SVGRoot">
  <defs
     id="defs1738">
    <linearGradient
       id="linearGradient891">
      <stop
         style="stop-color:#0a84ff;stop-opacity:1"
         offset="0"
         id="stop887" />
      <stop
         style="stop-color:#3bc7ff;stop-opacity:1"
         offset="1"
         id="stop889" />
    </linearGradient>
    <linearGradient
       gradientTransform="matrix(0.98936642,0,0,0.98936642,-400.51891,-500.89861)"
       y2="515.00299"
       y1="506.28787"
       x2="433.43347"
       x1="392.23544"
       gradientUnits="userSpaceOnUse"
       id="linearGradient905">
      <stop
         style="stop-color:#fa0606;stop-opacity:1"
         id="stop901"
         stop-color="#db4437"
         offset="0" />
      <stop
         style="stop-color:#fd3434;stop-opacity:1"
         id="stop903"
         stop-color="#fd5757"
         offset="1" />
    </linearGradient>
    <linearGradient
       gradientTransform="matrix(0.98936642,0,0,0.98936642,-400.51891,-500.89861)"
       y2="547.45264"
       y1="513.60431"
       x2="411.88696"
       x1="429.45596"
       gradientUnits="userSpaceOnUse"
       id="linearGradient895">
      <stop
         style="stop-color:#fef800;stop-opacity:1"
         id="stop891"
         stop-color="#ffcd40"
         offset="0" />
      <stop
         style="stop-color:#fcfd2f;stop-opacity:1"
         id="stop893"
         stop-color="#fee145"
         offset="1" />
    </linearGradient>
    <linearGradient
       id="b"
       gradientUnits="userSpaceOnUse"
       x1="408.52402"
       x2="386.44293"
       y1="547.30316"
       y2="502.51505"
       gradientTransform="matrix(0.98936642,0,0,0.98936642,-400.51891,-500.89861)">
      <stop
         offset="0"
         stop-color="#0f9d58"
         id="stop7"
         style="stop-color:#14c600;stop-opacity:1" />
      <stop
         offset="1"
         stop-color="#00d455"
         id="stop9"
         style="stop-color:#71ff2f;stop-opacity:1" />
    </linearGradient>
    <linearGradient
       xlink:href="#a"
       id="linearGradient873"
       gradientUnits="userSpaceOnUse"
       x1="10.071"
       y1="267.10501"
       x2="396.74799"
       y2="267.10501"
       gradientTransform="matrix(-3.7011155e-4,-0.10544178,0.08212957,-4.7516829e-4,2.1380763,44.774146)" />
    <linearGradient
       id="a"
       gradientUnits="userSpaceOnUse"
       x1="10.071"
       x2="396.74799"
       y1="267.10501"
       y2="267.10501">
      <stop
         offset="0"
         stop-color="#161719"
         id="stop2" />
      <stop
         offset="1"
         stop-color="#4c535b"
         id="stop4" />
    </linearGradient>
    <linearGradient
       id="b-3"
       gradientUnits="userSpaceOnUse"
       x1="393.17184"
       x2="393.17184"
       y1="515.6828"
       y2="506.30667"
       gradientTransform="matrix(2.1413368,0,0,2.5782126,-840.05925,-1287.1312)"
       spreadMethod="pad">
      <stop
         offset="0"
         stop-color="#3ee818"
         id="stop7-6"
         style="stop-color:#0ab9ff;stop-opacity:1" />
      <stop
         offset="1"
         stop-color="#018dcb"
         id="stop9-7"
         style="stop-color:#09fee7;stop-opacity:1" />
    </linearGradient>
    <linearGradient
       gradientTransform="matrix(1.0356723,0,0,1.0406441,-0.85613519,-1.7761177)"
       xlink:href="#linearGradient891"
       id="linearGradient893"
       x1="24.588072"
       y1="41.23737"
       x2="24.010084"
       y2="12.093443"
       gradientUnits="userSpaceOnUse" />
  </defs>
  <metadata
     id="metadata1741">
    <rdf:RDF>
      <cc:Work
         rdf:about="">
        <dc:format>image/svg+xml</dc:format>
        <dc:type
           rdf:resource="http://purl.org/dc/dcmitype/StillImage" />
        <dc:title></dc:title>
      </cc:Work>
    </rdf:RDF>
  </metadata>
  <path
     style="fill:#ececec;stroke-width:0.09122406"
     d="m 42.75907,3.7163768 -9.932718,0.057951 c -0.0039,-7e-6 -0.0072,-0.00193 -0.01114,-0.00193 L 5.1053262,3.9327284 C 3.9956126,3.9391531 3.0830987,4.203083 3.0913111,6.5424291 l 0.118799,33.5532949 c 0.00827,2.343067 0.9210085,2.592941 2.0307212,2.58652 l 9.9327177,-0.05795 c 0.0039,7e-6 0.009,0.002 0.01299,0.002 l 27.70989,-0.160382 c 1.112289,-0.0065 2.019745,-0.450699 2.01216,-2.611632 L 44.789792,6.300985 C 44.781619,3.961511 43.871358,3.7099604 42.75907,3.7163958 Z"
     id="path916" />
  <path
     id="path12"
     d="m 43.738461,2.6994934 -10.451795,0.060971 c -0.0041,-7.2e-6 -0.008,-0.00208 -0.01214,-0.00208 L 4.1179275,2.9270781 C 2.9502909,2.9338423 1.9914178,3.2115444 2.0000584,5.6729965 L 2.1254711,40.977659 c 0.0087,2.465368 0.9684385,2.728284 2.1360741,2.721528 L 14.71334,43.638216 c 0.0041,7e-6 0.008,0.0021 0.01214,0.0021 l 29.156603,-0.168641 c 1.170347,-0.0068 2.12585,-0.474225 2.117869,-2.747951 L 45.874535,5.4189889 c -0.0086,-2.4615864 -0.965728,-2.726267 -2.136074,-2.7194955 z m -0.463221,2.467465 c 0.348475,-0.00198 0.637617,0.3624792 0.639205,0.8150356 l 0.01015,2.5629919 c 0.0016,0.4490768 -0.285945,0.8211445 -0.635158,0.8231654 l -2.059208,0.012196 c -0.351187,0.00198 -0.639652,-0.3659602 -0.641227,-0.8150349 l -0.0081,-2.562993 c -0.0016,-0.4525563 0.283971,-0.8211337 0.635158,-0.8231661 z m -5.230954,0.030491 c 0.351186,-0.00208 0.637616,0.3624792 0.639203,0.8150355 l 0.01015,2.562992 c 0.0016,0.4490767 -0.284007,0.821134 -0.635193,0.8231654 l -2.057185,0.012196 C 35.745441,9.4122954 35.52763,9.2167501 35.424763,8.9392967 L 35.412623,5.689317 C 35.512907,5.4092692 35.7299,5.2111327 35.987098,5.2096446 Z m -5.230954,0.030491 c 0.08712,-5.047e-4 0.17059,0.022062 0.246781,0.063011 5.85e-4,3.101e-4 0.0014,-3.132e-4 0.0021,0 0.227885,0.12323 0.389212,0.4132606 0.3904,0.7520277 l 0.0081,2.562993 c 7.89e-4,0.2245276 -0.06902,0.429674 -0.184075,0.5792634 -0.115054,0.1495895 -0.274454,0.2428905 -0.44906,0.243901 l -2.055163,0.012196 c -0.08829,4.943e-4 -0.172084,-0.021635 -0.248804,-0.063011 -0.07672,-0.041376 -0.146089,-0.1027011 -0.204303,-0.1768283 -0.116462,-0.148246 -0.189389,-0.352692 -0.190177,-0.57723 l -0.01015,-2.5629919 c -7.77e-4,-0.2262787 0.07072,-0.430528 0.186098,-0.5792652 0.05769,-0.074364 0.127877,-0.1350028 0.204302,-0.1768283 0.07521,-0.040627 0.158299,-0.064541 0.244758,-0.06504 z m -5.230955,0.030491 c 0.08779,-5.078e-4 0.170463,0.022062 0.246782,0.063011 5.88e-4,3.122e-4 0.0014,-3.153e-4 0.0021,0 0.07579,0.040918 0.144687,0.1015148 0.20228,0.1747949 0.11585,0.1474 0.187326,0.3509551 0.18812,0.5772328 l 0.0081,2.5629912 c 7.77e-4,0.2245388 -0.06926,0.4296747 -0.184074,0.5792652 -0.114805,0.1495905 -0.273468,0.2428853 -0.449061,0.243901 l -2.05314,0.012196 C 25.455354,9.4723437 25.371369,9.4501884 25.294681,9.4088124 25.064614,9.2847083 24.901418,8.9915589 24.900236,8.6547523 l -0.01015,-2.5629922 c -0.0016,-0.4508206 0.282496,-0.8163125 0.633136,-0.8211328 z m -5.232977,0.03049 c 0.08813,-5.099e-4 0.172117,0.022072 0.248804,0.063011 0.0772,0.04097 0.145853,0.098497 0.204303,0.1727625 0.116014,0.1473989 0.189349,0.3529875 0.190143,0.5792652 l 0.0081,2.5629912 c 3.89e-4,0.1122688 -0.01659,0.2189369 -0.04854,0.3170718 -0.09585,0.2944023 -0.322236,0.5045646 -0.586611,0.5060943 l -2.055155,0.012196 C 20.134367,9.5033518 19.973683,9.4099987 19.857337,9.2624781 19.741237,9.1142279 19.667983,8.909784 19.667194,8.6852453 l -0.0081,-2.5629912 C 19.658318,5.8959764 19.728114,5.691724 19.843169,5.5429889 19.95855,5.3942517 20.117674,5.3021422 20.294253,5.3011203 Z m -5.228931,0.030491 c 6.75e-4,-4.1e-6 0.0013,1.1e-6 0.0021,0 0.174895,-0.00101 0.332873,0.088372 0.449062,0.2357704 0.05809,0.073698 0.106784,0.1623967 0.139572,0.2601611 0.03279,0.097768 0.05017,0.2059653 0.05057,0.3191041 l 0.01015,2.5609589 c 0.0016,0.4490764 -0.285287,0.8231734 -0.635159,0.8251985 L 15.07958,9.532802 C 14.903835,9.5338395 14.744923,9.4404761 14.628496,9.2929658 14.51256,9.1447053 14.43914,8.9402718 14.438352,8.715733 l -0.0081,-2.5629912 c -8.75e-4,-0.2262797 0.06909,-0.4305322 0.183976,-0.5792662 0.115467,-0.1487393 0.274833,-0.2408488 0.451084,-0.2418686 z m -5.232977,0.030491 c 0.255935,-0.00146 0.473217,0.1932133 0.576497,0.4715419 l 0.01214,3.252011 C 12.37425,9.3513074 12.156541,9.549622 11.901654,9.5510965 L 9.8464919,9.5632929 C 9.4933349,9.5653742 9.2068421,9.1953014 9.2052658,8.7462249 L 9.1951142,6.1832306 C 9.1935607,5.7306742 9.479139,5.3621083 9.832295,5.3600655 Z m -5.2289309,0.028451 c 0.353157,-0.00208 0.6396375,0.3624793 0.6412262,0.8150356 l 0.00808,2.5629923 C 7.3094173,9.2054591 7.0265228,9.5795332 6.6727092,9.5815801 L 4.617547,9.5917784 C 4.26439,9.5938597 3.9778961,9.2258203 3.9763198,8.7767429 L 3.9682398,6.2137152 C 3.9666898,5.7611589 4.250241,5.3925929 4.603399,5.3905491 Z M 43.386494,36.807025 c 0.348477,-0.002 0.637623,0.362978 0.639204,0.813003 l 0.01015,2.562992 c 0.0016,0.451714 -0.285942,0.823177 -0.635158,0.825198 l -2.059244,0.0122 c -0.351187,0.0021 -0.639642,-0.365354 -0.641227,-0.817068 l -0.0081,-2.562993 c -0.0016,-0.450028 0.283971,-0.821135 0.635158,-0.823166 z m -5.230954,0.02845 c 0.351186,-0.0021 0.637623,0.365011 0.639203,0.815035 l 0.01015,2.562992 c 0.0016,0.451714 -0.283972,0.823166 -0.635158,0.825199 l -2.057186,0.0102 c -0.256412,0.0015 -0.473938,-0.194824 -0.576497,-0.473574 l -0.01214,-3.247948 c 0.100305,-0.279476 0.317328,-0.478182 0.574475,-0.479673 z m -5.230954,0.03049 c 0.08712,-4.95e-4 0.17059,0.02195 0.246781,0.06301 5.85e-4,3.12e-4 0.0015,-3.14e-4 0.0021,0 0.07567,0.04104 0.142496,0.101473 0.200257,0.174796 0.11619,0.147498 0.189353,0.352219 0.190143,0.577232 l 0.0081,2.562992 c 7.76e-4,0.225856 -0.06903,0.432035 -0.184075,0.581298 -0.115052,0.149263 -0.274453,0.240858 -0.449061,0.241868 l -2.055162,0.0122 c -0.08829,4.94e-4 -0.172085,-0.02183 -0.248804,-0.06301 C 30.404708,40.89283 30.24161,40.603108 30.24042,40.264323 l -0.01015,-2.565025 c -7.76e-4,-0.225015 0.07072,-0.42839 0.186097,-0.577233 0.115059,-0.148099 0.271946,-0.242889 0.447039,-0.243901 z m -5.232978,0.03049 c 0.08779,-5.2e-4 0.172486,0.02195 0.248805,0.06301 5.88e-4,3.15e-4 0.0015,-3.16e-4 0.0021,0 0.228258,0.123578 0.389216,0.415156 0.3904,0.752028 l 0.0081,2.562993 c 7.77e-4,0.225856 -0.06927,0.432037 -0.184074,0.581298 -0.114805,0.14926 -0.273468,0.240852 -0.449061,0.241868 l -2.05314,0.0122 c -0.08863,5.22e-4 -0.175806,-0.0214 -0.252849,-0.06301 -0.229367,-0.12389 -0.389213,-0.413893 -0.3904,-0.752029 l -0.01015,-2.565024 c -0.0011,-0.337519 0.159193,-0.63026 0.388377,-0.756094 0.07534,-0.04075 0.157652,-0.06454 0.244758,-0.06504 z m -5.230954,0.03049 c 0.08813,-5.2e-4 0.172117,0.02195 0.248804,0.06301 0.07721,0.04109 0.145852,0.100475 0.204303,0.174796 0.116015,0.14751 0.189353,0.35222 0.190143,0.577232 l 0.0081,2.562993 c 3.89e-4,0.112928 -0.01659,0.220847 -0.04854,0.319104 -0.03195,0.09826 -0.07805,0.187562 -0.135528,0.262194 -0.05773,0.07464 -0.127909,0.134778 -0.204302,0.176828 -0.07575,0.04145 -0.159327,0.06453 -0.246781,0.06504 l -2.057185,0.0122 c -0.176072,0.001 -0.33474,-0.09063 -0.451084,-0.237803 -0.05805,-0.07397 -0.106924,-0.162275 -0.139574,-0.260161 -0.03266,-0.09788 -0.05018,-0.206176 -0.05057,-0.319104 l -0.0081,-2.562992 c -7.77e-4,-0.225014 0.06902,-0.430425 0.184074,-0.579266 0.115382,-0.148842 0.274505,-0.240846 0.451084,-0.241868 z m -5.228931,0.03049 c 0.174894,-9.88e-4 0.334894,0.09031 0.451084,0.237804 0.05809,0.07375 0.106784,0.160565 0.139572,0.258129 0.03279,0.09756 0.05018,0.204564 0.05057,0.31707 l 0.01015,2.565026 c 0.0011,0.338784 -0.160305,0.631983 -0.388377,0.758125 -0.07627,0.04205 -0.160351,0.06453 -0.248804,0.06504 l -2.055162,0.0122 c -0.175782,0.001 -0.334696,-0.09063 -0.451121,-0.237813 -0.115935,-0.147932 -0.18935,-0.353409 -0.190144,-0.579265 l -0.0081,-2.562993 c -7.78e-4,-0.225012 0.06918,-0.430425 0.184074,-0.579264 0.115464,-0.148844 0.274835,-0.24085 0.451084,-0.241869 z m -5.232978,0.03048 c 0.255343,-0.0015 0.472909,0.192689 0.576498,0.469509 l 0.01214,3.256078 c -0.1019,0.278038 -0.319614,0.474132 -0.574475,0.475606 l -2.0551621,0.0122 c -0.353157,0.0021 -0.6396405,-0.365358 -0.6412261,-0.81707 l -0.01015,-2.562994 C 9.3048147,37.37122 9.590392,37.002156 9.943549,37.000113 Z m -5.2289309,0.03049 c 0.353158,-0.0021 0.6396478,0.362977 0.6412272,0.813003 l 0.00808,2.565025 c 0.00155,0.451712 -0.2813445,0.821118 -0.6351581,0.823165 l -2.0551623,0.0122 c -0.353157,0.0021 -0.6396415,-0.365358 -0.6412271,-0.81707 l -0.00808,-2.562993 c -0.00155,-0.450026 0.2820012,-0.81909 0.6351582,-0.821133 z"
     style="fill:url(#linearGradient873);stroke-width:0.09122406" />
  <path
     style="opacity:1;fill:url(#linearGradient893);fill-opacity:1;stroke-width:2.39118409"
     id="path875"
     d="M 3.8763798,10.515451 H 44.12362 V 35.88323 H 3.8763798 Z" />
  <g
     transform="matrix(0.02595006,-0.01267731,0.01128179,0.02916001,15.765308,19.761415)"
     id="g32"
     style="opacity:0.82999998;fill:#ffffff;stroke-width:0.98027718">
    <path
       d="m 65.459,55.53 -61.277,8.903 44.331,43.222 -10.458,61.028 54.806,-28.82 54.806,28.82 -10.46,-61.028 L 181.538,64.433 120.263,55.53 92.861,0 Z"
       id="path20"
       style="stroke-width:0.98027718" />
    <path
       d="m 326.207,248.92 -35.937,72.82 -80.344,11.676 58.133,56.669 -13.724,80.028 71.872,-37.792 71.874,37.792 -13.727,-80.028 58.134,-56.669 -80.345,-11.676 z"
       id="path22"
       style="stroke-width:0.98027718" />
    <path
       d="m 388.514,38.901 -33.748,23.645 38.108,15.658 23.66,33.741 L 432.183,73.829 465.931,50.185 427.823,34.527 404.164,0.786 Z"
       id="path24"
       style="stroke-width:0.98027718" />
    <path
       d="m 127.18,272.417 23.797,-21.132 -30.637,-8.65 -21.15,-23.821 -8.641,30.652 -23.814,21.135 30.639,8.648 21.148,23.822 z"
       id="path26"
       style="stroke-width:0.98027718" />
    <path
       d="m 93.353,401.482 43.576,-14.354 -43.576,-14.365 -14.371,-43.576 -14.356,43.576 -43.577,14.365 43.577,14.354 14.356,43.577 z"
       id="path28"
       style="stroke-width:0.98027718" />
    <path
       d="m 282.801,148.458 -42.652,-16.936 24.228,38.971 -16.927,42.645 38.955,-24.23 42.652,16.936 -24.23,-38.971 16.928,-42.644 z"
       id="path30"
       style="stroke-width:0.98027718" />
  </g>
</svg>
