<?xml version="1.0" encoding="UTF-8" standalone="no"?>
<svg
   xmlns:dc="http://purl.org/dc/elements/1.1/"
   xmlns:cc="http://creativecommons.org/ns#"
   xmlns:rdf="http://www.w3.org/1999/02/22-rdf-syntax-ns#"
   xmlns:svg="http://www.w3.org/2000/svg"
   xmlns="http://www.w3.org/2000/svg"
   xmlns:xlink="http://www.w3.org/1999/xlink"
   xmlns:sodipodi="http://sodipodi.sourceforge.net/DTD/sodipodi-0.dtd"
   xmlns:inkscape="http://www.inkscape.org/namespaces/inkscape"
   height="48"
   width="48"
   version="1.1"
   id="svg28"
   sodipodi:docname="libreoffice-base.svg"
   inkscape:version="0.92.2 2405546, 2018-03-11">
  <metadata
     id="metadata34">
    <rdf:RDF>
      <cc:Work
         rdf:about="">
        <dc:format>image/svg+xml</dc:format>
        <dc:type
           rdf:resource="http://purl.org/dc/dcmitype/StillImage" />
      </cc:Work>
    </rdf:RDF>
  </metadata>
  <defs
     id="defs32">
    <linearGradient
       gradientTransform="translate(-384.57143,-510.98444)"
       y2="503.15005"
       y1="544.31207"
       xlink:href="#a-3"
       x2="407.0036"
       x1="407.0036"
       gradientUnits="userSpaceOnUse"
       id="b-3" />
    <linearGradient
       id="linearGradient953">
      <stop
         id="stop2-6"
         stop-color="#3889e9"
         offset="0" />
      <stop
         id="stop4-7"
         stop-color="#5ea5fb"
         offset="1" />
    </linearGradient>
    <linearGradient
       gradientTransform="translate(-382.94817,-511.41555)"
       y2="503.15005"
       y1="544.31207"
       xlink:href="#a-3"
       x2="407.0036"
       x1="407.0036"
       gradientUnits="userSpaceOnUse"
       id="b-3-9" />
    <linearGradient
       gradientTransform="translate(55.75,-1.2929688)"
       inkscape:collect="always"
       xlink:href="#linearGradient889"
       id="linearGradient891"
       x1="-31.749992"
       y1="47.293053"
       x2="-31.749992"
       y2="3.2930527"
       gradientUnits="userSpaceOnUse" />
    <linearGradient
       inkscape:collect="always"
       id="linearGradient889">
      <stop
         style="stop-color:#a058be;stop-opacity:1"
         offset="0"
         id="stop885" />
      <stop
         style="stop-color:#cf90e9;stop-opacity:1"
         offset="1"
         id="stop887" />
    </linearGradient>
    <linearGradient
       id="linearGradient1068"
       gradientTransform="matrix(0.75298225,0,0,1,8.617543,0)"
       gradientUnits="userSpaceOnUse"
       x1="33.461716"
       x2="34.116894"
       xlink:href="#a"
       y1="1013.622"
       y2="1037.2084" />
    <linearGradient
       id="linearGradient1072">
      <stop
         offset="0"
         stop-color="#f6fbff"
         id="stop2-7" />
      <stop
         offset="1"
         stop-color="#eaeff2"
         id="stop4-0" />
    </linearGradient>
    <linearGradient
       id="b-9"
       gradientTransform="matrix(1.8137796,0,0,1.7592729,-16.353379,-1778.7364)"
       gradientUnits="userSpaceOnUse"
       x1="17"
       x2="17"
       y1="1036.3622"
       y2="1012.3622">
      <stop
         offset="0"
         stop-color="#8e44ad"
         id="stop7-3" />
      <stop
         offset="1"
         stop-color="#c370e5"
         id="stop9-6" />
    </linearGradient>
    <linearGradient
       id="d-0"
       gradientUnits="userSpaceOnUse"
       x1="15.23138"
       x2="25.822527"
       xlink:href="#a"
       y1="1032.542"
       y2="1019.6814" />
  </defs>
  <sodipodi:namedview
     pagecolor="#ffffff"
     bordercolor="#666666"
     borderopacity="1"
     objecttolerance="10"
     gridtolerance="10"
     guidetolerance="10"
     inkscape:pageopacity="0"
     inkscape:pageshadow="2"
     inkscape:window-width="1366"
     inkscape:window-height="699"
     id="namedview30"
     showgrid="false"
     inkscape:snap-smooth-nodes="true"
     inkscape:snap-intersection-paths="true"
     inkscape:object-paths="true"
     inkscape:snap-midpoints="true"
     inkscape:zoom="7.1741876"
     inkscape:cx="11.245999"
     inkscape:cy="26.757247"
     inkscape:window-x="0"
     inkscape:window-y="0"
     inkscape:window-maximized="1"
     inkscape:current-layer="svg28" />
  <linearGradient
     id="a">
    <stop
       offset="0"
       stop-color="#f6fbff"
       id="stop2" />
    <stop
       offset="1"
       stop-color="#eaeff2"
       id="stop4" />
  </linearGradient>
  <linearGradient
     id="b"
     gradientTransform="matrix(1.8137796,0,0,1.7592729,-16.353379,-1778.7364)"
     gradientUnits="userSpaceOnUse"
     x1="17"
     x2="17"
     y1="1036.3622"
     y2="1012.3622">
    <stop
       offset="0"
       stop-color="#8e44ad"
       id="stop7" />
    <stop
       offset="1"
       stop-color="#c370e5"
       id="stop9" />
  </linearGradient>
  <linearGradient
     id="c"
     gradientTransform="matrix(0.75298225,0,0,1,8.617543,0)"
     gradientUnits="userSpaceOnUse"
     x1="33.461716"
     x2="34.116894"
     xlink:href="#a"
     y1="1013.622"
     y2="1037.2084" />
  <linearGradient
     id="d"
     gradientUnits="userSpaceOnUse"
     x1="15.231380166266"
     x2="25.822527731366"
     xlink:href="#a"
     y1="1032.54204954774"
     y2="1019.68138075354"
     gradientTransform="matrix(1.7592729,0,0,1.7592729,82.222314,-1750.3378)" />
  <circle
     style="fill:url(#b-3-9)"
     id="circle22"
     r="0"
     cy="12.315402"
     cx="25.5254" />
  <text
     xml:space="preserve"
     style="font-style:normal;font-weight:normal;font-size:40px;line-height:1.25;font-family:sans-serif;letter-spacing:0px;word-spacing:0px;fill:#000000;fill-opacity:1;stroke:none"
     x="-86.415329"
     y="17.488659"
     id="text879"><tspan
       sodipodi:role="line"
       id="tspan877"
       x="-86.415329"
       y="52.879284" /></text>
  <path
     inkscape:connector-curvature="0"
     style="opacity:1;fill:url(#linearGradient891);fill-opacity:1;stroke:none;stroke-width:3;stroke-linecap:round;stroke-linejoin:miter;stroke-miterlimit:4;stroke-dasharray:none;stroke-opacity:1;paint-order:stroke fill markers"
     d="M 7,2 V 46 H 41 V 16.828125 L 27.585938,3.4140624 26.171875,2 Z"
     id="rect883" />
  <path
     inkscape:connector-curvature="0"
     style="opacity:1;fill:#a45fc1;fill-opacity:1;stroke:none;stroke-width:3;stroke-linecap:round;stroke-linejoin:miter;stroke-miterlimit:4;stroke-dasharray:none;stroke-opacity:1;paint-order:stroke fill markers"
     d="M 29,2 41,14 V 2 Z"
     id="rect893" />
  <path
     inkscape:connector-curvature="0"
     style="fill:#ffffff;stroke-width:1.75927305"
     id="path24"
     d="m 30.75629,18.797313 c 0.04451,-0.119069 0.07601,-0.240099 0.07601,-0.368719 0,-1.577586 -3.520684,-2.428596 -6.834075,-2.428596 -3.310116,0 -6.829861,0.85101 -6.829861,2.428596 0,0.129536 0.03088,0.250697 0.07591,0.369765 l -0.01766,0.0314 c -0.15145,0.265877 -0.226329,0.534369 -0.226329,0.798675 v 1.95193 c 0,0.300549 0.0977,0.589061 0.270843,0.86187 l -0.02262,0.03795 c -0.165125,0.277258 -0.24807,0.558049 -0.24807,0.8357 v 1.951408 c 0,0.290997 0.09223,0.57035 0.255929,0.83557 l -0.0083,0.01701 c -0.165135,0.276735 -0.248069,0.55805 -0.248069,0.835047 v 1.9518 c 0,1.734861 3.073955,3.093283 6.997888,3.093283 3.928177,0 7.002116,-1.358422 7.002116,-3.093283 v -1.9518 c 0,-0.27739 -0.083,-0.559228 -0.250129,-0.835571 l -0.0072,-0.01701 c 0.162499,-0.265743 0.256959,-0.544834 0.256959,-0.836486 v -1.951668 c 0,-0.277651 -0.083,-0.55962 -0.250122,-0.836356 l -0.02169,-0.03663 c 0.173012,-0.273071 0.271772,-0.56119 0.271772,-0.862786 v -1.951801 c 0,-0.264174 -0.076,-0.53332 -0.226318,-0.799457 l -0.01787,-0.0314 z m -0.505961,10.102598 c 0,1.120679 -2.565929,2.367753 -6.251935,2.367753 -3.682525,0 -6.248919,-1.247074 -6.248919,-2.367753 V 27.0643 c 1.149232,1.019014 3.513558,1.669308 6.248919,1.669308 2.739111,0 5.103354,-0.650556 6.251935,-1.670355 z m 0,-3.634193 c 0,1.119632 -2.565929,2.367492 -6.251935,2.367492 -3.682525,0 -6.248919,-1.24786 -6.248919,-2.367492 v -1.836134 c 1.149232,1.018621 3.513558,1.669307 6.248919,1.669307 2.739111,0 5.103354,-0.650686 6.251935,-1.670354 z m 0,-3.686923 c 0,1.119632 -2.565929,2.367622 -6.251935,2.367622 -3.682525,0 -6.248919,-1.247335 -6.248919,-2.367622 v -1.624298 c 1.123082,0.921665 3.727225,1.399508 6.248919,1.399508 2.525052,0 5.12809,-0.477843 6.251935,-1.399508 z" />
</svg>
