<?xml version="1.0" encoding="UTF-8" standalone="no"?>
<svg
   xmlns:dc="http://purl.org/dc/elements/1.1/"
   xmlns:cc="http://creativecommons.org/ns#"
   xmlns:rdf="http://www.w3.org/1999/02/22-rdf-syntax-ns#"
   xmlns:svg="http://www.w3.org/2000/svg"
   xmlns="http://www.w3.org/2000/svg"
   xmlns:xlink="http://www.w3.org/1999/xlink"
   id="SVGRoot"
   version="1.1"
   viewBox="0 0 48 48"
   height="48px"
   width="48px">
  <defs
     id="defs1146">
    <linearGradient
       id="linearGradient880">
      <stop
         style="stop-color:#3ecdf6;stop-opacity:1;"
         offset="0"
         id="stop876" />
      <stop
         style="stop-color:#97e4fa;stop-opacity:1"
         offset="1"
         id="stop878" />
    </linearGradient>
    <linearGradient
       gradientUnits="userSpaceOnUse"
       y2="10.894871"
       x2="14.094196"
       y1="7.2994127"
       x1="6.4718246"
       id="linearGradient1094"
       xlink:href="#linearGradient1092"
       gradientTransform="translate(-0.008988,-0.258227)" />
    <linearGradient
       id="linearGradient1092">
      <stop
         id="stop1088"
         offset="0"
         style="stop-color:#ffd911;stop-opacity:1;" />
      <stop
         id="stop1090"
         offset="1"
         style="stop-color:#ffdd27;stop-opacity:1" />
    </linearGradient>
    <linearGradient
       gradientUnits="userSpaceOnUse"
       y2="26.440678"
       x2="22.271187"
       y1="30.813559"
       x1="22.271187"
       id="linearGradient1086"
       xlink:href="#linearGradient1084"
       gradientTransform="translate(-0.008988,-0.258227)" />
    <linearGradient
       id="linearGradient1084">
      <stop
         id="stop1080"
         offset="0"
         style="stop-color:#4ec300;stop-opacity:1" />
      <stop
         id="stop1082"
         offset="1"
         style="stop-color:#94ff4d;stop-opacity:1" />
    </linearGradient>
    <linearGradient
       gradientUnits="userSpaceOnUse"
       y2="19.188858"
       x2="10.644068"
       y1="30.725454"
       x1="10.644068"
       id="linearGradient1068"
       xlink:href="#linearGradient1066"
       gradientTransform="translate(-0.008988,-0.258227)" />
    <linearGradient
       id="linearGradient1066">
      <stop
         id="stop1062"
         offset="0"
         style="stop-color:#183058;stop-opacity:1" />
      <stop
         id="stop1064"
         offset="1"
         style="stop-color:#284f92;stop-opacity:1" />
    </linearGradient>
    <linearGradient
       gradientUnits="userSpaceOnUse"
       y2="19.333633"
       x2="39.013706"
       y1="28.650434"
       x1="39.013706"
       id="linearGradient1076"
       xlink:href="#linearGradient1074"
       gradientTransform="translate(-0.008988,-0.258227)" />
    <linearGradient
       id="linearGradient1074">
      <stop
         id="stop1070"
         offset="0"
         style="stop-color:#264c8c;stop-opacity:1;" />
      <stop
         id="stop1072"
         offset="1"
         style="stop-color:#376ec9;stop-opacity:1" />
    </linearGradient>
    <linearGradient
       gradientTransform="translate(0.008989,-0.294182)"
       gradientUnits="userSpaceOnUse"
       y2="40.665264"
       x2="24.736753"
       y1="31.748529"
       x1="24.305298"
       id="linearGradient899"
       xlink:href="#linearGradient897" />
    <linearGradient
       id="linearGradient897">
      <stop
         id="stop893"
         offset="0"
         style="stop-color:#0055d4;stop-opacity:1" />
      <stop
         id="stop895"
         offset="1"
         style="stop-color:#2ed1c2;stop-opacity:1" />
    </linearGradient>
    <linearGradient
       gradientTransform="matrix(1,0,0,0.97843052,-0.008988,0.63373)"
       gradientUnits="userSpaceOnUse"
       y2="30.122177"
       x2="25.025316"
       y1="7.1964502"
       x1="25.625267"
       id="linearGradient861"
       xlink:href="#a" />
    <linearGradient
       id="a"
       gradientUnits="userSpaceOnUse"
       x1="409.53726"
       x2="409.53726"
       y1="544.22754"
       y2="502.98367">
      <stop
         style="stop-color:#3ecdf6;stop-opacity:1"
         offset="0"
         stop-color="#0a80fd"
         id="stop2" />
      <stop
         style="stop-color:#8fe2fa;stop-opacity:1"
         offset="1"
         stop-color="#56c5fa"
         id="stop4" />
    </linearGradient>
    <linearGradient
       xlink:href="#linearGradient880"
       id="linearGradient882"
       x1="24.570492"
       y1="7.0294371"
       x2="24.570492"
       y2="30.399916"
       gradientUnits="userSpaceOnUse" />
  </defs>
  <metadata
     id="metadata1149">
    <rdf:RDF>
      <cc:Work
         rdf:about="">
        <dc:format>image/svg+xml</dc:format>
        <dc:type
           rdf:resource="http://purl.org/dc/dcmitype/StillImage" />
        <dc:title></dc:title>
      </cc:Work>
    </rdf:RDF>
  </metadata>
  <path
     id="path858"
     d="m 2.008989,31.329991 v 8.978515 c 0,0.894002 0.696921,1.615235 1.5625,1.615235 H 44.44649 c 0.86558,0 1.5625,-0.721233 1.5625,-1.615235 v -8.978515 z"
     style="opacity:1;fill:#1a1a1a;fill-opacity:1;stroke-width:1.55403793" />
  <path
     style="opacity:1;fill:url(#linearGradient882);fill-opacity:1;stroke-width:1.55403793"
     id="path27"
     d="m 3.55343,6.9055 h 40.87516 c 0.86558,0 1.56242,0.719803 1.56242,1.613806 v 30.961507 c 0,0.894002 -0.69684,1.613687 -1.56242,1.613687 H 3.55343 c -0.865579,0 -1.562416,-0.719685 -1.562416,-1.613687 V 8.519306 C 1.991014,7.625303 2.687851,6.9055 3.55343,6.9055 Z" />
  <path
     style="opacity:1;fill:url(#linearGradient899);fill-opacity:1;stroke-width:1.55403793"
     d="m 2.008989,30.465584 v 8.978515 c 0,0.894002 0.696921,1.615235 1.5625,1.615235 H 44.44649 c 0.86558,0 1.5625,-0.721233 1.5625,-1.615235 v -8.978515 z"
     id="path869" />
  <path
     style="opacity:1;vector-effect:none;fill:#ffffff;fill-opacity:1;stroke:none;stroke-width:0;stroke-linecap:butt;stroke-linejoin:miter;stroke-miterlimit:4;stroke-dasharray:none;stroke-dashoffset:0;stroke-opacity:1"
     d="m 33.63328,15.895028 a 2.5342571,2.4276847 0 0 0 -2.29014,1.394796 2.4055783,1.9202196 0 0 0 -0.112034,-0.0044 2.4055783,1.9202196 0 0 0 -2.400528,1.85395 2.1720705,1.3180916 0 0 0 -1.299942,1.205645 2.1720705,1.3180916 0 0 0 1.79916,1.296611 v 0.02021 h 0.372354 6.6447 0.35588 v -0.013 a 2.688671,1.3694459 0 0 0 2.33297,-1.355809 2.688671,1.3694459 0 0 0 -1.5339,-1.234523 3.4177027,1.9261312 0 0 0 0.0198,-0.203589 3.4177027,1.9261312 0 0 0 -1.6344,-1.640255 2.5342571,2.4276847 0 0 0 -2.25389,-1.319712 z"
     id="rect989" />
  <path
     style="fill:url(#linearGradient1076);fill-opacity:1;stroke:none;stroke-width:1px;stroke-linecap:butt;stroke-linejoin:miter;stroke-opacity:1"
     d="M 38.3914,18.546461 C 32.477892,23.947228 25.903698,26.374414 19.479292,29.476148 L 45.99101,30.384351 V 20.86482 c -0.8065,-0.670439 -1.80309,-1.517777 -2.625,-2.306641 -2.76702,1.44129 -5.08731,-0.03773 -4.97461,-0.01172 z"
     id="path968" />
  <path
     style="fill:url(#linearGradient1068);fill-opacity:1;stroke:none;stroke-width:1px;stroke-linecap:butt;stroke-linejoin:miter;stroke-opacity:1"
     d="m 11.590621,18.743726 c 0,0 -3.019932,1.870009 -5.464844,0.863281 -1.025447,-0.422243 -1.201865,-0.502445 -1.3125,-0.55664 l -2.822265,2.822265 v 8.080079 l 2.251953,0.171874 30.070315,0.269532 C 25.836709,27.212684 17.659504,23.797804 11.590621,18.743726 Z m -6.777344,0.306641 0.01758,-0.01758 c 0,0 -0.170722,-0.05744 -0.01758,0.01758 z"
     id="path956" />
  <path
     id="path867"
     d="m 1.991011,30.501422 v -1.143 c 0,0 3.17295,-1.9047 4.06505,-2.0708 0.892067,-0.16618 1.94557,-0.0309 3.02819,0.15485 1.082698,0.18515 2.69907,0.43555 3.20353,0.4512 0.504482,0.016 1.417351,-0.04 2.47808,-0.0983 1.060708,-0.0571 2.81699,-0.10972 3.364789,-0.104 0.5478,0 1.915321,0.0686 3.37315,0.14948 1.45772,0.0811 3.46005,0.21669 3.914243,0.25463 0.454288,0.0377 0.988284,0.10743 1.594339,0.18343 0.60599,0.0754 1.65506,0.18937 2.02631,0.22069 0.371129,0.0308 1.23156,0.1384 2.229919,0.22194 0.998339,0.0834 2.595999,0.112 3.057339,0.0811 0.46139,-0.0309 1.42846,-0.34148 2.50624,-0.62777 1.07773,-0.28617 2.26611,-0.54823 3.16998,-0.48343 0.90393,0.0651 5.98884,1.6669 5.98884,1.6669 v 1.1429 H 7.334811 Z"
     style="fill:url(#linearGradient1086);fill-opacity:1;stroke-width:1" />
  <path
     style="fill:url(#linearGradient1094);fill-opacity:1;fill-rule:evenodd;stroke-width:1;enable-background:new"
     d="M 6.774215,6.905836 C 6.504036,7.509886 6.34648,8.173976 6.34648,8.878492 c 0,2.678271 2.171338,4.849609 4.84961,4.849609 2.678272,0 4.849609,-2.171338 4.849609,-4.849609 0,-0.704516 -0.157555,-1.368606 -0.427735,-1.972656 z"
     id="path941" />
  <path
     style="fill:#d4ff2a;fill-opacity:0;fill-rule:evenodd;stroke:none;stroke-width:1;stroke-opacity:1;enable-background:new"
     d="m 30.453889,6.9055 c -0.572578,0.997799 -0.90516,2.152565 -0.90516,3.385479 0,3.763992 3.051336,6.815328 6.815331,6.815328 3.76399,0 6.81533,-3.051336 6.81533,-6.815328 0,-1.232914 -0.33259,-2.38768 -0.90516,-3.385479 z"
     id="path945" />
  <path
     id="path1000"
     d="m 15.705526,7.377672 a 3.8379169,3.1321764 0 0 1 3.557709,1.963663 1.8055908,1.5866826 0 0 1 1.564887,1.452565 2.4391315,2.1434134 0 0 1 2.259209,2.137415 2.4391315,2.1434134 0 0 1 -2.021691,2.109615 v 0.03368 h -0.417304 -7.462328 -0.399072 v -0.02192 a 3.0192491,2.226923 0 0 1 -2.620297,-2.204777 3.0192491,2.226923 0 0 1 1.722894,-2.008572 3.8379169,3.1321764 0 0 1 -0.02228,-0.329861 3.8379169,3.1321764 0 0 1 3.838275,-3.13181 z"
     style="opacity:1;vector-effect:none;fill:#ffffff;fill-opacity:1;stroke:none;stroke-width:0;stroke-linecap:butt;stroke-linejoin:miter;stroke-miterlimit:4;stroke-dasharray:none;stroke-dashoffset:0;stroke-opacity:1" />
  <path
     style="fill:none;stroke:#ffffff;stroke-width:0.20000002;stroke-linecap:butt;stroke-linejoin:miter;stroke-miterlimit:4;stroke-dasharray:none;stroke-opacity:1"
     d="m 36.67016,33.602609 c 0.96569,-0.300488 1.6885,-0.658826 2.30887,-1.312452 0.7357,0.728294 1.60216,1.097081 2.2975,1.439406"
     id="path1012" />
  <path
     id="path1019"
     d="m 33.285877,37.665017 c 0.892413,-0.301436 1.713963,-0.681532 2.287253,-1.337218 1.20501,0.911177 3.85537,1.829376 4.18144,1.947622"
     style="fill:none;stroke:#ffffff;stroke-width:0.20000002;stroke-linecap:butt;stroke-linejoin:miter;stroke-miterlimit:4;stroke-dasharray:none;stroke-opacity:1" />
  <path
     style="fill:none;stroke:#ffffff;stroke-width:0.20000002;stroke-linecap:butt;stroke-linejoin:miter;stroke-miterlimit:4;stroke-dasharray:none;stroke-opacity:1"
     d="m 29.106349,38.350051 c 1.109153,-0.326108 1.494566,-0.425387 2.672977,-1.4955 0.900336,0.900408 2.113224,1.229231 2.964164,1.652456"
     id="path1021" />
  <path
     style="fill:none;stroke:#ffffff;stroke-width:0.20000002;stroke-linecap:butt;stroke-linejoin:miter;stroke-miterlimit:4;stroke-dasharray:none;stroke-opacity:1"
     d="m 18.869896,33.739799 c 0.892411,-0.301436 1.485148,-0.52899 2.058438,-1.184676 1.253967,1.15596 3.71765,1.750923 4.0289,1.79508"
     id="path1023" />
  <path
     id="path1025"
     d="m 14.868335,34.323138 c 1.109153,-0.326108 1.494565,-0.425387 2.672977,-1.4955 0.900335,0.900408 2.113221,1.229231 2.964158,1.652456"
     style="fill:none;stroke:#ffffff;stroke-width:0.20000002;stroke-linecap:butt;stroke-linejoin:miter;stroke-miterlimit:4;stroke-dasharray:none;stroke-opacity:1" />
  <path
     id="path1031"
     d="m 39.94203,33.081268 c 0.20653,-0.138967 0.59469,-0.130738 1.35607,-0.701224 0.77736,0.775903 1.70178,0.946404 2.13571,0.989974"
     style="fill:none;stroke:#ffffff;stroke-width:0.20000002;stroke-linecap:butt;stroke-linejoin:miter;stroke-miterlimit:4;stroke-dasharray:none;stroke-opacity:1" />
  <path
     id="path1033"
     d="m 6.264481,38.612821 c 1.120989,-0.351034 1.960042,-0.769649 2.680172,-1.533224 0.85402,0.850803 1.85982,1.281625 2.666984,1.681534"
     style="fill:none;stroke:#ffffff;stroke-width:0.20000002;stroke-linecap:butt;stroke-linejoin:miter;stroke-miterlimit:4;stroke-dasharray:none;stroke-opacity:1" />
  <path
     style="fill:none;stroke:#ffffff;stroke-width:0.20000002;stroke-linecap:butt;stroke-linejoin:miter;stroke-miterlimit:4;stroke-dasharray:none;stroke-opacity:1"
     d="m 10.062519,38.003784 c 0.239753,-0.162343 0.690335,-0.15273 1.574149,-0.81918 0.90238,0.906421 1.975456,1.105602 2.47917,1.156501"
     id="path1035" />
  <path
     style="color:#000000;font-style:normal;font-variant:normal;font-weight:normal;font-stretch:normal;font-size:medium;line-height:normal;font-family:sans-serif;font-variant-ligatures:normal;font-variant-position:normal;font-variant-caps:normal;font-variant-numeric:normal;font-variant-alternates:normal;font-feature-settings:normal;text-indent:0;text-align:start;text-decoration:none;text-decoration-line:none;text-decoration-style:solid;text-decoration-color:#000000;letter-spacing:normal;word-spacing:normal;text-transform:none;writing-mode:lr-tb;direction:ltr;text-orientation:mixed;dominant-baseline:auto;baseline-shift:baseline;text-anchor:start;white-space:normal;shape-padding:0;clip-rule:nonzero;display:inline;overflow:visible;visibility:visible;opacity:1;isolation:auto;mix-blend-mode:normal;color-interpolation:sRGB;color-interpolation-filters:linearRGB;solid-color:#000000;solid-opacity:1;vector-effect:none;fill:#ffffff;fill-opacity:1;fill-rule:nonzero;stroke:none;stroke-width:0.20000002;stroke-linecap:butt;stroke-linejoin:miter;stroke-miterlimit:4;stroke-dasharray:none;stroke-dashoffset:0;stroke-opacity:1;color-rendering:auto;image-rendering:auto;shape-rendering:auto;text-rendering:auto;enable-background:accumulate"
     d="m 3.162365,31.847242 -0.07137,0.06953 c -0.322452,0.312413 -0.678723,0.543145 -1.082408,0.735543 v 0.197608 c 0.427941,-0.202178 0.808649,-0.44421 1.153775,-0.764818 0.718255,0.628615 1.543039,0.97397 2.196535,1.269818 l 0.08921,-0.168334 C 4.76653,32.878027 3.9364,32.552778 3.235715,31.914941 Z"
     id="path1037" />
</svg>
