<?xml version="1.0" encoding="UTF-8" standalone="no"?>
<svg
   xmlns:dc="http://purl.org/dc/elements/1.1/"
   xmlns:cc="http://creativecommons.org/ns#"
   xmlns:rdf="http://www.w3.org/1999/02/22-rdf-syntax-ns#"
   xmlns:svg="http://www.w3.org/2000/svg"
   xmlns="http://www.w3.org/2000/svg"
   xmlns:sodipodi="http://sodipodi.sourceforge.net/DTD/sodipodi-0.dtd"
   xmlns:inkscape="http://www.inkscape.org/namespaces/inkscape"
   height="48"
   viewBox="0 0 48 48"
   width="48"
   version="1.1"
   id="svg29"
   sodipodi:docname="network-manager.svg"
   inkscape:version="0.92.2 5c3e80d, 2017-08-06">
  <metadata
     id="metadata35">
    <rdf:RDF>
      <cc:Work
         rdf:about="">
        <dc:format>image/svg+xml</dc:format>
        <dc:type
           rdf:resource="http://purl.org/dc/dcmitype/StillImage" />
      </cc:Work>
    </rdf:RDF>
  </metadata>
  <defs
     id="defs33" />
  <sodipodi:namedview
     pagecolor="#ffffff"
     bordercolor="#666666"
     borderopacity="1"
     objecttolerance="10"
     gridtolerance="10"
     guidetolerance="10"
     inkscape:pageopacity="0"
     inkscape:pageshadow="2"
     inkscape:window-width="709"
     inkscape:window-height="480"
     id="namedview31"
     showgrid="false"
     inkscape:zoom="4.9166667"
     inkscape:cx="24"
     inkscape:cy="24"
     inkscape:window-x="0"
     inkscape:window-y="0"
     inkscape:window-maximized="0"
     inkscape:current-layer="svg29" />
  <linearGradient
     id="a"
     gradientUnits="userSpaceOnUse"
     x1="11.976415852527"
     x2="11.521748365994"
     y1="41.731978513303"
     y2="5.542616037021">
    <stop
       offset="0"
       stop-color="#2a97ff"
       id="stop2" />
    <stop
       offset="1"
       stop-color="#20bcfa"
       id="stop4" />
  </linearGradient>
  <path
     d="m17.19989 6.2163793c-.11773-.003-.25993.002-.44479.002h-13.95956c-.43765 0-.79054.35537-.79054.79594v4.8512697c-.00065.0184-.005.0355-.005.054v29.33993c0 .84441.68084 1.52526 1.52525 1.52526h40.9513c.8444 0 1.52345-.68085 1.52345-1.52526v-29.33993c0-.8444-.67905-1.52525-1.52345-1.52525h-24.45265c-.0145-.0194-.0242-.0298-.0396-.0504-.56424-.7601697-1.41637-2.8095997-1.97184-3.5511197-.3344-.48691-.45896-.56699-.81215-.57624z"
     fill-opacity=".666667"
     id="path7" />
  <path
     d="m17.19989 5.2161793c-.11773-.003-.25993.002-.44479.002h-13.95956c-.43765 0-.79054.35537-.79054.79594v4.8512697c-.00065.0184-.005.0355-.005.054v29.33993c0 .84441.68084 1.52526 1.52525 1.52526h40.9513c.8444 0 1.52345-.68085 1.52345-1.52526v-29.33993c0-.8444-.67905-1.5252497-1.52345-1.5252497h-24.45265c-.0145-.0194-.0242-.0298-.0396-.0504-.56424-.76017-1.41637-2.8096-1.97184-3.55112-.3344-.48691-.45896-.56699-.81215-.57624z"
     fill="url(#a)"
     id="path9" />
  <g
     style="fill:#ffffff;fill-opacity:0.85097997"
     id="g25"
     transform="matrix(0.03594833,0,0,0.03594833,40.41762,7.6331874)">
    <path
       inkscape:connector-curvature="0"
       id="path17"
       d="m -456.70043,534.13427 c -49.553,0 -96.331,21.852 -128.335,59.948 -9.93,11.811 -8.402,29.434 3.428,39.363 5.234,4.396 11.605,6.557 17.958,6.557 7.973,0 15.891,-3.39 21.405,-9.966 21.368,-25.429 52.552,-40.016 85.544,-40.016 32.992,0 64.177,14.587 85.544,40.016 5.533,6.595 13.45,9.966 21.405,9.966 6.353,0 12.724,-2.142 17.958,-6.557 11.83,-9.93 13.357,-27.553 3.428,-39.363 -32.005,-38.096 -78.783,-59.948 -128.335,-59.948 z" />
    <path
       inkscape:connector-curvature="0"
       id="path19"
       d="m -456.71026,411.20563 c -82.545,0 -160.489,36.419 -213.879,99.926 -9.929,11.811 -8.402,29.434 3.428,39.363 5.234,4.396 11.605,6.558 17.958,6.558 7.973,0 15.891,-3.391 21.405,-9.967 42.716,-50.838 105.086,-79.993 171.089,-79.993 66.003,0 128.372,29.155 171.107,79.993 5.533,6.595 13.45,9.967 21.404,9.967 6.353,0 12.724,-2.14299 17.959,-6.558 11.829,-9.929 13.356,-27.57 3.428,-39.363 -53.41,-63.506 -131.354,-99.926 -213.899,-99.926 z" />
    <path
       inkscape:connector-curvature="0"
       id="path21"
       d="m -157.25874,432.76761 c -74.739,-88.935 -183.887,-139.923 -299.442,-139.923 -115.555,0 -224.68501,50.988 -299.44301,139.923 -9.93,11.811 -8.402,29.434 3.428,39.363 5.234,4.396 11.587,6.558 17.939,6.558 7.973,0 15.891,-3.391 21.423,-9.967 64.08401,-76.248 157.63901,-119.989 256.65201,-119.989 99.013,0 192.568,43.741 256.651,119.971 5.533,6.576 13.45,9.967 21.424,9.967 6.353,0 12.724,-2.14299 17.958,-6.558 11.81099,-9.912 13.33999,-27.553 3.41,-39.345 z" />
    <path
       inkscape:connector-curvature="0"
       id="path23"
       d="m -502.72533,682.97548 c 0,25.40596 20.61957,46.02476 46.02469,46.02476 25.40511,0 46.02469,-20.6188 46.02469,-46.02476 -7.77548,-65.32599 -90.56863,-48.66693 -92.04938,0 z" />
  </g>
</svg>
