<?xml version="1.0" encoding="UTF-8" standalone="no"?>
<svg
   xmlns:dc="http://purl.org/dc/elements/1.1/"
   xmlns:cc="http://creativecommons.org/ns#"
   xmlns:rdf="http://www.w3.org/1999/02/22-rdf-syntax-ns#"
   xmlns:svg="http://www.w3.org/2000/svg"
   xmlns="http://www.w3.org/2000/svg"
   xmlns:xlink="http://www.w3.org/1999/xlink"
   width="48"
   height="48"
   viewBox="0 0 48 48"
   version="1.1"
   id="svg102">
  <metadata
     id="metadata106">
    <rdf:RDF>
      <cc:Work
         rdf:about="">
        <dc:format>image/svg+xml</dc:format>
        <dc:type
           rdf:resource="http://purl.org/dc/dcmitype/StillImage" />
        <dc:title></dc:title>
      </cc:Work>
    </rdf:RDF>
  </metadata>
  <defs
     id="defs54">
    <linearGradient
       id="a"
       y1="525.26"
       x1="395.91"
       y2="513.95"
       x2="425.21"
       gradientUnits="userSpaceOnUse"
       gradientTransform="translate(-419.00001,-506.71113)">
      <stop
         stop-color="#da4453"
         id="stop2" />
      <stop
         offset="1"
         stop-color="#ff7336"
         id="stop4" />
    </linearGradient>
    <linearGradient
       id="b"
       y1="44.09"
       x1="26.362"
       y2="33.75"
       x2="44"
       gradientUnits="userSpaceOnUse">
      <stop
         stop-color="#c0392b"
         id="stop7" />
      <stop
         offset="1"
         stop-color="#c0392b"
         stop-opacity="0"
         id="stop9" />
    </linearGradient>
    <linearGradient
       id="c"
       y1="519.85"
       x1="388.57"
       y2="528.52"
       x2="398.82"
       gradientUnits="userSpaceOnUse">
      <stop
         stop-color="#4d4d4d"
         id="stop12" />
      <stop
         offset="1"
         stop-color="#31363b"
         id="stop14" />
    </linearGradient>
    <linearGradient
       id="d"
       y1="509.8"
       x1="394.57"
       y2="537.95"
       x2="422.73"
       gradientUnits="userSpaceOnUse">
      <stop
         stop-color="#e5e7e8"
         id="stop17" />
      <stop
         offset="1"
         stop-color="#dcdee0"
         id="stop19" />
    </linearGradient>
    <linearGradient
       id="e"
       x1="389.57"
       x2="427.57"
       gradientUnits="userSpaceOnUse"
       gradientTransform="matrix(0.70711,0.70711,-0.70711,0.70711,105.48,-635.29)">
      <stop
         stop-color="#fcfcfc"
         id="stop22" />
      <stop
         offset="1"
         stop-color="#eff0f1"
         id="stop24" />
    </linearGradient>
    <linearGradient
       xlink:href="#d"
       id="f"
       y1="133.33"
       x1="771.7"
       y2="160.66"
       gradientUnits="userSpaceOnUse"
       x2="799.04"
       gradientTransform="translate(-444.75968,-516.38672)" />
    <linearGradient
       id="g"
       y1="551.8"
       y2="528.8"
       gradientUnits="userSpaceOnUse"
       x2="0"
       gradientTransform="matrix(0.49677,0,0,0.76923,-191.25657,-404.02657)">
      <stop
         stop-color="#c6cdd1"
         id="stop28" />
      <stop
         offset="1"
         stop-color="#e0e5e7"
         id="stop30" />
    </linearGradient>
    <linearGradient
       id="h"
       y1="557.8"
       y2="505.8"
       gradientUnits="userSpaceOnUse"
       x2="0"
       gradientTransform="matrix(0.61141,0,0,0.76923,-238.90657,-386.33657)">
      <stop
         stop-color="#42a603"
         id="stop33" />
      <stop
         offset="1"
         stop-color="#78da06"
         id="stop35" />
    </linearGradient>
    <linearGradient
       id="i"
       x1="398.57"
       x2="400.57"
       gradientUnits="userSpaceOnUse"
       gradientTransform="matrix(1.5625 0 0 1.53847-227.95-292.82)">
      <stop
         stop-color="#faae2a"
         id="stop38" />
      <stop
         offset="1"
         stop-color="#ffc35a"
         id="stop40" />
    </linearGradient>
    <linearGradient
       xlink:href="#i"
       id="j"
       x1="398.57"
       gradientUnits="userSpaceOnUse"
       x2="400.57"
       gradientTransform="matrix(1.5625,0,0,1.53847,-604.39657,-793.87657)" />
    <linearGradient
       id="k"
       y1="539.88"
       x1="410.5"
       y2="529.73"
       x2="390.65"
       gradientUnits="userSpaceOnUse"
       gradientTransform="matrix(1.1580635,0,0,1.4383458,-439.42451,-734.17514)">
      <stop
         stop-color="#bcfd93"
         id="stop44" />
      <stop
         offset="1"
         stop-color="#fafff5"
         id="stop46" />
    </linearGradient>
    <linearGradient
       id="l"
       y1="34.612"
       x1="14.187"
       y2="54.612"
       x2="34.19"
       gradientUnits="userSpaceOnUse"
       gradientTransform="matrix(1,0,0,1.0440589,7.9999935,-1.176223)">
      <stop
         stop-color="#383e51"
         id="stop49" />
      <stop
         offset="1"
         stop-color="#655c6f"
         stop-opacity="0"
         id="stop51" />
    </linearGradient>
    <linearGradient
       id="h-7"
       y1="557.79999"
       y2="505.79999"
       gradientUnits="userSpaceOnUse"
       x2="0"
       gradientTransform="matrix(0.61141,0,0,0.76923,-238.90657,-386.33657)">
      <stop
         stop-color="#42a603"
         id="stop33-5" />
      <stop
         offset="1"
         stop-color="#78da06"
         id="stop35-3" />
    </linearGradient>
    <linearGradient
       id="g-5"
       y1="551.79999"
       y2="528.79999"
       gradientUnits="userSpaceOnUse"
       x2="0"
       gradientTransform="matrix(0.49677,0,0,0.76923,-191.25657,-404.02657)">
      <stop
         stop-color="#c6cdd1"
         id="stop28-6" />
      <stop
         offset="1"
         stop-color="#e0e5e7"
         id="stop30-2" />
    </linearGradient>
    <linearGradient
       id="i-9"
       x1="398.57001"
       x2="400.57001"
       gradientUnits="userSpaceOnUse"
       gradientTransform="matrix(1.5625,0,0,1.53847,-227.95,-292.82)">
      <stop
         stop-color="#faae2a"
         id="stop38-1" />
      <stop
         offset="1"
         stop-color="#ffc35a"
         id="stop40-2" />
    </linearGradient>
    <linearGradient
       xlink:href="#i-9"
       id="j-7"
       x1="398.57001"
       gradientUnits="userSpaceOnUse"
       x2="400.57001"
       gradientTransform="matrix(1.5625,0,0,1.53847,-604.39657,-793.87657)" />
    <linearGradient
       id="linearGradient1040"
       x1="398.57001"
       x2="400.57001"
       gradientUnits="userSpaceOnUse"
       gradientTransform="matrix(1.5625,0,0,1.53847,-227.95,-292.82)">
      <stop
         stop-color="#faae2a"
         id="stop1036" />
      <stop
         offset="1"
         stop-color="#ffc35a"
         id="stop1038" />
    </linearGradient>
    <linearGradient
       id="c-0"
       y1="519.84998"
       x1="388.57001"
       y2="528.52002"
       x2="398.82001"
       gradientUnits="userSpaceOnUse">
      <stop
         stop-color="#4d4d4d"
         id="stop12-9" />
      <stop
         offset="1"
         stop-color="#31363b"
         id="stop14-3" />
    </linearGradient>
    <linearGradient
       id="h-7-6"
       y1="557.79999"
       y2="505.79999"
       gradientUnits="userSpaceOnUse"
       x2="0"
       gradientTransform="matrix(0.61141,0,0,0.80312143,-229.65001,-403.22242)">
      <stop
         stop-color="#42a603"
         id="stop33-5-1" />
      <stop
         offset="1"
         stop-color="#78da06"
         id="stop35-3-8" />
    </linearGradient>
    <linearGradient
       id="g-5-7"
       y1="551.79999"
       y2="528.79999"
       gradientUnits="userSpaceOnUse"
       x2="0"
       gradientTransform="matrix(0.49677,0,0,0.80312143,-182.00001,-421.69183)">
      <stop
         stop-color="#c6cdd1"
         id="stop28-6-9" />
      <stop
         offset="1"
         stop-color="#e0e5e7"
         id="stop30-2-2" />
    </linearGradient>
    <linearGradient
       id="i-9-0"
       x1="398.57001"
       x2="400.57001"
       gradientUnits="userSpaceOnUse"
       gradientTransform="matrix(1.5625,0,0,1.53847,-227.95,-292.82)">
      <stop
         stop-color="#faae2a"
         id="stop38-1-2" />
      <stop
         offset="1"
         stop-color="#ffc35a"
         id="stop40-2-3" />
    </linearGradient>
    <linearGradient
       xlink:href="#i-9-0"
       id="j-7-7"
       x1="398.57001"
       gradientUnits="userSpaceOnUse"
       x2="400.57001"
       gradientTransform="matrix(1.5625,0,0,1.6062533,-595.14001,-828.71819)" />
    <linearGradient
       id="linearGradient1181"
       x1="398.57001"
       x2="400.57001"
       gradientUnits="userSpaceOnUse"
       gradientTransform="matrix(1.5625,0,0,1.53847,-227.95,-292.82)">
      <stop
         stop-color="#faae2a"
         id="stop1177" />
      <stop
         offset="1"
         stop-color="#ffc35a"
         id="stop1179" />
    </linearGradient>
    <linearGradient
       id="c-0-5"
       y1="519.84998"
       x1="388.57001"
       y2="528.52002"
       x2="398.82001"
       gradientUnits="userSpaceOnUse">
      <stop
         stop-color="#4d4d4d"
         id="stop12-9-9" />
      <stop
         offset="1"
         stop-color="#31363b"
         id="stop14-3-2" />
    </linearGradient>
    <linearGradient
       gradientUnits="userSpaceOnUse"
       y2="14.592526"
       x2="23.178896"
       y1="46"
       x1="24"
       id="linearGradient2100"
       xlink:href="#linearGradient4793" />
    <linearGradient
       id="linearGradient4793">
      <stop
         id="stop4795"
         offset="0"
         style="stop-color:#54b60f;stop-opacity:1" />
      <stop
         id="stop4797"
         offset="1"
         style="stop-color:#92dc41;stop-opacity:1" />
    </linearGradient>
  </defs>
  <g
     id="layer2"
     style="display:inline" />
  <g
     id="layer1"
     style="display:inline" />
  <g
     id="g927">
    <g
       id="g926">
      <g
         transform="matrix(1,0,0,0.99809762,-0.00355353,0.13537062)"
         id="g1362">
        <path
           style="fill:url(#linearGradient2100);fill-opacity:1;stroke-width:0.42654455"
           id="path10"
           d="M 44.364583,11.266374 C 44.351131,10.235038 43.55745,9.3830641 42.530643,9.2888537 33.997454,8.4906889 27.033645,3.9303877 24.737845,2.2623129 c -0.479796,-0.3497576 -1.129986,-0.3497576 -1.609782,0 -2.291361,1.6680748 -9.255125,6.228376 -17.7883136,7.0265408 -1.0268525,0.09421 -1.8160491,0.9461843 -1.8339854,1.9775203 -0.1031337,6.730592 0.9775277,29.581378 19.913764,34.666361 0.336305,0.08968 0.690547,0.08968 1.026852,0 18.936236,-5.080454 20.016853,-27.935813 19.918203,-34.666361 z" />
        <g
           id="g932"
           transform="matrix(0.73912331,0,0,0.8499931,12.78263,2.9152424)"
           style="fill:#ffffff;fill-opacity:1;stroke:#ffffff;stroke-width:0.62198621;stroke-miterlimit:4;stroke-dasharray:none;stroke-opacity:1">
          <path
             d="M 12.139357,5.840491 C 9.6412921,6.7728846 7.909679,8.4963999 7.1148402,10.813257 6.8877434,11.406598 6.774195,13.892981 6.774195,17.453029 c 0,3.136233 -0.1135484,5.84865 -0.2554839,6.074685 C 6.3767756,23.753749 6.0645175,23.838512 5.8090336,23.753749 5.4116142,23.584223 5.35484,22.906118 5.35484,18.69622 c 0,-5.283563 -0.2554839,-6.413737 -1.7316131,-7.769946 -2.2141938,-2.0060588 -5.9896781,-1.4127175 -7.4941944,1.158428 -0.6529033,1.10192 -0.7096775,1.525735 -0.7096775,4.35117 v 3.164487 h 0.7096775 0.7096775 v -2.994961 c 0,-3.362267 0.3122581,-4.266406 1.8451615,-5.085783 1.1070969,-0.593341 3.0374197,-0.423815 3.8890327,0.367307 1.1638711,1.017157 1.3625808,2.062567 1.3625808,7.261368 v 4.944511 l 0.7664517,0.593341 c 0.567742,0.45207 1.0219356,0.565087 1.6464518,0.45207 1.6748389,-0.339052 1.703226,-0.45207 1.8451615,-7.487403 L 8.3354855,11.208818 9.1870985,9.8526087 C 10.805163,7.2532085 14.353551,6.1512889 17.163874,7.4227346 c 1.504516,0.6781044 3.094193,2.5711459 3.491613,4.1251354 0.170322,0.706358 0.312258,3.70132 0.312258,6.894061 v 5.65087 l 0.766452,0.593341 c 0.567742,0.45207 1.021935,0.565087 1.646451,0.45207 1.618065,-0.339052 1.703226,-0.536833 1.845162,-6.470246 0.141935,-5.933414 0.255484,-6.272466 1.873549,-7.148351 0.624516,-0.339052 1.249032,-0.423815 2.072258,-0.310797 2.356129,0.310797 3.150968,1.751769 3.150968,5.707378 0,2.684163 0,2.684163 0.709678,2.684163 h 0.709677 v -2.910198 c 0,-3.136232 -0.454194,-4.577204 -1.731613,-5.763887 -2.214194,-2.0060588 -5.989678,-1.4127175 -7.494195,1.158428 -0.68129,1.158429 -0.709677,1.412718 -0.709677,6.131194 0,2.712418 -0.113548,5.085783 -0.255484,5.311818 -0.141935,0.226035 -0.454193,0.310798 -0.68129,0.226035 C 22.500648,23.612477 22.415487,22.623575 22.330326,17.424775 22.216777,10.558967 22.103229,10.106898 20.22968,8.016076 19.633551,7.3662259 18.640003,6.5751041 18.015487,6.2643063 16.567744,5.5296932 13.558712,5.3036584 12.139357,5.840491 Z"
             id="path4"
             style="fill:#ffffff;fill-opacity:1;stroke:#ffffff;stroke-width:0.62198621;stroke-miterlimit:4;stroke-dasharray:none;stroke-opacity:1" />
          <path
             id="path8"
             d="m 28.710938,12.542969 c -0.518065,-0.01413 -1.029794,0.191417 -1.441407,0.615234 -0.539355,0.593341 -0.596479,1.017337 -0.68164,5.933594 -0.08516,5.989922 -0.25469,6.498852 -2.41211,7.261719 -1.447742,0.508578 -2.47076,0.253999 -3.691406,-0.960938 -0.851613,-0.84763 -0.935547,-1.074006 -0.935547,-2.65625 0,-1.638752 -0.02965,-1.722656 -0.710937,-1.722656 h -0.708985 v 9.294922 9.324218 l 0.765625,0.59375 c 0.567742,0.45207 1.021969,0.564189 1.646485,0.451172 1.504517,-0.310798 1.703768,-0.735006 1.845703,-4.351562 0.170323,-3.616557 0.396917,-4.238175 1.873047,-5.029297 0.624516,-0.339052 1.249039,-0.423565 2.072265,-0.310547 0.03338,0.0043 0.05905,0.01475 0.0918,0.01953 V 29.53125 c -1.840445,-0.165431 -3.770526,0.664835 -4.746094,2.332031 -0.624516,1.073666 -0.710937,1.553591 -0.710937,4.011719 0,2.938452 -0.22678,3.700513 -0.964844,3.417969 -0.39742,-0.169526 -0.453125,-0.960841 -0.453125,-6.357422 v -6.1875 l 1.333984,0.650391 c 1.532904,0.791122 2.526868,0.847248 3.97461,0.253906 2.696774,-1.130174 3.036708,-1.976756 3.207031,-8.333985 0.141936,-5.00102 0.16963,-5.228515 0.708985,-5.228515 0.510967,0 0.569134,0.22755 0.654296,2.742187 0.08516,2.740672 0.08433,2.767578 0.765625,2.767578 0.709678,0 0.708985,0.0012 0.708985,-2.824218 0,-2.655908 -0.05608,-2.911608 -0.708985,-3.533203 -0.44,-0.45207 -0.964357,-0.685092 -1.482421,-0.699219 z"
             style="fill:#ffffff;fill-opacity:1;stroke:#ffffff;stroke-width:0.62198621;stroke-miterlimit:4;stroke-dasharray:none;stroke-opacity:1" />
          <g
             id="g906"
             style="fill:#ffffff;fill-opacity:1;stroke:#ffffff;stroke-width:0.62198621;stroke-miterlimit:4;stroke-dasharray:none;stroke-opacity:1">
            <g
               id="g911"
               style="fill:#ffffff;fill-opacity:1;stroke:#ffffff;stroke-width:0.62198621;stroke-miterlimit:4;stroke-dasharray:none;stroke-opacity:1">
              <path
                 style="fill:#ffffff;fill-opacity:1;stroke:#ffffff;stroke-width:0.62198621;stroke-miterlimit:4;stroke-dasharray:none;stroke-opacity:1"
                 d="m 0.32226562,12.546875 c -0.51806457,-0.0106 -1.02784017,0.202682 -1.43945312,0.640625 -0.567742,0.593341 -0.625,0.960104 -0.625,3.53125 0,2.881943 -6.931e-4,2.880859 0.7089844,2.880859 0.68129037,0 0.6824168,-0.0269 0.7675781,-2.767578 0.0851613,-2.514637 0.14137595,-2.742187 0.65234375,-2.742187 0.5393549,0 0.569002,0.226848 0.71093745,5.36914 0.085161,3.305759 0.2553251,5.594542 0.4824219,5.933594 0.8232259,1.440972 2.9522478,2.683594 4.5703125,2.683594 0.4541936,0 1.4192288,-0.310427 2.1289063,-0.677734 l 1.3339843,-0.650391 v 5.962891 c 0,3.277504 -0.1139238,6.131386 -0.2558593,6.357421 -0.1419355,0.226034 -0.4535005,0.309373 -0.7089844,0.22461 -0.3690323,-0.141271 -0.4550781,-0.677152 -0.4550781,-2.9375 0,-3.023215 -0.4530493,-4.491963 -1.7304688,-5.650391 C 5.49925,29.83202 4.2391807,29.451321 3,29.511719 v 1.394531 c 1.1393824,-0.03796 2.2875195,0.482873 3.0351562,1.494141 0.5109679,0.678104 0.6247329,1.327687 0.7382813,4.068359 0.1419355,3.164488 0.1701385,3.304964 0.9082031,3.841797 0.6245162,0.480324 0.9386265,0.508327 1.7050782,0.310547 1.5896782,-0.45207 1.6464842,-0.763322 1.6464842,-10.652344 v -8.955078 h -0.681641 c -0.6245161,0 -0.681373,0.141323 -0.7949214,1.695312 C 9.4147051,24.771552 8.7322557,25.788429 7.1425781,26.353516 5.694836,26.862094 4.6737703,26.607515 3.453125,25.392578 l -0.9375,-0.93164 v -5.25586 c 0,-5.227055 6.931e-4,-5.284786 -0.7089844,-5.96289 -0.44,-0.45207 -0.9663104,-0.684718 -1.48437498,-0.695313 z"
                 id="path6" />
              <path
                 id="path10-3"
                 d="m 12.480469,21.013672 -0.08594,9.435547 c -0.08516,9.069646 -0.113898,9.494944 -0.68164,10.257812 -0.738064,0.960648 -2.5550128,1.66731 -3.6621098,1.384766 C 7.6249748,41.97878 6.8303705,41.468473 6.2910156,40.931641 L 5.3554688,40 v -3.136719 c 0,-2.966706 -0.029647,-3.191947 -0.7109376,-3.841797 C 4.156806,32.520381 3.5665147,32.298943 3,32.335938 v 1.574218 c 0.064599,-0.02704 0.1369139,-0.04102 0.2265625,-0.04102 0.5393549,0 0.5670489,0.224963 0.7089844,3.304687 0.1703226,3.616557 0.4263229,4.266575 2.2714843,5.509766 2.6683874,1.836533 6.4999498,0.480114 7.3515628,-2.59961 0.19871,-0.706359 0.3125,-4.464364 0.3125,-10.115234 v -8.955078 h -0.708985 z"
                 style="fill:#ffffff;fill-opacity:1;stroke:#ffffff;stroke-width:0.62198621;stroke-miterlimit:4;stroke-dasharray:none;stroke-opacity:1" />
            </g>
          </g>
          <path
             id="path12-6"
             d="m 15.291016,21.013672 v 9.324219 c 0,10.25633 0.05576,10.566707 1.673828,11.951171 1.816774,1.525734 4.115642,1.665978 6.017578,0.394532 1.618065,-1.101919 2.073818,-2.203493 2.24414,-5.707032 0.141936,-2.881943 0.198018,-3.107421 0.708985,-3.107421 0.149755,0 0.257457,0.02609 0.341797,0.117187 v -1.607422 c -0.64726,-0.161491 -1.317482,0.02249 -1.81836,0.556641 C 23.919629,33.500634 23.835161,34.009328 23.75,36.75 c -0.113549,3.644811 -0.48374,4.464473 -2.414062,5.142578 -1.447743,0.508578 -2.468808,0.254 -3.689454,-0.960937 L 16.708984,40 V 30.505859 21.013672 H 16 Z"
             style="fill:#ffffff;fill-opacity:1;stroke:#ffffff;stroke-width:0.62198621;stroke-miterlimit:4;stroke-dasharray:none;stroke-opacity:1" />
        </g>
        <ellipse
           style="fill:#333333;fill-opacity:1;stroke:none;stroke-width:0.31177509;stroke-miterlimit:4;stroke-dasharray:none;stroke-opacity:1"
           id="path951-3"
           cx="21.556488"
           cy="16.432762"
           rx="0.52323598"
           ry="0.57989907" />
        <ellipse
           style="fill:#333333;fill-opacity:1;stroke:none;stroke-width:0.31177509;stroke-miterlimit:4;stroke-dasharray:none;stroke-opacity:1"
           id="path951-3-6"
           cx="25.717873"
           cy="16.414242"
           rx="0.52323598"
           ry="0.57989907" />
      </g>
    </g>
    <path
       style="fill:#d63535;fill-opacity:1;stroke-width:1.57018435"
       id="path4195"
       d="m 39.676088,1.887438 c -1.21504,0 -2.2,1.10008 -2.2,2.45625 0,1.35618 0.98496,14.34375 2.2,14.34375 1.21503,0 2.2,-12.98757 2.2,-14.34375 0,-1.35617 -0.98496,-2.45624 -2.2,-2.45625 z m 0.0559,19.08047 a 2.2550052,2.459984 0 0 0 -2.25586,2.45859 2.2550052,2.459984 0 0 0 2.25586,2.46094 2.2550052,2.459984 0 0 0 2.25371,-2.46094 2.2550052,2.459984 0 0 0 -2.25371,-2.45859 z" />
  </g>
</svg>
