<?xml version="1.0" encoding="UTF-8" standalone="no"?>
<svg
   xmlns:dc="http://purl.org/dc/elements/1.1/"
   xmlns:cc="http://creativecommons.org/ns#"
   xmlns:rdf="http://www.w3.org/1999/02/22-rdf-syntax-ns#"
   xmlns:svg="http://www.w3.org/2000/svg"
   xmlns="http://www.w3.org/2000/svg"
   xmlns:xlink="http://www.w3.org/1999/xlink"
   id="svg942"
   version="1.1"
   viewBox="0 0 12.7 12.7"
   height="48"
   width="48">
  <defs
     id="defs936">
    <linearGradient
       xlink:href="#a-3"
       id="linearGradient991"
       x1="24.049976"
       y1="45.427723"
       x2="23.499022"
       y2="14.205187"
       gradientUnits="userSpaceOnUse"
       gradientTransform="matrix(0.26458333,0,0,0.26458333,0.01815154,284.27625)" />
    <linearGradient
       id="a-3"
       gradientTransform="matrix(1.0749904,0,0,1.1792904,57.227964,-9.7964761)"
       gradientUnits="userSpaceOnUse"
       x1="-74.929466"
       x2="-75.259552"
       y1="52.199436"
       y2="2.3564889">
      <stop
         offset="0"
         stop-color="#ffa400"
         id="stop2-6" />
      <stop
         offset="1"
         stop-color="#fd0"
         id="stop4-7" />
    </linearGradient>
  </defs>
  <metadata
     id="metadata939">
    <rdf:RDF>
      <cc:Work
         rdf:about="">
        <dc:format>image/svg+xml</dc:format>
        <dc:type
           rdf:resource="http://purl.org/dc/dcmitype/StillImage" />
        <dc:title></dc:title>
      </cc:Work>
    </rdf:RDF>
  </metadata>
  <g
     transform="translate(0,-284.29998)"
     id="layer1">
    <g
       id="layer2"
       style="display:inline"
       transform="matrix(0.26458333,0,0,0.26458333,0.01815153,284.27625)" />
    <g
       id="layer1-6"
       style="display:inline"
       transform="matrix(0.26458333,0,0,0.26458333,0.01815153,284.27625)" />
    <path
       d="m 11.75534,287.2873 c -0.0036,-0.27236 -0.213554,-0.49735 -0.48523,-0.52223 -2.2577391,-0.21078 -4.1002469,-1.41506 -4.7076773,-1.85557 -0.1269461,-0.0924 -0.2989755,-0.0924 -0.4259215,0 -0.606256,0.44051 -2.4487519,1.64479 -4.7064912,1.85557 -0.271688,0.0249 -0.4804963,0.24987 -0.48524194,0.52223 -0.0272875,1.77741 0.25863754,7.81185 5.26884994,9.15469 0.088981,0.0237 0.1827072,0.0237 0.2716879,0 5.0102121,-1.34165 5.2961251,-7.37729 5.2700241,-9.15469 z"
       id="path10"
       style="fill:url(#linearGradient991);fill-opacity:1;stroke-width:0.11274918" />
    <path
       id="path33"
       d="m 5.739379,287.16785 v 4.47103 c 0,0.42804 0.285261,0.77518 0.6370992,0.77518 0.3517974,0 0.6370992,-0.34714 0.6370992,-0.77518 v -4.47103 c 0,-0.42809 -0.2853018,-0.77518 -0.6370992,-0.77518 -0.3518382,0 -0.6370992,0.34714 -0.6370992,0.77518 z"
       style="fill:#ffffff;fill-opacity:1;stroke-width:0.04486165" />
    <path
       id="path35"
       d="m 6.3764782,293.21883 c -0.3699772,0 -0.671059,0.32348 -0.671059,0.72138 0,0.39776 0.3010818,0.72137 0.671059,0.72137 0.3699769,0 0.6710587,-0.32361 0.6710587,-0.72137 0,-0.39785 -0.3011223,-0.72138 -0.6710587,-0.72138 z"
       style="fill:#ffffff;fill-opacity:1;stroke-width:0.04486165" />
  </g>
</svg>
