<?xml version="1.0" encoding="UTF-8" standalone="no"?>
<svg
   xmlns:dc="http://purl.org/dc/elements/1.1/"
   xmlns:cc="http://creativecommons.org/ns#"
   xmlns:rdf="http://www.w3.org/1999/02/22-rdf-syntax-ns#"
   xmlns:svg="http://www.w3.org/2000/svg"
   xmlns="http://www.w3.org/2000/svg"
   xmlns:xlink="http://www.w3.org/1999/xlink"
   width="48"
   height="48"
   viewBox="0 0 12.7 12.7"
   version="1.1"
   id="svg942">
  <defs
     id="defs936">
    <linearGradient
       gradientTransform="matrix(0.26458333,0,0,0.26458333,0.01815154,284.27625)"
       gradientUnits="userSpaceOnUse"
       y2="14.205187"
       x2="23.499022"
       y1="45.427723"
       x1="24.049976"
       id="linearGradient991"
       xlink:href="#a-3" />
    <linearGradient
       y2="2.3564889"
       y1="52.199436"
       x2="-75.259552"
       x1="-74.929466"
       gradientUnits="userSpaceOnUse"
       gradientTransform="matrix(1.0749904,0,0,1.1792904,57.227964,-9.7964761)"
       id="a-3">
      <stop
         id="stop2-6"
         stop-color="#ffa400"
         offset="0" />
      <stop
         id="stop4-7"
         stop-color="#fd0"
         offset="1" />
    </linearGradient>
    <linearGradient
       gradientUnits="userSpaceOnUse"
       y2="14.205187"
       x2="23.499022"
       y1="45.427723"
       x1="24.049976"
       id="linearGradient991-3"
       xlink:href="#a-3"
       gradientTransform="matrix(0.26458333,0,0,0.26458333,0.28721934,0.67584187)" />
  </defs>
  <metadata
     id="metadata939">
    <rdf:RDF>
      <cc:Work
         rdf:about="">
        <dc:format>image/svg+xml</dc:format>
        <dc:type
           rdf:resource="http://purl.org/dc/dcmitype/StillImage" />
        <dc:title></dc:title>
      </cc:Work>
    </rdf:RDF>
  </metadata>
  <g
     id="g846"
     transform="translate(-0.26906792,-0.6995761)">
    <g
       transform="matrix(0.26458333,0,0,0.26458333,0.28721933,0.67584186)"
       id="layer2-5"
       style="display:inline" />
    <g
       transform="matrix(0.26458333,0,0,0.26458333,0.28721933,0.67584186)"
       id="layer1-3"
       style="display:inline" />
    <path
       d="M 12.024408,3.6868828 C 12.020849,3.4145276 11.810854,3.1895382 11.539178,3.1646591 9.2814386,2.9538798 7.4389308,1.7495954 6.8315004,1.3090902 c -0.1269461,-0.092364 -0.2989755,-0.092364 -0.4259215,0 -0.606256,0.4405052 -2.4487519,1.6447896 -4.7064911,1.8555689 -0.271688,0.024879 -0.4804963,0.2498685 -0.4852419,0.5222237 -0.027287,1.7774146 0.2586375,7.8118502 5.2688498,9.1546922 0.088981,0.02368 0.1827072,0.02368 0.2716879,0 5.0102124,-1.341647 5.2961254,-7.3772892 5.2700244,-9.1546922 z"
       id="path10-5"
       style="fill:url(#linearGradient991-3);fill-opacity:1;stroke-width:0.11274918" />
    <path
       style="fill:#ffffff;stroke-width:0.06175923"
       id="path975"
       d="m 10.5756,5.73191 c 0,-0.1177531 -0.08905,-0.1909242 -0.267376,-0.2195717 L 7.9123278,5.1639411 6.8384306,2.9922446 c -0.0604,-0.1304658 -0.1384332,-0.1956694 -0.233866,-0.1956694 -0.095433,0 -0.1734079,0.065204 -0.233866,0.1956694 L 5.2967427,5.1639411 2.9007293,5.5123383 C 2.7225765,5.5409853 2.6334706,5.6141569 2.6334706,5.73191 c 0,0.066844 0.039778,0.1432369 0.119335,0.2291207 L 4.4901625,7.6506424 4.0797257,10.037106 c -0.00638,0.04458 -0.00955,0.07645 -0.00955,0.09549 0,0.06684 0.016695,0.123261 0.050089,0.169483 0.033393,0.04616 0.083482,0.06919 0.1503256,0.06919 0.057295,0 0.1209167,-0.01898 0.1909244,-0.05724 L 6.6045088,9.1875262 8.747675,10.314032 c 0.066903,0.0382 0.1305243,0.05724 0.1908657,0.05724 0.063798,0 0.1122463,-0.02296 0.1456391,-0.06919 0.033334,-0.04616 0.050031,-0.102639 0.050031,-0.169483 0,-0.04136 -0.00156,-0.07317 -0.0048,-0.09549 L 8.7189082,7.6506424 10.451461,5.9610307 C 10.534299,5.8783108 10.5756,5.8019176 10.5756,5.73191 Z" />
  </g>
</svg>
