<?xml version="1.0" encoding="UTF-8" standalone="no"?>
<svg
   xmlns:dc="http://purl.org/dc/elements/1.1/"
   xmlns:cc="http://creativecommons.org/ns#"
   xmlns:rdf="http://www.w3.org/1999/02/22-rdf-syntax-ns#"
   xmlns:svg="http://www.w3.org/2000/svg"
   xmlns="http://www.w3.org/2000/svg"
   xmlns:xlink="http://www.w3.org/1999/xlink"
   xmlns:sodipodi="http://sodipodi.sourceforge.net/DTD/sodipodi-0.dtd"
   xmlns:inkscape="http://www.inkscape.org/namespaces/inkscape"
   height="48"
   width="48"
   version="1.1"
   id="svg13"
   sodipodi:docname="preferences-system-network.svg"
   inkscape:version="0.92.2 5c3e80d, 2017-08-06">
  <sodipodi:namedview
     pagecolor="#ffffff"
     bordercolor="#666666"
     borderopacity="1"
     objecttolerance="10"
     gridtolerance="10"
     guidetolerance="10"
     inkscape:pageopacity="0"
     inkscape:pageshadow="2"
     inkscape:window-width="1600"
     inkscape:window-height="826"
     id="namedview29"
     showgrid="false"
     inkscape:zoom="1.8430957"
     inkscape:cx="-140.19441"
     inkscape:cy="9.2955371"
     inkscape:window-x="0"
     inkscape:window-y="0"
     inkscape:window-maximized="1"
     inkscape:current-layer="svg13" />
  <metadata
     id="metadata19">
    <rdf:RDF>
      <cc:Work
         rdf:about="">
        <dc:format>image/svg+xml</dc:format>
        <dc:type
           rdf:resource="http://purl.org/dc/dcmitype/StillImage" />
        <dc:title />
      </cc:Work>
    </rdf:RDF>
  </metadata>
  <defs
     id="defs17">
    <linearGradient
       gradientUnits="userSpaceOnUse"
       y2="1.4468008"
       x2="24.573759"
       y1="46.029682"
       x1="24.393805"
       id="linearGradient925"
       xlink:href="#b-3"
       gradientTransform="translate(-0.2932556,0.32526833)" />
    <linearGradient
       y2="518.13873"
       y1="545.13873"
       x2="399.9939"
       x1="399.9939"
       gradientUnits="userSpaceOnUse"
       id="b-3">
      <stop
         id="stop7-6"
         stop-color="#197ff1"
         offset="0" />
      <stop
         id="stop9-7"
         stop-color="#21c6fb"
         offset="1" />
    </linearGradient>
    <linearGradient
       id="a-6"
       gradientUnits="userSpaceOnUse"
       x1="197.88585"
       x2="183.32736"
       y1="364.75723"
       y2="12.945999">
      <stop
         offset="0"
         stop-color="#197cf1"
         id="stop2-7" />
      <stop
         offset="1"
         stop-color="#20bcfa"
         id="stop4-5" />
    </linearGradient>
  </defs>
  <linearGradient
     id="a"
     gradientUnits="userSpaceOnUse"
     x1="409.537251898256"
     x2="409.537251898256"
     y1="544.227537992278"
     y2="502.9836729252">
    <stop
       offset="0"
       stop-color="#0a80fd"
       id="stop2" />
    <stop
       offset="1"
       stop-color="#56c5fa"
       id="stop4" />
  </linearGradient>
  <g
     style="display:inline"
     id="layer2"
     transform="translate(16.238366,-0.70769892)" />
  <g
     style="display:inline"
     id="layer1"
     transform="translate(16.238366,-0.70769892)" />
  <g
     id="layer2-1"
     style="display:inline"
     transform="translate(-35.489418,18.492545)" />
  <g
     id="layer1-5"
     style="display:inline"
     transform="translate(-35.489418,18.492545)" />
  <rect
     style="fill:url(#linearGradient925);fill-opacity:1;stroke:none;stroke-width:0.83835"
     id="rect4158"
     width="45.270901"
     height="45.270901"
     x="1.3645496"
     y="1.3645496"
     ry="22.63545" />
  <g
     id="g1109"
     style="display:inline;fill:#ecf0f1;fill-opacity:1"
     transform="matrix(1.9058831,0,0,2.2767255,-686.81104,1042.008)">
    <g
       transform="matrix(0.93333318,0,0,0.93333318,365.48959,-455.61236)"
       id="g1107"
       style="fill:#ecf0f1;fill-opacity:1">
      <g
         transform="matrix(0.02451023,0,0,0.02451023,-4.6569066,1.7149281)"
         id="g1105"
         style="fill:#ecf0f1;fill-opacity:1">
        <g
           id="g1103"
           style="fill:#ecf0f1;fill-opacity:1">
          <g
             id="g1101"
             style="fill:#ecf0f1;fill-opacity:1">
            <g
               style="fill:#ecf0f1;fill-opacity:1"
               transform="translate(973.09344,-210.39858)"
               id="g1099">
              <path
                 inkscape:connector-curvature="0"
                 style="fill:#ecf0f1;fill-opacity:1"
                 d="m -456.70043,534.13427 c -49.553,0 -96.331,21.852 -128.335,59.948 -9.93,11.811 -8.402,29.434 3.428,39.363 5.234,4.396 11.605,6.557 17.958,6.557 7.973,0 15.891,-3.39 21.405,-9.966 21.368,-25.429 52.552,-40.016 85.544,-40.016 32.992,0 64.177,14.587 85.544,40.016 5.533,6.595 13.45,9.966 21.405,9.966 6.353,0 12.724,-2.142 17.958,-6.557 11.83,-9.93 13.357,-27.553 3.428,-39.363 -32.005,-38.096 -78.783,-59.948 -128.335,-59.948 z"
                 id="path1091" />
              <path
                 inkscape:connector-curvature="0"
                 style="fill:#ecf0f1;fill-opacity:1"
                 d="m -456.71026,411.20563 c -82.545,0 -160.489,36.419 -213.879,99.926 -9.929,11.811 -8.402,29.434 3.428,39.363 5.234,4.396 11.605,6.558 17.958,6.558 7.973,0 15.891,-3.391 21.405,-9.967 42.716,-50.838 105.086,-79.993 171.089,-79.993 66.003,0 128.372,29.155 171.107,79.993 5.533,6.595 13.45,9.967 21.404,9.967 6.353,0 12.724,-2.14299 17.959,-6.558 11.829,-9.929 13.356,-27.57 3.428,-39.363 -53.41,-63.506 -131.354,-99.926 -213.899,-99.926 z"
                 id="path1093" />
              <path
                 inkscape:connector-curvature="0"
                 style="fill:#ecf0f1;fill-opacity:1"
                 d="m -157.25874,432.76761 c -74.739,-88.935 -183.887,-139.923 -299.442,-139.923 -115.555,0 -224.68501,50.988 -299.44301,139.923 -9.93,11.811 -8.402,29.434 3.428,39.363 5.234,4.396 11.587,6.558 17.939,6.558 7.973,0 15.891,-3.391 21.423,-9.967 64.08401,-76.248 157.63901,-119.989 256.65201,-119.989 99.013,0 192.568,43.741 256.651,119.971 5.533,6.576 13.45,9.967 21.424,9.967 6.353,0 12.724,-2.14299 17.958,-6.558 11.81099,-9.912 13.33999,-27.553 3.41,-39.345 z"
                 id="path1095" />
              <path
                 inkscape:connector-curvature="0"
                 style="fill:#ecf0f1;fill-opacity:1"
                 d="m -502.72533,682.97548 c 0,25.40596 20.61957,46.02476 46.02469,46.02476 25.40511,0 46.02469,-20.6188 46.02469,-46.02476 -7.77548,-65.32599 -90.56863,-48.66693 -92.04938,0 z"
                 id="path1097" />
            </g>
          </g>
        </g>
      </g>
    </g>
  </g>
</svg>
