<?xml version="1.0" encoding="UTF-8" standalone="no"?>
<svg
   xmlns:dc="http://purl.org/dc/elements/1.1/"
   xmlns:cc="http://creativecommons.org/ns#"
   xmlns:rdf="http://www.w3.org/1999/02/22-rdf-syntax-ns#"
   xmlns:svg="http://www.w3.org/2000/svg"
   xmlns="http://www.w3.org/2000/svg"
   xmlns:xlink="http://www.w3.org/1999/xlink"
   version="1.1"
   id="svg5453"
   height="32"
   width="32">
  <defs
     id="defs5455">
    <linearGradient
       id="linearGradient4303">
      <stop
         id="stop4305"
         offset="0"
         style="stop-color:#c6cdd1;stop-opacity:1" />
      <stop
         id="stop4307"
         offset="1"
         style="stop-color:#e0e5e7;stop-opacity:1" />
    </linearGradient>
    <linearGradient
       gradientTransform="matrix(0.70000031,0,0,0.70000031,114.57129,165.13922)"
       gradientUnits="userSpaceOnUse"
       y2="503.798"
       x2="409.57144"
       y1="543.79797"
       x1="409.57144"
       id="linearGradient4217"
       xlink:href="#linearGradient4303" />
    <linearGradient
       id="linearGradient4159">
      <stop
         style="stop-color:#2a2c2f;stop-opacity:1"
         offset="0"
         id="stop4161" />
      <stop
         style="stop-color:#424649;stop-opacity:1"
         offset="1"
         id="stop4163" />
    </linearGradient>
    <linearGradient
       gradientUnits="userSpaceOnUse"
       y2="1.999974"
       x2="23"
       y1="15.999974"
       x1="23"
       id="linearGradient4188"
       xlink:href="#linearGradient4159" />
  </defs>
  <metadata
     id="metadata5458">
    <rdf:RDF>
      <cc:Work
         rdf:about="">
        <dc:format>image/svg+xml</dc:format>
        <dc:type
           rdf:resource="http://purl.org/dc/dcmitype/StillImage" />
        <dc:title></dc:title>
      </cc:Work>
    </rdf:RDF>
  </metadata>
  <g
     transform="translate(-384.57143,-515.798)"
     id="layer1">
    <rect
       ry="2.1213202"
       y="517.79797"
       x="386.57144"
       height="28.000011"
       width="28.000011"
       id="rect4144"
       style="opacity:1;fill:url(#linearGradient4217);fill-opacity:1;stroke:none" />
    <path
       id="rect844"
       transform="translate(384.57143,515.798)"
       d="M 2.0449219 28 C 2.0289543 28 2.0233888 28.016673 2.015625 28.029297 C 2.0938335 29.132256 2.9975503 30 4.1210938 30 L 27.878906 30 C 29.00245 30 29.906166 29.132256 29.984375 28.029297 C 29.976611 28.016673 29.971046 28 29.955078 28 L 2.0449219 28 z "
       style="opacity:1;fill:#aab3b9;fill-opacity:0.99004978;stroke:none" />
    <path
       id="path4174"
       transform="translate(384.57143,515.798)"
       d="m 23,2 -7,7 4,0 0,5 6,0 0,-5 4,0 z m -3,13 0,1 6,0 0,-1 z"
       style="fill:url(#linearGradient4188);fill-opacity:1;fill-rule:evenodd;stroke:none;stroke-width:1px;stroke-linecap:butt;stroke-linejoin:miter;stroke-opacity:1" />
    <path
       id="rect4261"
       transform="translate(384.57143,515.798)"
       d="M 5 17 L 5 18 L 5 20 L 5 21 L 5 23 L 6 23 L 6 21 L 8 21 L 8 20 L 6 20 L 6 18 L 9 18 L 9 17 L 6 17 L 5 17 z M 10 17 L 10 23 L 11 23 L 11 18.728516 L 14 22.994141 L 14 23 L 15 23 L 15 22.681641 L 15 17 L 14 17 L 14 21.259766 L 11.005859 17 L 11 17 L 10 17 z "
       style="opacity:1;fill:#75797c;fill-opacity:1;stroke:none" />
  </g>
</svg>
