<?xml version="1.0" encoding="UTF-8" standalone="no"?>
<svg
   xmlns:dc="http://purl.org/dc/elements/1.1/"
   xmlns:cc="http://creativecommons.org/ns#"
   xmlns:rdf="http://www.w3.org/1999/02/22-rdf-syntax-ns#"
   xmlns:svg="http://www.w3.org/2000/svg"
   xmlns="http://www.w3.org/2000/svg"
   xmlns:xlink="http://www.w3.org/1999/xlink"
   id="svg21"
   height="32"
   version="1.1"
   width="32">
  <defs
     id="defs5455">
    <linearGradient
       id="linearGradient863">
      <stop
         id="stop859"
         offset="0"
         style="stop-color:#a5a5a5;stop-opacity:1" />
      <stop
         id="stop861"
         offset="1"
         style="stop-color:#dbdbdb;stop-opacity:1" />
    </linearGradient>
    <linearGradient
       id="linearGradient822">
      <stop
         id="stop818"
         offset="0"
         style="stop-color:#0652ff;stop-opacity:1" />
      <stop
         id="stop820"
         offset="1"
         style="stop-color:#1b99ff;stop-opacity:1" />
    </linearGradient>
    <linearGradient
       gradientTransform="matrix(2.4445151,0,0,2.4445151,-974.7584,-1256.4318)"
       gradientUnits="userSpaceOnUse"
       x2="406.56763"
       y2="514.79797"
       y1="532.612"
       id="c"
       x1="411.66486">
      <stop
         id="stop12"
         stop-color="#7cbaf8"
         style="stop-color:#2e89fc;stop-opacity:1" />
      <stop
         id="stop14"
         stop-color="#f4fcff"
         offset="1"
         style="stop-color:#42f2ff;stop-opacity:1" />
    </linearGradient>
    <linearGradient
       gradientTransform="matrix(0.3097139,0,0,0.3097139,393.13824,522.33096)"
       gradientUnits="userSpaceOnUse"
       y2="2.4374466"
       x2="26.10714"
       y1="45.762711"
       x1="26.10714"
       id="linearGradient824"
       xlink:href="#linearGradient822" />
    <linearGradient
       gradientUnits="userSpaceOnUse"
       y2="545.22168"
       x2="400.55444"
       y1="517.83185"
       x1="400.55444"
       id="linearGradient865"
       xlink:href="#linearGradient863" />
  </defs>
  <metadata
     id="metadata5458">
    <rdf:RDF>
      <cc:Work
         rdf:about="">
        <dc:format>image/svg+xml</dc:format>
        <dc:type
           rdf:resource="http://purl.org/dc/dcmitype/StillImage" />
        <dc:title></dc:title>
      </cc:Work>
    </rdf:RDF>
  </metadata>
  <g
     transform="matrix(1 0 0 1 -384.57143 -515.798)"
     id="layer1">
    <g
       style="fill:url(#linearGradient865);fill-opacity:1"
       transform="matrix(1,0,0,-1,0,1063.596)"
       id="g832">
      <path
         style="fill:url(#linearGradient865);fill-opacity:1"
         id="rect4144"
         d="m 389.57138,517.798 v 28 h 21.99999 v -21 l -6.99999,-7 z" />
      <path
         style="fill:#333333;fill-rule:evenodd;fill-opacity:1"
         id="path4164"
         d="m 411.57137,524.798 -6.99999,-7 v 7 z" />
    </g>
    <path
       style="fill:url(#linearGradient824);fill-opacity:1;stroke-width:1.30000007"
       id="path27"
       d="m 399.05449,522.95028 a 5.2968281,5.2968275 0 0 0 -5.29682,5.29682 5.2968281,5.2968275 0 0 0 5.29682,5.29684 5.2968281,5.2968275 0 0 0 3.16717,-1.05967 l 4.09364,4.09364 1.06978,-1.06978 -4.09364,-4.09365 a 5.2968281,5.2968275 0 0 0 1.05966,-3.16716 5.2968281,5.2968275 0 0 0 -5.29683,-5.29682 m 0,1.51338 a 3.7834489,3.7834483 0 0 1 3.78345,3.78344 3.7834489,3.7834483 0 0 1 -0.0192,0.37835 3.7834489,3.7834483 0 0 1 -0.61038,1.70551 3.7834489,3.7834483 0 0 1 -1.07,1.07 3.7834489,3.7834483 0 0 1 -0.2882,0.17144 3.7834489,3.7834483 0 0 1 -0.0369,0.0222 3.7834489,3.7834483 0 0 1 -0.008,0.003 3.7834489,3.7834483 0 0 1 -0.33548,0.15518 3.7834489,3.7834483 0 0 1 -0.32958,0.11528 3.7834489,3.7834483 0 0 1 -0.0281,0.0104 3.7834489,3.7834483 0 0 1 -0.005,0.002 3.7834489,3.7834483 0 0 1 -0.34435,0.0813 3.7834489,3.7834483 0 0 1 -0.0192,0.005 3.7834489,3.7834483 0 0 1 -0.003,0 3.7834489,3.7834483 0 0 1 -0.27784,0.0385 3.7834489,3.7834483 0 0 1 -0.11232,0.0148 3.7834489,3.7834483 0 0 1 -0.29707,0.0118 3.7834489,3.7834483 0 0 1 -3.78345,-3.78344 3.7834489,3.7834483 0 0 1 0.0192,-0.37835 3.7834489,3.7834483 0 0 1 1.7203,-2.80507 3.7834489,3.7834483 0 0 1 0.67244,-0.34287 3.7834489,3.7834483 0 0 1 1.3715,-0.25716" />
    <path
       style="opacity:1;fill:#1689ff;fill-opacity:1;stroke:none;stroke-width:1.62499988;stroke-miterlimit:4;stroke-dasharray:none;stroke-opacity:1"
       d="m 397.65584,525.65971 a 3.1618485,3.1618485 0 0 0 -1.51191,3.38003 4.339792,4.339792 0 0 1 2.11337,-3.08245 4.339792,4.339792 0 0 1 1.93234,-0.57049 3.1618485,3.1618485 0 0 0 -2.5338,0.27291 z"
       id="path847" />
  </g>
</svg>
