<?xml version="1.0" encoding="UTF-8" standalone="no"?>
<svg
   xmlns:dc="http://purl.org/dc/elements/1.1/"
   xmlns:cc="http://creativecommons.org/ns#"
   xmlns:rdf="http://www.w3.org/1999/02/22-rdf-syntax-ns#"
   xmlns:svg="http://www.w3.org/2000/svg"
   xmlns="http://www.w3.org/2000/svg"
   xmlns:xlink="http://www.w3.org/1999/xlink"
   xmlns:sodipodi="http://sodipodi.sourceforge.net/DTD/sodipodi-0.dtd"
   xmlns:inkscape="http://www.inkscape.org/namespaces/inkscape"
   height="48"
   width="48"
   version="1.1"
   id="svg22"
   sodipodi:docname="preferences-desktop-user.svg"
   inkscape:version="0.92.2 5c3e80d, 2017-08-06">
  <metadata
     id="metadata28">
    <rdf:RDF>
      <cc:Work
         rdf:about="">
        <dc:format>image/svg+xml</dc:format>
        <dc:type
           rdf:resource="http://purl.org/dc/dcmitype/StillImage" />
      </cc:Work>
    </rdf:RDF>
  </metadata>
  <defs
     id="defs26">
    <linearGradient
       inkscape:collect="always"
       id="linearGradient843">
      <stop
         style="stop-color:#424242;stop-opacity:1"
         offset="0"
         id="stop839" />
      <stop
         style="stop-color:#777777;stop-opacity:1"
         offset="1"
         id="stop841" />
    </linearGradient>
    <linearGradient
       inkscape:collect="always"
       id="linearGradient886">
      <stop
         style="stop-color:#d0d0d0;stop-opacity:1"
         offset="0"
         id="stop882" />
      <stop
         style="stop-color:#fdfdfd;stop-opacity:0.99215686"
         offset="1"
         id="stop884" />
    </linearGradient>
    <linearGradient
       inkscape:collect="always"
       xlink:href="#linearGradient886"
       id="linearGradient888"
       x1="18"
       y1="34"
       x2="19"
       y2="11"
       gradientUnits="userSpaceOnUse" />
    <linearGradient
       inkscape:collect="always"
       xlink:href="#linearGradient843"
       id="linearGradient845"
       x1="31"
       y1="36"
       x2="31"
       y2="13"
       gradientUnits="userSpaceOnUse" />
  </defs>
  <sodipodi:namedview
     pagecolor="#ffffff"
     bordercolor="#666666"
     borderopacity="1"
     objecttolerance="10"
     gridtolerance="10"
     guidetolerance="10"
     inkscape:pageopacity="0"
     inkscape:pageshadow="2"
     inkscape:window-width="1366"
     inkscape:window-height="699"
     id="namedview24"
     showgrid="true"
     inkscape:zoom="5.5452895"
     inkscape:cx="-6.6047905"
     inkscape:cy="36.163742"
     inkscape:window-x="0"
     inkscape:window-y="0"
     inkscape:window-maximized="1"
     inkscape:current-layer="svg22">
    <inkscape:grid
       type="xygrid"
       id="grid841" />
  </sodipodi:namedview>
  <linearGradient
     id="a"
     gradientUnits="userSpaceOnUse"
     x1="399.57144"
     x2="399.57144"
     y1="545.79797"
     y2="517.79797">
    <stop
       offset="0"
       stop-color="#3889e9"
       id="stop2" />
    <stop
       offset="1"
       stop-color="#5ea5fb"
       id="stop4" />
  </linearGradient>
  <linearGradient
     id="b"
     gradientUnits="userSpaceOnUse"
     x1="399.9939"
     x2="399.9939"
     y1="545.13873"
     y2="518.13873">
    <stop
       offset="0"
       stop-color="#197ff1"
       id="stop7" />
    <stop
       offset="1"
       stop-color="#21c6fb"
       id="stop9" />
  </linearGradient>
  <g
     id="g853">
    <g
       id="g18"
       transform="matrix(1.6428584,0,0,1.6428584,-634.08212,-849.66874)"
       style="stroke-width:1.29999995;enable-background:new">
      <circle
         id="circle12"
         r="13.999958"
         cy="531.79791"
         cx="400.57138"
         style="fill:url(#b)" />
      <circle
         id="circle14"
         r="13.999958"
         cy="531.79797"
         cx="400.57144"
         style="fill:none" />
      <circle
         id="circle16"
         r="0"
         cy="531.79791"
         cx="400.57138"
         style="fill:url(#a)" />
    </g>
    <path
       id="path849"
       d="m 29.412109,12.611328 a 4.237902,5.0452732 0 0 0 -4.238281,5.044922 4.237902,5.0452732 0 0 0 4.238281,5.044922 4.237902,5.0452732 0 0 0 4.238282,-5.044922 4.237902,5.0452732 0 0 0 -4.238282,-5.044922 z m 0,13.453125 c -0.409645,0 -0.874713,-3.85e-4 -1.36914,0.08398 1.638666,1.412665 2.783203,3.280132 2.783203,5.802734 v 4.205078 h 8.474609 v -4.205078 c 0,-3.918509 -6.597217,-5.886719 -9.888672,-5.886719 z"
       style="fill:url(#linearGradient845);fill-opacity:1;stroke-width:2.11933327"
       inkscape:connector-curvature="0" />
    <path
       d="m 18.111555,20.545912 a 4.237902,5.0452732 0 0 0 4.237897,-5.045245 4.237902,5.0452732 0 0 0 -4.237897,-5.04527 4.237902,5.0452732 0 0 0 -4.237925,5.04527 4.237902,5.0452732 0 0 0 4.237925,5.045245 m 0,3.363521 c -3.291441,0 -9.8884455,2.072729 -9.8884455,6.200506 v 4.428947 H 28 v -4.428947 c 0,-4.127777 -6.597018,-6.200506 -9.888445,-6.200506"
       style="fill:url(#linearGradient888);fill-opacity:1;stroke-width:2.11933327"
       id="path845"
       inkscape:connector-curvature="0" />
  </g>
</svg>
