<?xml version="1.0" encoding="UTF-8" standalone="no"?>
<svg
   xmlns:dc="http://purl.org/dc/elements/1.1/"
   xmlns:cc="http://creativecommons.org/ns#"
   xmlns:rdf="http://www.w3.org/1999/02/22-rdf-syntax-ns#"
   xmlns:svg="http://www.w3.org/2000/svg"
   xmlns="http://www.w3.org/2000/svg"
   xmlns:xlink="http://www.w3.org/1999/xlink"
   id="SVGRoot"
   version="1.1"
   viewBox="0 0 48 48"
   height="48px"
   width="48px">
  <defs
     id="defs866">
    <linearGradient
       id="linearGradient1483">
      <stop
         id="stop1479"
         offset="0"
         style="stop-color:#253444;stop-opacity:1" />
      <stop
         id="stop1481"
         offset="1"
         style="stop-color:#405a75;stop-opacity:1" />
    </linearGradient>
    <linearGradient
       gradientUnits="userSpaceOnUse"
       y2="-8.0624733"
       x2="26.875"
       y1="40.312527"
       x1="27.0625"
       id="linearGradient1485"
       xlink:href="#linearGradient1483"
       gradientTransform="matrix(0.75862069,0,0,0.75862069,3.6594827,12.905172)" />
    <linearGradient
       id="linearGradient845">
      <stop
         id="stop841"
         offset="0"
         style="stop-color:#1c1c1c;stop-opacity:1" />
      <stop
         id="stop843"
         offset="1"
         style="stop-color:#555555;stop-opacity:1" />
    </linearGradient>
    <linearGradient
       id="linearGradient840">
      <stop
         id="stop836"
         offset="0"
         style="stop-color:#c6c6c6;stop-opacity:1" />
      <stop
         id="stop838"
         offset="1"
         style="stop-color:#edecec;stop-opacity:1" />
    </linearGradient>
    <linearGradient
       gradientUnits="userSpaceOnUse"
       y2="4"
       x2="24"
       y1="43.525978"
       x1="23.969749"
       id="linearGradient859"
       xlink:href="#b" />
    <linearGradient
       gradientTransform="matrix(1.6796906,0,0,1.6796906,-775.74478,-873.02896)"
       y2="518.40662"
       y1="540.74573"
       x2="449.54932"
       x1="449.42804"
       gradientUnits="userSpaceOnUse"
       id="b">
      <stop
         id="stop25"
         stop-color="#b6b9bf"
         offset="0" />
      <stop
         id="stop27"
         stop-color="#dddfe2"
         offset="1" />
    </linearGradient>
    <linearGradient
       gradientTransform="matrix(1.1495966,0,0,1.1495966,-3.5903409,-3.9201464)"
       gradientUnits="userSpaceOnUse"
       y2="4"
       x2="24"
       y1="43.938797"
       x1="23.57954"
       id="linearGradient842"
       xlink:href="#linearGradient840" />
    <linearGradient
       y2="7.7963228"
       x2="24.476511"
       y1="39.416004"
       x1="24.291534"
       gradientUnits="userSpaceOnUse"
       id="linearGradient853"
       xlink:href="#linearGradient845" />
  </defs>
  <metadata
     id="metadata869">
    <rdf:RDF>
      <cc:Work
         rdf:about="">
        <dc:format>image/svg+xml</dc:format>
        <dc:type
           rdf:resource="http://purl.org/dc/dcmitype/StillImage" />
        <dc:title></dc:title>
      </cc:Work>
    </rdf:RDF>
  </metadata>
  <rect
     style="fill:url(#linearGradient1485);fill-opacity:1;stroke:none;stroke-width:0.75862068"
     id="rect4148"
     width="42.482758"
     height="39.448235"
     x="2.7586215"
     y="4.2759023" />
  <path
     style="opacity:1;fill:#34495e;fill-opacity:1;stroke:none;stroke-width:0.75862068;stroke-opacity:1"
     d="m 2.7586206,3.517241 c -0.4203047,0 -0.7586207,0.3383448 -0.7586207,0.7586207 v 38.6896553 0.758621 c 0,0.420275 0.338316,0.75862 0.7586207,0.75862 H 3.5172413 45.241379 C 45.661684,44.482758 46,44.144413 46,43.724138 V 4.2758617 C 46,3.8555858 45.661684,3.517241 45.241379,3.517241 H 3.5172413 Z M 3.5172413,6.5517237 H 44.482759 V 42.965517 H 3.5172413 Z"
     id="rect4151" />
  <circle
     style="opacity:1;fill:#ecf0f1;fill-opacity:1;stroke:none;stroke-width:0.75862068;stroke-opacity:1"
     id="path4155"
     cx="43.724125"
     cy="5.034523"
     r="0.75862068" />
  <rect
     style="opacity:1;fill:#c9c9c9;fill-opacity:1;stroke:none;stroke-width:0.75862068;stroke-opacity:1"
     id="rect4153"
     width="40.965519"
     height="0.77293432"
     x="3.517242"
     y="6.551764" />
  <path
     style="opacity:1;fill:#2c3e4f;fill-opacity:1;stroke:none;stroke-width:0.07586207;stroke-linecap:square;stroke-linejoin:miter;stroke-miterlimit:4;stroke-dasharray:none;stroke-dashoffset:0;stroke-opacity:1"
     d="m 1.9999999,43.724138 c 0,0.420275 0.338316,0.75862 0.7586207,0.75862 H 45.241379 C 45.661684,44.482758 46,44.144413 46,43.724138 Z"
     id="rect4171" />
  <rect
     style="opacity:1;fill:#c9c9c9;fill-opacity:1;stroke:none;stroke-width:0.75862068;stroke-opacity:1"
     id="rect4211"
     width="29.586206"
     height="0.75862068"
     x="3.5172412"
     y="37.655212" />
  <circle
     style="opacity:1;fill:#c9c9c9;fill-opacity:1;stroke:none;stroke-width:0.94827569;stroke-linecap:round;stroke-linejoin:miter;stroke-miterlimit:4;stroke-dasharray:none;stroke-opacity:0.29943501"
     id="path4162"
     cx="32.724133"
     cy="38.034153"
     r="1.8965514" />
  <circle
     r="1.1379306"
     cy="38.034153"
     cx="32.724133"
     id="circle4164"
     style="opacity:1;fill:#4f4f4f;fill-opacity:1;stroke:none;stroke-width:0.56896532;stroke-linecap:round;stroke-linejoin:miter;stroke-miterlimit:4;stroke-dasharray:none;stroke-opacity:0.29943501" />
  <g
     id="g848"
     transform="matrix(0.50017171,0,0,0.48797605,12.042429,10.884565)">
    <path
       d="M 40.09433,23.670172 A 16.094352,16.094352 0 0 1 23.999977,39.764524 16.094352,16.094352 0 0 1 7.9056251,23.670172 16.094352,16.094352 0 0 1 23.999977,7.5758196 16.094352,16.094352 0 0 1 40.09433,23.670172 Z"
       id="path2"
       style="fill:url(#linearGradient853);fill-opacity:1;stroke-width:1.14959657" />
    <path
       d="m 23.999977,0.67824 c -12.73753,0 -22.9919315,10.254402 -22.9919315,22.991932 0,12.73753 10.2544015,22.991932 22.9919315,22.991932 12.737531,0 22.991932,-10.254402 22.991932,-22.991932 0,-12.73753 -10.254401,-22.991932 -22.991932,-22.991932 z m 0,3.4487898 a 6.8975796,6.8975796 0 0 1 6.89758,6.8975792 6.8975796,6.8975796 0 0 1 -6.89758,6.89758 6.8975796,6.8975796 0 0 1 -6.897579,-6.89758 6.8975796,6.8975796 0 0 1 6.897579,-6.8975792 z M 11.354415,16.772592 a 6.8975796,6.8975796 0 0 1 6.897579,6.89758 6.8975796,6.8975796 0 0 1 -6.897579,6.89758 6.8975796,6.8975796 0 0 1 -6.8975797,-6.89758 6.8975796,6.8975796 0 0 1 6.8975797,-6.89758 z m 25.291125,0 a 6.8975796,6.8975796 0 0 1 6.89758,6.89758 6.8975796,6.8975796 0 0 1 -6.89758,6.89758 6.8975796,6.8975796 0 0 1 -6.89758,-6.89758 6.8975796,6.8975796 0 0 1 6.89758,-6.89758 z M 23.999977,29.418155 a 6.8975796,6.8975796 0 0 1 6.89758,6.89758 6.8975796,6.8975796 0 0 1 -6.89758,6.897579 6.8975796,6.8975796 0 0 1 -6.897579,-6.897579 6.8975796,6.8975796 0 0 1 6.897579,-6.89758 z"
       id="path4"
       style="fill:url(#linearGradient842);fill-opacity:1;stroke-width:1.14959657" />
    <path
       d="m 23.271133,20.106423 a 1.1495966,1.1495966 0 0 1 -0.420752,1.570348 1.1495966,1.1495966 0 0 1 -1.570349,-0.420752 1.1495966,1.1495966 0 0 1 0.420752,-1.570349 1.1495966,1.1495966 0 0 1 1.570349,0.420753 z"
       id="path6"
       style="fill:#333333;stroke-width:1.14959657" />
    <path
       d="m 26.719923,26.084325 a 1.1495966,1.1495966 0 0 1 -0.420752,1.570349 1.1495966,1.1495966 0 0 1 -1.570349,-0.420753 1.1495966,1.1495966 0 0 1 0.420752,-1.570348 1.1495966,1.1495966 0 0 1 1.570349,0.420752 z"
       id="path8"
       style="fill:#333333;stroke-width:1.14959657" />
    <path
       d="m 27.561428,22.865454 a 1.1495966,1.1495966 0 0 1 -1.570349,-0.420752 1.1495966,1.1495966 0 0 1 0.420752,-1.570349 1.1495966,1.1495966 0 0 1 1.570349,0.420752 1.1495966,1.1495966 0 0 1 -0.420752,1.570349 z"
       id="path10"
       style="fill:#333333;stroke-width:1.14959657" />
    <path
       d="m 21.588124,26.314244 a 1.1495966,1.1495966 0 0 1 -1.570349,-0.420752 1.1495966,1.1495966 0 0 1 0.420752,-1.570349 1.1495966,1.1495966 0 0 1 1.570349,0.420752 1.1495966,1.1495966 0 0 1 -0.420752,1.570349 z"
       id="path12"
       style="fill:#333333;stroke-width:1.14959657" />
    <path
       d="m 23.999977,4.1270298 a 6.8975796,6.8975796 0 0 0 -6.897579,6.8975792 6.8975796,6.8975796 0 0 0 0.02919,0.572614 6.8975796,6.8975796 0 0 1 6.86884,-6.3204816 6.8975796,6.8975796 0 0 1 6.86884,6.3250806 6.8975796,6.8975796 0 0 0 0.02874,-0.577098 6.8975796,6.8975796 0 0 0 -6.897579,-6.8975792 z M 11.354415,16.772592 a 6.8975796,6.8975796 0 0 0 -6.8975797,6.89758 6.8975796,6.8975796 0 0 0 0.0292,0.572499 6.8975796,6.8975796 0 0 1 6.8683797,-6.320482 6.8975796,6.8975796 0 0 1 6.86884,6.32508 6.8975796,6.8975796 0 0 0 0.02874,-0.577097 6.8975796,6.8975796 0 0 0 -6.89758,-6.89758 z m 25.291125,0 a 6.8975796,6.8975796 0 0 0 -6.89758,6.89758 6.8975796,6.8975796 0 0 0 0.02919,0.572614 6.8975796,6.8975796 0 0 1 6.868839,-6.320482 6.8975796,6.8975796 0 0 1 6.86884,6.32508 6.8975796,6.8975796 0 0 0 0.02874,-0.577097 6.8975796,6.8975796 0 0 0 -6.89758,-6.89758 z M 1.0218407,24.24497 c -0.00471,0.191983 -0.01345,0.381666 -0.01345,0.574799 0,12.73753 10.2544013,22.991932 22.9919313,22.991932 12.737531,0 22.991932,-10.254402 22.991932,-22.991932 0,-0.193018 -0.0087,-0.382931 -0.01347,-0.574799 -0.303493,12.468525 -10.433739,22.417134 -22.978137,22.417134 -12.544398,0 -22.6746428,-9.948609 -22.9781363,-22.417134 z m 22.9781363,5.173185 a 6.8975796,6.8975796 0 0 0 -6.897579,6.89758 6.8975796,6.8975796 0 0 0 0.02919,0.572614 6.8975796,6.8975796 0 0 1 6.86884,-6.320482 6.8975796,6.8975796 0 0 1 6.86884,6.32508 6.8975796,6.8975796 0 0 0 0.02874,-0.577097 6.8975796,6.8975796 0 0 0 -6.897579,-6.89758 z"
       id="path16"
       style="opacity:1;fill:#333333;stroke-width:1.14959657" />
  </g>
</svg>
