<?xml version="1.0" encoding="UTF-8" standalone="no"?>
<svg
   xmlns:dc="http://purl.org/dc/elements/1.1/"
   xmlns:cc="http://creativecommons.org/ns#"
   xmlns:rdf="http://www.w3.org/1999/02/22-rdf-syntax-ns#"
   xmlns:svg="http://www.w3.org/2000/svg"
   xmlns="http://www.w3.org/2000/svg"
   xmlns:sodipodi="http://sodipodi.sourceforge.net/DTD/sodipodi-0.dtd"
   xmlns:inkscape="http://www.inkscape.org/namespaces/inkscape"
   height="48"
   width="48"
   version="1.1"
   id="svg13"
   sodipodi:docname="system-run.svg"
   inkscape:version="0.92.2 5c3e80d, 2017-08-06">
  <sodipodi:namedview
     pagecolor="#ffffff"
     bordercolor="#666666"
     borderopacity="1"
     objecttolerance="10"
     gridtolerance="10"
     guidetolerance="10"
     inkscape:pageopacity="0"
     inkscape:pageshadow="2"
     inkscape:window-width="1600"
     inkscape:window-height="826"
     id="namedview16"
     showgrid="false"
     inkscape:zoom="4.9166667"
     inkscape:cx="-31.654693"
     inkscape:cy="35.984965"
     inkscape:window-x="0"
     inkscape:window-y="0"
     inkscape:window-maximized="1"
     inkscape:current-layer="svg13" />
  <metadata
     id="metadata19">
    <rdf:RDF>
      <cc:Work
         rdf:about="">
        <dc:format>image/svg+xml</dc:format>
        <dc:type
           rdf:resource="http://purl.org/dc/dcmitype/StillImage" />
        <dc:title />
      </cc:Work>
    </rdf:RDF>
  </metadata>
  <defs
     id="defs17" />
  <linearGradient
     id="a"
     gradientUnits="userSpaceOnUse"
     x1="409.537251898256"
     x2="409.537251898256"
     y1="544.227537992278"
     y2="502.9836729252">
    <stop
       offset="0"
       stop-color="#0a80fd"
       id="stop2" />
    <stop
       offset="1"
       stop-color="#56c5fa"
       id="stop4" />
  </linearGradient>
  <path
     style="fill:#34495e;fill-opacity:1;stroke:none;stroke-width:0.75862068"
     d="m 2.7586205,3.5172413 c -0.4203047,0 -0.7586207,0.3383449 -0.7586207,0.7586207 v 38.689655 0.758621 c 0,0.420276 0.338316,0.758621 0.7586207,0.758621 H 3.5172412 45.241379 C 45.661684,44.482759 46,44.144414 46,43.724138 V 4.275862 C 46,3.8555862 45.661684,3.5172413 45.241379,3.5172413 H 3.5172412 Z"
     id="rect4148-2" />
  <g
     id="g873"
     transform="matrix(0.98892453,0,0,0.98892453,62.738697,6.745991)"
     style="fill:#ff5555">
    <circle
       r="1"
       cy="-0.7965467"
       cx="-20.3729"
       id="path4155-0"
       style="opacity:1;fill:#ff5555;fill-opacity:1;stroke:none;stroke-opacity:1" />
    <circle
       r="1"
       cy="-0.7965467"
       cx="-23.75263"
       id="circle858"
       style="opacity:1;fill:#ff5555;fill-opacity:1;stroke:none;stroke-opacity:1" />
    <circle
       r="1"
       cy="-0.86845589"
       cx="-27.204269"
       id="circle860"
       style="opacity:1;fill:#ff5555;fill-opacity:1;stroke:none;stroke-opacity:1" />
    <circle
       style="opacity:1;fill:#ff5555;fill-opacity:1;stroke:none;stroke-opacity:1"
       id="circle856"
       cx="-27.13236"
       cy="-0.7965467"
       r="1" />
  </g>
  <rect
     style="opacity:1;fill:#ffffff;fill-opacity:1;stroke:none;stroke-width:4.75021458;stroke-miterlimit:4;stroke-dasharray:none;stroke-opacity:1"
     id="rect889"
     width="28.614845"
     height="23.432631"
     x="9.6925755"
     y="13.041526" />
  <path
     style="fill:#00d4aa;stroke-width:2.69953847"
     d="m 4.9622034,8.6521522 c -0.8063303,0 -1.4578186,0.7229981 -1.4578186,1.6184698 v 31.110033 c 0,0.895493 0.6514883,1.618467 1.4578186,1.618467 H 43.037791 c 0.806323,0 1.457824,-0.722974 1.457824,-1.618467 V 10.270622 c 0,-0.8954717 -0.651501,-1.6184698 -1.457824,-1.6184698 z M 17.958908,16.72369 31.837823,25.882882 17.958908,34.927587 Z"
     id="path2" />
</svg>
