<?xml version="1.0" encoding="UTF-8" standalone="no"?>
<svg
   xmlns:dc="http://purl.org/dc/elements/1.1/"
   xmlns:cc="http://creativecommons.org/ns#"
   xmlns:rdf="http://www.w3.org/1999/02/22-rdf-syntax-ns#"
   xmlns:svg="http://www.w3.org/2000/svg"
   xmlns="http://www.w3.org/2000/svg"
   xmlns:xlink="http://www.w3.org/1999/xlink"
   width="48"
   height="48"
   viewBox="0 0 48 48"
   version="1.1"
   id="svg102">
  <metadata
     id="metadata106">
    <rdf:RDF>
      <cc:Work
         rdf:about="">
        <dc:format>image/svg+xml</dc:format>
        <dc:type
           rdf:resource="http://purl.org/dc/dcmitype/StillImage" />
        <dc:title></dc:title>
      </cc:Work>
    </rdf:RDF>
  </metadata>
  <defs
     id="defs54">
    <linearGradient
       id="a"
       y1="525.26"
       x1="395.91"
       y2="513.95"
       x2="425.21"
       gradientUnits="userSpaceOnUse"
       gradientTransform="translate(-419.00001,-506.71113)">
      <stop
         stop-color="#da4453"
         id="stop2" />
      <stop
         offset="1"
         stop-color="#ff7336"
         id="stop4" />
    </linearGradient>
    <linearGradient
       id="b"
       y1="44.09"
       x1="26.362"
       y2="33.75"
       x2="44"
       gradientUnits="userSpaceOnUse">
      <stop
         stop-color="#c0392b"
         id="stop7" />
      <stop
         offset="1"
         stop-color="#c0392b"
         stop-opacity="0"
         id="stop9" />
    </linearGradient>
    <linearGradient
       id="c"
       y1="519.85"
       x1="388.57"
       y2="528.52"
       x2="398.82"
       gradientUnits="userSpaceOnUse">
      <stop
         stop-color="#4d4d4d"
         id="stop12" />
      <stop
         offset="1"
         stop-color="#31363b"
         id="stop14" />
    </linearGradient>
    <linearGradient
       id="d"
       y1="509.8"
       x1="394.57"
       y2="537.95"
       x2="422.73"
       gradientUnits="userSpaceOnUse">
      <stop
         stop-color="#e5e7e8"
         id="stop17" />
      <stop
         offset="1"
         stop-color="#dcdee0"
         id="stop19" />
    </linearGradient>
    <linearGradient
       id="e"
       x1="389.57"
       x2="427.57"
       gradientUnits="userSpaceOnUse"
       gradientTransform="matrix(0.70711,0.70711,-0.70711,0.70711,105.48,-635.29)">
      <stop
         stop-color="#fcfcfc"
         id="stop22" />
      <stop
         offset="1"
         stop-color="#eff0f1"
         id="stop24" />
    </linearGradient>
    <linearGradient
       xlink:href="#d"
       id="f"
       y1="133.33"
       x1="771.7"
       y2="160.66"
       gradientUnits="userSpaceOnUse"
       x2="799.04"
       gradientTransform="translate(-444.75968,-516.38672)" />
    <linearGradient
       id="g"
       y1="551.8"
       y2="528.8"
       gradientUnits="userSpaceOnUse"
       x2="0"
       gradientTransform="matrix(0.49677,0,0,0.76923,-191.25657,-404.02657)">
      <stop
         stop-color="#c6cdd1"
         id="stop28" />
      <stop
         offset="1"
         stop-color="#e0e5e7"
         id="stop30" />
    </linearGradient>
    <linearGradient
       id="h"
       y1="557.8"
       y2="505.8"
       gradientUnits="userSpaceOnUse"
       x2="0"
       gradientTransform="matrix(0.61141,0,0,0.76923,-238.90657,-386.33657)">
      <stop
         stop-color="#42a603"
         id="stop33" />
      <stop
         offset="1"
         stop-color="#78da06"
         id="stop35" />
    </linearGradient>
    <linearGradient
       id="i"
       x1="398.57"
       x2="400.57"
       gradientUnits="userSpaceOnUse"
       gradientTransform="matrix(1.5625 0 0 1.53847-227.95-292.82)">
      <stop
         stop-color="#faae2a"
         id="stop38" />
      <stop
         offset="1"
         stop-color="#ffc35a"
         id="stop40" />
    </linearGradient>
    <linearGradient
       xlink:href="#i"
       id="j"
       x1="398.57"
       gradientUnits="userSpaceOnUse"
       x2="400.57"
       gradientTransform="matrix(1.5625,0,0,1.53847,-604.39657,-793.87657)" />
    <linearGradient
       id="k"
       y1="539.88"
       x1="410.5"
       y2="529.73"
       x2="390.65"
       gradientUnits="userSpaceOnUse"
       gradientTransform="matrix(1.1580635,0,0,1.4383458,-439.42451,-734.17514)">
      <stop
         stop-color="#bcfd93"
         id="stop44" />
      <stop
         offset="1"
         stop-color="#fafff5"
         id="stop46" />
    </linearGradient>
    <linearGradient
       id="l"
       y1="34.612"
       x1="14.187"
       y2="54.612"
       x2="34.19"
       gradientUnits="userSpaceOnUse"
       gradientTransform="matrix(1,0,0,1.0440589,7.9999935,-1.176223)">
      <stop
         stop-color="#383e51"
         id="stop49" />
      <stop
         offset="1"
         stop-color="#655c6f"
         stop-opacity="0"
         id="stop51" />
    </linearGradient>
    <linearGradient
       id="h-7"
       y1="557.79999"
       y2="505.79999"
       gradientUnits="userSpaceOnUse"
       x2="0"
       gradientTransform="matrix(0.61141,0,0,0.76923,-238.90657,-386.33657)">
      <stop
         stop-color="#42a603"
         id="stop33-5" />
      <stop
         offset="1"
         stop-color="#78da06"
         id="stop35-3" />
    </linearGradient>
    <linearGradient
       id="g-5"
       y1="551.79999"
       y2="528.79999"
       gradientUnits="userSpaceOnUse"
       x2="0"
       gradientTransform="matrix(0.49677,0,0,0.76923,-191.25657,-404.02657)">
      <stop
         stop-color="#c6cdd1"
         id="stop28-6" />
      <stop
         offset="1"
         stop-color="#e0e5e7"
         id="stop30-2" />
    </linearGradient>
    <linearGradient
       id="i-9"
       x1="398.57001"
       x2="400.57001"
       gradientUnits="userSpaceOnUse"
       gradientTransform="matrix(1.5625,0,0,1.53847,-227.95,-292.82)">
      <stop
         stop-color="#faae2a"
         id="stop38-1" />
      <stop
         offset="1"
         stop-color="#ffc35a"
         id="stop40-2" />
    </linearGradient>
    <linearGradient
       xlink:href="#i-9"
       id="j-7"
       x1="398.57001"
       gradientUnits="userSpaceOnUse"
       x2="400.57001"
       gradientTransform="matrix(1.5625,0,0,1.53847,-604.39657,-793.87657)" />
    <linearGradient
       id="linearGradient1040"
       x1="398.57001"
       x2="400.57001"
       gradientUnits="userSpaceOnUse"
       gradientTransform="matrix(1.5625,0,0,1.53847,-227.95,-292.82)">
      <stop
         stop-color="#faae2a"
         id="stop1036" />
      <stop
         offset="1"
         stop-color="#ffc35a"
         id="stop1038" />
    </linearGradient>
    <linearGradient
       id="c-0"
       y1="519.84998"
       x1="388.57001"
       y2="528.52002"
       x2="398.82001"
       gradientUnits="userSpaceOnUse">
      <stop
         stop-color="#4d4d4d"
         id="stop12-9" />
      <stop
         offset="1"
         stop-color="#31363b"
         id="stop14-3" />
    </linearGradient>
    <linearGradient
       id="h-7-6"
       y1="557.79999"
       y2="505.79999"
       gradientUnits="userSpaceOnUse"
       x2="0"
       gradientTransform="matrix(0.61141,0,0,0.80312143,-229.65001,-403.22242)">
      <stop
         stop-color="#42a603"
         id="stop33-5-1" />
      <stop
         offset="1"
         stop-color="#78da06"
         id="stop35-3-8" />
    </linearGradient>
    <linearGradient
       id="g-5-7"
       y1="551.79999"
       y2="528.79999"
       gradientUnits="userSpaceOnUse"
       x2="0"
       gradientTransform="matrix(0.49677,0,0,0.80312143,-182.00001,-421.69183)">
      <stop
         stop-color="#c6cdd1"
         id="stop28-6-9" />
      <stop
         offset="1"
         stop-color="#e0e5e7"
         id="stop30-2-2" />
    </linearGradient>
    <linearGradient
       id="i-9-0"
       x1="398.57001"
       x2="400.57001"
       gradientUnits="userSpaceOnUse"
       gradientTransform="matrix(1.5625,0,0,1.53847,-227.95,-292.82)">
      <stop
         stop-color="#faae2a"
         id="stop38-1-2" />
      <stop
         offset="1"
         stop-color="#ffc35a"
         id="stop40-2-3" />
    </linearGradient>
    <linearGradient
       xlink:href="#i-9-0"
       id="j-7-7"
       x1="398.57001"
       gradientUnits="userSpaceOnUse"
       x2="400.57001"
       gradientTransform="matrix(1.5625,0,0,1.6062533,-595.14001,-828.71819)" />
    <linearGradient
       id="linearGradient1181"
       x1="398.57001"
       x2="400.57001"
       gradientUnits="userSpaceOnUse"
       gradientTransform="matrix(1.5625,0,0,1.53847,-227.95,-292.82)">
      <stop
         stop-color="#faae2a"
         id="stop1177" />
      <stop
         offset="1"
         stop-color="#ffc35a"
         id="stop1179" />
    </linearGradient>
    <linearGradient
       id="c-0-5"
       y1="519.84998"
       x1="388.57001"
       y2="528.52002"
       x2="398.82001"
       gradientUnits="userSpaceOnUse">
      <stop
         stop-color="#4d4d4d"
         id="stop12-9-9" />
      <stop
         offset="1"
         stop-color="#31363b"
         id="stop14-3-2" />
    </linearGradient>
    <linearGradient
       gradientUnits="userSpaceOnUse"
       y2="56.212254"
       x2="100.77966"
       y1="162.14445"
       x1="97.651306"
       id="linearGradient892-3"
       xlink:href="#0"
       gradientTransform="matrix(1.39536,0,0,1.39536,-40.989357,-29.971837)" />
    <linearGradient
       id="0"
       gradientUnits="userSpaceOnUse"
       x1="400.51001"
       y1="546.07001"
       x2="400.70001"
       y2="517.77002">
      <stop
         stop-color="#197ff1"
         id="stop828" />
      <stop
         offset="1"
         stop-color="#21c6fb"
         id="stop830" />
    </linearGradient>
    <linearGradient
       xlink:href="#0"
       id="linearGradient855-2"
       x1="130.8252"
       y1="113.94272"
       x2="130.24893"
       y2="85.287224"
       gradientUnits="userSpaceOnUse"
       gradientTransform="matrix(1.39536,0,0,1.39536,-40.989357,-29.971837)" />
  </defs>
  <g
     id="layer2"
     style="display:inline" />
  <g
     id="layer1"
     style="display:inline" />
  <g
     transform="matrix(1.0492368,0,0,1.0492368,-1.6464988,-1.1837458)"
     id="g910">
    <g
       id="g861"
       transform="matrix(0.23898821,0,0,0.2337299,0.51563287,0.51379018)">
      <ellipse
         ry="90.020462"
         rx="88.526817"
         cy="99.957642"
         cx="100.24366"
         id="path829"
         style="fill:#ffffff;fill-opacity:1;stroke:none;stroke-width:0.49831924;stroke-miterlimit:4;stroke-dasharray:none;stroke-opacity:1" />
      <g
         id="g841">
        <path
           d="M 82.500003,4.912163 C 64.081251,8.540099 48.871827,16.912259 34.360083,31.424003 17.894835,47.889251 9.522675,64.912643 6.173811,88.633763 c -2.79072,19.674577 2.09304,43.535227 12.418704,61.395837 6.418656,11.02335 23.442048,28.32581 34.18632,34.60493 26.51184,15.76757 60.279555,16.88386 88.326285,3.20933 20.65133,-10.04659 35.16307,-24.83741 44.79106,-45.76781 6.41865,-13.67453 8.9303,-25.11648 8.9303,-41.58173 0,-17.162925 -2.65118,-28.604877 -9.76752,-43.256157 C 169.01232,24.168131 135.66322,3.237731 100.08154,3.656339 93.523347,3.795875 85.569795,4.354019 82.500003,4.912163 Z m 11.581488,31.3956 c 7.395409,7.534944 6.976799,8.37216 -6.000048,14.093136 -8.37216,3.627936 -8.790768,4.046544 -6.837264,6.697728 1.116288,1.534896 1.953504,6.139584 1.953504,10.186128 0,7.953552 0.976752,8.790768 6.9768,5.302368 4.18608,-2.372112 10.604737,-2.651184 16.604787,-0.558144 3.34886,1.255824 4.32561,2.232576 4.04654,4.604688 -0.41861,2.511648 -1.67443,3.069792 -8.79077,4.046544 -4.604685,0.558144 -10.883805,1.534896 -13.953597,2.09304 l -5.58144,0.976752 -0.418608,7.255872 c -0.418608,7.953552 -1.39536,7.116336 12.55824,9.627985 5.302368,0.83722 8.372165,4.04654 9.907055,10.04659 2.37211,9.48845 -4.604687,9.62799 -14.790815,0.27907 l -7.534944,-6.83726 -0.837216,17.72107 c -0.558144,9.76752 -0.976752,23.86066 -0.976752,31.25607 0,18.69782 -1.674432,21.62808 -8.232624,14.51174 -4.18608,-4.46515 -5.58144,-11.16288 -4.325616,-21.20947 0.558144,-4.46515 1.39536,-15.34896 1.953504,-24.00019 l 0.837216,-15.90711 -18.976896,18.27922 c -16.604784,16.04664 -22.883904,20.65132 -22.883904,17.30246 0,-0.41861 4.604688,-6.55819 10.325664,-13.53499 10.604736,-13.11638 29.442096,-41.302657 27.628128,-41.302657 -0.558144,0 -7.534944,1.674432 -15.628032,3.767472 -14.65128,3.627936 -23.162976,3.767472 -22.046688,0 0.418608,-0.976752 9.627984,-4.18608 20.790864,-7.395408 l 20.093184,-5.720976 0.418608,-8.093088 c 0.69768,-12.139632 0.837216,-12.139632 -12.418704,-8.232624 -12.279168,3.627936 -18.697824,4.325616 -17.302464,1.953504 0.558144,-0.837216 6.418656,-4.18608 12.976848,-7.534944 6.697728,-3.348864 16.186176,-9.06984 20.9304,-12.697776 7.67448,-5.58144 8.790768,-6.9768 8.093088,-9.907056 -1.534896,-5.58144 4.325616,-4.18608 11.441952,2.930256 z m 78.000619,46.74456 c 3.90701,2.232576 7.53495,4.744224 7.95356,5.441904 0.55814,0.69768 -0.55815,3.4884 -2.23258,6.000048 -1.81397,2.511648 -5.0233,9.907055 -7.25587,16.186175 -3.34887,9.62799 -3.76747,12.13963 -2.37211,15.06989 0.83721,1.9535 1.25582,4.18608 0.83721,4.88376 -0.55814,0.69768 -7.25587,1.25582 -15.06989,1.25582 -16.88385,0.13954 -23.86065,1.39536 -28.3258,5.72098 l -3.4884,3.20933 -3.34887,-3.4884 c -2.65118,-2.65119 -4.32561,-7.67448 -7.67448,-22.88391 -2.37211,-10.74427 -4.88376,-20.093181 -5.72097,-20.930397 -1.81397,-1.813968 -1.5349,-6.000048 0.55814,-6.697728 0.83722,-0.279072 3.76747,0.418608 6.13958,1.534896 4.18608,1.953504 5.86052,1.813968 25.11648,-2.372112 11.30242,-2.511648 21.90716,-5.162832 23.44205,-5.860512 3.90701,-1.534896 3.4884,-1.674432 11.44195,2.930256 z"
           id="path4"
           style="fill:url(#linearGradient892-3);fill-opacity:1;fill-rule:nonzero;stroke:none;stroke-width:0.13953601" />
      </g>
      <path
         style="fill:url(#linearGradient855-2);fill-opacity:1;stroke:none;stroke-width:0.13953601"
         id="path6"
         d="m 150.87264,90.726803 c -0.69768,0.279072 -8.09309,1.953504 -16.46525,3.627936 -12.27916,2.511648 -14.93035,3.4884 -14.3722,5.302368 0.41861,1.255823 1.67443,6.976803 2.93025,12.697773 3.20933,15.34896 2.37211,14.65128 17.72107,11.86056 l 13.25592,-2.37211 2.37212,-12.83731 c 3.06979,-17.302465 2.93025,-18.976897 -0.83722,-18.837361 -1.81397,0 -3.76747,0.279072 -4.60469,0.558144 z" />
    </g>
  </g>
</svg>
