<?xml version="1.0" encoding="UTF-8" standalone="no"?>
<svg
   xmlns:dc="http://purl.org/dc/elements/1.1/"
   xmlns:cc="http://creativecommons.org/ns#"
   xmlns:rdf="http://www.w3.org/1999/02/22-rdf-syntax-ns#"
   xmlns:svg="http://www.w3.org/2000/svg"
   xmlns="http://www.w3.org/2000/svg"
   xmlns:xlink="http://www.w3.org/1999/xlink"
   xmlns:sodipodi="http://sodipodi.sourceforge.net/DTD/sodipodi-0.dtd"
   xmlns:inkscape="http://www.inkscape.org/namespaces/inkscape"
   id="svg13"
   version="1.1"
   width="48"
   height="48"
   sodipodi:docname="theme-config.svg"
   inkscape:version="0.92.2 5c3e80d, 2017-08-06">
  <sodipodi:namedview
     pagecolor="#ffffff"
     bordercolor="#666666"
     borderopacity="1"
     objecttolerance="10"
     gridtolerance="10"
     guidetolerance="10"
     inkscape:pageopacity="0"
     inkscape:pageshadow="2"
     inkscape:window-width="1366"
     inkscape:window-height="701"
     id="namedview45"
     showgrid="false"
     inkscape:zoom="4.9166667"
     inkscape:cx="-12.711864"
     inkscape:cy="24"
     inkscape:window-x="0"
     inkscape:window-y="0"
     inkscape:window-maximized="1"
     inkscape:current-layer="svg13" />
  <metadata
     id="metadata19">
    <rdf:RDF>
      <cc:Work
         rdf:about="">
        <dc:format>image/svg+xml</dc:format>
        <dc:type
           rdf:resource="http://purl.org/dc/dcmitype/StillImage" />
        <dc:title />
      </cc:Work>
    </rdf:RDF>
  </metadata>
  <defs
     id="defs17">
    <linearGradient
       id="linearGradient918">
      <stop
         id="stop914"
         offset="0"
         style="stop-color:#d9d9d9;stop-opacity:1" />
      <stop
         id="stop916"
         offset="1"
         style="stop-color:#ffffff;stop-opacity:1" />
    </linearGradient>
    <linearGradient
       id="linearGradient-1"
       y2="39.516379"
       x2="26.495172"
       y1="4.864081"
       x1="26.495172"
       gradientTransform="matrix(0.90582163,0,0,1.1039701,-51.900203,-0.27966102)"
       gradientUnits="userSpaceOnUse">
      <stop
         id="stop6"
         offset="0%"
         stop-color="#DADEF0" />
      <stop
         id="stop8"
         offset="100%"
         stop-color="#F5F5FA" />
    </linearGradient>
    <linearGradient
       gradientTransform="translate(-84.474576,-14.649753)"
       gradientUnits="userSpaceOnUse"
       y2="53.202442"
       x2="32.523129"
       y1="1.6196005"
       x1="32.523129"
       id="linearGradient1026"
       xlink:href="#linearGradient-1" />
    <linearGradient
       gradientUnits="userSpaceOnUse"
       y2="8.1312571"
       x2="24.15711"
       y1="42.707527"
       x1="24.15711"
       id="linearGradient920"
       xlink:href="#linearGradient918" />
  </defs>
  <linearGradient
     y2="502.9836729252"
     y1="544.227537992278"
     x2="409.537251898256"
     x1="409.537251898256"
     gradientUnits="userSpaceOnUse"
     id="a">
    <stop
       id="stop2"
       stop-color="#0a80fd"
       offset="0" />
    <stop
       id="stop4"
       stop-color="#56c5fa"
       offset="1" />
  </linearGradient>
  <path
     id="rect4148-2"
     d="m 2.7586205,3.5172413 c -0.4203047,0 -0.7586207,0.3383449 -0.7586207,0.7586207 v 38.689655 0.758621 c 0,0.420276 0.338316,0.758621 0.7586207,0.758621 H 3.5172412 45.241379 C 45.661684,44.482759 46,44.144414 46,43.724138 V 4.275862 C 46,3.8555862 45.661684,3.5172413 45.241379,3.5172413 H 3.5172412 Z"
     style="fill:#34495e;fill-opacity:1;stroke:none;stroke-width:0.75862068" />
  <g
     style="fill:#ff5555"
     transform="matrix(0.98892453,0,0,0.98892453,62.738697,6.745991)"
     id="g873">
    <circle
       style="opacity:1;fill:#ff5555;fill-opacity:1;stroke:none;stroke-opacity:1"
       id="path4155-0"
       cx="-20.3729"
       cy="-0.7965467"
       r="1" />
    <circle
       style="opacity:1;fill:#ff5555;fill-opacity:1;stroke:none;stroke-opacity:1"
       id="circle858"
       cx="-23.75263"
       cy="-0.7965467"
       r="1" />
    <circle
       style="opacity:1;fill:#ff5555;fill-opacity:1;stroke:none;stroke-opacity:1"
       id="circle860"
       cx="-27.204269"
       cy="-0.86845589"
       r="1" />
    <circle
       r="1"
       cy="-0.7965467"
       cx="-27.13236"
       id="circle856"
       style="opacity:1;fill:#ff5555;fill-opacity:1;stroke:none;stroke-opacity:1" />
  </g>
  <path
     id="path911"
     d="M 4.9628906 8.6523438 C 4.1565603 8.6523438 3.5039063 9.3760127 3.5039062 10.271484 L 3.5039062 41.380859 C 3.5039062 42.276352 4.1565603 43 4.9628906 43 L 43.037109 43 C 43.843432 43 44.496094 42.276352 44.496094 41.380859 L 44.496094 10.271484 C 44.496094 9.3760127 43.843432 8.6523438 43.037109 8.6523438 L 4.9628906 8.6523438 z "
     style="fill:url(#linearGradient920);stroke-width:2.69953847;fill-opacity:1" />
  <g
     transform="matrix(1.4306872,0,0,1.4306872,8.2624407,15.713146)"
     id="g997"
     style="fill:none;fill-rule:evenodd;stroke:none;stroke-width:1">
    <path
       id="path955"
       d="m 20.166667,9.2857143 c -1.012523,0 -1.833334,0.8314707 -1.833334,1.8571427 C 18.333333,12.168529 19.154144,13 20.166667,13 21.179189,13 22,12.168529 22,11.142857 22,10.117185 21.179189,9.2857143 20.166667,9.2857143 Z"
       style="fill:#fc0000" />
    <path
       id="path957"
       d="m 16.5,9.9047619 c -0.675015,0 -1.222222,0.5543141 -1.222222,1.2380951 0,0.683782 0.547207,1.238095 1.222222,1.238095 0.675015,0 1.222222,-0.554313 1.222222,-1.238095 0,-0.683781 -0.547207,-1.2380951 -1.222222,-1.2380951 z"
       style="fill:#fc0000" />
    <path
       id="path959"
       d="m 14.055556,10.52381 c -0.337508,0 -0.611112,0.277156 -0.611112,0.619047 0,0.341891 0.273604,0.619048 0.611112,0.619048 0.337507,0 0.611111,-0.277157 0.611111,-0.619048 0,-0.341891 -0.273604,-0.619047 -0.611111,-0.619047 z"
       style="fill:#fc0000" />
    <path
       id="path961"
       d="m 18.021899,4.8916679 c -0.876869,0.5128345 -1.177307,1.6486445 -0.671046,2.5369035 0.506261,0.8882591 1.62751,1.1925984 2.50438,0.6797607 C 20.732103,7.5954976 21.03254,6.4596876 20.52628,5.5714286 20.020018,4.6831695 18.898769,4.3788302 18.021899,4.8916679 Z"
       style="fill:#ff6600" />
    <path
       id="path963"
       d="m 15.152029,7.2849214 c -0.58458,0.3418907 -0.784872,1.0990974 -0.447365,1.6912691 0.337508,0.5921716 1.085007,0.7950645 1.669587,0.4531738 0.58458,-0.3418907 0.784871,-1.0990974 0.447364,-1.6912691 C 16.484108,7.1459236 15.736609,6.9430307 15.152029,7.2849214 Z"
       style="fill:#ff6600" />
    <path
       id="path965"
       d="m 13.340633,9.0591274 c -0.29229,0.1709438 -0.392436,0.5495471 -0.223682,0.8456345 0.168754,0.2960871 0.542503,0.3975341 0.834793,0.2265871 C 14.244034,9.960405 14.34418,9.5818017 14.175427,9.2857143 14.006673,8.9896269 13.632923,8.8881836 13.340633,9.0591274 Z"
       style="fill:#ff6600" />
    <path
       id="path967"
       d="m 13.99562,2.1726219 c -0.506261,0.888256 -0.205823,2.024069 0.671047,2.5369036 0.87687,0.5128345 1.998118,0.2084952 2.504379,-0.6797607 C 17.677308,3.1415057 17.37687,2.0056957 16.5,1.4928612 15.62313,0.98002357 14.501881,1.2843629 13.99562,2.1726219 Z"
       style="fill:#ffd700" />
    <path
       id="path969"
       d="m 12.691524,5.69881 c -0.337507,0.5921717 -0.137215,1.3493783 0.447365,1.691269 0.58458,0.3418908 1.332079,0.1389979 1.669587,-0.4531738 C 15.145983,6.3447336 14.945691,5.5875269 14.361111,5.2456362 13.776531,4.9037455 13.029032,5.1066383 12.691524,5.69881 Z"
       style="fill:#ffd700" />
    <path
       id="path971"
       d="m 11.99854,8.1527798 c -0.168753,0.2960842 -0.06861,0.6746876 0.223682,0.8456345 0.29229,0.1709438 0.66604,0.069497 0.834794,-0.2265869 C 13.225769,8.47574 13.125623,8.0971367 12.833333,7.9261929 12.541044,7.7552459 12.167294,7.8566924 11.99854,8.1527798 Z"
       style="fill:#ffd700" />
    <path
       id="path973"
       d="M 9.166667,1.8571429 C 9.1666667,2.882815 9.9874778,3.7142857 11,3.7142857 c 1.012522,0 1.833333,-0.8314707 1.833333,-1.8571428 C 12.833333,0.83147071 12.012522,0 11,0 9.9874778,0 9.1666667,0.83147071 9.166667,1.8571429 Z"
       style="fill:#25cc00" />
    <path
       id="path975"
       d="m 9.7777778,5.5714286 c 0,0.6837814 0.5472082,1.2380952 1.2222222,1.2380952 0.675015,0 1.222222,-0.5543138 1.222223,-1.2380952 C 12.222222,4.8876471 11.675014,4.3333333 11,4.3333333 c -0.675014,0 -1.2222222,0.5543138 -1.2222222,1.2380953 z"
       style="fill:#25cc00" />
    <path
       id="path977"
       d="m 10.388889,8.0476191 c 0,0.3418907 0.273604,0.6190476 0.611111,0.6190476 0.337507,0 0.611111,-0.2771569 0.611111,-0.6190476 0,-0.3418908 -0.273604,-0.6190477 -0.611111,-0.6190477 -0.337507,0 -0.611111,0.2771569 -0.611111,0.6190477 z"
       style="fill:#25cc00" />
    <path
       id="path979"
       d="M 4.8289539,4.0297648 C 5.3352145,4.9180207 6.4564634,5.2223631 7.3333333,4.7095255 8.2102032,4.1966909 8.510641,3.0608779 8.0043798,2.1726219 7.4981188,1.2843629 6.3768699,0.98002357 5.5,1.4928612 4.6231301,2.0056957 4.3226923,3.1415057 4.8289539,4.0297648 Z"
       style="fill:#009999" />
    <path
       id="path981"
       d="M 7.1915244,6.9369052 C 7.5290319,7.5290769 8.2765314,7.7319698 8.8611111,7.390079 9.4456911,7.0481883 9.6459828,6.2909817 9.3084759,5.69881 8.9709681,5.1066383 8.2234686,4.9037455 7.6388889,5.2456362 7.0543092,5.5875269 6.8540172,6.3447336 7.1915244,6.9369052 Z"
       style="fill:#009999" />
    <path
       id="path983"
       d="M 8.9429844,8.7718274 C 9.1117385,9.0679117 9.4854879,9.1693581 9.7777778,8.9984143 10.070068,8.8274674 10.170213,8.448864 10.00146,8.1527798 9.8327063,7.8566924 9.4589565,7.7552459 9.1666667,7.9261929 8.8743768,8.0971367 8.774231,8.47574 8.9429844,8.7718274 Z"
       style="fill:#009999" />
    <path
       id="path985"
       d="M 2.1447675,8.1083321 C 3.0216371,8.6211698 4.142886,8.3168305 4.6491473,7.4285714 5.1554082,6.5403124 4.8549704,5.4045024 3.9781005,4.8916679 3.1012306,4.3788302 1.9799817,4.6831695 1.4737207,5.5714286 0.96745947,6.4596876 1.2678973,7.5954976 2.1447675,8.1083321 Z"
       style="fill:#0033cc" />
    <path
       id="path987"
       d="M 5.6257489,9.4293643 C 6.210329,9.771255 6.9578285,9.5683621 7.295336,8.9761905 7.6328432,8.3840188 7.4325512,7.6268121 6.8479718,7.2849214 6.2633914,6.9430307 5.5158919,7.1459236 5.1783847,7.7380952 4.8408776,8.3302669 5.0411692,9.0874736 5.6257489,9.4293643 Z"
       style="fill:#0033cc" />
    <path
       id="path989"
       d="m 8.0482557,10.131349 c 0.2922902,0.170947 0.6660396,0.0695 0.8347934,-0.2265871 C 9.0518028,9.6086776 8.9516567,9.2300712 8.6593668,9.0591274 8.367077,8.8881836 7.9933272,8.9896269 7.8245735,9.2857143 7.65582,9.5818017 7.7559659,9.960405 8.0482557,10.131349 Z"
       style="fill:#0033cc" />
    <path
       id="path991"
       d="M 1.8333336,13 C 2.8458555,13 3.6666667,12.168529 3.666667,11.142857 3.6666667,10.117185 2.8458555,9.2857143 1.8333333,9.2857143 0.82081114,9.2857143 0,10.117185 3.0555555e-7,11.142857 0,12.168529 0.82081114,13 1.8333336,13 Z"
       style="fill:#660099" />
    <path
       id="path993"
       d="m 5.5,12.380952 c 0.6750147,0 1.2222222,-0.554313 1.2222225,-1.238095 C 6.7222222,10.459076 6.1750147,9.9047619 5.5,9.9047619 c -0.6750147,0 -1.2222222,0.5543141 -1.2222222,1.2380951 0,0.683782 0.5472075,1.238095 1.2222222,1.238095 z"
       style="fill:#660099" />
    <path
       id="path995"
       d="m 7.9444444,11.761905 c 0.3375075,0 0.6111112,-0.277157 0.6111112,-0.619048 3e-7,-0.341891 -0.273604,-0.619047 -0.6111112,-0.619047 -0.3375072,0 -0.6111111,0.277156 -0.6111111,0.619047 0,0.341891 0.2736039,0.619048 0.6111111,0.619048 z"
       style="fill:#660099" />
  </g>
</svg>
