<?xml version="1.0" encoding="UTF-8" standalone="no"?>
<svg
   xmlns:dc="http://purl.org/dc/elements/1.1/"
   xmlns:cc="http://creativecommons.org/ns#"
   xmlns:rdf="http://www.w3.org/1999/02/22-rdf-syntax-ns#"
   xmlns:svg="http://www.w3.org/2000/svg"
   xmlns="http://www.w3.org/2000/svg"
   xmlns:xlink="http://www.w3.org/1999/xlink"
   width="48px"
   height="48px"
   viewBox="0 0 48 48"
   version="1.1"
   id="SVGRoot">
  <defs
     id="defs1191">
    <linearGradient
       xlink:href="#linearGradient1168"
       id="linearGradient1170"
       x1="24.4"
       y1="45.27766"
       x2="24.4"
       y2="2.6209366"
       gradientUnits="userSpaceOnUse" />
    <linearGradient
       id="linearGradient1168">
      <stop
         style="stop-color:#cb9862;stop-opacity:1"
         offset="0"
         id="stop1164" />
      <stop
         style="stop-color:#d7b187;stop-opacity:1"
         offset="1"
         id="stop1166" />
    </linearGradient>
    <linearGradient
       id="b-3-0"
       y1="543.79999"
       y2="503.79999"
       x2="0"
       gradientUnits="userSpaceOnUse"
       gradientTransform="matrix(1.0864499,0,0,1.0864499,-419.89085,-545.3513)">
      <stop
         stop-color="#1d1e1e"
         id="stop7-6-9" />
      <stop
         offset="1"
         stop-color="#44484c"
         id="stop9-7-3" />
    </linearGradient>
  </defs>
  <metadata
     id="metadata1194">
    <rdf:RDF>
      <cc:Work
         rdf:about="">
        <dc:format>image/svg+xml</dc:format>
        <dc:type
           rdf:resource="http://purl.org/dc/dcmitype/StillImage" />
        <dc:title></dc:title>
      </cc:Work>
    </rdf:RDF>
  </metadata>
  <rect
     rx="2.1975729"
     style="fill-opacity:0.66666697;stroke-width:1"
     id="rect7"
     y="2.5423043"
     x="2"
     width="44"
     ry="2.1975727"
     height="43.457695" />
  <rect
     rx="2.1975729"
     style="fill:url(#linearGradient1170);fill-opacity:1;stroke-width:1"
     id="rect9"
     y="2.0021472"
     x="2"
     width="44"
     ry="2.1975727"
     height="43.457695" />
  <rect
     style="fill:url(#b-3-0);stroke-width:2.80000019;stroke-opacity:0.55"
     width="8.6915998"
     x="19.6542"
     y="2.0021472"
     height="43.458"
     id="rect31" />
  <path
     style="fill-opacity:0.66666697;fill-rule:evenodd;stroke-width:1"
     id="path11"
     d="M 20.725908,2.0000007 V 17.539531 h -0.01835 v 5.088201 c -0.374891,3.276844 6.95913,3.276844 6.570123,0 v -2.51772 h 0.0022 V 2.0000007 H 20.72612 Z" />
  <g
     style="fill:#ffffff;stroke-width:0.95353276"
     id="g25"
     transform="matrix(1.112336,0,0,0.98876438,-430.222,-493.66561)">
    <rect
       rx="0.87782472"
       style="opacity:0.92900002;stroke-width:0.95353276"
       id="rect13"
       y="502.52133"
       x="406.2309"
       width="4.395155"
       ry="0.98753148"
       height="2.197578" />
    <rect
       rx="0.87782472"
       style="opacity:0.92900002;stroke-width:0.95353276"
       id="rect15"
       y="505.69974"
       x="406.22171"
       width="4.395155"
       ry="0.98753148"
       height="2.197578" />
    <rect
       rx="0.87782472"
       style="opacity:0.92900002;stroke-width:0.95353276"
       id="rect17"
       y="508.83987"
       x="406.19412"
       width="4.395155"
       ry="0.98753148"
       height="2.197578" />
    <rect
       rx="0.87782472"
       style="opacity:0.92900002;stroke-width:0.95353276"
       id="rect19"
       y="512.10864"
       x="406.24228"
       width="4.395155"
       ry="0.98753148"
       height="2.197578" />
    <rect
       rx="0.87782472"
       style="opacity:0.92900002;stroke-width:0.95353276"
       id="rect21"
       y="515.32019"
       x="406.24228"
       width="4.395155"
       ry="0.98753148"
       height="2.197578" />
    <rect
       rx="0.87782472"
       style="opacity:0.92900002;stroke-width:0.95353276"
       id="rect23"
       y="518.60736"
       x="406.24222"
       width="4.395155"
       ry="0.98753148"
       height="2.197578" />
  </g>
  <path
     style="fill-opacity:0.66666697;stroke-width:1"
     id="path27"
     d="m 25.889984,24.928953 v -1.371219 c 0,-0.382039 -0.347316,-0.691878 -0.775543,-0.691878 h -2.154717 c -0.428227,0 -0.775621,0.309928 -0.775621,0.691878 v 1.370546 l -1.198453,3.141107 c -0.335325,0.875442 -0.174437,1.848099 0.429762,2.601914 0.604232,0.752439 1.583966,1.201843 2.621631,1.201843 1.037854,0 2.017689,-0.449404 2.621899,-1.201843 0.604209,-0.753815 0.764897,-1.726472 0.429673,-2.601222 z m -0.500563,4.932203 c -0.621718,0.77624 -2.083049,0.77624 -2.704856,0 -0.311632,-0.388861 -0.394601,-0.890451 -0.222389,-1.342455 l 0.40222,-1.053558 h 2.345183 l 0.402321,1.05425 c 0.172289,0.451312 0.08921,0.952902 -0.222479,1.341763 z" />
  <path
     style="fill:#f0f5f1;stroke-width:1"
     id="path31"
     d="m 25.889984,24.463472 v -1.371228 c 0,-0.382039 -0.347316,-0.691878 -0.775543,-0.691878 h -2.154717 c -0.428227,0 -0.775621,0.309918 -0.775621,0.691878 v 1.370546 l -1.198453,3.141106 c -0.335325,0.875442 -0.174437,1.8481 0.429762,2.601914 0.604232,0.75244 1.583966,1.201843 2.621631,1.201843 1.037854,0 2.017689,-0.449403 2.621899,-1.201843 0.604209,-0.753814 0.764897,-1.726472 0.429673,-2.601231 z m -0.500563,4.932194 c -0.621718,0.776239 -2.083049,0.776239 -2.704856,0 -0.311632,-0.388851 -0.394601,-0.890452 -0.222389,-1.342455 l 0.40222,-1.053558 h 2.345183 l 0.402321,1.05426 c 0.172289,0.451301 0.08921,0.952902 -0.222479,1.341753 z" />
</svg>
