<?xml version="1.0" encoding="UTF-8" standalone="no"?>
<svg
   xmlns:dc="http://purl.org/dc/elements/1.1/"
   xmlns:cc="http://creativecommons.org/ns#"
   xmlns:rdf="http://www.w3.org/1999/02/22-rdf-syntax-ns#"
   xmlns:svg="http://www.w3.org/2000/svg"
   xmlns="http://www.w3.org/2000/svg"
   xmlns:xlink="http://www.w3.org/1999/xlink"
   xmlns:sodipodi="http://sodipodi.sourceforge.net/DTD/sodipodi-0.dtd"
   xmlns:inkscape="http://www.inkscape.org/namespaces/inkscape"
   height="48"
   viewBox="0 0 48 48"
   width="48"
   version="1.1"
   id="svg42"
   sodipodi:docname="emblem-web.svg"
   inkscape:version="0.92.2 2405546, 2018-03-11">
  <metadata
     id="metadata48">
    <rdf:RDF>
      <cc:Work
         rdf:about="">
        <dc:format>image/svg+xml</dc:format>
        <dc:type
           rdf:resource="http://purl.org/dc/dcmitype/StillImage" />
        <dc:title />
      </cc:Work>
    </rdf:RDF>
  </metadata>
  <defs
     id="defs46">
    <linearGradient
       inkscape:collect="always"
       id="linearGradient1119">
      <stop
         style="stop-color:#2b89f2;stop-opacity:1"
         offset="0"
         id="stop1115" />
      <stop
         style="stop-color:#20bafa;stop-opacity:1"
         offset="1"
         id="stop1117" />
    </linearGradient>
    <linearGradient
       inkscape:collect="always"
       id="linearGradient1103">
      <stop
         style="stop-color:#06a1df;stop-opacity:1"
         offset="0"
         id="stop1099" />
      <stop
         style="stop-color:#2cbffa;stop-opacity:1"
         offset="1"
         id="stop1101" />
    </linearGradient>
    <linearGradient
       id="a-3"
       y1="525.26001"
       x1="395.91"
       y2="513.95001"
       x2="425.20999"
       gradientUnits="userSpaceOnUse"
       gradientTransform="translate(-419.00001,-506.71113)">
      <stop
         stop-color="#da4453"
         id="stop2-6" />
      <stop
         offset="1"
         stop-color="#ff7336"
         id="stop4-7" />
    </linearGradient>
    <linearGradient
       id="b-3"
       y1="44.09"
       x1="26.362"
       y2="33.75"
       x2="44"
       gradientUnits="userSpaceOnUse">
      <stop
         stop-color="#c0392b"
         id="stop7" />
      <stop
         offset="1"
         stop-color="#c0392b"
         stop-opacity="0"
         id="stop9" />
    </linearGradient>
    <linearGradient
       id="c-6"
       y1="519.84998"
       x1="388.57001"
       y2="528.52002"
       x2="398.82001"
       gradientUnits="userSpaceOnUse">
      <stop
         stop-color="#4d4d4d"
         id="stop12" />
      <stop
         offset="1"
         stop-color="#31363b"
         id="stop14-7" />
    </linearGradient>
    <linearGradient
       id="d-5"
       y1="509.79999"
       x1="394.57001"
       y2="537.95001"
       x2="422.73001"
       gradientUnits="userSpaceOnUse">
      <stop
         stop-color="#e5e7e8"
         id="stop17" />
      <stop
         offset="1"
         stop-color="#dcdee0"
         id="stop19" />
    </linearGradient>
    <linearGradient
       id="e-3"
       x1="389.57001"
       x2="427.57001"
       gradientUnits="userSpaceOnUse"
       gradientTransform="matrix(0.70711,0.70711,-0.70711,0.70711,105.48,-635.29)">
      <stop
         stop-color="#fcfcfc"
         id="stop22" />
      <stop
         offset="1"
         stop-color="#eff0f1"
         id="stop24" />
    </linearGradient>
    <linearGradient
       xlink:href="#d-5"
       id="f-5"
       y1="133.33"
       x1="771.70001"
       y2="160.66"
       gradientUnits="userSpaceOnUse"
       x2="799.03998"
       gradientTransform="translate(-444.75968,-516.38672)" />
    <linearGradient
       id="g"
       y1="551.79999"
       y2="528.79999"
       gradientUnits="userSpaceOnUse"
       x2="0"
       gradientTransform="matrix(0.49677,0,0,0.76923,-191.25657,-404.02657)">
      <stop
         stop-color="#c6cdd1"
         id="stop28" />
      <stop
         offset="1"
         stop-color="#e0e5e7"
         id="stop30" />
    </linearGradient>
    <linearGradient
       id="h"
       y1="557.79999"
       y2="505.79999"
       gradientUnits="userSpaceOnUse"
       x2="0"
       gradientTransform="matrix(0.61141,0,0,0.76923,-238.90657,-386.33657)">
      <stop
         stop-color="#42a603"
         id="stop33" />
      <stop
         offset="1"
         stop-color="#78da06"
         id="stop35" />
    </linearGradient>
    <linearGradient
       id="i"
       x1="398.57001"
       x2="400.57001"
       gradientUnits="userSpaceOnUse"
       gradientTransform="matrix(1.5625,0,0,1.53847,-227.95,-292.82)">
      <stop
         stop-color="#faae2a"
         id="stop38" />
      <stop
         offset="1"
         stop-color="#ffc35a"
         id="stop40" />
    </linearGradient>
    <linearGradient
       xlink:href="#i"
       id="j"
       x1="398.57001"
       gradientUnits="userSpaceOnUse"
       x2="400.57001"
       gradientTransform="matrix(1.5625,0,0,1.53847,-604.39657,-793.87657)" />
    <linearGradient
       id="k"
       y1="539.88"
       x1="410.5"
       y2="529.72998"
       x2="390.64999"
       gradientUnits="userSpaceOnUse"
       gradientTransform="matrix(1.1580635,0,0,1.4383458,-439.42451,-734.17514)">
      <stop
         stop-color="#bcfd93"
         id="stop44" />
      <stop
         offset="1"
         stop-color="#fafff5"
         id="stop46" />
    </linearGradient>
    <linearGradient
       id="l"
       y1="34.612"
       x1="14.187"
       y2="54.612"
       x2="34.189999"
       gradientUnits="userSpaceOnUse"
       gradientTransform="matrix(1,0,0,1.0440589,7.9999935,-1.176223)">
      <stop
         stop-color="#383e51"
         id="stop49" />
      <stop
         offset="1"
         stop-color="#655c6f"
         stop-opacity="0"
         id="stop51" />
    </linearGradient>
    <linearGradient
       id="h-7"
       y1="557.79999"
       y2="505.79999"
       gradientUnits="userSpaceOnUse"
       x2="0"
       gradientTransform="matrix(0.61141,0,0,0.76923,-238.90657,-386.33657)">
      <stop
         stop-color="#42a603"
         id="stop33-5" />
      <stop
         offset="1"
         stop-color="#78da06"
         id="stop35-3" />
    </linearGradient>
    <linearGradient
       id="g-5"
       y1="551.79999"
       y2="528.79999"
       gradientUnits="userSpaceOnUse"
       x2="0"
       gradientTransform="matrix(0.49677,0,0,0.76923,-191.25657,-404.02657)">
      <stop
         stop-color="#c6cdd1"
         id="stop28-6" />
      <stop
         offset="1"
         stop-color="#e0e5e7"
         id="stop30-2" />
    </linearGradient>
    <linearGradient
       id="i-9"
       x1="398.57001"
       x2="400.57001"
       gradientUnits="userSpaceOnUse"
       gradientTransform="matrix(1.5625,0,0,1.53847,-227.95,-292.82)">
      <stop
         stop-color="#faae2a"
         id="stop38-1" />
      <stop
         offset="1"
         stop-color="#ffc35a"
         id="stop40-2" />
    </linearGradient>
    <linearGradient
       xlink:href="#i-9"
       id="j-7"
       x1="398.57001"
       gradientUnits="userSpaceOnUse"
       x2="400.57001"
       gradientTransform="matrix(1.5625,0,0,1.53847,-604.39657,-793.87657)" />
    <linearGradient
       id="linearGradient1040"
       x1="398.57001"
       x2="400.57001"
       gradientUnits="userSpaceOnUse"
       gradientTransform="matrix(1.5625,0,0,1.53847,-227.95,-292.82)">
      <stop
         stop-color="#faae2a"
         id="stop1036" />
      <stop
         offset="1"
         stop-color="#ffc35a"
         id="stop1038" />
    </linearGradient>
    <linearGradient
       id="h-7-6"
       y1="557.79999"
       y2="505.79999"
       gradientUnits="userSpaceOnUse"
       x2="0"
       gradientTransform="matrix(0.61141,0,0,0.80312143,-229.65001,-403.22242)">
      <stop
         stop-color="#42a603"
         id="stop33-5-1" />
      <stop
         offset="1"
         stop-color="#78da06"
         id="stop35-3-8" />
    </linearGradient>
    <linearGradient
       id="g-5-7"
       y1="551.79999"
       y2="528.79999"
       gradientUnits="userSpaceOnUse"
       x2="0"
       gradientTransform="matrix(0.49677,0,0,0.80312143,-182.00001,-421.69183)">
      <stop
         stop-color="#c6cdd1"
         id="stop28-6-9" />
      <stop
         offset="1"
         stop-color="#e0e5e7"
         id="stop30-2-2" />
    </linearGradient>
    <linearGradient
       id="i-9-0"
       x1="398.57001"
       x2="400.57001"
       gradientUnits="userSpaceOnUse"
       gradientTransform="matrix(1.5625,0,0,1.53847,-227.95,-292.82)">
      <stop
         stop-color="#faae2a"
         id="stop38-1-2" />
      <stop
         offset="1"
         stop-color="#ffc35a"
         id="stop40-2-3" />
    </linearGradient>
    <linearGradient
       xlink:href="#i-9-0"
       id="j-7-7"
       x1="398.57001"
       gradientUnits="userSpaceOnUse"
       x2="400.57001"
       gradientTransform="matrix(1.5625,0,0,1.6062533,-595.14001,-828.71819)" />
    <linearGradient
       id="linearGradient1181"
       x1="398.57001"
       x2="400.57001"
       gradientUnits="userSpaceOnUse"
       gradientTransform="matrix(1.5625,0,0,1.53847,-227.95,-292.82)">
      <stop
         stop-color="#faae2a"
         id="stop1177" />
      <stop
         offset="1"
         stop-color="#ffc35a"
         id="stop1179" />
    </linearGradient>
    <linearGradient
       gradientTransform="matrix(1,0,0,0.99809762,-41.629865,-1.1746768)"
       gradientUnits="userSpaceOnUse"
       y2="14.592526"
       x2="23.178896"
       y1="46"
       x1="24"
       id="linearGradient2100"
       xlink:href="#linearGradient4793" />
    <linearGradient
       id="linearGradient4793">
      <stop
         id="stop4795"
         offset="0"
         style="stop-color:#54b60f;stop-opacity:1" />
      <stop
         id="stop4797"
         offset="1"
         style="stop-color:#92dc41;stop-opacity:1" />
    </linearGradient>
    <style
       id="current-color-scheme"
       type="text/css">
      .ColorScheme-Text {
        color:#4d4d4d;
      }
      </style>
    <linearGradient
       id="e-7"
       x1="389.57001"
       x2="427.57001"
       gradientUnits="userSpaceOnUse"
       gradientTransform="matrix(0.70711,0.70711,-0.70711,0.70711,105.48,-635.29)">
      <stop
         stop-color="#fcfcfc"
         id="stop22-0" />
      <stop
         offset="1"
         stop-color="#eff0f1"
         id="stop24-9" />
    </linearGradient>
    <linearGradient
       id="g-6"
       y1="551.79999"
       y2="528.79999"
       gradientUnits="userSpaceOnUse"
       x2="0"
       gradientTransform="matrix(0.49677,0,0,0.76923,-191.25657,-404.02657)">
      <stop
         stop-color="#c6cdd1"
         id="stop28-0" />
      <stop
         offset="1"
         stop-color="#e0e5e7"
         id="stop30-6" />
    </linearGradient>
    <linearGradient
       id="h-2"
       y1="557.79999"
       y2="505.79999"
       gradientUnits="userSpaceOnUse"
       x2="0"
       gradientTransform="matrix(0.61141,0,0,0.76923,-238.90657,-386.33657)">
      <stop
         stop-color="#42a603"
         id="stop33-6" />
      <stop
         offset="1"
         stop-color="#78da06"
         id="stop35-1" />
    </linearGradient>
    <linearGradient
       id="i-8"
       x1="398.57001"
       x2="400.57001"
       gradientUnits="userSpaceOnUse"
       gradientTransform="matrix(1.5625,0,0,1.53847,-227.95,-292.82)">
      <stop
         stop-color="#faae2a"
         id="stop38-7" />
      <stop
         offset="1"
         stop-color="#ffc35a"
         id="stop40-9" />
    </linearGradient>
    <linearGradient
       xlink:href="#i-8"
       id="j-2"
       x1="398.57001"
       gradientUnits="userSpaceOnUse"
       x2="400.57001"
       gradientTransform="matrix(1.5625,0,0,1.53847,-604.39657,-793.87657)" />
    <linearGradient
       id="h-7-5"
       y1="557.79999"
       y2="505.79999"
       gradientUnits="userSpaceOnUse"
       x2="0"
       gradientTransform="matrix(0.61141,0,0,0.76923,-238.90657,-386.33657)">
      <stop
         stop-color="#42a603"
         id="stop33-5-9" />
      <stop
         offset="1"
         stop-color="#78da06"
         id="stop35-3-2" />
    </linearGradient>
    <linearGradient
       id="g-5-2"
       y1="551.79999"
       y2="528.79999"
       gradientUnits="userSpaceOnUse"
       x2="0"
       gradientTransform="matrix(0.49677,0,0,0.76923,-191.25657,-404.02657)">
      <stop
         stop-color="#c6cdd1"
         id="stop28-6-8" />
      <stop
         offset="1"
         stop-color="#e0e5e7"
         id="stop30-2-9" />
    </linearGradient>
    <linearGradient
       id="i-9-7"
       x1="398.57001"
       x2="400.57001"
       gradientUnits="userSpaceOnUse"
       gradientTransform="matrix(1.5625,0,0,1.53847,-227.95,-292.82)">
      <stop
         stop-color="#faae2a"
         id="stop38-1-3" />
      <stop
         offset="1"
         stop-color="#ffc35a"
         id="stop40-2-6" />
    </linearGradient>
    <linearGradient
       xlink:href="#i-9-7"
       id="j-7-1"
       x1="398.57001"
       gradientUnits="userSpaceOnUse"
       x2="400.57001"
       gradientTransform="matrix(1.5625,0,0,1.53847,-604.39657,-793.87657)" />
    <linearGradient
       id="linearGradient1040-2"
       x1="398.57001"
       x2="400.57001"
       gradientUnits="userSpaceOnUse"
       gradientTransform="matrix(1.5625,0,0,1.53847,-227.95,-292.82)">
      <stop
         stop-color="#faae2a"
         id="stop1036-9" />
      <stop
         offset="1"
         stop-color="#ffc35a"
         id="stop1038-3" />
    </linearGradient>
    <linearGradient
       id="h-7-6-1"
       y1="557.79999"
       y2="505.79999"
       gradientUnits="userSpaceOnUse"
       x2="0"
       gradientTransform="matrix(0.61141,0,0,0.80312143,-229.65001,-403.22242)">
      <stop
         stop-color="#42a603"
         id="stop33-5-1-9" />
      <stop
         offset="1"
         stop-color="#78da06"
         id="stop35-3-8-4" />
    </linearGradient>
    <linearGradient
       id="g-5-7-7"
       y1="551.79999"
       y2="528.79999"
       gradientUnits="userSpaceOnUse"
       x2="0"
       gradientTransform="matrix(0.49677,0,0,0.80312143,-182.00001,-421.69183)">
      <stop
         stop-color="#c6cdd1"
         id="stop28-6-9-8" />
      <stop
         offset="1"
         stop-color="#e0e5e7"
         id="stop30-2-2-4" />
    </linearGradient>
    <linearGradient
       id="i-9-0-5"
       x1="398.57001"
       x2="400.57001"
       gradientUnits="userSpaceOnUse"
       gradientTransform="matrix(1.5625,0,0,1.53847,-227.95,-292.82)">
      <stop
         stop-color="#faae2a"
         id="stop38-1-2-0" />
      <stop
         offset="1"
         stop-color="#ffc35a"
         id="stop40-2-3-3" />
    </linearGradient>
    <linearGradient
       xlink:href="#i-9-0-5"
       id="j-7-7-6"
       x1="398.57001"
       gradientUnits="userSpaceOnUse"
       x2="400.57001"
       gradientTransform="matrix(1.5625,0,0,1.6062533,-595.14001,-828.71819)" />
    <linearGradient
       id="linearGradient1181-1"
       x1="398.57001"
       x2="400.57001"
       gradientUnits="userSpaceOnUse"
       gradientTransform="matrix(1.5625,0,0,1.53847,-227.95,-292.82)">
      <stop
         stop-color="#faae2a"
         id="stop1177-0" />
      <stop
         offset="1"
         stop-color="#ffc35a"
         id="stop1179-6" />
    </linearGradient>
    <linearGradient
       gradientUnits="userSpaceOnUse"
       y2="1.4468008"
       x2="24.573759"
       y1="46.029682"
       x1="24.393805"
       id="linearGradient925"
       xlink:href="#b-3-0"
       gradientTransform="translate(-0.2932556,0.32526833)" />
    <linearGradient
       y2="518.13873"
       y1="545.13873"
       x2="399.9939"
       x1="399.9939"
       gradientUnits="userSpaceOnUse"
       id="b-3-0">
      <stop
         id="stop7-6"
         stop-color="#197ff1"
         offset="0" />
      <stop
         id="stop9-7"
         stop-color="#21c6fb"
         offset="1" />
    </linearGradient>
    <linearGradient
       id="a-6"
       gradientUnits="userSpaceOnUse"
       x1="197.88585"
       x2="183.32736"
       y1="364.75723"
       y2="12.945999">
      <stop
         offset="0"
         stop-color="#197cf1"
         id="stop2-7" />
      <stop
         offset="1"
         stop-color="#20bcfa"
         id="stop4-5" />
    </linearGradient>
    <linearGradient
       id="a-5"
       gradientUnits="userSpaceOnUse"
       x1="197.88585"
       x2="183.32736"
       y1="364.75723"
       y2="12.945999">
      <stop
         offset="0"
         stop-color="#197cf1"
         id="stop2-2"
         style="stop-color:#2b87f2;stop-opacity:1" />
      <stop
         offset="1"
         stop-color="#20bcfa"
         id="stop4-54" />
    </linearGradient>
    <linearGradient
       inkscape:collect="always"
       xlink:href="#linearGradient1103"
       id="linearGradient1105"
       x1="11.715042"
       y1="22.989817"
       x2="11.715042"
       y2="1.1186454"
       gradientUnits="userSpaceOnUse" />
    <linearGradient
       inkscape:collect="always"
       xlink:href="#linearGradient1119"
       id="linearGradient1121"
       x1="11.629142"
       y1="20.701349"
       x2="11.715025"
       y2="3.521348"
       gradientUnits="userSpaceOnUse" />
  </defs>
  <sodipodi:namedview
     pagecolor="#ffffff"
     bordercolor="#666666"
     borderopacity="1"
     objecttolerance="10"
     gridtolerance="10"
     guidetolerance="10"
     inkscape:pageopacity="0"
     inkscape:pageshadow="2"
     inkscape:window-width="1366"
     inkscape:window-height="699"
     id="namedview44"
     showgrid="false"
     inkscape:zoom="4.4715253"
     inkscape:cx="-23.464298"
     inkscape:cy="-1.9325161"
     inkscape:window-x="0"
     inkscape:window-y="0"
     inkscape:window-maximized="1"
     inkscape:current-layer="svg42" />
  <linearGradient
     id="a">
    <stop
       offset="0"
       stop-color="#3889e9"
       id="stop2" />
    <stop
       offset="1"
       stop-color="#5ea5fb"
       id="stop4" />
  </linearGradient>
  <linearGradient
     id="b"
     gradientUnits="userSpaceOnUse"
     x1="399.57144"
     x2="399.57144"
     xlink:href="#a"
     y1="545.79797"
     y2="517.79797" />
  <linearGradient
     id="c">
    <stop
       offset="0"
       stop-color="#fff"
       id="stop8" />
    <stop
       offset="1"
       stop-color="#ececec"
       id="stop10" />
  </linearGradient>
  <linearGradient
     id="d"
     gradientUnits="userSpaceOnUse"
     x1="390.24368"
     x2="390.24368"
     xlink:href="#a"
     y1="545.06775"
     y2="524.20105" />
  <linearGradient
     id="e"
     gradientUnits="userSpaceOnUse"
     x1="396.79379"
     x2="396.60507"
     y1="545.39752"
     y2="525.63794">
    <stop
       offset="0"
       stop-color="#197dec"
       id="stop14" />
    <stop
       offset="1"
       stop-color="#3fcffb"
       id="stop16" />
  </linearGradient>
  <linearGradient
     id="f"
     gradientUnits="userSpaceOnUse"
     x1="396.80429"
     x2="396.61539"
     xlink:href="#c"
     y1="545.39697"
     y2="525.61761" />
  <g
     id="g1134"
     transform="matrix(1.9512196,0,0,2.0000001,1.139314,-0.23729611)"
     style="stroke-width:0.5062114">
    <g
       id="layer2"
       style="display:inline;stroke-width:0.5062114"
       transform="matrix(0.50158923,0,0,0.50095258,12.566609,3.1074937)" />
    <g
       id="layer1"
       style="display:inline;stroke-width:0.5062114"
       transform="matrix(0.50158923,0,0,0.50095258,12.566609,3.1074937)" />
    <path
       inkscape:connector-curvature="0"
       style="color:#000000;font-style:normal;font-variant:normal;font-weight:normal;font-stretch:normal;font-size:medium;line-height:normal;font-family:sans-serif;font-variant-ligatures:normal;font-variant-position:normal;font-variant-caps:normal;font-variant-numeric:normal;font-variant-alternates:normal;font-feature-settings:normal;text-indent:0;text-align:start;text-decoration:none;text-decoration-line:none;text-decoration-style:solid;text-decoration-color:#000000;letter-spacing:normal;word-spacing:normal;text-transform:none;writing-mode:lr-tb;direction:ltr;text-orientation:mixed;dominant-baseline:auto;baseline-shift:baseline;text-anchor:start;white-space:normal;shape-padding:0;clip-rule:nonzero;display:inline;overflow:visible;visibility:visible;opacity:1;isolation:auto;mix-blend-mode:normal;color-interpolation:sRGB;color-interpolation-filters:linearRGB;solid-color:#000000;solid-opacity:1;vector-effect:none;fill:url(#linearGradient1105);fill-opacity:1;fill-rule:nonzero;stroke:none;stroke-width:1.29447401;stroke-linecap:butt;stroke-linejoin:miter;stroke-miterlimit:4;stroke-dasharray:none;stroke-dashoffset:0;stroke-opacity:1;color-rendering:auto;image-rendering:auto;shape-rendering:auto;text-rendering:auto;enable-background:accumulate"
       d="m 11.714852,1.1186685 c -0.388123,0 -0.775673,0.1200646 -1.102394,0.3595728 V 1.4773546 C 9.7057268,2.1411493 6.7941994,4.0253275 3.4293136,4.3418351 2.3441329,4.4434072 1.4880164,5.372778 1.4690267,6.4707476 v 8.866e-4 0.00173 c -0.024041,1.5775656 0.073578,4.9712458 1.3142932,8.3894538 1.2407156,3.418208 3.7626761,6.936096 8.3764741,8.182007 l 9.03e-4,9.02e-4 h 9.03e-4 c 0.362566,0.09723 0.744117,0.09723 1.106683,0 h 9.03e-4 l 9.03e-4,-9.02e-4 c 4.613977,-1.24485 7.135529,-4.762747 8.376474,-8.181143 C 21.887202,11.446125 21.986344,8.0530533 21.96343,6.4759554 21.949095,5.3707675 21.08754,4.4429987 20.002285,4.3418567 L 20.000579,4.34097 C 16.638407,4.0241136 13.730462,2.1444247 12.818293,1.4782181 12.491572,1.2387099 12.103165,1.1186454 11.715042,1.1186454 Z"
       id="path983" />
    <path
       style="fill:#ffffff;fill-opacity:1;stroke-width:0.09510783"
       id="path977"
       d="M 20.689457,6.4929439 C 20.683548,6.0373934 20.334931,5.6610688 19.883914,5.6194549 16.135783,5.2668984 13.076988,3.2525717 12.068578,2.515768 c -0.210747,-0.1544914 -0.496337,-0.1544914 -0.707084,0 C 10.355033,3.2525717 7.2962586,5.2668984 3.5481271,5.6194549 3.097091,5.661068 2.7504432,6.0373934 2.7425643,6.4929439 2.6972657,9.4659076 3.1719352,19.559308 11.489518,21.805392 c 0.147719,0.03961 0.303317,0.03961 0.451036,0 8.317582,-2.244084 8.792234,-12.3395034 8.748903,-15.3124481 z"
       inkscape:connector-curvature="0" />
    <g
       id="layer2-3"
       style="display:inline;stroke-width:0.5062114"
       transform="matrix(0.43924159,0,0,0.44255102,1.2042483,1.4565753)" />
    <g
       id="layer1-6"
       style="display:inline;stroke-width:0.5062114"
       transform="matrix(0.43924159,0,0,0.44255102,1.2042483,1.4565753)" />
    <path
       inkscape:connector-curvature="0"
       id="path1036"
       d="m 11.715025,3.5213481 c -0.109773,0 -0.21928,0.033226 -0.3125,0.1015625 -0.258188,0.1890123 -0.684631,0.4753423 -1.21875,0.7910156 0.174641,0.051618 0.384166,0.1737459 0.511718,0.087891 0.03637,-0.024634 0.02767,-0.069075 0.06055,-0.1328125 0.0261,-0.051013 0.06674,-0.1051256 0.0918,-0.1679687 0.07309,-0.00232 0.145327,-0.00195 0.21875,-0.00195 0.606484,0 1.198792,0.0593 1.771485,0.1757812 -0.02402,0.063213 -0.101847,0.035846 -0.167969,0.066406 -0.06201,0.028817 -0.08446,0.087177 -0.150391,0.099609 -0.183236,0.034512 -0.335556,-0.044873 -0.49414,-0.039063 -0.0069,0.06856 0.07658,0.1088043 0.11914,0.1308594 0.143732,0.0753 0.262213,0.065079 0.464844,0.060547 0.103863,-0.00232 0.223272,0.030106 0.3125,-0.03125 0.05653,-0.03858 0.05424,-0.1246502 0.101563,-0.171875 0.02017,-0.019987 0.04869,-0.03956 0.08203,-0.056641 0.09954,0.023473 0.196588,0.049329 0.294922,0.076172 -0.01655,0.067863 -0.123589,0.049789 -0.125,0.140625 0.06106,0.036663 0.18515,-0.00905 0.259765,-0.068359 -0.676957,-0.3814125 -1.20402,-0.7370153 -1.507817,-0.958987 -0.09322,-0.068337 -0.202727,-0.1015625 -0.3125,-0.1015625 z m 2.664062,1.5019531 c 0.04045,0.044571 0.09542,0.07972 0.144532,0.1113281 0.08369,0.053917 0.171412,0.1074658 0.201171,0.2011719 -0.08194,0.1737231 -0.213981,-0.00862 -0.34375,-0.00977 -0.143009,-0.00102 -0.348826,0.2703574 -0.470703,0.048828 0.0303,-0.1173766 0.159773,-0.1360757 0.191406,-0.2519531 -0.02785,0.00465 -0.05522,0.014584 -0.08203,0.025391 -0.0479,0.018941 -0.09566,0.04405 -0.144531,0.070312 -0.06412,0.034512 -0.13066,0.068856 -0.207031,0.085937 -0.07028,0.015455 -0.138381,0.013007 -0.201172,0.03125 -0.120561,0.035326 -0.206441,0.1228831 -0.333985,0.1699219 -0.04977,0.018244 -0.110303,0.013935 -0.162109,0.03125 -0.121644,0.040555 -0.265146,0.1136967 -0.390625,0.1816406 -0.128287,0.069256 -0.273856,0.1398903 -0.353516,0.2089844 -0.04301,0.037069 -0.156213,0.1690116 -0.152343,0.2109375 0.0047,0.059844 0.120224,0.081385 0.123047,0.1425781 -0.0023,0.037069 -0.06683,0.1160733 -0.02149,0.1699219 0.04127,0.049037 0.125306,0.010682 0.212891,0.021484 0.153954,0.019057 0.254947,0.1457826 0.373047,0.2109376 0.08929,0.04927 0.221438,0.1083578 0.322265,0.1210937 0.138419,0.017314 0.29363,-0.040429 0.3125,0.070312 0.0183,0.1064416 -0.131889,0.1421911 -0.142578,0.2089844 0.0746,0.098307 -0.04917,0.1442927 -0.04883,0.2304687 3.26e-4,0.069722 0.0851,0.1772724 0.160156,0.1835938 0.10153,0.00813 0.250785,-0.099901 0.292969,-0.2011719 0.05013,-0.120665 0.02901,-0.2851744 0.121094,-0.3730469 0.469512,0.012899 0.866197,-0.2123381 0.835937,-0.6933593 -0.0035,-0.047527 -0.03149,-0.1098991 -0.02148,-0.1621094 0.01468,-0.07774 0.148647,-0.1419267 0.130859,-0.2402344 0.05059,-0.015571 0.08156,-0.057501 0.107422,-0.1035156 0.03858,-0.06856 0.06883,-0.1460199 0.140625,-0.171875 0.0047,-0.00232 0.0082,-0.00273 0.01367,-0.00391 0.04102,-0.0093 0.08572,-0.00351 0.13086,0.00977 0.08043,0.023704 0.167693,0.065102 0.263671,0.058594 0.04883,-0.00349 0.113031,-0.046034 0.16211,-0.039063 0.0985,0.013712 0.156463,0.1332691 0.230469,0.1894531 0.06539,0.049967 0.13565,0.033026 0.152343,0.099609 -0.01936,0.1116706 -0.0981,0.118189 -0.0918,0.2207031 v 0.00195 c 0.007,0.092149 0.104491,0.1627532 0.152344,0.171875 0.07344,0.013712 0.178634,-0.025687 0.251953,-0.060547 0.07914,-0.037417 0.149618,-0.1176446 0.21875,-0.1738281 0.09874,0.075763 0.197457,0.1527996 0.292969,0.2324218 0.01052,0.044737 0.01602,0.085973 0.01953,0.1132813 0.0141,0.1087656 -0.01204,0.1909069 -0.0078,0.2910156 0.01293,0.1695863 0.224753,0.1513741 0.330078,0.2402344 0.0317,0.026959 0.04396,0.095835 0.07031,0.1308593 0.05116,0.068095 0.113153,0.069952 0.121094,0.1425782 0.01887,0.1737231 -0.155166,0.1869867 -0.138672,0.3808594 -0.03637,0.075183 -0.128509,0.071615 -0.121093,0.171875 0.01159,0.1587794 0.238735,0.038202 0.300781,0.1621093 0.03356,0.066583 -0.0068,0.1140464 -0.03125,0.2089844 0.07821,0.092962 0.07931,0.2400368 -0.05859,0.2402344 -0.08381,0 -0.106665,-0.088458 -0.191406,-0.109375 -0.04709,-0.011739 -0.111872,-0.00873 -0.171875,-0.019531 -0.05129,-0.0093 -0.11352,-0.025439 -0.16211,-0.03125 -0.124383,-0.014758 -0.256527,0.022754 -0.330078,-0.048828 0.119895,-0.158977 0.277488,-0.316215 0.431641,-0.453125 0.04581,-0.040903 0.14443,-0.070409 0.121094,-0.1523437 -0.08578,-0.075183 -0.190557,0.00719 -0.271485,0.052734 -0.08498,0.04776 -0.185366,0.1166358 -0.28125,0.1308594 -0.166637,0.024635 -0.389234,-0.049716 -0.52539,0.039063 -0.01877,0.075881 0.155081,0.045627 0.130859,0.1601562 -0.06667,0.010463 -0.128364,0.017301 -0.179687,-0.029297 -0.04686,-0.042066 -0.02243,-0.1054809 -0.05274,-0.1308594 -0.05163,-0.042763 -0.245298,-0.053356 -0.332031,-0.039063 -0.105835,0.017197 -0.19871,0.079551 -0.210938,0.1699219 0.127144,0.059496 0.33669,-0.062033 0.382813,0.089844 -0.06971,0.1251735 -0.232969,0.1954496 -0.210938,0.3632813 0.0082,0.06484 0.08518,0.150523 0.140625,0.1601562 0.05572,0.0093 0.08678,-0.044175 0.140625,-0.039063 0.057,0.00581 0.04442,0.068471 0.111329,0.058594 0.09698,-0.041367 0.1506,-0.1781964 0.261718,-0.171875 0.133335,0.1615916 -0.120317,0.2417118 -0.261718,0.2929687 -0.161275,0.058334 -0.371284,0.090926 -0.494141,0.1425782 -0.06446,0.026843 -0.307342,0.2599253 -0.341797,0.078125 -0.02459,-0.1311117 0.119871,-0.091313 0.150391,-0.1992188 -0.15596,-0.030329 -0.299481,0.067187 -0.441407,0.1210938 -0.202504,0.076462 -0.546829,0.1225258 -0.595703,0.3496093 -0.0093,0.045435 0.01862,0.1318159 -0.01172,0.1621099 -0.02413,0.0244 -0.16929,0.0294 -0.232421,0.05078 -0.09722,0.03335 -0.182136,0.102954 -0.242188,0.119141 -0.04535,0.01243 -0.111888,0.01044 -0.140625,0.02148 -0.08005,0.03103 -0.107348,0.137067 -0.199219,0.208984 -0.03764,0.0294 -0.122386,0.0524 -0.152343,0.08203 -0.05222,0.05183 -0.0603,0.181731 -0.152344,0.201172 -0.05852,0.0046 -0.105062,-0.04324 -0.160156,-0.0098 -0.007,0.1282876 0.04603,0.3019346 -0.0098,0.4316396 -0.119344,0.09715 -0.251624,0.164347 -0.404297,0.25 -0.08439,0.04752 -0.159739,0.06227 -0.261719,0.113281 -0.07238,0.03602 -0.137478,0.120896 -0.220703,0.169922 -0.192374,0.113068 -0.425309,0.244973 -0.423828,0.53125 3.26e-4,0.06194 0.0331,0.13072 0.04102,0.203125 0.0047,0.04265 -0.0047,0.08431 0,0.13086 0.012,0.105165 0.08824,0.237921 0,0.310547 -0.13563,-0.05555 -0.309438,-0.07351 -0.404297,-0.169922 -0.02599,-0.09924 0.05303,-0.181079 0.04102,-0.271485 -0.0093,-0.07262 -0.112376,-0.201628 -0.171876,-0.210937 -0.06131,-0.0093 -0.116399,0.0559 -0.179687,0.05078 -0.0753,-0.0059 -0.14744,-0.109902 -0.244141,-0.121094 -0.141727,-0.0165 -0.245368,0.03166 -0.402343,0.0098 -0.1519627,0.08099 -0.1946167,0.225195 -0.3808597,0.210937 -0.06562,-0.0047 -0.127314,-0.05475 -0.203125,-0.07031 -0.08217,-0.01696 -0.207413,-0.04694 -0.292969,-0.04102 -0.171521,0.01159 -0.296025,0.136487 -0.443359,0.212891 -0.130002,0.06763 -0.312957,0.150923 -0.351563,0.291016 -0.02122,0.07541 -0.0045,0.180208 -0.03125,0.25 -0.01783,0.0459 -0.05619,0.08718 -0.08008,0.130859 -0.112948,0.206004 -0.206836,0.479073 -0.121094,0.775391 0.0127,0.04392 0.125623,0.293666 0.171875,0.34375 0.05199,0.05566 0.20377,0.137137 0.291016,0.138671 0.07378,0.0012 0.162852,-0.038 0.234375,-0.05078 0.08288,-0.01475 0.184443,-0.01501 0.259766,-0.03906 0.217842,-0.06961 0.174501,-0.363793 0.392578,-0.462891 0.09523,-0.043 0.207605,-0.05196 0.375,-0.06055 0.05315,0.04462 0.0757,0.123392 0.06836,0.191407 -0.0059,0.05136 -0.05385,0.0967 -0.08008,0.169921 -0.02284,0.06415 -0.02816,0.139627 -0.05078,0.191407 -0.02996,0.06775 -0.09708,0.119846 -0.121094,0.183593 -0.01574,0.04148 -0.0045,0.09147 -0.01758,0.128907 -0.0232,0.06624 -0.113418,0.113487 -0.07227,0.18164 0.215744,0.08565 0.4757917,-0.02318 0.6640627,0.01172 0.0795,0.01441 0.24562,0.108198 0.244141,0.230469 -9.8e-4,0.09145 -0.07213,0.149868 -0.08203,0.25 -0.01224,0.125872 -0.06471,0.280902 -0.07031,0.382812 -0.0093,0.166902 0.243955,0.455415 0.421875,0.453125 0.191547,-0.0023 0.304376,-0.191603 0.535156,-0.0918 0.07659,0.03301 0.157624,0.158479 0.242188,0.152344 0.06971,-0.0047 0.174102,-0.128515 0.220703,-0.21289 0.05676,-0.102839 0.05992,-0.188374 0.160156,-0.240235 0.108165,-0.05589 0.195589,-0.03056 0.333985,-0.08203 0.06178,-0.02289 0.116191,-0.06115 0.171874,-0.09961 0.04884,-0.03347 0.09925,-0.121432 0.160157,-0.06055 0.08043,0.08017 -0.09944,0.125085 -0.03125,0.210937 0.139769,0.0739 0.213243,-0.135452 0.314453,-0.138672 0.03229,-10e-4 0.141765,0.06173 0.199219,0.09961 0.07856,0.05148 0.107373,0.123846 0.193359,0.140625 0.05525,0.01036 0.143048,-0.02039 0.220703,-0.0098 0.102806,0.01465 0.164278,0.101932 0.242188,0.09961 0.09489,-0.0023 0.141402,-0.106026 0.222656,-0.121093 0.17785,-0.03254 0.24396,0.01996 0.322265,0.130859 0.08777,0.01522 0.08957,-0.10169 0.169922,-0.06055 -0.04407,0.08761 0.01741,0.128046 0.05273,0.201172 0.02285,0.04695 0.01774,0.07927 0.03906,0.09961 0.04802,0.04578 0.142418,0.04729 0.212891,0.0918 0.07437,0.04672 0.113912,0.132626 0.199219,0.230469 0.08777,0.100044 0.2363,0.205582 0.353515,0.212891 0.110736,0.0069 0.199469,-0.03276 0.291016,-0.02149 0.208437,0.02557 0.338545,0.130145 0.484375,0.242188 0.08147,0.06252 0.155483,0.106751 0.181641,0.18164 0.01841,0.05229 0.0102,0.121052 0.03125,0.179688 0.04453,0.125279 0.226328,0.187799 0.160156,0.404297 0.0303,0.06356 0.09688,0.08642 0.169922,0.130859 0.0584,0.03555 0.110563,0.108955 0.173828,0.119141 0.04092,0.0069 0.08566,-0.01183 0.121094,-0.0098 C 19.490643,13.715312 19.68078,8.9469951 19.654478,7.1424418 19.649251,6.7394321 19.340586,6.4058188 18.941587,6.3690043 17.18684,6.2039494 15.613814,5.6264006 14.379087,5.0233012 Z M 5.5763523,6.2068949 c -0.354106,0.068081 -0.714866,0.1272058 -1.085937,0.1621094 -0.399016,0.036814 -0.705921,0.3704278 -0.712891,0.7734375 -0.04007,2.6300786 0.380003,11.5578892 7.7382817,13.5449212 0.130682,0.03505 0.267755,0.03505 0.398437,0 0.332121,-0.08961 0.635007,-0.20753 0.939454,-0.324219 -0.079,-0.06616 -0.164968,-0.128922 -0.22461,-0.162109 -0.07052,-0.03905 -0.155619,-0.05208 -0.232422,-0.08984 -0.164083,-0.08043 -0.482663,-0.251774 -0.554687,-0.414062 -0.02086,-0.04672 -0.01668,-0.108003 -0.03906,-0.160157 -0.0437,-0.103078 -0.135802,-0.193555 -0.201172,-0.292968 -0.124451,-0.189689 -0.225785,-0.427175 -0.353515,-0.623047 -0.06458,-0.09947 -0.120606,-0.211788 -0.191406,-0.291016 -0.04149,-0.04671 -0.174365,-0.0918 -0.191407,-0.162109 -0.02272,-0.09308 -0.093,-0.219818 -0.08203,-0.291016 0.01458,-0.09599 0.201463,-0.172172 0.201172,-0.259765 -3.27e-4,-0.07437 -0.09826,-0.118468 -0.119141,-0.181641 -0.05082,-0.153689 0.02912,-0.243097 0.08984,-0.371094 0.02005,-0.04207 0.03968,-0.111566 0.06055,-0.142578 0.03695,-0.05532 0.110957,-0.07096 0.160156,-0.130859 0.02751,-0.03359 0.04614,-0.102896 0.08203,-0.150391 0.07658,-0.101572 0.198961,-0.138798 0.230469,-0.230469 0.02564,-0.07471 0.04186,-0.449266 0.01172,-0.574218 -0.01749,-0.0724 -0.08556,-0.132671 -0.111328,-0.201172 -0.04557,-0.121372 -0.05449,-0.254568 -0.179688,-0.251954 -0.07729,0.0012 -0.131984,0.08866 -0.18164,0.142579 -0.01183,0.0717 -0.0072,0.148029 -0.08203,0.169921 -0.114584,0.03382 -0.159329,-0.119706 -0.292968,-0.160156 -0.05315,-0.01615 -0.136655,-0.01638 -0.169922,-0.03125 -0.09757,-0.04369 -0.127649,-0.184875 -0.230469,-0.240234 -0.08602,-0.04589 -0.160777,-0.03102 -0.212891,-0.101563 -0.02169,-0.04857 -0.0059,-0.138063 -0.01172,-0.203125 -0.1103947,-0.06449 -0.2034407,-0.304563 -0.3320317,-0.361328 -0.0852,-0.03789 -0.215634,-0.03417 -0.322266,-0.07031 -0.05013,-0.01696 -0.09019,-0.03756 -0.142578,-0.04883 -0.06458,-0.01441 -0.12967,-0.01592 -0.179687,-0.04102 -0.199496,-0.09877 -0.30568,-0.418954 -0.552735,-0.412109 -0.105371,0.0023 -0.207246,0.102148 -0.302734,0.101562 -0.09491,-5.71e-4 -0.255943,-0.07573 -0.375,-0.130859 -0.123671,-0.05743 -0.259325,-0.08857 -0.361328,-0.140625 -0.0824,-0.04207 -0.140879,-0.120424 -0.212891,-0.152344 -0.05513,-0.0244 -0.13445,-0.02745 -0.179687,-0.04883 -0.06434,-0.03045 -0.13279,-0.09671 -0.212891,-0.152344 -0.076,-0.05252 -0.157172,-0.131171 -0.160156,-0.199219 -0.0036,-0.07878 0.07387,-0.146939 0.08203,-0.222656 0.02599,-0.239505 -0.152425,-0.411232 -0.263672,-0.552734 -0.0824,-0.105164 -0.179054,-0.19565 -0.261718,-0.292969 0.0047,-0.06462 0.0047,-0.07419 0,-0.138672 -0.0626,-0.06066 -0.117445,-0.153281 -0.183594,-0.244141 -0.05979,-0.08192 -0.172463,-0.169814 -0.1875,-0.261718 -0.01853,-0.113067 0.04301,-0.208653 0,-0.31836 -0.07169,-0.182055 -0.327501,-0.102051 -0.294922,0.138672 0.0093,0.06634 0.102557,0.156874 0.130859,0.222656 0.02902,0.06706 0.02374,0.149696 0.05078,0.230469 0.02599,0.07739 0.103832,0.145236 0.130859,0.232422 0.04277,0.137701 0.04274,0.285023 0.08203,0.371094 0.03462,0.07646 0.159405,0.149619 0.08789,0.242187 -0.09535,0.01975 -0.128206,-0.07549 -0.1875,-0.130859 -0.0331,-0.03079 -0.155599,-0.08851 -0.173828,-0.160156 -0.01526,-0.05916 0.03908,-0.140485 0.02148,-0.212891 -0.03462,-0.141929 -0.321251,-0.146913 -0.322266,-0.292969 -5.23e-4,-0.09168 0.118053,-0.102751 0.119141,-0.191406 7.81e-4,-0.09702 -0.133423,-0.179447 -0.162109,-0.261719 -0.02623,-0.0754 -0.02928,-0.194677 -0.03906,-0.300781 -0.0093,-0.09958 0.0012,-0.214182 -0.02148,-0.291015 -0.02067,-0.06914 -0.124711,-0.164068 -0.191406,-0.201172 -0.08824,-0.04904 -0.157974,-0.0278 -0.201172,-0.09961 -0.03754,-0.06275 -0.06021,-0.194088 -0.06836,-0.261718 -0.01457,-0.120944 -0.0047,-0.253734 -0.01172,-0.3828126 -0.007,-0.129275 -0.01982,-0.253657 0,-0.392578 0.04988,-0.09726 0.142526,-0.143867 0.193359,-0.240234 0.03544,-0.06705 0.04009,-0.1513312 0.08008,-0.2226565 0.07378,-0.1313671 0.233697,-0.2513628 0.341797,-0.3808593 0.116557,-0.1395013 0.224756,-0.2741287 0.292969,-0.4335938 0.02448,-0.05659 0.08755,-0.1806037 0.07813,-0.25 -0.0133,-0.09668 -0.194106,-0.1758703 -0.179688,-0.2910156 0.0093,-0.071349 0.11036,-0.072171 0.140625,-0.1425781 0.01551,-0.036372 0.03043,-0.1362858 0.03125,-0.1796875 0.0011,-0.09703 -0.05084,-0.199128 -0.03125,-0.3027344 0.01655,-0.08843 0.149728,-0.1236506 0.08203,-0.2207031 -0.06714,-0.0961 -0.189363,0.05057 -0.263671,-0.011719 -0.06819,-0.057172 0.01517,-0.1272352 0.02148,-0.2324218 0.0023,-0.041833 -0.02591,-0.088162 -0.02148,-0.1191407 0.0059,-0.044971 0.09558,-0.1202009 0.07226,-0.1503906 -0.02467,-0.031209 -0.05775,-0.090841 -0.08984,-0.1445313 z"
       style="fill:url(#linearGradient1121);fill-opacity:1;stroke-width:0.0841386" />
    <g
       transform="matrix(0.37092607,0,0,0.37045527,33.00046,5.2039004)"
       style="display:inline;stroke-width:1.36906099"
       id="layer2-7" />
    <g
       transform="matrix(0.37092607,0,0,0.37045527,33.00046,5.2039004)"
       style="display:inline;stroke-width:1.36906099"
       id="layer1-4" />
    <g
       transform="matrix(0.32481988,0,0,0.32726721,24.597976,3.9830435)"
       style="display:inline;stroke-width:1.36906099"
       id="layer2-3-0" />
    <g
       transform="matrix(0.32481988,0,0,0.32726721,24.597976,3.9830435)"
       style="display:inline;stroke-width:1.36906099"
       id="layer1-6-7" />
  </g>
</svg>
