<?xml version="1.0" encoding="UTF-8" standalone="no"?>
<svg
   xmlns:dc="http://purl.org/dc/elements/1.1/"
   xmlns:cc="http://creativecommons.org/ns#"
   xmlns:rdf="http://www.w3.org/1999/02/22-rdf-syntax-ns#"
   xmlns:svg="http://www.w3.org/2000/svg"
   xmlns="http://www.w3.org/2000/svg"
   xmlns:xlink="http://www.w3.org/1999/xlink"
   xmlns:sodipodi="http://sodipodi.sourceforge.net/DTD/sodipodi-0.dtd"
   xmlns:inkscape="http://www.inkscape.org/namespaces/inkscape"
   height="48"
   width="48"
   version="1.1"
   id="svg36"
   sodipodi:docname="web-browser.svg"
   inkscape:version="0.92.2 2405546, 2018-03-11">
  <metadata
     id="metadata42">
    <rdf:RDF>
      <cc:Work
         rdf:about="">
        <dc:format>image/svg+xml</dc:format>
        <dc:type
           rdf:resource="http://purl.org/dc/dcmitype/StillImage" />
      </cc:Work>
    </rdf:RDF>
  </metadata>
  <defs
     id="defs40">
    <linearGradient
       inkscape:collect="always"
       id="linearGradient1166">
      <stop
         style="stop-color:#e6e6e6;stop-opacity:1"
         offset="0"
         id="stop1162" />
      <stop
         style="stop-color:#ffffff;stop-opacity:0.92500001"
         offset="1"
         id="stop1164" />
    </linearGradient>
    <linearGradient
       inkscape:collect="always"
       id="linearGradient1135">
      <stop
         style="stop-color:#05a0de;stop-opacity:1"
         offset="0"
         id="stop1131" />
      <stop
         style="stop-color:#2dc0fa;stop-opacity:1"
         offset="1"
         id="stop1133" />
    </linearGradient>
    <linearGradient
       id="a-3"
       y1="525.26"
       x1="395.91"
       y2="513.95"
       x2="425.21"
       gradientUnits="userSpaceOnUse"
       gradientTransform="translate(-419.00001,-506.71113)">
      <stop
         stop-color="#da4453"
         id="stop2-6" />
      <stop
         offset="1"
         stop-color="#ff7336"
         id="stop4-7" />
    </linearGradient>
    <linearGradient
       id="b-3"
       y1="44.09"
       x1="26.362"
       y2="33.75"
       x2="44"
       gradientUnits="userSpaceOnUse">
      <stop
         stop-color="#c0392b"
         id="stop7-3" />
      <stop
         offset="1"
         stop-color="#c0392b"
         stop-opacity="0"
         id="stop9-6" />
    </linearGradient>
    <linearGradient
       id="c-6"
       y1="519.85"
       x1="388.57"
       y2="528.52"
       x2="398.82"
       gradientUnits="userSpaceOnUse">
      <stop
         stop-color="#4d4d4d"
         id="stop12-7" />
      <stop
         offset="1"
         stop-color="#31363b"
         id="stop14-7" />
    </linearGradient>
    <linearGradient
       id="d-5"
       y1="509.8"
       x1="394.57"
       y2="537.95"
       x2="422.73"
       gradientUnits="userSpaceOnUse">
      <stop
         stop-color="#e5e7e8"
         id="stop17" />
      <stop
         offset="1"
         stop-color="#dcdee0"
         id="stop19" />
    </linearGradient>
    <linearGradient
       id="e-3"
       x1="389.57"
       x2="427.57"
       gradientUnits="userSpaceOnUse"
       gradientTransform="matrix(0.70711,0.70711,-0.70711,0.70711,105.48,-635.29)">
      <stop
         stop-color="#fcfcfc"
         id="stop22" />
      <stop
         offset="1"
         stop-color="#eff0f1"
         id="stop24" />
    </linearGradient>
    <linearGradient
       xlink:href="#d-5"
       id="f-5"
       y1="133.33"
       x1="771.7"
       y2="160.66"
       gradientUnits="userSpaceOnUse"
       x2="799.04"
       gradientTransform="translate(-444.75968,-516.38672)" />
    <linearGradient
       id="g"
       y1="551.8"
       y2="528.8"
       gradientUnits="userSpaceOnUse"
       x2="0"
       gradientTransform="matrix(0.49677,0,0,0.76923,-191.25657,-404.02657)">
      <stop
         stop-color="#c6cdd1"
         id="stop28" />
      <stop
         offset="1"
         stop-color="#e0e5e7"
         id="stop30" />
    </linearGradient>
    <linearGradient
       id="h"
       y1="557.8"
       y2="505.8"
       gradientUnits="userSpaceOnUse"
       x2="0"
       gradientTransform="matrix(0.61141,0,0,0.76923,-238.90657,-386.33657)">
      <stop
         stop-color="#42a603"
         id="stop33" />
      <stop
         offset="1"
         stop-color="#78da06"
         id="stop35" />
    </linearGradient>
    <linearGradient
       id="i"
       x1="398.57"
       x2="400.57"
       gradientUnits="userSpaceOnUse"
       gradientTransform="matrix(1.5625 0 0 1.53847-227.95-292.82)">
      <stop
         stop-color="#faae2a"
         id="stop38" />
      <stop
         offset="1"
         stop-color="#ffc35a"
         id="stop40" />
    </linearGradient>
    <linearGradient
       xlink:href="#i"
       id="j"
       x1="398.57"
       gradientUnits="userSpaceOnUse"
       x2="400.57"
       gradientTransform="matrix(1.5625,0,0,1.53847,-604.39657,-793.87657)" />
    <linearGradient
       id="k"
       y1="539.88"
       x1="410.5"
       y2="529.73"
       x2="390.65"
       gradientUnits="userSpaceOnUse"
       gradientTransform="matrix(1.1580635,0,0,1.4383458,-439.42451,-734.17514)">
      <stop
         stop-color="#bcfd93"
         id="stop44" />
      <stop
         offset="1"
         stop-color="#fafff5"
         id="stop46" />
    </linearGradient>
    <linearGradient
       id="l"
       y1="34.612"
       x1="14.187"
       y2="54.612"
       x2="34.19"
       gradientUnits="userSpaceOnUse"
       gradientTransform="matrix(1,0,0,1.0440589,7.9999935,-1.176223)">
      <stop
         stop-color="#383e51"
         id="stop49" />
      <stop
         offset="1"
         stop-color="#655c6f"
         stop-opacity="0"
         id="stop51" />
    </linearGradient>
    <linearGradient
       id="h-7"
       y1="557.79999"
       y2="505.79999"
       gradientUnits="userSpaceOnUse"
       x2="0"
       gradientTransform="matrix(0.61141,0,0,0.76923,-238.90657,-386.33657)">
      <stop
         stop-color="#42a603"
         id="stop33-5" />
      <stop
         offset="1"
         stop-color="#78da06"
         id="stop35-3" />
    </linearGradient>
    <linearGradient
       id="g-5"
       y1="551.79999"
       y2="528.79999"
       gradientUnits="userSpaceOnUse"
       x2="0"
       gradientTransform="matrix(0.49677,0,0,0.76923,-191.25657,-404.02657)">
      <stop
         stop-color="#c6cdd1"
         id="stop28-6" />
      <stop
         offset="1"
         stop-color="#e0e5e7"
         id="stop30-2" />
    </linearGradient>
    <linearGradient
       id="i-9"
       x1="398.57001"
       x2="400.57001"
       gradientUnits="userSpaceOnUse"
       gradientTransform="matrix(1.5625,0,0,1.53847,-227.95,-292.82)">
      <stop
         stop-color="#faae2a"
         id="stop38-1" />
      <stop
         offset="1"
         stop-color="#ffc35a"
         id="stop40-2" />
    </linearGradient>
    <linearGradient
       xlink:href="#i-9"
       id="j-7"
       x1="398.57001"
       gradientUnits="userSpaceOnUse"
       x2="400.57001"
       gradientTransform="matrix(1.5625,0,0,1.53847,-604.39657,-793.87657)" />
    <linearGradient
       id="linearGradient1040"
       x1="398.57001"
       x2="400.57001"
       gradientUnits="userSpaceOnUse"
       gradientTransform="matrix(1.5625,0,0,1.53847,-227.95,-292.82)">
      <stop
         stop-color="#faae2a"
         id="stop1036" />
      <stop
         offset="1"
         stop-color="#ffc35a"
         id="stop1038" />
    </linearGradient>
    <linearGradient
       id="h-7-6"
       y1="557.79999"
       y2="505.79999"
       gradientUnits="userSpaceOnUse"
       x2="0"
       gradientTransform="matrix(0.61141,0,0,0.80312143,-229.65001,-403.22242)">
      <stop
         stop-color="#42a603"
         id="stop33-5-1" />
      <stop
         offset="1"
         stop-color="#78da06"
         id="stop35-3-8" />
    </linearGradient>
    <linearGradient
       id="g-5-7"
       y1="551.79999"
       y2="528.79999"
       gradientUnits="userSpaceOnUse"
       x2="0"
       gradientTransform="matrix(0.49677,0,0,0.80312143,-182.00001,-421.69183)">
      <stop
         stop-color="#c6cdd1"
         id="stop28-6-9" />
      <stop
         offset="1"
         stop-color="#e0e5e7"
         id="stop30-2-2" />
    </linearGradient>
    <linearGradient
       id="i-9-0"
       x1="398.57001"
       x2="400.57001"
       gradientUnits="userSpaceOnUse"
       gradientTransform="matrix(1.5625,0,0,1.53847,-227.95,-292.82)">
      <stop
         stop-color="#faae2a"
         id="stop38-1-2" />
      <stop
         offset="1"
         stop-color="#ffc35a"
         id="stop40-2-3" />
    </linearGradient>
    <linearGradient
       xlink:href="#i-9-0"
       id="j-7-7"
       x1="398.57001"
       gradientUnits="userSpaceOnUse"
       x2="400.57001"
       gradientTransform="matrix(1.5625,0,0,1.6062533,-595.14001,-828.71819)" />
    <linearGradient
       id="linearGradient1181"
       x1="398.57001"
       x2="400.57001"
       gradientUnits="userSpaceOnUse"
       gradientTransform="matrix(1.5625,0,0,1.53847,-227.95,-292.82)">
      <stop
         stop-color="#faae2a"
         id="stop1177" />
      <stop
         offset="1"
         stop-color="#ffc35a"
         id="stop1179" />
    </linearGradient>
    <linearGradient
       gradientTransform="matrix(1,0,0,0.99809762,-41.629865,-1.1746768)"
       gradientUnits="userSpaceOnUse"
       y2="14.592526"
       x2="23.178896"
       y1="46"
       x1="24"
       id="linearGradient2100"
       xlink:href="#linearGradient4793" />
    <linearGradient
       id="linearGradient4793">
      <stop
         id="stop4795"
         offset="0"
         style="stop-color:#54b60f;stop-opacity:1" />
      <stop
         id="stop4797"
         offset="1"
         style="stop-color:#92dc41;stop-opacity:1" />
    </linearGradient>
    <style
       id="current-color-scheme"
       type="text/css">
      .ColorScheme-Text {
        color:#4d4d4d;
      }
      </style>
    <linearGradient
       id="e"
       x1="389.57"
       x2="427.57"
       gradientUnits="userSpaceOnUse"
       gradientTransform="matrix(0.70711,0.70711,-0.70711,0.70711,105.48,-635.29)">
      <stop
         stop-color="#fcfcfc"
         id="stop22-0" />
      <stop
         offset="1"
         stop-color="#eff0f1"
         id="stop24-6" />
    </linearGradient>
    <linearGradient
       id="g-2"
       y1="551.8"
       y2="528.8"
       gradientUnits="userSpaceOnUse"
       x2="0"
       gradientTransform="matrix(0.49677,0,0,0.76923,-191.25657,-404.02657)">
      <stop
         stop-color="#c6cdd1"
         id="stop28-61" />
      <stop
         offset="1"
         stop-color="#e0e5e7"
         id="stop30-8" />
    </linearGradient>
    <linearGradient
       id="h-79"
       y1="557.8"
       y2="505.8"
       gradientUnits="userSpaceOnUse"
       x2="0"
       gradientTransform="matrix(0.61141,0,0,0.76923,-238.90657,-386.33657)">
      <stop
         stop-color="#42a603"
         id="stop33-2" />
      <stop
         offset="1"
         stop-color="#78da06"
         id="stop35-0" />
    </linearGradient>
    <linearGradient
       id="i-2"
       x1="398.57"
       x2="400.57"
       gradientUnits="userSpaceOnUse"
       gradientTransform="matrix(1.5625 0 0 1.53847-227.95-292.82)">
      <stop
         stop-color="#faae2a"
         id="stop38-3" />
      <stop
         offset="1"
         stop-color="#ffc35a"
         id="stop40-7" />
    </linearGradient>
    <linearGradient
       xlink:href="#i-2"
       id="j-5"
       x1="398.57"
       gradientUnits="userSpaceOnUse"
       x2="400.57"
       gradientTransform="matrix(1.5625,0,0,1.53847,-604.39657,-793.87657)" />
    <linearGradient
       id="h-7-9"
       y1="557.79999"
       y2="505.79999"
       gradientUnits="userSpaceOnUse"
       x2="0"
       gradientTransform="matrix(0.61141,0,0,0.76923,-238.90657,-386.33657)">
      <stop
         stop-color="#42a603"
         id="stop33-5-7" />
      <stop
         offset="1"
         stop-color="#78da06"
         id="stop35-3-3" />
    </linearGradient>
    <linearGradient
       id="g-5-6"
       y1="551.79999"
       y2="528.79999"
       gradientUnits="userSpaceOnUse"
       x2="0"
       gradientTransform="matrix(0.49677,0,0,0.76923,-191.25657,-404.02657)">
      <stop
         stop-color="#c6cdd1"
         id="stop28-6-1" />
      <stop
         offset="1"
         stop-color="#e0e5e7"
         id="stop30-2-29" />
    </linearGradient>
    <linearGradient
       id="i-9-3"
       x1="398.57001"
       x2="400.57001"
       gradientUnits="userSpaceOnUse"
       gradientTransform="matrix(1.5625,0,0,1.53847,-227.95,-292.82)">
      <stop
         stop-color="#faae2a"
         id="stop38-1-1" />
      <stop
         offset="1"
         stop-color="#ffc35a"
         id="stop40-2-9" />
    </linearGradient>
    <linearGradient
       xlink:href="#i-9-3"
       id="j-7-4"
       x1="398.57001"
       gradientUnits="userSpaceOnUse"
       x2="400.57001"
       gradientTransform="matrix(1.5625,0,0,1.53847,-604.39657,-793.87657)" />
    <linearGradient
       id="linearGradient1040-7"
       x1="398.57001"
       x2="400.57001"
       gradientUnits="userSpaceOnUse"
       gradientTransform="matrix(1.5625,0,0,1.53847,-227.95,-292.82)">
      <stop
         stop-color="#faae2a"
         id="stop1036-8" />
      <stop
         offset="1"
         stop-color="#ffc35a"
         id="stop1038-4" />
    </linearGradient>
    <linearGradient
       id="h-7-6-5"
       y1="557.79999"
       y2="505.79999"
       gradientUnits="userSpaceOnUse"
       x2="0"
       gradientTransform="matrix(0.61141,0,0,0.80312143,-229.65001,-403.22242)">
      <stop
         stop-color="#42a603"
         id="stop33-5-1-0" />
      <stop
         offset="1"
         stop-color="#78da06"
         id="stop35-3-8-3" />
    </linearGradient>
    <linearGradient
       id="g-5-7-6"
       y1="551.79999"
       y2="528.79999"
       gradientUnits="userSpaceOnUse"
       x2="0"
       gradientTransform="matrix(0.49677,0,0,0.80312143,-182.00001,-421.69183)">
      <stop
         stop-color="#c6cdd1"
         id="stop28-6-9-1" />
      <stop
         offset="1"
         stop-color="#e0e5e7"
         id="stop30-2-2-0" />
    </linearGradient>
    <linearGradient
       id="i-9-0-6"
       x1="398.57001"
       x2="400.57001"
       gradientUnits="userSpaceOnUse"
       gradientTransform="matrix(1.5625,0,0,1.53847,-227.95,-292.82)">
      <stop
         stop-color="#faae2a"
         id="stop38-1-2-3" />
      <stop
         offset="1"
         stop-color="#ffc35a"
         id="stop40-2-3-2" />
    </linearGradient>
    <linearGradient
       xlink:href="#i-9-0-6"
       id="j-7-7-0"
       x1="398.57001"
       gradientUnits="userSpaceOnUse"
       x2="400.57001"
       gradientTransform="matrix(1.5625,0,0,1.6062533,-595.14001,-828.71819)" />
    <linearGradient
       id="linearGradient1181-6"
       x1="398.57001"
       x2="400.57001"
       gradientUnits="userSpaceOnUse"
       gradientTransform="matrix(1.5625,0,0,1.53847,-227.95,-292.82)">
      <stop
         stop-color="#faae2a"
         id="stop1177-1" />
      <stop
         offset="1"
         stop-color="#ffc35a"
         id="stop1179-5" />
    </linearGradient>
    <linearGradient
       gradientUnits="userSpaceOnUse"
       y2="1.4468008"
       x2="24.573759"
       y1="46.029682"
       x1="24.393805"
       id="linearGradient925"
       xlink:href="#b-3-7"
       gradientTransform="translate(-0.2932556,0.32526833)" />
    <linearGradient
       y2="518.13873"
       y1="545.13873"
       x2="399.9939"
       x1="399.9939"
       gradientUnits="userSpaceOnUse"
       id="b-3-7">
      <stop
         id="stop7-6"
         stop-color="#197ff1"
         offset="0" />
      <stop
         id="stop9-7"
         stop-color="#21c6fb"
         offset="1" />
    </linearGradient>
    <linearGradient
       id="a-6"
       gradientUnits="userSpaceOnUse"
       x1="197.88585"
       x2="183.32736"
       y1="364.75723"
       y2="12.945999">
      <stop
         offset="0"
         stop-color="#197cf1"
         id="stop2-7" />
      <stop
         offset="1"
         stop-color="#20bcfa"
         id="stop4-5" />
    </linearGradient>
    <linearGradient
       inkscape:collect="always"
       xlink:href="#linearGradient1135"
       id="linearGradient1137"
       x1="24.629353"
       y1="45.716633"
       x2="24.629353"
       y2="3.2542372"
       gradientUnits="userSpaceOnUse" />
    <linearGradient
       inkscape:collect="always"
       xlink:href="#linearGradient1166"
       id="linearGradient1168"
       x1="25.734375"
       y1="3.9277344"
       x2="25.734375"
       y2="43.322033"
       gradientUnits="userSpaceOnUse" />
    <linearGradient
       inkscape:collect="always"
       xlink:href="#linearGradient1135"
       id="linearGradient1179"
       gradientUnits="userSpaceOnUse"
       x1="24.629353"
       y1="45.716633"
       x2="24.629353"
       y2="3.2542372" />
  </defs>
  <sodipodi:namedview
     pagecolor="#ffffff"
     bordercolor="#666666"
     borderopacity="1"
     objecttolerance="10"
     gridtolerance="10"
     guidetolerance="10"
     inkscape:pageopacity="0"
     inkscape:pageshadow="2"
     inkscape:window-width="1366"
     inkscape:window-height="695"
     id="namedview38"
     showgrid="false"
     inkscape:zoom="4.9166667"
     inkscape:cx="24"
     inkscape:cy="24"
     inkscape:window-x="0"
     inkscape:window-y="0"
     inkscape:window-maximized="1"
     inkscape:current-layer="svg36" />
  <linearGradient
     id="a">
    <stop
       offset="0"
       stop-color="#fff"
       id="stop2" />
    <stop
       offset="1"
       stop-color="#ececec"
       id="stop4" />
  </linearGradient>
  <linearGradient
     id="b"
     gradientUnits="userSpaceOnUse"
     x1="399.57144"
     x2="399.57144"
     y1="545.79797"
     y2="517.79797">
    <stop
       offset="0"
       stop-color="#3889e9"
       id="stop7" />
    <stop
       offset="1"
       stop-color="#5ea5fb"
       id="stop9" />
  </linearGradient>
  <linearGradient
     id="c"
     gradientUnits="userSpaceOnUse"
     x1="-321.182097380186"
     x2="-325.132244368578"
     y1="656.02754663332"
     y2="242.44720774105">
    <stop
       offset="0"
       stop-color="#197dec"
       id="stop12" />
    <stop
       offset="1"
       stop-color="#3fcffb"
       id="stop14" />
  </linearGradient>
  <linearGradient
     id="d"
     gradientUnits="userSpaceOnUse"
     x1="-320.962291273952"
     x2="-324.916384678496"
     xlink:href="#a"
     y1="656.01548322624"
     y2="242.0219546136" />
  <g
     id="g1177"
     transform="translate(-1.7367829,0.13757582)">
    <path
       id="path1159"
       d="m 25.734375,3.9277344 c -0.352546,0 -0.704351,0.1099617 -1.001953,0.328125 -1.973789,1.4449582 -8.034181,5.4224218 -15.3789064,6.1132816 -1.1524363,0.107284 -2.0424501,1.077078 -2.0625,2.236328 -0.045837,3.008183 0.1643777,9.589686 2.5039063,16.035156 2.3395281,6.44547 6.8621181,12.785475 15.3593751,15.080078 0.380283,0.101984 0.781826,0.101984 1.162109,0 C 34.813735,41.428125 39.335775,35.088528 41.675781,28.642578 44.015449,22.19756 44.227352,15.615813 44.183594,12.607422 44.168512,11.444869 43.272318,10.47554 42.119141,10.369141 34.775353,9.6783694 28.717507,5.7018809 26.738281,4.2558594 26.440679,4.0376964 26.086921,3.9277344 25.734375,3.9277344 Z"
       style="color:#000000;font-style:normal;font-variant:normal;font-weight:normal;font-stretch:normal;font-size:medium;line-height:normal;font-family:sans-serif;font-variant-ligatures:normal;font-variant-position:normal;font-variant-caps:normal;font-variant-numeric:normal;font-variant-alternates:normal;font-feature-settings:normal;text-indent:0;text-align:start;text-decoration:none;text-decoration-line:none;text-decoration-style:solid;text-decoration-color:#000000;letter-spacing:normal;word-spacing:normal;text-transform:none;writing-mode:lr-tb;direction:ltr;text-orientation:mixed;dominant-baseline:auto;baseline-shift:baseline;text-anchor:start;white-space:normal;shape-padding:0;clip-rule:nonzero;display:inline;overflow:visible;visibility:visible;opacity:1;isolation:auto;mix-blend-mode:normal;color-interpolation:sRGB;color-interpolation-filters:linearRGB;solid-color:#000000;solid-opacity:1;vector-effect:none;fill:url(#linearGradient1168);fill-opacity:1;fill-rule:nonzero;stroke:none;stroke-width:1;stroke-linecap:butt;stroke-linejoin:miter;stroke-miterlimit:4;stroke-dasharray:none;stroke-dashoffset:0;stroke-opacity:1;color-rendering:auto;image-rendering:auto;shape-rendering:auto;text-rendering:auto;enable-background:accumulate"
       inkscape:connector-curvature="0" />
    <circle
       id="circle18"
       transform="matrix(1.6374665,0,0,1.6374665,-644.58019,-848.71933)"
       r="0"
       cy="531.79791"
       cx="400.57138"
       style="fill:url(#b)" />
    <path
       inkscape:connector-curvature="0"
       style="color:#000000;font-style:normal;font-variant:normal;font-weight:normal;font-stretch:normal;font-size:medium;line-height:normal;font-family:sans-serif;font-variant-ligatures:normal;font-variant-position:normal;font-variant-caps:normal;font-variant-numeric:normal;font-variant-alternates:normal;font-feature-settings:normal;text-indent:0;text-align:start;text-decoration:none;text-decoration-line:none;text-decoration-style:solid;text-decoration-color:#000000;letter-spacing:normal;word-spacing:normal;text-transform:none;writing-mode:lr-tb;direction:ltr;text-orientation:mixed;dominant-baseline:auto;baseline-shift:baseline;text-anchor:start;white-space:normal;shape-padding:0;clip-rule:nonzero;display:inline;overflow:visible;visibility:visible;opacity:1;isolation:auto;mix-blend-mode:normal;color-interpolation:sRGB;color-interpolation-filters:linearRGB;solid-color:#000000;solid-opacity:1;vector-effect:none;fill:url(#linearGradient1179);fill-opacity:1;fill-rule:nonzero;stroke:none;stroke-width:1.86353612;stroke-linecap:butt;stroke-linejoin:miter;stroke-miterlimit:4;stroke-dasharray:none;stroke-dashoffset:0;stroke-opacity:1;color-rendering:auto;image-rendering:auto;shape-rendering:auto;text-rendering:auto;enable-background:accumulate"
       d="m 25.732433,1.8623816 c -0.776199,0 -1.548612,0.2416745 -2.202015,0.7206687 v -0.00456 C 21.717067,3.906017 15.891083,7.6752706 9.1617211,8.3082559 6.9914911,8.5114013 5.2805541,10.369707 5.2425791,12.565544 v 0.0046 c -0.04808,3.154981 0.147796,9.94393 2.629072,16.780026 2.4812799,6.836094 7.5260679,13.870159 16.7531019,16.361863 v 0.0046 h 0.0046 c 0.725086,0.194445 1.485824,0.194445 2.21091,0 l 0.0046,-0.0046 C 36.072254,43.22241 41.116227,36.186603 43.597965,29.35013 46.079093,22.515339 46.277309,15.7286 46.231485,12.574552 46.202605,10.364287 44.478059,8.5106497 42.307683,8.3083743 h -0.0046 C 35.579105,7.67469 29.763123,3.915408 27.938896,2.5830571 27.285493,2.104063 26.508632,1.8623884 25.732433,1.8623884 Z m 0,2.5623796 c 0.248153,0 0.49658,0.076849 0.707314,0.2313271 2.016696,1.4735369 8.13627,5.5006817 15.632076,6.2057627 0.901979,0.08323 1.598517,0.837233 1.610361,1.74829 0.08666,5.945611 -0.861852,26.136035 -17.496002,30.623994 -0.295419,0.07922 -0.607631,0.07922 -0.90305,0 C 8.6489821,38.742176 7.7009961,18.555788 7.7915781,12.610141 c 0.01572,-0.911059 0.708344,-1.665069 1.610361,-1.74829 C 16.897745,10.15677 23.012319,6.1296252 25.025119,4.6560883 25.235846,4.5015939 25.48428,4.4247612 25.732433,4.4247612 Z m 0,2.2420822 c -0.219542,0 -0.436366,0.063524 -0.622793,0.2001845 -0.516345,0.3780068 -1.369613,0.9523762 -2.437784,1.5836941 0.34926,0.1032241 0.76807,0.349643 1.023158,0.1779545 0.07272,-0.049266 0.05434,-0.1394391 0.1201,-0.2669157 0.0522,-0.1020169 0.136727,-0.2124156 0.186835,-0.3380907 0.146179,-0.00456 0.289117,-0.00456 0.435956,-0.00456 1.212893,0 2.3957,0.1184844 3.541015,0.3514355 -0.04804,0.1264107 -0.201411,0.072339 -0.333637,0.1334487 -0.124018,0.057625 -0.170641,0.1753124 -0.3025,0.2001845 -0.36645,0.069013 -0.670421,-0.087258 -0.987571,-0.075619 -0.01389,0.1371158 0.155107,0.2139189 0.240221,0.2580191 0.287447,0.1505996 0.524501,0.133631 0.929739,0.1245659 0.20772,-0.00456 0.444349,0.060427 0.622793,-0.062272 0.113062,-0.077167 0.109987,-0.2525435 0.204623,-0.3469894 0.04034,-0.039973 0.09789,-0.077054 0.164582,-0.1112187 0.199065,0.046943 0.390549,0.097575 0.587205,0.1512601 -0.03309,0.1357264 -0.246295,0.0986 -0.249117,0.2802606 0.122104,0.073318 0.371253,-0.014805 0.520475,-0.1334488 C 28.021902,8.0259524 26.9672,7.3108799 26.359642,6.8669573 26.173217,6.7302971 25.951933,6.6667728 25.732401,6.6667728 Z m 5.32932,3.0027878 c 0.0809,0.089148 0.190934,0.1592092 0.289153,0.2224374 0.167361,0.1078249 0.340851,0.2129624 0.400365,0.4003734 -0.163876,0.347429 -0.425547,-0.01549 -0.68507,-0.01777 -0.286001,-0.002 -0.699347,0.540906 -0.943086,0.09787 0.06059,-0.234743 0.319309,-0.270945 0.382573,-0.5026887 -0.05569,0.00934 -0.11099,0.027309 -0.164605,0.048924 -0.0958,0.037878 -0.186949,0.089831 -0.284705,0.1423547 -0.128231,0.06901 -0.265427,0.134883 -0.418159,0.169048 -0.140553,0.03091 -0.274795,0.02581 -0.400368,0.06227 -0.241108,0.07065 -0.412202,0.248467 -0.667275,0.342539 -0.09953,0.03649 -0.221136,0.02765 -0.324744,0.06227 -0.243272,0.08111 -0.531995,0.228902 -0.782938,0.364783 -0.256555,0.138505 -0.548002,0.275537 -0.707312,0.413718 -0.08603,0.07414 -0.310239,0.338767 -0.3025,0.422615 0.0093,0.119692 0.239023,0.16233 0.244669,0.284709 -0.0046,0.07414 -0.130714,0.234849 -0.04004,0.342541 0.08254,0.09808 0.24745,0.01845 0.422609,0.04004 0.307889,0.0381 0.511164,0.29231 0.74735,0.422613 0.178567,0.09853 0.443393,0.219203 0.645035,0.244672 0.276821,0.03462 0.585052,-0.08357 0.62279,0.137913 0.0366,0.212871 -0.263329,0.284586 -0.284705,0.418167 0.149186,0.196608 -0.09853,0.290307 -0.09787,0.462652 6.52e-4,0.139439 0.170185,0.352141 0.320293,0.364782 0.203052,0.01617 0.502839,-0.197838 0.587203,-0.400371 0.100262,-0.241319 0.05605,-0.571625 0.24022,-0.747361 0.938966,0.02581 1.733158,-0.42151 1.672641,-1.383507 -0.0071,-0.09505 -0.06006,-0.220319 -0.04004,-0.324746 0.02936,-0.155474 0.293586,-0.283839 0.258014,-0.480445 0.101172,-0.03114 0.166244,-0.117049 0.21797,-0.20909 0.07717,-0.137116 0.136681,-0.290834 0.280256,-0.342541 0.0093,-0.0046 0.01572,-0.0066 0.02669,-0.0089 0.08204,-0.01868 0.17219,-0.0043 0.262462,0.02232 0.160846,0.0474 0.332981,0.128688 0.524925,0.11566 0.09766,-0.0071 0.226602,-0.09402 0.324741,-0.08008 0.196993,0.02742 0.314642,0.265765 0.462645,0.37813 0.13076,0.09992 0.269117,0.06703 0.302498,0.200184 -0.03872,0.223326 -0.195011,0.23539 -0.182393,0.440408 v 0.0046 c 0.01389,0.184286 0.211251,0.328745 0.306948,0.34699 0.146862,0.02742 0.356052,-0.05485 0.502682,-0.124566 0.158273,-0.07482 0.297699,-0.234628 0.435954,-0.34699 0.197471,0.151511 0.396193,0.307864 0.587205,0.4671 0.02095,0.08947 0.03303,0.172261 0.04004,0.226879 0.0282,0.217518 -0.02638,0.382556 -0.01777,0.582765 0.02585,0.339157 0.452191,0.302732 0.662827,0.480445 0.06341,0.05391 0.08521,0.187976 0.137911,0.258017 0.102312,0.136182 0.228777,0.139462 0.244669,0.284709 0.03774,0.347431 -0.313244,0.377428 -0.280257,0.765156 -0.07275,0.150349 -0.25505,0.142036 -0.24022,0.342542 0.02319,0.317543 0.476463,0.07694 0.600549,0.324745 0.06712,0.133153 -0.01344,0.228298 -0.06227,0.418165 0.156405,0.185903 0.16014,0.480051 -0.115659,0.480447 -0.167611,0 -0.213119,-0.176155 -0.382573,-0.217973 -0.09418,-0.02348 -0.226989,-0.01845 -0.346982,-0.04004 -0.102585,-0.01868 -0.223118,-0.05065 -0.320293,-0.06227 -0.248771,-0.02952 -0.515755,0.04528 -0.662848,-0.09787 0.239777,-0.317937 0.554724,-0.633702 0.863011,-0.907508 0.09161,-0.08179 0.29134,-0.138642 0.244669,-0.302504 -0.171552,-0.15035 -0.380871,0.01116 -0.542718,0.102313 -0.169958,0.09553 -0.373205,0.234021 -0.564962,0.262465 -0.333252,0.04927 -0.777554,-0.09748 -1.04985,0.08008 -0.03753,0.151761 0.310905,0.09124 0.262464,0.320297 -0.133333,0.02095 -0.25769,0.03535 -0.36033,-0.05783 -0.09372,-0.08414 -0.04612,-0.211709 -0.106752,-0.262465 -0.103246,-0.08553 -0.489374,-0.108668 -0.66283,-0.08008 -0.211661,0.03439 -0.398154,0.161806 -0.422609,0.342541 0.254273,0.118986 0.672903,-0.125795 0.765146,0.177955 -0.139415,0.250334 -0.462222,0.38947 -0.418161,0.725117 0.0164,0.129668 0.169365,0.301033 0.280256,0.320297 0.111422,0.01868 0.172577,-0.08584 0.280257,-0.07562 0.113996,0.01162 0.08862,0.135407 0.222434,0.11566 0.193941,-0.08272 0.302703,-0.355183 0.524925,-0.342541 0.266655,0.323169 -0.24214,0.480256 -0.524925,0.582764 -0.322529,0.116663 -0.74187,0.185857 -0.98757,0.289158 -0.128915,0.05368 -0.616165,0.519281 -0.685071,0.155701 -0.04917,-0.262212 0.241459,-0.18456 0.3025,-0.400371 -0.311904,-0.06066 -0.601419,0.136865 -0.885254,0.24467 -0.404985,0.152922 -1.090012,0.244282 -1.187755,0.698427 -0.01868,0.09086 0.03398,0.264162 -0.02669,0.324746 -0.04826,0.04879 -0.336391,0.05512 -0.462643,0.09787 -0.194419,0.06669 -0.364793,0.20786 -0.484889,0.240224 -0.09069,0.02485 -0.222776,0.02232 -0.280256,0.04448 -0.160096,0.06207 -0.216649,0.274338 -0.400366,0.418165 -0.07528,0.05879 -0.242591,0.100878 -0.3025,0.160143 -0.10443,0.103657 -0.122879,0.36594 -0.306946,0.404821 -0.117025,0.0091 -0.210112,-0.08468 -0.320293,-0.01777 -0.01389,0.256564 0.09386,0.603624 -0.01777,0.863024 -0.238671,0.194285 -0.504303,0.326941 -0.80963,0.49824 -0.168773,0.09502 -0.320976,0.124862 -0.524923,0.226878 -0.144743,0.07204 -0.273965,0.240044 -0.440404,0.338091 -0.384725,0.226127 -0.848179,0.490683 -0.845218,1.06321 6.51e-4,0.123882 0.06423,0.260017 0.08008,0.404819 0.0093,0.0853 -0.0093,0.169368 0,0.262468 0.02401,0.21032 0.176471,0.477555 0,0.622799 -0.271244,-0.111104 -0.619923,-0.149734 -0.80963,-0.342539 -0.05198,-0.198476 0.108529,-0.361924 0.08452,-0.542728 -0.01868,-0.145224 -0.227985,-0.399549 -0.346982,-0.418166 -0.122606,-0.01868 -0.229313,0.108098 -0.355881,0.09787 -0.150598,-0.01184 -0.295948,-0.217835 -0.489337,-0.240223 -0.283439,-0.033 -0.491251,0.06152 -0.805182,0.01777 -0.303908,0.161966 -0.388231,0.45113 -0.760695,0.422615 -0.131238,-0.0093 -0.253205,-0.106777 -0.404814,-0.137912 -0.164332,-0.03392 -0.416104,-0.09637 -0.587205,-0.08452 -0.343022,0.02319 -0.595054,0.274264 -0.889703,0.427063 -0.259988,0.135249 -0.625656,0.302591 -0.702863,0.582763 -0.04243,0.150805 -0.0089,0.358663 -0.06227,0.49824 -0.03565,0.09179 -0.112378,0.175108 -0.160141,0.262466 -0.225873,0.411989 -0.411694,0.959947 -0.24022,1.552553 0.0254,0.08783 0.250037,0.584915 0.342534,0.68508 0.103974,0.11131 0.408274,0.272745 0.582757,0.275813 0.147545,0.0025 0.324058,-0.07232 0.467094,-0.09787 0.165743,-0.0295 0.369838,-0.03198 0.520477,-0.08008 0.435655,-0.139211 0.351259,-0.727116 0.787386,-0.925303 0.190456,-0.08601 0.412583,-0.102906 0.74735,-0.120102 0.106298,0.08924 0.152602,0.246551 0.137911,0.382576 -0.01184,0.102723 -0.107686,0.191666 -0.16014,0.338093 -0.04567,0.128301 -0.05708,0.279023 -0.102312,0.382578 -0.05992,0.135498 -0.192187,0.241743 -0.24022,0.369231 -0.03148,0.08295 -0.0096,0.18317 -0.0356,0.258017 -0.04639,0.132469 -0.229091,0.224031 -0.146794,0.360334 0.431463,0.171304 0.953586,-0.04309 1.330105,0.02669 0.158979,0.02881 0.492296,0.213668 0.489337,0.458204 -0.002,0.182897 -0.144789,0.302433 -0.164605,0.502689 -0.02448,0.251732 -0.131146,0.561345 -0.142352,0.765156 -0.01868,0.333788 0.489401,0.907638 0.845218,0.90306 0.383071,-0.0046 0.606112,-0.381977 1.067643,-0.182396 0.153171,0.06601 0.315772,0.31922 0.484889,0.306952 0.139414,-0.0093 0.347206,-0.258322 0.440402,-0.427063 0.113518,-0.205673 0.119827,-0.376729 0.320293,-0.480447 0.216307,-0.111765 0.394952,-0.06166 0.671726,-0.164607 0.123562,-0.04578 0.231176,-0.123268 0.342534,-0.200185 0.09766,-0.06694 0.198496,-0.241863 0.320295,-0.120124 0.160847,0.160325 -0.198633,0.250919 -0.06227,0.422615 0.27952,0.147798 0.424829,-0.273822 0.627238,-0.280261 0.06457,-0.002 0.285466,0.124429 0.400368,0.200185 0.157112,0.10295 0.215055,0.246703 0.387021,0.28026 0.110489,0.02073 0.285104,-0.03897 0.440402,-0.01777 0.205603,0.02929 0.32908,0.204831 0.484889,0.200185 0.189773,-0.0046 0.282352,-0.214557 0.44485,-0.244672 0.355679,-0.06507 0.488433,0.04068 0.645035,0.262467 0.175537,0.03043 0.177405,-0.202394 0.338088,-0.120124 -0.08814,0.175221 0.03612,0.254124 0.106753,0.400371 0.04569,0.09389 0.03298,0.159506 0.07562,0.200185 0.09603,0.09156 0.28612,0.09783 0.427058,0.186837 0.148729,0.09343 0.229761,0.262527 0.400365,0.458204 0.175538,0.20007 0.472897,0.412445 0.707314,0.427063 0.221455,0.01389 0.395223,-0.06701 0.578306,-0.04448 0.416849,0.05113 0.678133,0.260821 0.969776,0.484896 0.162919,0.125044 0.312467,0.215012 0.36478,0.364782 0.03683,0.104568 0.02027,0.243069 0.06227,0.360335 0.08906,0.250546 0.452629,0.372217 0.320293,0.80519 0.06059,0.127117 0.192028,0.173582 0.338088,0.262468 0.116798,0.07109 0.220476,0.219863 0.346985,0.240223 0.08184,0.01389 0.173807,-0.02633 0.244666,-0.02232 4.99624,-6.916193 5.377472,-16.449691 5.324872,-20.058628 -0.01048,-0.80589 -0.630068,-1.474389 -1.428018,-1.548014 -3.509282,-0.330092 -6.654596,-1.485247 -9.123901,-2.6913896 z M 13.458984,12.036275 c -0.708171,0.136159 -1.433227,0.254942 -2.175323,0.324745 -0.797984,0.07364 -1.4095849,0.742123 -1.4235239,1.548106 -0.08013,5.259909 0.7607169,23.1135 15.4763779,27.087377 0.261348,0.07008 0.534936,0.07008 0.796283,0 0.664201,-0.179207 1.268418,-0.416128 1.877274,-0.649493 -0.158,-0.13231 -0.330026,-0.258375 -0.449301,-0.324746 -0.141031,-0.0781 -0.309048,-0.10245 -0.462645,-0.177955 -0.328147,-0.160849 -0.96809,-0.502873 -1.112128,-0.827434 -0.04173,-0.09343 -0.03086,-0.215992 -0.07562,-0.320298 -0.08739,-0.206151 -0.274084,-0.388397 -0.404814,-0.587213 -0.248886,-0.379362 -0.447421,-0.853876 -0.702865,-1.245601 -0.129165,-0.198932 -0.24543,-0.424314 -0.387021,-0.582762 -0.08298,-0.09341 -0.34849,-0.18415 -0.382573,-0.324746 -0.04544,-0.186154 -0.182075,-0.440376 -0.160141,-0.582763 0.02915,-0.191962 0.400947,-0.340858 0.400366,-0.516036 -6.54e-4,-0.148732 -0.198474,-0.238442 -0.24022,-0.364782 -0.101629,-0.307365 0.06097,-0.48693 0.182393,-0.742913 0.04011,-0.08414 0.07835,-0.222688 0.120123,-0.284709 0.07389,-0.110626 0.22191,-0.142673 0.320292,-0.262467 0.05503,-0.06717 0.09279,-0.203077 0.164583,-0.298054 0.153148,-0.203122 0.399634,-0.279317 0.462645,-0.462652 0.05127,-0.149415 0.08252,-0.897839 0.02232,-1.147732 -0.03499,-0.144791 -0.170914,-0.267826 -0.222434,-0.404819 -0.09113,-0.242732 -0.109942,-0.507918 -0.36033,-0.502691 -0.15456,0.0025 -0.265474,0.176884 -0.364779,0.284709 -0.02367,0.143402 -0.01481,0.298759 -0.164583,0.342541 -0.229153,0.06765 -0.315494,-0.239402 -0.582756,-0.320298 -0.106298,-0.0323 -0.276002,-0.03253 -0.342534,-0.06227 -0.195126,-0.08737 -0.25257,-0.369732 -0.458198,-0.480445 -0.17203,-0.09177 -0.322837,-0.06355 -0.427057,-0.204626 -0.04337,-0.09714 -0.01071,-0.274703 -0.02232,-0.40482 -0.220771,-0.128984 -0.410111,-0.611595 -0.667277,-0.725119 -0.170391,-0.07578 -0.427336,-0.06562 -0.640584,-0.137913 -0.100262,-0.03391 -0.179933,-0.07535 -0.284705,-0.09787 -0.129142,-0.02881 -0.2603,-0.03432 -0.360329,-0.08452 -0.398967,-0.197519 -0.613603,-0.836675 -1.107682,-0.822986 -0.210727,0.0046 -0.414034,0.205788 -0.604998,0.204626 -0.189818,-0.0011 -0.50925,-0.152194 -0.74735,-0.262465 -0.247327,-0.114863 -0.521115,-0.180619 -0.725107,-0.284709 -0.164787,-0.08414 -0.283042,-0.238668 -0.427057,-0.302504 -0.110261,-0.04881 -0.265414,-0.0551 -0.355881,-0.09787 -0.128664,-0.06091 -0.266867,-0.191256 -0.427058,-0.302502 -0.151987,-0.105046 -0.314325,-0.264283 -0.320293,-0.400373 -0.0073,-0.157547 0.148275,-0.29343 0.164605,-0.444857 0.05198,-0.478987 -0.306893,-0.824706 -0.529373,-1.107695 -0.164787,-0.21032 -0.355157,-0.388135 -0.520475,-0.582765 0.0093,-0.129235 0.0093,-0.151283 0,-0.280258 -0.125202,-0.121309 -0.236938,-0.303183 -0.369228,-0.484896 -0.119576,-0.163832 -0.3436,-0.341133 -0.373674,-0.524932 -0.03706,-0.226127 0.08603,-0.416743 0,-0.636147 -0.143377,-0.364092 -0.656805,-0.205628 -0.591653,0.275813 0.01868,0.132674 0.205853,0.3133 0.262464,0.444858 0.05803,0.134109 0.04824,0.301113 0.102311,0.462652 0.05198,0.154768 0.208404,0.288287 0.262462,0.462652 0.08552,0.275389 0.08603,0.570777 0.164605,0.742912 0.06924,0.152923 0.316519,0.299767 0.173488,0.484894 -0.190684,0.0395 -0.255096,-0.151716 -0.373677,-0.262465 -0.06619,-0.06157 -0.310526,-0.177021 -0.346982,-0.320298 -0.03052,-0.118302 0.07523,-0.27781 0.04004,-0.422615 -0.06924,-0.283843 -0.643007,-0.295113 -0.645037,-0.587213 -0.001,-0.183352 0.238045,-0.205264 0.240221,-0.382576 0.0016,-0.194035 -0.267375,-0.360396 -0.324742,-0.524932 -0.05245,-0.150782 -0.05605,-0.388359 -0.07562,-0.600558 -0.01868,-0.19916 9.77e-4,-0.429104 -0.04448,-0.582763 -0.04134,-0.138277 -0.249192,-0.326169 -0.382573,-0.400373 -0.176472,-0.09808 -0.318423,-0.05658 -0.404814,-0.200185 -0.07507,-0.1255 -0.117162,-0.389677 -0.133447,-0.524932 -0.02913,-0.241878 -0.01253,-0.50701 -0.02669,-0.765157 -0.01389,-0.258536 -0.03963,-0.505116 0,-0.782947 0.09976,-0.194513 0.285363,-0.287722 0.387021,-0.480447 0.07088,-0.134086 0.08015,-0.302213 0.160141,-0.444856 0.147523,-0.262707 0.468866,-0.50616 0.685052,-0.765141 0.233101,-0.278989 0.450786,-0.548556 0.587203,-0.867471 0.04897,-0.113177 0.174535,-0.359455 0.155699,-0.49824 -0.0266,-0.193352 -0.389164,-0.352484 -0.360329,-0.582765 0.01868,-0.142696 0.219724,-0.143904 0.280257,-0.284709 0.03102,-0.07275 0.06063,-0.273535 0.06227,-0.360334 0.0022,-0.194058 -0.101446,-0.397802 -0.06227,-0.605007 0.03309,-0.176861 0.299974,-0.246312 0.164605,-0.440408 -0.134267,-0.19219 -0.376319,0.102336 -0.524926,-0.02232 -0.136362,-0.114339 0.02742,-0.256737 0.04004,-0.4671 0.0046,-0.08366 -0.0489,-0.173832 -0.04004,-0.235773 0.01184,-0.08995 0.188976,-0.242128 0.142353,-0.302504 -0.04933,-0.06241 -0.113791,-0.181781 -0.177952,-0.289158 z"
       id="path983" />
    <g
       id="layer2"
       style="display:inline;stroke:none"
       transform="matrix(1.0031785,0,0,1.0019052,-25.850327,12.348561)" />
    <g
       id="layer1"
       style="display:inline;stroke:none"
       transform="matrix(1.0031785,0,0,1.0019052,-25.850327,12.348561)" />
    <g
       id="layer2-3"
       style="display:inline;stroke:none"
       transform="matrix(0.87848322,0,0,0.88510207,-48.575048,9.0467244)" />
    <g
       id="layer1-6"
       style="display:inline;stroke:none"
       transform="matrix(0.87848322,0,0,0.88510207,-48.575048,9.0467244)" />
  </g>
</svg>
