<?xml version="1.0" encoding="UTF-8"?>
<svg viewBox="0 0 22 22" xmlns="http://www.w3.org/2000/svg">
 <linearGradient id="a" x1="383.53833" x2="416.79535" y1="531.66302" y2="531.39801" gradientUnits="userSpaceOnUse">
  <stop stop-color="#ac92ec" offset="0"/>
  <stop stop-color="#64a9ff" offset=".20237894"/>
  <stop stop-color="#4cdbb7" offset=".32345149"/>
  <stop stop-color="#aee672" offset=".53399092"/>
  <stop stop-color="#ffce53" offset=".76312304"/>
  <stop stop-color="#fb6e51" offset=".89940798"/>
  <stop stop-color="#ed5565" offset="1"/>
 </linearGradient>
 <linearGradient id="b" x1="2.895126" x2="18.777627" y1="10.952483" y2="10.865421" gradientUnits="userSpaceOnUse">
  <stop stop-color="#ac92ec" offset="0"/>
  <stop stop-color="#64a9ff" offset=".1366801"/>
  <stop stop-color="#4cdbb7" offset=".26767892"/>
  <stop stop-color="#aee672" offset=".49417827"/>
  <stop stop-color="#ffce53" offset=".74118012"/>
  <stop stop-color="#fb6e51" offset=".93032265"/>
  <stop stop-color="#ed5565" offset="1"/>
 </linearGradient>
 <linearGradient id="c" x1="400.35564" x2="400.40303" y1="546.67903" y2="516.7815" gradientUnits="userSpaceOnUse">
  <stop stop-color="#d8d8d8" offset="0"/>
  <stop stop-color="#fff" offset="1"/>
 </linearGradient>
 <g transform="matrix(-.16010351 .029803661 -.029803661 -.16010351 5.2042881 -10.049406)" stroke-width="1.079655">
  <circle transform="matrix(-.59677373 -.11109089 .11109089 -.59677373 80.811449 146.64199)" cx="235.78929" cy="426.28171" r="67.570946" fill="none"/>
  <circle transform="matrix(-3.0654722 -.57064518 .57064518 -3.0654722 913.40495 1724.6546)" cx="400.61902" cy="531.72919" r="0" fill="url(#c)" stroke="url(#a)" stroke-linecap="round" stroke-linejoin="round" stroke-width="1.759135"/>
  <g transform="matrix(.99999999 4.99e-9 -4.99e-9 .99999999 -.080103006 .37439811)" stroke-width="1.079655">
   <circle transform="matrix(-.59677373 -.11109089 .11109089 -.59677373 80.811449 146.64199)" cx="235.78929" cy="426.28171" r="67.570946" fill="none"/>
   <path transform="matrix(-6.0367689 -1.1237594 1.1237594 -6.0367689 42.790299 -55.191969)" d="m11 3c-4.4129865 0-7.9999999 3.5870088-8 8 2e-7 4.412988 3.5870135 8 8 8 4.412986 0 8-3.587014 8-8 0-4.4129909-3.587013-7.9999999-8-8zm0 0.8925781c3.930221 0 7.105469 3.1772018 7.105469 7.1074219 0 3.930217-3.175248 7.107422-7.105469 7.107422-3.9302159-1e-6 -7.1074221-3.177207-7.1074219-7.107422-2e-7 -3.9302217 3.177206-7.107422 7.1074219-7.1074219z" fill="url(#b)"/>
   <path transform="matrix(-6.0367687 -1.1237593 1.1237593 -6.0367687 42.790299 -55.191969)" d="m11 3.8339844a7.1666663 7.1666663 0 0 0 -7.1660156 7.1660156 7.1666663 7.1666663 0 0 0 7.1660156 7.166016 7.1666663 7.1666663 0 0 0 7.166016-7.166016 7.1666663 7.1666663 0 0 0 -7.166016-7.1660156zm-.068359 3.2675781c.066385 0 .134105.0337368.171875.0996094l2.287109 3.9882811c.778204 1.357183.308345 3.08704-1.048828 3.865235-1.357174.778203-3.0889933.310288-3.8671876-1.046876-.5176724-.902812-.480556-1.975191 0-2.818359l2.2871096-3.9882811c.037765-.0658726.103537-.0996094.169922-.0996094z" fill="#4d4d4d" opacity=".9"/>
  </g>
 </g>
</svg>
