<?xml version="1.0" encoding="UTF-8"?>
<svg viewBox="0 0 22 22" xmlns="http://www.w3.org/2000/svg">
 <path d="m4 3c-0.55402 0-1 0.44599-1 1v14c0 0.55402 0.44598 1 1 1h14c0.55401 0 1-0.44598 1-1v-14c0-0.55401-0.44599-1-1-1zm3.11914 3a1.2697625 1.2697625 0 0 1 1.26953 1.26953 1.2697625 1.2697625 0 0 1-1.26953 1.27149 1.2697625 1.2697625 0 0 1-1.26953-1.27149 1.2697625 1.2697625 0 0 1 1.26953-1.26953zm3.87305 0a1.2697625 1.2697625 0 0 1 1.26953 1.26953 1.2697625 1.2697625 0 0 1-1.26953 1.27149 1.2697625 1.2697625 0 0 1-1.26954-1.27149 1.2697625 1.2697625 0 0 1 1.26954-1.26953zm3.88867 0a1.2697625 1.2697625 0 0 1 1.26953 1.26953 1.2697625 1.2697625 0 0 1-1.26953 1.26953 1.2697625 1.2697625 0 0 1-1.26953-1.26953 1.2697625 1.2697625 0 0 1 1.26953-1.26953zm0 3.69727a1.2697625 1.2697625 0 0 1 1.26953 1.27148 1.2697625 1.2697625 0 0 1-1.26953 1.26953 1.2697625 1.2697625 0 0 1-1.26953-1.26953 1.2697625 1.2697625 0 0 1 1.26953-1.27148zm-7.76172 2e-3a1.2697625 1.2697625 0 0 1 1.26953 1.26953 1.2697625 1.2697625 0 0 1-1.26953 1.26953 1.2697625 1.2697625 0 0 1-1.26953-1.26953 1.2697625 1.2697625 0 0 1 1.26953-1.26953zm3.87305 0a1.2697625 1.2697625 0 0 1 1.26953 1.26953 1.2697625 1.2697625 0 0 1-1.26953 1.26953 1.2697625 1.2697625 0 0 1-1.26954-1.26953 1.2697625 1.2697625 0 0 1 1.26954-1.26953zm-3.87305 3.76172a1.2697625 1.2697625 0 0 1 1.26953 1.26953 1.2697625 1.2697625 0 0 1-1.26953 1.26953 1.2697625 1.2697625 0 0 1-1.26953-1.26953 1.2697625 1.2697625 0 0 1 1.26953-1.26953z" fill="#4d4d4d"/>
</svg>
