<?xml version="1.0" encoding="UTF-8"?>
<svg id="svg6" version="1.1" viewBox="0 0 22 22" xmlns="http://www.w3.org/2000/svg">
 <defs id="defs3051">
  <style id="current-color-scheme" type="text/css">.ColorScheme-Text {
        color:#4d4d4d;
      }</style>
 </defs>
 <path id="path2-6" d="m18.330902 6.7503768c-0.757026-1.297028-1.783982-2.3239873-3.081006-3.0810049-1.297293-0.7570283-2.71352-1.1354736-4.249625-1.1354736-1.53597 0-2.9526017 0.3784453-4.2496254 1.1354736-1.2971592 0.7568906-2.3241153 1.7838393-3.0811415 3.0810049-0.7571605 1.2971549-1.1356058 2.7137877-1.1356058 4.2496232 0 1.535973 0.3785808 2.952331 1.1354714 4.249623 0.7570251 1.296891 1.7839823 2.323987 3.0811404 3.081005 1.2971592 0.757028 2.7136554 1.135474 4.2496249 1.135474 1.53597 0 2.952602-0.378446 4.249626-1.135474 1.297024-0.756891 2.32398-1.783977 3.081006-3.081005 0.756889-1.297155 1.135335-2.713787 1.135335-4.249623 0-1.5359731-0.378446-2.9526059-1.1352-4.2496232zm-3.340248 6.2448192c0.139633 0.139489 0.209585 0.305107 0.209585 0.496155 0 0.198351-0.06995 0.367482-0.209585 0.506982l-0.992049 0.992185c-0.139633 0.139638-0.308628 0.209452-0.507119 0.209452-0.191048 0-0.356661-0.06985-0.496024-0.209452l-1.995327-1.995322-1.9953264 1.995322c-0.1396335 0.139638-0.3049744 0.209452-0.4960236 0.209452-0.1984909 0-0.3674859-0.06985-0.5071195-0.209452l-0.9921837-0.992185c-0.1396335-0.1395-0.2094503-0.308631-0.2094503-0.506982 0-0.191048 0.069814-0.356666 0.2094503-0.496155l1.9953268-1.995196-1.9953268-1.9953226c-0.1396335-0.1395002-0.2094503-0.3049807-0.2094503-0.4960289 0-0.1984877 0.069814-0.3674817 0.2094503-0.5071195l0.9921837-0.9920472c0.1396336-0.1396378 0.3086286-0.2094514 0.5071195-0.2094514 0.1910492 0 0.3563901 0.069845 0.4960236 0.2094514l1.9953264 1.9951956 1.995327-1.9951956c0.139363-0.1396378 0.304976-0.2094514 0.496024-0.2094514 0.198491 0 0.367486 0.069845 0.507119 0.2094514l0.992049 0.9920472c0.139633 0.1396378 0.209585 0.3086318 0.209585 0.5071195 0 0.1910482-0.06995 0.3565287-0.209585 0.4960289l-1.995192 1.9953226z" style="fill:#da4453;stroke-width:1.0582627"/>
</svg>
