<?xml version="1.0" encoding="UTF-8"?>
<svg viewBox="0 0 22 22" xmlns="http://www.w3.org/2000/svg">
 <defs id="defs3051">
  <style id="current-color-scheme" type="text/css">.ColorScheme-Text {
        color:#4d4d4d;
      }
      .ColorScheme-Highlight {
        color:#3daee9;
      }</style>
 </defs>
 <path class="ColorScheme-Text" d="m13 3a6 6 0 0 0-5.9550781 5.3339844h-4.0449219v10.666016h10.666016v-4.041016a6 6 0 0 0 5.333984-5.958984 6 6 0 0 0-6-6zm0 1.3339844a4.6666667 4.6666667 0 0 1 4.666016 4.6660156 4.6666667 4.6666667 0 0 1-4.666016 4.666016 4.6666667 4.6666667 0 0 1-4.6660156-4.666016 4.6666667 4.6666667 0 0 1 4.6660156-4.6660156zm-8.6660156 5.3320312h2.7070312a6 6 0 0 0 5.2929684 5.2890624v2.710938h-7.9999996v-8.0000004z" style="fill:currentColor"/>
 <path class="ColorScheme-Text" d="m13 4.3339844a4.6666667 4.6666667 0 0 0-4.6660156 4.6660156 4.6666667 4.6666667 0 0 0 0.0507812 0.6660156h-4.0507812v8.0000004h7.9999996v-4.054688a4.6666667 4.6666667 0 0 0 0.666016 0.054688 4.6666667 4.6666667 0 0 0 4.666016-4.666016 4.6666667 4.6666667 0 0 0-4.666016-4.6660156z" style="fill-opacity:.6;fill:currentColor;stroke:naone"/>
</svg>
