<?xml version="1.0" encoding="UTF-8"?>
<svg viewBox="0 0 22 22" xmlns="http://www.w3.org/2000/svg">
 <path d="m2 3v2h1v12h-1v2h2v-1h14v1h2v-2h-1v-12h1v-2h-2v1h-14v-1zm2 2h14v12h-14zm1 1v10h3v-1h-2v-8h11v-1zm10 2-0.996094 0.9941406-0.003906-0.0039062-5 4.9980466 0.0078125 0.007813-0.0039063 1.003906h-0.0039062v1h2l0.009766-0.009766c4e-3 -2e-5 0.005765 0.001949 0.009765 0.001954l-0.005859-0.00586 0.986328-0.986328 4-3.996094-0.705078-0.708984-4.990234 4.986328-0.5937505-0.591797 4.9921875-4.9882811 0.591797 0.5937501 0.705078 0.703125 1-1.0000001z" fill="#4d4d4d"/>
</svg>
