<?xml version="1.0" encoding="UTF-8"?>
<svg id="svg4" version="1.1" viewBox="0 0 22 22" xmlns="http://www.w3.org/2000/svg">
 <defs id="defs8">
  <style id="current-color-scheme" type="text/css">.ColorScheme-Text {
        color:#4d4d4d;
      }</style>
 </defs>
 <g id="g818" transform="matrix(1.0757014 0 0 1.0757014 -.83271551 -.8327154)">
  <path id="path902" d="m10.999118 6.4875c-3.407172 0.00509-6.5521626 1.8407045-8.2317869 4.805108l-0.1339649 0.236201 0.1463037 0.227387c0.2108102 0.331894 0.5055488 0.597492 0.8478565 0.779111l0.3966065 0.211525 0.2132861-0.396607c0.799267-1.496385 2.080508-2.5964531 3.5659326-3.2856644-0.5079179 0.6780588-0.8654835 1.4771714-0.8654834 2.3866894 0 2.237621 1.8236292 4.06125 4.0612498 4.06125 2.237622 0 4.06125-1.823629 4.06125-4.06125-6.21e-4 -0.89336-0.339061-1.6924607-0.835517-2.3672999 1.472766 0.6904822 2.740972 1.7869839 3.534204 3.2680379l0.211523 0.394844 0.39837-0.209761c0.34636-0.183178 0.643562-0.452595 0.854908-0.787926l0.142778-0.227387-0.132203-0.234439c-1.681704-2.9634108-4.827971-4.7971941-8.235313-4.799819zm-0.01234 2.66167a2.2903592 2.2903592 0 0 1 2.289742 2.289741 2.2903592 2.2903592 0 0 1-2.289742 2.289742 2.2903592 2.2903592 0 0 1-2.2897408-2.289742 2.2903592 2.2903592 0 0 1 2.2897408-2.289741z" style="color-rendering:auto;color:#4d4d4d;dominant-baseline:auto;fill:#4d4d4d;font-feature-settings:normal;font-variant-alternates:normal;font-variant-caps:normal;font-variant-ligatures:normal;font-variant-numeric:normal;font-variant-position:normal;image-rendering:auto;isolation:auto;mix-blend-mode:normal;shape-padding:0;shape-rendering:auto;solid-color:#000000;text-decoration-color:#000000;text-decoration-line:none;text-decoration-style:solid;text-indent:0;text-orientation:mixed;text-transform:none;white-space:normal"/>
  <path id="path909" d="m10.991025 10.049442a1.4375364 1.4375364 0 0 0-1.4371695 1.43717 1.4375364 1.4375364 0 0 0 0.029974 0.288696 0.78532078 0.78532078 0 0 1 0.6893995-0.408592 0.78532078 0.78532078 0 0 1 0.785631 0.785632 0.78532078 0.78532078 0 0 1-0.463807 0.71464 1.4375364 1.4375364 0 0 0 0.395971 0.05679 1.4375364 1.4375364 0 0 0 1.438746-1.437169 1.4375364 1.4375364 0 0 0-1.438746-1.437169z" style="fill:#4d4d4d"/>
 </g>
</svg>
