<?xml version="1.0" encoding="UTF-8"?>
<svg id="svg4359" version="1.1" viewBox="0 0 22 22" xmlns="http://www.w3.org/2000/svg">
 <g id="layer1" transform="translate(0,-26)">
  <path id="path829" transform="translate(0,26)" d="m11 3c-2.7614261 0-4.9999995 2.1497412-5 4.8007812v0.1992188h3v-0.5195312c0-1.0605341 1-1.9199219 2-1.9199219 1.035512 0 1.875 0.7589191 1.875 1.8194531 0 0.4623999 1.5e-5 0.7403906-1.25 2.0203906-0.624987 0.6400004-2.625 1.9835694-2.625 4.1601564v0.439453h3v-1c0.657555-2.465735 3.939926-3.0947628 4-5.62 0-2.6510401-2.238576-4.38-5-4.38zm-0.5 13c-0.8284258 3e-6 -1.4999969 0.671574-1.5 1.5 3.1e-6 0.828426 0.6715742 1.499997 1.5 1.5 0.828426-3e-6 1.499997-0.671574 1.5-1.5-3e-6 -0.828426-0.671574-1.499997-1.5-1.5z" style="fill:#4d4d4d;stroke-linejoin:round;stroke-width:.2"/>
 </g>
</svg>
