<?xml version="1.0" encoding="UTF-8"?>
<svg id="svg4" version="1.1" viewBox="0 0 22 22" xmlns="http://www.w3.org/2000/svg">
 <g id="g818" transform="translate(-1,-1)" style="fill:#da4453">
  <rect id="rect826" transform="rotate(45)" x="15.970563" y="-8" width="2" height="16" style="fill:#da4453;paint-order:normal"/>
  <path id="path818" d="m12 3a9 9 0 0 0-9 9 9 9 0 0 0 9 9 9 9 0 0 0 9-9 9 9 0 0 0-9-9zm0 2.0000002a7 7 0 0 1 7 6.9999998 7 7 0 0 1-7 7 7 7 0 0 1-7-7 7 7 0 0 1 7-6.9999998z" style="fill-rule:evenodd;fill:#da4453"/>
 </g>
</svg>
