<?xml version="1.0" encoding="UTF-8"?>
<svg id="svg4" version="1.1" viewBox="0 0 22 22" xmlns="http://www.w3.org/2000/svg">
 <defs id="defs8">
  <style id="current-color-scheme" type="text/css">.ColorScheme-Text {
        color:#4d4d4d;
      }</style>
  <style id="current-color-scheme-5" type="text/css">.ColorScheme-Text {
        color:#4d4d4d;
      }</style>
  <style id="current-color-scheme-6" type="text/css">.ColorScheme-Text { color:#4d4d4d; } .ColorScheme-Highlight { color:#5294e2; } .ColorScheme-ButtonBackground { color:#d3dae3; }</style>
 </defs>
 <path id="path831" d="m17 3v4h-2v-2h-10v12h6.0000002v2h-8.0000002v-16z" style="fill:#4d4d4d"/>
 <path id="path5" class="ColorScheme-Text" d="m13.991837 8.9999998-0.08899 1.0534252a3.172063 3.1424187 0 0 0-0.927063 0.531175l-0.966488-0.450828-1.009293 1.7319 0.8775 0.603711a3.172063 3.1424187 0 0 0-0.04844 0.530059 3.172063 3.1424187 0 0 0 0.04618 0.532293l-0.875246 0.601478 1.009293 1.731901 0.964236-0.449713a3.172063 3.1424187 0 0 0 0.929315 0.527828l0.086736 1.056771h2.018585l0.08899-1.053425a3.172063 3.1424187 0 0 0 0.927062-0.531174l0.966488 0.450828 1.009293-1.7319-0.8775-0.603711a3.172063 3.1424187 0 0 0 0.04844-0.53006 3.172063 3.1424187 0 0 0-0.04618-0.532292l0.875245-0.601478-1.009293-1.731902-0.964235 0.449714a3.172063 3.1424187 0 0 0-0.929312-0.527827l-0.08673-1.0567732zm1.009293 2.8567452a1.1534774 1.1426977 0 0 1 1.153477 1.142697 1.1534774 1.1426977 0 0 1-1.153477 1.142698 1.1534774 1.1426977 0 0 1-1.153478-1.142698 1.1534774 1.1426977 0 0 1 1.153478-1.142697z" style="color:#4d4d4d;fill:#4d4d4d;stroke-width:.57403743"/>
</svg>
