<?xml version="1.0" encoding="UTF-8"?>
<svg id="svg5" version="1.1" viewBox="0 0 22 22" xmlns="http://www.w3.org/2000/svg">
 <defs id="defs3051">
  <style id="current-color-scheme" type="text/css">.ColorScheme-Text {
        color:#4d4d4d;
      }</style>
 </defs>
 <circle id="path818" cx="11" cy="11" r="7.5" style="fill:#ffffff"/>
 <path id="path2" d="m10.01268 8.9998399c0-0.85486 0.23057-1.65464 0.62995-2.34506 0.0968-0.16701-0.0492-0.37339-0.23623-0.32553-2.1564498 0.55378-3.7161399 2.59185-3.5159299 4.9639501 0.1894 2.23904 1.99895 4.06661 4.2364599 4.27609 1.55249 0.14539 2.9637-0.46604 3.91686-1.50488 0.12867-0.1405 0.0188-0.3685-0.17138-0.36053-0.0505 2e-3 -0.10161 3e-3 -0.15287 3e-3 -2.59956 0-4.70686-2.1073-4.70686-4.7073701zm8.98732 2.0001501a7.9999961 7.9999961 0 0 1-8.00001 8.00001 7.9999961 7.9999961 0 0 1-7.9999901-8.00001 7.9999961 7.9999961 0 0 1 7.9999901-7.9999899 7.9999961 7.9999961 0 0 1 8.00001 7.9999899z" style="fill:#f39800"/>
</svg>
