<?xml version="1.0" encoding="UTF-8"?>
<svg id="svg4" version="1.1" viewBox="0 0 22 22" xmlns="http://www.w3.org/2000/svg">
 <path id="path2" d="m4.5756968 3.7728814c-0.4448653 0-0.8028154 0.3230341-0.8028154 0.7234165v13.007404c0 0.400383 0.3579501 0.723417 0.8028154 0.723417h12.848606c0.444865 0 0.802816-0.323034 0.802816-0.723417v-13.007404c0-0.4003824-0.35795-0.7234165-0.802816-0.7234165zm1.4203727 1.8067796h4.1693525c0.230319 0 0.418169 0.1860893 0.418169 0.4164085v4.1693515c0 0.23032-0.18785 0.41817-0.418169 0.41817h-4.1693525c-0.2303192 0-0.4164085-0.18785-0.4164085-0.41817v-4.1693515c0-0.2303192 0.1860893-0.4164085 0.4164085-0.4164085zm5.8385095 0h4.169351c0.23032 0 0.416409 0.1860893 0.416409 0.4164085v4.1693515c0 0.23032-0.186089 0.41817-0.416409 0.41817h-4.169351c-0.23032 0-0.41817-0.18785-0.41817-0.41817v-4.1693515c0-0.2303192 0.18785-0.4164085 0.41817-0.4164085zm0.416409 0.8345786v3.3347733h3.334773v-3.3347733zm-6.2549185 5.0021694h4.1693525c0.230319 0 0.418169 0.187399 0.418169 0.418169v4.169352c0 0.230319-0.18785 0.416409-0.418169 0.416409h-4.1693525c-0.2303192 0-0.4164085-0.18609-0.4164085-0.416409v-4.169352c0-0.230319 0.1860893-0.418169 0.4164085-0.418169zm5.8385095 0h4.169351c0.23032 0 0.416851 0.18608 0.416409 0.416408v4.169352c0 0.230319-0.187851 0.41817-0.418171 0.41817h-4.167589c-0.23032 0-0.41817-0.187851-0.41817-0.41817v-4.16759c0-0.23032 0.18785-0.41817 0.41817-0.41817zm-4.2858082 0.834578c0.071729 0.122952 0.1164469 0.2636 0.1164469 0.4164 0 0.460647-0.3739311 0.834579-0.8345695 0.834579-0.1528084 0-0.2934572-0.04472-0.4164086-0.116447v1.06571c0.1229514-0.07173 0.2636002-0.116446 0.4164086-0.116446 0.4606384 0 0.8345695 0.37393 0.8345695 0.834568 0 0.152809-0.044718 0.293458-0.1164469 0.41641h1.0657109c-0.071729-0.122952-0.1164469-0.263601-0.1164469-0.41641 0-0.460638 0.3739311-0.834568 0.8345786-0.834568 0.1527993 0 0.2934481 0.04471 0.4163995 0.116446v-1.06571c-0.1229514 0.07173-0.2636002 0.116447-0.4163995 0.116447-0.4606475 0-0.8345786-0.373931-0.8345786-0.834579 0-0.1528 0.044718-0.293449 0.1164469-0.4164zm4.7022172 0v0.66166l0.66166-0.66166zm1.840295 0-1.840295 1.840305v0.905152l2.745456-2.745456zm1.494478 0.589317-2.745456 2.745457h0.905151l1.840305-1.840305zm-7.5041347 0.243491a0.83396682 0.83396682 0 0 1 0.8345786 0.834579 0.83396682 0.83396682 0 0 1-0.8345786 0.834578 0.83396682 0.83396682 0 0 1-0.8345787-0.834578 0.83396682 0.83396682 0 0 1 0.8345787-0.834579zm7.5041347 1.840305-0.661661 0.661661h0.661661z" style="fill:#4d4d4d;stroke-width:.90338981"/>
</svg>
