<?xml version="1.0" encoding="UTF-8"?>
<svg id="svg7" version="1.1" viewBox="0 0 22 22" xmlns="http://www.w3.org/2000/svg">
 <defs id="defs3">
  <style id="current-color-scheme" type="text/css">.ColorScheme-Text { color:#4d4d4d; } .ColorScheme-Highlight { color:#5294e2; } .ColorScheme-ButtonBackground { color:#d3dae3; }</style>
 </defs>
 <path id="rect840" d="m2 3.8v14.4h18v-14.4zm2.7 2.4h1.8c0.1662 0 0.3 0.1338 0.3 0.3v1.8000002c0 0.1662-0.1338 0.3-0.3 0.3h-1.8c-0.1662 0-0.3-0.1338-0.3-0.3v-1.8000002c0-0.1662 0.1338-0.3 0.3-0.3zm3.6 0h1.8c0.1662 0 0.3 0.1338 0.3 0.3v1.8000002c0 0.1662-0.1338 0.3-0.3 0.3h-1.8c-0.1662 0-0.3-0.1338-0.3-0.3v-1.8000002c0-0.1662 0.1338-0.3 0.3-0.3zm3.6 0h1.8c0.1662 0 0.3 0.1338 0.3 0.3v1.8000002c0 0.1662-0.1338 0.3-0.3 0.3h-1.8c-0.1662 0-0.3-0.1338-0.3-0.3v-1.8000002c0-0.1662 0.1338-0.3 0.3-0.3zm3.6 0h1.8c0.1662 0 0.3 0.1338 0.3 0.3v1.8000002c0 0.1662-0.1338 0.3-0.3 0.3h-1.8c-0.1662 0-0.3-0.1338-0.3-0.3v-1.8000002c0-0.1662 0.1338-0.3 0.3-0.3zm-10.8 3.6h1.8c0.1662 0 0.3 0.1338 0.3 0.3v1.8c0 0.1662-0.1338 0.3-0.3 0.3h-1.8c-0.1662 0-0.3-0.1338-0.3-0.3v-1.8c0-0.1662 0.1338-0.3 0.3-0.3zm3.6 0h1.8c0.1662 0 0.3 0.1338 0.3 0.3v1.8c0 0.1662-0.1338 0.3-0.3 0.3h-1.8c-0.1662 0-0.3-0.1338-0.3-0.3v-1.8c0-0.1662 0.1338-0.3 0.3-0.3zm3.6 0h1.8c0.1662 0 0.3 0.1338 0.3 0.3v1.8c0 0.1662-0.1338 0.3-0.3 0.3h-1.8c-0.1662 0-0.3-0.1338-0.3-0.3v-1.8c0-0.1662 0.1338-0.3 0.3-0.3zm3.6 0h1.8c0.1662 0 0.3 0.1338 0.3 0.3v1.8c0 0.1662-0.1338 0.3-0.3 0.3h-1.8c-0.1662 0-0.3-0.1338-0.3-0.3v-1.8c0-0.1662 0.1338-0.3 0.3-0.3zm-8.4 3.6h7.8c0.1662 0 0.3 0.1338 0.3 0.3v1.8c0 0.1662-0.1338 0.3-0.3 0.3h-7.8c-0.1662 0-0.3-0.1338-0.3-0.3v-1.8c0-0.1662 0.1338-0.3 0.3-0.3z" style="fill:#4d4d4d"/>
</svg>
