<?xml version="1.0" encoding="UTF-8"?>
<svg viewBox="0 0 22 22" xmlns="http://www.w3.org/2000/svg">
 <g transform="matrix(.96703289 0 0 .96703289 -534.40196 -564.23617)" fill="#4d4d4d">
  <rect x="555.72253" y="599.11932" width="7" height="1" ry=".5"/>
  <rect x="555.72253" y="593.11926" width="8" height="1" ry=".5"/>
  <rect x="555.72253" y="587.11926" width="10" height="1" ry=".5"/>
  <rect x="555.72253" y="589.11932" width="6" height="1" ry=".5"/>
  <rect x="555.72253" y="595.11932" width="4" height="1" ry=".5"/>
  <rect x="555.72253" y="601.11932" width="2" height="1" ry=".5"/>
  <rect x="562.72253" y="602.11926" width="2" height="1.000003" ry=".5"/>
  <path d="m567.90436 594.39199a1.0909091 1.0909091 0 0 1 1.0909-1.0909 1.0909091 1.0909091 0 0 1 1.0909 1.0909 1.0909091 1.0909091 0 0 1-1.0909 1.0909 1.0909091 1.0909091 0 0 1-1.0909-1.0909m2.1818 3.08181c1.27091-0.44727 2.18183-1.65818 2.18183-3.08181a3.2727273 3.2727273 0 0 0-3.27273-3.27273 3.2727273 3.2727273 0 0 0-3.27273 3.27273c0 1.42363 0.91091 2.63454 2.18183 3.08181v2.37273h-2.18183v2.18182h2.18183v1.09091h2.1818z"/>
 </g>
</svg>
