<?xml version="1.0" encoding="UTF-8"?>
<svg id="svg4359" version="1.1" viewBox="0 0 22 22" xmlns="http://www.w3.org/2000/svg">
 <g id="layer1" transform="translate(0,-26)">
  <path id="rect4157" transform="translate(0,26)" d="m11 3a8 8.0000114 0 0 0-8 8 8 8.0000114 0 0 0 8 8 8 8.0000114 0 0 0 8-8 8 8.0000114 0 0 0-8-8zm0 2a6.0000029 6.0000114 0 0 1 6 6 6.0000029 6.0000114 0 0 1-6 6 6.0000029 6.0000114 0 0 1-6-6 6.0000029 6.0000114 0 0 1 6-6zm0 2c-0.554 0-1 0.446-1 1s0.446 1 1 1 1-0.446 1-1-0.446-1-1-1zm-1 3v5h2v-5h-2z" style="fill:#4d4d4d"/>
 </g>
</svg>
