<?xml version="1.0" encoding="UTF-8"?>
<svg version="1.1" viewBox="0 0 22 22" xmlns="http://www.w3.org/2000/svg">
 <path d="m16.820102 4.7702617c-0.285862 0-0.530089 0.097806-0.730053 0.2937217l-7.030758 6.8906206-3.1493404-3.0940311c-0.2000888-0.1958214-0.4443257-0.2937218-0.7300526-0.2937218-0.2858619 0-0.5279288 0.097911-0.7280176 0.2937218l-1.4580702 1.4269521c-0.2000889 0.195812-0.3001281 0.432719-0.3001281 0.712475 0 0.279632 0.099987 0.516788 0.3001281 0.712475l3.879393 3.798573 1.4580702 1.424969c0.1999539 0.195821 0.4421557 0.293721 0.7280176 0.293721 0.285727 0 0.5299535-0.09801 0.7300423-0.293721l1.4580707-1.424969 7.758785-7.595163c0.199955-0.195811 0.300129-0.4327176 0.300129-0.7124744 1.35e-4 -0.2796322-0.100196-0.5186465-0.300129-0.7144576l-1.45807-1.4249696c-0.199953-0.1958214-0.44229-0.2937217-0.728017-0.2937217z" style="fill:#ffaf2d;stroke-width:1.0382897"/>
</svg>
