<?xml version="1.0" encoding="UTF-8"?>
<svg id="svg4" version="1.1" viewBox="0 0 22 22" xmlns="http://www.w3.org/2000/svg">
 <path id="path902" d="m15.394531 1.84175-0.228515 0.3964843-2.197266 3.8046876c-0.643936-0.1277965-1.298076-0.2162803-1.96875-0.2167969-3.6650997 0.0054754-7.0486945 1.9811083-8.8554688 5.169922l-0.1445312 0.253906 0.1582031 0.244141c0.2267688 0.357019 0.5438885 0.642522 0.9121094 0.83789l0.4257813 0.226563 0.2285156-0.425782c0.8597727-1.609663 2.2380642-2.7937701 3.8359375-3.5351557-0.546368 0.7293889-0.9296876 1.5899897-0.9296875 2.5683597 0 1.30293 0.5850549 2.462223 1.4941406 3.263672l-2.2617188 3.916015 0.00195 2e-3 -0.4707032 0.810547 0.00195 2e-3 1.7304687 0.998047 0.46875-0.8125 2.2929688-3.972656c0.3569315 0.0946 0.7252335 0.162015 1.1113345 0.162015 2.407013 0 4.367188-1.962128 4.367188-4.36914-6.68e-4 -0.960988-0.3644-1.8209498-0.898438-2.5468753 1.584256 0.7427527 2.949453 1.9224543 3.802734 3.5156253l0.226563 0.423828 0.429687-0.22461c0.37258-0.197044 0.690624-0.48694 0.917969-0.847656l0.154297-0.24414-0.142578-0.251954c-1.129592-1.9905058-2.873074-3.5079923-4.916016-4.367187l1.955078-3.3867188 0.230469-0.3964843zm-4.408203 6.8476562a2.4637426 2.4637426 0 0 1 0.429688 0.039063l-0.539063 0.9355464a1.5463599 1.5463599 0 0 0-0.660156 0.2011719 1.5463599 1.5463599 0 0 0-0.6171876 2.0117185l-0.4960938 0.859375a2.4637426 2.4637426 0 0 1-0.5800781-1.583984 2.4637426 2.4637426 0 0 1 2.4628905-2.4628908zm2.089844 1.1640625a2.4637426 2.4637426 0 0 1 0.373047 1.2988283 2.4637426 2.4637426 0 0 1-2.462891 2.46289 2.4637426 2.4637426 0 0 1-0.08008-0.0039l0.539062-0.933594a1.5463599 1.5463599 0 0 0 0.31836-0.134765 1.5463599 1.5463599 0 0 0 0.732422-1.685547z" style="color-rendering:auto;color:#4d4d4d;dominant-baseline:auto;fill:#4d4d4d;font-feature-settings:normal;font-variant-alternates:normal;font-variant-caps:normal;font-variant-ligatures:normal;font-variant-numeric:normal;font-variant-position:normal;image-rendering:auto;isolation:auto;mix-blend-mode:normal;shape-padding:0;shape-rendering:auto;solid-color:#000000;text-decoration-color:#000000;text-decoration-line:none;text-decoration-style:solid;text-indent:0;text-orientation:mixed;text-transform:none;white-space:normal"/>
</svg>
