<?xml version="1.0" encoding="UTF-8"?>
<svg viewBox="0 0 22 22" xmlns="http://www.w3.org/2000/svg">
 <defs id="defs3051">
  <style id="current-color-scheme" type="text/css">.ColorScheme-Text {
        color:#4d4d4d;
      }</style>
 </defs>
 <path class="ColorScheme-Text" d="m2 3v16h1 6v-1h-1c0-0.552285-0.4477153-1-1-1s-1 0.447715-1 1h-1v-7-7h1c0 0.5522847 0.4477153 1 1 1s1-0.4477153 1-1h4 4c0 0.5522847 0.447715 1 1 1s1-0.4477153 1-1h1v7 1h1v-9h-17-1zm17 8c0-3.8659932-3.134007-7-7-7-3.8659932 0-7 3.1340068-7 7 0.00315 2.700827 1.5597788 5.15891 4 6.316406v-1.126953c-1.8543352-1.070599-2.9976084-3.048253-3-5.189453 0-3.3137085 2.6862915-6 6-6 3.313708 0 6 2.6862915 6 6-2e-3 0.335258-0.032014 0.669762-0.089844 1h1.011719c0.049917-0.331036 0.07603-0.665227 0.078125-1zm-16-7h1v14h-1v-14zm9 8-2 1.5 2 1.5v-1h5c0.554 0 1 0.446 1 1h1c0-1.108008-0.891992-2-2-2h-5v-1zm-2 4c0 1.10801 0.89199 2 2 2h5v1l2-1.5-2-1.5v1h-5c-0.554 0-1-0.446-1-1h-1z" style="fill:currentColor"/>
</svg>
