<?xml version="1.0" encoding="UTF-8"?>
<svg viewBox="0 0 22 22" xmlns="http://www.w3.org/2000/svg">
 <defs id="defs3051">
  <style id="current-color-scheme" type="text/css">.ColorScheme-Text {
        color:#4d4d4d;
      }
      .ColorScheme-Highlight {
        color:#3daee9;
      }</style>
 </defs>
 <path class="ColorScheme-Text" d="m11 3c-0.228034 0-0.425132 0.0834965-0.591797 0.25l-4.3808592 4.3808594h-3.4492188c-0.2281954 0-0.4251319 0.0834965-0.5917969 0.25-0.166665 0.166665-0.25 0.3657161-0.25 0.59375v5.0507816c0 0.228033 0.083335 0.427246 0.25 0.59375 0.1668265 0.166665 0.363763 0.25 0.5917969 0.25h3.4472656l4.3828124 4.380859c0.166665 0.166503 0.363763 0.25 0.591797 0.25 0.228195 0 0.425132-0.083497 0.591797-0.25s0.25-0.363763 0.25-0.591797v-14.316406c0-0.2280339-0.083497-0.4251319-0.25-0.5917969-0.166827-0.1665035-0.363602-0.25-0.591797-0.25zm3.525391 4.8417969c-0.228034 0-0.425294 0.0800444-0.591797 0.2421875-0.166504 0.1623045-0.25 0.3628546-0.25 0.5996094 0 0.1842681 0.052745 0.3395371 0.158203 0.4667968 0.105296 0.1272597 0.233589 0.2380248 0.382812 0.3300782 0.148901 0.0920533 0.298043 0.1930778 0.447266 0.3027343s0.275563 0.2650869 0.380859 0.4667969c0.104973 0.201871 0.158204 0.451715 0.158204 0.75s-0.053069 0.548129-0.158204 0.75c-0.105296 0.201871-0.231636 0.356979-0.380859 0.466797-0.149223 0.109656-0.298365 0.210681-0.447266 0.302734-0.149223 0.091892-0.277516 0.201027-0.382812 0.328125-0.105296 0.127421-0.158203 0.284482-0.158203 0.46875 0 0.236916 0.083496 0.435352 0.25 0.597656 0.166503 0.162305 0.363763 0.244141 0.591797 0.244141 0.131458 0 0.242385-0.022802 0.330078-0.066406 0.614173-0.24596 1.107572-0.655862 1.480469-1.230469 0.372896-0.574445 0.558593-1.194668 0.558593-1.861328s-0.185697-1.2901736-0.558593-1.8691406c-0.373059-0.578967-0.866296-0.9857401-1.480469-1.2226563-0.087693-0.0437657-0.19862-0.0664062-0.330078-0.0664062z" style="fill:currentColor"/>
 <path class="ColorScheme-Text" d="m15.841797 4.7363281c-0.228034 0-0.424971 0.083335-0.591797 0.25-0.166503 0.166665-0.25 0.363763-0.25 0.5917969 0 0.3422123 0.17146 0.6017964 0.513672 0.7773438 0.491112 0.2543578 0.824614 0.4466663 1 0.578125 0.649218 0.4738324 1.155517 1.0682555 1.519531 1.7832031 0.364015 0.7149475 0.544922 1.4762021 0.544922 2.2832031s-0.180907 1.568256-0.544922 2.283203c-0.364014 0.715109-0.870474 1.309532-1.519531 1.783203-0.175386 0.13162-0.508888 0.323767-1 0.578125-0.342212 0.175548-0.513672 0.433179-0.513672 0.775391 0 0.228034 0.083497 0.427246 0.25 0.59375 0.166826 0.166826 0.368553 0.25 0.605469 0.25 0.105296 0 0.214269-0.022802 0.328125-0.066406 1.227862-0.51776 2.215305-1.344499 2.960937-2.480469 0.745632-1.135809 1.119141-2.374595 1.119141-3.716797 0-1.3422022-0.373509-2.580342-1.119141-3.7167969-0.745632-1.1358089-1.733075-1.9628706-2.960937-2.4804687-0.113856-0.0437657-0.227942-0.0664063-0.341797-0.0664063z" style="fill-opacity:.6;fill:currentColor;stroke:naone"/>
</svg>
