<?xml version="1.0" encoding="UTF-8"?>
<svg id="svg4359" version="1.1" viewBox="0 0 22 22" xmlns="http://www.w3.org/2000/svg">
 <defs id="defs4361">
  <style id="current-color-scheme" type="text/css">.ColorScheme-Text {
        color:#4d4d4d;
      }</style>
 </defs>
 <g id="g831" transform="translate(-4.9999999e-8 .13180289)">
  <path id="path825" d="m7.375005 1.4199883a4.454216 4.454216 0 0 0-4.4550732 4.4550731 4.454216 4.454216 0 0 0 4.4550732 4.4529966 4.454216 4.454216 0 0 0 4.455073-4.4529966 4.454216 4.454216 0 0 0-4.455073-4.4550731zm0 2.138269a2.3184181 2.3184181 0 0 1 2.3188801 2.3168041 2.3184181 2.3184181 0 0 1-2.3188801 2.3168042 2.3184181 2.3184181 0 0 1-2.3168041-2.3168042 2.3184181 2.3184181 0 0 1 2.3168041-2.3168041z" style="fill:#4d4d4d"/>
  <path id="path823" d="m1.8300781 12.380859v7.935547h7.9335938v-7.935547zm2 2h3.9355469v3.935547h-3.9355469z" style="fill:#4d4d4d"/>
  <path id="path826" d="m12.236328 8.5078125v7.9355465h7.933594v-7.9355465zm2 1.9999995h3.935547v3.935547h-3.935547z" style="fill:#4d4d4d"/>
 </g>
</svg>
