<?xml version="1.0" encoding="UTF-8"?>
<svg viewBox="0 0 22 22" xmlns="http://www.w3.org/2000/svg">
 <path d="m4 3v14h-1v1h1v1h1v-1h14v-1h-14v-1h3v-0.007812l0.0078125 0.007812 1.9999995-2h1.591797l2 2h5.400391v-1h-4.986328l-2-2h-2.419922l-2 2h-2.59375v-5h3.875l2.828125-2.828125 1.294922-1.2949219 2.123047 2.1230469 0.005859-0.0039062 0.003906 0.0039062 2.828125-2.828125 1.041016-1.0410156-0.707031-0.7070313-1.041016 1.0410157-2.125 2.125-2.126953-2.125-0.001953 0.0019531-0.001953-0.0019531-1.527344 1.5273437h-6.46875v-2.9921875zm1 3h6.460938l-0.464844 0.4648438-0.828125 0.828125-1.7070315 1.7070312h-3.4609375z" fill="#4d4d4d"/>
</svg>
