<?xml version="1.0" encoding="UTF-8"?>
<svg viewBox="0 0 22 22" xmlns="http://www.w3.org/2000/svg">
 <defs id="defs3051">
  <style id="current-color-scheme" type="text/css">.ColorScheme-Text {
        color:#4d4d4d;
      }
      .ColorScheme-Highlight {
        color:#3daee9;
      }</style>
 </defs>
 <path class="ColorScheme-Text" d="m12.357702 3a6.0156658 6.0156658 0 0 0-1.738903 0.4647519l0.673629 1.1671019a4.6788512 4.6788512 0 0 1 1.065274-0.2845953v-1.3472585zm1.336815 0.00261v1.3472585a4.6788512 4.6788512 0 0 1 1.065274 0.2819843l0.671018-1.1618789a6.0156658 6.0156658 0 0 0-1.736292-0.467363zm-4.232376 1.1331603a6.0156658 6.0156658 0 0 0-1.2741514 1.2741514l1.1671017 0.6710182a4.6788512 4.6788512 0 0 1 0.7754567-0.7832898l-0.668407-1.1618798zm7.127938 0-0.67102 1.1671017a4.6788512 4.6788512 0 0 1 0.783291 0.775457l1.16188-0.6684073a6.0156658 6.0156658 0 0 0-1.274151-1.2741514zm1.945169 2.4308094-1.167102 0.6736292a4.6788512 4.6788512 0 0 1 0.284596 1.0652741h1.347258a6.0156658 6.0156658 0 0 0-0.464752-1.7389033zm-11.013055 0.0026068a6.0156658 6.0156658 0 0 0-0.4673629 1.7362965h-0.044386v1.3368147h0.041775a6.0156658 6.0156658 0 0 0 5.3054827 5.3028723v0.04438h0.668408 0.668407v-0.04177a6.0156658 6.0156658 0 0 0 1.738903-0.464752l-0.673629-1.167098a4.6788512 4.6788512 0 0 1-1.065274 0.281984v-5.292428h-5.2924285a4.6788512 4.6788512 0 0 1 0.2819846-1.0652771l-1.1618799-0.6710183zm-4.5221932 1.7362965v2.673629h1.3368146v-1.3368143h1.3368146v-1.3368147h-1.3368146-1.3368146zm5.3994778 1.3368147h3.9582242v3.9556133a4.6788512 4.6788512 0 0 1-3.9582242-3.9556133zm9.2506522 0a4.6788512 4.6788512 0 0 1-0.281984 1.0652743l1.161881 0.671018a6.0156658 6.0156658 0 0 0 0.467362-1.7362923h-1.347259zm-0.953002 2.2245433a4.6788512 4.6788512 0 0 1-0.775456 0.78329l0.668407 1.16188a6.0156658 6.0156658 0 0 0 1.274151-1.274151l-1.167102-0.671019zm-13.697128 0.449086v1.336815h1.3368146v-1.336815h-1.3368146zm0 2.673629v1.336815h1.3368146v-1.336815h-1.3368146zm9.357702 1.336815v1.336814h-1.336814v1.336815h2.673629v-1.336815-1.336814h-1.336815zm-9.357702 1.336814v1.336815h1.3368146v-1.336815h-1.3368146zm2.6736292 0v1.336815h1.3368147v-1.336815h-1.3368147zm2.6736293 0v1.336815h1.3368146v-1.336815h-1.3368146z" style="fill:currentColor"/>
 <path class="ColorScheme-Text" d="m12.357702 9.6422977-3.9556133 0.028715a4.6788512 4.6788512 0 0 0 3.9556133 3.9268983v-3.955613z" style="fill-opacity:.6;fill:currentColor;stroke:naone"/>
</svg>
