<?xml version="1.0" encoding="UTF-8"?>
<svg viewBox="0 0 22 22" xmlns="http://www.w3.org/2000/svg">
 <defs id="defs3051">
  <style id="current-color-scheme" type="text/css">.ColorScheme-Text {
        color:#4d4d4d;
      }
      .ColorScheme-Highlight {
        color:#3daee9;
      }</style>
 </defs>
 <path class="ColorScheme-Text" d="m12.357422 3a6.0156658 6.0156658 0 0 0-1.738281 0.4648438l0.673828 1.1679687a4.6788512 4.6788512 0 0 1 1.064453-0.2851563v-1.3476562zm1.33789 0.0019531v1.3476563a4.6788512 4.6788512 0 0 1 1.064454 0.2832031l0.671875-1.1621094a6.0156658 6.0156658 0 0 0-1.736329-0.46875zm-4.2324214 1.1347657a6.0156658 6.0156658 0 0 0-1.2753906 1.2734374l1.1679688 0.6699219a4.6788512 4.6788512 0 0 1 0.7753902-0.7832031l-0.6679684-1.1601562zm7.1269534 0-0.669922 1.1660156a4.6788512 4.6788512 0 0 1 0.783203 0.7753906l1.160156-0.6679688a6.0156658 6.0156658 0 0 0-1.273437-1.2734374zm1.945312 2.4296874-1.167968 0.6738282a4.6788512 4.6788512 0 0 1 0.285156 1.0644531h1.347656a6.0156658 6.0156658 0 0 0-0.464844-1.7382813zm-11.013672 0.0019532a6.0156658 6.0156658 0 0 0-0.4667969 1.7363281h-4.0546875v10.695312h10.695312v-4.052734a6.0156658 6.0156658 0 0 0 1.738282-0.464844l-0.673828-1.166016a4.6788512 4.6788512 0 0 1-1.064454 0.28125v-5.2929685h-5.2929682a4.6788512 4.6788512 0 0 1 0.28125-1.0644531l-1.1621094-0.671875zm-3.1855469 3.0742187h2.7167969a6.0156658 6.0156658 0 0 0 5.3046876 5.3027339v2.71875h-8.0214845v-8.0214839zm4.0644531 0h3.9570314v3.9550779a4.6788512 4.6788512 0 0 1-3.9570314-3.9550779zm9.2500004 0a4.6788512 4.6788512 0 0 1-0.283203 1.0644529l1.162109 0.671875a6.0156658 6.0156658 0 0 0 0.46875-1.7363279h-1.347656zm-0.953125 2.2246099a4.6788512 4.6788512 0 0 1-0.775391 0.783203l0.667969 1.162109a6.0156658 6.0156658 0 0 0 1.273437-1.275391l-1.166015-0.669921z" style="fill:currentColor"/>
 <path class="ColorScheme-Text" d="m4.3359375 9.6425781v8.0214839h8.0214845v-8.0214839h-8.0214845z" style="fill-opacity:.6;fill:currentColor;stroke:naone"/>
</svg>
