<?xml version="1.0" encoding="UTF-8"?>
<svg id="svg4" version="1.1" viewBox="0 0 22 22" xmlns="http://www.w3.org/2000/svg">
 <path id="path823" d="m3.7617188 3c-0.4209893 0-0.7617188 0.36408-0.7617188 0.8125v14.375c0 0.44882 0.3410203 0.8125 0.7617188 0.8125h14.476562c0.421008 0 0.761719-0.36408 0.761719-0.8125v-14.375c0-0.4488199-0.341011-0.8125-0.761719-0.8125h-14.476562zm1.0117187 1.1191406h12.453124c0.361881 0 0.654297 0.3131576 0.654297 0.6992188v12.363282c0 0.385717-0.292158 0.699218-0.654297 0.699218h-12.453124c-0.3618719 0-0.6542969-0.313157-0.6542969-0.699218v-12.363282c0-0.3857172 0.2921748-0.6992188 0.6542969-0.6992188z" style="fill:#4d4d4d"/>
 <path id="path821" d="m13.098502 5.6694864c1.342973 0 2.432211 1.0892201 2.432211 2.43221 0 1.3429638-1.089238 2.4321966-2.432211 2.4321966-1.343389 0-2.432196-1.0892328-2.432196-2.4321966 0-1.3429899 1.088807-2.43221 2.432196-2.43221z" style="fill:#4d4d4d;stroke-width:.99999994"/>
 <path id="path2" d="m6.0926101 16.283558c-0.4827159 0-0.6977087-0.285275-0.4800893-0.636994l2.9997016-4.850102c0.2173099-0.35172 0.6315729-0.383117 0.9249154-0.07017l3.0283132 4.873465s0.495614 0.683833-0.480455 0.683833z" style="fill:#4d4d4d"/>
</svg>
