<?xml version="1.0" encoding="UTF-8"?>
<svg id="svg4359" version="1.1" viewBox="0 0 22 22" xmlns="http://www.w3.org/2000/svg">
 <g id="layer1" transform="translate(0,-26)">
  <path id="rect4147" d="m8.6810313 29.580207c-2.8260139 0-5.101108 2.275094-5.101108 5.101108 0 2.826013 2.2750941 5.101108 5.101108 5.101108 1.0743107 0 2.0689417-0.33021 2.8892987-0.893057l5.530428 5.530427 1.311507-1.311506-5.528616-5.530427c0.565995-0.821793 0.89849-1.818957 0.89849-2.896545 0-2.826014-2.275094-5.101108-5.1011077-5.101108zm0 1.854948c1.7983727 0 3.2461597 1.447787 3.2461597 3.24616 0 1.798372-1.447787 3.246159-3.2461597 3.246159-1.7983725 0-3.2461597-1.447787-3.2461597-3.246159 0-1.798373 1.4477872-3.24616 3.2461597-3.24616z" style="color-rendering:auto;color:#000000;fill:#4d4d4d;image-rendering:auto;isolation:auto;mix-blend-mode:normal;shape-rendering:auto;solid-color:#000000"/>
 </g>
</svg>
