<?xml version="1.0" encoding="UTF-8"?>
<svg id="svg5" version="1.1" viewBox="0 0 22 22" xmlns="http://www.w3.org/2000/svg">
 <defs id="defs3051">
  <style id="current-color-scheme" type="text/css">.ColorScheme-Text {
        color:#4d4d4d;
      }</style>
 </defs>
 <circle id="path816" cx="11" cy="11" r="7.7774076" style="fill:#ffffff"/>
 <path id="path2" d="m11 3a7.9999991 7.9999998 0 0 0-8.0000003 8 7.9999991 7.9999998 0 0 0 8.0000003 8 7.9999991 7.9999998 0 0 0 8-8 7.9999991 7.9999998 0 0 0-8-8zm-0.0176 3.67969c1.08254 0 2.01562 0.73596 2.01562 2.13672 0 0.91098-0.428 1.83512-0.98632 2.41015h4e-3c-0.21419 0.6511 0.12741 0.80649 0.18164 0.82422 1.29765 0.44582 2.9409 1.55764 2.90429 3.26953h-8.2031198c-0.0328-1.79202 2.04341-3.02272 2.80664-3.26953 0.0819-0.0297 0.4728698-0.244 0.25391-0.81836-0.56174-0.57367-0.98633-1.50128-0.98633-2.41601 0-1.4011 0.92654-2.13672 2.0097598-2.13672z" style="fill:#11b5ff"/>
</svg>
