<?xml version="1.0" encoding="UTF-8"?>
<svg viewBox="0 0 22 22" xmlns="http://www.w3.org/2000/svg">
 <defs id="defs3051">
  <style id="current-color-scheme" type="text/css">.ColorScheme-Text {
        color:#4d4d4d;
      }</style>
 </defs>
 <path class="ColorScheme-Text" d="m11 3c-4.432 0-8 3.568-8 8s3.568 8 8 8c0.339398 0 0.672624-0.023555 1-0.066406v-1.007813c-0.32646 0.047608-0.659893 0.074219-1 0.074219-3.878 0-7-3.122-7-7s3.122-7 7-7 7 3.122 7 7c0 0.696167-0.105435 1.366247-0.292969 2h1.033203c0.163714-0.639651 0.259766-1.307916 0.259766-2 0-4.432-3.568-8-8-8zm0 2c-3.323996 0-6 2.676-6 6h3c0-1.662 1.3380018-3 3-3v-3zm0 4c-1.1079987 0-2 0.892-2 2s0.8920013 2 2 2c1.107999 0 2-0.892 2-2s-0.892001-2-2-2zm0 1c0.553999 0 1 0.446 1 1s-0.446001 1-1 1-1-0.446-1-1 0.446001-1 1-1zm3 1c0 0.352948-0.068732 0.687647-0.181641 1h3.091797c0.056152-0.324868 0.089844-0.658318 0.089844-1h-3zm-2 2.818359c-0.312353 0.112909-0.647053 0.181641-1 0.181641v3c0.341682 0 0.675132-0.033692 1-0.089844v-3.091797zm3 1.181641-2 2 2 2h4v-4h-4zm0.599609 1h2.400391v2h-2.400391l-1-1 1-1z" style="fill:currentColor"/>
</svg>
