<?xml version="1.0" encoding="UTF-8"?>
<svg viewBox="0 0 22 22" xmlns="http://www.w3.org/2000/svg">
 <defs id="defs3051">
  <style id="current-color-scheme" type="text/css">.ColorScheme-Text {
        color:#4d4d4d;
      }</style>
 </defs>
 <path class="ColorScheme-Text" d="m11 3c-4.432 0-8 3.568-8 8s3.568 8 8 8c0.692084 0 1.360349-0.096052 2-0.259766v-1.033203c-0.633753 0.187534-1.303833 0.292969-2 0.292969-3.878 0-7-3.122-7-7s3.122-7 7-7 7 3.122 7 7c0 0.696167-0.105435 1.366247-0.292969 2h1.033203c0.163714-0.639651 0.259766-1.307916 0.259766-2 0-4.432-3.568-8-8-8zm0 2c-3.323996 0-6 2.676-6 6h3c0-1.662 1.3380018-3 3-3v-3zm0 4c-1.1079987 0-2 0.892-2 2s0.8920013 2 2 2c1.107999 0 2-0.892 2-2s-0.892001-2-2-2zm0 1c0.553999 0 1 0.446 1 1s-0.446001 1-1 1-1-0.446-1-1 0.446001-1 1-1zm3 1c0 0.773297-0.29821 1.469123-0.775391 2h3.427735c0.220411-0.626106 0.347656-1.296656 0.347656-2h-3zm-1 2.224609c-0.530877 0.477181-1.226704 0.775391-2 0.775391v3c0.703343 0 1.373894-0.127245 2-0.347656v-3.427735zm3.5 0.775391c-1.385 0-2.5 1.115-2.5 2.5s1.115 2.5 2.5 2.5 2.5-1.115 2.5-2.5-1.115-2.5-2.5-2.5zm0 1c0.831 0 1.5 0.669 1.5 1.5s-0.669 1.5-1.5 1.5-1.5-0.669-1.5-1.5 0.669-1.5 1.5-1.5zm0 1c-0.277 0-0.5 0.223-0.5 0.5s0.223 0.5 0.5 0.5 0.5-0.223 0.5-0.5-0.223-0.5-0.5-0.5z" style="fill:currentColor"/>
</svg>
