<?xml version="1.0" encoding="UTF-8"?>
<svg viewBox="0 0 22 22" xmlns="http://www.w3.org/2000/svg">
 <defs id="defs3051">
  <style id="current-color-scheme" type="text/css">.ColorScheme-Text {
        color:#4d4d4d;
      }</style>
 </defs>
 <path class="ColorScheme-Text" d="m3 3v16h16v-11h-1v10h-14v-14h9v-1h-10zm12.5 0-0.707031 0.7070312-2.792969 2.7929688 0.707031 0.7070312 2.292969-2.2929687v4.2929687 0.7929688h1v-5.0859375l2.292969 2.2929687 0.707031-0.7070312-2.792969-2.7929688-0.707031-0.7070312zm-8 2c-1.385 0-2.5 1.115-2.5 2.5s1.115 2.5 2.5 2.5 2.5-1.115 2.5-2.5-1.115-2.5-2.5-2.5zm0 1c0.831 0 1.5 0.669 1.5 1.5s-0.669 1.5-1.5 1.5-1.5-0.669-1.5-1.5 0.669-1.5 1.5-1.5zm6.494141 4-3.345703 3.34375-1.3417974-1.34375-0.0058594 0.007812-0.0078124-0.007812-4.2929688 4.292969 0.7070312 0.707031 3.5917969-3.591797 0.6425781 0.642578 0.7070318 0.707031 3.351562-3.351562 2.292969 2.292969 0.707031-0.707031-2.992188-2.992188-0.007812 0.007812-0.005859-0.007812z" style="fill:currentColor"/>
</svg>
