<?xml version="1.0" encoding="UTF-8" standalone="no"?>
<svg
   xmlns:dc="http://purl.org/dc/elements/1.1/"
   xmlns:cc="http://creativecommons.org/ns#"
   xmlns:rdf="http://www.w3.org/1999/02/22-rdf-syntax-ns#"
   xmlns:svg="http://www.w3.org/2000/svg"
   xmlns="http://www.w3.org/2000/svg"
   xmlns:xlink="http://www.w3.org/1999/xlink"
   viewBox="0 0 64 64"
   version="1.1"
   id="svg5453"
   height="64"
   width="64">
  <defs
     id="defs5455">
    <linearGradient
       id="linearGradient831">
      <stop
         style="stop-color:#20bcfa;stop-opacity:1;"
         offset="0"
         id="stop827" />
      <stop
         style="stop-color:#46c7fc;stop-opacity:1"
         offset="1"
         id="stop829" />
    </linearGradient>
    <linearGradient
       xlink:href="#linearGradient831"
       id="linearGradient833"
       x1="32.010437"
       y1="57.89262"
       x2="31.962496"
       y2="15.119835"
       gradientUnits="userSpaceOnUse"
       gradientTransform="translate(0,-3.8146973e-6)" />
  </defs>
  <metadata
     id="metadata5458">
    <rdf:RDF>
      <cc:Work
         rdf:about="">
        <dc:format>image/svg+xml</dc:format>
        <dc:type
           rdf:resource="http://purl.org/dc/dcmitype/StillImage" />
        <dc:title></dc:title>
      </cc:Work>
    </rdf:RDF>
  </metadata>
  <path
     style="fill:#209efa;fill-opacity:1;fill-rule:evenodd;stroke:none;stroke-width:1px;stroke-linecap:butt;stroke-linejoin:miter;stroke-opacity:1"
     d="M 4,6 C 3.44878,6.05512 3,6.446 3,7 V 9 49 H 61 V 14 13 11 c 0,-1 -1,-1 -1,-1 H 58 37 33 C 31,6 27,6 27,6 H 5 Z"
     id="folderTab-3" />
  <path
     style="color:#000000;text-decoration:none;text-decoration-line:none;text-decoration-style:solid;text-decoration-color:#000000;white-space:normal;clip-rule:nonzero;display:inline;overflow:visible;visibility:visible;opacity:1;isolation:auto;mix-blend-mode:normal;color-interpolation:sRGB;color-interpolation-filters:linearRGB;solid-color:#000000;solid-opacity:1;fill:#fffbec;fill-opacity:1;fill-rule:nonzero;stroke:none;stroke-width:1;stroke-linecap:butt;stroke-linejoin:miter;stroke-miterlimit:4;stroke-dasharray:none;stroke-dashoffset:0;stroke-opacity:1;color-rendering:auto;image-rendering:auto;shape-rendering:auto;text-rendering:auto;enable-background:accumulate"
     d="M 7,13 H 57 V 45 H 7 Z"
     id="folderPaper-6" />
  <path
     style="fill:url(#linearGradient833);fill-opacity:1;fill-rule:evenodd;stroke:none;stroke-width:1px;stroke-linecap:butt;stroke-linejoin:miter;stroke-opacity:1"
     d="m 39,14.999996 c 0,0 -4,0 -6,4 H 29 4 2 c 0,0 -0.1319813,0.01691 -0.2890625,0.05859 -0.045956,0.01404 -0.091922,0.02277 -0.1347656,0.04297 C 1.3019442,19.211394 1,19.444766 1,19.999996 v 2 1 34 c 0,0.55397 0.44603,1 1,1 h 60 c 0.55397,0 1,-0.44603 1,-1 v -39 -2 c 0,-0.55397 -0.44603,-1 -1,-1 h -1 z"
     id="folderFront-2" />
  <path
     style="opacity:0.25;fill:#000000;fill-opacity:1;stroke:none"
     d="m 1,57 c 0,0.55397 0.44603,1 1,1 h 60 c 0.55397,0 1,-0.44603 1,-1 z"
     id="folderShadow-9" />
  <g
     id="g890"
     transform="translate(0.2711865,0.81355932)">
    <path
       id="path837"
       d="m 39.60394,25.501628 a 2.172555,2.172555 0 0 0 -2.17255,2.17256 2.172555,2.172555 0 0 0 2.17255,2.17255 2.172555,2.172555 0 0 0 2.17256,-2.17255 2.172555,2.172555 0 0 0 -2.17256,-2.17256 z"
       style="color:#000000;display:inline;overflow:visible;visibility:visible;fill:#b3e5fc;fill-opacity:1;fill-rule:evenodd;stroke:#b3e5fc;stroke-width:0.75800002;stroke-miterlimit:4;stroke-dasharray:none;stroke-opacity:1;marker:none;enable-background:accumulate" />
    <path
       id="path829"
       d="m 23.853687,34.320552 a 2.172555,2.172555 0 0 0 -2.17256,2.17256 2.172555,2.172555 0 0 0 2.17256,2.17255 2.172555,2.172555 0 0 0 2.17255,-2.17255 2.172555,2.172555 0 0 0 -2.17255,-2.17256 z"
       style="color:#000000;display:inline;overflow:visible;visibility:visible;fill:#b3e5fc;fill-opacity:1;fill-rule:evenodd;stroke:#b3e5fc;stroke-width:0.75800002;stroke-miterlimit:4;stroke-dasharray:none;stroke-opacity:1;marker:none;enable-background:accumulate" />
    <path
       id="path3858"
       d="m 39.60394,43.017661 a 2.172555,2.172555 0 0 0 -2.17255,2.17256 2.172555,2.172555 0 0 0 2.17255,2.17255 2.172555,2.172555 0 0 0 2.17256,-2.17255 2.172555,2.172555 0 0 0 -2.17256,-2.17256 z"
       style="color:#000000;display:inline;overflow:visible;visibility:visible;fill:#b3e5fc;fill-opacity:1;fill-rule:evenodd;stroke:#b3e5fc;stroke-width:0.75800002;stroke-miterlimit:4;stroke-dasharray:none;stroke-opacity:1;marker:none;enable-background:accumulate" />
    <g
       transform="translate(0,-0.06090575)"
       id="g876">
      <g
         id="g842"
         transform="matrix(1.1426558,0,0,1.1478284,-5.3204321,-4.4019282)"
         style="stroke-width:0.87318009">
        <path
           id="path835"
           d="m 35.80197,28.896061 a 0.54313875,0.54313875 0 0 0 -0.54314,0.54313 0.54313875,0.54313875 0 0 0 0.54314,0.54315 0.54313875,0.54313875 0 0 0 0.54314,-0.54315 0.54313875,0.54313875 0 0 0 -0.54314,-0.54313 z"
           style="color:#000000;display:inline;overflow:visible;visibility:visible;fill:#b3e5fc;fill-opacity:1;fill-rule:evenodd;stroke:#b3e5fc;stroke-width:0.66187048;stroke-miterlimit:4;stroke-dasharray:none;stroke-opacity:1;marker:none;enable-background:accumulate" />
        <path
           id="path833"
           d="M 32.54313,31.068611 A 0.54313875,0.54313875 0 0 0 32,31.611751 a 0.54313875,0.54313875 0 0 0 0.54313,0.54314 0.54313875,0.54313875 0 0 0 0.54315,-0.54314 0.54313875,0.54313875 0 0 0 -0.54315,-0.54314 z"
           style="color:#000000;display:inline;overflow:visible;visibility:visible;fill:#b3e5fc;fill-opacity:1;fill-rule:evenodd;stroke:#b3e5fc;stroke-width:0.66187048;stroke-miterlimit:4;stroke-dasharray:none;stroke-opacity:1;marker:none;enable-background:accumulate" />
        <path
           id="path831"
           d="m 29.2843,33.241171 a 0.54313875,0.54313875 0 0 0 -0.54313,0.54314 0.54313875,0.54313875 0 0 0 0.54313,0.54313 0.54313875,0.54313875 0 0 0 0.54314,-0.54313 0.54313875,0.54313875 0 0 0 -0.54314,-0.54314 z"
           style="color:#000000;display:inline;overflow:visible;visibility:visible;fill:#b3e5fc;fill-opacity:1;fill-rule:evenodd;stroke:#b3e5fc;stroke-width:0.66187048;stroke-miterlimit:4;stroke-dasharray:none;stroke-opacity:1;marker:none;enable-background:accumulate" />
      </g>
      <g
         style="stroke-width:0.87318009"
         transform="matrix(-1.1426558,0,0,1.1478284,69.050783,4.8184106)"
         id="g850">
        <path
           style="color:#000000;display:inline;overflow:visible;visibility:visible;fill:#b3e5fc;fill-opacity:1;fill-rule:evenodd;stroke:#b3e5fc;stroke-width:0.66187048;stroke-miterlimit:4;stroke-dasharray:none;stroke-opacity:1;marker:none;enable-background:accumulate"
           d="m 35.80197,28.896061 a 0.54313875,0.54313875 0 0 0 -0.54314,0.54313 0.54313875,0.54313875 0 0 0 0.54314,0.54315 0.54313875,0.54313875 0 0 0 0.54314,-0.54315 0.54313875,0.54313875 0 0 0 -0.54314,-0.54313 z"
           id="path844" />
        <path
           style="color:#000000;display:inline;overflow:visible;visibility:visible;fill:#b3e5fc;fill-opacity:1;fill-rule:evenodd;stroke:#b3e5fc;stroke-width:0.66187048;stroke-miterlimit:4;stroke-dasharray:none;stroke-opacity:1;marker:none;enable-background:accumulate"
           d="M 32.54313,31.068611 A 0.54313875,0.54313875 0 0 0 32,31.611751 a 0.54313875,0.54313875 0 0 0 0.54313,0.54314 0.54313875,0.54313875 0 0 0 0.54315,-0.54314 0.54313875,0.54313875 0 0 0 -0.54315,-0.54314 z"
           id="path846" />
        <path
           style="color:#000000;display:inline;overflow:visible;visibility:visible;fill:#b3e5fc;fill-opacity:1;fill-rule:evenodd;stroke:#b3e5fc;stroke-width:0.66187048;stroke-miterlimit:4;stroke-dasharray:none;stroke-opacity:1;marker:none;enable-background:accumulate"
           d="m 29.2843,33.241171 a 0.54313875,0.54313875 0 0 0 -0.54313,0.54314 0.54313875,0.54313875 0 0 0 0.54313,0.54313 0.54313875,0.54313875 0 0 0 0.54314,-0.54313 0.54313875,0.54313875 0 0 0 -0.54314,-0.54314 z"
           id="path848" />
      </g>
    </g>
  </g>
</svg>
