<?xml version="1.0" encoding="UTF-8"?>
<svg version="1.1" viewBox="0 0 64 64" xmlns="http://www.w3.org/2000/svg">
 <defs>
  <linearGradient id="linearGradient1455-5" x1="130.16949" x2="130.16949" y1="6.7796607" y2="47.728813" gradientTransform="matrix(1.2851141,0,0,1.2871462,-139.21534,-69.460853)" gradientUnits="userSpaceOnUse">
   <stop style="stop-color:#a8a8a8" offset="0"/>
   <stop style="stop-color:#d0d0d0" offset="1"/>
  </linearGradient>
  <linearGradient id="linearGradient1468-6" x1="130.16949" x2="130.16949" y1="6.0678883" y2="47.728813" gradientTransform="matrix(1.2851141,0,0,1.2871462,-133.09249,-64.350403)" gradientUnits="userSpaceOnUse">
   <stop style="stop-color:#ffb40d" offset="0"/>
   <stop style="stop-color:#ffcc5d" offset="1"/>
  </linearGradient>
 </defs>
 <path transform="scale(1,-1)" d="m8-62.000011h41.877151v54.88956h-41.877151z" style="fill:url(#linearGradient1455-5);paint-order:stroke fill markers"/>
 <path transform="scale(1,-1)" d="m14.122849-56.889545h41.877152v54.88956h-41.877152z" style="fill:url(#linearGradient1468-6);paint-order:stroke fill markers"/>
 <g transform="matrix(1 0 0 .97717217 -.46004779 .67216018)" style="stroke-width:1.0116131">
  <path d="m30.347796 38.654994q-1.548441 0-2.453381-0.90494-0.884819-0.904931-0.884819-2.413157v-3.438751q0-0.824501-0.422306-1.246807-0.422306-0.442409-1.065817-0.442409v-1.528339q0.643511 0 1.065817-0.422297 0.422306-0.442418 0.422306-1.26691v-3.438751q0-1.508227 0.884819-2.413166 0.90494-0.904931 2.453381-0.904931h0.44241v1.52833h-0.44241q-0.703838 0-1.186471 0.502745-0.462521 0.502745-0.462521 1.347349v3.438751q0 1.829982-1.387564 2.35283v0.08046q1.387564 0.482633 1.387564 2.352831v3.438759q0 0.844604 0.462521 1.34734 0.482633 0.502745 1.186471 0.502745h0.44241v1.528339h-0.44241z" style="fill:#ffffff;stroke-width:1.0116131"/>
  <path d="m40.695149 38.654995h-0.442409v-1.528339h0.442409q0.703838 0 1.16636-0.502745 0.482633-0.502736 0.482633-1.34734v-3.43876q0-1.870197 1.387573-2.35283v-0.08046q-1.387573-0.522849-1.387573-2.352831v-3.438751q0-0.844604-0.482633-1.347349-0.462522-0.502745-1.16636-0.502745h-0.442409v-1.52833h0.442409q1.548442 0 2.43327 0.904931 0.904939 0.90494 0.904939 2.413166v3.438751q0 0.824492 0.422298 1.26691 0.422306 0.422298 1.065817 0.422298v1.528338q-0.643511 0-1.065817 0.44241-0.422298 0.422306-0.422298 1.246807v3.438751q0 1.508226-0.904939 2.413157-0.884828 0.904939-2.43327 0.904939z" style="fill:#ffffff;stroke-width:1.0116131"/>
 </g>
</svg>
