<?xml version="1.0" encoding="UTF-8"?>
<svg version="1.1" viewBox="0 0 64 64" xmlns="http://www.w3.org/2000/svg">
<defs>
<linearGradient id="linearGradient1455-5" x1="130.16949" x2="130.16949" y1="6.7796607" y2="47.728813" gradientTransform="matrix(1.2851141,0,0,1.2871462,-139.21534,-69.460855)" gradientUnits="userSpaceOnUse">
<stop stop-color="#a8a8a8" offset="0"/>
<stop stop-color="#d0d0d0" offset="1"/>
</linearGradient>
<linearGradient id="linearGradient1468-6" x1="130.16949" x2="130.16949" y1="6.0678883" y2="47.728813" gradientTransform="matrix(1.2851141,0,0,1.2871462,-133.09249,-64.350405)" gradientUnits="userSpaceOnUse">
<stop stop-color="#ffb40d" offset="0"/>
<stop stop-color="#ffcc5d" offset="1"/>
</linearGradient>
<style id="current-color-scheme" type="text/css">.ColorScheme-Text {
        color:#4d4d4d;
      }</style>
<style type="text/css">.ColorScheme-Text {
        color:#4d4d4d;
      }</style>
<style type="text/css">.ColorScheme-Text {
        color:#4d4d4d;
      }</style>
<style type="text/css">.ColorScheme-Text {
        color:#4d4d4d;
      }</style>
</defs>
<g>
<rect transform="scale(1,-1)" x="7.9999995" y="-62.000011" width="41.877151" height="54.889561" fill="url(#linearGradient1455-5)" style="paint-order:stroke fill markers"/>
<rect transform="scale(1,-1)" x="14.122849" y="-56.889545" width="41.877151" height="54.889561" fill="url(#linearGradient1468-6)" style="paint-order:stroke fill markers"/>
<path d="m29.061425 18.444765c-1.6447028 0-3 1.3552972-3 3v16c0 1.6447028 1.3552972 3 3 3h15v-2h-15c-0.57129727 0-1-0.42870276-1-1 0-0.57129724 0.42870273-1 1-1h15v-18h-15zm0 2h2.9394531v8.8671875l4-2.6660156 4 2.6660156v-8.8671875h2.0605469v14h-13c-0.35178542 0-0.68512457 0.0739232-1 0.1875v-13.1875c0-0.57129724 0.42870272-1 1-1zm4.9394531 0h4v5.1308594l-2-1.3339844-2 1.3339844z" color="#000000" color-rendering="auto" dominant-baseline="auto" fill="#ffffff" image-rendering="auto" shape-rendering="auto" solid-color="#000000" style="font-feature-settings:normal;font-variant-alternates:normal;font-variant-caps:normal;font-variant-ligatures:normal;font-variant-numeric:normal;font-variant-position:normal;isolation:auto;mix-blend-mode:normal;paint-order:fill markers stroke;shape-padding:0;text-decoration-color:#000000;text-decoration-line:none;text-decoration-style:solid;text-indent:0;text-orientation:mixed;text-transform:none;white-space:normal"/>
</g>
</svg>
