<?xml version="1.0" encoding="UTF-8"?>
<svg width="64" height="64" version="1.1" viewBox="0 0 16.933333 16.933334" xmlns="http://www.w3.org/2000/svg" xmlns:xlink="http://www.w3.org/1999/xlink">
 <defs>
  <linearGradient id="linearGradient1455-3" x1="130.16949" x2="130.16949" y1="6.7796607" y2="47.728813" gradientTransform="matrix(.34001978 0 0 -.34055744 -36.834063 18.378199)" gradientUnits="userSpaceOnUse">
   <stop style="stop-color:#a8a8a8" offset="0"/>
   <stop style="stop-color:#d0d0d0" offset="1"/>
  </linearGradient>
  <linearGradient id="linearGradient1468-5" x1="130.16949" x2="130.16949" y1="6.7796607" y2="47.728813" gradientTransform="matrix(.34001978 0 0 -.34055744 -35.214054 17.026059)" gradientUnits="userSpaceOnUse">
   <stop style="stop-color:#1b8bf3" offset="0"/>
   <stop style="stop-color:#20b8f9" offset="1"/>
  </linearGradient>
 </defs>
 <path d="m2.1166662 16.404169h11.079997v-14.522863h-11.079997z" style="fill:url(#linearGradient1455-3);paint-order:stroke fill markers"/>
 <path d="m3.7366699 15.052028h11.079997v-14.522864h-11.079997z" style="fill:url(#linearGradient1468-5);paint-order:stroke fill markers"/>
 <path d="m9.2766892 4.8797048a2.9104103 2.9104103 0 0 0-2.9104164 2.9104199 2.9104103 2.9104103 0 0 0 1.5637288 2.5771003c-0.5217877-0.31712-0.8551535-0.8658904-0.8562785-1.6567403-0.00132-0.67402 0.25824-1.30492 0.7301881-1.77819 0.4745813-0.4752401 1.1092326-0.7374199 1.788522-0.7374199v0.43718c-0.5621256 0-1.0873351 0.21644-1.4789801 0.6087499-0.3896702 0.39032-0.6031953 0.9117899-0.6025473 1.4686399 0.0017462 1.0207901 0.6164297 1.7785904 1.5554603 1.9363194-0.1658985-0.0435-0.3233505-0.118929-0.4609531-0.239779-0.909669-0.6259703-1.1887917-1.7467202-0.6635258-2.6649503 0.2501259-0.4370599 0.6644857-0.7522099 1.167371-0.8878099 0.5121-0.13823 1.0442058-0.0706 1.4970658 0.1906899l-0.218591 0.3793099c-0.351493-0.2026999-0.764727-0.25575-1.1642698-0.1478-0.3896714 0.1046602-0.7095521 0.3476202-0.9017542 0.6826502-0.410074 0.7161498-0.1863736 1.5945699 0.5317506 2.0882402 0.8901766 0.61138 1.5184174 0.43249 1.7869714 0.30231-0.311601 0.0539-0.555148 0.0657-1.2335168-0.1819-0.578581-0.2106404-0.8425955-0.6077202-0.9110557-0.7255402-6.085e-4 -6.88e-4 -0.00722-0.0126-0.00982-0.0176-0.00201-3e-3 -0.00465-7e-3 -0.00465-7e-3h5.292e-4c-0.0014-3e-3 -0.00517-9e-3 -0.00517-0.010001l0.00103-0.00101c-0.1099201-0.2040415-0.1643301-0.4248215-0.1643301-0.6433615 0-0.4712901 0.2441761-0.92974 0.6805788-1.18184v-0.00101c0.3152902-0.181621 0.6825522-0.2305211 1.0340446-0.136421 0.351493 0.0948 0.645154 0.32032 0.826823 0.63562l0.0072 0.012901-0.385507 0.2056698c-0.123759-0.2139274-0.323458-0.3675873-0.561735-0.4314874-0.238937-0.0639-0.4883589-0.0306-0.702283 0.0925-0.2962008 0.1718003-0.4619871 0.4831504-0.4619871 0.8030501 0 0.15665 0.039917 0.3149802 0.1235067 0.4604401 0 0.00101-0.03334-0.0594 0.00156 3e-3 0.034887 0.0625 0.2250844 0.36536 0.6805787 0.5312299 0.7507597 0.2737702 1.2795387 0.2442902 1.6541627 0.2041205a2.9104103 2.9104103 0 0 0 0.976686-2.1698897 2.9104103 2.9104103 0 0 0-2.9104167-2.9104202zm1.6205728 5.3247402c-0.04399 0.0293-0.09779 0.0618-0.150378 0.0935a2.9104103 2.9104103 0 0 0 0.150378-0.0935zm-0.262516 0.15761c-0.01973 0.0115-0.04557 0.0234-0.0677 0.0351a2.9104103 2.9104103 0 0 0 0.0677-0.0351zm-1.6541623 0.322469a2.9104103 2.9104103 0 0 0 0.1436605 8e-3c-0.04829-2e-3 -0.096325-4e-3 -0.1436605-8e-3zm0.5415685 4e-3c-0.03364 1e-3 -0.06708 4e-3 -0.100769 4e-3 -0.07976 4e-3 -0.1584201 5e-3 -0.236161 4e-3a2.9104103 2.9104103 0 0 0 0.09147 5e-3 2.9104103 2.9104103 0 0 0 0.2454629-0.0124z" style="fill:#ffffff;stroke-width:.27025318"/>
</svg>
