<?xml version="1.0" encoding="UTF-8"?>
<svg id="svg29" version="1.1" viewBox="0 0 64 64" xmlns="http://www.w3.org/2000/svg" xmlns:xlink="http://www.w3.org/1999/xlink">
 <defs id="defs33">
  <linearGradient id="linearGradient1455" x1="130.16949" x2="130.16949" y1="6.7796607" y2="47.728813" gradientTransform="matrix(1.2851141,0,0,1.2871462,-137.58822,-70.816818)" gradientUnits="userSpaceOnUse">
   <stop id="stop1493" style="stop-color:#a8a8a8" offset="0"/>
   <stop id="stop1495" style="stop-color:#d0d0d0" offset="1"/>
  </linearGradient>
  <linearGradient id="linearGradient1468" x1="130.16949" x2="130.16949" y1="6.7796607" y2="47.728813" gradientTransform="matrix(1.2851141,0,0,1.2871462,-131.46536,-65.706367)" gradientUnits="userSpaceOnUse">
   <stop id="stop1449" style="stop-color:#38d7b8" offset="0"/>
   <stop id="stop1451" style="stop-color:#6ee2cb" offset="1"/>
  </linearGradient>
 </defs>
 <rect id="rect1243" transform="scale(1,-1)" x="9.6271191" y="-63.355938" width="41.877151" height="54.889561" style="fill:url(#linearGradient1455);paint-order:stroke fill markers"/>
 <rect id="rect1466" transform="scale(1,-1)" x="15.749967" y="-58.245476" width="41.877151" height="54.889561" style="fill:url(#linearGradient1468);paint-order:stroke fill markers"/>
 <text id="text879" x="-124.37757" y="24.902866" style="fill:#000000;font-family:sans-serif;font-size:40px;letter-spacing:0px;line-height:1.25;word-spacing:0px" xml:space="preserve"><tspan id="tspan877" x="-124.37757" y="60.293491"/></text>
 <path id="folderGlyph-3" d="m27.688542 20.800695v20h18v-20zm1.8 2h1.8v2h-1.8zm2.699999 0h9v7h-9zm9.900001 0h1.8v2h-1.8zm-12.6 7h1.8v2h-1.8zm12.6 0h1.8v2h-1.8zm-9.900001 2h9v7h-9zm-2.699999 5h1.8v2h-1.8zm12.6 0h1.8v2h-1.8z" style="color-rendering:auto;color:#000000;fill:#ffffff;image-rendering:auto;isolation:auto;mix-blend-mode:normal;shape-rendering:auto;solid-color:#000000"/>
</svg>
