<?xml version="1.0" encoding="UTF-8"?>
<svg id="svg8" width="64" height="64" version="1.1" viewBox="0 0 16.933333 16.933334" xmlns="http://www.w3.org/2000/svg" xmlns:xlink="http://www.w3.org/1999/xlink">
 <defs id="defs2">
  <linearGradient id="linearGradient1455" x1="130.16949" x2="130.16949" y1="6.7796607" y2="47.728813" gradientTransform="matrix(.34001978 0 0 .34055744 -36.83406 -298.44483)" gradientUnits="userSpaceOnUse">
   <stop id="stop1493" style="stop-color:#a8a8a8" offset="0"/>
   <stop id="stop1495" style="stop-color:#d0d0d0" offset="1"/>
  </linearGradient>
  <linearGradient id="linearGradient1468" x1="130.16949" x2="130.16949" y1="6.7796607" y2="47.728813" gradientTransform="matrix(.34001978 0 0 .34055744 -35.214054 -297.09271)" gradientUnits="userSpaceOnUse">
   <stop id="stop1449" style="stop-color:#d3d7da" offset="0"/>
   <stop id="stop1451" style="stop-color:#eeeeee" offset="1"/>
  </linearGradient>
  <linearGradient id="linearGradient1100" x2="0" y1="539.40002" y2="529.40002" gradientTransform="matrix(.18530801 0 0 .18006649 -57.16903 191.73826)" gradientUnits="userSpaceOnUse">
   <stop id="stop860" stop-color="#161719" offset="0"/>
   <stop id="stop862" stop-color="#424649" offset="1"/>
  </linearGradient>
  <linearGradient id="linearGradient1214" x1="11.867017" x2="9.3000546" y1="287.88062" y2="290.51776" gradientUnits="userSpaceOnUse">
   <stop id="stop1216" style="stop-color:#ffae0e" offset="0"/>
   <stop id="stop1218" style="stop-color:#ef5448" offset="1"/>
  </linearGradient>
  <linearGradient id="linearGradient1206" x1="9.3468266" x2="11.926903" y1="285.2027" y2="287.83264" gradientUnits="userSpaceOnUse">
   <stop id="stop1208" style="stop-color:#54d326" offset="0"/>
   <stop id="stop1210" style="stop-color:#ffae0e" offset="1"/>
  </linearGradient>
  <linearGradient id="linearGradient1204" x1="6.6884198" x2="9.2608891" y1="287.78586" y2="285.16663" gradientUnits="userSpaceOnUse">
   <stop id="stop1198" style="stop-color:#1f93e0" offset="0"/>
   <stop id="stop1200" style="stop-color:#54d326" offset="1"/>
  </linearGradient>
  <linearGradient id="linearGradient1228" x1="9.2298965" x2="6.5698309" y1="290.58792" y2="287.90448" gradientUnits="userSpaceOnUse">
   <stop id="stop1222" style="stop-color:#ef5448" offset="0"/>
   <stop id="stop1224" style="stop-color:#1f93e0" offset="1"/>
  </linearGradient>
 </defs>
 <g id="layer1" transform="translate(0,-280.06665)">
  <rect id="rect1243" transform="scale(1,-1)" x="2.1166666" y="-296.47083" width="11.079997" height="14.522863" style="fill:url(#linearGradient1455);paint-order:stroke fill markers"/>
  <rect id="rect1466-9" transform="scale(1,-1)" x="3.73667" y="-295.11868" width="11.079997" height="14.522863" style="fill:url(#linearGradient1468);paint-order:stroke fill markers"/>
  <g id="g1273" transform="translate(-5.1226044e-7,5.6203978e-6)">
   <path id="path1098" d="m9.2286804 286.75034-0.6407952 1.08581c-0.1347186 0.22958-0.145096 0.52146 0 0.76724 0.2181081 0.36952 0.7030587 0.49737 1.0834961 0.28544 0.3802527-0.21195 0.5118207-0.68319 0.2937144-1.05287l-0.6407962-1.08578c-0.021129-0.0358-0.074494-0.0358-0.095619 0" style="fill:url(#linearGradient1100);stroke-width:.22050242"/>
   <path id="path1085" d="m9.276669 291.03225v-1.05833a2.1166665 2.1166665 0 0 0 2.116667-2.11667h1.058333a3.1750001 3.1750001 0 0 1-3.175 3.175z" style="fill:url(#linearGradient1214);paint-order:stroke fill markers"/>
   <path id="path1105" d="m12.451669 287.85725h-1.058333a2.1166665 2.1166665 0 0 0-2.116667-2.11667v-1.05833a3.1750001 3.1750001 0 0 1 3.175 3.175z" style="fill:url(#linearGradient1206);paint-order:stroke fill markers"/>
   <path id="path1107" d="m9.276669 284.68225v1.05833a2.1166665 2.1166665 0 0 0-2.116667 2.11667h-1.058333a3.1750001 3.1750001 0 0 1 3.175-3.175z" style="fill:url(#linearGradient1204);paint-order:stroke fill markers"/>
   <path id="path1109" d="m6.101669 287.85725h1.058333a2.1166665 2.1166665 0 0 0 2.116667 2.11667v1.05833a3.1750001 3.1750001 0 0 1-3.175-3.175z" style="fill:url(#linearGradient1228);paint-order:stroke fill markers"/>
  </g>
 </g>
</svg>
