<?xml version="1.0" encoding="UTF-8"?>
<svg version="1.1" viewBox="0 0 64 64" xmlns="http://www.w3.org/2000/svg" xmlns:xlink="http://www.w3.org/1999/xlink">
 <defs>
  <linearGradient id="linearGradient1455" x1="130.16949" x2="130.16949" y1="6.7796607" y2="47.728813" gradientTransform="matrix(1.2851141,0,0,1.2871462,-139.21534,-69.460854)" gradientUnits="userSpaceOnUse">
   <stop style="stop-color:#a8a8a8" offset="0"/>
   <stop style="stop-color:#d0d0d0" offset="1"/>
  </linearGradient>
  <linearGradient id="linearGradient942" x1="36.067795" x2="36.067795" y1="-56.949154" y2="-3.2542372" gradientTransform="translate(-1.3559327,2.6744092e-5)" gradientUnits="userSpaceOnUse">
   <stop style="stop-color:#a159bf" offset="0"/>
   <stop style="stop-color:#ce8fe8" offset="1"/>
  </linearGradient>
 </defs>
 <path transform="scale(1,-1)" d="m7.9999986-62.000011h41.877155v54.88956h-41.877155z" style="fill:url(#linearGradient1455);paint-order:stroke fill markers"/>
 <path transform="scale(1,-1)" d="m14.122847-56.889549h41.877155v54.88956h-41.877155z" style="fill:url(#linearGradient942);paint-order:stroke fill markers"/>
 <path d="m44.421617 19.714062c-0.70555-0.0366-0.82862-0.96977-1.51873-1.01349-0.36266-0.0226-1.04924-0.0543-1.64604 0.16276-0.66507-0.45465-1.51873-1.01168-0.27119 1.15829-0.2711 1.46369-1.17535 5.56907-2.13402 5.58623-0.95817 0.0177-1.59072-1.73489-2.4047-1.71692l-0.814 0.0174c-0.95816 0-1.58869-1.69482-3.52582-1.75308-1.21159-0.0363-2.16996 2.09635-4.86444 2.3313-0.72291 0.0545-1.83566 0.33602-1.94834 2.00317 0 0-1.5887 1.48541-0.84074 4.91673 0.18668-1.70824 0.27977-3.14065 0.84074-4.07549-0.0418 0.93273 0.24929 1.83779 0 2.80414-0.24918 0.96522-1.04146 2.61642-1.04146 2.61642s-0.17356 0.34288 0.26271 1.52682c0.43597 1.18331 1.30832 4.11526 1.30832 4.11526 0.0445 0.51462 0.11692 0.78582 0.47847 1.02127-0.0907 0.34237-0.39568 1.02974 0.6891 1.02974 0.46474 4.1e-4 0 0 1.05186 0 0.73493 0 0.49574-0.63163-0.69121-1.21108 0.0361-0.43365-0.23485-0.88618-0.41588-0.97684-0.43355-1.10296-0.99421-3.21586-0.99421-3.21586s-0.19941-1.84536 0.48796-2.46074c0.68718-0.61397 1.51743-1.19181 2.07828-3.23515 0.0177-0.1452 0.95827 0.72361 2.83917 1.2655 1.88049 0.5434 3.32289-0.0366 3.53299 0.0541 0.21001 0.0911 0.66215 1.19312 0.66215 2.26094 0 1.0665-0.37964 1.77165-0.37964 2.18752 0 0.41589 0.30744 1.1391 0.30744 1.1391s0.18063 1.98882-0.0542 3.11036c-0.16286 0.70443-0.43396 1.06236 0.65113 1.06397 1.08487 2e-3 2.56756 0.23667 0.63315-1.0463 0.16225-0.39802 0.0358-0.94141-0.14518-1.1391-0.0363-0.97665 0.073-1.93572 0.25291-2.33272 0.18094-0.39841 0.0548-1.5367 0.0908-2.11494 0.0364-0.57853 0.56056-2.65771 1.1391-3.39871 0.57863-0.7424 3.14619-2.92922 3.58055-5.06262 0.43405-2.13412 0.90415-4.30488 2.17006-4.2858 0.75906 0 0.88557 0.43364 1.21108 0.41588 0.32562-0.0192 0.90426-0.55896 0.90426-0.84852 0-0.28897-0.0719-0.88174-1.48239-0.89952z" style="fill:#ffffff"/>
</svg>
