<?xml version="1.0" encoding="UTF-8"?>
<svg width="64" height="64" version="1.1" viewBox="0 0 16.933333 16.933334" xmlns="http://www.w3.org/2000/svg" xmlns:xlink="http://www.w3.org/1999/xlink">
 <defs>
  <linearGradient id="linearGradient1455" x1="130.16949" x2="130.16949" y1="6.7796607" y2="47.728813" gradientTransform="matrix(.34001978 0 0 .34055744 -36.834059 -18.378194)" gradientUnits="userSpaceOnUse">
   <stop style="stop-color:#a8a8a8" offset="0"/>
   <stop style="stop-color:#d0d0d0" offset="1"/>
  </linearGradient>
  <linearGradient id="linearGradient1468" x1="130.16949" x2="130.16949" y1="6.7796607" y2="47.728813" gradientTransform="matrix(.34001978 0 0 .34055744 -35.214053 -17.026054)" gradientUnits="userSpaceOnUse">
   <stop style="stop-color:#1b8bf3" offset="0"/>
   <stop style="stop-color:#20b8f9" offset="1"/>
  </linearGradient>
 </defs>
 <path transform="scale(1,-1)" d="m2.1166668-16.404171h11.079996v14.522863h-11.079996z" style="fill:url(#linearGradient1455);paint-order:stroke fill markers"/>
 <path transform="scale(1,-1)" d="m3.7366705-15.052027h11.079996v14.522864h-11.079996z" style="fill:url(#linearGradient1468);paint-order:stroke fill markers"/>
 <path d="m8.70151 4.9194524c-0.036932 0-0.067299 0.00222-0.1018027 0.0031-0.4604824 0.1091015-0.8776827 0.3259616-1.2236979 0.6242513 0.1751952-0.043769 0.3633568-0.076998 0.5705078-0.076998 0.7760936 0 1.3416669 0.6110319 1.947685 1.2200806 0.3756528 0.3774942 1.3989818 1.3579104 2.2422408 1.594218 0.03176-0.1728401 0.05064-0.3504861 0.05064-0.532784 0-0.2217188-0.02685-0.4366149-0.07338-0.6438885-0.0496 0.054887-0.105618 0.091342-0.171049 0.097152-0.372468 0-0.874439-0.9882876-1.163236-1.3198161-0.432739-0.4967581-1.0279403-0.9653151-2.077908-0.9653153zm-1.2634889 1.4319541c-0.3362616 0-0.6548872 0.2501799-0.9415444 0.5327838-4.92e-5 1.587e-4 4.89e-5 3.704e-4 0 5.291e-4 -0.08469 0.2735959-0.1302248 0.5644698-0.1302248 0.8666139 0 0.4110845 0.085262 0.8010509 0.2377118 1.1549685 0.066954-0.1018403 0.1626282-0.1751833 0.3023071-0.1751833 0.4712493 0 1.7965949 0.9653159 3.5506882 0.9653159 0.42365 0 0.827527-0.094862 1.145666-0.1968873 0.166735-0.2218746 0.302236-0.4681511 0.400492-0.7332885-1.846414-0.2916867-3.5750894-2.4148397-4.5650959-2.4148397zm0.7715292 3.6132162c-0.2663729 0-0.2945667 0.1859783-0.2526977 0.3803383 0.3960609 0.201155 0.8435536 0.316776 1.319816 0.316776 0.6463046 0 1.2399184-0.211055 1.7218594-0.564823-0.303202 0.07673-0.662575 0.13746-1.0454148 0.13746-1.131207 0-1.4370415-0.2697513-1.7435629-0.2697513z" style="fill:#ffffff"/>
</svg>
