<?xml version="1.0" encoding="UTF-8"?>
<svg version="1.1" viewBox="0 0 64 64" xmlns="http://www.w3.org/2000/svg">
 <defs>
  <linearGradient id="linearGradient1455" x1="130.16949" x2="130.16949" y1="6.7796607" y2="47.728813" gradientTransform="matrix(1.2851141,0,0,1.2871462,-139.21534,-69.46078)" gradientUnits="userSpaceOnUse">
   <stop style="stop-color:#a8a8a8" offset="0"/>
   <stop style="stop-color:#d0d0d0" offset="1"/>
  </linearGradient>
  <linearGradient id="linearGradient1468-6" x1="130.16949" x2="130.16949" y1="6.0678883" y2="47.728813" gradientTransform="matrix(1.2851141,0,0,1.2871462,-133.09248,-64.350335)" gradientUnits="userSpaceOnUse">
   <stop style="stop-color:#ffb40d" offset="0"/>
   <stop style="stop-color:#ffcc5d" offset="1"/>
  </linearGradient>
 </defs>
 <path transform="scale(1,-1)" d="m8.000001-61.999935h41.877151v54.88956h-41.877151z" style="fill:url(#linearGradient1455);paint-order:stroke fill markers"/>
 <path transform="scale(1,-1)" d="m14.122849-56.889477h41.877152v54.889561h-41.877152z" style="fill:url(#linearGradient1468-6);paint-order:stroke fill markers"/>
 <path d="m33.243244 19.444697c-1.510909 0-2.727273 1.216364-2.727273 2.727273v1.818181h4.545454v0.909091h-6.363636c-2.014545 0-3.636364 1.621819-3.636364 3.636364v1.818181c0 2.014547 1.621819 3.636365 3.636364 3.636365v-1.818182c0-1.67378 1.125627-3.06235 2.659801-3.488992 0.133493-0.03713 0.270345-0.06573 0.408381-0.09055 0.186218-0.02918 0.373521-0.05682 0.568182-0.05682h6.567826c0.433801-0.482616 0.704902-1.115185 0.704902-1.818182v-4.545455c0-1.510909-1.216364-2.727273-2.727274-2.727273zm8.181817 5.454545v1.818182c0 1.67378-1.125626 3.062351-2.6598 3.488993-0.133493 0.03713-0.270346 0.06573-0.40838 0.09055-0.186218 0.02918-0.373522 0.05682-0.568183 0.05682h-6.567827c-0.4338 0.482616-0.7049 1.115185-0.7049 1.818182v4.545454c0 1.510909 1.216364 2.727273 2.727273 2.727273h3.636363c1.51091 0 2.727274-1.216364 2.727274-2.727273v-1.818181h-4.545456v-0.909091h6.363636c2.014546 0 3.636364-1.621818 3.636364-3.636364v-1.818181c0-2.014546-1.621818-3.636364-3.636364-3.636368z" style="fill:#ffffff;stroke-width:.88117665"/>
</svg>
