<?xml version="1.0" encoding="UTF-8"?>
<svg id="svg41" version="1.1" viewBox="0 0 64 64" xmlns="http://www.w3.org/2000/svg" xmlns:xlink="http://www.w3.org/1999/xlink">
 <defs id="defs45">
  <linearGradient id="linearGradient1455-5" x1="130.16949" x2="130.16949" y1="6.7796607" y2="47.728813" gradientTransform="matrix(1.2851141,0,0,1.2871462,-139.21534,-69.460853)" gradientUnits="userSpaceOnUse">
   <stop id="stop1493" style="stop-color:#a8a8a8" offset="0"/>
   <stop id="stop1495" style="stop-color:#d0d0d0" offset="1"/>
  </linearGradient>
  <linearGradient id="linearGradient1468-6" x1="130.16949" x2="130.16949" y1="6.0678883" y2="47.728813" gradientTransform="matrix(1.2851141,0,0,1.2871462,-133.09249,-64.350403)" gradientUnits="userSpaceOnUse">
   <stop id="stop1449-9" style="stop-color:#ffb40d" offset="0"/>
   <stop id="stop1451-1" style="stop-color:#ffcc5d" offset="1"/>
  </linearGradient>
 </defs>
 <g id="g900">
  <rect id="rect1243-9" transform="scale(1,-1)" x="8" y="-62.000011" width="41.877151" height="54.889561" style="fill:url(#linearGradient1455-5);paint-order:stroke fill markers"/>
  <rect id="rect1466-3" transform="scale(1,-1)" x="14.122849" y="-56.889545" width="41.877151" height="54.889561" style="fill:url(#linearGradient1468-6);paint-order:stroke fill markers"/>
  <text id="text879" x="-126.0047" y="23.546938" style="fill:#000000;font-family:sans-serif;font-size:40px;letter-spacing:0px;line-height:1.25;word-spacing:0px" xml:space="preserve"><tspan id="tspan877" x="-126.0047" y="58.937561"/></text>
  <text id="text879-5" transform="scale(.99364346 1.0063972)" x="31.644129" y="28.163994" style="fill:#000000;font-family:sans-serif;font-size:49.582409px;letter-spacing:0px;line-height:1.25;word-spacing:0px" xml:space="preserve"><tspan id="tspan877-3" x="31.644129" y="72.032806"/></text>
  <text id="text879-1" transform="scale(.99364346 1.0063972)" x="-91.709587" y="33.897156" style="fill:#000000;font-family:sans-serif;font-size:49.582409px;letter-spacing:0px;line-height:1.25;word-spacing:0px" xml:space="preserve"><tspan id="tspan877-2" x="-91.709587" y="77.765968"/></text>
  <text id="text879-7" x="-244.98289" y="33.830395" style="fill:#000000;font-family:sans-serif;font-size:40px;letter-spacing:0px;line-height:1.25;word-spacing:0px" xml:space="preserve"><tspan id="tspan877-5" x="-244.98289" y="69.221024"/></text>
  <text id="text879-5-3" transform="scale(.99364346 1.0063972)" x="-88.0952" y="38.382084" style="fill:#000000;font-family:sans-serif;font-size:49.582409px;letter-spacing:0px;line-height:1.25;word-spacing:0px" xml:space="preserve"><tspan id="tspan877-3-5" x="-88.0952" y="82.250893"/></text>
  <text id="text879-1-6" transform="scale(.99364346 1.0063972)" x="-211.44891" y="44.115242" style="fill:#000000;font-family:sans-serif;font-size:49.582409px;letter-spacing:0px;line-height:1.25;word-spacing:0px" xml:space="preserve"><tspan id="tspan877-2-2" x="-211.44891" y="87.984055"/></text>
  <path id="path843" d="m27.477259 37.16743c3.52 0 5.376-1.813333 5.376-5.504v-9.685333h-8.682667v2.773333h5.248v7.104c0 1.642667-0.725333 2.474667-2.112 2.474667-1.066667 0-1.962667-0.554667-2.773334-1.642667l-1.92 2.304c1.088 1.408 2.858667 2.176 4.864001 2.176z" style="fill:#ffffff"/>
  <path id="path845" d="m41.173592 37.16743c4.266667 0 6.336-2.133333 6.336-4.629333 0-5.482667-8.682666-3.584-8.682666-6.336 0-0.938667 0.789333-1.706667 2.837333-1.706667 1.322667 0 2.752 0.384 4.138667 1.173333l1.066666-2.624c-1.386666-0.874666-3.306666-1.322666-5.184-1.322666-4.245333 0-6.293333 2.112-6.293333 4.650666 0 5.546667 8.682667 3.626667 8.682667 6.421334 0 0.917333-0.832 1.6-2.88 1.6-1.792 0-3.669334-0.64-4.928001-1.557333l-1.173333 2.602666c1.322667 1.024 3.712 1.728 6.08 1.728z" style="fill:#ffffff"/>
 </g>
</svg>
