<?xml version="1.0" encoding="UTF-8"?>
<svg version="1.1" viewBox="0 0 64 64" xmlns="http://www.w3.org/2000/svg" xmlns:xlink="http://www.w3.org/1999/xlink">
 <defs>
  <linearGradient id="linearGradient1455" x1="130.16949" x2="130.16949" y1="6.7796607" y2="47.728813" gradientTransform="matrix(1.2851141,0,0,1.2871462,-139.21534,-69.460853)" gradientUnits="userSpaceOnUse">
   <stop style="stop-color:#a8a8a8" offset="0"/>
   <stop style="stop-color:#d0d0d0" offset="1"/>
  </linearGradient>
  <linearGradient id="linearGradient1468" x1="130.16949" x2="130.16949" y1="6.0678883" y2="47.728813" gradientTransform="matrix(1.2851141,0,0,1.2871462,-133.09249,-64.350403)" gradientUnits="userSpaceOnUse">
   <stop style="stop-color:#ffd412" offset="0"/>
   <stop style="stop-color:#ffe44d" offset="1"/>
  </linearGradient>
 </defs>
 <path transform="scale(1,-1)" d="m8-62.000011h41.877151v54.88956h-41.877151z" style="fill:url(#linearGradient1455);paint-order:stroke fill markers"/>
 <path transform="scale(1,-1)" d="m14.122849-56.889549h41.877152v54.88956h-41.877152z" style="fill:url(#linearGradient1468);paint-order:stroke fill markers"/>
 <path d="m38.150391 17.636719a7.4117646 7.4117646 0 0 0-6.408203 3.705078h3.148437a4.9411764 4.9411764 0 0 1 3.259766-1.234375 4.9411764 4.9411764 0 0 1 4.941406 4.939453 4.9411764 4.9411764 0 0 1-1.236328 3.259766v3.152343a7.4117646 7.4117646 0 0 0 3.705078-6.412109 7.4117646 7.4117646 0 0 0-7.410156-7.410156zm-13.589844 6.175781v14.824219h14.824219v-14.824219h-14.824219zm2.470703 2.470703h9.882812v9.882813h-9.882812v-9.882813z" style="fill:#ffffff;paint-order:stroke fill markers"/>
</svg>
