<?xml version="1.0" encoding="UTF-8"?>
<svg id="svg8" width="64" height="64" version="1.1" viewBox="0 0 16.933333 16.933334" xmlns="http://www.w3.org/2000/svg" xmlns:xlink="http://www.w3.org/1999/xlink">
 <defs id="defs2">
  <linearGradient id="linearGradient1455" x1="130.16949" x2="130.16949" y1="6.7796607" y2="47.728813" gradientTransform="matrix(.34001978 0 0 .34055744 -36.83406 -298.44483)" gradientUnits="userSpaceOnUse">
   <stop id="stop1493" style="stop-color:#a8a8a8" offset="0"/>
   <stop id="stop1495" style="stop-color:#d0d0d0" offset="1"/>
  </linearGradient>
  <linearGradient id="linearGradient969" x1="9.2458076" x2="9.2458076" y1="-295.13004" y2="-280.68997" gradientUnits="userSpaceOnUse">
   <stop id="stop963" style="stop-color:#a25abf" offset="0"/>
   <stop id="stop965" style="stop-color:#ce8ee8" offset="1"/>
  </linearGradient>
 </defs>
 <g id="layer1" transform="translate(0,-280.06665)">
  <rect id="rect1243" transform="scale(1,-1)" x="2.1166666" y="-296.47083" width="11.079997" height="14.522863" style="fill:url(#linearGradient1455);paint-order:stroke fill markers"/>
  <rect id="rect1466" transform="scale(1,-1)" x="3.73667" y="-295.11868" width="11.079997" height="14.522863" style="fill:url(#linearGradient969);paint-order:stroke fill markers"/>
  <path id="path21" d="m8.5742025 289.02662c0.0515 0.18836 0.045851 0.36402-0.00733 0.5231-0.00592 0.0176-0.01242 0.0352-0.019487 0.0525-0.00707 0.0173-0.014716 0.0343-0.022914 0.0511-0.041025 0.0842-0.096074 0.16294-0.1634951 0.23565-0.2056552 0.22186-0.4929967 0.30576-0.6162071 0.23506-0.1330506-0.0763-0.066404-0.38905 0.1720396-0.63828 0.2565173-0.26815 0.6255987-0.44055 0.6255987-0.44055l-6.81e-4 -9.1e-4c0.010635-5e-3 0.021428-0.0114 0.032376-0.0174zm2.9237325-3.16787c-0.160289-0.62162-1.202661-0.82597-2.1892067-0.4794-0.5871071 0.20623-1.2226995 0.52994-1.6797036 0.95264-0.543373 0.50256-0.6300272 0.93999-0.5943091 1.12275 0.12598 0.64494 1.0196464 1.0665 1.3870197 1.37927v2e-3c-0.1083227 0.0527-0.9011895 0.44949-1.0867347 0.85512-0.1957818 0.42791 0.031161 0.735 0.1814111 0.77633 0.465533 0.12808 0.9432469-0.10229 1.1999719-0.48094 0.2477481-0.36542 0.2271231-0.83727 0.1194535-1.07201 0.1485226-0.0387 0.321666-0.0561 0.5417074-0.0306 0.6209117 0.0717 0.7427445 0.45509 0.7194475 0.61549-0.02328 0.16046-0.1535164 0.24867-0.1970561 0.2753-0.043555 0.0266-0.05684 0.0358-0.05317 0.0556 0.00526 0.0288 0.02543 0.0277 0.062562 0.0215 0.051102-8e-3 0.3260381-0.1305 0.3377871-0.42666 0.01496-0.37602-0.3494353-0.79664-0.9946761-0.78565-0.2657354 5e-3 -0.4328317 0.0295-0.5535248 0.0739-0.00892-0.0101-0.018018-0.02-0.027397-0.0299-0.3989064-0.42084-1.1363264-0.71853-1.1050543-1.28429 0.011372-0.20567 0.083668-0.74727 1.4169673-1.40423 1.0921999-0.53813 1.9665419-0.39006 2.1176489-0.0618 0.21584 0.4689-0.46729 1.34038-1.6015481 1.46608-0.4321401 0.0479-0.659678-0.1177-0.7162773-0.17939-0.059599-0.0649-0.068473-0.0678-0.090717-0.0556-0.036251 0.0198-0.013288 0.0772 0 0.11136 0.033858 0.0872 0.1728335 0.24169 0.4097604 0.31856 0.2084135 0.0676 0.7157964 0.1048 1.329403-0.12989 0.687213-0.26287 1.223852-0.99407 1.066235-1.60528" style="fill:#ffffff;stroke-width:.26458335"/>
 </g>
</svg>
