<?xml version="1.0" encoding="UTF-8"?>
<svg width="64" height="64" version="1.1" viewBox="0 0 16.933333 16.933334" xmlns="http://www.w3.org/2000/svg" xmlns:xlink="http://www.w3.org/1999/xlink">
 <defs>
  <linearGradient id="linearGradient1455" x1="130.16949" x2="130.16949" y1="6.7796607" y2="47.728813" gradientTransform="matrix(.34001978 0 0 .34055744 -36.834059 -298.44485)" gradientUnits="userSpaceOnUse">
   <stop style="stop-color:#a8a8a8" offset="0"/>
   <stop style="stop-color:#d0d0d0" offset="1"/>
  </linearGradient>
  <linearGradient id="linearGradient1468" x1="130.16949" x2="130.16949" y1="6.7796607" y2="47.728813" gradientTransform="matrix(.34001978 0 0 .34055744 -35.214053 -297.09271)" gradientUnits="userSpaceOnUse">
   <stop style="stop-color:#1e9ff4" offset="0"/>
   <stop style="stop-color:#58c1f9" offset="1"/>
  </linearGradient>
 </defs>
 <g transform="translate(0,-280.06665)">
  <path transform="scale(1,-1)" d="m2.116667-296.47083h11.079996v14.52287h-11.079996z" style="fill:url(#linearGradient1455);paint-order:stroke fill markers"/>
  <path transform="scale(1,-1)" d="m3.7366705-295.11868h11.079996v14.52286h-11.079996z" style="fill:url(#linearGradient1468);paint-order:stroke fill markers"/>
  <path transform="matrix(.26458334 0 0 .26458334 0 280.06665)" d="m26.060547 17.724609v2.605469h12.857422v-2.605469h-12.857422zm0 5.208985v2.605468h18v-2.605468h-18zm0 5.208984v2.603516h12.857422v-2.603516h-12.857422zm0 5.208984v2.603516h18v-2.603516h-18zm0 5.208985v2.603515h18v-2.603515h-18z" style="fill:#ffffff;paint-order:stroke fill markers"/>
 </g>
</svg>
