<?xml version="1.0" encoding="UTF-8"?>
<svg id="svg6" version="1.1" viewBox="0 0 16 16" xmlns="http://www.w3.org/2000/svg">
 <defs id="defs3051">
  <style id="current-color-scheme" type="text/css">.ColorScheme-Text {
        color:#4d4d4d;
      }</style>
 </defs>
 <path id="path9330" d="m6.1090413 15.566561-0.1667995-1.993169a5.9455554 5.9455554 0 0 1-1.737611-1.005005l-1.8128613 0.853992-1.8917695-3.27762 1.6442214-1.141545a5.9455554 5.9455554 0 0 1-0.0908026-1.00318 5.9455554 5.9455554 0 0 1 0.0865864-1.007102l-1.6398921-1.137223 1.8917695-3.27676 1.8073403 0.850862a5.9455554 5.9455554 0 0 1 1.7418348-0.998662l0.1675537-1.99771h3.7835315l0.1667991 1.993169a5.9455554 5.9455554 0 0 1 1.737619 1.005006l1.811556-0.852982 1.89177 3.27676-1.644757 1.142194a5.9455554 5.9455554 0 0 1 0.09188 1.002094 5.9455554 5.9455554 0 0 1-0.08757 1.007501l1.64056 1.137986-1.891777 3.276744-1.807348-0.850854a5.9455554 5.9455554 0 0 1-1.741503 0.997772l-0.1664749 1.99771h-3.7835315zm1.891762-5.40505a2.1620202 2.1620202 0 0 0 2.1620277-2.16202 2.1620202 2.1620202 0 0 0-2.1620277-2.16202 2.1620202 2.1620202 0 0 0-2.1620126 2.16202 2.1620202 2.1620202 0 0 0 2.1620126 2.16202z" style="enable-background:new;fill:#4d4d4d;stroke-width:1.4332498"/>
</svg>
