<?xml version="1.0" encoding="UTF-8"?>
<svg id="svg6" version="1.1" viewBox="0 0 16 16" xmlns="http://www.w3.org/2000/svg">
 <defs id="defs3051">
  <style id="current-color-scheme" type="text/css">.ColorScheme-Text {
        color:#4d4d4d;
      }</style>
 </defs>
 <path id="path4" class="ColorScheme-Text" d="m8.0761719 0.22851562c-2.202757 0-4.0640389 0.75511866-5.5859375 2.2636719-1.5085532 1.5085532-2.2636719 3.3307961-2.2636719 5.4667969 0 2.1493536 0.75511873 3.9777746 2.2636719 5.4863276 1.5085531 1.495208 3.369835 2.242188 5.5859375 2.242188 1.1347494 0 2.1709671-0.213418 3.1054691-0.640625l-0.5625-1.361328c-0.7476006 0.373796-1.5951216 0.560547-2.5429691 0.560547-1.7622041 0-3.2561711-0.607415-4.484375-1.822266-1.2281968-1.214851-1.84375-2.7026394-1.84375-4.4648436 0-1.762197 0.6155532-3.2519456 1.84375-4.4667969 1.2282039-1.2148513 2.7221709-1.8222656 4.484375-1.8222656 1.7621969 0 3.2581241 0.6074143 4.4863281 1.8222656s1.841797 2.7045999 1.841797 4.4667969c0 1.9090551-0.47402 2.8632816-1.421875 2.8632816-0.400502 0-0.700143-0.139573-0.900391-0.419922-0.186902-0.280349-0.28125-0.5943082-0.28125-0.9414065v-5.2265625h-1.441406v0.9003906h-0.080078c-0.6808512-0.7876511-1.5345435-1.1816406-2.5625001-1.1816406-1.0413021 0-1.9359936 0.3878109-2.6835938 1.1621094-0.7476002 0.7743056-1.1210937 1.7490277-1.1210937 2.9238281 0 1.1881531 0.3734935 2.1690605 1.1210937 2.9433595 0.7476002 0.760953 1.6689662 1.140625 2.7636719 1.140625 1.2148513 0 2.1485815-0.486385 2.802734-1.460938 0.49395 0.974553 1.240937 1.460938 2.242188 1.460938 0.974553 0 1.717315-0.39399 2.224609-1.181641 0.520655-0.787651 0.779297-1.7809158 0.779297-2.9824216 0-2.1360008-0.746987-3.9582437-2.242187-5.4667969-1.495208-1.5085532-3.337947-2.2636719-5.5273441-2.2636719zm-0.1386719 5.2460938c0.6675056 0 1.2339208 0.2339208 1.7011719 0.7011718 0.4805961 0.4672511 0.7207031 1.0889828 0.7207031 1.8632813s-0.240107 1.3940771-0.7207031 1.8613281c-0.4672511 0.4672514-1.0336663 0.7011714-1.7011719 0.7011714-0.6674984 0-1.2420525-0.23392-1.7226562-0.7011714-0.4672511-0.467251-0.7011719-1.0870296-0.7011719-1.8613281s0.2339208-1.3960302 0.7011719-1.8632813c0.4806037-0.467251 1.0551578-0.7011718 1.7226562-0.7011718z" style="fill:#4d4d4d"/>
</svg>
