<?xml version="1.0" encoding="UTF-8"?>
<svg id="svg6" version="1.1" viewBox="0 0 16 16" xmlns="http://www.w3.org/2000/svg">
 <defs id="defs3051">
  <style id="current-color-scheme" type="text/css">.ColorScheme-Text {
        color:#4d4d4d;
      }</style>
 </defs>
 <path id="path822" d="m6.5 2c-1.385 0-2.5 1.115-2.5 2.5s1.115 2.5 2.5 2.5 2.5-1.115 2.5-2.5-1.115-2.5-2.5-2.5z" style="color:#4d4d4d;fill:#4d4d4d"/>
 <path id="path820" d="m12 4c-1.108001 0-2 0.892-2 2s0.891999 2 2 2c1.108 0 2-0.892 2-2s-0.892-2-2-2z" style="color:#4d4d4d;fill:#4d4d4d"/>
 <path id="path818" d="m6.5 8c-2.4929878 0-4.5 2.007011-4.5 4.5v1.5h9v-1.5c0-2.492989-2.0070124-4.5-4.5-4.5z" style="color:#4d4d4d;fill:#4d4d4d"/>
 <path id="path922" d="m12 9c-0.389962 0-0.758049 0.0819079-1.097656 0.21875 0.685998 0.917561 1.097656 2.051694 1.097656 3.28125v0.5h2.103516 0.71289 0.183594v-0.666016-0.333984c0-1.661993-1.338009-3-3-3z" style="color:#4d4d4d;fill:#4d4d4d"/>
</svg>
