<?xml version="1.0" encoding="UTF-8"?>
<svg id="svg8" version="1.1" viewBox="0 0 16 16" xmlns="http://www.w3.org/2000/svg">
 <defs id="defs7">
  <style id="current-color-scheme" type="text/css">.ColorScheme-Text {
        color:#4d4d4d;
      }</style>
 </defs>
 <path id="path814" d="m14 1-9 2.41211v7.85742a2 2 0 0 0-1-0.26953 2 2 0 0 0-2 2 2 2 0 0 0 2 2 2 2 0 0 0 2-2v-7.85547l7-1.87695v6.00195a2 2 0 0 0-1-0.26953 2 2 0 0 0-2 2 2 2 0 0 0 2 2 2 2 0 0 0 2-2v-8.97852z" style="fill:#4d4d4d;paint-order:fill markers stroke"/>
</svg>
