<?xml version="1.0" encoding="UTF-8"?>
<svg id="svg6" version="1.1" viewBox="0 0 16 16" xmlns="http://www.w3.org/2000/svg">
 <defs id="defs3051">
  <style id="current-color-scheme" type="text/css">.ColorScheme-Text {
        color:#4d4d4d;
      }</style>
 </defs>
 <path id="Page-1" d="m11.829918 10.460749c0-0.09375-0.144551-0.203108-0.433661-0.328099 0.02104-0.07812 0.04072-0.1497245 0.05914-0.2148245 0.01837-0.0651 0.03157-0.132804 0.03941-0.203109 0.0079-0.07031 0.01577-0.126296 0.02366-0.167959 0.0079-0.04169 0.0092-0.10025 0.0037-0.175767-0.0053-0.07552-0.0079-0.12629-0.0079-0.1523299 0-0.026028-0.0092-0.083335-0.02758-0.1718629-0.01837-0.088541-0.02889-0.1419186-0.03156-0.1601443-0.0025-0.018255-0.01577-0.083327-0.03941-0.1952999-0.023737-0.1119683-0.03818-0.1809728-0.043467-0.2070122-0.052578-0.2499827-0.176096-0.5181865-0.370588-0.8046254-0.194489-0.2864393-0.383721-0.4817338-0.567698-0.5858936 0.126158 0.1041598 0.275966 0.3202882 0.449431 0.6483902 0.457314 0.8436851 0.599237 1.567582 0.42577 2.171708-0.05783 0.2083135-0.189232 0.3176795-0.394232 0.3280965-0.16295 0.02085-0.264141-0.02732-0.303559-0.144523-0.03941-0.1171765-0.06046-0.3346025-0.06308-0.6522885-0.0025-0.3176901-0.03287-0.5963105-0.09068-0.8358756-0.047259-0.203109-0.098506-0.3827803-0.153699-0.5390203-0.055201-0.1562392-0.106445-0.2747154-0.153755-0.3554389-0.047313-0.080723-0.088044-0.144521-0.122208-0.1913944-0.0341758-0.0468779-0.0683346-0.0859291-0.1025031-0.1171805-0.0341759-0.0312698-0.0538754-0.0494714-0.05914-0.0546774-0.0735881-0.32289-0.1550656-0.5910987-0.2444248-0.8046243-0.0893657-0.2135256-0.1669-0.3593481-0.2326012-0.4374674-0.0657119-0.0781198-0.1274724-0.1640495-0.1852921-0.2577921s-0.0972439-0.1978973-0.1182722-0.3124747c-0.021039-0.1093654-0.005235-0.2486758 0.0473107-0.417935 0.0525651-0.1692595 0.0643981-0.2981574 0.0354833-0.3866902-0.028941-0.0885397-0.145884-0.1536363-0.3508908-0.1952987-0.078848-0.015608-0.1958011-0.0624938-0.3508698-0.1406118-0.1550635-0.0781194-0.2483665-0.119783-0.2799035-0.1249886-0.0420248-0.0051878-0.0709663-0.0729041-0.0867351-0.2031143-0.0157526-0.1301997 0.0052285-0.2629973 0.0630789-0.3984026 0.0578196-0.1354058 0.1524362-0.2057171 0.2838445-0.2109227 0.1944926-0.015608 0.3285332 0.062495 0.4021216 0.234354 0.073599 0.1718632 0.084101 0.3228914 0.031558 0.453092-0.05782 0.098953-0.063075 0.1679577-0.015753 0.2070176 0.047311 0.039042 0.1261589 0.040339 0.2365441 0.00366 0.068328-0.020847 0.102498-0.1145745 0.102498-0.2812263v-0.2890583c-0.0262722-0.15624-0.061766-0.2864339-0.1064439-0.3905941-0.0446941-0.1041602-0.0998712-0.183581-0.1655778-0.2382637-0.0657067-0.0546764-0.1274672-0.0937426-0.1852922-0.1171748-0.0578196-0.0234343-0.1287808-0.0429868-0.2128834-0.0585858-0.5624445 0.0416362-0.7963562 0.3905887-0.7017397 1.0467928 0 0.07812-0.00261 0.1171751-0.00791 0.1171751-0.047307-0.046878-0.1248363-0.074212-0.2325995-0.08202-0.1077525-0.00787-0.1944875-0.00644-0.2601941 0.00367-0.065707 0.01042-0.1064444-0.00259-0.1222131-0.039042 0.0052371-0.2968536-0.0367893-0.5312076-0.1261518-0.7030708-0.0893601-0.1718821-0.2076268-0.2604191-0.3548087-0.2656256-0.1419273-0.0051878-0.2509988 0.0664032-0.3272197 0.2148269-0.0762158 0.1484263-0.1195802 0.3033586-0.1300945 0.4648052-0.00524 0.078121 0.00366 0.1744648 0.027581 0.2890422 0.023655 0.1145768 0.05782 0.2122232 0.1024981 0.2929467 0.044693 0.080723 0.085422 0.1158734 0.1222181 0.1054612 0.052565-0.015608 0.094616-0.052083 0.1261537-0.1093654 0.021039-0.046878 0.00261-0.0677-0.055193-0.062494-0.036791 0-0.077529-0.037745-0.1222129-0.1132696-0.044694-0.075518-0.069647-0.1627472-0.074907-0.2617016-0.00524-0.1145711 0.018423-0.2109174 0.070967-0.2890368 0.052565-0.078121 0.1419221-0.1145768 0.2680756-0.1093658 0.089362 0 0.1603233 0.054677 0.2128887 0.1640485 0.052565 0.1093655 0.077529 0.2109174 0.074906 0.3046654-0.00262 0.093743-0.00655 0.1510291-0.011829 0.1718576-0.1156385 0.07812-0.197119 0.153636-0.2444245 0.2265457-0.042024 0.062495-0.1143258 0.1236871-0.2168293 0.1835809-0.1024981 0.059892-0.1563772 0.092441-0.1616369 0.097647-0.068328 0.072914-0.1090715 0.1432197-0.1222128 0.2109227-0.013136 0.0677 0.00655 0.1145765 0.059134 0.1406169 0.073588 0.04169 0.1392951 0.092436 0.19712 0.1523296 0.05782 0.059892 0.099871 0.1093667 0.1261537 0.1484265 0.026273 0.039042 0.074906 0.072906 0.1458682 0.1015561 0.070961 0.028622 0.1642642 0.045581 0.2799038 0.050769 0.2470579 0.01042 0.5151337-0.028622 0.804243-0.1171805 0.010519-0.00519 0.07096-0.023434 0.1813462-0.054677 0.1103849-0.03127 0.2010608-0.058585 0.2720219-0.082029 0.070961-0.023434 0.1484954-0.057289 0.2325979-0.1015519 0.084108-0.044283 0.1393002-0.089838 0.1655829-0.1367126 0.047309-0.072906 0.099871-0.093737 0.1576907-0.062494 0.026274 0.015608 0.043385 0.037745 0.051236 0.066403 0.00791 0.028622 0 0.059892-0.023655 0.093743-0.023656 0.033863-0.067022 0.058585-0.1300944 0.074221-0.1051305 0.031268-0.2536259 0.087233-0.4454861 0.1679513-0.1918666 0.080723-0.311447 0.1315012-0.3587578 0.1523309-0.2312843 0.098953-0.4152578 0.1588426-0.5519308 0.1796768-0.1314133 0.026028-0.339037 0.02084-0.6228918-0.015608-0.052565-0.01042-0.076214-0.00519-0.070962 0.015608 0.00524 0.020841 0.049927 0.070303 0.1340404 0.1484252 0.1314131 0.1197831 0.307505 0.1770685 0.5282752 0.1718629 0.089362-0.00519 0.1839787-0.023434 0.2838496-0.054686 0.099876-0.03127 0.1944876-0.0677 0.2838497-0.1093662 0.089362-0.04169 0.1774052-0.087235 0.2641402-0.1367067 0.086729-0.049472 0.1655775-0.093744 0.2365386-0.1328034 0.070961-0.039042 0.1353542-0.070303 0.1931738-0.093743 0.057825-0.023434 0.1038172-0.029973 0.1379814-0.019552 0.034175 0.01042 0.056512 0.039042 0.067021 0.085929 0 0.01042-0.00261 0.022138-0.00791 0.035151-0.00524 0.013014-0.015752 0.026028-0.031558 0.039042-0.015752 0.013014-0.031559 0.024731-0.047311 0.03516-0.015753 0.01042-0.0381 0.023434-0.06702 0.039042-0.02889 0.015608-0.052565 0.027326-0.070962 0.03516-0.01837 0.00787-0.044693 0.020841-0.078848 0.039042-0.034175 0.018202-0.059138 0.029973-0.074902 0.035151-0.1471725 0.0729145-0.3245779 0.1874865-0.532212 0.3437265-0.2076289 0.1562391-0.382407 0.2682029-0.5243294 0.3359105-0.1419273 0.0677002-0.2707082 0.0703028-0.3863529 0.0078739-0.1103844-0.0572917-0.275962-0.2473775-0.4967374-0.5702689-0.1156395-0.161451-0.1813462-0.2187366-0.1971148-0.1718619-0.00524 0.015608-0.00791 0.04169-0.00791 0.078111 0 0.1301996-0.039408 0.2773244-0.1182719 0.4413729-0.07884 0.1640532-0.1563738 0.3085693-0.2325892 0.4335633-0.0762212 0.1249886-0.1314133 0.2760177-0.1655829 0.4530906-0.0341751 0.1770685-0.0036582 0.341118 0.090675 0.4921461-0.1208986 0.03127-0.2851626 0.2656055-0.4927915 0.7030688-0.2076339 0.4374731-0.332474 0.8046253-0.3745252 1.1014809-0.01052 0.09374-0.014445 0.273415-0.011828 0.53902 0.00261 0.2656045-0.011828 0.4192345-0.043385 0.4608975-0.042025 0.124996-0.1182721 0.132805-0.2286573 0.02343-0.1682061-0.16144-0.2628227-0.4062145-0.2838508-0.7343095-0.010519-0.145823 0-0.291645 0.031558-0.437468 0.02104-0.098954 0.01837-0.1458223-0.00791-0.140617l-0.031558 0.039042c-0.189233 0.33852-0.1629505 0.770771 0.078848 1.2967735 0.026274 0.06249 0.09199 0.135408 0.1971199 0.218732 0.1051306 0.08333 0.1682048 0.135407 0.1892331 0.156242 0.1051306 0.11978 0.3784608 0.355439 0.8200063 0.706978 0.4415455 0.351531 0.6859713 0.550738 0.7332822 0.597608 0.084102 0.07812 0.1300945 0.177067 0.1379813 0.29685 0.00791 0.119781-0.02889 0.231751-0.1103852 0.335912-0.08148 0.104157-0.2010607 0.164053-0.3587567 0.179675 0.042025 0.07812 0.118272 0.193992 0.2286572 0.347631 0.1103851 0.153629 0.1839733 0.294248 0.2207702 0.421837 0.036791 0.127598 0.055194 0.311174 0.055194 0.550741 0.2417984-0.12499 0.2601941-0.364554 0.055188-0.718691-0.021039-0.04164-0.048618-0.08333-0.082789-0.124996-0.034175-0.04164-0.059134-0.07291-0.074903-0.09374-0.015753-0.02085-0.021039-0.03645-0.015753-0.04688 0.015753-0.02603 0.049927-0.05076 0.102498-0.07421 0.052565-0.02343 0.1051308-0.01695 0.157696 0.01954 0.2417984 0.270811 0.6780793 0.364555 1.3088579 0.281227 0.6991178-0.07812 1.1643083-0.304665 1.3955924-0.679636 0.1209033-0.197902 0.2102624-0.276022 0.2680867-0.234359 0.063078 0.03127 0.089358 0.166658 0.078841 0.406224-0.00535 0.130197-0.065713 0.36976-0.1813465 0.718694-0.047304 0.119784-0.063079 0.217432-0.047304 0.292941 0.01575 0.07552 0.078848 0.11588 0.1892324 0.121085 0.015763-0.09895 0.053874-0.299454 0.1143267-0.601511 0.060447-0.302062 0.09593-0.536421 0.1064422-0.703074 0.01052-0.109364-0.0065-0.300756-0.051234-0.574175-0.044699-0.273415-0.064391-0.525999-0.059142-0.75775 0.00533-0.231759 0.065715-0.415334 0.1813466-0.550741 0.07885-0.09375 0.212888-0.140615 0.402121-0.140615 0.0053-0.192695 0.09593-0.3307 0.272021-0.414032 0.176094-0.08333 0.366639-0.110665 0.571642-0.08202 0.205006 0.02862 0.362697 0.08723 0.473081 0.175766zm-4.9515983-6.4604345c0.015753-0.088541 0.00921-0.1666564-0.019731-0.2343595-0.02889-0.0677-0.059134-0.1067626-0.090676-0.1171793-0.047311-0.01042-0.070962 0.00787-0.070962 0.054687 0.01052 0.026028 0.023656 0.04169 0.039408 0.046878 0.052565 0 0.070962 0.039042 0.055193 0.1171801-0.015753 0.1041544 0.00524 0.1562347 0.063075 0.1562347 0.015753 0 0.023655-0.00787 0.023655-0.023434zm1.9002125-0.124994c0-0.057289-0.013136-0.1080641-0.039408-0.1523296-0.026273-0.044283-0.055188-0.076814-0.08673-0.097653-0.031558-0.020841-0.055193-0.028622-0.070965-0.023434-0.073583 0.00519-0.091984 0.023434-0.055188 0.054686 0.01052 0.00519 0.021039 0.01042 0.031559 0.015608 0.073594 0.02084 0.1208991 0.101552 0.1419273 0.2421679 0 0.015608 0.021039 0.01042 0.063075-0.015608zm5.1250608 8.8469735c0.05783 0.0651 0.08936 0.127591 0.09462 0.187485 0.0053 0.05989-0.0012 0.118482-0.01972 0.175766-0.01842 0.05729-0.05914 0.114577-0.122212 0.171864-0.06308 0.05729-0.124842 0.108066-0.185287 0.152328-0.06046 0.04429-0.139301 0.09244-0.236545 0.144524-0.09724 0.05208-0.180033 0.09505-0.248367 0.128895-0.06833 0.03386-0.152436 0.07421-0.252313 0.121086-0.09987 0.04688-0.170837 0.08073-0.212887 0.101554-0.199747 0.09895-0.424459 0.24477-0.67414 0.437465-0.249685 0.192694-0.448118 0.359349-0.595299 0.499962-0.08936 0.08334-0.268077 0.134103-0.536158 0.152334-0.26808 0.01821-0.50199-0.01955-0.701739-0.113274-0.09462-0.04688-0.172152-0.108065-0.2325984-0.183583-0.060447-0.07551-0.1038178-0.141911-0.1301007-0.199197-0.026272-0.05729-0.084104-0.108071-0.1734634-0.152338-0.089356-0.04429-0.2128838-0.069-0.3705797-0.07421-0.2312843-0.0052-0.5729537-0.0079-1.0250132-0.0079-0.099871 0-0.2496803 0.0041-0.4494273 0.01172-0.1997472 0.0079-0.3521835 0.01431-0.4573142 0.01955-0.2312844 0.0052-0.4402267 0.04429-0.6268326 0.117181-0.1866059 0.07292-0.3272144 0.151031-0.421831 0.234359-0.094616 0.08333-0.2089476 0.157538-0.3429883 0.222639-0.1340405 0.06509-0.2746489 0.09504-0.4218309 0.08983-0.1524392-0.005164-0.4441703-0.085926-0.8752017-0.242161-0.4310367-0.156239-0.8147521-0.268208-1.1511667-0.335912-0.099877-0.02082-0.2339171-0.04556-0.4021217-0.07419-0.1682105-0.02862-0.2996186-0.05208-0.3942347-0.0703-0.094621-0.0182-0.198438-0.04299-0.3114501-0.07422-0.1130174-0.03127-0.2010606-0.06901-0.2641399-0.113271-0.063075-0.04429-0.1077584-0.09504-0.1340407-0.152334-0.052567-0.119784-0.034177-0.292941 0.055193-0.519495 0.089362-0.226544 0.1366678-0.368455 0.1419224-0.425742 0.00526-0.08334-0.00525-0.187487-0.03156-0.312479-0.026273-0.124991-0.052567-0.235655-0.078847-0.332002-0.026273-0.09635-0.0381-0.191393-0.035482-0.285138 0.00263-0.09374 0.030247-0.164051 0.082793-0.210917 0.07359-0.06249 0.2233968-0.09896 0.449427-0.109367 0.2260294-0.01042 0.3837205-0.04169 0.4730828-0.09375 0.1576956-0.09374 0.2680805-0.184876 0.3311547-0.273414 0.063082-0.08853 0.094617-0.221334 0.094617-0.398405 0 0.148428 0.1392951-0.234358 0.118272-0.359351-0.01575-0.08333-0.021037-0.182275-0.01575-0.296845 0.00526-0.151035 0.031559-0.2864415 0.078846-0.4062225 0.047307-0.11978 0.1103819-0.242165 0.1892298-0.367154 0.078849-0.124994 0.1366677-0.23436 0.1734595-0.3281021 0.0420243-0.1093728 0.1117035-0.2968588 0.2089472-0.5624643s0.1747781-0.4687138 0.232598-0.6093254c0.0578196-0.1406172 0.1366676-0.2994543 0.2365439-0.4765285 0.099871-0.1770685 0.2023692-0.31768 0.3074999-0.4218393 0.5782183-0.7447422 0.9041139-1.2525058 0.9777074-1.5233222-0.0630793-0.5832904-0.1051307-1.3905085-0.1261587-2.4216838-0.0105195-0.4687198 0.0525703-0.8632131 0.189233-1.1835067 0.1366678-0.3202883 0.4152629-0.5924012 0.8357803-0.8163438 0.2050015-0.1093657 0.4783372-0.1640485 0.8200118-0.1640485 0.278595-0.00519 0.5571851 0.02997 0.835775 0.1054613 0.2785952 0.075517 0.5125065 0.1835811 0.7017398 0.3241927 0.2996231 0.2187367 0.5401041 0.5351156 0.7214543 0.9491464 0.1813461 0.4140315 0.2588801 0.7981123 0.2325981 1.152255-0.02628 0.4947543 0.05257 1.0519994 0.236537 1.6717476 0.178726 0.5884969 0.528277 1.1561541 1.048671 1.7029931 0.289108 0.3072682 0.550612 0.7317111 0.784529 1.2733396 0.23391 0.5416276 0.390293 1.0389793 0.469134 1.4920699 0.04202 0.25519 0.0552 0.4752215 0.0394 0.6601025-0.01576 0.184884-0.04731 0.329404-0.09462 0.43356-0.04732 0.104161 0.06834 0.523401 0.141927 0.460903 0.0053 0.161448 0.02628 0.308571 0.06308 0.441374 0.0368 0.132805 0.07491 0.238264 0.11433 0.316384 0.03941 0.07811 0.0933 0.152333 0.161636 0.222635 0.06833 0.0703 0.123527 0.119784 0.165578 0.148427 0.04202 0.02867 0.09856 0.06249 0.169526 0.101555 0.07096 0.03904 0.114324 0.06379 0.130093 0.07421 0.10513 0.06249 0.186605 0.126297 0.244425 0.191397z" style="fill-rule:evenodd;fill:#4d4d4d"/>
</svg>
