<?xml version="1.0" encoding="UTF-8"?>
<svg id="svg5453" version="1.1" viewBox="0 0 48 48" xmlns="http://www.w3.org/2000/svg">
 <defs id="defs5455">
  <linearGradient id="linearGradient3426" x1="399.57144" x2="399.57144" y1="545.79797" y2="517.79797" gradientUnits="userSpaceOnUse">
   <stop id="stop4234-0" style="stop-color:#3889e9" offset="0"/>
   <stop id="stop4236" style="stop-color:#5ea5fb" offset="1"/>
  </linearGradient>
  <linearGradient id="linearGradient4181" x1="399.9939" x2="399.9939" y1="545.13873" y2="518.13873" gradientUnits="userSpaceOnUse">
   <stop id="stop4583" style="stop-color:#4469b9" offset="0"/>
   <stop id="stop4585" style="stop-color:#5d91ff" offset="1"/>
  </linearGradient>
  <style id="current-color-scheme" type="text/css">.ColorScheme-Text {
        color:#31363b;
      }
      .ColorScheme-Background{
        color:#eff0f1;
      }
      .ColorScheme-ViewText {
        color:#31363b;
      }
      .ColorScheme-ViewBackground{
        color:#fcfcfc;
      }
      .ColorScheme-ViewHover {
        color:#3daee9;
      }
      .ColorScheme-ViewFocus{
        color:#3daee9;
      }
      .ColorScheme-ButtonText {
        color:#31363b;
      }
      .ColorScheme-ButtonBackground{
        color:#eff0f1;
      }
      .ColorScheme-ButtonHover {
        color:#3daee9;
      }
      .ColorScheme-ButtonFocus{
        color:#3daee9;
      }</style>
  <style id="current-color-scheme-8" type="text/css">.ColorScheme-Text {
        color:#31363b;
      }
      .ColorScheme-Background{
        color:#eff0f1;
      }
      .ColorScheme-ViewText {
        color:#31363b;
      }
      .ColorScheme-ViewBackground{
        color:#fcfcfc;
      }
      .ColorScheme-ViewHover {
        color:#3daee9;
      }
      .ColorScheme-ViewFocus{
        color:#3daee9;
      }
      .ColorScheme-ButtonText {
        color:#31363b;
      }
      .ColorScheme-ButtonBackground{
        color:#eff0f1;
      }
      .ColorScheme-ButtonHover {
        color:#3daee9;
      }
      .ColorScheme-ButtonFocus{
        color:#3daee9;
      }</style>
  <style id="current-color-scheme-7" type="text/css">.ColorScheme-Text {
        color:#31363b;
      }
      .ColorScheme-Background{
        color:#eff0f1;
      }
      .ColorScheme-ViewText {
        color:#31363b;
      }
      .ColorScheme-ViewBackground{
        color:#fcfcfc;
      }
      .ColorScheme-ViewHover {
        color:#3daee9;
      }
      .ColorScheme-ViewFocus{
        color:#3daee9;
      }
      .ColorScheme-ButtonText {
        color:#31363b;
      }
      .ColorScheme-ButtonBackground{
        color:#eff0f1;
      }
      .ColorScheme-ButtonHover {
        color:#3daee9;
      }
      .ColorScheme-ButtonFocus{
        color:#3daee9;
      }</style>
 </defs>
 <g id="layer1" transform="translate(-384.57143,-499.798)">
  <g id="g4471" transform="matrix(1.0931221,0,0,1.0931221,33.310366,-50.486049)">
   <g id="g4320" transform="matrix(.93077444 0 0 .93077444 23.572011 36.133708)">
    <g id="layer1-3" transform="matrix(1.5444819,0,0,1.5444819,-275.17538,-295.73877)">
     <circle id="path3377" cx="400.57138" cy="531.79791" r="13.999958" style="fill:url(#linearGradient4181)"/>
     <circle id="ellipse4233" cx="400.57138" cy="531.79791" r="0" style="fill:url(#linearGradient3426)"/>
    </g>
   </g>
   <g id="layer1-2" transform="matrix(.83672062 0 0 .83672062 -119.08145 -180.46807)">
    <g id="layer1-6" transform="translate(-120.10595,41.912995)">
     <g id="g5657" transform="matrix(1.4798576,0,0,1.4798576,22.783781,14.417625)">
      <g id="layer1-1" transform="matrix(.63930688 0 0 .63930688 128.96549 198.84511)">
       <path id="path4130" d="m488.74468 507.9142a9.6458426 9.6458426 0 0 0-9.35125 7.31488 9.6458426 9.6458426 0 0 0-7.30974 9.34612v9.64584h9.64584a9.6458426 9.6458426 0 0 0 9.35126-7.31488 9.6458426 9.6458426 0 0 0 7.30974-9.34612v-9.64584zm0 1.37872h8.26713v8.26712a8.2678703 8.2678703 0 0 1-5.67754 7.84068 9.6458426 9.6458426 0 0 0 0.0411-0.82552 9.6458426 9.6458426 0 0 0-9.64584-9.64584 9.6458426 9.6458426 0 0 0-0.83066 0.0411 8.2678703 8.2678703 0 0 1 7.84581-5.67755zm-7.01515 7.01515a8.2678703 8.2678703 0 0 1 8.26713 8.26713 8.2678703 8.2678703 0 0 1-0.0925 1.1612 8.2678703 8.2678703 0 0 1-1.15949 0.0908 8.2678703 8.2678703 0 0 1-8.26712-8.26713 8.2678703 8.2678703 0 0 1 0.0925-1.1612 8.2678703 8.2678703 0 0 1 1.15949-0.0908zm-2.58957 0.42646a9.6458426 9.6458426 0 0 0-0.0411 0.82551 9.6458426 9.6458426 0 0 0 9.64585 9.64585 9.6458426 9.6458426 0 0 0 0.83065-0.0411 8.2678703 8.2678703 0 0 1-7.84581 5.67755h-8.26712v-8.26713a8.2678703 8.2678703 0 0 1 5.67754-7.84067z" style="fill-opacity:.23529412;fill:#000000;stroke-width:1.4284549;stroke:#eaeff9"/>
      </g>
     </g>
    </g>
   </g>
  </g>
 </g>
</svg>
