<?xml version="1.0" encoding="UTF-8"?>
<svg id="svg18" version="1.1" viewBox="0 0 64 64" xmlns="http://www.w3.org/2000/svg">
 <defs id="defs5455">
  <linearGradient id="linearGradient833" x1="32.010437" x2="31.962496" y1="57.89262" y2="15.119835" gradientTransform="translate(384.57143,483.79798)" gradientUnits="userSpaceOnUse">
   <stop id="stop827" style="stop-color:#ffca28" offset="0"/>
   <stop id="stop829" style="stop-color:#ffd351" offset="1"/>
  </linearGradient>
 </defs>
 <g id="layer1" transform="translate(-384.57143 -483.798)">
  <path id="folderTab-3" d="m388.57143 489.79798c-0.55122 0.0551-1 0.446-1 1v42h58v-38c0-1-1-1-1-1h-27c-2-4-6-4-6-4h-22z" style="fill-rule:evenodd;fill:#ffb437"/>
  <path id="folderPaper-6" d="m391.57143 496.79798h50v32h-50z" style="color-rendering:auto;color:#000000;fill:#fffbec;image-rendering:auto;isolation:auto;mix-blend-mode:normal;shape-rendering:auto;solid-color:#000000;text-decoration-color:#000000;text-decoration-line:none;text-decoration-style:solid;white-space:normal"/>
  <path id="folderFront-2" d="m423.57143 498.79798s-4 0-6 4h-31s-0.13198 0.0169-0.28906 0.0586c-0.046 0.014-0.0919 0.0228-0.13477 0.043-0.27423 0.10983-0.57617 0.34321-0.57617 0.89844v37c0 0.55397 0.44603 1 1 1h60c0.55397 0 1-0.44603 1-1v-41c0-0.55397-0.44603-1-1-1h-1z" style="fill-rule:evenodd;fill:url(#linearGradient833)"/>
 </g>
</svg>
