<?xml version="1.0" encoding="UTF-8"?>
<svg id="svg5453" version="1.1" viewBox="0 0 64 64" xmlns="http://www.w3.org/2000/svg">
 <defs id="defs5455">
  <linearGradient id="linearGradient833" x1="32.010437" x2="31.962496" y1="57.89262" y2="15.119835" gradientTransform="translate(0,-1.8e-6)" gradientUnits="userSpaceOnUse">
   <stop id="stop827" style="stop-color:#ffca28" offset="0"/>
   <stop id="stop829" style="stop-color:#ffd351" offset="1"/>
  </linearGradient>
 </defs>
 <path id="folderTab-3" d="m4 6.000002c-0.55122 0.05512-1 0.446-1 1v42h58v-38c0-1-1-1-1-1h-27c-2-4-6-4-6-4h-22z" style="fill-rule:evenodd;fill:#ffb437"/>
 <path id="folderPaper-6" d="m7 13.000002h50v32h-50z" style="color-rendering:auto;color:#000000;fill:#fffbec;image-rendering:auto;isolation:auto;mix-blend-mode:normal;shape-rendering:auto;solid-color:#000000;text-decoration-color:#000000;text-decoration-line:none;text-decoration-style:solid;white-space:normal"/>
 <path id="folderFront-2" d="m39 14.999998s-4 0-6 4h-31s-0.1319813 0.01691-0.2890625 0.05859c-0.045956 0.01404-0.091922 0.02277-0.1347656 0.04297-0.2742277 0.109838-0.5761719 0.34321-0.5761719 0.89844v37c0 0.55397 0.44603 1 1 1h60c0.55397 0 1-0.44603 1-1v-41c0-0.55397-0.44603-1-1-1h-1z" style="fill-rule:evenodd;fill:url(#linearGradient833)"/>
 <path id="path4" class="ColorScheme-Text" d="m31.998635 27.000122c-0.114028 0-0.226421 0.0028-0.339598 0.0055-1.111776 0.03381-2.182771 0.232264-3.187849 0.572316-0.170354 0.05765-0.340147 0.120574-0.50666 0.186208-0.05155 0.0203-0.10225 0.04199-0.153367 0.06298-0.114295 0.04702-0.227337 0.09444-0.339599 0.145131-0.16248 0.07359-0.321183 0.151726-0.479273 0.23276-0.158132 0.08095-0.314766 0.163632-0.468318 0.251928-0.617774 0.355233-1.198772 0.770804-1.733598 1.234996-0.06344 0.05505-0.124068 0.110495-0.186231 0.167038-0.130294 0.11829-0.259085 0.239843-0.383419 0.364201-0.124279 0.124431-0.245901 0.250386-0.364247 0.38063-0.177547 0.19528-0.348851 0.397359-0.512138 0.605177-0.326599 0.415482-0.622401 0.856538-0.887338 1.317145-0.08833 0.153495-0.173775 0.307447-0.2547 0.465519-0.04047 0.07905-0.07907 0.158118-0.117757 0.238237-0.115936 0.240457-0.224593 0.486893-0.323168 0.736616-0.03281 0.08327-0.06495 0.167706-0.09586 0.251927-0.123465 0.336904-0.229919 0.680955-0.320428 1.03236-0.0447 0.175408-0.0866 0.352328-0.123241 0.531239v0.0027c-0.03664 0.17902-0.06811 0.357477-0.09586 0.539454-0.02775 0.1821-0.0496 0.365474-0.06847 0.550409-0.03759 0.369705-0.05752 0.745725-0.05752 1.125461 0 0.379682 0.01991 0.755687 0.05752 1.125461 0.01873 0.184867 0.04058 0.36835 0.06847 0.550408 0.02775 0.181993 0.05936 0.363283 0.09586 0.542194 0.03664 0.178912 0.07812 0.355599 0.123241 0.53124 0.09051 0.351404 0.197009 0.695455 0.320428 1.032359 0.06166 0.168403 0.127644 0.333953 0.197186 0.498379 0.06945 0.164409 0.144682 0.32713 0.221835 0.487426 0.03856 0.08013 0.07729 0.161903 0.117759 0.240975 0.08093 0.158032 0.166336 0.311984 0.254698 0.465519 0.264926 0.460606 0.560767 0.901553 0.887339 1.317144 0.163313 0.20775 0.334591 0.409816 0.512137 0.605177 0.118403 0.130291 0.239763 0.256272 0.364247 0.38063 0.124419 0.12443 0.253191 0.245825 0.383419 0.364201 0.586 0.532562 1.228787 1.001965 1.919829 1.399296 0.153565 0.08818 0.310187 0.173741 0.468319 0.254666 0.316222 0.161957 0.639172 0.309471 0.972239 0.440873 0.166471 0.06568 0.336304 0.128582 0.506659 0.186209 1.107428 0.374734 2.293458 0.577791 3.527448 0.577791 0.841285 0 1.6612-0.0951 2.448399-0.273834 0.367424-0.08355 0.726568-0.18471 1.079048-0.303957 0.170396-0.05751 0.340038-0.120617 0.50666-0.186209 0.333025-0.131244 0.658755-0.278847 0.974977-0.440873 0.158132-0.08095 0.312097-0.163671 0.465581-0.251928 0.691084-0.397263 1.336567-0.869539 1.922567-1.402034 0.130294-0.118431 0.256305-0.239844 0.38068-0.364201 0.124419-0.124291 0.245875-0.250426 0.364247-0.38063 0.177505-0.195279 0.348892-0.397359 0.512138-0.605177 0.258403-0.328726 0.497363-0.672381 0.71754-1.029618 0.05825-0.09444 0.117169-0.191107 0.172537-0.287526 0.08832-0.153455 0.171035-0.307406 0.251961-0.465519 0.04047-0.07905 0.08181-0.160857 0.120507-0.240975 0.07739-0.160228 0.149546-0.322934 0.219096-0.487426 0.06959-0.164495 0.13558-0.32988 0.197187-0.498379 0.123465-0.336904 0.229933-0.68101 0.320428-1.032359 0.04525-0.175764 0.0866-0.352328 0.123241-0.53124 0.0365-0.179061 0.0707-0.360174 0.09859-0.542194 0.02775-0.182058 0.0496-0.365499 0.06847-0.550408 0.03759-0.369692 0.05752-0.745724 0.05752-1.125461 0-0.379682-0.01991-0.755768-0.05752-1.125461-0.01887-0.184945-0.04058-0.368305-0.06847-0.550403-0.02775-0.181992-0.06195-0.360545-0.09859-0.539456s-0.07799-0.358379-0.123241-0.533977c-0.09051-0.351364-0.197051-0.695456-0.320428-1.03236-0.03076-0.08422-0.06318-0.168618-0.09586-0.251927-0.09844-0.249724-0.204543-0.493421-0.320428-0.733878-0.03856-0.08013-0.08004-0.159165-0.120508-0.238235-0.08094-0.158074-0.163612-0.314751-0.251959-0.46826-0.264938-0.460647-0.563507-0.901553-0.890079-1.317145-0.163314-0.207736-0.33455-0.409816-0.512138-0.605177-0.118262-0.130151-0.239801-0.256272-0.364246-0.38063-0.124277-0.124431-0.250454-0.245866-0.380682-0.364201-0.252249-0.229266-0.515918-0.446484-0.788746-0.651726-0.36097-0.271584-0.740284-0.521273-1.133821-0.747569-0.153552-0.08817-0.307517-0.173756-0.46558-0.254667-0.07192-0.03681-0.143621-0.07163-0.216358-0.106793-0.08736-0.04225-0.177072-0.08603-0.265654-0.125959-0.03705-0.01677-0.0751-0.0302-0.112289-0.04654-0.126199-0.05546-0.252039-0.110859-0.380679-0.161562-0.0014-7.36e-4 -0.0041-0.0013-0.0055-0.0028-0.137023-0.05383-0.276609-0.104732-0.416283-0.153348-0.02817-0.0095-0.05647-0.02058-0.08491-0.03013-0.325698-0.110256-0.658285-0.205173-0.996888-0.284789-0.105825-0.02495-0.21076-0.04652-0.317689-0.06846-0.07711-0.0158-0.155172-0.03252-0.232788-0.04654-0.578592-0.105208-1.171076-0.164407-1.77742-0.175254-0.06686-0.0012-0.135468-0.0028-0.202663-0.0028zm0 0.591483c0.711375 0 1.406937 0.0715 2.078675 0.208114-0.02817 0.07414-0.119623 0.04082-0.197187 0.07668-0.07273 0.03381-0.100679 0.103162-0.178015 0.117743-0.214926 0.04047-0.391857-0.05336-0.577866-0.04654-0.0083 0.08041 0.08976 0.127487 0.139675 0.153347 0.16859 0.08832 0.307325 0.07651 0.545 0.07119 0.121825-0.0027 0.262327 0.03636 0.366987-0.0356 0.06631-0.04524 0.06226-0.147253 0.117758-0.202637 0.02366-0.02344 0.05675-0.04569 0.09586-0.06571 0.116763 0.02754 0.232478 0.05615 0.347816 0.08763-0.01942 0.07959-0.146236 0.06051-0.147891 0.167039 0.08217 0.04933 0.273917-0.02545 0.347816-0.109541 0.02858 0.0081 0.05647 0.01606 0.0849 0.02465 0.167168 0.05083 0.332145 0.105462 0.495704 0.1643 0.233138 0.08396 0.462275 0.176816 0.687416 0.276575-0.0432 0.02549-0.09071 0.05764-0.128724 0.05751-0.09776-6.15e-4 -0.137529-0.130389-0.246482-0.08215-0.0095 0.126337 0.133883 0.177141 0.224573 0.235497 0.09817 0.06323 0.200623 0.125594 0.235529 0.235498-0.09612 0.203742-0.25038-0.0095-0.402591-0.01094-0.167741-0.0012-0.410261 0.317311-0.553216 0.05749 0.03555-0.137665 0.187467-0.159841 0.224573-0.295742-0.03267 0.0055-0.0644 0.01744-0.09586 0.03012-0.05619 0.02221-0.112471 0.05135-0.1698 0.08215-0.0752 0.04047-0.154165 0.08129-0.243744 0.101325-0.08244 0.01813-0.161877 0.01421-0.235528 0.0356-0.14141 0.04143-0.242034 0.144734-0.391634 0.199901-0.05837 0.0214-0.128204 0.0153-0.18897 0.03559-0.142683 0.04755-0.312922 0.133909-0.460102 0.213591-0.150473 0.08122-0.320108 0.165417-0.413543 0.246451-0.05045 0.04347-0.182554 0.197279-0.178015 0.246451 0.0055 0.07018 0.139099 0.09527 0.142413 0.167038-0.0028 0.04347-0.07784 0.136741-0.02465 0.199901 0.0484 0.05751 0.146489 0.01192 0.249221 0.02465 0.180582 0.02235 0.299666 0.170037 0.438192 0.246451 0.104732 0.05777 0.259678 0.127459 0.377941 0.142393 0.162357 0.02031 0.344852-0.04772 0.366986 0.08215 0.02147 0.124837-0.154523 0.168117-0.167061 0.246453 0.0875 0.11529-0.05793 0.170029-0.05752 0.271096 3.84e-4 0.08177 0.100931 0.206178 0.188971 0.213591 0.11909 0.0095 0.292858-0.116733 0.342337-0.235498 0.0588-0.141515 0.0344-0.335079 0.142413-0.438136 0.550713 0.01513 1.015948-0.24915 0.980455-0.81329-0.0041-0.05574-0.0364-0.12771-0.02465-0.188946 0.01722-0.09118 0.174231-0.166755 0.153368-0.28205 0.05934-0.01826 0.09563-0.06651 0.125975-0.12049 0.04525-0.08041 0.08011-0.172315 0.164323-0.202638 0.0055-0.0027 0.01-0.0041 0.01643-0.0055 0.04812-0.01094 0.100426-0.0018 0.153367 0.01374 0.09434 0.02781 0.196896 0.07609 0.309473 0.06846 0.05728-0.0041 0.131401-0.05472 0.188969-0.04654 0.115529 0.01608 0.184329 0.155913 0.271133 0.221805 0.0767 0.0586 0.158436 0.03966 0.178015 0.117743-0.0227 0.130964-0.114196 0.137175-0.106807 0.257406v0.0028c0.0083 0.108069 0.121881 0.19194 0.178016 0.202637 0.08614 0.01608 0.209782-0.03032 0.29578-0.0712 0.09283-0.04388 0.176349-0.139488 0.257437-0.205376 0.115809 0.08886 0.230308 0.180455 0.342338 0.273835 0.01234 0.05246 0.02054 0.09942 0.02465 0.13144 0.01655 0.127558-0.01587 0.224887-0.01094 0.342294 0.01517 0.19889 0.265354 0.177834 0.388895 0.282051 0.03719 0.03162 0.05127 0.112274 0.08216 0.153347 0.06001 0.07986 0.133099 0.08187 0.142414 0.167038 0.02214 0.203743-0.183669 0.218978-0.164323 0.446352-0.04266 0.08818-0.151108 0.08505-0.142412 0.202638 0.0136 0.186215 0.280516 0.04363 0.353292 0.188947 0.03938 0.07809-0.0069 0.135113-0.0356 0.246451 0.09173 0.109022 0.09328 0.281817-0.06847 0.28205-0.09829 0-0.125176-0.104172-0.224573-0.128707-0.05523-0.01374-0.132285-0.01192-0.202665-0.02465-0.06016-0.01094-0.131977-0.02879-0.18897-0.0356-0.145895-0.0173-0.302624 0.02645-0.388896-0.05751 0.140631-0.18645 0.325847-0.370673 0.50666-0.531239 0.05373-0.04796 0.169784-0.08191 0.142413-0.177995-0.100623-0.08818-0.222764 0.0069-0.31769 0.06024-0.09967 0.05601-0.218916 0.13667-0.331384 0.153348-0.195456 0.0289-0.456502-0.05756-0.616207 0.04654-0.02202 0.08899 0.181777 0.05462 0.153368 0.188947-0.0782 0.0122-0.150683 0.01906-0.210882-0.0356-0.05497-0.04933-0.02471-0.12359-0.06025-0.153348-0.06056-0.05015-0.287162-0.06331-0.388896-0.04654-0.124138 0.02018-0.234879 0.09391-0.249221 0.199899 0.149134 0.06978 0.395046-0.07132 0.449146 0.106794-0.08176 0.146802-0.272323 0.227611-0.246482 0.424444 0.0095 0.07605 0.09929 0.177648 0.164321 0.188946 0.06536 0.01094 0.10117-0.05255 0.164323-0.04654 0.06686 0.0069 0.05297 0.08004 0.131457 0.06846 0.113748-0.04851 0.176399-0.207312 0.306735-0.199899 0.156396 0.189515-0.140878 0.282179-0.306735 0.342295-0.189167 0.06842-0.436501 0.106456-0.580605 0.167038-0.07561 0.03148-0.359435 0.306318-0.39985 0.09311-0.02884-0.153767 0.139478-0.108952 0.175277-0.235498-0.182933-0.03557-0.351143 0.07917-0.517615 0.142395-0.237526 0.08968-0.641041 0.14443-0.698368 0.410753-0.01094 0.05329 0.02185 0.153416-0.01374 0.188944-0.0283 0.02862-0.197082 0.03516-0.271132 0.06024-0.114028 0.03911-0.214386 0.120674-0.284824 0.139657-0.05319 0.01458-0.130616 0.01164-0.164322 0.02465-0.09389 0.03639-0.127728 0.162112-0.235487 0.246457-0.04416 0.03448-0.142879 0.06109-0.178015 0.09585-0.06125 0.06078-0.07007 0.212699-0.178017 0.235498-0.06864 0.0055-0.124349-0.0502-0.188969-0.01094-0.0083 0.150456 0.05453 0.354478-0.01094 0.506595-0.139983 0.113929-0.294718 0.19255-0.473796 0.293004-0.09898 0.05574-0.187117 0.07162-0.306736 0.131442-0.0849 0.04224-0.16256 0.142398-0.260179 0.199895-0.225645 0.132604-0.497442 0.2886-0.495705 0.624344 3.82e-4 0.07264 0.03726 0.153319 0.04655 0.238236 0.0055 0.05001-0.0055 0.09876 0 0.153349 0.01408 0.123336 0.103497 0.279023 0 0.364198-0.159088-0.06514-0.362532-0.08683-0.473795-0.199899-0.03048-0.116383 0.06338-0.211621 0.0493-0.317648-0.01094-0.08517-0.132874-0.238275-0.202663-0.249189-0.07192-0.01094-0.136646 0.06624-0.210881 0.06024-0.08833-0.0069-0.171402-0.129269-0.284825-0.142395-0.166239-0.01935-0.289672 0.03658-0.473796 0.01094-0.178242 0.09499-0.227955 0.265912-0.446408 0.249189-0.07697-0.0055-0.149342-0.06389-0.238267-0.08215-0.09639-0.0199-0.241984-0.05623-0.342337-0.04929-0.201185 0.0136-0.347539 0.159585-0.520353 0.249191-0.152486 0.07931-0.368263 0.177991-0.413544 0.342293-0.02489 0.08846-0.0042 0.211152-0.0356 0.293004-0.02092 0.05382-0.06509 0.102124-0.09312 0.153347-0.132481 0.2416-0.242984 0.561611-0.142413 0.909131 0.01491 0.05151 0.145675 0.343801 0.199927 0.402539 0.06098 0.06528 0.240001 0.162502 0.342336 0.164299 0.08655 0.0014 0.189978-0.04525 0.273871-0.06024 0.0972-0.0173 0.218385-0.01834 0.306735-0.04654 0.255517-0.08163 0.20431-0.425972 0.460102-0.542192 0.1117-0.05041 0.241847-0.06111 0.438192-0.07119 0.06234 0.05233 0.09078 0.14478 0.08216 0.224546-0.0069 0.06023-0.06509 0.114014-0.09586 0.199899-0.0268 0.07523-0.03099 0.163818-0.05752 0.224545-0.03514 0.07945-0.114238 0.13883-0.142413 0.213591-0.01845 0.04865-0.0066 0.109443-0.02192 0.153348-0.0272 0.07769-0.133169 0.130922-0.0849 0.210853 0.253058 0.100441 0.559699-0.02719 0.780531 0.01374 0.09325 0.0169 0.286561 0.127698 0.284825 0.271099-0.0011 0.107255-0.08423 0.175567-0.09586 0.293002-0.01436 0.147622-0.07559 0.329569-0.08216 0.44909-0.01094 0.19574 0.287013 0.533923 0.495705 0.531238 0.224673-0.0027 0.356469-0.223847 0.627162-0.106792 0.08983 0.03871 0.185634 0.185189 0.284825 0.177993 0.08176-0.0055 0.202777-0.150236 0.257438-0.24919 0.06658-0.120618 0.0714-0.221228 0.188971-0.282051 0.126873-0.06556 0.229304-0.03548 0.391633-0.09585 0.07247-0.02685 0.134613-0.07264 0.199927-0.117743 0.05728-0.03924 0.117533-0.142595 0.188969-0.07119 0.09434 0.09404-0.115584 0.148505-0.0356 0.249191 0.163943 0.08668 0.248271-0.160527 0.366986-0.164302 0.03787-0.0012 0.168139 0.07333 0.235529 0.117743 0.09215 0.06037 0.123717 0.144623 0.224573 0.164301 0.06481 0.0122 0.169092-0.02336 0.260177-0.01094 0.120591 0.01718 0.19344 0.120476 0.284824 0.117743 0.111293-0.0027 0.164869-0.124739 0.260176-0.142395 0.208609-0.03816 0.286093 0.02328 0.377942 0.153347 0.102951 0.01785 0.105685-0.119439 0.199925-0.07119-0.05169 0.102756 0.01882 0.149737 0.06025 0.235498 0.0268 0.05505 0.02154 0.0939 0.04655 0.117743 0.05633 0.0537 0.166559 0.05459 0.249221 0.106793 0.08723 0.05479 0.135468 0.156349 0.235529 0.271097 0.102951 0.117337 0.276057 0.240617 0.413544 0.24919 0.129887 0.0081 0.234957-0.03787 0.342337-0.02465 0.244485 0.02999 0.395859 0.150645 0.566911 0.282049 0.09556 0.07333 0.182939 0.125763 0.213619 0.213592 0.0216 0.06132 0.01094 0.142083 0.0356 0.210852 0.05223 0.146926 0.266586 0.219827 0.188969 0.473735 0.03555 0.07455 0.114239 0.101227 0.199925 0.153347 0.0685 0.04169 0.128457 0.127712 0.202664 0.139657 0.048 0.0081 0.100847-0.01332 0.142413-0.01094 0.134402 0.0095 0.225879 0.06181 0.342338 0.106794 0.07219 0.02781 0.162823 0.03862 0.210879 0.07119 0.06002 0.04047 0.06843 0.175024 0.142414 0.210851 0.0484 0.02345 0.157724-0.0095 0.238267 0 0.126872 0.01458 0.298944 0.09366 0.413542 0.09585 0.06959 0.0014 0.127252-0.02942 0.188971-0.02465 0.143489 0.01094 0.255682 0.101465 0.366987 0.202637-1.423718 2.294938-3.714381 3.99882-6.411301 4.649717-0.0095-0.103442-0.0393-0.209115-0.04382-0.312171-0.0095-0.224198 0.02623-0.381583-0.01094-0.588745-0.02748-0.156698-0.0639-0.397041-0.120506-0.495642-0.0633-0.109709-0.31019-0.294506-0.435452-0.364199-0.08272-0.04579-0.181047-0.0625-0.271133-0.106794-0.192459-0.09433-0.567329-0.294375-0.651808-0.484707-0.02447-0.05479-0.0203-0.127782-0.04655-0.188947-0.05127-0.120883-0.158855-0.225702-0.235528-0.342294-0.145978-0.222466-0.263726-0.501421-0.413544-0.731139-0.07575-0.116663-0.141529-0.249376-0.224574-0.342293-0.04867-0.05479-0.204586-0.106498-0.224574-0.188946-0.02666-0.109163-0.1087-0.258792-0.09586-0.342295 0.01709-0.112569 0.235871-0.201227 0.235529-0.303956-3.83e-4 -0.08722-0.115192-0.139502-0.139675-0.213589-0.05961-0.180248 0.03284-0.285283 0.104073-0.435398 0.02352-0.04933 0.04674-0.13067 0.0712-0.16704 0.04334-0.06487 0.131262-0.0831 0.188971-0.153348 0.03227-0.03938 0.05375-0.119552 0.09586-0.175255 0.08983-0.119117 0.234175-0.163584 0.271131-0.271096 0.03008-0.08763 0.0491-0.52709 0.01374-0.673634-0.02051-0.08491-0.10124-0.155161-0.131457-0.235498-0.05345-0.142346-0.06404-0.298808-0.21088-0.295741-0.09064 0.0014-0.155376 0.103806-0.213619 0.167038-0.01388 0.0841-0.0081 0.174224-0.09586 0.199899-0.134402 0.03966-0.185594-0.141506-0.342345-0.188944-0.06234-0.01894-0.160906-0.01816-0.199925-0.0356-0.114435-0.05124-0.15053-0.217126-0.271131-0.28205-0.100904-0.05384-0.188095-0.03503-0.249223-0.117743-0.02544-0.05696-0.0069-0.161932-0.01374-0.238237-0.12948-0.07564-0.238065-0.357871-0.388896-0.424443-0.09994-0.04443-0.252868-0.03976-0.37794-0.08215-0.0588-0.0199-0.105615-0.0443-0.167061-0.05751-0.07575-0.0169-0.152214-0.01985-0.210881-0.04929-0.233997-0.115836-0.359291-0.489976-0.649071-0.481949-0.123592 0.0027-0.244031 0.11843-0.356033 0.117743-0.111293-6.13e-4 -0.298544-0.08868-0.438192-0.153347-0.14506-0.06732-0.304853-0.103246-0.424498-0.164301-0.09665-0.04933-0.164755-0.140555-0.249221-0.177992-0.06467-0.02862-0.15782-0.03243-0.210881-0.05751-0.07547-0.03571-0.155267-0.112751-0.249221-0.177992-0.08914-0.0616-0.185471-0.155692-0.188971-0.235499-0.0041-0.0924 0.08628-0.171341 0.09586-0.260143 0.03048-0.280891-0.178986-0.483037-0.309473-0.648988-0.09665-0.123337-0.209771-0.228157-0.306734-0.342295 0.0055-0.07577 0.0055-0.08868 0-0.164299-0.07342-0.07114-0.136029-0.17823-0.213618-0.284789-0.07014-0.09608-0.204199-0.198909-0.221836-0.306694-0.02174-0.132605 0.05045-0.246491 0-0.375155-0.08409-0.213515-0.38329-0.118023-0.345076 0.1643 0.01094 0.07781 0.12017 0.182993 0.153368 0.260143 0.03405 0.07864 0.02854 0.176367 0.06025 0.271096 0.03048 0.09077 0.12167 0.168845 0.153367 0.271098 0.05017 0.161493 0.04978 0.334454 0.09586 0.435398 0.04061 0.08968 0.187948 0.176225 0.104072 0.284788-0.111841 0.02316-0.152285-0.08841-0.221836-0.153348-0.03883-0.03612-0.18128-0.104914-0.202664-0.188946-0.01791-0.06937 0.04529-0.164273 0.02465-0.24919-0.04061-0.166455-0.376751-0.171-0.37794-0.342294-6.16e-4 -0.107522 0.138399-0.120574 0.139675-0.224544 9.17e-4 -0.113803-0.155324-0.210207-0.18897-0.306696-0.03077-0.08845-0.03507-0.228807-0.04655-0.353246-0.01094-0.11679 2e-3 -0.252185-0.02465-0.342294-0.0242-0.08109-0.146343-0.191983-0.224575-0.235499-0.103498-0.05751-0.18486-0.03353-0.235527-0.117743-0.04403-0.07359-0.07259-0.227378-0.08216-0.306695-0.01709-0.141842-0.0055-0.297707-0.01374-0.449089-0.0081-0.151614-0.02325-0.297117 0-0.460043 0.05851-0.11407 0.167688-0.169032 0.227312-0.282051 0.04156-0.07864 0.04622-0.176492 0.09312-0.260142 0.08655-0.154068 0.2758-0.294479 0.402596-0.446351 0.136716-0.163607 0.262329-0.322313 0.342338-0.509333 0.02872-0.06637 0.104184-0.211616 0.09312-0.293003-0.01559-0.113382-0.227793-0.207251-0.210881-0.342294 0.01094-0.08367 0.128822-0.08447 0.164323-0.167039 0.01819-0.04265 0.03465-0.159952 0.0356-0.210853 0.0014-0.113803-0.05857-0.231738-0.0356-0.353247 0.01941-0.103709 0.175262-0.14632 0.09586-0.260143-0.07875-0.11271-0.222313 0.05935-0.309473-0.01374-0.07998-0.06704 0.01726-0.147733 0.02465-0.271095 0.0028-0.04905-0.02984-0.10333-0.02465-0.139657 0.0069-0.05274 0.112247-0.142585 0.0849-0.177993-0.04266-0.05396-0.08926-0.162159-0.156106-0.249189 1.318197-1.054306 2.898373-1.797765 4.625667-2.111268h0.0028c0.02147 0.03652 0.03773 0.0799 0.09037 0.09585 0.10295-0.05329 0.207005 0.0041 0.320428 0 0.110467-0.0041 0.209619-0.05468 0.331383-0.0356 0.215185 0.03367 0.515128 0.245549 0.684675 0.13144 0.04266-0.0289 0.03266-0.08133 0.07121-0.156086 0.03062-0.05982 0.07742-0.123463 0.106806-0.19716 0.08573-0.0027 0.171317-0.0028 0.257439-0.0028z" style="color:#4d4d4d;fill:#f9f9f9"/>
</svg>
