<?xml version="1.0" encoding="UTF-8"?>
<svg id="svg5453" version="1.1" viewBox="0 0 64 64" xmlns="http://www.w3.org/2000/svg">
 <defs id="defs5455">
  <linearGradient id="linearGradient833" x1="32.010437" x2="31.962496" y1="57.89262" y2="15.119835" gradientTransform="translate(0,-3.8146973e-6)" gradientUnits="userSpaceOnUse">
   <stop id="stop827" style="stop-color:#ffca28" offset="0"/>
   <stop id="stop829" style="stop-color:#ffd351" offset="1"/>
  </linearGradient>
 </defs>
 <path id="folderTab-3" d="m4 6c-0.55122 0.05512-1 0.446-1 1v42h58v-38c0-1-1-1-1-1h-27c-2-4-6-4-6-4h-22z" style="fill-rule:evenodd;fill:#ffb437"/>
 <path id="folderPaper-6" d="m7 13h50v32h-50z" style="color-rendering:auto;color:#000000;fill:#fffbec;image-rendering:auto;isolation:auto;mix-blend-mode:normal;shape-rendering:auto;solid-color:#000000;text-decoration-color:#000000;text-decoration-line:none;text-decoration-style:solid;white-space:normal"/>
 <path id="folderFront-2" d="m39 14.999996s-4 0-6 4h-31s-0.1319813 0.01691-0.2890625 0.05859c-0.045956 0.01404-0.091922 0.02277-0.1347656 0.04297-0.2742277 0.109838-0.5761719 0.34321-0.5761719 0.89844v37c0 0.55397 0.44603 1 1 1h60c0.55397 0 1-0.44603 1-1v-41c0-0.55397-0.44603-1-1-1h-1z" style="fill-rule:evenodd;fill:url(#linearGradient833)"/>
 <path id="path821" d="m29.885214 26.001953a9.018129 9.018129 0 0 0-6.244141 2.640625 9.018129 9.018129 0 0 0 0 12.753906 9.018129 9.018129 0 0 0 11.167969 1.248047l5.355469 5.355469 2.835937-2.833985-5.353515-5.353515a9.018129 9.018129 0 0 0-1.251954-11.169922 9.018129 9.018129 0 0 0-6.509765-2.640625zm0.220703 3.005859a6.012086 6.012086 0 0 1 4.162109 1.759766 6.012086 6.012086 0 0 1 0 8.501953 6.012086 6.012086 0 0 1-8.501953 0 6.012086 6.012086 0 0 1 0-8.501953 6.012086 6.012086 0 0 1 4.339844-1.759766z" style="fill:#f9f9f9;paint-order:fill markers stroke"/>
</svg>
