<?xml version="1.0" encoding="UTF-8"?>
<svg id="svg5453" version="1.1" viewBox="0 0 64 64" xmlns="http://www.w3.org/2000/svg">
 <defs id="defs5455">
  <linearGradient id="linearGradient833-3" x1="32.010437" x2="31.962496" y1="57.89262" y2="15.119835" gradientTransform="translate(0,-1.8e-6)" gradientUnits="userSpaceOnUse">
   <stop id="stop827-6" style="stop-color:#ffca28" offset="0"/>
   <stop id="stop829-7" style="stop-color:#ffd351" offset="1"/>
  </linearGradient>
 </defs>
 <path id="folderTab-3" d="m4 6.000002c-0.55122 0.05512-1 0.446-1 1v42h58v-38c0-1-1-1-1-1h-27c-2-4-6-4-6-4h-22z" style="fill-rule:evenodd;fill:#ffb437"/>
 <path id="folderPaper-6" d="m7 13.000002h50v32h-50z" style="color-rendering:auto;color:#000000;fill:#fffbec;image-rendering:auto;isolation:auto;mix-blend-mode:normal;shape-rendering:auto;solid-color:#000000;text-decoration-color:#000000;text-decoration-line:none;text-decoration-style:solid;white-space:normal"/>
 <path id="folderFront-2" d="m39 14.999998s-4 0-6 4h-31s-0.1319813 0.01691-0.2890625 0.05859c-0.045956 0.01404-0.091922 0.02277-0.1347656 0.04297-0.2742277 0.109838-0.5761719 0.34321-0.5761719 0.89844v37c0 0.55397 0.44603 1 1 1h60c0.55397 0 1-0.44603 1-1v-41c0-0.55397-0.44603-1-1-1h-1z" style="fill-rule:evenodd;fill:url(#linearGradient833-3)"/>
 <path id="Page-1" d="m37.744889 40.866869c0-0.147311-0.216825-0.319172-0.650489-0.515584 0.03156-0.12276 0.06108-0.235286 0.0887-0.337586 0.02756-0.1023 0.04734-0.208691 0.05911-0.319172 0.01185-0.11049 0.02363-0.198465 0.03548-0.263936 0.01185-0.06552 0.01382-0.157536 0.0055-0.276206-0.0079-0.11867-0.01185-0.198456-0.01185-0.239377 0-0.04091-0.01382-0.130949-0.04137-0.270071-0.02755-0.13913-0.04333-0.223015-0.04734-0.251656-0.0039-0.02868-0.02363-0.130941-0.05911-0.306901-0.03548-0.175951-0.05715-0.284387-0.06508-0.325307-0.07886-0.392831-0.264138-0.814295-0.555878-1.264416-0.291731-0.45012-0.575581-0.757013-0.85155-0.920694 0.189239 0.163681 0.413953 0.503313 0.67415 1.018905 0.685972 1.325796 0.898856 2.463353 0.638659 3.412696-0.08673 0.327352-0.28385 0.499213-0.591353 0.515582-0.244426 0.03276-0.396211-0.04294-0.455339-0.227106-0.05911-0.18414-0.09069-0.525808-0.09462-1.02503-0.0039-0.499231-0.0493-0.937064-0.136013-1.313525-0.07097-0.319172-0.147837-0.601514-0.230626-0.847035-0.08279-0.24552-0.159666-0.431698-0.230633-0.558548-0.07097-0.126851-0.132065-0.227105-0.183311-0.300765-0.05126-0.07366-0.102501-0.135031-0.153756-0.18414-0.05126-0.04914-0.08082-0.07773-0.0887-0.08592-0.11039-0.507402-0.232603-0.928874-0.366639-1.264416-0.134043-0.335541-0.250345-0.564692-0.348897-0.687452-0.09857-0.122753-0.191209-0.257792-0.277939-0.405102-0.08673-0.147311-0.145866-0.310983-0.177408-0.491034-0.03156-0.171861-0.0079-0.390777 0.07097-0.656758 0.07885-0.26598 0.0966-0.468535 0.05323-0.607658-0.04341-0.139129-0.218826-0.241429-0.526337-0.3069-0.118272-0.02453-0.293702-0.0982-0.526305-0.220962-0.232596-0.12276-0.37255-0.188231-0.419856-0.196411-0.06304-0.0082-0.10645-0.114572-0.130103-0.31918-0.02363-0.2046 0.0079-0.413283 0.09462-0.626064 0.08673-0.212781 0.228654-0.323271 0.425767-0.331452 0.291739-0.02453 0.4928 0.0982 0.603183 0.368273 0.110398 0.270071 0.126154 0.507403 0.04734 0.712003-0.08673 0.1555-0.09461 0.263935-0.02363 0.325315 0.07097 0.06135 0.189238 0.0634 0.354816 0.0057 0.102493-0.03276 0.153748-0.180049 0.153748-0.441932v-0.454243c-0.03941-0.245521-0.09265-0.450113-0.159667-0.613793-0.06704-0.163681-0.149806-0.288486-0.248367-0.374417-0.09856-0.08592-0.191201-0.14731-0.277938-0.184132-0.08673-0.03683-0.193172-0.06755-0.319326-0.09207-0.843668 0.06543-1.194536 0.613785-1.052611 1.644968 0 0.122753-0.0039 0.184133-0.01185 0.184133-0.07097-0.07366-0.18726-0.116625-0.348905-0.128896-0.161629-0.0123-0.291731-0.01017-0.390292 0.0057-0.09856 0.01638-0.159667-4e-3 -0.18332-0.06135 0.0079-0.466482-0.05519-0.834754-0.189231-1.104826-0.134043-0.270103-0.311443-0.409232-0.532216-0.417414-0.212892-0.0081-0.376499 0.104345-0.49083 0.337587-0.114324 0.233241-0.179371 0.476708-0.195142 0.730409-0.0079 0.12276 0.0055 0.274162 0.04137 0.454212 0.03548 0.18005 0.08673 0.333496 0.153748 0.460346 0.06704 0.126851 0.128132 0.182088 0.183327 0.165726 0.07885-0.02453 0.141925-0.08184 0.189231-0.171861 0.03156-0.07366 0.0039-0.10639-0.08279-0.09821-0.05519 0-0.116294-0.05932-0.183319-0.177998-0.06704-0.11867-0.104472-0.255746-0.112361-0.411245-0.0079-0.180042 0.02763-0.331444 0.106449-0.454204 0.07885-0.12276 0.212884-0.180049 0.402115-0.171861 0.134043 0 0.240485 0.08592 0.319333 0.257792 0.07885 0.171861 0.116294 0.331442 0.112361 0.478761-0.0039 0.147311-0.0098 0.237332-0.01774 0.270064-0.173459 0.12276-0.29568 0.24143-0.366639 0.356001-0.06304 0.09821-0.171489 0.194366-0.325244 0.288485-0.153748 0.09412-0.234566 0.145266-0.242456 0.153447-0.102493 0.114579-0.163607 0.22506-0.183319 0.331451-0.0197 0.106391 0.0098 0.18005 0.0887 0.22097 0.110383 0.06551 0.208943 0.145257 0.29568 0.239376 0.08673 0.09412 0.149807 0.171862 0.189231 0.233242 0.03941 0.06135 0.112361 0.114571 0.218803 0.15959 0.106441 0.04498 0.246396 0.07162 0.419856 0.07977 0.370588 0.01638 0.772702-0.04498 1.206367-0.184141 0.01578-0.0082 0.106442-0.03683 0.272019-0.08592 0.165578-0.04914 0.301592-0.09207 0.408034-0.128904 0.106442-0.03683 0.222743-0.09002 0.348897-0.159581 0.126162-0.06958 0.208951-0.141175 0.248375-0.214834 0.07097-0.114564 0.149806-0.147304 0.236536-0.0982 0.03941 0.02453 0.06508 0.05932 0.07685 0.104345 0.01185 0.04498 0 0.09412-0.03548 0.147311-0.03548 0.0532-0.10053 0.09207-0.195142 0.116625-0.157696 0.04914-0.38044 0.137076-0.66823 0.263927-0.287799 0.126851-0.46717 0.206645-0.538136 0.239377-0.346927 0.155499-0.622888 0.24961-0.827897 0.282349-0.197121 0.04091-0.508557 0.03276-0.93434-0.02453-0.07885-0.01638-0.114324-0.0081-0.106442 0.02453 0.0079 0.03276 0.07489 0.110482 0.201061 0.233242 0.19712 0.18823 0.461258 0.278252 0.792415 0.27007 0.134043-0.0082 0.275968-0.03683 0.425775-0.08593 0.149814-0.04914 0.291731-0.106383 0.425775-0.17186 0.134043-0.06552 0.266108-0.137078 0.396211-0.214828 0.130094-0.07773 0.248366-0.14731 0.354808-0.20869 0.106442-0.06135 0.203032-0.110481 0.289762-0.147311 0.08674-0.03683 0.155725-0.04709 0.206972-0.03072 0.05126 0.01638 0.08477 0.06135 0.10053 0.135031 0 0.01638-0.0039 0.03479-0.01185 0.05524-0.0078 0.02045-0.02363 0.04091-0.04734 0.06135-0.02363 0.02045-0.04734 0.03886-0.07097 0.05524s-0.05715 0.03683-0.100531 0.06135c-0.04333 0.02453-0.07885 0.04294-0.106441 0.05524-0.02755 0.0123-0.06704 0.03276-0.118273 0.06135-0.05126 0.02861-0.08871 0.04709-0.112353 0.05525-0.220773 0.11458-0.486881 0.294622-0.798333 0.540142-0.311443 0.245521-0.573611 0.421465-0.786494 0.527863-0.212892 0.106382-0.406064 0.110481-0.579532 0.0123-0.165577-0.09003-0.413944-0.388732-0.745108-0.896134-0.173459-0.25371-0.272019-0.343731-0.295672-0.270071-0.0079 0.02453-0.01185 0.06551-0.01185 0.122752 0 0.2046-0.05911 0.435796-0.177408 0.693587-0.118272 0.2578-0.234574 0.484898-0.348898 0.681317-0.114331 0.196412-0.19712 0.433744-0.248374 0.712004-0.05126 0.278251-0.0055 0.536043 0.136013 0.773374-0.181349 0.04914-0.427745 0.417382-0.739189 1.104826-0.311451 0.687461-0.498711 1.264416-0.561788 1.730907-0.01578 0.14731-0.02167 0.429653-0.01774 0.847034 0.0039 0.417382-0.01774 0.658804-0.06508 0.724274-0.06304 0.19642-0.177408 0.208691-0.342986 0.03683-0.252307-0.253701-0.394232-0.638344-0.425775-1.153928-0.01578-0.22915 0-0.458301 0.04734-0.687452 0.03156-0.155499 0.02756-0.229151-0.01185-0.220969l-0.04734 0.06135c-0.28385 0.531961-0.244426 1.211217 0.118272 2.037798 0.03941 0.0982 0.137985 0.212782 0.295681 0.343723s0.252307 0.212781 0.28385 0.24552c0.157696 0.188231 0.567692 0.558549 1.230011 1.11097 0.66232 0.552413 1.028958 0.865449 1.099925 0.939101 0.126154 0.12276 0.195142 0.278251 0.206972 0.466482 0.01185 0.188231-0.04333 0.364183-0.165578 0.527863-0.122221 0.16368-0.301591 0.257799-0.538136 0.282349 0.06304 0.122761 0.177409 0.304848 0.342987 0.546278 0.165577 0.241422 0.27596 0.462392 0.331155 0.662894 0.05519 0.20051 0.08279 0.488988 0.08279 0.86545 0.362698-0.196412 0.390292-0.572874 0.08278-1.129377-0.03156-0.06543-0.07293-0.130942-0.124183-0.19642-0.05126-0.06543-0.0887-0.114563-0.112353-0.14731-0.02363-0.03276-0.03156-0.05728-0.02363-0.07366 0.02363-0.04091 0.07489-0.07977 0.153748-0.116617 0.07885-0.03683 0.157696-0.02664 0.236544 0.03072 0.362698 0.425563 1.017121 0.572874 1.96329 0.441932 1.048678-0.12276 1.746465-0.478761 2.093392-1.068004 0.181357-0.310992 0.315392-0.433752 0.40213-0.368281 0.09461 0.04914 0.134036 0.261891 0.118264 0.638352-0.0078 0.2046-0.09856 0.581053-0.272019 1.129384-0.07097 0.188231-0.09462 0.341677-0.07097 0.460339 0.02363 0.11867 0.118272 0.182095 0.28385 0.190276 0.02363-0.155492 0.08082-0.470573 0.171489-0.945236 0.09068-0.474671 0.143896-0.842952 0.159667-1.104834 0.01578-0.171861-0.0098-0.472619-0.07685-0.902279-0.06704-0.429653-0.09658-0.826575-0.0887-1.190757 0.0078-0.36419 0.09856-0.652667 0.272019-0.865449 0.118272-0.147319 0.319333-0.220969 0.603183-0.220969 0.0079-0.302811 0.143896-0.519675 0.408034-0.650623 0.264138-0.130941 0.549958-0.173907 0.857461-0.128897 0.307511 0.04498 0.544047 0.137085 0.709625 0.276208zm-7.427407-10.152149c0.02363-0.13913 0.01382-0.26189-0.0296-0.368281-0.04333-0.10639-0.0887-0.16777-0.136014-0.18414-0.07097-0.01638-0.106442 0.0123-0.106442 0.08593 0.01578 0.04091 0.03548 0.06551 0.05911 0.07366 0.07885 0 0.106442 0.06135 0.08279 0.18414-0.02363 0.163672 0.0079 0.245513 0.09461 0.245513 0.02363 0 0.03548-0.0123 0.03548-0.03683zm2.850324-0.196419c0-0.09002-0.0197-0.169817-0.05911-0.239378-0.03941-0.06958-0.08278-0.120706-0.130094-0.153454-0.04734-0.03276-0.08279-0.04498-0.10645-0.03683-0.110375 0.0081-0.137976 0.03683-0.08278 0.08593 0.01578 0.0082 0.03156 0.01638 0.04734 0.02453 0.11039 0.03276 0.181349 0.159582 0.212891 0.380552 0 0.02453 0.03156 0.01638 0.09461-0.02453zm7.687602 13.902438c0.08673 0.1023 0.134044 0.200502 0.141925 0.294621 0.0079 0.09411-0.0016 0.186186-0.0296 0.276207-0.02763 0.09002-0.0887 0.18005-0.18332 0.270071-0.09461 0.09002-0.18726 0.169816-0.27793 0.239377-0.09069 0.06958-0.208951 0.145266-0.354817 0.227106s-0.270049 0.149355-0.37255 0.202554c-0.102501 0.05321-0.228655 0.116618-0.378469 0.190277-0.149807 0.07366-0.256257 0.12685-0.319334 0.159581-0.299621 0.1555-0.636688 0.384642-1.011208 0.687453-0.374529 0.302802-0.672179 0.564692-0.892953 0.785654-0.134035 0.130949-0.402114 0.210736-0.804236 0.239385-0.402122 0.0286-0.75299-0.03072-1.052611-0.178005-0.141925-0.07366-0.258227-0.169816-0.348897-0.288485-0.09068-0.118663-0.155726-0.223007-0.19515-0.313029-0.03941-0.09003-0.126154-0.169823-0.260197-0.239384-0.134036-0.06958-0.319326-0.108444-0.55587-0.116625-0.346927-0.0081-0.859432-0.0123-1.537522-0.0123-0.149807 0-0.374521 0.0065-0.674142 0.01841-0.299621 0.0123-0.528276 0.02249-0.685972 0.03072-0.346928 0.0082-0.660342 0.06958-0.940251 0.184142-0.279909 0.114579-0.490822 0.23733-0.632747 0.36828-0.141925 0.130941-0.313422 0.247558-0.514483 0.349858s-0.411974 0.149355-0.632748 0.141175c-0.228654-0.0082-0.666252-0.135032-1.3128-0.380552-0.646556-0.245521-1.22213-0.421472-1.726753-0.527862-0.149814-0.03276-0.350875-0.07162-0.603183-0.116625-0.252315-0.04498-0.449428-0.08184-0.591353-0.110481-0.141925-0.0286-0.297651-0.06755-0.467168-0.116625-0.169527-0.04914-0.301592-0.108444-0.396211-0.177997-0.09461-0.06958-0.161637-0.149355-0.201061-0.239385-0.07885-0.18823-0.05126-0.460339 0.08279-0.816348 0.134043-0.356002 0.205001-0.579009 0.212883-0.669029 0.0079-0.130949-0.0079-0.294621-0.04734-0.491041-0.03941-0.196412-0.07885-0.370318-0.118272-0.521719-0.03941-0.151409-0.05715-0.300765-0.05323-0.448076 0.0039-0.147311 0.04537-0.257792 0.124191-0.331443 0.110391-0.09821 0.335097-0.1555 0.674141-0.171861 0.339046-0.01638 0.575582-0.06551 0.709625-0.147319 0.236545-0.14731 0.402122-0.290522 0.496734-0.429653 0.09462-0.139121 0.141925-0.347812 0.141925-0.626064 0 0.233242 0.208943-0.36828 0.177408-0.5647-0.02363-0.130941-0.03156-0.286432-0.02363-0.466474 0.0079-0.23734 0.04734-0.450121 0.118272-0.638352 0.07097-0.18823 0.165578-0.380552 0.28385-0.576963 0.118272-0.19642 0.205002-0.368281 0.260189-0.515591 0.06304-0.171862 0.167556-0.466483 0.313422-0.883864 0.145866-0.417383 0.262168-0.736554 0.348897-0.957516 0.08673-0.22097 0.205002-0.470573 0.354817-0.748832 0.149807-0.278252 0.303554-0.499215 0.46125-0.662895 0.867329-1.170312 1.356173-1.968229 1.466564-2.3938-0.09462-0.916603-0.157696-2.185093-0.189239-3.805518-0.01578-0.736562 0.07886-1.356482 0.28385-1.859803 0.205002-0.503312 0.622895-0.93092 1.253672-1.282831 0.307503-0.171861 0.717508-0.257792 1.23002-0.257792 0.417894-0.0081 0.835779 0.04709 1.253665 0.165726 0.417893 0.11867 0.768761 0.288486 1.052611 0.509447 0.449435 0.343731 0.810155 0.8409 1.082183 1.491522 0.272019 0.650623 0.388321 1.254182 0.348897 1.810693-0.03941 0.777474 0.07885 1.653149 0.354809 2.627042 0.268086 0.924784 0.792413 1.816821 1.573005 2.676142 0.433664 0.482852 0.825919 1.149837 1.176794 2.00097 0.350868 0.851133 0.585442 1.632689 0.703706 2.344692 0.06304 0.401012 0.08279 0.746779 0.05911 1.03731-0.02363 0.29053-0.07097 0.517636-0.141925 0.681308-0.07097 0.16368 0.102501 0.822492 0.212891 0.724283 0.0078 0.253701 0.03941 0.484897 0.09461 0.693587 0.05519 0.208691 0.11236 0.374417 0.171497 0.497177 0.05911 0.122752 0.139954 0.239377 0.242455 0.349858 0.102493 0.110481 0.18529 0.188231 0.248367 0.233241 0.06304 0.04506 0.147836 0.0982 0.254286 0.15959 0.106441 0.06135 0.171489 0.100245 0.195142 0.116616 0.157696 0.09821 0.279909 0.198465 0.366639 0.300765z" style="fill-rule:evenodd;fill:#f9f9f9"/>
</svg>
