<?xml version="1.0" encoding="UTF-8"?>
<svg id="svg5453" version="1.1" viewBox="0 0 64 64" xmlns="http://www.w3.org/2000/svg">
 <defs id="defs5455">
  <linearGradient id="linearGradient833" x1="32.010437" x2="31.962496" y1="57.89262" y2="15.119835" gradientTransform="translate(0,-3.8146973e-6)" gradientUnits="userSpaceOnUse">
   <stop id="stop827" style="stop-color:#ffca28" offset="0"/>
   <stop id="stop829" style="stop-color:#ffd351" offset="1"/>
  </linearGradient>
  <style id="current-color-scheme" type="text/css">.ColorScheme-Text {
        color:#4d4d4d;
      }</style>
 </defs>
 <path id="folderTab-3" d="m4 6c-0.55122 0.05512-1 0.446-1 1v42h58v-38c0-1-1-1-1-1h-27c-2-4-6-4-6-4h-22z" style="fill-rule:evenodd;fill:#ffb437"/>
 <path id="folderPaper-6" d="m7 13h50v32h-50z" style="color-rendering:auto;color:#000000;fill:#fffbec;image-rendering:auto;isolation:auto;mix-blend-mode:normal;shape-rendering:auto;solid-color:#000000;text-decoration-color:#000000;text-decoration-line:none;text-decoration-style:solid;white-space:normal"/>
 <path id="folderFront-2" d="m39 14.999996s-4 0-6 4h-31s-0.1319813 0.01691-0.2890625 0.05859c-0.045956 0.01404-0.091922 0.02277-0.1347656 0.04297-0.2742277 0.109838-0.5761719 0.34321-0.5761719 0.89844v37c0 0.55397 0.44603 1 1 1h60c0.55397 0 1-0.44603 1-1v-41c0-0.55397-0.44603-1-1-1h-1z" style="fill-rule:evenodd;fill:url(#linearGradient833)"/>
 <path id="path14135" d="m38.221926 30.000083c-2.623292 0-4.752303 2.101937-4.776102 4.701171l-2.976218 4.234368c-0.121242-0.01204-0.245322-0.01765-0.369816-0.01765-0.665114 0-1.287616 0.179295-1.821528 0.496092l-7.278262-2.552736 0.224253 4.435548 5.391814 1.914065c0.348818 1.59189 1.778421 2.789059 3.483723 2.789059 1.847118 0 3.372109-1.406088 3.548643-3.195315l4.573493-3.322259c2.637541 0 4.778074-2.118232 4.778074-4.736323 0-2.619571-2.140301-4.746103-4.778074-4.746103zm0 1.562504c1.767231 0 3.204397 1.4289 3.204397 3.18359 0 1.754766-1.437166 3.17383-3.204397 3.17383-1.767232 0-3.202425-1.419064-3.202425-3.17383 0-1.75469 1.435193-3.18359 3.202425-3.18359zm0.01379 0.624992c-1.412331 0-2.557223 1.140607-2.557223 2.542966 0 1.402312 1.144892 2.541021 2.557223 2.541021 1.412391 0 2.559195-1.138709 2.559195-2.541021 0-1.402359-1.146804-2.542966-2.559195-2.542966zm-8.135904 7.667969c1.453845 0 2.622132 1.159947 2.622132 2.603522-1e-5 1.443488-1.168287 2.603511-2.622132 2.603511-1.011283 0-1.883165-0.559086-2.321176-1.386718 0.431293 0.172808 0.861609 0.343576 1.292379 0.517579 1.068962 0.426525 2.286872-0.08688 2.716564-1.148433 0.429672-1.061354-0.09145-2.266918-1.160583-2.693368l-1.093708-0.433593c0.182013-0.03898 0.372213-0.06251 0.566524-0.06251z" style="color:#000000;fill:#f9f9f9"/>
</svg>
