<?xml version="1.0" encoding="UTF-8"?>
<svg id="svg5453" version="1.1" viewBox="0 0 64 64" xmlns="http://www.w3.org/2000/svg">
 <defs id="defs5455">
  <linearGradient id="linearGradient833" x1="32.010437" x2="31.962496" y1="57.89262" y2="15.119835" gradientTransform="translate(0,-3.8146973e-6)" gradientUnits="userSpaceOnUse">
   <stop id="stop827" style="stop-color:#ffca28" offset="0"/>
   <stop id="stop829" style="stop-color:#ffd351" offset="1"/>
  </linearGradient>
 </defs>
 <path id="folderTab-3" d="m4 6c-0.55122 0.05512-1 0.446-1 1v42h58v-38c0-1-1-1-1-1h-27c-2-4-6-4-6-4h-22z" style="fill-rule:evenodd;fill:#ffb437"/>
 <path id="folderPaper-6" d="m7 13h50v32h-50z" style="color-rendering:auto;color:#000000;fill:#fffbec;image-rendering:auto;isolation:auto;mix-blend-mode:normal;shape-rendering:auto;solid-color:#000000;text-decoration-color:#000000;text-decoration-line:none;text-decoration-style:solid;white-space:normal"/>
 <path id="folderFront-2" d="m39 14.999996s-4 0-6 4h-31s-0.1319813 0.01691-0.2890625 0.05859c-0.045956 0.01404-0.091922 0.02277-0.1347656 0.04297-0.2742277 0.109838-0.5761719 0.34321-0.5761719 0.89844v37c0 0.55397 0.44603 1 1 1h60c0.55397 0 1-0.44603 1-1v-41c0-0.55397-0.44603-1-1-1h-1z" style="fill-rule:evenodd;fill:url(#linearGradient833)"/>
 <path id="path4140" d="m41.000009 29.529406c-1.110012-0.370595-2.330007-0.529411-3.500002-0.529411-1.95001 0-4.050001 0.423527-5.500011 1.588233-1.450001-1.164706-3.549993-1.588233-5.499994-1.588233-1.950009 0-4.050002 0.423527-5.500002 1.588233v15.511766c0 0.264719 0.25 0.529429 0.500001 0.529429 0.100001 0 0.149999-0.05295 0.250009-0.05295 1.349991-0.688227 3.299982-1.164707 4.749992-1.164707 1.950001 0 4.049993 0.423536 5.500002 1.588234 1.349992-0.899996 3.800002-1.588234 5.500003-1.588234 1.649992 0 3.349992 0.317643 4.749993 1.111765 0.100001 0.05295 0.15 0.05295 0.249999 0.05295 0.250001 0 0.500001-0.2647 0.500001-0.529421v-15.458832c-0.6-0.476468-1.249992-0.794102-1.999991-1.058822m0 14.294134c-1.100019-0.370595-2.30001-0.529412-3.500002-0.529412-1.700001 0-4.150011 0.688229-5.500003 1.588234v-12.176469c1.349992-0.900015 3.800002-1.588253 5.500003-1.588253 1.199992 0 2.399983 0.158826 3.500002 0.529411z" style="fill:#f9f9f9;stroke-width:1.5277593"/>
</svg>
