<?xml version="1.0" encoding="UTF-8"?>
<svg id="svg18" version="1.1" viewBox="0 0 64 64" xmlns="http://www.w3.org/2000/svg">
 <g id="layer1" transform="translate(-384.57143 -483.798)">
  <path id="path4422" d="m425.57143 489.29799-6 6 11 11-11 11 6 6 17-17z" style="fill-rule:evenodd;fill:#3b3f42"/>
  <path id="rect4119" d="m403.44642 490.29797c1.73126 0 3.12501 1.39376 3.12501 3.12501 0 1.73126-1.39375 3.12501-3.12501 3.12501-1.73125 0-3.12501-1.39375-3.12501-3.12501 0-1.73125 1.39376-3.12501 3.12501-3.12501z" style="fill:#fa8865"/>
  <path id="rect4308" d="m395.07141 509.7988h3e-5c2.49299 0 4.49999 2.007 4.49999 4.49999 0 2.493-2.007 4.5-4.49999 4.5h-3e-5c-2.493 0-4.5-2.007-4.5-4.5 0-2.49299 2.007-4.49999 4.5-4.49999z" style="fill:#63c605"/>
  <path id="rect4312" d="m410.07144 529.29803c3.601 0 6.5 2.899 6.5 6.5s-2.899 6.5-6.5 6.5-6.5-2.899-6.5-6.5 2.899-6.5 6.5-6.5z" style="fill:#1b89f3"/>
 </g>
</svg>
