<?xml version="1.0" encoding="UTF-8"?>
<svg id="svg18" version="1.1" viewBox="0 0 48 48" xmlns="http://www.w3.org/2000/svg">
 <defs id="defs5455">
  <linearGradient id="linearGradient840-5" x1="25" x2="25" y1="46" y2="2.4967742" gradientTransform="matrix(.95550763 0 0 1 385.63925 499.798)" gradientUnits="userSpaceOnUse">
   <stop id="stop834" style="stop-color:#d4dadc" offset="0"/>
   <stop id="stop836" style="stop-color:#f6f7f8" offset="1"/>
  </linearGradient>
  <linearGradient id="linearGradient837-6" x1="24.904686" x2="25.083408" y1="15.789984" y2="4.0803065" gradientTransform="matrix(.95550763 0 0 1 385.63925 499.798)" gradientUnits="userSpaceOnUse">
   <stop id="stop824" style="stop-color:#bbbdb7" offset="0"/>
   <stop id="stop826" style="stop-color:#e1e1df" offset="1"/>
  </linearGradient>
  <linearGradient id="linearGradient841" x1="24.01103" x2="24.17132" y1="35.380108" y2="23.311045" gradientTransform="translate(384.57143,499.798)" gradientUnits="userSpaceOnUse">
   <stop id="stop833" style="stop-color:#ff2020" offset="0"/>
   <stop id="stop835" style="stop-color:#ff5050" offset="1"/>
  </linearGradient>
 </defs>
 <g id="layer1" transform="translate(-384.57143,-499.798)">
  <path id="path3348" d="m406.78089 545.75012c-4.59937-0.32999-8.34388-1.64455-9.96178-3.49723-0.57607-0.65966-0.73199-1.01294-0.90271-2.04536-0.47114-2.84925-5.10041-28.91569-5.22146-29.40097-0.82884-3.32261 2.55308-6.33199 8.96859-7.98063 1.46924-0.37757 3.70172-0.75147 5.47328-0.91668 1.59059-0.14833 5.28236-0.14833 6.87295 0 7.76112 0.72378 13.57092 3.52361 14.44637 6.96189 0.16905 0.66393 0.15464 1.17139-0.0593 2.08945-0.23144 0.99307-5.22313 29.30889-5.22313 29.62868 0 0.1298-0.12643 0.50081-0.28095 0.82445-0.78419 1.64238-3.41358 3.09784-6.96467 3.8552-1.9765 0.42154-5.07296 0.63002-7.14717 0.4812z" style="fill:url(#linearGradient840-5);stroke-width:.75057161"/>
  <path id="path3340-7" d="m406.50323 515.47578c-5.59713-0.29201-10.76932-1.91433-13.00284-4.07847-0.56681-0.5492-1.01865-1.33258-1.01708-1.76336 3e-3 -0.72905 0.85927-1.81848 2.06099-2.62117 5.14298-3.43523 15.78573-4.35002 23.58745-2.02744 2.69488 0.80227 4.73111 1.89541 5.85593 3.14371 0.7605 0.84399 0.9039 1.37953 0.5734 2.1414-0.77655 1.79009-4.23452 3.6127-8.58547 4.52516-1.75131 0.36728-3.4186 0.57582-5.48429 0.68592-1.80811 0.0964-2.03719 0.096-3.98809-6e-3z" style="fill:url(#linearGradient837-6);stroke-width:.75057161"/>
  <path id="path3370-3" d="m397.78657 513.12413c-2.25133-0.74544-2.29152-0.85389-2.31977-1.88226-0.0126-0.45748-0.0295-0.9082-0.0376-1.0016-0.0188-0.21725 4.54326-3.61455 4.86905-3.62586 0.13447-5e-3 0.41953 0.0609 0.63347 0.14564l0.38896 0.15414-0.37708 0.49132c-1.53716 2.00282-2.40827 3.29459-2.40791 3.57066 2.3e-4 0.17816 0.23052 0.85046 0.51176 1.494 0.28123 0.64354 0.49368 1.1886 0.47211 1.21124-0.0216 0.0226-0.82962-0.25816-1.733-0.55728z" style="fill:#f9de69"/>
  <path id="path3374-6" d="m419.50712 512.38659c-4e-4 -0.30368-0.29684-0.77388-1.07624-1.70706-1.20876-1.44724-1.22684-1.36498 0.35048-1.59431 0.69001-0.10032 0.77882-0.076 1.18295 0.3246 0.78543 0.77846 1.98581 2.3247 1.79863 2.44048-0.16952 0.14274-2.34203 1.11162-2.54524 1.11191-0.0822 1.2e-4 0.28972-0.34509 0.28942-0.57562z" style="fill-opacity:.99607843;fill:#1ba39c"/>
  <path id="path3361-7" d="m404.52924 514.54778c-1.63989-0.19509-4.57505-0.76081-5.001-0.8586-0.39545-0.0908-0.49455-0.42447-0.88747-1.44184-0.26056-0.67466-0.47383-1.29019-0.47394-1.36784-1.8e-4 -0.139 1.95413-2.77292 3.54222-4.77402 0.44652-0.56264 0.91712-1.02461 1.04579-1.0266 0.33269-5e-3 6.20258 0.72911 6.61602 0.82757 0.22981 0.0547 0.44173 0.30901 0.64018 0.76818 0.16316 0.37751 0.38966 0.72289 0.50335 0.76752 0.11368 0.0446 1.0303-0.0974 2.03692-0.31569 1.00662-0.21825 1.9632-0.39701 2.12574-0.39724 0.36824-5.3e-4 5.07731 5.06006 5.07782 5.45688 4.2e-4 0.32241-0.0221 0.6163-0.41975 0.75461-0.37698 0.13111-1.00679 0.39044-1.87017 0.6106-3.06356 0.78119-4.57232 1.07497-8.6735 1.12912-2.07358 0.0274-3.97756-0.0988-4.26221-0.13265z" style="fill:#ffffff"/>
  <path id="path3802" d="m406.29309 523.00966-1.54558 2.83483 2.47294 1.45257 1.35095-2.38986 0.4694 0.83174-0.43506 0.76151h2.51873l1.37385-2.42498-0.60679 0.35163-0.78996-1.41744h-4.71688zm6.72042 4.3809-2.47293 1.46429 1.35095 2.40156h-0.93879l-0.43505-0.7731-1.25936 2.22563 1.37384 2.43641v-0.70293h1.60283l2.15236-3.80682 0.20608-0.36317 0.0459-0.0939-1.62572-2.78802zm-10.31533 0.86692 0.60679 0.35157-0.80141 1.41736 2.15237 3.8069 0.19462 0.36329 0.0572 0.0936 3.17131-0.0469v-2.9283h-2.71336l0.4694-0.83169h0.87011l-1.25937-2.22582z" style="fill:url(#linearGradient841)"/>
 </g>
</svg>
