<?xml version="1.0" encoding="UTF-8"?>
<svg id="svg5" version="1.1" viewBox="0 0 16 16" xmlns="http://www.w3.org/2000/svg">
 <defs id="defs3051">
  <style id="current-color-scheme" type="text/css">.ColorScheme-Text {
        color:#4d4d4d;
      }</style>
 </defs>
 <path id="path2994" class="ColorScheme-Text" d="m5 2c-0.5522847 0-1 0.4477153-1 1s0.4477153 1 1 1 1-0.4477153 1-1-0.4477153-1-1-1zm5 0-1 1 3 3-3 3 1 1 4-4-4-4zm-6.5 4c-0.8284271 0-1.5 0.6715729-1.5 1.5s0.6715729 1.5 1.5 1.5 1.5-0.6715729 1.5-1.5-0.6715729-1.5-1.5-1.5zm3 5c-0.8284271 0-1.5 0.671573-1.5 1.5s0.6715729 1.5 1.5 1.5 1.5-0.671573 1.5-1.5-0.6715729-1.5-1.5-1.5z" style="fill:#4d4d4d"/>
</svg>
