<?xml version="1.0" encoding="UTF-8"?>
<svg id="svg6" version="1.1" viewBox="0 0 16 16" xmlns="http://www.w3.org/2000/svg">
 <defs id="defs3051">
  <style id="current-color-scheme" type="text/css">.ColorScheme-Text {
        color:#4d4d4d;
      }</style>
 </defs>
 <path id="circle862" d="m8 0a8 8 0 0 0-8 8 8 8 0 0 0 8 8 8 8 0 0 0 8-8 8 8 0 0 0-8-8zm3.080078 4.0078125c0.102411-0.014064 0.188986-0.0093631 0.259766 0.0136719 0.227493 0.5782462 0.247611 1.1008365 0.060547 1.5664062 0.399415 0.4349647 0.599609 0.9628939 0.599609 1.5820313 0 0.4349557-0.052757 0.8190975-0.15625 1.1542969-0.103686 0.3352768-0.236102 0.6025155-0.400391 0.8046874-0.164381 0.202171-0.370056 0.3736108-0.615234 0.5117188-0.245263 0.138201-0.482891 0.2373981-0.712891 0.2988281-0.2300944 0.0614299-0.4891653 0.1079519-0.7773434 0.1386719 0.2628643 0.230245 0.3925782 0.593466 0.3925782 1.089844v1.61914c0 0.01628 0.0077656 0.029602 0.0097656 0.044922a6.6563216 6.5721644 0 0 1-1.4570313 0.167969 6.6563216 6.5721644 0 0 1-1.4511719-0.164062c0.0025301-0.016891 0.0097657-0.030749 0.0097657-0.048829 0-0.015395-0.0015763-0.153102-0.0039063-0.414062-0.00233-0.261045-0.0039062-0.489331-0.0039062-0.683594l-0.1738282 0.029297c-0.111229 0.02067-0.2524682 0.029844-0.421875 0.027344-0.169314-0.00238-0.3434236-0.019355-0.5253906-0.052735-0.182065-0.033141-0.3530197-0.110257-0.5097656-0.230468-0.1566532-0.120303-0.2663113-0.278309-0.3320312-0.472657l-0.0761719-0.175781c-0.0505658-0.117569-0.1315141-0.247431-0.2402344-0.390625-0.1087202-0.143291-0.2168881-0.241819-0.328125-0.292969l-0.0527344-0.039062c-0.035388-0.02563-0.0692554-0.054044-0.0996093-0.089844-0.030354-0.0357929-0.0531824-0.0715218-0.0683594-0.1074218-0.015177-0.0357899-0.0030786-0.0667337 0.0371094-0.0898437 0.0404996-0.02306 0.1164449-0.0351563 0.2226562-0.0351563l0.1503906 0.0253907c0.101085 0.020481 0.2257885 0.0811957 0.375 0.1835937 0.1491109 0.1023134 0.2711281 0.2347964 0.3671875 0.3984374 0.1163554 0.209893 0.2574936 0.36848 0.421875 0.478516 0.1642883 0.110036 0.3292966 0.166015 0.4960938 0.166015 0.166805 0 0.3122127-0.013582 0.4335937-0.039062 0.121288-0.025555 0.2336402-0.064115 0.3398438-0.115234 0.0455325-0.342916 0.1689159-0.604883 0.3710937-0.789063-0.288178-0.030709-0.5472425-0.077372-0.7773437-0.1386719-0.2300005-0.061429-0.4657672-0.1605321-0.7109375-0.2988281-0.245271-0.138108-0.4495566-0.310999-0.6113281-0.515625-0.1617795-0.204711-0.2948435-0.4721302-0.3984376-0.8046875-0.1036014-0.3326518-0.15625-0.7154349-0.15625-1.1503906 0-0.6192309 0.2001944-1.1470748 0.5996094-1.5820313-0.1870934-0.4655697-0.1677704-0.9881601 0.0546875-1.5664062 0.1466019-0.0460331 0.3622125-0.0115991 0.6503907 0.1035156 0.2881781 0.115123 0.5007316 0.2131487 0.6347656 0.2949219 0.134034 0.0817734 0.2413763 0.1507906 0.3222656 0.2070312 0.4702458-0.1330185 0.9545857-0.1992187 1.4550781-0.1992187 0.5005001 0 0.9866998 0.0661898 1.4570313 0.1992187l0.2871096-0.1835937c0.197051-0.1228436 0.431422-0.2355776 0.699218-0.3378906 0.133987-0.0511571 0.251105-0.0835833 0.353516-0.0976563z" style="fill:#4d4d4d"/>
</svg>
