<?xml version="1.0" encoding="UTF-8"?>
<svg id="svg6" version="1.1" viewBox="0 0 16 16" xmlns="http://www.w3.org/2000/svg">
 <defs id="defs3051">
  <style id="current-color-scheme" type="text/css">.ColorScheme-Text {
        color:#4d4d4d;
      }</style>
 </defs>
 <path id="path4" class="ColorScheme-Text" d="m9.5898438 0.58789062c-3.20696 0-5.8574219 2.6208688-5.8574219 5.8242188 0 1.21747 0.4118737 2.3373806 1.0585937 3.2753906l-3.9042968 3.904297a1.0646081 1.0646081 0 1 0 1.4882812 1.523437l3.90625-3.904296c0.93946 0.64685 2.0888437 1.02539 3.3085938 1.02539 3.2069902 0 5.8222652-2.6209086 5.8222652-5.8242186 0-3.20335-2.615275-5.8242188-5.8222652-5.8242188zm0 1.0605469c2.6314402 0 4.7636722 2.1322219 4.7636722 4.7636719 0 2.63142-2.132232 4.7656246-4.7636722 4.7656246-2.63142 0-4.765625-2.1342046-4.765625-4.7656246 0-2.63145 2.134205-4.7636719 4.765625-4.7636719z" style="fill:#4d4d4d"/>
</svg>
