<?xml version="1.0" encoding="UTF-8"?>
<svg id="svg6" version="1.1" viewBox="0 0 16 16" xmlns="http://www.w3.org/2000/svg">
 <defs id="defs3051">
  <style id="current-color-scheme" type="text/css">.ColorScheme-Text {
        color:#4d4d4d;
      }</style>
 </defs>
 <path id="path4" class="ColorScheme-Text" d="m10.939453 2.9667969c-1.3954211 0-2.5749571 0.4759895-3.5390624 1.4316406-0.9556511 0.9556511-1.4335937 2.1117118-1.4335937 3.4648437 0 1.3615907 0.4779426 2.5189578 1.4335937 3.4746098 0.9556511 0.947197 2.1351871 1.421875 3.5390624 1.421875 0.718851 0 1.374801-0.135619 1.966797-0.40625l-0.355469-0.863282c-0.473596 0.236796-1.010877 0.355469-1.611328 0.355469-1.116336 0-2.0637436-0.384702-2.8417968-1.154297-0.7780485-0.7695941-1.1660156-1.7117886-1.1660156-2.8281248 0-1.1163315 0.3879671-2.0604837 1.1660156-2.8300781 0.7780532-0.7695943 1.7254608-1.1542969 2.8417968-1.1542969 1.116332 0 2.063744 0.3847026 2.841797 1.1542969 0.778053 0.7695944 1.166016 1.7137466 1.166016 2.8300781 0 1.2093645-0.299936 1.8125-0.900391 1.8125-0.253713 0-0.443458-0.088027-0.570313-0.265625-0.1184-0.1775979-0.177734-0.3758203-0.177734-0.5957031v-3.3105469h-0.914062v0.5703126h-0.050782c-0.431311-0.498968-0.971848-0.7480469-1.623046-0.7480469-0.659653 0-1.2256231 0.2438658-1.6992192 0.734375-0.4735962 0.4905137-0.7109376 1.109293-0.7109376 1.8535156 0 0.7526813 0.2373414 1.3727721 0.7109376 1.8632813 0.4735961 0.4820552 1.0565162 0.7246092 1.7500002 0.7246092 0.769594 0 1.360992-0.310366 1.77539-0.9277342 0.312912 0.6173682 0.787594 0.9277342 1.421875 0.9277342 0.617369 0 1.086838-0.251032 1.408204-0.7499999 0.329828-0.4989679 0.49414-1.1275317 0.49414-1.8886719 0-1.3531319-0.472729-2.5091926-1.419922-3.4648437-0.947197-0.9556511-2.114995-1.4316406-3.501953-1.4316406zm-10.304687 2.2636719c-0.04934674 0-0.09290571 0.0186869-0.13085937 0.0566406l-0.28320313 0.2851562c-0.03802355 0.0379537-0.05859374 0.0814428-0.05859374 0.1308594s0.02057019 0.0929057 0.05859374 0.1308594l2.2363281 2.2382812-2.2363281 2.2382814c-0.03802355 0.037954-0.05859374 0.081582-0.05859374 0.130859 0 0.049417 0.02057019 0.092906 0.05859374 0.13086l0.28320313 0.283203c0.03795366 0.038023 0.08151263 0.058593 0.13085937 0.058593 0.04934675 0 0.09485884-0.02064 0.1328125-0.058593l2.6523438-2.652344c0.0380235-0.0379537 0.0566406-0.0815126 0.0566406-0.1308594 0-0.0493467-0.0186171-0.0928358-0.0566406-0.1308594l-2.6523438-2.6542968c-0.03795366-0.0379537-0.08346575-0.0566406-0.1328125-0.0566406zm2.1875 0c-0.0493467 0-0.0929057 0.0186869-0.1308594 0.0566406l-0.2851562 0.2851562c-0.0379537 0.0379537-0.0566406 0.0814428-0.0566406 0.1308594s0.0186869 0.0929057 0.0566406 0.1308594l2.2382812 2.2382812-2.2382812 2.2382814c-0.0379537 0.037954-0.0566406 0.081582-0.0566406 0.130859 0 0.049417 0.0186869 0.092906 0.0566406 0.13086l0.2851562 0.283203c0.0379537 0.038023 0.0815127 0.058593 0.1308594 0.058593 0.0494167 0 0.0929756-0.02064 0.1308594-0.058593l2.6542969-2.652344c0.0379536-0.0379537 0.0566406-0.0815126 0.0566406-0.1308594 0-0.0493467-0.0187569-0.0928358-0.0566406-0.1308594l-2.6542969-2.6542968c-0.0378838-0.0379537-0.0815126-0.0566406-0.1308594-0.0566406zm8.0273434 1.0585937c0.422858 0 0.78408 0.1493143 1.080079 0.4453125 0.304452 0.2959982 0.455078 0.6891783 0.455078 1.1796875s-0.150626 0.8836893-0.455078 1.1796875c-0.295999 0.2959982-0.657221 0.4433594-1.080079 0.4433594-0.422852 0-0.785386-0.1473612-1.0898434-0.4433594-0.2959981-0.2959982-0.4433594-0.6891783-0.4433594-1.1796875s0.1473613-0.8836893 0.4433594-1.1796875c0.3044574-0.2959982 0.6669914-0.4453125 1.0898434-0.4453125z" style="fill:#4d4d4d"/>
</svg>
