<?xml version="1.0" encoding="UTF-8"?>
<svg id="svg6" version="1.1" viewBox="0 0 16 16" xmlns="http://www.w3.org/2000/svg">
 <defs id="defs3051">
  <style id="current-color-scheme" type="text/css">.ColorScheme-Text {
        color:#4d4d4d;
      }
      .ColorScheme-NegativeText {
        color:#da4453;
      }</style>
  <style id="current-color-scheme-3" type="text/css">.ColorScheme-Text {
        color:#4d4d4d;
      }
      .ColorScheme-NegativeText {
        color:#da4453;
      }</style>
  <style id="current-color-scheme-6" type="text/css">.ColorScheme-Text {
        color:#4d4d4d;
      }</style>
 </defs>/&gt;
 <path id="path2-3" d="m1.0727499 5.5168902 0.8763735 0.7125736-0.824836 1.6443434c-0.41240493 0.7582311 0.2960824 1.4968534 0.7474948 1.7539804 0.4443862 0.253104 1.1341135 0.283195 1.7785071 0.274077l1.159891-1.9732386 0.8763648 0.4933073-1.5207584-2.9324219-3.0930368 0.0273875zm0.1288612 4.0252264 1.8815996 3.6175744c0.3780437 0.502425 1.0911772 0.621189 1.8300708 0.602927h1.9847008v-3.42572l-3.7632079-0.027388c-0.5842198 0.036488-1.3489172-0.091393-1.9331633-0.7673844zm11.838145-6.6667725-1.023741 0.4521911-0.982135-1.5479009c-0.43729-0.7429535-1.4015928-0.4562074-1.8365114-0.169995-0.4281462 0.2817675-0.7878411 0.8949586-1.0925685 1.4858897l1.0960685 2.0123513-0.8394748 0.5584861 3.2018432 0.0375375 1.476519-2.8285336zm-3.4454875-1.8341396-3.9526284-0.0412125c-0.6055348 0.100485-1.0510847 0.6919673-1.3939534 1.3733822l-0.9622023 1.8064283 2.8791693 1.6608377 1.8474751-3.4119223c0.252525-0.5495086 0.7307386-1.1834809 1.5821397-1.3874959zm0.1719377 13.958768 0.1162525-1.151036 1.7771073-0.14343c0.836404-0.03789 1.062924-1.054523 1.033226-1.589148-0.02923-0.526304-0.370221-1.150966-0.719145-1.714807l-2.222657 0.02205-0.062475-1.0348374-1.5838118 2.8960494 1.6614505 2.715194zm3.2119238-2.246763 1.950908-3.5775604c0.209134-0.5998825-0.071925-1.2921824-0.47845-1.9346072l-1.051732-1.7515573-2.791696 1.8153622 1.971873 3.3356667c0.339413 0.49623 0.640386 1.238833 0.399097 2.112696z" style="fill:#4d4d4d"/>
</svg>
