<?xml version="1.0" encoding="UTF-8"?>
<svg id="svg4" version="1.1" viewBox="0 0 24 24" xmlns="http://www.w3.org/2000/svg">
 <defs id="defs8">
  <style id="current-color-scheme" type="text/css">.ColorScheme-Text {
        color:#4d4d4d;
      }</style>
 </defs>
 <path id="circle4175" d="m7.6310301 3a2.1844855 2.25 0 0 0-2.1844851 2.2500004 2.1844855 2.25 0 0 0 1.4563234 2.1181645v9.2636711a2.1844855 2.25 0 0 0-1.4563234 2.118167 2.1844855 2.25 0 0 0 2.1844851 2.249997 2.1844855 2.25 0 0 0 2.1844858-2.249997 2.1844855 2.25 0 0 0-1.3965911-2.097657c0.2775701-1.789909 1.7627102-3.152345 3.5810762-3.152345 2.610249 0 4.725813-2.008525 5.034554-4.6083983a2.1844855 2.25 0 0 0 1.5189-2.1416016 2.1844855 2.25 0 0 0-2.184482-2.2500011 2.1844855 2.25 0 0 0-2.184486 2.2500011 2.1844855 2.25 0 0 0 1.39659 2.0976559c-0.27757 1.78991-1.76271 3.152345-3.581076 3.152345-1.431626 0-2.7166741 0.606655-3.6408092 1.579101v-6.2109381a2.1844855 2.25 0 0 0 1.4563241-2.1181645 2.1844855 2.25 0 0 0-2.1844858-2.2500004zm0 1.5a0.72816182 0.75000008 0 0 1 0.7281617 0.7500004 0.72816182 0.75000008 0 0 1-0.7281617 0.7500004 0.72816182 0.75000008 0 0 1-0.7281617-0.7500004 0.72816182 0.75000008 0 0 1 0.7281617-0.7500004zm8.7379429 1.5000008a0.72816182 0.75000008 0 0 1 0.72816 0.7500003 0.72816182 0.75000008 0 0 1-0.72816 0.75 0.72816182 0.75000008 0 0 1-0.728164-0.75 0.72816182 0.75000008 0 0 1 0.728164-0.7500003zm-8.7379429 11.999998a0.72816182 0.75000008 0 0 1 0.7281617 0.750004 0.72816182 0.75000008 0 0 1-0.7281617 0.75 0.72816182 0.75000008 0 0 1-0.7281617-0.75 0.72816182 0.75000008 0 0 1 0.7281617-0.750004z" style="fill:#dfdfdf"/>
</svg>
