<?xml version="1.0" encoding="UTF-8"?>
<svg id="svg4" version="1.1" viewBox="0 0 24 24" xmlns="http://www.w3.org/2000/svg">
 <path id="path990" d="m11.994104 1.9027439c-0.793008 0.00179-1.584741 0.3043846-2.1874566 0.9071l-2.2221781 2.2221781c-0.5681798 0.5771208-0.5647143 1.5250822 0.008681 2.0984794l1.6015301 1.6015342 0.412318-0.2864527c1.4371016-0.9975001 3.3588786-1.0010247 4.7980816-0.00868l0.412318 0.2842824 1.592851-1.5928503c0.287839-0.2878392 0.431849-0.6701417 0.431849-1.0524965 0-0.3823545-0.14401-0.7646572-0.431849-1.0524966l-2.222178-2.2221781-0.0022-0.00217c-0.605106-0.5989111-1.398759-0.8980349-2.191767-0.8962499zm5.833218 5.2559721c-0.382355 0-0.764658 0.1440103-1.052497 0.4318491l-1.592851 1.5928505 0.284283 0.4123181c0.992344 1.4392033 0.988775 3.3609803-0.0087 4.7980823l-0.286452 0.412319 1.6037 1.60153c0.573399 0.573398 1.521359 0.576906 2.098483 0.0087v-0.0022l2.220042-2.217894c1.205432-1.205432 1.208728-3.171152 0.01089-4.3814233h-0.0022l-2.222201-2.2243481c-0.287828-0.2877434-0.670143-0.4317836-1.052497-0.4317836zm-11.640395 0.0130207c-0.3825741-1.728e-4 -0.7642581 0.1436106-1.0524965 0.4318491l-2.4348478 2.4348472-0.021701 0.02387c-0.9735622 1.214988-0.8967257 2.995685 0.2191796 4.123183l0.00217 0.0022 2.2351989 2.233029c0.5756776 0.575678 1.5293157 0.575678 2.104993 0l1.5928507-1.59288-0.2864527-0.412318c-1.0010157-1.440786-1.0022841-3.367986-0.00217-4.8089328l0.2864526-0.4123182-1.5906802-1.5906802c-0.2880428-0.2880348-0.6699223-0.4316765-1.0524966-0.4318491zm5.8245376 1.8641122c-0.761861 5.27e-5 -1.52496 0.290175-2.1049936 0.8702081-1.1598568 1.159858-1.1600681 3.04775 0 4.207817 1.1600666 1.160068 3.0479576 1.159857 4.2078166 0 1.160067-1.160067 1.160068-3.04775 0-4.207817-0.580034-0.5800337-1.340964-0.8702606-2.102823-0.8702081zm-2.8167846 6.2325151-1.6015309 1.601531c-0.5733981 0.573398-0.5768632 1.521358-0.00868 2.098483l0.00217 0.0022 2.2178389 2.220007c1.2054306 1.205432 3.1711516 1.208728 4.3814226 0.01089v-0.0022l2.224348-2.222178c0.287838-0.28784 0.431849-0.670141 0.431849-1.052497 0-0.382355-0.14401-0.764657-0.431849-1.052496l-1.592851-1.59285-0.412318 0.284282c-1.439203 0.992345-3.360981 0.988776-4.7980816-0.0087z" style="color-rendering:auto;color:#000000;dominant-baseline:auto;fill:#dfdfdf;font-feature-settings:normal;font-variant-alternates:normal;font-variant-caps:normal;font-variant-ligatures:normal;font-variant-numeric:normal;font-variant-position:normal;image-rendering:auto;isolation:auto;mix-blend-mode:normal;paint-order:stroke fill markers;shape-padding:0;shape-rendering:auto;solid-color:#000000;text-decoration-color:#000000;text-decoration-line:none;text-decoration-style:solid;text-indent:0;text-orientation:mixed;text-transform:none;white-space:normal"/>
</svg>
