<?xml version="1.0" encoding="UTF-8"?>
<svg id="svg11" version="1.1" viewBox="0 0 24 24" xmlns="http://www.w3.org/2000/svg">
 <defs id="defs15">
  <style id="current-color-scheme" type="text/css">.ColorScheme-Text {
        color:#4d4d4d;
      }</style>
 </defs>
 <path id="path902" d="m16.394531 2.8417969-0.228515 0.3964843-2.197266 3.8046876c-0.643936-0.1277965-1.298076-0.2162803-1.96875-0.2167969-3.6650997 0.0054754-7.0486946 1.9811083-8.8554688 5.1699221l-0.1445312 0.253906 0.1582031 0.244141c0.2267688 0.357019 0.5438885 0.642522 0.9121094 0.83789l0.4257813 0.226563 0.2285156-0.425782c0.8597727-1.609663 2.2380642-2.79377 3.8359375-3.5351558-0.546368 0.7293888-0.9296876 1.5899898-0.9296875 2.5683598 0 1.30293 0.5850549 2.462223 1.4941406 3.263672l-2.2617188 3.916015 0.0019532 0.001953-0.4707032 0.810547 0.0019532 0.001953 1.7304687 0.998047 0.46875-0.8125 2.2929689-3.972656c0.356925 0.094691 0.725227 0.162109 1.111328 0.162109 2.407013 0 4.367188-1.962128 4.367188-4.36914-6.69e-4 -0.960988-0.3644-1.82095-0.898438-2.5468754 1.584256 0.7427534 2.949453 1.9224544 3.802734 3.5156254l0.226563 0.423828 0.429687-0.22461c0.37258-0.197044 0.690624-0.48694 0.917969-0.847656l0.154297-0.24414-0.142578-0.251954c-1.129592-1.990506-2.873074-3.5079923-4.916016-4.3671871l1.955078-3.3867188 0.230469-0.3964843-1.732422-0.9980469zm-4.408203 6.8476562a2.4637426 2.4637426 0 0 1 0.429688 0.0390625l-0.539063 0.9355464a1.5463599 1.5463599 0 0 0-0.660156 0.201172 1.5463599 1.5463599 0 0 0-0.617188 2.011719l-0.496093 0.859375a2.4637426 2.4637426 0 0 1-0.5800785-1.583984 2.4637426 2.4637426 0 0 1 2.4628905-2.4628909zm2.089844 1.1640629a2.4637426 2.4637426 0 0 1 0.373047 1.298828 2.4637426 2.4637426 0 0 1-2.462891 2.46289 2.4637426 2.4637426 0 0 1-0.080078-0.003906l0.539062-0.933594a1.5463599 1.5463599 0 0 0 0.31836-0.134765 1.5463599 1.5463599 0 0 0 0.732422-1.685547l0.580078-1.003906z" style="color-rendering:auto;color:#4d4d4d;dominant-baseline:auto;fill:#dfdfdf;font-feature-settings:normal;font-variant-alternates:normal;font-variant-caps:normal;font-variant-ligatures:normal;font-variant-numeric:normal;font-variant-position:normal;image-rendering:auto;isolation:auto;mix-blend-mode:normal;shape-padding:0;shape-rendering:auto;solid-color:#000000;text-decoration-color:#000000;text-decoration-line:none;text-decoration-style:solid;text-indent:0;text-orientation:mixed;text-transform:none;white-space:normal"/>
</svg>
