<?xml version="1.0" encoding="UTF-8"?>
<svg id="svg4" version="1.1" viewBox="0 0 24 24" xmlns="http://www.w3.org/2000/svg">
 <defs id="defs8">
  <style id="current-color-scheme" type="text/css">.ColorScheme-Text {
        color:#4d4d4d;
      }</style>
  <style id="current-color-scheme-3" type="text/css">.ColorScheme-Text {
        color:#4d4d4d;
      }</style>
 </defs>
 <path id="path1021" d="m12 1.5-8.9882812 3.9673884s-0.2932474 7.9519086 2.0605469 11.774248c1.9636251 3.188742 5.7229423 4.804614 6.9277343 5.258364 1.204797-0.45375 4.96411-2.069622 6.927734-5.258364 2.353795-3.822338 2.060547-11.774248 2.060547-11.774248zm0 2.2828227 2.158203 0.9505201c-0.02781 0.00358-0.05602 0.00874-0.08203 0.017711-0.134166 0.046193-0.293245 0.1292396-0.43164 0.2066349-0.141492 0.078888-0.300813 0.1574497-0.388672 0.236154-0.04744 0.042225-0.172232 0.192331-0.167969 0.24009 0.0052 0.068167 0.131687 0.093635 0.134766 0.1633399-0.0026 0.042226-0.07344 0.1315205-0.02344 0.1928591 0.04552 0.055861 0.137774 0.013274 0.234375 0.025584 0.169802 0.021706 0.281848 0.1658733 0.41211 0.24009 0.09848 0.056123 0.244263 0.1232472 0.355468 0.1377565 0.152667 0.019725 0.32294-0.045459 0.34375 0.080686 0.02019 0.1212468-0.14446 0.1620378-0.15625 0.238122 0.08228 0.1119798-0.05506 0.163575-0.05469 0.2617375 3.6e-4 0.079419 0.09495 0.2013984 0.177734 0.2086027 0.11198 0.00926 0.275736-0.1129252 0.322266-0.2282823 0.05528-0.137448 0.03125-0.3249822 0.132812-0.4250773 0.517841 0.014695 0.955255-0.2431908 0.921875-0.7911162-9e-4 -0.013221-0.0047-0.028456-0.0078-0.043295l2.908203 1.2831037c-0.04975 0.074336-0.120995 0.1325821-0.109375 0.2735452-0.04011 0.08564-0.142966 0.08259-0.134766 0.1967951 0.01278 0.1808861 0.263602 0.043842 0.332032 0.1849873 0.03701 0.075843-0.0062 0.1280105-0.0332 0.236154 0.08626 0.1058922 0.08764 0.2752869-0.06445 0.2755131-0.09244 0-0.11943-0.1021233-0.21289-0.1259488-0.05194-0.013365-0.12132-0.00934-0.1875-0.021647-0.05657-0.010591-0.126098-0.028803-0.179688-0.035423-0.137187-0.01681-0.282161 0.026442-0.363281-0.055102 0.132236-0.1810909 0.304588-0.3616184 0.474609-0.517571 0.05053-0.046597 0.160506-0.079848 0.134766-0.1731797-0.09461-0.08564-0.211521 0.00913-0.300781 0.061007-0.09373 0.054402-0.20284 0.1313923-0.308594 0.1475964-0.183789 0.028063-0.429908-0.055864-0.580078 0.045263-0.0207 0.086434 0.171241 0.052559 0.144531 0.1830194-0.07353 0.011922-0.140656 0.019622-0.197266-0.033455-0.05172-0.047916-0.02712-0.1206555-0.06055-0.1495643-0.05694-0.048664-0.269575-0.061543-0.365235-0.045263-0.116728 0.019585-0.218932 0.091886-0.232422 0.1948271 0.140231 0.06777 0.371005-0.070668 0.421875 0.1023333-0.07688 0.142584-0.256731 0.2220944-0.232422 0.4132697 9e-3 0.073858 0.09315 0.1720467 0.154297 0.1830194 0.06146 0.010592 0.09686-0.051087 0.15625-0.045263 0.06287 0.00662 0.04729 0.078164 0.121094 0.06691 0.106961-0.047119 0.16846-0.2020314 0.291016-0.1948272 0.14706 0.1840677-0.13506 0.2741979-0.291016 0.3325836-0.177876 0.066448-0.409418 0.1045027-0.544922 0.16334-0.0711 0.030579-0.338953 0.2956446-0.376953 0.088557-0.02712-0.1493484 0.132356-0.1033996 0.166016-0.226314-0.172013-0.03455-0.329793 0.076352-0.486328 0.1377565-0.223349 0.087096-0.60234 0.1388585-0.65625 0.3975261-0.01023 0.051755 0.01979 0.150477-0.01367 0.1849869-0.02661 0.027789-0.18623 0.032716-0.25586 0.05707-0.107228 0.037986-0.201348 0.11735-0.267578 0.1357889-0.05002 0.014157-0.122607 0.013008-0.154297 0.025583-0.08829 0.035346-0.119375 0.1562047-0.220703 0.2381219-0.04151 0.033492-0.134938 0.058753-0.167968 0.092497-0.0576 0.059035-0.06645 0.2081037-0.167969 0.2302506-0.06454 0.00524-0.115012-0.049896-0.175781-0.011809-0.0078 0.1461309 0.04985 0.3442432-0.01172 0.4919882-0.13163 0.110663-0.276924 0.18582-0.445313 0.283385-0.09308 0.05413-0.176585 0.07178-0.289062 0.129884-0.07983 0.04103-0.15235 0.137019-0.244141 0.192859-0.212175 0.128794-0.468406 0.280035-0.466796 0.60613 3.6e-4 0.07055 0.03815 0.149746 0.04687 0.232218 0.0052 0.04859-0.0052 0.09457 0 0.147597 0.01323 0.119791 0.09732 0.271507 0 0.354231-0.149591-0.06328-0.342643-0.08501-0.447266-0.194827-0.02866-0.113044 0.05817-0.204021 0.04492-0.307001-0.01025-0.08272-0.123829-0.231459-0.189453-0.242058-0.06762-0.01059-0.129416 0.06488-0.199219 0.05903-0.08305-0.0068-0.160923-0.126978-0.267578-0.139724-0.156315-0.01879-0.27218 0.03672-0.445312 0.01181-0.167606 0.09225-0.212554 0.256323-0.417969 0.24009-0.07237-0.0053-0.140995-0.061-0.224609-0.07872-0.09063-0.01932-0.229856-0.05399-0.3242192-0.04723-0.1891763 0.0132-0.3257809 0.155021-0.4882812 0.242057-0.1433837 0.07704-0.3460929 0.171038-0.3886719 0.330616-0.0234 0.0859-0.00372 0.205854-0.033203 0.285352-0.019667 0.05228-0.063493 0.09981-0.089844 0.149565-0.1245731 0.234657-0.2273805 0.546077-0.1328125 0.88361 0.014006 0.05003 0.1403923 0.334572 0.1914063 0.391621 0.057341 0.06341 0.2221334 0.155624 0.3183593 0.157436 0.081375 0.0013 0.1808807-0.04251 0.2597657-0.05707 0.091411-0.01681 0.2040333-0.01786 0.2871093-0.04526 0.2402662-0.07929 0.1911152-0.414529 0.4316402-0.52741 0.105032-0.04898 0.229437-0.0591 0.414063-0.06888 0.05862 0.05082 0.08427 0.140968 0.07617 0.218442-0.0065 0.0585-0.06091 0.109451-0.08984 0.19286-0.02519 0.07307-0.02974 0.159457-0.05469 0.218442-0.03305 0.07717-0.108278 0.137954-0.134766 0.210571-0.01738 0.04725-0.0032 0.102987-0.01758 0.145628-0.02558 0.07546-0.125462 0.129-0.08008 0.206634 0.237953 0.09755 0.524772-0.02598 0.732422 0.01377 0.08768 0.01641 0.271142 0.124428 0.269531 0.263705-0.0011 0.10417-0.08088 0.169325-0.0918 0.283385-0.01349 0.143381-0.06999 0.318833-0.07617 0.434916-0.01026 0.190119 0.268611 0.520192 0.464844 0.517571 0.211265-0.0026 0.335309-0.217985 0.589844-0.1043 0.08447 0.03759 0.172358 0.180132 0.265625 0.173179 0.07689-0.0053 0.192742-0.145944 0.24414-0.242058 0.0626-0.117143 0.06718-0.216438 0.177734-0.275513 0.119298-0.06366 0.214546-0.03388 0.367188-0.0925 0.06814-0.02608 0.128039-0.06837 0.189453-0.112173 0.05387-0.03812 0.110558-0.13823 0.177734-0.06888 0.08872 0.09132-0.110363 0.142293-0.03516 0.24009 0.154156 0.08418 0.236027-0.155777 0.347656-0.159404 0.03562-0.0011 0.15538 0.07099 0.21875 0.114141 0.08665 0.05864 0.118051 0.14029 0.212891 0.159404 0.06094 0.0118 0.15849-0.02191 0.24414-0.0099 0.113389 0.01668 0.181648 0.114793 0.267578 0.112173 0.104658-0.0026 0.154521-0.120587 0.244141-0.137756 0.196157-0.03707 0.271062 0.02323 0.357422 0.149564 0.0968 0.01734 0.09888-0.115741 0.1875-0.06888-0.04861 0.09979 0.01768 0.146952 0.05664 0.23025 0.02521 0.05348 0.01946 0.08901 0.04297 0.112173 0.05296 0.05214 0.158598 0.0536 0.236328 0.104301 0.08202 0.05322 0.12466 0.152255 0.21875 0.263706 0.0968 0.113959 0.261344 0.233694 0.390625 0.242056 0.122134 0.0079 0.219342-0.03842 0.320313-0.02558 0.06666 0.0085 0.125027 0.02561 0.179687 0.04723-1.379563 1.953811-3.578488 3.091767-4.746092 3.589542-0.10279-0.186241-0.198318-0.386998-0.310557-0.564756-0.07123-0.113306-0.13285-0.242334-0.210937-0.332584-0.04576-0.05321-0.192142-0.104904-0.210938-0.184988-0.02506-0.106026-0.103895-0.251481-0.0918-0.332583 0.01608-0.10934 0.222978-0.195411 0.222657-0.295193-3.61e-4 -0.08472-0.10783-0.134673-0.13086-0.206635-0.05605-0.175064 0.03068-0.277309 0.09766-0.423109 0.02211-0.04792 0.04534-0.126045 0.06836-0.161372 0.04075-0.06302 0.121519-0.08134 0.175782-0.149564 0.03034-0.03827 0.05222-0.117115 0.0918-0.171211 0.08446-0.1157 0.219157-0.159284 0.253906-0.263706 0.02828-0.0851 0.04496-0.511029 0.01172-0.653359-0.01929-0.08247-0.09268-0.150255-0.121094-0.228283-0.05026-0.138252-0.06113-0.290343-0.199219-0.28732-0.08525 0.0013-0.146405 0.101927-0.201172 0.163339-0.01305 0.08168-0.0073 0.167921-0.08984 0.192859-0.126378 0.03852-0.17487-0.134974-0.322265-0.181051-0.05862-0.01841-0.150804-0.02044-0.1875-0.03739-0.107612-0.04977-0.140503-0.210489-0.253906-0.273544-0.09488-0.05227-0.17885-0.03575-0.236329-0.11611-0.02393-0.05533-0.0053-0.156141-0.01172-0.23025-0.121757-0.07346-0.225358-0.346644-0.367187-0.411301-0.09397-0.04317-0.23786-0.03953-0.355469-0.08069-0.05529-0.01933-0.09847-0.04227-0.1562497-0.0551-0.071227-0.0164-0.142098-0.01863-0.1972649-0.04723-0.2200277-0.112505-0.3388393-0.478097-0.6113252-0.470338-0.1162165 0.0026-0.2286677 0.116778-0.3339844 0.116109-0.1046793-6.38e-4 -0.2807969-0.0848-0.4121093-0.147597-0.1364007-0.06542-0.2878879-0.102075-0.4003907-0.161371-0.090882-0.04792-0.15495-0.136816-0.234375-0.17318-0.060803-0.02779-0.1473706-0.03075-0.1972656-0.0551-0.070963-0.03468-0.1479821-0.109813-0.2363281-0.173181-0.083823-0.05982-0.1725112-0.150767-0.1757813-0.228281-0.00396-0.08974 0.080844-0.167616 0.089844-0.253866 0.028661-0.272818-0.1683171-0.468561-0.2910156-0.629744-0.090882-0.119792-0.1959354-0.221729-0.2871094-0.332584 0.0052-0.0736 0.0052-0.08595 0-0.159404-0.069043-0.0691-0.130168-0.173983-0.203125-0.277482-0.065945-0.09331-0.1904422-0.192474-0.2070312-0.297161-0.020439-0.128793 0.047435-0.239104 0-0.36407-0.07907-0.207377-0.3621059-0.114802-0.3261719 0.159404 0.010257 0.07557 0.1152683 0.178932 0.1464843 0.253865 0.03201 0.07639 0.024865 0.167767 0.054688 0.25977 0.028663 0.08815 0.1147172 0.166355 0.1445312 0.265673 0.047169 0.156854 0.046507 0.32507 0.089844 0.42311 0.03818 0.0871 0.1765322 0.17007 0.097656 0.275513-0.1051655 0.0225-0.1416332-0.0865-0.2070312-0.149564-0.036501-0.03507-0.1712983-0.09945-0.1914063-0.181052-0.01683-0.06739 0.042849-0.159576 0.023437-0.242058-0.03818-0.16167-0.3543787-0.168181-0.3554688-0.334552-5.651e-4 -0.104432 0.1296294-0.117456 0.1308594-0.218442 8.73e-4 -0.110515-0.1460974-0.203444-0.1777344-0.29716-0.028928-0.08589-0.032183-0.221561-0.042969-0.342424-0.010255-0.113433 0.00155-0.245064-0.023437-0.332584-0.022797-0.078724-0.1393306-0.185995-0.2128906-0.228253-0.081615-0.046843-0.1476305-0.040646-0.1953125-0.084618-0.052664-0.433766-0.085329-0.8366977-0.109375-1.2142248 0.055645-0.1069094 0.1538973-0.1617546 0.2089843-0.2696091 0.039086-0.0763754 0.043782-0.1726241 0.087891-0.2538651 0.081374-0.1496403 0.2577263-0.2854414 0.3769531-0.4329497 0.1285545-0.1589091 0.2489835-0.3123145 0.3242182-0.4939596 0.027004-0.0644614 0.0963304-0.2063043 0.0859374-0.2853528-0.0146671-0.1101276-0.2131626-0.2014223-0.1972656-0.3325836 0.010257-0.0812723 0.1209169-0.0811716 0.1542969-0.161372 0.017105-0.0414302 0.032303-0.1552275 0.033203-0.2046669 0.00118-0.1105251-0.054812-0.2263744-0.033203-0.3443914 0.014574-0.0804359 0.1051268-0.1230441 0.1054687-0.1928591z" style="fill:#dfdfdf;paint-order:stroke fill markers"/>
</svg>
