<?xml version="1.0" encoding="UTF-8" standalone="no"?>
<svg
   xmlns:dc="http://purl.org/dc/elements/1.1/"
   xmlns:cc="http://creativecommons.org/ns#"
   xmlns:rdf="http://www.w3.org/1999/02/22-rdf-syntax-ns#"
   xmlns:svg="http://www.w3.org/2000/svg"
   xmlns="http://www.w3.org/2000/svg"
   id="svg4"
   version="1.1"
   viewBox="0 0 22 22">
  <metadata
     id="metadata10">
    <rdf:RDF>
      <cc:Work
         rdf:about="">
        <dc:format>image/svg+xml</dc:format>
        <dc:type
           rdf:resource="http://purl.org/dc/dcmitype/StillImage" />
        <dc:title></dc:title>
      </cc:Work>
    </rdf:RDF>
  </metadata>
  <defs
     id="defs8" />
  <g
     id="text878"
     style="font-style:normal;font-variant:normal;font-weight:normal;font-stretch:normal;font-size:5.69474459px;line-height:1.25;font-family:'xos4 Terminus';-inkscape-font-specification:'xos4 Terminus';letter-spacing:0px;word-spacing:0px;fill:#ffffff;fill-opacity:1;stroke:none;stroke-width:0.99999994"
     transform="scale(1.0660963,0.93800157)"
     aria-label="$" />
  <path
     id="rect818"
     d="M 3,4 V 18 H 19 V 4 Z m 3.3886722,2.638672 h 0.378906 v 0.339844 c 0.367589,0.01217 0.651958,0.08205 0.851562,0.208984 0.199605,0.125196 0.342708,0.335044 0.431641,0.628906 l -0.515625,0.08594 C 7.4916762,7.71803 7.4077322,7.578274 7.2812502,7.484377 7.1547682,7.390477 6.9829932,7.336392 6.7675782,7.324221 v 1.111328 c 0.339921,0.07303 0.586107,0.14248 0.738281,0.205078 0.152174,0.0626 0.274325,0.132904 0.365235,0.212891 0.09091,0.07999 0.159623,0.173228 0.205078,0.279296 0.04545,0.10433 0.06641,0.226129 0.06641,0.365235 0,0.28169 -0.118315,0.504733 -0.355469,0.669922 -0.237154,0.163449 -0.576843,0.253881 -1.019531,0.269531 v 0.419922 h -0.37891 V 10.4375 C 5.5546802,10.413156 5.0680272,10.099895 4.9296872,9.5 l 0.503907,-0.0957 c 0.05138,0.219092 0.15635,0.382641 0.314453,0.492187 0.158102,0.107808 0.37185,0.167516 0.640625,0.179688 V 8.800784 l -0.08984,-0.01953 C 5.9668162,8.709964 5.7225372,8.632296 5.5664102,8.548832 5.4122602,8.463632 5.2996892,8.362385 5.2265662,8.244145 5.1554162,8.125904 5.1191442,7.983766 5.1191442,7.820316 c 0,-0.259085 0.108804,-0.461146 0.324219,-0.605468 0.217391,-0.146062 0.532269,-0.224157 0.945313,-0.236328 z m 0,0.68164 c -0.249012,0.0087 -0.437948,0.05781 -0.566407,0.146485 -0.128458,0.08694 -0.193359,0.208954 -0.193359,0.367187 0,0.09911 0.0229,0.182186 0.06836,0.25 0.04743,0.06608 0.116146,0.12276 0.205079,0.167969 0.08893,0.04347 0.25115,0.09063 0.486328,0.144531 z m 0.378906,1.533204 v 1.228515 c 0.284585,-0.01565 0.500239,-0.07298 0.646484,-0.173828 0.146245,-0.102591 0.21875,-0.242347 0.21875,-0.417969 0,-0.114762 -0.0267,-0.210386 -0.08203,-0.285156 -0.05336,-0.07477 -0.129701,-0.134906 -0.228516,-0.183594 -0.09881,-0.05043 -0.283936,-0.107109 -0.554688,-0.167968 z m 1.886719,1.402343 h 3.8007808 v 0.601563 H 8.6542972 Z"
     style="opacity:1;vector-effect:none;fill:#4d4d4d;fill-opacity:1;stroke:none;stroke-width:0.49000001;stroke-linecap:butt;stroke-linejoin:miter;stroke-miterlimit:4;stroke-dasharray:none;stroke-dashoffset:0;stroke-opacity:1" />
</svg>
