<?xml version="1.0" encoding="UTF-8"?>
<svg id="svg6" version="1.1" viewBox="0 0 16 16" xmlns="http://www.w3.org/2000/svg">
 <defs id="defs3051">
  <style id="current-color-scheme" type="text/css">.ColorScheme-Text {
        color:#dfdfdf;
      }</style>
 </defs>
 <path id="path4" class="ColorScheme-Text" d="m6.6666667 1a1.6666667 1.6666667 0 0 0-1.6666667 1.6666667v0.9999999h-2.6666667a1.3333333 1.3333333 0 0 0-1.3333333 1.3333338v2.5338539h1c1 0 1.7994791 0.7994787 1.7994792 1.7994797 0 1-0.7994792 1.799478-1.7994792 1.799478h-1v2.533854a1.3333333 1.3333333 0 0 0 1.3333333 1.333334h2.5338542v-1c0-1 0.7994791-1.799479 1.7994792-1.799479 0.9999999 0 1.799479 0.799479 1.799479 1.799479v1h2.5338543a1.3333333 1.3333333 0 0 0 1.333333-1.333334v-2.666666h1a1.6666667 1.6666667 0 0 0 1.666667-1.666666 1.6666667 1.6666667 0 0 0-1.666667-1.666667h-1v-2.6666666c0-0.7400004-0.599999-1.3333338-1.333333-1.3333338h-2.666667v-0.9999999a1.6666667 1.6666667 0 0 0-1.6666663-1.6666667z" style="color:#dfdfdf;fill:#dfdfdf"/>
</svg>
