<?xml version="1.0" encoding="UTF-8"?>
<svg version="1.1" viewBox="0 0 16 16" xmlns="http://www.w3.org/2000/svg">
 <defs>
  <style id="current-color-scheme" type="text/css">.ColorScheme-Text {
        color:#dfdfdf;
      }</style>
 </defs>
 <path d="m4.5 2.0000005a3.5 3.5001786 0 0 0-3.5 3.4999999v5.5000006c0 1.66208 1.337999 2.999999 3 2.999999 1.6619989 0 2.9999999-1.337919 2.9999999-2.999999v-1h2v1c0 1.66208 1.3380011 2.999999 3.0000001 2.999999 1.662001 0 3-1.337919 3-2.999999v-5.5000006a3.5 3.5001786 0 0 0-3.5-3.4999999 3.5 3.5001786 0 0 0-2.3964841 0.95312h-2.207031a3.5 3.5001786 0 0 0-2.3964849-0.95312zm-0.5 1.9999999h1v1h0.9999999v1h-0.9999999v1h-1v-1h-1v-1h1zm7.5 0c0.276148 0 0.5 0.22386 0.5 0.5s-0.223852 0.5-0.5 0.5c-0.27615 0-0.5-0.22386-0.5-0.5s0.22385-0.5 0.5-0.5zm-1 1c0.276145 0 0.5 0.22386 0.5 0.5s-0.223855 0.5-0.5 0.5c-0.276135 0-0.5-0.22386-0.5-0.5s0.223865-0.5 0.5-0.5zm2 0c0.276135 0 0.5 0.22386 0.5 0.5s-0.223865 0.5-0.5 0.5c-0.276145 0-0.5-0.22386-0.5-0.5s0.223855-0.5 0.5-0.5zm-1 1c0.276149 0 0.5 0.22386 0.5 0.5s-0.223851 0.5-0.5 0.5c-0.276147 0-0.5-0.22386-0.5-0.5s0.223853-0.5 0.5-0.5z" style="fill:#dfdfdf;paint-order:fill markers stroke"/>
</svg>
