<?xml version="1.0" encoding="UTF-8"?>
<svg id="svg6" version="1.1" viewBox="0 0 16 16" xmlns="http://www.w3.org/2000/svg">
 <defs id="defs3051">
  <style id="current-color-scheme" type="text/css">.ColorScheme-Text {
        color:#dfdfdf;
      }</style>
 </defs>
 <path id="path4" class="ColorScheme-Text" d="m8.015625 1.8164062c-2.8259015 0-5.50013 1.1329672-7.53125 3.1914063-0.38198268 0.3872224-0.39465993 1.0294655-0.02734375 1.4335937 0.36731545 0.4041035 0.97538765 0.4165251 1.3574218 0.0292969 1.6714772-1.694868 3.8737732-2.6269531 6.2011719-2.6269531 2.322922 0 4.525211 0.9326823 6.201172 2.6289062 0.186214 0.1878582 0.425372 0.2832032 0.664062 0.2832032 0.252123 0 0.504584-0.1050358 0.69336-0.3125 0.366629-0.4041217 0.353384-1.0463539-0.029297-1.4335938-2.034952-2.0591079-4.709158-3.1933594-7.529297-3.1933594zm0.0019531 3.3789063c-2.0471136 0-3.9717438 0.8363071-5.4179687 2.3554687-0.3764807 0.3946651-0.3776276 1.0369097-0.0039063 1.4335938 0.3737088 0.3966709 0.9817913 0.3985662 1.3574219 0.0039062 1.0846786-1.1386948 2.5260466-1.765625 4.0625-1.765625 1.5332575 0 2.975911 0.6281289 4.0625 1.7695313 0.186854 0.1966458 0.432646 0.2949219 0.677734 0.2949219 0.246371 0 0.494146-0.1008147 0.681641-0.2988282 0.373518-0.3973594 0.372371-1.0389286-0.003906-1.4335937-1.448781-1.5218611-3.372098-2.359375-5.4160159-2.359375zm-0.0019531 3.3789063c-1.2638424 0-2.472382 0.5648066-3.3183594 1.5507812-0.3564631 0.414248-0.3265053 1.055226 0.0664063 1.431641 0.3935563 0.377089 0.9996746 0.345297 1.3554687-0.070313 0.4901774-0.571035 1.1631335-0.884766 1.8964844-0.884766 0.7211952 0 1.4146959 0.322363 1.9003906 0.888672 0.1894164 0.220308 0.4498424 0.333985 0.7109374 0.333985 0.23037 0 0.459561-0.087295 0.642578-0.263672 0.392882-0.376414 0.424793-1.016707 0.06836-1.431641-0.84854-0.9879947-2.0603383-1.5546872-3.322266-1.5546872zm-0.1191406 3.3789062c-0.6403939 0-1.1601563 0.52051-1.1601563 1.162109 0 0.641607 0.5197624 1.160157 1.1601563 1.160157 0.6403896 0 1.1582031-0.51855 1.1582031-1.160157 0-0.641599-0.5178135-1.162109-1.1582031-1.162109z" style="fill:#dfdfdf"/>
</svg>
