<?xml version="1.0" encoding="UTF-8"?>
<svg id="svg6" version="1.1" viewBox="0 0 16 16" xmlns="http://www.w3.org/2000/svg">
 <defs id="defs3051">
  <style id="current-color-scheme" type="text/css">.ColorScheme-Text {
        color:#dfdfdf;
      }</style>
 </defs>
 <path id="path14135" d="m12.360648 2.0645025c-1.853212 0-3.3572428 1.5686638-3.3740555 3.5084582l-2.102536 3.1600865c-0.08565-0.00899-0.1733068-0.013167-0.2612552-0.013167-0.4698669 0-0.9096301 0.1338073-1.2868099 0.3702317l-5.1416962-1.9050931 0.15842234 3.3102252 3.8090233 1.428457c0.2464204 1.188018 1.2563575 2.081459 2.4610604 2.081459 1.3048889 0 2.3822119-1.049355 2.5069234-2.384646l3.2309233-2.4793838c1.863281 0 3.37545-1.5808254 3.37545-3.5346929 0-1.9549718-1.512006-3.5419914-3.37545-3.5419914zm0 1.1660882c1.248453 0 2.263733 1.0663804 2.263733 2.3758962 0 1.3095724-1.01528 2.3686118-2.263733 2.3686118s-2.262339-1.0590394-2.262339-2.3686118c0-1.3095158 1.013886-2.3758962 2.262339-2.3758962zm0.0098 0.4664281c-0.997735 0-1.806538 0.8512285-1.806538 1.8978019 0 1.046538 0.808803 1.8963506 1.806538 1.8963506 0.997778 0 1.807933-0.8498126 1.807933-1.8963506 0-1.0465734-0.810155-1.8978019-1.807933-1.8978019zm-5.7476254 5.7225639c1.0270629 0 1.8523944 0.8656633 1.8523944 1.9429933-7.1e-6 1.077269-0.8253315 1.942988-1.8523944 1.942988-0.7144161 0-1.3303535-0.417243-1.6397844-1.0349 0.3046852 0.128965 0.6086802 0.256408 0.9129953 0.386265 0.7551637 0.318314 1.6155508-0.06484 1.9191047-0.857069 0.3035396-0.792083-0.0646041-1.691788-0.8198886-2.0100457l-0.7726451-0.3235881c0.1285821-0.029095 0.2629486-0.046651 0.4002181-0.046651z" style="color:#000000;fill:#dfdfdf"/>
</svg>
