<?xml version="1.0" encoding="UTF-8"?>
<svg id="svg6" version="1.1" viewBox="0 0 16 16" xmlns="http://www.w3.org/2000/svg">
 <defs id="defs3051">
  <style id="current-color-scheme" type="text/css">.ColorScheme-Text {
        color:#dfdfdf;
      }</style>
 </defs>
 <path id="path4" class="ColorScheme-Text" d="m9.5722656 2.4863281c-0.0681093 0.0276397-0.1237536 0.0807242-0.1523437 0.1484375l-4.3554688 10.302734c-0.0596352 0.14097 0.0054347 0.303646 0.1464844 0.363281l0.7304687 0.308594c0.0344507 0.014651 0.0706746 0.021484 0.1074219 0.021484 0.035401 0 0.0720477-0.005988 0.1054688-0.019531 0.0681093-0.02764 0.1217213-0.082677 0.1503906-0.15039l4.3554685-10.300782c0.059556-0.1409704-0.005514-0.3036459-0.146484-0.3632812l-0.7304689-0.3085938c-0.0676341-0.0286692-0.142749-0.0295136-0.2109375-0.0019531zm-5.0527344 1.90625c-0.0701981-0.0101273-0.1457328 0.0068398-0.2070312 0.0527344l-4.1289062 3.0878906c-0.06993085 0.05227-0.11132812 0.1352229-0.11132812 0.2226563 0 0.0874333 0.041397275 0.1703863 0.11132812 0.2226562l4.1289062 3.0878904c0.0497356 0.037302 0.1082811 0.056641 0.1660156 0.056641 0.0844239 0 0.168248-0.038546 0.2226563-0.111328l0.4746093-0.634766c0.0440335-0.059002 0.0631884-0.132296 0.0527344-0.205078-0.0105332-0.072782-0.0505317-0.13956-0.109375-0.1835938l-2.984375-2.2324218 2.984375-2.2324219c0.0588433-0.0440335 0.0988418-0.1088587 0.109375-0.1816406 0.010454-0.072782-0.0086217-0.1480296-0.0527344-0.2070313l-0.4746093-0.6328125c-0.0458946-0.0612984-0.1114425-0.0992477-0.1816407-0.109375zm6.6874998 0c-0.070188 0.0101273-0.137739 0.0481162-0.183593 0.109375l-0.47461 0.6328125c-0.044033 0.0589225-0.063188 0.1342493-0.052734 0.2070313 0.010533 0.0727027 0.050452 0.1376071 0.109375 0.1816406l2.986328 2.2324219-2.986328 2.2324218c-0.058923 0.0440338-0.098842 0.1108908-0.109375 0.1835938-0.010454 0.072782 0.008621 0.146156 0.052734 0.205078l0.47461 0.634766c0.054487 0.072782 0.138232 0.111328 0.222656 0.111328 0.057734 0 0.116201-0.019418 0.166015-0.056641l4.13086-3.0878904c0.069931-0.0522699 0.111328-0.1352229 0.111328-0.2226562 0-0.0874334-0.041397-0.1703863-0.111328-0.2226563l-4.13086-3.0878906c-0.061298-0.045855-0.13489-0.0628617-0.205078-0.0527344z" style="fill:#dfdfdf"/>
</svg>
