<?xml version="1.0" encoding="UTF-8"?>
<svg id="svg6" version="1.1" viewBox="0 0 16 16" xmlns="http://www.w3.org/2000/svg">
 <defs id="defs3051">
  <style id="current-color-scheme" type="text/css">.ColorScheme-Text {
        color:#dfdfdf;
      }</style>
 </defs>
 <path id="path4" class="ColorScheme-Text" d="m12.285156 0.9296875c-0.043726-0.01186896-0.091353-0.00913784-0.142578 0.00585938-0.10245 0.02498002-0.166426 0.08895592-0.191406 0.19140622l-0.179688 0.703125-0.697265-0.1972656c-0.102451-0.0299944-0.189263-0.0071578-0.261719 0.0703125-0.07747 0.0724559-0.100307 0.1612216-0.070312 0.2636719l0.197265 0.6953125-0.705078 0.1816406c-0.09992 0.02498-0.163411 0.0870028-0.193359 0.1894531-0.025026 0.1049345-7.22e-4 0.1937002 0.074218 0.2636719l0.517578 0.5058594-0.517578 0.5058594c-0.07494 0.0699716-0.099198 0.1567842-0.074218 0.2617187 0.029948 0.1024503 0.093439 0.1664262 0.193359 0.1914063l0.705078 0.1796874-0.197265 0.6972657c-0.029995 0.1024503-0.007158 0.1892168 0.070312 0.2617187 0.072456 0.0774703 0.159268 0.1022141 0.261719 0.0722656l0.697265-0.1992187 0.179688 0.7050781c0.02498 0.1024503 0.088956 0.1678483 0.191406 0.1953125 0.104935 0.0249801 0.1937-0.0012318 0.263672-0.0761719l0.505859-0.515625 0.50586 0.515625c0.04996 0.0548825 0.113982 0.0839844 0.191406 0.0839844 0.017527 0 0.040272-0.0028901 0.070313-0.0078125 0.10245-0.0299944 0.166426-0.0953924 0.191406-0.1953125l0.179687-0.7050781 0.697266 0.1992187c0.102496 0.0299485 0.189309 0.0071578 0.261719-0.0703124 0.077516-0.0725019 0.102214-0.1612676 0.072265-0.2636719l-0.199219-0.6972657 0.705079-0.1796874c0.100058-0.0249801 0.165364-0.088956 0.195312-0.1914063 0.025026-0.1049805-0.00114-0.1917471-0.076172-0.2617187l-0.517578-0.5058594 0.517578-0.5058594c0.074986-0.0699717 0.101152-0.1587374 0.076172-0.2636719-0.029948-0.1024503-0.0953-0.1644731-0.195312-0.1894531l-0.705079-0.1816406 0.199219-0.6953125c0.029949-0.1024043 0.005297-0.191216-0.072265-0.2636719-0.07241-0.0774703-0.159223-0.1003069-0.261719-0.0703125l-0.697266 0.1972656-0.179687-0.703125c-0.02498-0.1024503-0.088956-0.1664262-0.191406-0.19140622-0.102497-0.02751024-0.189309-0.00462759-0.261719 0.07031252l-0.50586 0.5214844-0.505859-0.5214844c-0.036228-0.03873517-0.077367-0.06430294-0.121094-0.0761719zm-6.5156248 3.5800781c-1.5217895 0-2.807961 0.5203059-3.859375 1.5625-1.0421941 1.0421942-1.5625 2.3016733-1.5625 3.7773438 0 1.4848956 0.52030586 2.7488216 1.5625 3.7910156 1.0421942 1.032974 2.3283657 1.548828 3.859375 1.548828 0.7839494 0 1.4989242-0.146267 2.1445313-0.441406l-0.3867187-0.941406c-0.5164847 0.258239-1.1029856 0.386718-1.7578126 0.386718-1.2174306 0-2.2491432-0.418524-3.0976562-1.257812-0.848508-0.839288-1.2734375-1.868507-1.2734375-3.0859376 0-1.2174257 0.4249295-2.2446962 1.2734375-3.0839844 0.848513-0.8392882 1.8802256-1.2597656 3.0976562-1.2597656 1.2174257 0 2.2510964 0.4204774 3.0996094 1.2597656s1.2734374 1.8665587 1.2734374 3.0839844c0 1.3188836-0.3275899 1.9785156-0.9824218 1.9785156-0.2766894 0-0.4847046-0.097334-0.6230468-0.291016-0.1291224-0.193681-0.1933594-0.410595-0.1933594-0.65039v-3.6093752h-0.9960938v0.6210937h-0.0566406c-0.4703706-0.5441541-1.0593605-0.8144531-1.7695312-0.8144531-0.7193906 0-1.337031 0.2658519-1.8535156 0.8007812-0.5164847 0.5349343-0.7753907 1.2079125-0.7753907 2.0195313 0 0.8208431 0.258906 1.5002271 0.7753907 2.0351561 0.5164846 0.52571 1.1519182 0.787109 1.9082031 0.787109 0.8392882 0 1.485574-0.336489 1.9375-1.009765 0.3412482 0.673276 0.8571069 1.009765 1.5488281 1.009765 0.6732765 1e-6 1.184688-0.270298 1.535156-0.814453 0.359698-0.544154 0.541016-1.232431 0.541016-2.0624996 0-1.4756705-0.517812-2.7351496-1.5507814-3.7773438-1.0329743-1.0421941-2.3057996-1.5625-3.8183594-1.5625zm-0.0957031 3.625c0.4611508 0 0.8529777 0.1615715 1.1757813 0.484375 0.3320233 0.3228036 0.4980468 0.750227 0.4980468 1.2851563 1e-7 0.5349291-0.1660235 0.9643061-0.4980468 1.2871091-0.3228036 0.322804-0.7146305 0.484375-1.1757813 0.484375-0.4611458 0-0.8593779-0.161571-1.1914062-0.484375-0.3228036-0.322803-0.4824219-0.75218-0.4824219-1.2871091 0-0.5349293 0.1596183-0.9623527 0.4824219-1.2851563 0.3320283-0.3228035 0.7302604-0.484375 1.1914062-0.484375z" style="fill:#dfdfdf"/>
</svg>
