<?xml version="1.0" encoding="UTF-8"?>
<svg id="svg6" version="1.1" viewBox="0 0 16 16" xmlns="http://www.w3.org/2000/svg">
 <defs id="defs3051">
  <style id="current-color-scheme" type="text/css">.ColorScheme-Text {
        color:#dfdfdf;
      }</style>
 </defs>
 <path id="folderGlyph-1" d="m1 1.411775v2.63529h6.2999998v7.90587h-1.4v0.658819h-4.8999998v1.317645h4.8999998v0.658826h4.2000002v-0.658826h4.9v-1.317645h-4.9v-0.658819h-1.4000002v-7.90587h6.3000002v-2.63529zm12.6 0.6588186c0.3878 0 0.7 0.2938395 0.7 0.658826 0 0.3649875-0.3122 0.6588194-0.7 0.6588194s-0.7-0.2938319-0.7-0.6588194c0-0.3649865 0.3122-0.658826 0.7-0.658826zm-5.6000002 10.54116c0.3878 0 0.7 0.293839 0.7 0.658826s-0.3122 0.658819-0.7 0.658819-0.7-0.293832-0.7-0.658819 0.3122-0.658826 0.7-0.658826z" style="color-rendering:auto;color:#000000;fill:#dfdfdf;image-rendering:auto;isolation:auto;mix-blend-mode:normal;shape-rendering:auto;solid-color:#000000"/>
</svg>
