<?xml version="1.0" encoding="UTF-8"?>
<svg id="svg4" version="1.1" viewBox="0 0 22 22" xmlns="http://www.w3.org/2000/svg">
 <defs id="defs8">
  <style id="current-color-scheme" type="text/css">.ColorScheme-Text {
        color:#dfdfdf;
      }</style>
  <style id="current-color-scheme-5" type="text/css">.ColorScheme-Text {
        color:#dfdfdf;
      }</style>
 </defs>
 <path id="path984" d="m11 3a8.0000019 8 0 0 0-8 8 8.0000019 8 0 0 0 8 8 8.0000019 8 0 0 0 8-8 8.0000019 8 0 0 0-8-8zm0 2a6.0000019 6.0000005 0 0 1 6 6 6.0000019 6.0000005 0 0 1-6 6 6.0000019 6.0000005 0 0 1-6-6 6.0000019 6.0000005 0 0 1 6-6zm-1 2v4h-3v2h5v-6h-2z" style="fill:#dfdfdf"/>
</svg>
