<?xml version="1.0" encoding="UTF-8"?>
<svg id="svg12" version="1.1" viewBox="0 0 22 22" xmlns="http://www.w3.org/2000/svg">
 <path id="path2" d="m21.227117 8.2692568c-0.646479-0.5944338-0.0018-0.00677-0.673846-0.6282531l-7.409576-6.5232862-8.5122211 2.2808429-0.3924073 0.1051453c-0.42875 1.3042292-0.081902 0.25187-0.2888487 0.8538539l-2.8383712 8.3633484c-0.34415135 1.019149 0.00212 0.0077-0.3389637 1.029044 7.2193677 6.371918 5.4438641 4.808645 7.5405719 6.649948 0.6093441 0.490617 0.1220457 0.08862 0.6145397 0.482382l0.332037-0.08897 0.030185-0.0081 7.3349994-1.965407 1.177222-0.315435c0.892554-2.644934 0.130904-0.386976 0.216637-0.64039l2.938601-8.7137172 0.136336-0.4571121c0.102615-0.3202302-0.447241 1.3863633 0.133105-0.4238939zm-1.597164-0.0896793-7.485925 2.0058475-0.106732-0.036106-0.177357-0.1789439-6.5168683-5.7272103 7.5161103-2.0139358zm0.258819 0.9659258-2.888486 8.5385387-7.3651847 1.973495 2.8884867-8.538539zm-8.397982 1.8620037-2.8162743 8.325075-6.7244106-5.898066 2.8081861-8.35526 6.4322328 5.652831z" style="fill:#dfdfdf"/>
</svg>
