<?xml version="1.0" encoding="UTF-8"?>
<svg id="svg7" version="1.1" viewBox="0 0 22 22" xmlns="http://www.w3.org/2000/svg">
 <defs id="defs3">
  <style id="current-color-scheme" type="text/css">.ColorScheme-Text { color:#dfdfdf; } .ColorScheme-Highlight { color:#5294e2; } .ColorScheme-ButtonBackground { color:#d3dae3; }</style>
  <style id="current-color-scheme-35" type="text/css">.ColorScheme-Text { color:#dfdfdf; } .ColorScheme-Highlight { color:#5294e2; } .ColorScheme-ButtonBackground { color:#d3dae3; }</style>
  <style id="current-color-scheme-3" type="text/css">.ColorScheme-Text { color:#dfdfdf; } .ColorScheme-Highlight { color:#5294e2; } .ColorScheme-ButtonBackground { color:#d3dae3; }</style>
  <style id="current-color-scheme-6" type="text/css">.ColorScheme-Text { color:#dfdfdf; } .ColorScheme-Highlight { color:#5294e2; } .ColorScheme-ButtonBackground { color:#d3dae3; }</style>
  <style id="current-color-scheme-36" type="text/css">.ColorScheme-Text { color:#dfdfdf; } .ColorScheme-Highlight { color:#5294e2; } .ColorScheme-ButtonBackground { color:#d3dae3; }</style>
 </defs>
 <path id="rect946" d="m10.955078 3a4 4 0 0 0-3.9999999 4h2a2 2 0 0 1 1.9999999-2 2 2 0 0 1 2 2v4h-7.955078v8h12v-8h-2.044922v-4a4 4 0 0 0-4-4zm-3.955078 10h8v4h-8v-4z" style="fill:#dfdfdf;paint-order:stroke fill markers"/>
 <path id="path841" d="m10.955078 3a4 4 0 0 0-3.9999999 4h2a2 2 0 0 1 1.9999999-2 2 2 0 0 1 2 2v4h-7.955078v8h12v-8h-2.044922v-4a4 4 0 0 0-4-4zm-3.955078 10h8v4h-8v-4z" style="fill:#dfdfdf;paint-order:stroke fill markers"/>
</svg>
