<?xml version="1.0" encoding="UTF-8"?>
<svg viewBox="0 0 22 22" xmlns="http://www.w3.org/2000/svg">
 <path d="m4 3v14h-1v1h1v1h1v-1h14v-1h-14v-1h3v-0.007812l0.0078125 0.007812 1.9999995-2h1.591797l2 2h5.400391v-1h-4.986328l-2-2h-2.419922l-2 2h-2.59375v-7h2.5878906l1.7070313 1.7070312 0.8281251 0.8281248 2 2 0.001953-0.001953 0.001953 0.001953 2.126953-2.125 3.166016 3.166016 0.707031-0.707031-1.041015-1.041016-0.828126-0.828125-2-2-0.003906 0.0039062-0.005859-0.0039062-2.123047 2.123047-2.123047-2.123047-1.9999999-2h-2.0019531v-0.0078125h-1v-0.9921875h7v-1h-7v-2zm8 0v1h1v3h1v-4h-1zm4.5 0c-0.831 0-1.5 0.669-1.5 1.5v1c0 0.831 0.669 1.5 1.5 1.5s1.5-0.669 1.5-1.5v-1c0-0.831-0.669-1.5-1.5-1.5zm4 0c-0.831 0-1.5 0.669-1.5 1.5v1c0 0.831 0.669 1.5 1.5 1.5s1.5-0.669 1.5-1.5v-1c0-0.831-0.669-1.5-1.5-1.5zm-4 1c0.277 0 0.5 0.223 0.5 0.5v1c0 0.277-0.223 0.5-0.5 0.5s-0.5-0.223-0.5-0.5v-1c0-0.277 0.223-0.5 0.5-0.5zm4 0c0.277 0 0.5 0.223 0.5 0.5v1c0 0.277-0.223 0.5-0.5 0.5s-0.5-0.223-0.5-0.5v-1c0-0.277 0.223-0.5 0.5-0.5z" fill="#dfdfdf"/>
 <path d="m5.0078125 6v1h2.9921875l4 4v-5zm-0.0078125 2v7h2.59375l2-2h0.40625l2-0.007812 0.007812 0.007812h0.00586l1.992187 1.992188 1.996094 0.005859 2.019531-2.019531s-0.001953-0.001954-0.001953-0.001954l-0.599609 0.59961-3.166016-3.166016-2.126953 2.125-0.001953-0.001953-0.001953 0.001953-2-2-0.8281251-0.8281248-1.7070313-1.7070312h-2.5800781zm5 6-2 2h-3v1h14v-1h-5.400391l-2-2z" fill="#dfdfdf" fill-opacity=".5"/>
</svg>
