<?xml version="1.0" encoding="UTF-8"?>
<svg viewBox="0 0 22 22" xmlns="http://www.w3.org/2000/svg">
 <path d="m4 3v14h-1v1h1v1h1v-1h14v-1h-14v-1h3v-0.007812l0.0078125 0.007812 1.9999995-2h1.591797l2 2h5.400391v-1h-4.986328l-2-2h-2.419922l-2 2h-2.59375v-4h5v-0.007812l0.007812 0.007812 0.996094-0.996094-0.707031-0.707031-0.703125 0.703125h-4.59375v-7zm7 7h2v-1h-1v-1h-1zm0-6v2h1v-1h1v-1zm4 0v1h1v1h1v-2zm-1 1.59375-0.707031 0.7070312-0.996094 0.9960938 0.707031 0.7070312 0.996094-0.9960937 0.996094 0.9960937 0.707031-0.7070312zm2 2.40625v1h-1v1h2v-2zm3 0-1 1h1z" fill="#dfdfdf"/>
 <path d="m14 7-1.996094 2h .996094v1h-1.994141l-.998047 1h-5.007812v4h2.5996094l2-2h2.4082026l1.992188 1.992188 5 .007812v-6h-2v1h-2v-1h1zm-4 7-2 2h-3v1h14v-1h-5.400391l-2-2z" fill="#dfdfdf" fill-opacity=".5"/>
</svg>
