<?xml version="1.0" encoding="UTF-8"?>
<svg viewBox="0 0 22 22" xmlns="http://www.w3.org/2000/svg">
 <path d="m4 3v14h-1v1h1v1h1v-1h14v-1h-0.292969l-3.576172-3.576172-0.003906 0.003906-0.005859-0.003906-2.123047 2.123047-4.123047-4.123047h-3.875v-1.423828h3.875l2.828125-2.828125 1.294922-1.2949219 2.123047 2.1230469 0.005859-0.0039062 0.003906 0.0039062 2.828125-2.828125 1.041016-1.0410156-0.707031-0.7070313-1.041016 1.0410157-2.125 2.125-2.126953-2.125-0.001953 0.0019531-0.001953-0.0019531-1.527344 1.5273437h-6.46875v-2.9921875zm1 3h6.460938l-0.464844 0.4648438-0.828125 0.828125-1.7070315 1.7070312h-3.4609375zm0 6.423828h3.4609375l1.7070315 1.707031 1.292969 1.292969h-6.460938v-0.423828zm10.126953 2.410156 2.166016 2.166016h-12.292969v-1.568359h6.46875l1.527344 1.527343 0.001953-0.001953 0.001953 0.001953z" fill="#dfdfdf"/>
</svg>
