<?xml version="1.0" encoding="UTF-8"?>
<svg id="svg4" version="1.1" viewBox="0 0 22 22" xmlns="http://www.w3.org/2000/svg">
 <path id="path902" d="m11 6.1464842c-3.6650996 0.0054754-7.0486946 1.9791555-8.8554688 5.1679688l-0.1445312 0.253906 0.1582031 0.244141c0.2267688 0.357019 0.5438885 0.644476 0.9121094 0.839844l0.4257813 0.226562 0.2285156-0.425781c0.8597727-1.609664 2.2380642-2.7937709 3.8359375-3.5351564-0.546368 0.7293887-0.9296876 1.5899894-0.9296875 2.5683594 0 2.407012 1.9621291 4.367188 4.3691406 4.367188 2.407013 0 4.367188-1.960176 4.367188-4.367188-6.68e-4 -0.960988-0.3644-1.8209496-0.898438-2.5468751 1.584256 0.7427527 2.949453 1.9224541 3.802734 3.5156251l0.226563 0.423828 0.429687-0.224609c0.37258-0.197044 0.690624-0.48694 0.917969-0.847656l0.154297-0.246094-0.142578-0.251953c-1.809012-3.1877451-5.192139-5.1592862-8.857422-5.1621098zm-0.01367 2.8632812a2.4637426 2.4637426 0 0 1 2.462891 2.4628906 2.4637426 2.4637426 0 0 1-2.462891 2.462891 2.4637426 2.4637426 0 0 1-2.4628905-2.462891 2.4637426 2.4637426 0 0 1 2.4628905-2.4628906zm0.0039 0.9667969a1.5463599 1.5463599 0 0 0-1.5449215 1.5468757 1.5463599 1.5463599 0 0 0 0.03125 0.310546 0.84477066 0.84477066 0 0 1 0.7421875-0.439453 0.84477066 0.84477066 0 0 1 0.84375 0.845703 0.84477066 0.84477066 0 0 1-0.498047 0.767578 1.5463599 1.5463599 0 0 0 0.425781 0.0625 1.5463599 1.5463599 0 0 0 1.546875-1.546874 1.5463599 1.5463599 0 0 0-1.546875-1.5468757z" style="color-rendering:auto;color:#dfdfdf;dominant-baseline:auto;fill:#da4453;font-feature-settings:normal;font-variant-alternates:normal;font-variant-caps:normal;font-variant-ligatures:normal;font-variant-numeric:normal;font-variant-position:normal;image-rendering:auto;isolation:auto;mix-blend-mode:normal;shape-padding:0;shape-rendering:auto;solid-color:#000000;stroke-width:1.0757014;text-decoration-color:#000000;text-decoration-line:none;text-decoration-style:solid;text-indent:0;text-orientation:mixed;text-transform:none;white-space:normal"/>
</svg>
