<?xml version="1.0" encoding="UTF-8"?>
<svg id="svg7" version="1.1" viewBox="0 0 22 22" xmlns="http://www.w3.org/2000/svg">
 <defs id="defs3">
  <style id="current-color-scheme" type="text/css">.ColorScheme-Text { color:#dfdfdf; } .ColorScheme-Highlight { color:#5294e2; } .ColorScheme-ButtonBackground { color:#d3dae3; }</style>
 </defs>
 <path id="path5" class="ColorScheme-Text" d="m9.0771477 3.298926-0.1697266 2.028125a6.05 6.05 0 0 0-1.7681641 1.0226562l-1.8433593-0.8679687-1.925 3.334375 1.6736328 1.1623045a6.05 6.05 0 0 0-0.092382 1.020508 6.05 6.05 0 0 0 0.088086 1.024806l-1.6693359 1.158007 1.925 3.334374 1.8390624-0.865819a6.05 6.05 0 0 0 1.772461 1.01621l0.1654298 2.03457h3.8500002l0.169727-2.028125a6.05 6.05 0 0 0 1.768163-1.022655l1.84336 0.867967 1.925-3.334374-1.673633-1.162304a6.05 6.05 0 0 0 0.09238-1.020508 6.05 6.05 0 0 0-0.08809-1.0248043l1.669335-1.1580089-1.925-3.334375-1.839062 0.8658203a6.05 6.05 0 0 0-1.772455-1.0162108l-0.16543-2.0345703zm1.9249993 5.5a2.2 2.2 0 0 1 2.2 2.2 2.2 2.2 0 0 1-2.2 2.2 2.2 2.2 0 0 1-2.1999993-2.2 2.2 2.2 0 0 1 2.1999993-2.2z" style="color:#dfdfdf;fill:#dfdfdf;stroke-width:1.1"/>
</svg>
