<?xml version="1.0" encoding="UTF-8"?>
<svg viewBox="0 0 22 22" xmlns="http://www.w3.org/2000/svg">
 <defs id="defs3051">
  <style id="current-color-scheme" type="text/css">.ColorScheme-Text {
        color:#dfdfdf;
      }</style>
 </defs>
 <path class="ColorScheme-Text" d="m11 3c-4.432 0-8 3.568-8 8s3.568 8 8 8 8-3.568 8-8-3.568-8-8-8zm0 1c3.878 0 7 3.122 7 7s-3.122 7-7 7-7-3.122-7-7 3.122-7 7-7zm0 5c-1.1079987 0-2 0.8920013-2 2 0 1.107999 0.8920013 2 2 2 1.107999 0 2-0.892001 2-2 0-1.1079987-0.892001-2-2-2zm0 1c0.553999 0 1 0.446001 1 1s-0.446001 1-1 1-1-0.446001-1-1 0.446001-1 1-1z" style="fill:currentColor"/>
</svg>
