<?xml version="1.0" encoding="UTF-8"?>
<svg viewBox="0 0 22 22" xmlns="http://www.w3.org/2000/svg">
 <defs id="defs3051">
  <style id="current-color-scheme" type="text/css">.ColorScheme-Text {
        color:#dfdfdf;
      }</style>
 </defs>
 <path class="ColorScheme-Text" d="m11 3c-4.432 0-8 3.568-8 8s3.568 8 8 8c0.692084 0 1.360349-0.096052 2-0.259766v-1.033203c-0.633753 0.187534-1.303833 0.292969-2 0.292969-3.878 0-7-3.122-7-7s3.122-7 7-7 7 3.122 7 7c0 0.696167-0.105435 1.366247-0.292969 2h1.033203c0.163714-0.639651 0.259766-1.307916 0.259766-2 0-4.432-3.568-8-8-8zm0 2c-3.323996 0-6 2.676-6 6h3c0-1.662 1.3380018-3 3-3v-3zm0 4c-1.1079987 0-2 0.892-2 2s0.8920013 2 2 2c1.107999 0 2-0.892 2-2s-0.892001-2-2-2zm0 1c0.553999 0 1 0.446 1 1s-0.446001 1-1 1-1-0.446-1-1 0.446001-1 1-1zm3 1c0 0.352948-0.068732 0.687647-0.181641 1h3.091797c0.056152-0.324868 0.089844-0.658318 0.089844-1h-3zm1.404297 2.041016c0.913008 0.1859 1.595703 0.989484 1.595703 1.958984 0 0.5815-0.248941 1.100144-0.642578 1.464844-0.220341-0.2609-0.357422-0.595044-0.357422-0.964844 0-0.0818 0.012911-0.160281 0.025391-0.238281-0.609637 0.3419-1.025391 0.986881-1.025391 1.738281 0 1.108 0.892005 2 2 2s2-0.892 2-2c0-2.0775-1.573831-3.754784-3.595703-3.958984zm-2.404297 0.183593c-0.530877 0.477181-1.226704 0.775391-2 0.775391v3c0.703343 0 1.373894-0.127245 2-0.347656v-3.427735z" style="fill:currentColor"/>
</svg>
