<?xml version="1.0" encoding="UTF-8"?>
<svg viewBox="0 0 22 22" xmlns="http://www.w3.org/2000/svg">
 <defs id="defs3051">
  <style id="current-color-scheme" type="text/css">.ColorScheme-Text {
        color:#dfdfdf;
      }</style>
 </defs>
 <path class="ColorScheme-Text" d="m15.5 6c-0.654697 0-1.202544 0.417435-1.408203 1h-11.091797v1h11.091797c0.206005 0.58192 0.753966 1 1.408203 1s1.202198-0.41808 1.408203-1h2.091797v-1h-2.091797c-0.205659-0.582565-0.753506-1-1.408203-1zm-7 7c-0.654701 0-1.2025421 0.41743-1.4082031 1h-4.0917969v1h4.0917969c0.206006 0.581925 0.7539631 1 1.4082031 1s1.2021971-0.418075 1.4082031-1h9.0917969v-1h-9.0917969c-0.205661-0.58257-0.7535021-1-1.4082031-1z" style="fill:currentColor"/>
</svg>
