<?xml version="1.0" encoding="UTF-8"?>
<svg viewBox="0 0 22 22" xmlns="http://www.w3.org/2000/svg">
 <g transform="matrix(.88888884 0 0 .88888884 -482.84123 -656.97218)" fill="none" stroke="#dfdfdf">
  <path d="m546.6 751.39697c.54733-.0289 1.60838-.122 2.62832-.80785.70619-.0375 1.02029 3.36499 1.48846 3.56471 1.91984-.20356 1.97498-9.49892 3.42034-9.47864.67252-.0487 2.33191 13.04349 3.25398 13.03904.75057-.0653 1.44739-8.62402 3.08656-8.558.41063-.038 1.90639 2.21624 3.25984 2.38764.24503-.004.46971-.0772.7663-.0686"/>
  <path transform="translate(544.57141 740.46875)" d="m2.0000011 11c3.9999989 0 5.9999989-7.5 8.9999989-7.5s5 7.5 9.000001 7.5"/>
  <path d="m546.57141 751.46875c4 0 6 7.5 9 7.5s5-7.5 9-7.5"/>
 </g>
</svg>
