<?xml version="1.0" encoding="UTF-8"?>
<svg id="svg4" version="1.1" viewBox="0 0 22 22" xmlns="http://www.w3.org/2000/svg">
 <path id="path2-3" d="m3.0831415 8.1621603 1.00157 0.81437-0.94267 1.8792497c-0.47132 0.86655 0.33838 1.71069 0.85428 2.00455 0.50787 0.28926 1.29613 0.32365 2.03258 0.31323l1.32559-2.25513 1.00156 0.56378-1.73801-3.3513397-3.5349 0.0313zm0.14727 4.6002597 2.1504 4.13437c0.43205 0.5742 1.24706 0.70993 2.09151 0.68906h2.26823v-3.91511l-4.30081-0.0313c-0.66768 0.0417-1.54162-0.10445-2.20933-0.87701zm13.52931-7.6191702-1.16999 0.51679-1.12244-1.76903c-0.49976-0.84909-1.60182-0.52138-2.09887-0.19428-0.48931 0.32202-0.90039 1.02281-1.24865 1.69816l1.25265 2.2998305-0.9594 0.63827 3.65925 0.0429 1.68745-3.2326105zm-3.9377-2.09616-4.5172905-0.0471c-0.69204 0.11484-1.20124 0.79082-1.59309 1.56958l-1.09966 2.06449 3.29048 1.8981005 2.1114005-3.8993405c0.2886-0.62801 0.83513-1.35255 1.80816-1.58571zm0.1965 15.95288 0.13286-1.31547 2.03098-0.16392c0.95589-0.0433 1.21477-1.20517 1.18083-1.81617-0.0334-0.60149-0.42311-1.31539-0.82188-1.95978l-2.54018 0.0252-0.0714-1.18267-1.810071 3.30977 1.898801 3.10308zm3.67077-2.56773 2.22961-4.08864c0.23901-0.68558-0.0822-1.47678-0.5468-2.21098l-1.20198-2.0017798-3.19051 2.0746998 2.25357 3.81219c0.3879 0.56712 0.73187 1.41581 0.45611 2.41451z" style="fill:#da4453"/>
</svg>
