<?xml version="1.0" encoding="UTF-8"?>
<svg id="svg4" version="1.1" viewBox="0 0 22 22" xmlns="http://www.w3.org/2000/svg">
 <path id="path2" d="m11.000065 3c-4.41128 0-8 3.58875-8 8s3.58868 8 7.99996 8c4.41124 0 7.99991-3.58875 7.99991-8s-3.58867-8-7.99987-8zm0 2.70422c0.97041 0 1.88051 0.26261 2.6635 0.72012l-7.23917 7.23916c-0.45755-0.78296-0.72016-1.6931-0.72016-2.6635 0-2.92013 2.37574-5.29578 5.29583-5.29578zm0 10.59157c-0.97043 0-1.8805-0.26261-2.6635-0.72012l7.23917-7.23916c0.45751 0.78298 0.72012 1.69309 0.72012 2.66349 0 2.92013-2.37575 5.29579-5.29579 5.29579z" style="fill:#da4453"/>
</svg>
