<?xml version="1.0" encoding="UTF-8"?>
<svg id="svg4" version="1.1" viewBox="0 0 22 22" xmlns="http://www.w3.org/2000/svg">
 <path id="rect812" d="m2 3v16h18v-16zm2 2h14v12h-14z" style="color-rendering:auto;color:#000000;dominant-baseline:auto;fill:#dfdfdf;font-feature-settings:normal;font-variant-alternates:normal;font-variant-caps:normal;font-variant-ligatures:normal;font-variant-numeric:normal;font-variant-position:normal;image-rendering:auto;isolation:auto;mix-blend-mode:normal;paint-order:stroke fill markers;shape-padding:0;shape-rendering:auto;solid-color:#000000;text-decoration-color:#000000;text-decoration-line:none;text-decoration-style:solid;text-indent:0;text-orientation:mixed;text-transform:none;white-space:normal"/>
 <path id="path847" d="m11.999569 10.999868h-3v1h3z" style="fill:#dfdfdf"/>
 <g id="g826" transform="translate(-.582616 -1.0301234)" style="fill:#dfdfdf">
  <path id="path845" d="m9.522779 8.8861153c-0.0118812-0.7965687-0.4752475-1.3000001-1.2237624-1.3446079v-0.3441177h-0.4039604v0.3441177c-0.7663365 0.076471-1.2118811 0.5416667-1.2118811 1.2553922 0 0.707353 0.409901 1.159804 1.2118811 1.3573534v1.357352c-0.3326732-0.063725-0.5168316-0.324999-0.5346534-0.771078h-0.7782179v0.05736c0 0.465197 0.1782179 0.841177 0.5108912 1.102451 0.2257426 0.172059 0.4455445 0.254903 0.8019801 0.293137v0.669118h0.4039604v-0.669118c0.3267327-0.03823 0.5762377-0.127451 0.7722772-0.261274 0.3207921-0.223039 0.5108911-0.630883 0.5108911-1.115196 0-0.700981-0.3564356-1.0769611-1.2831683-1.3509807v-1.2808894c0.3029703 0.044608 0.4752476 0.312255 0.4633663 0.7009804zm-1.6277228 0.452451c-0.3326732-0.1147058-0.4811881-0.2867647-0.4811881-0.5671568 0-0.3313727 0.1544554-0.5161766 0.4811881-0.5862746zm0.4039604 0.9240197c0.3326733 0.108334 0.49901 0.325 0.49901 0.630882 0 0.318628-0.1663367 0.528922-0.49901 0.618137z" style="fill:#dfdfdf"/>
  <path id="path814" d="m7.8461226 7.0299916v5.9999994h0.4721247v-5.9999993z" style="color-rendering:auto;color:#000000;dominant-baseline:auto;fill:#dfdfdf;font-feature-settings:normal;font-variant-alternates:normal;font-variant-caps:normal;font-variant-ligatures:normal;font-variant-numeric:normal;font-variant-position:normal;image-rendering:auto;isolation:auto;mix-blend-mode:normal;paint-order:stroke fill markers;shape-padding:0;shape-rendering:auto;solid-color:#000000;text-decoration-color:#000000;text-decoration-line:none;text-decoration-style:solid;text-indent:0;text-orientation:mixed;text-transform:none;white-space:normal"/>
 </g>
</svg>
