<?xml version="1.0" encoding="UTF-8"?>
<svg id="svg6" version="1.1" viewBox="0 0 22 22" xmlns="http://www.w3.org/2000/svg">
 <defs id="defs3051">
  <style id="current-color-scheme" type="text/css">.ColorScheme-Text {
        color:#4d4d4d;
      }</style>
 </defs>
 <path id="path833" d="M 11,3 C 9.5485929,3 8.209991,3.3569155 6.984375,4.0722656 5.758631,4.7874855 4.7876137,5.758625 4.0722656,6.984375 3.3567907,8.210115 3,9.5487199 3,11 c 0,1.45141 0.3570457,2.789755 1.0722656,4.015625 0.7153471,1.22549 1.6863665,2.196768 2.9121094,2.912109 C 8.2101191,18.643083 9.5485929,19 11,19 c 1.451407,0 2.790009,-0.356917 4.015625,-1.072266 1.225617,-0.715221 2.196761,-1.686489 2.912109,-2.912109 C 18.642953,13.789885 19,12.45128 19,11 19,9.5485899 18.642825,8.209985 17.927734,6.984375 17.212386,5.758755 16.241241,4.7876055 15.015625,4.0722656 13.789754,3.3569155 12.451535,3 11,3 Z M 8.171875,6.7578125 11,9.5859375 13.828125,6.7578125 15.242188,8.171875 12.414062,11 15.242188,13.828125 13.828125,15.242188 11,12.414062 8.171875,15.242188 6.7578125,13.828125 9.5859375,11 6.7578125,8.171875 Z" style="fill:#c51818;stroke-width:1.0582627"/>
</svg>
