<?xml version="1.0" encoding="UTF-8"?>
<svg id="svg4" version="1.1" viewBox="0 0 22 22" xmlns="http://www.w3.org/2000/svg">
 <path id="path819" d="m11 3a8 8 0 0 0-8 8 8 8 0 0 0 8 8 8 8 0 0 0 8-8 8 8 0 0 0-8-8zm0 1.9941406a6.0072894 6.0072894 0 0 1 6.007812 6.0058594 6.0072894 6.0072894 0 0 1-6.007812 6.007812 6.0072894 6.0072894 0 0 1-6.0058594-6.007812 6.0072894 6.0072894 0 0 1 6.0058594-6.0058594zm-0.238281 2.0058594c-0.342576 0-0.698046 0.0352932-1.0664065 0.1054688-0.3683607 0.0701754-0.7749865 0.1788034-1.2207031 0.3261718v1.6523438c0.375728-0.2315789 0.7377252-0.4056949 1.0839844-0.5214844 0.3462588-0.1192983 0.6684252-0.1777344 0.9667972-0.1777344 0.31679 0 0.563421 0.0705867 0.740234 0.2109375 0.176813 0.1368421 0.265625 0.3266516 0.265625 0.5722657 0 0.1614034-0.050933 0.3229715-0.150391 0.484375-0.095774 0.1614033-0.249019 0.3331687-0.458984 0.5156252l-0.353516 0.30664c-0.390462 0.34386-0.6460188 0.627002-0.7675778 0.851563-0.121559 0.221053-0.1816406 0.475953-0.1816406 0.763672v0.257812h1.9941404v-0.236328c0-0.157895 0.037879-0.301816 0.115235-0.43164 0.077355-0.133334 0.241702-0.3098 0.492187-0.527344l0.353516-0.298828c0.346259-0.312281 0.592667-0.604825 0.736328-0.8750004 0.143661-0.273684 0.214844-0.5819216 0.214844-0.9257812 0-0.6701754-0.23553-1.1799754-0.707032-1.5273438-0.471502-0.3508772-1.15784-0.5253906-2.05664-0.5253906zm-1.1425784 6.126953v1.873047h1.9941404v-1.873047h-1.9941404z" style="fill:#dfdfdf"/>
</svg>
