<?xml version="1.0" encoding="UTF-8"?>
<svg id="svg4" version="1.1" viewBox="0 0 22 22" xmlns="http://www.w3.org/2000/svg">
 <defs id="defs8">
  <style id="current-color-scheme" type="text/css">.ColorScheme-Text {
        color:#dfdfdf;
      }</style>
 </defs>
 <path id="path902" d="m10.999051 6.1458974c-3.6650996 0.0054754-7.0481704 1.9800484-8.8549446 5.1688616l-0.1441062 0.254082 0.1573791 0.2446c0.2267688 0.357019 0.5438195 0.642723 0.9120404 0.838091l0.4266302 0.227538 0.2294321-0.426631c0.8597727-1.609664 2.2380054-2.7930083 3.8358787-3.5343939-0.546368 0.7293888-0.9310018 1.5889949-0.9310017 2.5673649 0 2.407012 1.9616805 4.368693 4.368692 4.368693 2.407013 0 4.368692-1.961681 4.368692-4.368693-6.68e-4 -0.960988-0.364728-1.8205821-0.898766-2.5465076 1.584256 0.7427527 2.948467 1.9222616 3.801748 3.5154326l0.227535 0.424735 0.428528-0.225641c0.37258-0.197044 0.69228-0.486857 0.919625-0.847573l0.153587-0.2446-0.142211-0.252187c-1.809012-3.1877447-5.193455-5.160348-8.858738-5.1631716zm-0.01327 2.8631622a2.4637426 2.4637426 0 0 1 2.463079 2.4630774 2.4637426 2.4637426 0 0 1-2.463079 2.463079 2.4637426 2.4637426 0 0 1-2.4630774-2.463079 2.4637426 2.4637426 0 0 1 2.4630774-2.4630774z" style="color-rendering:auto;color:#dfdfdf;dominant-baseline:auto;fill:#dfdfdf;font-feature-settings:normal;font-variant-alternates:normal;font-variant-caps:normal;font-variant-ligatures:normal;font-variant-numeric:normal;font-variant-position:normal;image-rendering:auto;isolation:auto;mix-blend-mode:normal;shape-padding:0;shape-rendering:auto;solid-color:#000000;text-decoration-color:#000000;text-decoration-line:none;text-decoration-style:solid;text-indent:0;text-orientation:mixed;text-transform:none;white-space:normal"/>
 <path id="path909" d="m10.217612 10.185009a1.5463599 1.5463599 0 0 0-0.5658624 2.111828 1.5463599 1.5463599 0 0 0 0.183199 0.252824 0.84477066 0.84477066 0 0 1 0.4224724-0.751432 0.84477066 0.84477066 0 0 1 1.154435 0.309329 0.84477066 0.84477066 0 0 1-0.04771 0.915208 1.5463599 1.5463599 0 0 0 0.399423-0.160072 1.5463599 1.5463599 0 0 0 0.567331-2.112676 1.5463599 1.5463599 0 0 0-2.113296-0.565014z" style="fill:#dfdfdf"/>
 <path id="path829" d="m15.394784 2.1608496-0.229129 0.3968621-9.3014102 16.107915 4.758e-4 0.0018-0.4696728 0.810897 4.758e-4 0.0018 1.7315378 0.998203 0.469216-0.812706 9.3009716-16.109755 0.229129-0.396862z" style="color-rendering:auto;color:#000000;dominant-baseline:auto;fill:#dfdfdf;font-feature-settings:normal;font-variant-alternates:normal;font-variant-caps:normal;font-variant-ligatures:normal;font-variant-numeric:normal;font-variant-position:normal;image-rendering:auto;isolation:auto;mix-blend-mode:normal;shape-padding:0;shape-rendering:auto;solid-color:#000000;text-decoration-color:#000000;text-decoration-line:none;text-decoration-style:solid;text-indent:0;text-orientation:mixed;text-transform:none;white-space:normal"/>
</svg>
