<?xml version="1.0" encoding="UTF-8"?>
<svg viewBox="0 0 22 22" xmlns="http://www.w3.org/2000/svg">
 <defs id="defs3051">
  <style id="current-color-scheme" type="text/css">.ColorScheme-Text {
        color:#dfdfdf;
      }</style>
 </defs>
 <path class="ColorScheme-Text" d="m2 3v16h1 4v-2c-0.55228 0-1 0.44772-1 1h-1v-7-7h1c0 0.55228 0.44772 1 1 1s1-0.44772 1-1h4 4c0 0.55228 0.44772 1 1 1s1-0.44772 1-1h1v7h1v-8h-17-1zm17 8c0-3.86599-3.13401-7-7-7s-7 3.13401-7 7c0.0020604 1.854914 0.7493049 3.583962 2 4.867188v-1.580079c-0.6338492-0.962115-0.99867-2.09558-1-3.287109 0-3.31371 2.68629-6 6-6s6 2.68629 6 6h1zm-16-7h1v14h-1v-14zm14 7v1h-1-0.023438c-1.649008 0-2.976562 1.327554-2.976562 2.976562v0.023438c0 1.108-0.892 2-2 2h-3v1h3 0.023438c1.649008 0 2.976562-1.327554 2.976562-2.976562v-0.023438c0-1.108 0.892-2 2-2h1v1l2-1.5-2-1.5zm-9 1v1h3c0.398899 0 0.766762 0.118675 1.078125 0.318359 0.07572-0.336861 0.209875-0.649217 0.388672-0.93164-0.428875-0.238906-0.91569-0.386719-1.443359-0.386719h-0.023438-3zm9 4v1h-1c-0.398899 0-0.766762-0.118675-1.078125-0.318359-0.075723 0.336861-0.209875 0.649217-0.388672 0.93164 0.428874 0.238906 0.915687 0.386719 1.443359 0.386719h0.023438 1v1l2-1.5-2-1.5z" style="fill:currentColor"/>
</svg>
