<?xml version="1.0" encoding="UTF-8"?>
<svg viewBox="0 0 22 22" xmlns="http://www.w3.org/2000/svg">
 <defs id="defs3051">
  <style id="current-color-scheme" type="text/css">.ColorScheme-Text {
        color:#dfdfdf;
      }</style>
 </defs>
 <path class="ColorScheme-Text" d="m2 3v16h1 8v-1h-3a1 1 0 0 0-1-1 1 1 0 0 0-1 1h-1v-7-7h1a1 1 0 0 0 1 1 1 1 0 0 0 1-1h4 4a1 1 0 0 0 1 1 1 1 0 0 0 1-1h1v3h1v-4h-17-1zm10 1a7 7 0 0 0-7 7 7 7 0 0 0 6 6.921875v-1.011719a6 6 0 0 1-5-5.910156 6 6 0 0 1 6-6 6 6 0 0 1 4.462891 2h1.279297a7 7 0 0 0-5.742188-3zm-9 0h1v14h-1v-14zm13 4v1 5.5c-0.4182-0.3148-0.934-0.5-1.5-0.5-1.385 0-2.5 1.115-2.5 2.5s1.115 2.5 2.5 2.5 2.5-1.115 2.5-2.5v-6.5h2c0-1.108-0.892-2-2-2h-1z" style="fill:currentColor"/>
</svg>
