<?xml version="1.0" encoding="UTF-8"?>
<svg viewBox="0 0 22 22" xmlns="http://www.w3.org/2000/svg">
 <defs id="defs3051">
  <style id="current-color-scheme" type="text/css">.ColorScheme-Text {
        color:#dfdfdf;
      }
      .ColorScheme-Highlight {
        color:#3daee9;
      }</style>
 </defs>
 <path class="ColorScheme-Text" d="m12.357701 3.0000016a6.0156652 6.0156652 0 0 0-1.738903 0.4648l0.673632 1.1670398a4.6788507 4.6788507 0 0 1 1.065279-0.2846399v-1.3471999zm1.336816 0.00261v1.3471999a4.6788507 4.6788507 0 0 1 1.06528 0.2819199l0.671024-1.1619198a6.0156652 6.0156652 0 0 0-1.736292-0.46736zm-4.2323752 1.1331179a6.0156652 6.0156652 0 0 0-1.2741599 1.2740799l1.1671039 0.6710399a4.6788507 4.6788507 0 0 1 0.7754562-0.7833599l-0.6684002-1.1619199zm7.1279372 0-0.671024 1.1670399a4.6788507 4.6788507 0 0 1 0.783296 0.7755199l1.161872-0.6684799a6.0156652 6.0156652 0 0 0-1.274144-1.2740799zm1.945169 2.4307997-1.167104 0.6736a4.6788507 4.6788507 0 0 1 0.284592 1.0652799h1.347264a6.0156652 6.0156652 0 0 0-0.464754-1.7388319zm-11.013053 0.002608a6.0156652 6.0156652 0 0 0-0.4673599 1.7363039l-4.0548348 4.8e-5v10.694511h10.694516v-4.052224a6.0156652 6.0156652 0 0 0 1.738904-0.4648l-0.673632-1.167039a4.6788507 4.6788507 0 0 1-1.127936 0.28976 4.6788507 4.6788507 0 0 1-0.34464 0.0368 4.6788507 4.6788507 0 0 1-0.261104 0.01043 4.6788507 4.6788507 0 0 1-0.6684-0.0544 4.6788507 4.6788507 0 0 1-3.9582237-3.9555981 4.6788507 4.6788507 0 0 1-0.05216-0.6684799 4.6788507 4.6788507 0 0 1 0.05488-0.6683199 4.6788507 4.6788507 0 0 1 0.2819839-1.0652799l-1.1618719-0.67104zm-3.1853788 3.0731197h2.7154045a6.0156652 6.0156652 0 0 0 5.3054826 5.3028631v2.718016h-8.0208871v-8.0208791zm13.313314 0a4.6788507 4.6788507 0 0 1-0.281984 1.0652801l1.161888 0.67104a6.0156652 6.0156652 0 0 0 0.46736-1.7362881h-1.347264zm-0.953008 2.2245441a4.6788507 4.6788507 0 0 1-0.775456 0.7832l0.6684 1.161919a6.0156652 6.0156652 0 0 0 1.274144-1.274079l-1.167104-0.67104z" style="fill:currentColor"/>
 <path class="ColorScheme-Text" d="m4.3368143 9.6423049v8.0208791h8.0208867v-4.065279a4.6788507 4.6788507 0 0 1-3.9582231-3.9556001h-4.0626636z" style="fill-opacity:.6;fill:currentColor;stroke:naone"/>
</svg>
