<?xml version="1.0" encoding="UTF-8"?>
<svg id="svg6" version="1.1" viewBox="0 0 22 22" xmlns="http://www.w3.org/2000/svg">
 <defs id="defs3051">
  <style id="current-color-scheme" type="text/css">.ColorScheme-Text {
        color:#dfdfdf;
      }</style>
 </defs>
 <circle id="path814" cx="11" cy="11" r="7.5" style="fill:#ffffff"/>
 <path id="path2" d="m19 11a7.9999977 7.9999977 0 0 1-7.999994 8 7.9999977 7.9999977 0 0 1-8.000006-8 7.9999977 7.9999977 0 0 1 8.000006-8 7.9999977 7.9999977 0 0 1 7.999994 8zm-3.67212-1.756251c-0.337874-0.675583-0.81304-1.242155-1.425737-1.699549-0.176229-0.134286-0.375572-0.186749-0.598012-0.157389-0.222445 0.02937-0.398685 0.134286-0.528794 0.314698-0.134286 0.176222-0.185657 0.374491-0.154217 0.59484 0.03131 0.22044 0.135366 0.397668 0.3116 0.531948 0.41112 0.310532 0.729206 0.690354 0.953577 1.139406 0.224526 0.448977 0.33672 0.927463 0.33672 1.43516 0 0.436526-0.08499 0.852977-0.254897 1.249577-0.169977 0.396583-0.39976 0.739634-0.689337 1.029217-0.289583 0.289497-0.632554 0.519274-1.029143 0.689263-0.396594 0.169977-0.813114 0.25504-1.249571 0.25504-0.436383 0-0.852903-0.08506-1.2494976-0.25504-0.3965885-0.169983-0.7396343-0.39976-1.0292228-0.689263-0.2895029-0.289583-0.51928-0.63264-0.6892572-1.029217-0.1699828-0.396589-0.2549714-0.813046-0.2549714-1.249577 0-0.507697 0.1122629-0.986109 0.3367943-1.43516 0.2245257-0.448972 0.5423828-0.828794 0.9536571-1.139406 0.1762343-0.134354 0.2800743-0.311577 0.3116-0.531948 0.0314286-0.220275-0.0199428-0.418618-0.1542171-0.59484-0.1301086-0.180418-0.3052629-0.285338-0.5256229-0.314698-0.2203543-0.029371-0.4207714 0.023086-0.6011828 0.157389-0.6127715 0.457394-1.0879372 1.02396-1.4258057 1.699549-0.3378743 0.675668-0.5067715 1.395377-0.5067715 2.159114 0 0.65472 0.1280286 1.279931 0.3839943 1.875868 0.2560514 0.595938 0.6001086 1.109955 1.0323886 1.542252 0.4322114 0.432206 0.94632 0.776406 1.5422457 1.032234 0.5959371 0.256046 1.221223 0.384149 1.875869 0.384149 0.654645 0 1.279937-0.128103 1.875868-0.384149 0.595926-0.255897 1.110034-0.600028 1.54224-1.032234 0.432206-0.432212 0.776263-0.94632 1.032309-1.542252 0.255977-0.595931 0.383925-1.221217 0.383925-1.875868 0-0.763737-0.168668-1.483446-0.506537-2.159114zm-4.327926 2.159194c0.218189 0 0.407177-0.07966 0.566492-0.239206 0.159463-0.159394 0.23936-0.348303 0.23936-0.566486v-4.0288c0-0.218274-0.07981-0.407102-0.23936-0.566491-0.15932-0.159549-0.348223-0.23928-0.566492-0.23928-0.218263 0-0.407097 0.07981-0.566565 0.23928-0.159469 0.159394-0.2392 0.348297-0.2392 0.566491v4.0288c0 0.218178 0.07973 0.407098 0.2392 0.566486 0.159468 0.159554 0.348377 0.239206 0.566565 0.239206z" style="fill:#da4453"/>
</svg>
