<?xml version="1.0" encoding="UTF-8"?>
<svg id="svg4" version="1.1" viewBox="0 0 22 22" xmlns="http://www.w3.org/2000/svg">
 <g id="g849" transform="matrix(.45454545 0 0 .45454795 18.372881 5.3220028)">
  <path id="rect4148-2" d="m-37.461718-7.9912336c-0.420305 0-0.758621 0.3383449-0.758621 0.7586207v39.448276c0 0.420276 0.338316 0.758621 0.758621 0.758621h42.482758c0.420305 0 0.758621-0.338345 0.758621-0.758621v-39.448276c0-0.4202758-0.338316-0.7586207-0.758621-0.7586207h-41.724138z" style="fill:#34495e"/>
  <g id="g873" transform="matrix(.98892453 0 0 .98892453 22.518358 -4.7624839)" style="fill:#ff5555">
   <circle id="path4155-0" cx="-20.3729" cy="-.7965467" r="1" style="fill:#ff5555"/>
   <circle id="circle858" cx="-23.75263" cy="-.7965467" r="1" style="fill:#ff5555"/>
   <circle id="circle860" cx="-27.204269" cy="-.86845589" r="1" style="fill:#ff5555"/>
   <circle id="circle856" cx="-27.13236" cy="-.7965467" r="1" style="fill:#ff5555"/>
  </g>
  <rect id="rect889" x="-30.527763" y="1.5330508" width="28.614845" height="23.432631" style="fill:#ffffff"/>
  <path id="path2-3" d="m-35.258135-2.8563227c-0.806331 0-1.457819 0.7229981-1.457819 1.6184698v31.110033c0 0.895493 0.651488 1.618467 1.457819 1.618467h38.075587c0.806323 0 1.457824-0.722974 1.457824-1.618467v-31.110033c0-0.8954717-0.651501-1.6184698-1.457824-1.6184698zm12.996704 8.0715381 13.878915 9.1591916-13.878915 9.044705z" style="fill:#00d4aa;stroke-width:2.6995385"/>
 </g>
</svg>
