<?xml version="1.0" encoding="UTF-8"?>
<svg id="svg6" version="1.1" viewBox="0 0 22 22" xmlns="http://www.w3.org/2000/svg">
 <defs id="defs3051">
  <style id="current-color-scheme" type="text/css">.ColorScheme-Text {
        color:#dfdfdf;
      }
      .ColorScheme-Highlight {
        color:#3daee9;
      }</style>
 </defs>
 <g id="g819">
  <ellipse id="path814" cx="11" cy="11" rx="7.7838984" ry="7.737288" style="fill:#ffffff"/>
  <path id="path2" d="m15.19013 11.32936h-0.809c-0.2047 0-0.36989 0.16377-0.37696 0.36565-0.16801 1.56146-1.48945 2.77703-3.09749 2.77703-1.72099 0-3.11446-1.39204-3.11446-3.1102 0-1.70263 1.40334-3.0862201 3.10176-3.1102101v0.50543c0 0.23013 0.16377 0.33318 0.36425 0.23013l2.59632-1.3285c0.20048-0.10307 0.20048-0.26967 0-0.37272l-2.59632-1.3257198c-0.20048-0.10305-0.36425 0-0.36425 0.22872v0.50965c-2.55962 0.024-4.65897 2.1050198-4.65897 4.6660399 0 2.57654 2.09088 4.66602 4.67169 4.66602 2.46786 0 4.48955-1.91017 4.65895-4.33283 1e-3 -0.2033-0.16942-0.36849-0.37552-0.36849zm3.80987-0.32936a7.9999988 7.9999988 0 0 1-8 8 7.9999988 7.9999988 0 0 1-8-8 7.9999988 7.9999988 0 0 1 8-8 7.9999988 7.9999988 0 0 1 8 8z" style="fill:#da4453"/>
 </g>
</svg>
