<?xml version="1.0" encoding="UTF-8"?>
<svg id="svg6" version="1.1" viewBox="0 0 22 22" xmlns="http://www.w3.org/2000/svg">
 <defs id="defs3051">
  <style id="current-color-scheme" type="text/css">.ColorScheme-Text {
        color:#dfdfdf;
      }</style>
 </defs>
 <circle id="path816" cx="11" cy="11" r="7.7356405" style="fill:#ffffff"/>
 <path id="path2" d="m10.34581 11.004 2.4745-2.4745701c0.12568-0.12561 0.18842-0.27922 0.18842-0.46084 0-0.18161-0.0627-0.33516-0.18842-0.46077l-0.38185-0.38191c-0.12555-0.12556-0.27916-0.18836-0.46071-0.18836-0.18161 0-0.33517 0.0628-0.46084 0.18836l-3.3197501 3.3146901c-0.12562 0.12561-0.18843 0.27922-0.18843 0.46084 0 0.18161 0.0628 0.33516 0.18843 0.46077l3.3197501 3.31469c0.12567 0.12562 0.27923 0.18843 0.46084 0.18843 0.18155 0 0.33516-0.0628 0.46071-0.18843l0.38185-0.38184c0.12568-0.12556 0.18842-0.27836 0.18842-0.45828 0-0.17986-0.0627-0.33435-0.18842-0.46334zm8.65419-4e-3a8.0000003 8.0000003 0 0 1-8 8 8.0000003 8.0000003 0 0 1-7.9999999-8 8.0000003 8.0000003 0 0 1 7.9999999-8.0000001 8.0000003 8.0000003 0 0 1 8 8.0000001z" style="fill:#11b5ff"/>
</svg>
