<?xml version="1.0" encoding="UTF-8"?>
<svg id="SVGRoot" version="1.1" viewBox="0 0 22 22" xmlns="http://www.w3.org/2000/svg">
 <path id="path828" d="m11 2.5c-0.554732 0-1.0000004 0.2595941-1.0000004 0.5820313v2.8359375c0 0.3224372 0.4452684 0.5820312 1.0000004 0.5820312 0.554733 0 1-0.259594 1-0.5820312v-2.8359375c0-0.3224372-0.445267-0.5820313-1-0.5820313zm-5.1074219 2.0898438c-0.2548106-0.0409331-0.6081525 0.1061988-0.9023437 0.4003906-0.392255 0.3922548-0.524872 0.8911432-0.296875 1.1191406l2.0058593 2.0039063c0.227997 0.2279974 0.7268857 0.0973325 1.1191407-0.2949219 0.3922549-0.3922554 0.5229198-0.8911432 0.2949218-1.1191406l-2.0039062-2.0058594c-0.0569993-0.0569993-0.13186-0.0898713-0.2167969-0.1035156zm10.214844 0c-0.08494 0.013644-0.159797 0.046516-0.216797 0.1035156l-2.003906 2.0058594c-0.227998 0.2279975-0.09734 0.7268859 0.294922 1.1191406 0.392255 0.3922555 0.891143 0.5229194 1.119141 0.2949219l2.005859-2.0039063c0.227997-0.2279976 0.095384-0.7268851-0.296875-1.1191406-0.294191-0.2941911-0.647533-0.4413234-0.902344-0.4003906zm-5.107422 3.9101562c-1.3848095 0-2.5 1.115191-2.5 2.5s1.1151905 2.5 2.5 2.5c1.38481 0 2.5-1.115191 2.5-2.5s-1.11519-2.5-2.5-2.5zm-7.9179688 1.5c-0.3224368-3e-7 -0.5820317 0.445267-0.5820312 1-2e-7 0.554732 0.2595945 1 0.5820312 1h2.8359375c0.3224367 0 0.5820311-0.445268 0.5820313-1-3e-7 -0.554733-0.2595938-1.0000004-0.5820313-1zm13.000001 0c-0.322437 0-0.582032 0.445268-0.582032 1 0 0.554733 0.259595 1 0.582032 1h2.835937c0.322437 0 0.582031-0.445267 0.582031-1 0-0.554732-0.259594-1-0.582031-1zm-9.1679695 3.78125c-0.084937 0.01364-0.1578444 0.04847-0.2148438 0.105468l-2.0058593 2.003907c-0.2279974 0.227997-0.095381 0.726885 0.296875 1.11914 0.3922547 0.392255 0.8911432 0.524872 1.1191406 0.296875l2.0039062-2.005859c0.2279974-0.227997 0.0973329-0.726886-0.2949218-1.119141-0.2941916-0.294191-0.6494863-0.441323-0.9042969-0.40039zm8.1718755 0c-0.254811-0.04093-0.610106 0.106204-0.904297 0.40039-0.392255 0.392256-0.522919 0.891144-0.294922 1.119141l2.003906 2.005859c0.227997 0.227997 0.726886 0.09538 1.119141-0.296875 0.392255-0.392254 0.524872-0.891143 0.296875-1.11914l-2.005859-2.003907c-0.057-0.057-0.129907-0.09183-0.214844-0.105468zm-4.085938 1.71875c-0.554733 0-1.0000004 0.259594-1.0000004 0.582031v2.835937c0 0.322437 0.4452674 0.582032 1.0000004 0.582032 0.554732 0 1-0.259595 1-0.582032v-2.835937c0-0.322437-0.445268-0.582031-1-0.582031z" style="color-rendering:auto;color:#000000;fill:#dfdfdf;image-rendering:auto;isolation:auto;mix-blend-mode:normal;shape-rendering:auto;solid-color:#000000"/>
</svg>
