<?xml version="1.0" encoding="UTF-8"?>
<svg id="SVGRoot" width="48" height="48" enable-background="new -51 53 96 96" version="1.1" viewBox="-51 53 48 48" xmlns="http://www.w3.org/2000/svg" xmlns:xlink="http://www.w3.org/1999/xlink">
 <defs id="defs17">
  <linearGradient id="linearGradient3364" x1="399.9939" x2="399.9939" y1="545.13873" y2="518.13873" gradientTransform="matrix(1.6428584,0,0,1.6428584,-685.08211,-796.66872)" gradientUnits="userSpaceOnUse">
   <stop id="stop7-6" stop-color="#197ff1" offset="0"/>
   <stop id="stop9-7" stop-color="#21c6fb" offset="1"/>
  </linearGradient>
 </defs>
 <path id="circle12" d="m-4.0001049 76.999947a22.999949 22.999949 0 0 1-22.999948 22.999948 22.999949 22.999949 0 0 1-22.999949-22.999948 22.999949 22.999949 0 0 1 22.999949-22.999949 22.999949 22.999949 0 0 1 22.999948 22.999949z" style="fill:url(#linearGradient3364);stroke-width:2.1357157"/>
 <path id="path1008" transform="translate(-51,53)" d="m24 12.423828a9.201692 9.7101518 0 0 0-9.201172 9.710938 9.201692 9.7101518 0 0 0 0.009766 0.216796c-0.001151 0.017797-0.009766 0.032684-0.009766 0.050782v9.207031c0 0.451494 0.362959 0.814453 0.814453 0.814453h2.701172c0.451493 0 0.814453-0.362959 0.814453-0.814453v-9.207031c0-0.451494-0.36296-0.814453-0.814453-0.814453h-1.326172a7.036588 7.4254102 0 0 1 7.011719-6.878907 7.036588 7.4254102 0 0 1 7.017578 6.878907h-1.332031c-0.451493 0-0.814453 0.362959-0.814453 0.814453v9.207031c0 0.451494 0.36296 0.814453 0.814453 0.814453h2.701172c0.451494 0 0.814453-0.362959 0.814453-0.814453v-9.207031c0-0.016086-0.008855-0.029072-0.009766-0.044922a9.201692 9.7101518 0 0 0 0.009766-0.222656 9.201692 9.7101518 0 0 0-9.201172-9.710938zm-11.685547 11.53125c-0.451494 0-0.814453 0.362959-0.814453 0.814453v4.082031c0 0.451494 0.362959 0.814454 0.814453 0.814454h0.535156c0.451494 0 0.816407-0.36296 0.816407-0.814454v-4.082031c0-0.451494-0.364913-0.814453-0.816407-0.814453h-0.535156zm22.835938 0c-0.451494 0-0.816407 0.362959-0.816407 0.814453v4.082031c0 0.451494 0.364913 0.814454 0.816407 0.814454h0.535156c0.451494 0 0.814453-0.36296 0.814453-0.814454v-4.082031c0-0.451494-0.362959-0.814453-0.814453-0.814453h-0.535156z" style="fill:#ffffff;paint-order:stroke fill markers"/>
</svg>
