<?xml version="1.0" encoding="UTF-8"?>
<svg id="SVGRoot" version="1.1" viewBox="0 0 48 48" xmlns="http://www.w3.org/2000/svg" xmlns:xlink="http://www.w3.org/1999/xlink">
 <defs id="defs815">
  <linearGradient id="linearGradient1848" x1="23.949154" x2="23.949154" y1="45.355934" y2="3.8644073" gradientTransform="matrix(1.047619,0,0,1.047619,-1.1428572,-1.5690064)" gradientUnits="userSpaceOnUse">
   <stop id="stop1091" style="stop-color:#5cc610" offset="0"/>
   <stop id="stop1093" style="stop-color:#92dc41" offset="1"/>
  </linearGradient>
 </defs>
 <path id="rect14" d="m5.186908 2.000001h37.626182c1.765547 0 3.186907 1.4213604 3.186907 3.1869068v37.626182c0 1.765547-1.42136 3.186907-3.186907 3.186907h-37.626182c-1.7655465 0-3.186907-1.42136-3.186907-3.186907v-37.626182c0-1.7655464 1.4213605-3.1869068 3.186907-3.1869068z" style="fill-rule:evenodd;fill:url(#linearGradient1848);stroke-width:1.0624604"/>
 <path id="path30" d="m12.853641 11.2613c-0.882137 0-1.592342 0.567384-1.592342 1.273101v22.929277c0 0.705716 0.710205 1.275022 1.592342 1.275022h22.292727c0.882137 0 1.592332-0.569306 1.592332-1.275022v-22.929277c0-0.705717-0.710195-1.273101-1.592332-1.273101zm11.022113 4.258975c0.750748 0 1.355299 0.60455 1.355299 1.355309 0 0.75076-0.604551 1.355299-1.355299 1.355299-0.750758 0-1.355307-0.604539-1.355307-1.355299 0-0.750759 0.60455-1.355309 1.355307-1.355309zm-0.0044 5.421213h0.0078c0.748415 0 1.351476 0.601185 1.351476 1.349567v9.494759c0 0.748459-0.603061 1.351477-1.351476 1.351477h-0.0078c-0.748404 0-1.351488-0.603018-1.351488-1.351477v-9.494759c0-0.748382 0.603084-1.349567 1.351488-1.349567z" style="fill:#ffffff;stroke-width:1.1107542"/>
 <path id="path1503" d="m6.2333653 16.029352v-0.823525h-0.8666665v0.823525zm-0.8666665-0.823525v-0.823525h-0.8666665v0.823525zm0-0.823525h0.8666665v-0.823526h-0.8666665zm0-0.823526v-0.823525h-0.8666665v0.823525zm0-0.823525h0.8666665v-0.823525h-0.8666665zm0-0.823525v-0.823515h-0.8666665v0.823515zm0-0.823515h0.8666665v-0.823536h-0.8666665zm0-0.823536v-0.8235247h-0.8666665v0.8235247zm0-0.8235247h0.8666665v-0.8235149h-0.8666665zm-0.8666665 14.823444h0.8666774v0.823535h-0.8666774zm0.8666774 0.823535h0.8666665v0.823525h-0.8666665zm0 0.823525v0.823515h-0.8666774v-0.823515zm0 0.823515h0.8666665v0.823526h-0.8666665zm0 0.823526v0.823535h-0.8666774v-0.823535zm0 0.823535h0.8666665v0.823525h-0.8666665zm0 0.823525v0.823515h-0.8666774v-0.823515zm0 0.823515h0.8666665v0.823536h-0.8666665zm0 0.823536v0.823525h-0.8666774v-0.823525zm0 0.823525h0.8666665v0.823515h-0.8666665zm0 0.823515v0.823525h-0.8666774v-0.823525zm0 0.823525h0.8666665v0.823536h-0.8666665zm0 0.823536v0.823514h-0.8666774v-0.823514zm0 0.823514h0.8666665v0.823526h-0.8666665zm0 0.823526v0.823535h-0.8666774v-0.823535zm0 0.823535h0.8666665v0.823515h-0.8666665zm38.133315-30.470422v-0.8235252h-0.866677v0.8235252zm-0.866677-0.8235252v-0.8235355h-0.866656v0.8235355zm-0.866656 0h-0.866667v0.8235252h0.866667zm-0.866667 0v-0.8235355h-0.866677v0.8235355zm-0.866677 0h-0.866656v0.8235252h0.866656zm-0.866656 0v-0.8235355h-0.866666v0.8235355zm-0.866666 0h-0.866677v0.8235252h0.866677zm-0.866677 0v-0.8235355h-0.866656v0.8235355zm-0.866656 0h-0.866667v0.8235252h0.866667zm-0.866667 0v-0.8235355h-0.866666v0.8235355zm-0.866666 0h-0.866677v0.8235252h0.866677zm-0.866677 0v-0.8235355h-0.866656v0.8235355zm-0.866656 0h-0.866667v0.8235252h0.866667zm-0.866667 0v-0.8235355h-0.866677v0.8235355zm-0.866677 0h-0.866656v0.8235252h0.866656zm-0.866656 0v-0.8235355h-0.866666v0.8235355zm-25.133317 0.8235252 1.733333-1.6470607h-1.733333zm3.466666 0v-0.8235252h0.8666665v0.8235252zm0.8666665-0.8235252v-0.8235355h0.8666558v0.8235355zm0.8666558 0h0.866677v0.8235252h-0.866677zm0.866677 0v-0.8235355h0.866667v0.8235355zm0.866667 0h0.866655v0.8235252h-0.866655zm0.866655 0v-0.8235355h0.866678v0.8235355zm0.866678 0h0.866666v0.8235252h-0.866666zm0.866666 0v-0.8235355h0.866656v0.8235355zm0.866656 0h0.866666v0.8235252h-0.866666zm0.866666 0v-0.8235355h0.866678v0.8235355zm0.866678 0h0.866655v0.8235252h-0.866655zm0.866655 0v-0.8235355h0.866667v0.8235355zm0.866667 0h0.866677v0.8235252h-0.866677zm0.866677 0v-0.8235355h0.866656v0.8235355zm0.866656 0h0.866666v0.8235252h-0.866666zm0.866666 0v-0.8235355h0.866678v0.8235355zm19.933308 26.647118v0.823525h0.866667v-0.823525zm0.866667 0.823525v0.823525h0.866666v-0.823525zm0 0.823525h-0.866667v0.823525h0.866667zm0 0.823525v0.823526h0.866666v-0.823526zm0 0.823526h-0.866667v0.823525h0.866667zm0 0.823525v0.823515h0.866666v-0.823515zm0 0.823515h-0.866667v0.823535h0.866667zm0 0.823535v0.823525h0.866666v-0.823525zm0 0.823525h-0.866667v0.823515h0.866667zm0.866666-14.823443h-0.866677v-0.823536h0.866677zm-0.866677-0.823536h-0.866667v-0.823525h0.866667zm0-0.823525v-0.823515h0.866677v0.823515zm0-0.823515h-0.866667v-0.823525h0.866667zm0-0.823525v-0.823535h0.866677v0.823535zm0-0.823535h-0.866667v-0.823526h0.866667zm0-0.823526v-0.823515h0.866677v0.823515zm0-0.823515h-0.866667v-0.823535h0.866667zm0-0.823535v-0.823525h0.866677v0.823525zm0-0.823525h-0.866667v-0.823515h0.866667zm0-0.823515v-0.823525h0.866677v0.823525zm0-0.823525h-0.866667v-0.823536h0.866667zm0-0.823536v-0.823515h0.866677v0.823515zm0-0.823515h-0.866667v-0.823525h0.866667zm0-0.823525v-0.823536h0.866677v0.823536zm0-0.823536h-0.866667v-0.823514h0.866667zm-38.133315 30.470423v0.823525h0.8666773v-0.823525zm0.8666773 0.823525v0.823536h0.8666557v-0.823536zm0.8666557 0h0.8666665v-0.823525h-0.8666665zm0.8666665 0v0.823536h0.8666773v-0.823536zm0.8666773 0h0.8666557v-0.823525h-0.8666557zm0.8666557 0v0.823536h0.8666665v-0.823536zm0.8666665 0h0.8666774v-0.823525h-0.8666774zm0.8666774 0v0.823536h0.866656v-0.823536zm0.866656 0h0.866666v-0.823525h-0.866666zm0.866666 0v0.823536h0.866667v-0.823536zm0.866667 0h0.866677v-0.823525h-0.866677zm0.866677 0v0.823536h0.866656v-0.823536zm0.866656 0h0.866666v-0.823525h-0.866666zm0.866666 0v0.823536h0.866677v-0.823536zm0.866677 0h0.866656v-0.823525h-0.866656zm0.866656 0v0.823536h0.866667v-0.823536zm25.133318-0.823525-1.733333 1.647061h1.733333zm-3.466666 0v0.823525h-0.866667v-0.823525zm-0.866667 0.823525v0.823536h-0.866655v-0.823536zm-0.866655 0h-0.866678v-0.823525h0.866678zm-0.866678 0v0.823536h-0.866666v-0.823536zm-0.866666 0h-0.866656v-0.823525h0.866656zm-0.866656 0v0.823536h-0.866677v-0.823536zm-0.866677 0h-0.866667v-0.823525h0.866667zm-0.866667 0v0.823536h-0.866655v-0.823536zm-0.866655 0h-0.866667v-0.823525h0.866667zm-0.866667 0v0.823536h-0.866677v-0.823536zm-0.866677 0h-0.866656v-0.823525h0.866656zm-0.866656 0v0.823536h-0.866666v-0.823536zm-0.866666 0h-0.866678v-0.823525h0.866678zm-0.866678 0v0.823536h-0.866655v-0.823536zm-0.866655 0h-0.866667v-0.823525h0.866667zm-0.866667 0v0.823536h-0.866677v-0.823536z" style="fill:#ffffff;stroke-width:1.0607859"/>
</svg>
