<?xml version="1.0" encoding="UTF-8"?>
<svg version="1.1" viewBox="0 0 22 22" xmlns="http://www.w3.org/2000/svg">
 <path d="m5 3h12c1.662 0 3 1.338 3 3v10c0 1.662-1.338 3-3 3h-12c-1.662 0-3-1.338-3-3v-10c0-1.662 1.338-3 3-3z" style="fill:#f9a827"/>
 <path d="m5 4h12.000002c1.108 0 2 0.892 2 2v10c0 1.108-0.892 2-2 2h-12.000002c-1.108 0-2-0.892-2-2v-10c0-1.108 0.892-2 2-2z" style="fill:#ffdc72"/>
 <path d="m5 8c-0.554 0-1 0.446-1 1v4c0 0.554 0.446 1 1 1h4c0.554 0 1-0.446 1-1v-1h2v1c0 0.554 0.446 1 1 1h4c0.554 0 1-0.446 1-1v-4c0-0.554-0.446-1-1-1h-4c-0.554 0-1 0.446-1 1v1h-2v-1c0-0.554-0.446-1-1-1zm0 1.0429688h4v0.9570312c-0.554 0-1 0.446-1 1s0.446 1 1 1v1.042969h-4zm8 0h4v4.0000002h-4v-1.042969c0.554 0 1-0.446 1-1s-0.446-1-1-1z" style="fill:#ffffff"/>
</svg>
