<?xml version="1.0" encoding="UTF-8"?>
<svg id="svg5453" version="1.1" viewBox="0 0 48 48" xmlns="http://www.w3.org/2000/svg" xmlns:osb="http://www.openswatchbook.org/uri/2009/osb" xmlns:xlink="http://www.w3.org/1999/xlink">
 <defs id="defs5455">
  <linearGradient id="linearGradient3426" x1="399.57144" x2="399.57144" y1="545.79797" y2="517.79797" gradientUnits="userSpaceOnUse">
   <stop id="stop4234-0" style="stop-color:#3889e9" offset="0"/>
   <stop id="stop4236" style="stop-color:#5ea5fb" offset="1"/>
  </linearGradient>
  <linearGradient id="linearGradient4181" x1="399.9939" x2="399.9939" y1="545.13873" y2="518.13873" gradientUnits="userSpaceOnUse">
   <stop id="stop4583" style="stop-color:#4469b9" offset="0"/>
   <stop id="stop4585" style="stop-color:#5d91ff" offset="1"/>
  </linearGradient>
  <style id="current-color-scheme" type="text/css">.ColorScheme-Text {
        color:#31363b;
      }
      .ColorScheme-Background{
        color:#eff0f1;
      }
      .ColorScheme-ViewText {
        color:#31363b;
      }
      .ColorScheme-ViewBackground{
        color:#fcfcfc;
      }
      .ColorScheme-ViewHover {
        color:#3daee9;
      }
      .ColorScheme-ViewFocus{
        color:#3daee9;
      }
      .ColorScheme-ButtonText {
        color:#31363b;
      }
      .ColorScheme-ButtonBackground{
        color:#eff0f1;
      }
      .ColorScheme-ButtonHover {
        color:#3daee9;
      }
      .ColorScheme-ButtonFocus{
        color:#3daee9;
      }</style>
  <style id="current-color-scheme-8" type="text/css">.ColorScheme-Text {
        color:#31363b;
      }
      .ColorScheme-Background{
        color:#eff0f1;
      }
      .ColorScheme-ViewText {
        color:#31363b;
      }
      .ColorScheme-ViewBackground{
        color:#fcfcfc;
      }
      .ColorScheme-ViewHover {
        color:#3daee9;
      }
      .ColorScheme-ViewFocus{
        color:#3daee9;
      }
      .ColorScheme-ButtonText {
        color:#31363b;
      }
      .ColorScheme-ButtonBackground{
        color:#eff0f1;
      }
      .ColorScheme-ButtonHover {
        color:#3daee9;
      }
      .ColorScheme-ButtonFocus{
        color:#3daee9;
      }</style>
  <style id="current-color-scheme-7" type="text/css">.ColorScheme-Text {
        color:#31363b;
      }
      .ColorScheme-Background{
        color:#eff0f1;
      }
      .ColorScheme-ViewText {
        color:#31363b;
      }
      .ColorScheme-ViewBackground{
        color:#fcfcfc;
      }
      .ColorScheme-ViewHover {
        color:#3daee9;
      }
      .ColorScheme-ViewFocus{
        color:#3daee9;
      }
      .ColorScheme-ButtonText {
        color:#31363b;
      }
      .ColorScheme-ButtonBackground{
        color:#eff0f1;
      }
      .ColorScheme-ButtonHover {
        color:#3daee9;
      }
      .ColorScheme-ButtonFocus{
        color:#3daee9;
      }</style>
 </defs>
 <g id="layer1" transform="translate(-384.57143,-499.798)">
  <g id="g4471" transform="matrix(1.0931221,0,0,1.0931221,33.310366,-50.486049)">
   <g id="g4320" transform="matrix(.93077444 0 0 .93077444 23.572011 36.133708)">
    <g id="layer1-3" transform="matrix(1.5444819,0,0,1.5444819,-275.17538,-295.73877)">
     <circle id="path3377" cx="400.57138" cy="531.79791" r="13.999958" style="fill:url(#linearGradient4181)"/>
     <circle id="ellipse4233" cx="400.57138" cy="531.79791" r="0" style="fill:url(#linearGradient3426)"/>
    </g>
   </g>
   <g id="layer1-2" transform="matrix(.86548717 0 0 .86548717 -136.06306 -203.64944)">
    <g id="layer1-6" transform="translate(-120.10595,41.912995)">
     <g id="g5657" transform="matrix(1.4798576,0,0,1.4798576,22.783781,14.417625)" style="stroke-width:1.2998968">
      <g id="g3637" transform="matrix(.45674445 0 0 .45674445 266.99155 357.48822)">
       <g id="g3372" transform="matrix(1.6,0,0,1.6,-180.73698,-248.42295)" style="fill:#eaeff9">
        <g id="g3368" transform="translate(.44642857 -.04464286)" style="fill:#eaeff9">
         <path id="path3366" d="m355.83984 380.40234c-0.0604 0.037-0.0851 0.0689-0.0703 0.0449-0.6791 1.14846-0.68514 2.65218-0.99219 4.00195a0.4982215 0.4982215 0 0 1 0 0.0703c-0.1505 1.47805-0.63371 2.98202-0.24609 4.40039a0.4982215 0.4982215 0 0 1 0.0391 0.0899c0.0721 0.0932 0.16294 0.17837 0.2168 0.18945 0.0403 8e-3 0.10045-0.0102 0.24023-0.10742 0.15127-0.1053 0.24855-0.2987 0.29297-0.57618a0.4982215 0.4982215 0 0 1 0.0859-0.20898c0.60561-2.40329 1.03769-4.92777 0.87695-7.39844a0.4982215 0.4982215 0 0 1 0-0.0254c-0.021-0.11401-0.0566-0.18236-0.16601-0.31445-0.0753-0.0907-0.12141-0.13888-0.14063-0.15234-0.0192-0.0135-3e-3 -0.0158-0.0723-0.0117a0.4982215 0.4982215 0 0 1-0.0645-2e-3z" style="fill:#eaeff9"/>
         <path id="path3364" transform="translate(-.49107143 -.26785714)" d="m361.90234 381.83789a0.46681363 0.46681363 0 0 1-0.0508 4e-3c-1.04198 0.5071-1.57789 1.73208-2.29883 2.71679a0.46681363 0.46681363 0 0 1-0.0527 0.13868c-0.90784 1.60892-2.06389 3.20366-2.18555 5.06445 6e-3 0.29418 0.17347 0.46224 0.34766 0.5 0.16423 0.0345 0.4648-0.0716 0.58789-0.25586 0.0107-0.0266 2e-3 -0.0534 0.0176-0.0762a0.46681363 0.46681363 0 0 1 0.0117-0.0176c1.64599-2.26173 2.89002-4.94442 3.91211-7.55078a0.46681363 0.46681363 0 0 1 2e-3 -8e-3c0.0707-0.17114 0.0746-0.23837 0.0117-0.36719-0.0185-0.0381-0.20261-0.1609-0.30274-0.14844z" style="fill:#eaeff9"/>
        </g>
        <path id="path3302" d="m345.66985 382.2774c-0.16726 0.0311-0.4161 0.1809-0.59375 0.25-0.62832 0.23837-0.975 0.77698-1.125 1.40625-0.15274 0.64382-0.10183 1.36084 0 2.09375 0.10181 0.73145 0.24752 1.48649 0.40625 2.0625 0.13645 0.49836 0.23415 0.7408 0.28125 0.90625v0.125c0 0.0545-0.0261 0.05-0.0625 0.0937-0.02 0.0109 0.02 0.0625 0 0.0625-0.0453 0.0346-0.0999 0.0625-0.15625 0.0625-0.11101 7e-3 -0.19778-0.0334-0.3125-0.0625-0.0782-0.0181-0.17995-0.0807-0.15625-0.0625-0.0363-0.0218-0.1013-0.0243-0.125-0.0625 0 0.0146 0.0219 0.0143 0-0.0312-0.0254-0.0473-0.0537-0.1664-0.0937-0.25-0.0891-0.18946-0.15908-0.40895-0.28125-0.6875-0.24381-0.55472-0.55754-1.23609-0.90625-1.875-0.34999-0.64145-0.76223-1.22354-1.21875-1.625-0.22817-0.20054-0.50982-0.40155-0.78125-0.46875-0.26199-0.0655-0.57287-0.01-0.84375 0.125-0.69997 0.38836-1.09619 1.02422-1.25 1.6875-0.15456 0.67346-0.0815 1.44899 0.0312 2.125 0.11454 0.67454 0.29189 1.23077 0.40625 1.6875 0.049 0.19254 0.1087 0.37235 0.125 0.46875 0 0.0955-0.0389 0.3448-0.0625 0.4375-0.11818 0.40928-0.40559 1.09375-0.40625 1.09375 0 0-5.45294 14.48293 6.25 13.46875 0.0964-7e-3 0.31535-0.0625 0.40625-0.0625 2.29827-0.46272 4.47308-1.15769 6.40625-1.9375 0.3798-0.182 0.87805-0.36282 1.4375-0.625 1.11885-0.52418 2.52451-1.19587 3.875-1.9375 1.35103-0.74219 2.60454-1.533 3.5625-2.375 0.9596-0.84327 1.65997-1.76731 1.53125-2.6875-0.20364-1.48345-1.18879-2.58587-2.5-3.4375-1.31613-0.85473-2.95728-1.44464-4.59375-1.875-1.63576-0.43018-3.2241-0.78002-4.4375-0.96875-0.60652-0.0945-1.1749-0.122-1.53125-0.1875-0.10544-0.0181-0.16175-0.0443-0.21875-0.0625-0.0307-4e-3 -0.0334-0.0131-0.0625-0.0312-0.0363-0.0218-0.1031-0.0243-0.125-0.0625-0.02-0.0363 0-0.0832 0-0.125 0-0.0163-1.7e-4 -0.0407 0-0.0625v-0.90625c-0.02-0.748-0.064-1.73553-0.21875-2.65625-0.15637-0.92455-0.39754-1.80879-0.90625-2.40625-0.30235-0.35545-0.73038-0.5887-1.25-0.625-0.15636-0.0182-0.3311-0.0309-0.5 0z" style="fill:#eaeff9"/>
       </g>
      </g>
     </g>
    </g>
   </g>
  </g>
 </g>
</svg>
