<?xml version="1.0" encoding="UTF-8"?>
<svg id="svg5453" version="1.1" viewBox="0 0 48 48" xmlns="http://www.w3.org/2000/svg">
 <defs id="defs5455">
  <linearGradient id="linearGradient3426" x1="399.57144" x2="399.57144" y1="545.79797" y2="517.79797" gradientUnits="userSpaceOnUse">
   <stop id="stop4234-0" style="stop-color:#3889e9" offset="0"/>
   <stop id="stop4236" style="stop-color:#5ea5fb" offset="1"/>
  </linearGradient>
  <linearGradient id="linearGradient4181" x1="399.9939" x2="399.9939" y1="545.13873" y2="518.13873" gradientUnits="userSpaceOnUse">
   <stop id="stop4583" style="stop-color:#4469b9" offset="0"/>
   <stop id="stop4585" style="stop-color:#5d91ff" offset="1"/>
  </linearGradient>
  <style id="current-color-scheme" type="text/css">.ColorScheme-Text {
        color:#31363b;
      }
      .ColorScheme-Background{
        color:#eff0f1;
      }
      .ColorScheme-ViewText {
        color:#31363b;
      }
      .ColorScheme-ViewBackground{
        color:#fcfcfc;
      }
      .ColorScheme-ViewHover {
        color:#3daee9;
      }
      .ColorScheme-ViewFocus{
        color:#3daee9;
      }
      .ColorScheme-ButtonText {
        color:#31363b;
      }
      .ColorScheme-ButtonBackground{
        color:#eff0f1;
      }
      .ColorScheme-ButtonHover {
        color:#3daee9;
      }
      .ColorScheme-ButtonFocus{
        color:#3daee9;
      }</style>
  <style id="current-color-scheme-8" type="text/css">.ColorScheme-Text {
        color:#31363b;
      }
      .ColorScheme-Background{
        color:#eff0f1;
      }
      .ColorScheme-ViewText {
        color:#31363b;
      }
      .ColorScheme-ViewBackground{
        color:#fcfcfc;
      }
      .ColorScheme-ViewHover {
        color:#3daee9;
      }
      .ColorScheme-ViewFocus{
        color:#3daee9;
      }
      .ColorScheme-ButtonText {
        color:#31363b;
      }
      .ColorScheme-ButtonBackground{
        color:#eff0f1;
      }
      .ColorScheme-ButtonHover {
        color:#3daee9;
      }
      .ColorScheme-ButtonFocus{
        color:#3daee9;
      }</style>
  <style id="current-color-scheme-7" type="text/css">.ColorScheme-Text {
        color:#31363b;
      }
      .ColorScheme-Background{
        color:#eff0f1;
      }
      .ColorScheme-ViewText {
        color:#31363b;
      }
      .ColorScheme-ViewBackground{
        color:#fcfcfc;
      }
      .ColorScheme-ViewHover {
        color:#3daee9;
      }
      .ColorScheme-ViewFocus{
        color:#3daee9;
      }
      .ColorScheme-ButtonText {
        color:#31363b;
      }
      .ColorScheme-ButtonBackground{
        color:#eff0f1;
      }
      .ColorScheme-ButtonHover {
        color:#3daee9;
      }
      .ColorScheme-ButtonFocus{
        color:#3daee9;
      }</style>
 </defs>
 <g id="layer1" transform="translate(-384.57143,-499.798)">
  <g id="g4471" transform="matrix(1.0931221,0,0,1.0931221,33.310366,-50.486049)">
   <g id="g4320" transform="matrix(.93077444 0 0 .93077444 23.572011 36.133708)">
    <g id="layer1-3" transform="matrix(1.5444819,0,0,1.5444819,-275.17538,-295.73877)">
     <circle id="path3377" cx="400.57138" cy="531.79791" r="13.999958" style="fill:url(#linearGradient4181)"/>
     <circle id="ellipse4233" cx="400.57138" cy="531.79791" r="0" style="fill:url(#linearGradient3426)"/>
    </g>
   </g>
   <g id="layer1-2" transform="matrix(.86548717 0 0 .86548717 -136.06306 -203.64944)">
    <g id="layer1-6" transform="translate(-120.10595,41.912995)">
     <g id="g5657" transform="matrix(1.4798576,0,0,1.4798576,22.783781,14.417625)" style="stroke-width:1.2998968">
      <path id="path4070" d="m444.2361 521.26551c-3.18888 0-5.77373 2.58503-5.77373 5.77379v3.06191h-3.04722c-3.18882 0-5.77367 2.57239-5.77367 5.76103 0 3.18906 2.58497 5.77397 5.77367 5.77397 3.18841 0 5.77337-2.58491 5.77337-5.77397v-3.07456h3.04758c3.18841 0 5.77337-2.5598 5.77337-5.74838 0-3.18876-2.58496-5.77379-5.77337-5.77379zm-5.77373 14.60034c-2e-3 1.68021-1.36611 3.04235-3.04722 3.04235-1.68291 0-3.0598-1.36437-3.0598-3.04729 0-1.68351 1.37689-3.07317 3.0598-3.07317h2.61712c0.23772 0 0.4305 0.19242 0.4305 0.42975 0 4.2e-4 -3e-4 4.2e-4 -3e-4 0v2.64734h-9e-5zm5.77343-5.76644h-2.61729c-0.23773 0-0.43001-0.1923-0.43001-0.43023v-2.63464c3e-3 -1.68122 1.36611-3.04282 3.04734-3.04282 1.68291 0 3.0601 1.36443 3.0601 3.0477 0 1.68303-1.37719 3.05999-3.0601 3.05999z" style="fill:#ffffff;opacity:.2"/>
      <path id="path4072" d="m438.46243 530.11566v-3.06203c0-3.18883 2.58485-5.77385 5.77373-5.77385 0.48374 0 0.82746 0.0548 1.27521 0.1717 0.65298 0.17129 1.18628 0.70621 1.18658 1.32891 2.9e-4 0.75281-0.54614 1.30001-1.3628 1.30001-0.38906 0-0.52966-0.0745-1.09929-0.0745-1.68122 0-3.04451 1.36159-3.04734 3.04282v2.63452c0 0.23793 0.19228 0.43022 0.43001 0.43022h2.0026c0.74576 0 1.34794 0.59706 1.34854 1.34474 0 0.74805-0.60308 1.34372-1.34854 1.34372h-2.43264v3.07462c0 3.18846-2.58497 5.77337-5.77337 5.77337-0.48384 0-0.82758-0.0548-1.27533-0.17177-0.65298-0.17116-1.18646-0.70639-1.18676-1.32891 0-0.75256 0.54605-1.3 1.36304-1.3 0.38867 0 0.52966 0.0746 1.09899 0.0746 1.68122 0 3.04487-1.36172 3.04752-3.04235v-2.6483c0-0.23739-0.19278-0.42968-0.4305-0.42968h-2.00206c-0.74594 0-1.34865-0.59513-1.34865-1.34336-2e-4 -0.75238 0.60891-1.34504 1.3628-1.34504h2.41808v-6e-5z" style="fill-opacity:.85;fill:#ffffff"/>
     </g>
    </g>
   </g>
  </g>
 </g>
</svg>
