<?xml version="1.0" encoding="UTF-8"?>
<svg id="svg5453" version="1.1" viewBox="0 0 48 48" xmlns="http://www.w3.org/2000/svg" xmlns:osb="http://www.openswatchbook.org/uri/2009/osb" xmlns:xlink="http://www.w3.org/1999/xlink">
 <defs id="defs5455">
  <linearGradient id="linearGradient3426" x1="399.57144" x2="399.57144" y1="545.79797" y2="517.79797" gradientUnits="userSpaceOnUse">
   <stop id="stop4234-0" style="stop-color:#3889e9" offset="0"/>
   <stop id="stop4236" style="stop-color:#5ea5fb" offset="1"/>
  </linearGradient>
  <linearGradient id="linearGradient4181" x1="399.9939" x2="399.9939" y1="545.13873" y2="518.13873" gradientUnits="userSpaceOnUse">
   <stop id="stop4266" style="stop-color:#0a80fd" offset="0"/>
   <stop id="stop4268" style="stop-color:#56c5fa" offset="1"/>
  </linearGradient>
  <style id="current-color-scheme" type="text/css">.ColorScheme-Text {
        color:#31363b;
      }
      .ColorScheme-Background{
        color:#eff0f1;
      }
      .ColorScheme-ViewText {
        color:#31363b;
      }
      .ColorScheme-ViewBackground{
        color:#fcfcfc;
      }
      .ColorScheme-ViewHover {
        color:#3daee9;
      }
      .ColorScheme-ViewFocus{
        color:#3daee9;
      }
      .ColorScheme-ButtonText {
        color:#31363b;
      }
      .ColorScheme-ButtonBackground{
        color:#eff0f1;
      }
      .ColorScheme-ButtonHover {
        color:#3daee9;
      }
      .ColorScheme-ButtonFocus{
        color:#3daee9;
      }</style>
  <style id="current-color-scheme-8" type="text/css">.ColorScheme-Text {
        color:#31363b;
      }
      .ColorScheme-Background{
        color:#eff0f1;
      }
      .ColorScheme-ViewText {
        color:#31363b;
      }
      .ColorScheme-ViewBackground{
        color:#fcfcfc;
      }
      .ColorScheme-ViewHover {
        color:#3daee9;
      }
      .ColorScheme-ViewFocus{
        color:#3daee9;
      }
      .ColorScheme-ButtonText {
        color:#31363b;
      }
      .ColorScheme-ButtonBackground{
        color:#eff0f1;
      }
      .ColorScheme-ButtonHover {
        color:#3daee9;
      }
      .ColorScheme-ButtonFocus{
        color:#3daee9;
      }</style>
  <style id="current-color-scheme-7" type="text/css">.ColorScheme-Text {
        color:#31363b;
      }
      .ColorScheme-Background{
        color:#eff0f1;
      }
      .ColorScheme-ViewText {
        color:#31363b;
      }
      .ColorScheme-ViewBackground{
        color:#fcfcfc;
      }
      .ColorScheme-ViewHover {
        color:#3daee9;
      }
      .ColorScheme-ViewFocus{
        color:#3daee9;
      }
      .ColorScheme-ButtonText {
        color:#31363b;
      }
      .ColorScheme-ButtonBackground{
        color:#eff0f1;
      }
      .ColorScheme-ButtonHover {
        color:#3daee9;
      }
      .ColorScheme-ButtonFocus{
        color:#3daee9;
      }</style>
 </defs>
 <g id="layer1" transform="translate(-384.57143,-499.798)">
  <g id="g4471" transform="matrix(1.0931221,0,0,1.0931221,33.310366,-50.486049)">
   <g id="g4320" transform="matrix(.93077444 0 0 .93077444 23.572011 36.133708)">
    <g id="layer1-3" transform="matrix(1.5444819,0,0,1.5444819,-275.17538,-295.73877)">
     <circle id="path3377" cx="400.57138" cy="531.79791" r="13.999958" style="fill:url(#linearGradient4181)"/>
     <circle id="ellipse4233" cx="400.57138" cy="531.79791" r="0" style="fill:url(#linearGradient3426)"/>
    </g>
   </g>
   <g id="layer1-2" transform="matrix(.86548717 0 0 .86548717 -135.89004 -204.08198)" style="fill-opacity:.85;fill:#ffffff">
    <g id="layer1-6" transform="translate(-120.10595,41.912995)" style="fill-opacity:.85;fill:#ffffff">
     <path id="path4071" d="m673.99096 786.06661c-1.20204 2.94701-1.92701 4.87468-3.26527 7.73381 0.82049 0.86979 1.82767 1.88264 3.46336 3.02662-1.75849-0.72364-2.95796-1.4501-3.85435-2.20396-1.71272 3.57396-4.39615 8.66484-9.84162 18.44905 4.27996-2.47084 7.59744-3.99415 10.6896-4.57546-0.13276-0.57103-0.20827-1.18872-0.20314-1.83321l4e-3 -0.13713c0.0679-2.74205 1.4943-4.85066 3.18399-4.70747 1.6897 0.14313 3.00312 2.48339 2.9352 5.22544-0.0127 0.51602-0.071 1.01231-0.17264 1.4727 3.05841 0.5983 6.34064 2.11771 10.56267 4.55513-0.83252-1.53265-1.57559-2.91428-2.28517-4.23012-1.11779-0.86634-2.28362-1.99383-4.66176-3.21451 1.63461 0.42475 2.80496 0.91477 3.71723 1.46252-7.21462-13.43273-7.79862-15.21782-10.27303-21.02409z" style="enable-background:new;fill-opacity:.85;fill-rule:evenodd;fill:#ffffff"/>
    </g>
   </g>
  </g>
 </g>
</svg>
