<?xml version="1.0" encoding="UTF-8"?>
<svg id="svg5453" version="1.1" viewBox="0 0 48 48" xmlns="http://www.w3.org/2000/svg">
 <defs id="defs5455">
  <linearGradient id="linearGradient3426" x1="399.57144" x2="399.57144" y1="545.79797" y2="517.79797" gradientUnits="userSpaceOnUse">
   <stop id="stop4234-0" style="stop-color:#3889e9" offset="0"/>
   <stop id="stop4236" style="stop-color:#5ea5fb" offset="1"/>
  </linearGradient>
  <linearGradient id="linearGradient4181" x1="399.9939" x2="399.9939" y1="545.13873" y2="518.13873" gradientUnits="userSpaceOnUse">
   <stop id="stop4583" style="stop-color:#2c54a1" offset="0"/>
   <stop id="stop4585" style="stop-color:#5297ff" offset="1"/>
  </linearGradient>
  <style id="current-color-scheme" type="text/css">.ColorScheme-Text {
        color:#31363b;
      }
      .ColorScheme-Background{
        color:#eff0f1;
      }
      .ColorScheme-ViewText {
        color:#31363b;
      }
      .ColorScheme-ViewBackground{
        color:#fcfcfc;
      }
      .ColorScheme-ViewHover {
        color:#3daee9;
      }
      .ColorScheme-ViewFocus{
        color:#3daee9;
      }
      .ColorScheme-ButtonText {
        color:#31363b;
      }
      .ColorScheme-ButtonBackground{
        color:#eff0f1;
      }
      .ColorScheme-ButtonHover {
        color:#3daee9;
      }
      .ColorScheme-ButtonFocus{
        color:#3daee9;
      }</style>
  <style id="current-color-scheme-8" type="text/css">.ColorScheme-Text {
        color:#31363b;
      }
      .ColorScheme-Background{
        color:#eff0f1;
      }
      .ColorScheme-ViewText {
        color:#31363b;
      }
      .ColorScheme-ViewBackground{
        color:#fcfcfc;
      }
      .ColorScheme-ViewHover {
        color:#3daee9;
      }
      .ColorScheme-ViewFocus{
        color:#3daee9;
      }
      .ColorScheme-ButtonText {
        color:#31363b;
      }
      .ColorScheme-ButtonBackground{
        color:#eff0f1;
      }
      .ColorScheme-ButtonHover {
        color:#3daee9;
      }
      .ColorScheme-ButtonFocus{
        color:#3daee9;
      }</style>
  <style id="current-color-scheme-7" type="text/css">.ColorScheme-Text {
        color:#31363b;
      }
      .ColorScheme-Background{
        color:#eff0f1;
      }
      .ColorScheme-ViewText {
        color:#31363b;
      }
      .ColorScheme-ViewBackground{
        color:#fcfcfc;
      }
      .ColorScheme-ViewHover {
        color:#3daee9;
      }
      .ColorScheme-ViewFocus{
        color:#3daee9;
      }
      .ColorScheme-ButtonText {
        color:#31363b;
      }
      .ColorScheme-ButtonBackground{
        color:#eff0f1;
      }
      .ColorScheme-ButtonHover {
        color:#3daee9;
      }
      .ColorScheme-ButtonFocus{
        color:#3daee9;
      }</style>
 </defs>
 <g id="layer1" transform="translate(-384.57143,-499.798)">
  <g id="g4320" transform="matrix(1.0174501,0,0,1.0174501,59.077453,-10.987492)">
   <g id="layer1-3" transform="matrix(1.5444819,0,0,1.5444819,-275.17538,-295.73877)">
    <circle id="path3377" cx="400.57138" cy="531.79791" r="13.999958" style="fill:url(#linearGradient4181)"/>
    <circle id="ellipse4233" cx="400.57138" cy="531.79791" r="0" style="fill:url(#linearGradient3426)"/>
   </g>
  </g>
  <path id="path4242" d="m419.58964 509.91314c-2.83874 0.0657-13.42993 1.20672-14.83217 1.65977-4.38558 1.41693-7.7642 4.86276-9.00671 9.18571-0.63702 2.21627-0.54863 5.44592 0.20829 7.6203 1.66576 4.78523 5.75544 9.52846 13.272 9.29896 7.51657-0.2295 11.69074-6.05942 12.45771-11.56403 0.23594-1.69333 0.17776-2.84087-0.45074-8.93349-0.39657-3.84463-0.82578-7.09561-0.95518-7.2249-0.0396-0.0398-0.28766-0.0517-0.6932-0.0423zm-2.59218 2.81346c0.27672-0.0126 0.44163-0.0112 0.46051 8e-3 0.22925 0.22904-1.44249 3.44394-3.02827 5.82385-1.80015 2.70165-5.67169 6.85548-8.07429 8.66173-1.52631 1.14747-4.6599 2.90975-5.7669 3.24469-0.38797 0.11733-0.65178-5e-3 -1.02353-0.47677-0.76644-0.97339-1.51619-3.21472-1.66303-4.96793-0.15247-1.82066 0.30642-3.94009 1.26111-5.82222 1.27161-2.50694 4.26716-4.76187 7.09633-5.34381 1.37249-0.28231 8.80113-1.04311 10.73807-1.12767z" style="fill:#eaeff9"/>
 </g>
</svg>
