<?xml version="1.0" encoding="UTF-8"?>
<svg id="svg5453" version="1.1" viewBox="0 0 48 48" xmlns="http://www.w3.org/2000/svg">
 <defs id="defs5455">
  <linearGradient id="linearGradient3426" x1="399.57144" x2="399.57144" y1="545.79797" y2="517.79797" gradientUnits="userSpaceOnUse">
   <stop id="stop4234-0" style="stop-color:#3889e9" offset="0"/>
   <stop id="stop4236" style="stop-color:#5ea5fb" offset="1"/>
  </linearGradient>
  <linearGradient id="linearGradient4181" x1="399.9939" x2="399.9939" y1="545.13873" y2="518.13873" gradientUnits="userSpaceOnUse">
   <stop id="stop4583" style="stop-color:#ec396c" offset="0"/>
   <stop id="stop4585" style="stop-color:#ff709a" offset="1"/>
  </linearGradient>
  <style id="current-color-scheme" type="text/css">.ColorScheme-Text {
        color:#31363b;
      }
      .ColorScheme-Background{
        color:#eff0f1;
      }
      .ColorScheme-ViewText {
        color:#31363b;
      }
      .ColorScheme-ViewBackground{
        color:#fcfcfc;
      }
      .ColorScheme-ViewHover {
        color:#3daee9;
      }
      .ColorScheme-ViewFocus{
        color:#3daee9;
      }
      .ColorScheme-ButtonText {
        color:#31363b;
      }
      .ColorScheme-ButtonBackground{
        color:#eff0f1;
      }
      .ColorScheme-ButtonHover {
        color:#3daee9;
      }
      .ColorScheme-ButtonFocus{
        color:#3daee9;
      }</style>
  <style id="current-color-scheme-8" type="text/css">.ColorScheme-Text {
        color:#31363b;
      }
      .ColorScheme-Background{
        color:#eff0f1;
      }
      .ColorScheme-ViewText {
        color:#31363b;
      }
      .ColorScheme-ViewBackground{
        color:#fcfcfc;
      }
      .ColorScheme-ViewHover {
        color:#3daee9;
      }
      .ColorScheme-ViewFocus{
        color:#3daee9;
      }
      .ColorScheme-ButtonText {
        color:#31363b;
      }
      .ColorScheme-ButtonBackground{
        color:#eff0f1;
      }
      .ColorScheme-ButtonHover {
        color:#3daee9;
      }
      .ColorScheme-ButtonFocus{
        color:#3daee9;
      }</style>
  <style id="current-color-scheme-7" type="text/css">.ColorScheme-Text {
        color:#31363b;
      }
      .ColorScheme-Background{
        color:#eff0f1;
      }
      .ColorScheme-ViewText {
        color:#31363b;
      }
      .ColorScheme-ViewBackground{
        color:#fcfcfc;
      }
      .ColorScheme-ViewHover {
        color:#3daee9;
      }
      .ColorScheme-ViewFocus{
        color:#3daee9;
      }
      .ColorScheme-ButtonText {
        color:#31363b;
      }
      .ColorScheme-ButtonBackground{
        color:#eff0f1;
      }
      .ColorScheme-ButtonHover {
        color:#3daee9;
      }
      .ColorScheme-ButtonFocus{
        color:#3daee9;
      }</style>
 </defs>
 <g id="layer1" transform="translate(-384.57143,-499.798)">
  <g id="g4471" transform="matrix(1.0931221,0,0,1.0931221,33.310366,-50.486049)">
   <g id="g4320" transform="matrix(.93077444 0 0 .93077444 23.572011 36.133708)">
    <g id="layer1-3" transform="matrix(1.5444819,0,0,1.5444819,-275.17538,-295.73877)">
     <circle id="path3377" cx="400.57138" cy="531.79791" r="13.999958" style="fill:url(#linearGradient4181)"/>
     <circle id="ellipse4233" cx="400.57138" cy="531.79791" r="0" style="fill:url(#linearGradient3426)"/>
    </g>
   </g>
   <g id="layer1-2" transform="matrix(.86548717 0 0 .86548717 -135.80349 -204.08198)" style="fill-opacity:.85;fill:#ffffff">
    <g id="layer1-6" transform="translate(-120.10595,41.912995)" style="fill-opacity:.85;fill:#ffffff">
     <g id="g3015" transform="matrix(.33581 0 0 .33171 653.00601 780.03876)" style="fill-opacity:.85;fill:#ffffff">
      <g id="g7930" transform="translate(19.557,19.715)" style="fill-opacity:.85;fill:#ffffff">
       <g id="layer1-5" transform="matrix(3.5886492,0,0,3.6330056,-1240.2838,-1846.1154)" style="fill-opacity:.85;fill:#ffffff">
        <g id="g4165" transform="matrix(.49370002 0 0 .49370002 320.79147 483.10857)" style="fill-opacity:.85;fill:#ffffff">
         <g id="Layer_1" style="fill-opacity:.85;fill:#ffffff">
          <g id="g4153" style="fill-opacity:.85;fill:#ffffff">
           <path id="path4159" d="m76.133 102.374c-7.997-2.877-12.747-6.408-17.955-14.288-1.278-2.171-3.628-7.016-3.539-13.34-0.208-6.305 2.978-13.57 8.924-17.447 5.742-4.092 13.152-4.153 17.56-2.537 4.547 1.688 6.391 4.5 6.443 4.366-0.139 0.035 2.436 2.201 3.584 6.916 1.279 4.532-0.02 12.044-6.271 15.12-2.875 1.541-6.609 1.82-9.537 0.718-2.928-1.181-5.053-3.774-5.761-6.483-1.543-5.981 2.995-9.296 4.997-9.636 8.145-2.716 12.27 10.03 2.744 11.114 4.342 1.45 8.818-3.006 7.967-7.545-0.172-4.54-5.668-9.046-11.73-7.199-1.583 0.437-3.98 1.548-5.856 4.047-1.924 2.484-2.797 6.377-1.797 10.161 0.975 3.805 3.94 7.447 8.07 9.084 4.172 1.539 8.817 1.099 12.653-0.897 8.189-4.051 9.828-13.922 8.201-19.353-1.436-5.837-4.607-8.51-4.443-8.551-0.059 0.159-2.34-3.309-7.977-5.414-5.512-2.01-14.106-1.868-20.987 2.957-7.042 4.516-10.857 13.39-10.58 20.542-0.095 7.263 2.612 12.822 4.089 15.293 5.954 9.08 12.776 11.918 21.201 12.372" style="fill-opacity:.85;fill:#ffffff"/>
          </g>
         </g>
        </g>
       </g>
      </g>
     </g>
    </g>
   </g>
  </g>
 </g>
</svg>
