<?xml version="1.0" encoding="UTF-8"?>
<svg id="svg5453" version="1.1" viewBox="0 0 48 48" xmlns="http://www.w3.org/2000/svg">
 <defs id="defs5455">
  <linearGradient id="linearGradient3426" x1="399.57144" x2="399.57144" y1="545.79797" y2="517.79797" gradientUnits="userSpaceOnUse">
   <stop id="stop4234-0" style="stop-color:#3889e9" offset="0"/>
   <stop id="stop4236" style="stop-color:#5ea5fb" offset="1"/>
  </linearGradient>
  <linearGradient id="linearGradient4181" x1="399.9939" x2="399.9939" y1="545.13873" y2="518.13873" gradientUnits="userSpaceOnUse">
   <stop id="stop4795" style="stop-color:#54b60f" offset="0"/>
   <stop id="stop4797" style="stop-color:#92dc41" offset="1"/>
  </linearGradient>
  <style id="current-color-scheme" type="text/css">.ColorScheme-Text {
        color:#31363b;
      }
      .ColorScheme-Background{
        color:#eff0f1;
      }
      .ColorScheme-ViewText {
        color:#31363b;
      }
      .ColorScheme-ViewBackground{
        color:#fcfcfc;
      }
      .ColorScheme-ViewHover {
        color:#3daee9;
      }
      .ColorScheme-ViewFocus{
        color:#3daee9;
      }
      .ColorScheme-ButtonText {
        color:#31363b;
      }
      .ColorScheme-ButtonBackground{
        color:#eff0f1;
      }
      .ColorScheme-ButtonHover {
        color:#3daee9;
      }
      .ColorScheme-ButtonFocus{
        color:#3daee9;
      }</style>
  <style id="current-color-scheme-8" type="text/css">.ColorScheme-Text {
        color:#31363b;
      }
      .ColorScheme-Background{
        color:#eff0f1;
      }
      .ColorScheme-ViewText {
        color:#31363b;
      }
      .ColorScheme-ViewBackground{
        color:#fcfcfc;
      }
      .ColorScheme-ViewHover {
        color:#3daee9;
      }
      .ColorScheme-ViewFocus{
        color:#3daee9;
      }
      .ColorScheme-ButtonText {
        color:#31363b;
      }
      .ColorScheme-ButtonBackground{
        color:#eff0f1;
      }
      .ColorScheme-ButtonHover {
        color:#3daee9;
      }
      .ColorScheme-ButtonFocus{
        color:#3daee9;
      }</style>
  <style id="current-color-scheme-7" type="text/css">.ColorScheme-Text {
        color:#31363b;
      }
      .ColorScheme-Background{
        color:#eff0f1;
      }
      .ColorScheme-ViewText {
        color:#31363b;
      }
      .ColorScheme-ViewBackground{
        color:#fcfcfc;
      }
      .ColorScheme-ViewHover {
        color:#3daee9;
      }
      .ColorScheme-ViewFocus{
        color:#3daee9;
      }
      .ColorScheme-ButtonText {
        color:#31363b;
      }
      .ColorScheme-ButtonBackground{
        color:#eff0f1;
      }
      .ColorScheme-ButtonHover {
        color:#3daee9;
      }
      .ColorScheme-ButtonFocus{
        color:#3daee9;
      }</style>
  <style id="current-color-scheme-5" type="text/css">.ColorScheme-Text {
        color:#31363b;
      }
      .ColorScheme-Background{
        color:#eff0f1;
      }
      .ColorScheme-ViewText {
        color:#31363b;
      }
      .ColorScheme-ViewBackground{
        color:#fcfcfc;
      }
      .ColorScheme-ViewHover {
        color:#3daee9;
      }
      .ColorScheme-ViewFocus{
        color:#3daee9;
      }
      .ColorScheme-ButtonText {
        color:#31363b;
      }
      .ColorScheme-ButtonBackground{
        color:#eff0f1;
      }
      .ColorScheme-ButtonHover {
        color:#3daee9;
      }
      .ColorScheme-ButtonFocus{
        color:#3daee9;
      }</style>
  <style id="current-color-scheme-8-2" type="text/css">.ColorScheme-Text {
        color:#31363b;
      }
      .ColorScheme-Background{
        color:#eff0f1;
      }
      .ColorScheme-ViewText {
        color:#31363b;
      }
      .ColorScheme-ViewBackground{
        color:#fcfcfc;
      }
      .ColorScheme-ViewHover {
        color:#3daee9;
      }
      .ColorScheme-ViewFocus{
        color:#3daee9;
      }
      .ColorScheme-ButtonText {
        color:#31363b;
      }
      .ColorScheme-ButtonBackground{
        color:#eff0f1;
      }
      .ColorScheme-ButtonHover {
        color:#3daee9;
      }
      .ColorScheme-ButtonFocus{
        color:#3daee9;
      }</style>
  <style id="current-color-scheme-7-4" type="text/css">.ColorScheme-Text {
        color:#31363b;
      }
      .ColorScheme-Background{
        color:#eff0f1;
      }
      .ColorScheme-ViewText {
        color:#31363b;
      }
      .ColorScheme-ViewBackground{
        color:#fcfcfc;
      }
      .ColorScheme-ViewHover {
        color:#3daee9;
      }
      .ColorScheme-ViewFocus{
        color:#3daee9;
      }
      .ColorScheme-ButtonText {
        color:#31363b;
      }
      .ColorScheme-ButtonBackground{
        color:#eff0f1;
      }
      .ColorScheme-ButtonHover {
        color:#3daee9;
      }
      .ColorScheme-ButtonFocus{
        color:#3daee9;
      }</style>
 </defs>
 <g id="layer1" transform="translate(-384.57143,-499.798)">
  <g id="g4471" transform="matrix(1.0341844,0,0,1.0341844,53.322094,-19.669323)">
   <g id="g4320" transform="matrix(.98381885 0 0 .98381885 5.5651187 8.3948576)">
    <g id="layer1-3" transform="matrix(1.5444819,0,0,1.5444819,-275.17538,-295.73877)">
     <circle id="path3377" cx="400.57138" cy="531.79791" r="13.999958" style="fill:url(#linearGradient4181)"/>
     <circle id="ellipse4233" cx="400.57138" cy="531.79791" r="0" style="fill:url(#linearGradient3426)"/>
    </g>
   </g>
  </g>
  <g id="layer1-5" transform="matrix(.67811093 0 0 .67811093 108.84777 169.78703)">
   <path id="path4850" d="m421.30089 504.82281v11.46505h4.71658v2.30117l7e-3 9.0238c0 7.43147 6.45455 13.06987 13.8927 13.06987h21.38374v-22.68255c0-7.43816-6.44787-13.06988-13.8927-13.06988l-6.22077-0.0136zm3.03694 3.05055 16.84395 0.0735v0.0136h6.22622c6.00001 0 10.86392 4.49462 10.86392 10.03974v16.59778c0 1.84635-1.66078 3.04782-3.55784 3.04784h-14.79711c-5.99332 0-10.85576-4.49461-10.85576-10.03973l-0.0136-11.37801c0-1.76646-1.54114-2.9703-2.82207-2.9703h-1.88772zm7.62704 3.37424v16.48491c0 1.74904 0.63991 3.28318 1.885 4.52345 1.06422 1.05044 2.34423 1.73121 3.78224 1.885h4.06921v-3.23007l-3.49392-0.0136c-1.69775 0-3.14846-1.65178-3.14846-3.77544v-15.87425zm11.66089 2.70782c-1.40544 0-2.6551 0.52189-3.65847 1.53547-1.00287 1.01304-1.52868 2.27746-1.52868 3.70472v7.21495h3.27224v-7.21495c0-0.54705 0.1779-0.975 0.56848-1.36956 0.39188-0.39581 0.80762-0.57392 1.34643-0.57392 0.55011 0 0.95914 0.1772 1.35187 0.57392 0.3906 0.39456 0.56849 0.82251 0.56849 1.36956v7.21495h3.27224v-7.21495c0-0.54705 0.17789-0.975 0.56848-1.36956 0.39274-0.39672 0.80175-0.57392 1.35187-0.57392 0.53883 0 0.95456 0.17811 1.34643 0.57392 0.39059 0.39456 0.5685 0.82251 0.5685 1.36956-7e-3 0.68632 0.0204 7.17143 0.0204 7.17143h3.26137l-9e-3 -7.17143c0-1.42726-0.52579-2.69168-1.52867-3.70472-1.00337-1.01358-2.25304-1.53547-3.65848-1.53547-1.37956 0-2.58583 0.51313-3.56191 1.4525-0.97374-0.93781-2.17225-1.4525-3.55124-1.4525z" style="color:#000000;fill-rule:evenodd;fill:#eaf7df"/>
  </g>
 </g>
</svg>
