<?xml version="1.0" encoding="UTF-8"?>
<svg id="svg2" width="48" height="48" version="1.1" viewBox="0 0 48 48.000001" xmlns="http://www.w3.org/2000/svg" xmlns:osb="http://www.openswatchbook.org/uri/2009/osb" xmlns:xlink="http://www.w3.org/1999/xlink">
 <defs id="defs4">
  <linearGradient id="linearGradient4181" x1="399.9939" x2="399.9939" y1="545.13873" y2="518.13873" gradientTransform="matrix(1.5714333,0,0,1.5714333,-605.47121,192.6772)" gradientUnits="userSpaceOnUse">
   <stop id="stop4583" style="stop-color:#4040c0" offset="0"/>
   <stop id="stop4585" style="stop-color:#8080ff" offset="1"/>
  </linearGradient>
  <style id="current-color-scheme" type="text/css">.ColorScheme-Text {
        color:#31363b;
      }
      .ColorScheme-Background{
        color:#eff0f1;
      }
      .ColorScheme-ViewText {
        color:#31363b;
      }
      .ColorScheme-ViewBackground{
        color:#fcfcfc;
      }
      .ColorScheme-ViewHover {
        color:#3daee9;
      }
      .ColorScheme-ViewFocus{
        color:#3daee9;
      }
      .ColorScheme-ButtonText {
        color:#31363b;
      }
      .ColorScheme-ButtonBackground{
        color:#eff0f1;
      }
      .ColorScheme-ButtonHover {
        color:#3daee9;
      }
      .ColorScheme-ButtonFocus{
        color:#3daee9;
      }</style>
  <style id="current-color-scheme-8" type="text/css">.ColorScheme-Text {
        color:#31363b;
      }
      .ColorScheme-Background{
        color:#eff0f1;
      }
      .ColorScheme-ViewText {
        color:#31363b;
      }
      .ColorScheme-ViewBackground{
        color:#fcfcfc;
      }
      .ColorScheme-ViewHover {
        color:#3daee9;
      }
      .ColorScheme-ViewFocus{
        color:#3daee9;
      }
      .ColorScheme-ButtonText {
        color:#31363b;
      }
      .ColorScheme-ButtonBackground{
        color:#eff0f1;
      }
      .ColorScheme-ButtonHover {
        color:#3daee9;
      }
      .ColorScheme-ButtonFocus{
        color:#3daee9;
      }</style>
  <style id="current-color-scheme-7" type="text/css">.ColorScheme-Text {
        color:#31363b;
      }
      .ColorScheme-Background{
        color:#eff0f1;
      }
      .ColorScheme-ViewText {
        color:#31363b;
      }
      .ColorScheme-ViewBackground{
        color:#fcfcfc;
      }
      .ColorScheme-ViewHover {
        color:#3daee9;
      }
      .ColorScheme-ViewFocus{
        color:#3daee9;
      }
      .ColorScheme-ButtonText {
        color:#31363b;
      }
      .ColorScheme-ButtonBackground{
        color:#eff0f1;
      }
      .ColorScheme-ButtonHover {
        color:#3daee9;
      }
      .ColorScheme-ButtonFocus{
        color:#3daee9;
      }</style>
 </defs>
 <g id="layer1" transform="translate(0,-1004.3622)">
  <circle id="path3377" cx="24" cy="1028.3622" r="22" style="fill:url(#linearGradient4181)"/>
  <path id="path4701" d="m23.930126 1011.9247a0.90914638 0.90914638 0 0 0-0.895153 0.9228v6.4796l-5.60926-3.2398a0.90914638 0.90914638 0 0 0-0.52379-0.1306 0.90914638 0.90914638 0 0 0-0.385221 1.7017l5.609261 3.2396-5.154756 2.9738-3.519644-2.0287-3.001397-1.7321a0.90914638 0.90914638 0 0 0-0.429563-0.1334 0.90914638 0.90914638 0 0 0-0.4794482 1.7045l3.0013982 1.7321 2.610633 1.5075-5.6120312 3.237a0.90914638 0.90914638 0 1 0 0.9090112 1.5742l5.612031-3.2398v5.9558l-6.5210422 3.7634a0.90914638 0.90914638 0 1 0 0.9090112 1.5742l5.612031-3.2398v6.4767a0.90914637 0.90914637 0 0 0 1.806936 0.1579 0.90914637 0.90914637 0 0 0 0.0083-0.085 0.90914638 0.90914638 0 0 0 0.0028-0.069v-6.4794l5.154754 2.9792v7.527a0.90914638 0.90914638 0 1 0 1.818021 0v-6.4794l5.609261 3.2397a0.90914638 0.90914638 0 1 0 0.90901-1.5741l-5.60926-3.2398 5.154756-2.9765 6.521042 3.7636a0.90914638 0.90914638 0 1 0 0.90901-1.5742l-5.60926-3.2397 5.60926-3.2398a0.90914638 0.90914638 0 0 0-0.415706-1.7015 0.90914638 0.90914638 0 0 0-0.493304 0.1277l-5.612032 3.2397v-5.9529l6.521042-3.7635a0.90914638 0.90914638 0 0 0-0.415706-1.7044 0.90914638 0.90914638 0 0 0-0.493304 0.1305l-5.612032 3.2369v-6.4766a0.90914638 0.90914638 0 0 0-0.922867-0.9229 0.90914638 0.90914638 0 0 0-0.895154 0.9229v6.4766l-5.154756-2.9736v-7.5298a0.90914638 0.90914638 0 0 0-0.922867-0.9229zm0.01391 10.0268 6.063767 3.5002v7.0034l-6.063767 3.5001-6.063765-3.5001v-7.0034z" style="color-rendering:auto;color:#000000;fill-rule:evenodd;fill:#eaeff9;image-rendering:auto;isolation:auto;mix-blend-mode:normal;shape-rendering:auto;solid-color:#000000;text-decoration-color:#000000;text-decoration-line:none;text-decoration-style:solid;text-indent:0;text-transform:none;white-space:normal"/>
 </g>
</svg>
