<?xml version="1.0" encoding="UTF-8"?>
<svg id="svg2" width="48" height="48" version="1.1" viewBox="0 0 48 48.000001" xmlns="http://www.w3.org/2000/svg">
 <defs id="defs4">
  <style id="current-color-scheme" type="text/css">.ColorScheme-Text {
        color:#31363b;
      }
      .ColorScheme-Background{
        color:#eff0f1;
      }
      .ColorScheme-ViewText {
        color:#31363b;
      }
      .ColorScheme-ViewBackground{
        color:#fcfcfc;
      }
      .ColorScheme-ViewHover {
        color:#3daee9;
      }
      .ColorScheme-ViewFocus{
        color:#3daee9;
      }
      .ColorScheme-ButtonText {
        color:#31363b;
      }
      .ColorScheme-ButtonBackground{
        color:#eff0f1;
      }
      .ColorScheme-ButtonHover {
        color:#3daee9;
      }
      .ColorScheme-ButtonFocus{
        color:#3daee9;
      }</style>
  <style id="current-color-scheme-8" type="text/css">.ColorScheme-Text {
        color:#31363b;
      }
      .ColorScheme-Background{
        color:#eff0f1;
      }
      .ColorScheme-ViewText {
        color:#31363b;
      }
      .ColorScheme-ViewBackground{
        color:#fcfcfc;
      }
      .ColorScheme-ViewHover {
        color:#3daee9;
      }
      .ColorScheme-ViewFocus{
        color:#3daee9;
      }
      .ColorScheme-ButtonText {
        color:#31363b;
      }
      .ColorScheme-ButtonBackground{
        color:#eff0f1;
      }
      .ColorScheme-ButtonHover {
        color:#3daee9;
      }
      .ColorScheme-ButtonFocus{
        color:#3daee9;
      }</style>
  <style id="current-color-scheme-7" type="text/css">.ColorScheme-Text {
        color:#31363b;
      }
      .ColorScheme-Background{
        color:#eff0f1;
      }
      .ColorScheme-ViewText {
        color:#31363b;
      }
      .ColorScheme-ViewBackground{
        color:#fcfcfc;
      }
      .ColorScheme-ViewHover {
        color:#3daee9;
      }
      .ColorScheme-ViewFocus{
        color:#3daee9;
      }
      .ColorScheme-ButtonText {
        color:#31363b;
      }
      .ColorScheme-ButtonBackground{
        color:#eff0f1;
      }
      .ColorScheme-ButtonHover {
        color:#3daee9;
      }
      .ColorScheme-ButtonFocus{
        color:#3daee9;
      }</style>
  <style id="current-color-scheme-1" type="text/css">.ColorScheme-Text {
        color:#31363b;
      }
      .ColorScheme-Background{
        color:#eff0f1;
      }
      .ColorScheme-ViewText {
        color:#31363b;
      }
      .ColorScheme-ViewBackground{
        color:#fcfcfc;
      }
      .ColorScheme-ViewHover {
        color:#3daee9;
      }
      .ColorScheme-ViewFocus{
        color:#3daee9;
      }
      .ColorScheme-ButtonText {
        color:#31363b;
      }
      .ColorScheme-ButtonBackground{
        color:#eff0f1;
      }
      .ColorScheme-ButtonHover {
        color:#3daee9;
      }
      .ColorScheme-ButtonFocus{
        color:#3daee9;
      }</style>
  <style id="current-color-scheme-8-2" type="text/css">.ColorScheme-Text {
        color:#31363b;
      }
      .ColorScheme-Background{
        color:#eff0f1;
      }
      .ColorScheme-ViewText {
        color:#31363b;
      }
      .ColorScheme-ViewBackground{
        color:#fcfcfc;
      }
      .ColorScheme-ViewHover {
        color:#3daee9;
      }
      .ColorScheme-ViewFocus{
        color:#3daee9;
      }
      .ColorScheme-ButtonText {
        color:#31363b;
      }
      .ColorScheme-ButtonBackground{
        color:#eff0f1;
      }
      .ColorScheme-ButtonHover {
        color:#3daee9;
      }
      .ColorScheme-ButtonFocus{
        color:#3daee9;
      }</style>
  <style id="current-color-scheme-7-7" type="text/css">.ColorScheme-Text {
        color:#31363b;
      }
      .ColorScheme-Background{
        color:#eff0f1;
      }
      .ColorScheme-ViewText {
        color:#31363b;
      }
      .ColorScheme-ViewBackground{
        color:#fcfcfc;
      }
      .ColorScheme-ViewHover {
        color:#3daee9;
      }
      .ColorScheme-ViewFocus{
        color:#3daee9;
      }
      .ColorScheme-ButtonText {
        color:#31363b;
      }
      .ColorScheme-ButtonBackground{
        color:#eff0f1;
      }
      .ColorScheme-ButtonHover {
        color:#3daee9;
      }
      .ColorScheme-ButtonFocus{
        color:#3daee9;
      }</style>
  <style id="current-color-scheme-2" type="text/css">.ColorScheme-Text {
        color:#31363b;
      }
      .ColorScheme-Background{
        color:#eff0f1;
      }
      .ColorScheme-ViewText {
        color:#31363b;
      }
      .ColorScheme-ViewBackground{
        color:#fcfcfc;
      }
      .ColorScheme-ViewHover {
        color:#3daee9;
      }
      .ColorScheme-ViewFocus{
        color:#3daee9;
      }
      .ColorScheme-ButtonText {
        color:#31363b;
      }
      .ColorScheme-ButtonBackground{
        color:#eff0f1;
      }
      .ColorScheme-ButtonHover {
        color:#3daee9;
      }
      .ColorScheme-ButtonFocus{
        color:#3daee9;
      }</style>
  <style id="current-color-scheme-8-3" type="text/css">.ColorScheme-Text {
        color:#31363b;
      }
      .ColorScheme-Background{
        color:#eff0f1;
      }
      .ColorScheme-ViewText {
        color:#31363b;
      }
      .ColorScheme-ViewBackground{
        color:#fcfcfc;
      }
      .ColorScheme-ViewHover {
        color:#3daee9;
      }
      .ColorScheme-ViewFocus{
        color:#3daee9;
      }
      .ColorScheme-ButtonText {
        color:#31363b;
      }
      .ColorScheme-ButtonBackground{
        color:#eff0f1;
      }
      .ColorScheme-ButtonHover {
        color:#3daee9;
      }
      .ColorScheme-ButtonFocus{
        color:#3daee9;
      }</style>
  <style id="current-color-scheme-7-75" type="text/css">.ColorScheme-Text {
        color:#31363b;
      }
      .ColorScheme-Background{
        color:#eff0f1;
      }
      .ColorScheme-ViewText {
        color:#31363b;
      }
      .ColorScheme-ViewBackground{
        color:#fcfcfc;
      }
      .ColorScheme-ViewHover {
        color:#3daee9;
      }
      .ColorScheme-ViewFocus{
        color:#3daee9;
      }
      .ColorScheme-ButtonText {
        color:#31363b;
      }
      .ColorScheme-ButtonBackground{
        color:#eff0f1;
      }
      .ColorScheme-ButtonHover {
        color:#3daee9;
      }
      .ColorScheme-ButtonFocus{
        color:#3daee9;
      }</style>
  <style id="current-color-scheme-29" type="text/css">.ColorScheme-Text {
        color:#31363b;
      }
      .ColorScheme-Background{
        color:#eff0f1;
      }
      .ColorScheme-ViewText {
        color:#31363b;
      }
      .ColorScheme-ViewBackground{
        color:#fcfcfc;
      }
      .ColorScheme-ViewHover {
        color:#3daee9;
      }
      .ColorScheme-ViewFocus{
        color:#3daee9;
      }
      .ColorScheme-ButtonText {
        color:#31363b;
      }
      .ColorScheme-ButtonBackground{
        color:#eff0f1;
      }
      .ColorScheme-ButtonHover {
        color:#3daee9;
      }
      .ColorScheme-ButtonFocus{
        color:#3daee9;
      }</style>
  <style id="current-color-scheme-8-31" type="text/css">.ColorScheme-Text {
        color:#31363b;
      }
      .ColorScheme-Background{
        color:#eff0f1;
      }
      .ColorScheme-ViewText {
        color:#31363b;
      }
      .ColorScheme-ViewBackground{
        color:#fcfcfc;
      }
      .ColorScheme-ViewHover {
        color:#3daee9;
      }
      .ColorScheme-ViewFocus{
        color:#3daee9;
      }
      .ColorScheme-ButtonText {
        color:#31363b;
      }
      .ColorScheme-ButtonBackground{
        color:#eff0f1;
      }
      .ColorScheme-ButtonHover {
        color:#3daee9;
      }
      .ColorScheme-ButtonFocus{
        color:#3daee9;
      }</style>
  <style id="current-color-scheme-7-9" type="text/css">.ColorScheme-Text {
        color:#31363b;
      }
      .ColorScheme-Background{
        color:#eff0f1;
      }
      .ColorScheme-ViewText {
        color:#31363b;
      }
      .ColorScheme-ViewBackground{
        color:#fcfcfc;
      }
      .ColorScheme-ViewHover {
        color:#3daee9;
      }
      .ColorScheme-ViewFocus{
        color:#3daee9;
      }
      .ColorScheme-ButtonText {
        color:#31363b;
      }
      .ColorScheme-ButtonBackground{
        color:#eff0f1;
      }
      .ColorScheme-ButtonHover {
        color:#3daee9;
      }
      .ColorScheme-ButtonFocus{
        color:#3daee9;
      }</style>
  <linearGradient id="linearGradient3658" x1="25.001274" x2="23.864855" y1="1004.885" y2="1051.7308" gradientTransform="matrix(.9460832 0 0 .9460832 1.0539167 55.213075)" gradientUnits="userSpaceOnUse">
   <stop id="stop3654" style="stop-color:#5293e0" offset="0"/>
   <stop id="stop3656" style="stop-color:#2c5aa0" offset="1"/>
  </linearGradient>
 </defs>
 <g id="layer1" transform="translate(0,-1004.3622)">
  <path id="path3377-0" d="m46 1028.3622a22 22 0 0 1-22 22 22 22 0 0 1-22-22 22 22 0 0 1 22-22 22 22 0 0 1 22 22z" style="fill:url(#linearGradient3658)"/>
  <path id="path3377" d="m23.716271 1009.4861a18.921554 18.921554 0 0 0-18.921663 18.9217 18.921554 18.921554 0 0 0 18.921663 18.9217 18.921554 18.921554 0 0 0 18.921665-18.9217 18.921554 18.921554 0 0 0-18.921665-18.9217zm-5.667283 1.7752c0.03903-0.013 0.307951 0.3724 0.597561 0.8567 0.289608 0.4843 1.03069 1.64 1.646467 2.5666 1.253907 1.8869 2.235539 3.4426 2.787553 4.4165l0.370296 0.6516 0.139855 1.8214c0.07643 1.0015 0.318882 4.3826 0.538757 7.5138 0.322892 4.5986 0.381554 5.7045 0.306726 5.7517-0.05096 0.032-0.109013 0.061-0.12873 0.052-0.01972 0-1.084914-0.1149-2.3664-0.2464-8.914515-0.9155-10.692462-1.1366-12.331023-1.5352-0.6506007-0.1582-1.2542022-0.3055-1.3429197-0.3258-0.088726-0.02-0.162105-0.078-0.162105-0.1288 0-0.05 0.4621562-0.9135 1.0266595-1.9166 4.668942-8.2972 7.172877-13.6769 8.50092-18.2605 0.190139-0.6563 0.377358-1.2043 0.416383-1.2174zm6.862402 9.1907c0.02004-0.01 0.05588 0.01 0.104891 0.035 0.290901 0.1557 2.187957 1.9142 3.415308 3.1659 2.819688 2.8756 4.862739 5.5928 6.296627 8.3738 0.429226 0.8324 0.552169 1.1314 0.499026 1.2157-0.100535 0.1593-1.41496 0.6943-2.415667 0.9837-1.006121 0.2909-2.130774 0.4982-3.270686 0.6008v-0.01c-1.062689 0.1-3.56198 0.1024-3.620322 0.01-0.02405-0.039 0.05741-0.3858 0.181175-0.7708 1.245881-3.875 0.923129-8.477-0.89475-12.733-0.275876-0.646-0.355719-0.8545-0.295602-0.8741zm5.28904 3.2055c0.102589-0.027 0.513911 0.078 1.272993 0.31 2.718237 0.8262 4.541061 1.5267 6.16154 2.371 1.398542 0.729 3.017994 1.8438 3.017994 2.0756 0 0.058-0.103099 0.2739-0.228852 0.4816-0.772463 1.2752-1.930144 2.4956-3.103814 3.2707-0.426581 0.2817-0.804537 0.5117-0.839127 0.5117-0.09983 0-0.117631-0.1232-0.154158-1.0743-0.04002-1.042-0.20496-1.747-0.619809-2.6334-0.766867-1.6388-2.173103-3.0108-4.931457-4.8138-0.472046-0.3086-0.6779-0.4713-0.57531-0.4991zm9.438583 9.8201c0.0458 0.1256-1.049195 2.2364-1.544755 2.9782-2.198137 3.2902-5.340368 5.7127-8.947505 6.8974-2.168337 0.7122-4.080031 0.9679-6.415819 0.8582-3.399516-0.1598-6.721551-1.3982-9.643593-3.5965-0.674833-0.5077-2.544402-2.3612-2.544402-2.5221 0-0.078 0.04809-0.1009 0.160518-0.079 0.08872 0.019 0.758074 0.067 1.487538 0.1098 0.729457 0.043 1.521134 0.091 1.757717 0.1096 0.236583 0.018 1.550644 0.069 2.92105 0.1097 4.510801 0.1345 9.079797-0.1251 12.168923-0.6913 3.56289-0.6532 6.872495-1.9209 9.78663-3.7491 0.433734-0.2721 0.799911-0.4638 0.813698-0.4259z" style="fill:#eaeff9"/>
 </g>
</svg>
