<?xml version="1.0" encoding="UTF-8"?>
<svg id="svg5453" version="1.1" viewBox="0 0 48 48" xmlns="http://www.w3.org/2000/svg">
 <defs id="defs5455">
  <linearGradient id="linearGradient3426" x1="399.57144" x2="399.57144" y1="545.79797" y2="517.79797" gradientUnits="userSpaceOnUse">
   <stop id="stop4234-0" style="stop-color:#3889e9" offset="0"/>
   <stop id="stop4236" style="stop-color:#5ea5fb" offset="1"/>
  </linearGradient>
  <linearGradient id="linearGradient4181" x1="399.9939" x2="399.9939" y1="545.13873" y2="518.13873" gradientUnits="userSpaceOnUse">
   <stop id="stop4795" style="stop-color:#54b60f" offset="0"/>
   <stop id="stop4797" style="stop-color:#92dc41" offset="1"/>
  </linearGradient>
  <style id="current-color-scheme" type="text/css">.ColorScheme-Text {
        color:#31363b;
      }
      .ColorScheme-Background{
        color:#eff0f1;
      }
      .ColorScheme-ViewText {
        color:#31363b;
      }
      .ColorScheme-ViewBackground{
        color:#fcfcfc;
      }
      .ColorScheme-ViewHover {
        color:#3daee9;
      }
      .ColorScheme-ViewFocus{
        color:#3daee9;
      }
      .ColorScheme-ButtonText {
        color:#31363b;
      }
      .ColorScheme-ButtonBackground{
        color:#eff0f1;
      }
      .ColorScheme-ButtonHover {
        color:#3daee9;
      }
      .ColorScheme-ButtonFocus{
        color:#3daee9;
      }</style>
  <style id="current-color-scheme-8" type="text/css">.ColorScheme-Text {
        color:#31363b;
      }
      .ColorScheme-Background{
        color:#eff0f1;
      }
      .ColorScheme-ViewText {
        color:#31363b;
      }
      .ColorScheme-ViewBackground{
        color:#fcfcfc;
      }
      .ColorScheme-ViewHover {
        color:#3daee9;
      }
      .ColorScheme-ViewFocus{
        color:#3daee9;
      }
      .ColorScheme-ButtonText {
        color:#31363b;
      }
      .ColorScheme-ButtonBackground{
        color:#eff0f1;
      }
      .ColorScheme-ButtonHover {
        color:#3daee9;
      }
      .ColorScheme-ButtonFocus{
        color:#3daee9;
      }</style>
  <style id="current-color-scheme-7" type="text/css">.ColorScheme-Text {
        color:#31363b;
      }
      .ColorScheme-Background{
        color:#eff0f1;
      }
      .ColorScheme-ViewText {
        color:#31363b;
      }
      .ColorScheme-ViewBackground{
        color:#fcfcfc;
      }
      .ColorScheme-ViewHover {
        color:#3daee9;
      }
      .ColorScheme-ViewFocus{
        color:#3daee9;
      }
      .ColorScheme-ButtonText {
        color:#31363b;
      }
      .ColorScheme-ButtonBackground{
        color:#eff0f1;
      }
      .ColorScheme-ButtonHover {
        color:#3daee9;
      }
      .ColorScheme-ButtonFocus{
        color:#3daee9;
      }</style>
  <style id="current-color-scheme-5" type="text/css">.ColorScheme-Text {
        color:#31363b;
      }
      .ColorScheme-Background{
        color:#eff0f1;
      }
      .ColorScheme-ViewText {
        color:#31363b;
      }
      .ColorScheme-ViewBackground{
        color:#fcfcfc;
      }
      .ColorScheme-ViewHover {
        color:#3daee9;
      }
      .ColorScheme-ViewFocus{
        color:#3daee9;
      }
      .ColorScheme-ButtonText {
        color:#31363b;
      }
      .ColorScheme-ButtonBackground{
        color:#eff0f1;
      }
      .ColorScheme-ButtonHover {
        color:#3daee9;
      }
      .ColorScheme-ButtonFocus{
        color:#3daee9;
      }</style>
  <style id="current-color-scheme-8-2" type="text/css">.ColorScheme-Text {
        color:#31363b;
      }
      .ColorScheme-Background{
        color:#eff0f1;
      }
      .ColorScheme-ViewText {
        color:#31363b;
      }
      .ColorScheme-ViewBackground{
        color:#fcfcfc;
      }
      .ColorScheme-ViewHover {
        color:#3daee9;
      }
      .ColorScheme-ViewFocus{
        color:#3daee9;
      }
      .ColorScheme-ButtonText {
        color:#31363b;
      }
      .ColorScheme-ButtonBackground{
        color:#eff0f1;
      }
      .ColorScheme-ButtonHover {
        color:#3daee9;
      }
      .ColorScheme-ButtonFocus{
        color:#3daee9;
      }</style>
  <style id="current-color-scheme-7-4" type="text/css">.ColorScheme-Text {
        color:#31363b;
      }
      .ColorScheme-Background{
        color:#eff0f1;
      }
      .ColorScheme-ViewText {
        color:#31363b;
      }
      .ColorScheme-ViewBackground{
        color:#fcfcfc;
      }
      .ColorScheme-ViewHover {
        color:#3daee9;
      }
      .ColorScheme-ViewFocus{
        color:#3daee9;
      }
      .ColorScheme-ButtonText {
        color:#31363b;
      }
      .ColorScheme-ButtonBackground{
        color:#eff0f1;
      }
      .ColorScheme-ButtonHover {
        color:#3daee9;
      }
      .ColorScheme-ButtonFocus{
        color:#3daee9;
      }</style>
  <linearGradient id="linearGradient5752" x1="-533.21613" x2="-523.59656" y1="554.58472" y2="367.84085" gradientUnits="userSpaceOnUse">
   <stop id="stop5094" style="stop-color:#dfe2e3" offset="0"/>
   <stop id="stop5096" style="stop-color:#fdfdfe" offset="1"/>
  </linearGradient>
 </defs>
 <g id="layer1" transform="translate(-384.57143,-499.798)">
  <g id="g4471" transform="matrix(1.0341844,0,0,1.0341844,53.322094,-19.669323)">
   <g id="g4320" transform="matrix(.98381885 0 0 .98381885 5.5651187 8.3948576)">
    <g id="layer1-3" transform="matrix(1.5444819,0,0,1.5444819,-275.17538,-295.73877)">
     <circle id="path3377" cx="400.57138" cy="531.79791" r="13.999958" style="fill:url(#linearGradient4181)"/>
     <circle id="ellipse4233" cx="400.57138" cy="531.79791" r="0" style="fill:url(#linearGradient3426)"/>
    </g>
   </g>
  </g>
  <g id="g4259" transform="matrix(.14064944 0 0 .14064944 482.98193 460.54277)" style="fill:url(#linearGradient5752)">
   <path id="path2445" d="m-529.04784 334.71153c-65.00774 0-117.71433 52.70071-117.71433 117.71433 0 65.01363 52.70659 117.71434 117.71433 117.71434s117.71434-52.70071 117.71434-117.71434c0-65.01362-52.7066-117.71433-117.71434-117.71433zm0.56385 16.30225c56.01143 0 101.45799 45.40654 101.45799 101.4109 0 56.01143-45.44951 101.41091-101.45799 101.41091-30.24434 0-57.38279-13.25523-75.96106-34.25193 7.63907-5.92869 20.41991-4.48239 36.15949-2.68813 7.54314 0.85814 16.14158 1.83976 25.01724 2.03775 24.79535 0.1442 51.47413-4.38132 67.93883-11.57602 10.6455-4.66861 17.46116-7.74325 21.72183-11.61959 1.53623-1.26013 2.34292-3.36533 3.16504-5.54964l0.56385-1.47413c0.6901-1.76425 1.68043-5.56059 2.12445-7.63084 0.19776-0.90616 0.29547-1.8806-0.34667-2.38465l-2.2979 0.43377c-7.2253 4.3326-25.27621 12.58426-42.18646 12.92033-20.95492 0.4379-63.18906-21.095-67.59157-23.36924l-0.43378-0.5203c-1.05613-2.52032-7.37657-17.52472-8.71498-20.68123 30.40031 20.0185 55.60413 31.09895 74.91929 32.82111 21.47698 1.90827 38.23008-9.81737 45.39477-14.82788 1.39821-0.95414 2.46688-1.70233 2.90495-1.86436l0.47674-0.78045c-1.1948-7.55137-12.46006-44.07813-20.94726-52.85374-2.35429-2.40725-4.22006-4.74388-8.02224-6.98046-30.71167-17.89846-103.62981-28.68109-107.04941-29.17549l-0.56385 0.17345-0.2166 0.47692s-0.27368 15.14218-0.3037 16.82256c-2.50231-0.82812-10.26175-3.3684-21.37516-6.41661 14.50064-17.94261 36.72334-33.86171 75.6138-33.86171zm26.79473 53.67598c0.51735-8e-3 1.03989-0.0171 1.56083 0 17.20454 0.61805 30.72109 15.10863 30.13311 32.30081-0.30606 8.31711-3.81259 16.0015-9.88565 21.67827-6.09054 5.70679-14.00683 8.68143-22.3722 8.41128-17.17452-0.64207-30.69107-15.13277-30.13311-32.30081 0.29429-8.32888 3.81995-16.0633 9.92862-21.72183 5.70455-5.35012 13.00567-8.25119 20.76834-8.36772zm-0.82377 9.19172c-5.01057 0.30464-9.73909 2.3391-13.44062 5.80985-4.21859 3.96056-6.70795 9.32297-6.89394 15.13159-0.39611 12.00156 8.99514 22.10145 20.98494 22.54583 5.8268 0.1801 11.35413-1.8613 15.60833-5.80985 4.24254-3.97857 6.71384-9.39008 6.89394-15.17515 0.40199-12.01981-9.03222-22.08203-21.0279-22.50227-0.72612-0.0271-1.40875-0.0435-2.12451 0zm5.7231 10.88269c5.32875 0 9.6255 2.89571 9.6255 6.46016 0 3.5465-4.29651 6.46017-9.6255 6.46017-5.3467 0-9.66847-2.91973-9.66847-6.46017 0-3.56451 4.32188-6.46016 9.66847-6.46016z" style="fill-opacity:.85;fill:#ffffff"/>
  </g>
 </g>
</svg>
