<?xml version="1.0" encoding="UTF-8"?>
<svg id="svg5453" version="1.1" viewBox="0 0 48 48" xmlns="http://www.w3.org/2000/svg">
 <defs id="defs5455">
  <linearGradient id="linearGradient3426" x1="399.57144" x2="399.57144" y1="545.79797" y2="517.79797" gradientUnits="userSpaceOnUse">
   <stop id="stop4234-0" style="stop-color:#3889e9" offset="0"/>
   <stop id="stop4236" style="stop-color:#5ea5fb" offset="1"/>
  </linearGradient>
  <linearGradient id="linearGradient4181" x1="399.9939" x2="399.9939" y1="545.13873" y2="518.13873" gradientUnits="userSpaceOnUse">
   <stop id="stop4503" style="stop-color:#ff6835" offset="0"/>
   <stop id="stop4505" style="stop-color:#ff956f" offset="1"/>
  </linearGradient>
  <style id="current-color-scheme" type="text/css">.ColorScheme-Text {
        color:#31363b;
      }
      .ColorScheme-Background{
        color:#eff0f1;
      }
      .ColorScheme-ViewText {
        color:#31363b;
      }
      .ColorScheme-ViewBackground{
        color:#fcfcfc;
      }
      .ColorScheme-ViewHover {
        color:#3daee9;
      }
      .ColorScheme-ViewFocus{
        color:#3daee9;
      }
      .ColorScheme-ButtonText {
        color:#31363b;
      }
      .ColorScheme-ButtonBackground{
        color:#eff0f1;
      }
      .ColorScheme-ButtonHover {
        color:#3daee9;
      }
      .ColorScheme-ButtonFocus{
        color:#3daee9;
      }</style>
  <style id="current-color-scheme-8" type="text/css">.ColorScheme-Text {
        color:#31363b;
      }
      .ColorScheme-Background{
        color:#eff0f1;
      }
      .ColorScheme-ViewText {
        color:#31363b;
      }
      .ColorScheme-ViewBackground{
        color:#fcfcfc;
      }
      .ColorScheme-ViewHover {
        color:#3daee9;
      }
      .ColorScheme-ViewFocus{
        color:#3daee9;
      }
      .ColorScheme-ButtonText {
        color:#31363b;
      }
      .ColorScheme-ButtonBackground{
        color:#eff0f1;
      }
      .ColorScheme-ButtonHover {
        color:#3daee9;
      }
      .ColorScheme-ButtonFocus{
        color:#3daee9;
      }</style>
  <style id="current-color-scheme-7" type="text/css">.ColorScheme-Text {
        color:#31363b;
      }
      .ColorScheme-Background{
        color:#eff0f1;
      }
      .ColorScheme-ViewText {
        color:#31363b;
      }
      .ColorScheme-ViewBackground{
        color:#fcfcfc;
      }
      .ColorScheme-ViewHover {
        color:#3daee9;
      }
      .ColorScheme-ViewFocus{
        color:#3daee9;
      }
      .ColorScheme-ButtonText {
        color:#31363b;
      }
      .ColorScheme-ButtonBackground{
        color:#eff0f1;
      }
      .ColorScheme-ButtonHover {
        color:#3daee9;
      }
      .ColorScheme-ButtonFocus{
        color:#3daee9;
      }</style>
 </defs>
 <g id="layer1" transform="translate(-384.57143,-499.798)">
  <g id="g4471" transform="matrix(1.0931221,0,0,1.0931221,33.310366,-50.486049)">
   <g id="g4320" transform="matrix(.93077444 0 0 .93077444 23.572011 36.133708)">
    <g id="layer1-3" transform="matrix(1.5444819,0,0,1.5444819,-275.17538,-295.73877)">
     <circle id="path3377" cx="400.57138" cy="531.79791" r="13.999958" style="fill:url(#linearGradient4181)"/>
     <circle id="ellipse4233" cx="400.57138" cy="531.79791" r="0" style="fill:url(#linearGradient3426)"/>
    </g>
   </g>
   <g id="layer1-2" transform="matrix(.91481089 0 0 .91481089 -162.89312 -245.51061)" style="fill:#e9afaf">
    <g id="layer1-6" transform="translate(-120.10595,41.912995)" style="fill:#e9afaf">
     <path id="rect4244" d="m681.42688 785.06074c-0.14737-0.01-0.29263-8e-3 -0.43574 2e-3 -0.95408 0.0674-1.83761 0.59592-2.35216 1.48696-0.82028 1.42414-0.32925 3.23372 1.09784 4.05701 1.42413 0.82027 3.23674 0.34348 4.05701-1.08516 0.82318-1.4197 0.35174-3.26286-1.07242-4.08452-0.40135-0.23084-0.85244-0.34884-1.2945-0.37651zm-7.81577 3.15596c-2.05878 0-3.98423 0.4863-5.71107 1.34314l2.06873 3.73546c1.11418-0.52027 2.33527-0.82704 3.64245-0.82704 4.55031 0 8.30593 3.48193 8.69776 7.93425l4.22412-0.0529c-0.21058-3.28115-1.64616-6.23264-3.84973-8.39961-1.13465 0.42562-2.42331 0.36038-3.55353-0.29613-1.13021-0.65359-1.84521-1.74601-2.04123-2.94651-1.10249-0.3027-2.27992-0.49072-3.47739-0.49072zm-7.17063 2.18289c-2.6085 1.74146-4.52953 4.41407-5.33669 7.53441 0.94458 0.76763 1.51241 1.91539 1.51241 3.22993 0 1.30566-0.56635 2.49608-1.51241 3.26805 0.80715 3.11881 2.72819 5.78028 5.33669 7.52173l2.18223-3.67027c-2.23853-1.57327-3.69527-4.17506-3.69527-7.11984 0-2.9478 1.45674-5.54646 3.69527-7.11983zm-7.99977 7.79249c-1.64788 0-2.97185 1.32396-2.97185 2.97185 0 1.64204 1.32397 2.97185 2.97185 2.97185 1.64929 0 2.98668-1.32981 2.98668-2.97185 0-1.64789-1.33739-2.97185-2.98668-2.97185zm23.86816 3.76092c-0.39186 4.44505-4.14743 7.93425-8.69776 7.93425-1.30868 0-2.52826-0.29376-3.64244-0.81436l-2.06875 3.70796c1.72684 0.85979 3.65241 1.33046 5.71107 1.33046 1.19758 0 2.37491-0.15984 3.4774-0.46535 0.19594-1.19898 0.90949-2.28794 2.04125-2.94445 1.13323-0.65348 2.41896-0.71691 3.55351-0.28555 2.20357-2.16989 3.63898-5.11554 3.84973-8.39961zm-1.30513 9.39369c-0.4312 0.0367-0.86646 0.18017-1.26699 0.41248-1.42696 0.81744-1.91809 2.62312-1.09784 4.04433 0.82325 1.42859 2.65681 1.90749 4.08236 1.08722 1.42587-0.82177 1.89557-2.63492 1.07242-4.05906-0.51451-0.89099-1.4106-1.41776-2.36483-1.4849-0.14329-0.0119-0.28156-0.0119-0.42515 0z" style="fill-opacity:.85;fill:#ffffff;stroke-width:.94608313"/>
    </g>
   </g>
  </g>
 </g>
 <style id="style26" type="text/css">.specularity {opacity:0.5;}
	.low-specularity {opacity:0.25;}
	.full-specularity {opacity:1;}
	.black {fill:#000000;}
	.white {fill:#ffffff;}
	.outline-big {stroke-width:16;stroke:none;opacity:0.1;fill:none;}
	.outline-small {stroke-width:8;stroke:none;opacity:0.2;fill:none;}
	.stroke-highlight {fill:none;stroke:none;opacity:0.2;}
       	.base-shadow 	{fill:black;opacity:75;}</style>
 <style id="style26-7" type="text/css">.specularity {opacity:0.5;}
	.low-specularity {opacity:0.25;}
	.full-specularity {opacity:1;}
	.black {fill:#000000;}
	.white {fill:#ffffff;}
	.outline-big {stroke-width:16;stroke:none;opacity:0.1;fill:none;}
	.outline-small {stroke-width:8;stroke:none;opacity:0.2;fill:none;}
	.stroke-highlight {fill:none;stroke:none;opacity:0.2;}
       	.base-shadow 	{fill:black;opacity:75;}</style>
 <style id="style26-9" type="text/css">.specularity {opacity:0.5;}
	.low-specularity {opacity:0.25;}
	.full-specularity {opacity:1;}
	.black {fill:#000000;}
	.white {fill:#ffffff;}
	.outline-big {stroke-width:16;stroke:none;opacity:0.1;fill:none;}
	.outline-small {stroke-width:8;stroke:none;opacity:0.2;fill:none;}
	.stroke-highlight {fill:none;stroke:none;opacity:0.2;}
       	.base-shadow 	{fill:black;opacity:75;}</style>
</svg>
