<?xml version="1.0" encoding="UTF-8"?>
<svg id="svg5453" version="1.1" viewBox="0 0 64 64" xmlns="http://www.w3.org/2000/svg">
 <defs id="defs5455">
  <linearGradient id="linearGradient833" x1="32.010437" x2="31.962496" y1="57.89262" y2="15.119835" gradientTransform="translate(0,-3.8146973e-6)" gradientUnits="userSpaceOnUse">
   <stop id="stop827" style="stop-color:#20bcfa" offset="0"/>
   <stop id="stop829" style="stop-color:#46c7fc" offset="1"/>
  </linearGradient>
  <style id="current-color-scheme" type="text/css">.ColorScheme-Text {
        color:#4d4d4d;
      }</style>
 </defs>
 <path id="folderTab-3" d="m4 6c-0.55122 0.05512-1 0.446-1 1v42h58v-38c0-1-1-1-1-1h-27c-2-4-6-4-6-4h-22z" style="fill-rule:evenodd;fill:#209efa"/>
 <path id="folderPaper-6" d="m7 13h50v32h-50z" style="color-rendering:auto;color:#000000;fill:#fffbec;image-rendering:auto;isolation:auto;mix-blend-mode:normal;shape-rendering:auto;solid-color:#000000;text-decoration-color:#000000;text-decoration-line:none;text-decoration-style:solid;white-space:normal"/>
 <path id="folderFront-2" d="m39 14.999996s-4 0-6 4h-31s-0.1319813 0.01691-0.2890625 0.05859c-0.045956 0.01404-0.091922 0.02277-0.1347656 0.04297-0.2742277 0.109838-0.5761719 0.34321-0.5761719 0.89844v37c0 0.55397 0.44603 1 1 1h60c0.55397 0 1-0.44603 1-1v-41c0-0.55397-0.44603-1-1-1h-1z" style="fill-rule:evenodd;fill:url(#linearGradient833)"/>
 <path id="path9330-3" d="m29.22659 48-0.244638-2.897599a8.7201446 8.6434392 0 0 1-2.548495-1.461041l-2.658864 1.241504-2.774593-4.764889 2.411523-1.659537a8.7201446 8.6434392 0 0 1-0.133173-1.458389 8.7201446 8.6434392 0 0 1 0.126998-1.464089l-2.405174-1.653254 2.774595-4.763639 2.650765 1.236953a8.7201446 8.6434392 0 0 1 2.55469-1.451819l0.245744-2.904201h5.549182l0.24463 2.897599a8.7201446 8.6434392 0 0 1 2.54851 1.461043l2.65695-1.240036 2.77459 4.763639-2.41231 1.660481a8.7201446 8.6434392 0 0 1 0.13476 1.456808 8.7201446 8.6434392 0 0 1-0.12843 1.46467l2.40615 1.654364-2.77461 4.763616-2.65077-1.236942a8.7201446 8.6434392 0 0 1-2.55421 1.450525l-0.24416 2.904201h-5.549174zm2.77458-7.857671a3.1709617 3.1430688 0 0 0 3.17098-3.143069 3.1709617 3.1430688 0 0 0-3.17098-3.143068 3.1709617 3.1430688 0 0 0-3.170946 3.143068 3.1709617 3.1430688 0 0 0 3.170946 3.143069z" style="enable-background:new;fill:#f9f9f9;stroke-width:1.4332498"/>
</svg>
