<?xml version="1.0" encoding="UTF-8" standalone="no"?>
<svg
   xmlns:dc="http://purl.org/dc/elements/1.1/"
   xmlns:cc="http://creativecommons.org/ns#"
   xmlns:rdf="http://www.w3.org/1999/02/22-rdf-syntax-ns#"
   xmlns:svg="http://www.w3.org/2000/svg"
   xmlns="http://www.w3.org/2000/svg"
   xmlns:xlink="http://www.w3.org/1999/xlink"
   xmlns:sodipodi="http://sodipodi.sourceforge.net/DTD/sodipodi-0.dtd"
   xmlns:inkscape="http://www.inkscape.org/namespaces/inkscape"
   viewBox="0 0 64 64"
   version="1.1"
   id="svg5453"
   height="64"
   width="64"
   sodipodi:docname="folder-remote.svg"
   inkscape:version="0.92.4 (unknown)">
  <sodipodi:namedview
     pagecolor="#ffffff"
     bordercolor="#666666"
     borderopacity="1"
     objecttolerance="10"
     gridtolerance="10"
     guidetolerance="10"
     inkscape:pageopacity="0"
     inkscape:pageshadow="2"
     inkscape:window-width="1366"
     inkscape:window-height="711"
     id="namedview23"
     showgrid="false"
     inkscape:zoom="6.3911579"
     inkscape:cx="18.158628"
     inkscape:cy="32.307"
     inkscape:current-layer="svg5453"
     inkscape:window-x="0"
     inkscape:window-y="0"
     inkscape:window-maximized="1" />
  <defs
     id="defs5455">
    <linearGradient
       id="linearGradient831">
      <stop
         style="stop-color:#20bcfa;stop-opacity:1;"
         offset="0"
         id="stop827" />
      <stop
         style="stop-color:#46c7fc;stop-opacity:1"
         offset="1"
         id="stop829" />
    </linearGradient>
    <linearGradient
       xlink:href="#linearGradient831"
       id="linearGradient833"
       x1="32.010437"
       y1="57.89262"
       x2="31.962496"
       y2="15.119835"
       gradientUnits="userSpaceOnUse"
       gradientTransform="translate(1.526117e-5,1.3258128)" />
  </defs>
  <metadata
     id="metadata5458">
    <rdf:RDF>
      <cc:Work
         rdf:about="">
        <dc:format>image/svg+xml</dc:format>
        <dc:type
           rdf:resource="http://purl.org/dc/dcmitype/StillImage" />
        <dc:title />
      </cc:Work>
    </rdf:RDF>
  </metadata>
  <path
     inkscape:connector-curvature="0"
     style="fill:#209efa;fill-opacity:1;fill-rule:evenodd;stroke:none;stroke-width:1px;stroke-linecap:butt;stroke-linejoin:miter;stroke-opacity:1"
     d="m 4.0000153,7.3258166 c -0.55122,0.05512 -1,0.446 -1,1 v 2.0000004 40 H 61.000015 v -35 -1 -2 c 0,-1 -1,-1 -1,-1 h -2 -21 -4 c -2,-4.0000004 -6,-4.0000004 -6,-4.0000004 H 5.0000153 Z"
     id="folderTab-3" />
  <path
     inkscape:connector-curvature="0"
     style="color:#000000;text-decoration:none;text-decoration-line:none;text-decoration-style:solid;text-decoration-color:#000000;white-space:normal;clip-rule:nonzero;display:inline;overflow:visible;visibility:visible;opacity:1;isolation:auto;mix-blend-mode:normal;color-interpolation:sRGB;color-interpolation-filters:linearRGB;solid-color:#000000;solid-opacity:1;fill:#fffbec;fill-opacity:1;fill-rule:nonzero;stroke:none;stroke-width:1;stroke-linecap:butt;stroke-linejoin:miter;stroke-miterlimit:4;stroke-dasharray:none;stroke-dashoffset:0;stroke-opacity:1;color-rendering:auto;image-rendering:auto;shape-rendering:auto;text-rendering:auto;enable-background:accumulate"
     d="M 7.0000153,14.325817 H 57.000015 v 32 H 7.0000153 Z"
     id="folderPaper-6" />
  <path
     inkscape:connector-curvature="0"
     style="fill:url(#linearGradient833);fill-opacity:1;fill-rule:evenodd;stroke:none;stroke-width:1px;stroke-linecap:butt;stroke-linejoin:miter;stroke-opacity:1"
     d="m 39.000015,16.325813 c 0,0 -4,0 -6,4 h -4 -24.9999997 -2 c 0,0 -0.1319813,0.01691 -0.2890625,0.05859 -0.045956,0.01404 -0.091922,0.02277 -0.1347656,0.04297 -0.2742277,0.109838 -0.5761719,0.34321 -0.5761719,0.89844 v 2 1 34 c 0,0.55397 0.44603,1 1,1 H 62.000015 c 0.55397,0 1,-0.44603 1,-1 v -39 -2 c 0,-0.55397 -0.44603,-1 -1,-1 h -1 z"
     id="folderFront-2" />
  <g
     id="g973">
    <path
       id="path8-15-6-5"
       d="m 32.000022,38.957946 c -1.781347,0 -3.462938,0.901825 -4.613429,2.474034 -0.356967,0.487436 -0.302038,1.214732 0.123231,1.624498 0.188154,0.181422 0.417181,0.270605 0.64556,0.270605 0.286616,0 0.571255,-0.139904 0.769474,-0.411293 0.768144,-1.049446 1.889157,-1.651447 3.075164,-1.651447 1.186008,0 2.307056,0.602001 3.075164,1.651447 0.198902,0.272173 0.483505,0.411293 0.769474,0.411293 0.22838,0 0.457407,-0.0884 0.64556,-0.270605 0.425269,-0.409808 0.480162,-1.137103 0.123231,-1.624498 -1.150526,-1.572209 -2.832117,-2.474034 -4.613429,-2.474034 z"
       style="fill:#e3f9f9;fill-opacity:1;stroke-width:0.01524753"
       inkscape:connector-curvature="0" />
    <path
       id="path8-4-43-2-6"
       d="m 31.999669,33.884722 c -2.967355,0 -5.769312,1.503 -7.688593,4.123913 -0.356931,0.487436 -0.302038,1.214731 0.123231,1.624498 0.188153,0.181421 0.41718,0.270646 0.64556,0.270646 0.286616,0 0.571255,-0.139945 0.769474,-0.411335 1.535569,-2.098067 3.777666,-3.301284 6.150364,-3.301284 2.372697,0 4.614759,1.203217 6.151011,3.301284 0.198902,0.272174 0.483505,0.411335 0.769438,0.411335 0.22838,0 0.457406,-0.08844 0.645596,-0.270646 0.425233,-0.409767 0.480126,-1.137805 0.123231,-1.624498 -1.920001,-2.620872 -4.721957,-4.123913 -7.689312,-4.123913 z"
       style="fill:#e3f9f9;fill-opacity:1;stroke-width:0.01524753"
       inkscape:connector-curvature="0" />
    <path
       id="path8-8-0-9-2"
       d="m 42.764451,34.774577 c -2.686742,-3.670318 -6.610431,-5.774576 -10.76444,-5.774576 -4.154009,0 -8.077051,2.104258 -10.764476,5.774576 -0.356967,0.487437 -0.302038,1.214732 0.123231,1.624498 0.188153,0.181422 0.416533,0.270647 0.644877,0.270647 0.286616,0 0.571255,-0.139945 0.770121,-0.411335 2.303713,-3.14673 5.666859,-4.951906 9.226211,-4.951906 3.559352,0 6.922498,1.805176 9.226175,4.951163 0.198902,0.27139 0.483505,0.411335 0.770157,0.411335 0.22838,0 0.457407,-0.08844 0.64556,-0.270646 0.424585,-0.409065 0.47955,-1.137104 0.122584,-1.623756 z"
       style="fill:#e3f9f9;fill-opacity:1;stroke-width:0.01524753"
       inkscape:connector-curvature="0" />
    <path
       id="path8-1-37-1-9"
       d="m 30.000015,44.931426 c 0,1.141867 0.896022,2.068576 2,2.068576 1.103977,0 1.999999,-0.926709 1.999999,-2.068576 -0.337882,-2.936067 -3.935654,-2.187328 -3.999999,0 z"
       style="fill:#e3f9f9;fill-opacity:1;stroke-width:0.01524753"
       inkscape:connector-curvature="0" />
  </g>
</svg>
