<?xml version="1.0" encoding="UTF-8"?>
<svg id="svg5453" version="1.1" viewBox="0 0 64 64" xmlns="http://www.w3.org/2000/svg">
 <defs id="defs5455">
  <linearGradient id="linearGradient833" x1="32.010437" x2="31.962496" y1="57.89262" y2="15.119835" gradientTransform="translate(0,-3.8146973e-6)" gradientUnits="userSpaceOnUse">
   <stop id="stop827" style="stop-color:#20bcfa" offset="0"/>
   <stop id="stop829" style="stop-color:#46c7fc" offset="1"/>
  </linearGradient>
  <style id="current-color-scheme" type="text/css">.ColorScheme-Text {
        color:#4d4d4d;
      }</style>
 </defs>
 <path id="folderTab-3" d="m4 6c-0.55122 0.05512-1 0.446-1 1v42h58v-38c0-1-1-1-1-1h-27c-2-4-6-4-6-4h-22z" style="fill-rule:evenodd;fill:#209efa"/>
 <path id="folderPaper-6" d="m7 13h50v32h-50z" style="color-rendering:auto;color:#000000;fill:#fffbec;image-rendering:auto;isolation:auto;mix-blend-mode:normal;shape-rendering:auto;solid-color:#000000;text-decoration-color:#000000;text-decoration-line:none;text-decoration-style:solid;white-space:normal"/>
 <path id="folderFront-2" d="m39 14.999996s-4 0-6 4h-31s-0.1319813 0.01691-0.2890625 0.05859c-0.045956 0.01404-0.091922 0.02277-0.1347656 0.04297-0.2742277 0.109838-0.5761719 0.34321-0.5761719 0.89844v37c0 0.55397 0.44603 1 1 1h60c0.55397 0 1-0.44603 1-1v-41c0-0.55397-0.44603-1-1-1h-1z" style="fill-rule:evenodd;fill:url(#linearGradient833)"/>
 <path id="path7078-3" d="m26.20378 30.009004c-0.333213 0.0014-0.716425 0.09428-1.10809 0.310541-1.426416 0.775775-2.73898 3.316214-3.452191 6.610001-0.607965 2.797915-0.83125 6.623915-0.468802 8.162772 0.315669 1.322642 0.862202 1.907679 1.832589 1.907679 1.438103-0.02541 3.244015-1.678268 4.389796-3.903937 0.828705-1.232038 2.750667-1.792261 4.602918-1.730224 1.852113-0.06685 3.774076 0.498112 4.602918 1.730224 1.14578 2.225669 2.951693 3.878526 4.389798 3.903937 0.970413 0 1.516888-0.584967 1.832587-1.907679 0.362448-1.538857 0.139165-5.364857-0.468804-8.162772-0.713193-3.293928-2.025773-5.834326-3.452189-6.610001-0.783331-0.432401-1.430267-0.419682-2.003085 0-0.724883 0.534141-2.235461 1.1067-4.901157 1.109072-2.665695 0.0028-4.176258-0.574931-4.901154-1.109072-0.286438-0.209849-0.561781-0.312131-0.894994-0.310541zm0.340957 4.258839h1.363798v1.419613h1.363814v1.419612h-1.363814v1.419614h-1.363798v-1.419614h-1.363811v-1.419612h1.363811zm10.228558 0c0.37661 0 0.681897 0.317793 0.681897 0.709806 0 0.392011-0.305287 0.709807-0.681897 0.709807-0.376612 0-0.681901-0.317796-0.681901-0.709807 0-0.392013 0.305289-0.709806 0.681901-0.709806zm-1.363813 1.419613c0.37661 0 0.681912 0.317794 0.681912 0.709807 0 0.392011-0.305302 0.709805-0.681912 0.709805-0.376597 0-0.681898-0.317794-0.681898-0.709805 0-0.392013 0.305301-0.709807 0.681898-0.709807zm2.727569 0c0.376597 0 0.681901 0.317794 0.681901 0.709807 0 0.392011-0.305304 0.709805-0.681901 0.709805-0.376609 0-0.681912-0.317794-0.681912-0.709805 0-0.392013 0.305303-0.709807 0.681912-0.709807zm-1.363813 1.419612c0.376611 0 0.681901 0.317795 0.681901 0.709807s-0.30529 0.709807-0.681901 0.709807c-0.376609 0-0.681897-0.317795-0.681897-0.709807s0.305288-0.709807 0.681897-0.709807z" style="fill:#f9f9f9;stroke-width:.96825761"/>
</svg>
