<?xml version="1.0" encoding="UTF-8"?>
<svg id="svg5453" version="1.1" viewBox="0 0 64 64" xmlns="http://www.w3.org/2000/svg">
 <defs id="defs5455">
  <linearGradient id="linearGradient833" x1="32.010437" x2="31.962496" y1="57.89262" y2="15.119835" gradientTransform="translate(0,-3.8146973e-6)" gradientUnits="userSpaceOnUse">
   <stop id="stop827" style="stop-color:#20bcfa" offset="0"/>
   <stop id="stop829" style="stop-color:#46c7fc" offset="1"/>
  </linearGradient>
  <style id="current-color-scheme" type="text/css">.ColorScheme-Text {
        color:#4d4d4d;
      }</style>
 </defs>
 <path id="folderTab-3" d="m4 6c-0.55122 0.05512-1 0.446-1 1v42h58v-38c0-1-1-1-1-1h-27c-2-4-6-4-6-4h-22z" style="fill-rule:evenodd;fill:#209efa"/>
 <path id="folderPaper-6" d="m7 13h50v32h-50z" style="color-rendering:auto;color:#000000;fill:#fffbec;image-rendering:auto;isolation:auto;mix-blend-mode:normal;shape-rendering:auto;solid-color:#000000;text-decoration-color:#000000;text-decoration-line:none;text-decoration-style:solid;white-space:normal"/>
 <path id="folderFront-2" d="m39 14.999996s-4 0-6 4h-31s-0.1319813 0.01691-0.2890625 0.05859c-0.045956 0.01404-0.091922 0.02277-0.1347656 0.04297-0.2742277 0.109838-0.5761719 0.34321-0.5761719 0.89844v37c0 0.55397 0.44603 1 1 1h60c0.55397 0 1-0.44603 1-1v-41c0-0.55397-0.44603-1-1-1h-1z" style="fill-rule:evenodd;fill:url(#linearGradient833)"/>
 <path id="path4" class="ColorScheme-Text" d="m34.193536 28.03604c-0.08742 0.04951-0.158842 0.1446-0.195538 0.265906l-5.590375 18.455997c-0.07655 0.252532 0.0069 0.543944 0.188017 0.650771l0.937578 0.552806c0.04422 0.02623 0.09072 0.03848 0.13788 0.03848 0.04544 0 0.09248-0.01076 0.135372-0.03498 0.08742-0.04951 0.156233-0.14811 0.19303-0.269404l5.590376-18.4525c0.07644-0.252531-0.0071-0.543941-0.188017-0.650772l-0.937579-0.552804c-0.08681-0.05136-0.183223-0.05285-0.270744-0.0035zm-6.485337 3.414797c-0.0901-0.01815-0.187053 0.01222-0.26573 0.09445l-5.299575 5.531553c-0.08975 0.09363-0.142892 0.242231-0.142892 0.398859 0 0.156618 0.05314 0.305223 0.142892 0.398858l5.299575 5.531551c0.06385 0.06681 0.138982 0.101469 0.213086 0.101469 0.108356 0 0.215951-0.06906 0.285786-0.19943l0.609175-1.137101c0.05652-0.105685 0.08111-0.23699 0.06768-0.367371-0.01352-0.130375-0.06485-0.250003-0.140386-0.328881l-3.830532-3.99909 3.830535-3.999092c0.07553-0.07888 0.126863-0.195007 0.140385-0.325386 0.01341-0.130376-0.01104-0.265173-0.06769-0.370869l-0.609175-1.1336c-0.05891-0.109804-0.14304-0.177793-0.233141-0.195931zm8.583607 0c-0.09009 0.01815-0.176792 0.0862-0.235647 0.195932l-0.609177 1.133599c-0.05652 0.105539-0.08111 0.240489-0.06768 0.37087 0.01352 0.130232 0.06476 0.246503 0.140387 0.325386l3.833041 3.999091-3.833041 3.999092c-0.07563 0.07888-0.126865 0.198644-0.140387 0.328881-0.01341 0.130376 0.01104 0.26182 0.06768 0.367371l0.609177 1.137102c0.06994 0.130374 0.177424 0.199428 0.285785 0.199428 0.0741 0 0.149148-0.03478 0.213086-0.101468l5.302078-5.531552c0.0897-0.09363 0.14289-0.242233 0.14289-0.398859 0-0.156619-0.0532-0.305223-0.14289-0.398859l-5.302078-5.531552c-0.07868-0.08216-0.173136-0.112604-0.263224-0.09445z" style="color:#4d4d4d;fill:#f9f9f9"/>
</svg>
