<?xml version="1.0" encoding="UTF-8"?>
<svg version="1.1" viewBox="0 0 64 64" xmlns="http://www.w3.org/2000/svg">
 <defs>
  <linearGradient id="linearGradient833" x1="32.010437" x2="31.962496" y1="57.89262" y2="15.119835" gradientTransform="translate(0,-1.8e-6)" gradientUnits="userSpaceOnUse">
   <stop style="stop-color:#20bcfa" offset="0"/>
   <stop style="stop-color:#46c7fc" offset="1"/>
  </linearGradient>
 </defs>
 <path d="m4 6.000002c-0.55122 0.05512-1 0.446-1 1v42h58v-38c0-1-1-1-1-1h-27c-2-4-6-4-6-4h-22z" style="fill-rule:evenodd;fill:#209efa"/>
 <path d="m7 13.000002h50v32h-50z" style="color-rendering:auto;color:#000000;fill:#fffbec;image-rendering:auto;isolation:auto;mix-blend-mode:normal;shape-rendering:auto;solid-color:#000000;text-decoration-color:#000000;text-decoration-line:none;text-decoration-style:solid;white-space:normal"/>
 <path d="m39 14.999998s-4 0-6 4h-31s-0.1319813 0.01691-0.2890625 0.05859c-0.045956 0.01404-0.091922 0.02277-0.1347656 0.04297-0.2742277 0.109838-0.5761719 0.34321-0.5761719 0.89844v37c0 0.55397 0.44603 1 1 1h60c0.55397 0 1-0.44603 1-1v-41c0-0.55397-0.44603-1-1-1h-1z" style="fill-rule:evenodd;fill:url(#linearGradient833)"/>
 <path d="m26 29.000003a6.0000002 5.5416665 0 0 0-6 5.542284v10.29043c0 1.754335 1.91087 3.167286 4.285157 3.167286 2.374284 0 4.287109-1.412951 4.287109-3.167286v-3.16543h6.855468v3.16543c0 1.754335 1.912825 3.167286 4.28711 3.167286 2.374287 0 4.285156-1.412951 4.285156-3.167286v-10.29043a6.0000002 5.5416665 0 0 0-6-5.542284 6.0000002 5.5416665 0 0 0-4.199218 1.582714h-3.609376a6.0000002 5.5416665 0 0 0-4.191406-1.582714zm-1.285156 3.8h1.71289v1.582716h1.714845v1.584568h-1.714845v1.582716h-1.71289v-1.582716h-1.714844v-1.584568h1.714844zm13.857422 0c0.473396 0 0.857422 0.353207 0.857422 0.790429 0 0.437221-0.384026 0.792287-0.857422 0.792287-0.4734 0-0.857422-0.355066-0.857422-0.792287 0-0.437222 0.384022-0.790429 0.857422-0.790429zm-1.714843 1.582716c0.473389 0 0.857421 0.355059 0.857421 0.792284 0 0.437219-0.384032 0.790429-0.857421 0.790429-0.473375 0-0.857423-0.35321-0.857423-0.790429 0-0.437223 0.384048-0.792284 0.857423-0.792284zm3.429686 0c0.473375 0 0.857423 0.355059 0.857423 0.792284 0 0.437219-0.384048 0.790429-0.857423 0.790429-0.47339 0-0.857421-0.35321-0.857421-0.790429 0-0.437223 0.384031-0.792284 0.857421-0.792284zm-1.714843 1.582713c0.473398 0 0.857422 0.355063 0.857422 0.792285 0 0.437221-0.384024 0.792286-0.857422 0.792286-0.473394 0-0.857422-0.355063-0.857422-0.792286 0-0.437222 0.384028-0.792285 0.857422-0.792285z" style="fill:#f9f9f9;paint-order:fill markers stroke"/>
</svg>
