<?xml version="1.0" encoding="UTF-8" standalone="no"?>
<svg
   xmlns:dc="http://purl.org/dc/elements/1.1/"
   xmlns:cc="http://creativecommons.org/ns#"
   xmlns:rdf="http://www.w3.org/1999/02/22-rdf-syntax-ns#"
   xmlns:svg="http://www.w3.org/2000/svg"
   xmlns="http://www.w3.org/2000/svg"
   xmlns:xlink="http://www.w3.org/1999/xlink"
   xmlns:sodipodi="http://sodipodi.sourceforge.net/DTD/sodipodi-0.dtd"
   xmlns:inkscape="http://www.inkscape.org/namespaces/inkscape"
   viewBox="0 0 64 64"
   version="1.1"
   id="svg5453"
   height="64"
   width="64"
   sodipodi:docname="folder-mail.svg"
   inkscape:version="0.92.4 (unknown)">
  <sodipodi:namedview
     pagecolor="#ffffff"
     bordercolor="#666666"
     borderopacity="1"
     objecttolerance="10"
     gridtolerance="10"
     guidetolerance="10"
     inkscape:pageopacity="0"
     inkscape:pageshadow="2"
     inkscape:window-width="1366"
     inkscape:window-height="711"
     id="namedview14"
     showgrid="false"
     inkscape:zoom="3.6875"
     inkscape:cx="32"
     inkscape:cy="32"
     inkscape:window-x="0"
     inkscape:window-y="0"
     inkscape:window-maximized="1"
     inkscape:current-layer="svg5453" />
  <defs
     id="defs5455">
    <linearGradient
       id="linearGradient831">
      <stop
         style="stop-color:#20bcfa;stop-opacity:1;"
         offset="0"
         id="stop827" />
      <stop
         style="stop-color:#46c7fc;stop-opacity:1"
         offset="1"
         id="stop829" />
    </linearGradient>
    <linearGradient
       xlink:href="#linearGradient831"
       id="linearGradient833"
       x1="32.010437"
       y1="57.89262"
       x2="31.962496"
       y2="15.119835"
       gradientUnits="userSpaceOnUse"
       gradientTransform="translate(0,-3.8146973e-6)" />
  </defs>
  <metadata
     id="metadata5458">
    <rdf:RDF>
      <cc:Work
         rdf:about="">
        <dc:format>image/svg+xml</dc:format>
        <dc:type
           rdf:resource="http://purl.org/dc/dcmitype/StillImage" />
        <dc:title />
      </cc:Work>
    </rdf:RDF>
  </metadata>
  <path
     style="fill:#209efa;fill-opacity:1;fill-rule:evenodd;stroke:none;stroke-width:1px;stroke-linecap:butt;stroke-linejoin:miter;stroke-opacity:1"
     d="M 4,6 C 3.44878,6.05512 3,6.446 3,7 V 9 49 H 61 V 14 13 11 c 0,-1 -1,-1 -1,-1 H 58 37 33 C 31,6 27,6 27,6 H 5 Z"
     id="folderTab-3" />
  <path
     style="color:#000000;text-decoration:none;text-decoration-line:none;text-decoration-style:solid;text-decoration-color:#000000;white-space:normal;clip-rule:nonzero;display:inline;overflow:visible;visibility:visible;opacity:1;isolation:auto;mix-blend-mode:normal;color-interpolation:sRGB;color-interpolation-filters:linearRGB;solid-color:#000000;solid-opacity:1;fill:#fffbec;fill-opacity:1;fill-rule:nonzero;stroke:none;stroke-width:1;stroke-linecap:butt;stroke-linejoin:miter;stroke-miterlimit:4;stroke-dasharray:none;stroke-dashoffset:0;stroke-opacity:1;color-rendering:auto;image-rendering:auto;shape-rendering:auto;text-rendering:auto;enable-background:accumulate"
     d="M 7,13 H 57 V 45 H 7 Z"
     id="folderPaper-6" />
  <path
     style="fill:url(#linearGradient833);fill-opacity:1;fill-rule:evenodd;stroke:none;stroke-width:1px;stroke-linecap:butt;stroke-linejoin:miter;stroke-opacity:1"
     d="m 39,14.999996 c 0,0 -4,0 -6,4 H 29 4 2 c 0,0 -0.1319813,0.01691 -0.2890625,0.05859 -0.045956,0.01404 -0.091922,0.02277 -0.1347656,0.04297 C 1.3019442,19.211394 1,19.444766 1,19.999996 v 2 1 34 c 0,0.55397 0.44603,1 1,1 h 60 c 0.55397,0 1,-0.44603 1,-1 v -39 -2 c 0,-0.55397 -0.44603,-1 -1,-1 h -1 z"
     id="folderFront-2" />
  <path
     d="m 32.056415,26 q 4.625627,0 7.784613,3.220207 Q 43,32.440415 43,36.999992 q 0,2.564775 -1.10001,4.24612 -1.071781,1.681346 -3.13076,1.681346 -2.115384,0 -3.158972,-2.080311 -1.382055,2.080311 -3.94872,2.080311 -2.31283,0 -3.892315,-1.624353 -1.579486,-1.652845 -1.579486,-4.189115 0,-2.507768 1.579485,-4.160626 1.579486,-1.652843 3.779487,-1.652843 2.171807,0 3.610267,1.681346 h 0.112814 v -1.28238 h 2.030766 v 7.437824 q 0,0.740928 0.394875,1.339371 0.423071,0.598442 1.269228,0.598442 2.00257,0 2.00257,-4.075132 0,-3.761644 -2.594876,-6.354906 -2.594876,-2.593261 -6.317941,-2.593261 -3.72308,0 -6.317956,2.593261 -2.594861,2.593262 -2.594861,6.354906 0,3.761659 2.594862,6.354921 2.594876,2.593263 6.317956,2.593263 2.002556,0 3.582041,-0.79792 l 0.789751,1.937813 Q 34.453845,48 32.056413,48 27.374363,48 24.187182,44.808282 21,41.588072 21,36.999993 21,32.440416 24.187182,29.220208 27.40256,26.000001 32.056415,26 Z m -2.623088,13.764242 q 1.015391,0.997409 2.425642,0.997409 1.410266,0 2.397446,-0.997409 1.015376,-0.99741 1.015376,-2.650253 0,-1.652843 -1.015376,-2.650252 -0.98718,-0.99741 -2.397446,-0.99741 -1.410251,0 -2.425642,0.99741 -0.98718,0.997409 -0.98718,2.650252 0,1.652843 0.98718,2.650253 z"
     style="font-style:normal;font-variant:normal;font-weight:normal;font-stretch:normal;font-size:18.52626991px;line-height:125%;font-family:'Product Sans';-inkscape-font-specification:'Product Sans';letter-spacing:0px;word-spacing:0px;fill:#e3f9f9;fill-opacity:1;stroke:none;stroke-width:0.12897822px;stroke-linecap:butt;stroke-linejoin:miter;stroke-opacity:1"
     id="path4252"
     inkscape:connector-curvature="0" />
</svg>
