<?xml version="1.0" encoding="UTF-8"?>
<svg id="svg5453" version="1.1" viewBox="0 0 64 64" xmlns="http://www.w3.org/2000/svg">
 <defs id="defs5455">
  <linearGradient id="linearGradient833-5" x1="32.010437" x2="31.962496" y1="57.89262" y2="15.119835" gradientTransform="translate(0,-1.8e-6)" gradientUnits="userSpaceOnUse">
   <stop id="stop827-3" style="stop-color:#20bcfa" offset="0"/>
   <stop id="stop829-5" style="stop-color:#46c7fc" offset="1"/>
  </linearGradient>
 </defs>
 <path id="folderTab-3" d="m4 6.000002c-0.55122 0.05512-1 0.446-1 1v42h58v-38c0-1-1-1-1-1h-27c-2-4-6-4-6-4h-22z" style="fill-rule:evenodd;fill:#209efa"/>
 <path id="folderPaper-6" d="m7 13.000002h50v32h-50z" style="color-rendering:auto;color:#000000;fill:#fffbec;image-rendering:auto;isolation:auto;mix-blend-mode:normal;shape-rendering:auto;solid-color:#000000;text-decoration-color:#000000;text-decoration-line:none;text-decoration-style:solid;white-space:normal"/>
 <path id="folderFront-2" d="m39 14.999998s-4 0-6 4h-31s-0.1319813 0.01691-0.2890625 0.05859c-0.045956 0.01404-0.091922 0.02277-0.1347656 0.04297-0.2742277 0.109838-0.5761719 0.34321-0.5761719 0.89844v37c0 0.55397 0.44603 1 1 1h60c0.55397 0 1-0.44603 1-1v-41c0-0.55397-0.44603-1-1-1h-1z" style="fill-rule:evenodd;fill:url(#linearGradient833-5)"/>
 <path id="path850" d="m22 27.000003v19.999999h20v-19.999999zm1.428571 1.428571h17.142857v7.101005l-2.80971-2.815291-7.20145 7.220984-2.882254-2.887837-4.249443 4.260603zm3.571428 1.428572c-1.187142 0-2.142857 0.955715-2.142857 2.142858 0 1.187142 0.955715 2.142856 2.142857 2.142856 1.187143 0 2.142858-0.955714 2.142858-2.142856 0-1.187143-0.955715-2.142858-2.142858-2.142858z" style="color-rendering:auto;color:#000000;fill:#f9f9f9;image-rendering:auto;isolation:auto;mix-blend-mode:normal;shape-rendering:auto;solid-color:#000000"/>
</svg>
