<?xml version="1.0" encoding="UTF-8"?>
<svg id="svg5453" version="1.1" viewBox="0 0 64 64" xmlns="http://www.w3.org/2000/svg">
 <defs id="defs5455">
  <linearGradient id="linearGradient833" x1="32.010437" x2="31.962496" y1="57.89262" y2="15.119835" gradientTransform="translate(0,-3.8146973e-6)" gradientUnits="userSpaceOnUse">
   <stop id="stop827" style="stop-color:#20bcfa" offset="0"/>
   <stop id="stop829" style="stop-color:#46c7fc" offset="1"/>
  </linearGradient>
 </defs>
 <path id="folderTab-3" d="m4 6c-0.55122 0.05512-1 0.446-1 1v42h58v-38c0-1-1-1-1-1h-27c-2-4-6-4-6-4h-22z" style="fill-rule:evenodd;fill:#209efa"/>
 <path id="folderPaper-6" d="m7 13h50v32h-50z" style="color-rendering:auto;color:#000000;fill:#fffbec;image-rendering:auto;isolation:auto;mix-blend-mode:normal;shape-rendering:auto;solid-color:#000000;text-decoration-color:#000000;text-decoration-line:none;text-decoration-style:solid;white-space:normal"/>
 <path id="folderFront-2" d="m39 14.999996s-4 0-6 4h-31s-0.1319813 0.01691-0.2890625 0.05859c-0.045956 0.01404-0.091922 0.02277-0.1347656 0.04297-0.2742277 0.109838-0.5761719 0.34321-0.5761719 0.89844v37c0 0.55397 0.44603 1 1 1h60c0.55397 0 1-0.44603 1-1v-41c0-0.55397-0.44603-1-1-1h-1z" style="fill-rule:evenodd;fill:url(#linearGradient833)"/>
 <path id="path4252" d="m32.056415 26q4.625627 0 7.784613 3.220207 3.158972 3.220208 3.158972 7.779785 0 2.564775-1.10001 4.24612-1.071781 1.681346-3.13076 1.681346-2.115384 0-3.158972-2.080311-1.382055 2.080311-3.94872 2.080311-2.31283 0-3.892315-1.624353-1.579486-1.652845-1.579486-4.189115 0-2.507768 1.579485-4.160626 1.579486-1.652843 3.779487-1.652843 2.171807 0 3.610267 1.681346h0.112814v-1.28238h2.030766v7.437824q0 0.740928 0.394875 1.339371 0.423071 0.598442 1.269228 0.598442 2.00257 0 2.00257-4.075132 0-3.761644-2.594876-6.354906-2.594876-2.593261-6.317941-2.593261-3.72308 0-6.317956 2.593261-2.594861 2.593262-2.594861 6.354906 0 3.761659 2.594862 6.354921 2.594876 2.593263 6.317956 2.593263 2.002556 0 3.582041-0.79792l0.789751 1.937813q-1.97436 0.911931-4.371792 0.911931-4.68205 0-7.869231-3.191718-3.187182-3.22021-3.187182-7.808289 0-4.559577 3.187182-7.779785 3.215378-3.220207 7.869233-3.220208zm-2.623088 13.764242q1.015391 0.997409 2.425642 0.997409 1.410266 0 2.397446-0.997409 1.015376-0.99741 1.015376-2.650253t-1.015376-2.650252q-0.98718-0.99741-2.397446-0.99741-1.410251 0-2.425642 0.99741-0.98718 0.997409-0.98718 2.650252t0.98718 2.650253z" style="fill:#f9f9f9"/>
</svg>
