<?xml version="1.0" encoding="UTF-8" standalone="no"?>
<svg
   xmlns:dc="http://purl.org/dc/elements/1.1/"
   xmlns:cc="http://creativecommons.org/ns#"
   xmlns:rdf="http://www.w3.org/1999/02/22-rdf-syntax-ns#"
   xmlns:svg="http://www.w3.org/2000/svg"
   xmlns="http://www.w3.org/2000/svg"
   xmlns:xlink="http://www.w3.org/1999/xlink"
   xmlns:sodipodi="http://sodipodi.sourceforge.net/DTD/sodipodi-0.dtd"
   xmlns:inkscape="http://www.inkscape.org/namespaces/inkscape"
   viewBox="0 0 64 64"
   version="1.1"
   id="svg5453"
   height="64"
   width="64"
   sodipodi:docname="folder-games.svg"
   inkscape:version="0.92.4 (unknown)">
  <sodipodi:namedview
     pagecolor="#ffffff"
     bordercolor="#666666"
     borderopacity="1"
     objecttolerance="10"
     gridtolerance="10"
     guidetolerance="10"
     inkscape:pageopacity="0"
     inkscape:pageshadow="2"
     inkscape:window-width="1366"
     inkscape:window-height="711"
     id="namedview15"
     showgrid="false"
     inkscape:zoom="3.6875"
     inkscape:cx="32"
     inkscape:cy="32"
     inkscape:window-x="0"
     inkscape:window-y="0"
     inkscape:window-maximized="1"
     inkscape:current-layer="svg5453" />
  <defs
     id="defs5455">
    <linearGradient
       id="linearGradient831">
      <stop
         style="stop-color:#20bcfa;stop-opacity:1;"
         offset="0"
         id="stop827" />
      <stop
         style="stop-color:#46c7fc;stop-opacity:1"
         offset="1"
         id="stop829" />
    </linearGradient>
    <linearGradient
       xlink:href="#linearGradient831"
       id="linearGradient833"
       x1="32.010437"
       y1="57.89262"
       x2="31.962496"
       y2="15.119835"
       gradientUnits="userSpaceOnUse"
       gradientTransform="translate(0,-3.8146973e-6)" />
    <style
       id="current-color-scheme"
       type="text/css">
      .ColorScheme-Text {
        color:#4d4d4d;
      }
      </style>
  </defs>
  <metadata
     id="metadata5458">
    <rdf:RDF>
      <cc:Work
         rdf:about="">
        <dc:format>image/svg+xml</dc:format>
        <dc:type
           rdf:resource="http://purl.org/dc/dcmitype/StillImage" />
        <dc:title />
      </cc:Work>
    </rdf:RDF>
  </metadata>
  <path
     style="fill:#209efa;fill-opacity:1;fill-rule:evenodd;stroke:none;stroke-width:1px;stroke-linecap:butt;stroke-linejoin:miter;stroke-opacity:1"
     d="M 4,6 C 3.44878,6.05512 3,6.446 3,7 V 9 49 H 61 V 14 13 11 c 0,-1 -1,-1 -1,-1 H 58 37 33 C 31,6 27,6 27,6 H 5 Z"
     id="folderTab-3" />
  <path
     style="color:#000000;text-decoration:none;text-decoration-line:none;text-decoration-style:solid;text-decoration-color:#000000;white-space:normal;clip-rule:nonzero;display:inline;overflow:visible;visibility:visible;opacity:1;isolation:auto;mix-blend-mode:normal;color-interpolation:sRGB;color-interpolation-filters:linearRGB;solid-color:#000000;solid-opacity:1;fill:#fffbec;fill-opacity:1;fill-rule:nonzero;stroke:none;stroke-width:1;stroke-linecap:butt;stroke-linejoin:miter;stroke-miterlimit:4;stroke-dasharray:none;stroke-dashoffset:0;stroke-opacity:1;color-rendering:auto;image-rendering:auto;shape-rendering:auto;text-rendering:auto;enable-background:accumulate"
     d="M 7,13 H 57 V 45 H 7 Z"
     id="folderPaper-6" />
  <path
     style="fill:url(#linearGradient833);fill-opacity:1;fill-rule:evenodd;stroke:none;stroke-width:1px;stroke-linecap:butt;stroke-linejoin:miter;stroke-opacity:1"
     d="m 39,14.999996 c 0,0 -4,0 -6,4 H 29 4 2 c 0,0 -0.1319813,0.01691 -0.2890625,0.05859 -0.045956,0.01404 -0.091922,0.02277 -0.1347656,0.04297 C 1.3019442,19.211394 1,19.444766 1,19.999996 v 2 1 34 c 0,0.55397 0.44603,1 1,1 h 60 c 0.55397,0 1,-0.44603 1,-1 v -39 -2 c 0,-0.55397 -0.44603,-1 -1,-1 h -1 z"
     id="folderFront-2" />
  <path
     style="opacity:1;fill:#e3f9f9;fill-opacity:1;stroke-width:0.96825761"
     id="path7078-3"
     d="m 26.20378,30.009004 c -0.333213,0.0014 -0.716425,0.09428 -1.10809,0.310541 -1.426416,0.775775 -2.73898,3.316214 -3.452191,6.610001 -0.607965,2.797915 -0.83125,6.623915 -0.468802,8.162772 0.315669,1.322642 0.862202,1.907679 1.832589,1.907679 1.438103,-0.02541 3.244015,-1.678268 4.389796,-3.903937 0.828705,-1.232038 2.750667,-1.792261 4.602918,-1.730224 1.852113,-0.06685 3.774076,0.498112 4.602918,1.730224 1.14578,2.225669 2.951693,3.878526 4.389798,3.903937 0.970413,0 1.516888,-0.584967 1.832587,-1.907679 0.362448,-1.538857 0.139165,-5.364857 -0.468804,-8.162772 -0.713193,-3.293928 -2.025773,-5.834326 -3.452189,-6.610001 -0.783331,-0.432401 -1.430267,-0.419682 -2.003085,0 -0.724883,0.534141 -2.235461,1.1067 -4.901157,1.109072 -2.665695,0.0028 -4.176258,-0.574931 -4.901154,-1.109072 -0.286438,-0.209849 -0.561781,-0.312131 -0.894994,-0.310541 z m 0.340957,4.258839 h 1.363798 v 1.419613 h 1.363814 v 1.419612 h -1.363814 v 1.419614 h -1.363798 v -1.419614 h -1.363811 v -1.419612 h 1.363811 z m 10.228558,0 c 0.37661,0 0.681897,0.317793 0.681897,0.709806 0,0.392011 -0.305287,0.709807 -0.681897,0.709807 -0.376612,0 -0.681901,-0.317796 -0.681901,-0.709807 0,-0.392013 0.305289,-0.709806 0.681901,-0.709806 z m -1.363813,1.419613 c 0.37661,0 0.681912,0.317794 0.681912,0.709807 0,0.392011 -0.305302,0.709805 -0.681912,0.709805 -0.376597,0 -0.681898,-0.317794 -0.681898,-0.709805 0,-0.392013 0.305301,-0.709807 0.681898,-0.709807 z m 2.727569,0 c 0.376597,0 0.681901,0.317794 0.681901,0.709807 0,0.392011 -0.305304,0.709805 -0.681901,0.709805 -0.376609,0 -0.681912,-0.317794 -0.681912,-0.709805 0,-0.392013 0.305303,-0.709807 0.681912,-0.709807 z m -1.363813,1.419612 c 0.376611,0 0.681901,0.317795 0.681901,0.709807 0,0.392012 -0.30529,0.709807 -0.681901,0.709807 -0.376609,0 -0.681897,-0.317795 -0.681897,-0.709807 0,-0.392012 0.305288,-0.709807 0.681897,-0.709807 z"
     inkscape:connector-curvature="0" />
</svg>
