<?xml version="1.0" encoding="UTF-8"?>
<svg id="svg5453" version="1.1" viewBox="0 0 64 64" xmlns="http://www.w3.org/2000/svg">
 <defs id="defs5455">
  <linearGradient id="linearGradient833" x1="32.010437" x2="31.962496" y1="57.89262" y2="15.119835" gradientTransform="translate(0,-3.8146973e-6)" gradientUnits="userSpaceOnUse">
   <stop id="stop827" style="stop-color:#20bcfa" offset="0"/>
   <stop id="stop829" style="stop-color:#46c7fc" offset="1"/>
  </linearGradient>
  <style id="current-color-scheme" type="text/css">.ColorScheme-Text {
        color:#4d4d4d;
      }</style>
 </defs>
 <path id="folderTab-3" d="m4 6c-0.55122 0.05512-1 0.446-1 1v42h58v-38c0-1-1-1-1-1h-27c-2-4-6-4-6-4h-22z" style="fill-rule:evenodd;fill:#209efa"/>
 <path id="folderPaper-6" d="m7 13h50v32h-50z" style="color-rendering:auto;color:#000000;fill:#fffbec;image-rendering:auto;isolation:auto;mix-blend-mode:normal;shape-rendering:auto;solid-color:#000000;text-decoration-color:#000000;text-decoration-line:none;text-decoration-style:solid;white-space:normal"/>
 <path id="folderFront-2" d="m39 14.999996s-4 0-6 4h-31s-0.1319813 0.01691-0.2890625 0.05859c-0.045956 0.01404-0.091922 0.02277-0.1347656 0.04297-0.2742277 0.109838-0.5761719 0.34321-0.5761719 0.89844v37c0 0.55397 0.44603 1 1 1h60c0.55397 0 1-0.44603 1-1v-41c0-0.55397-0.44603-1-1-1h-1z" style="fill-rule:evenodd;fill:url(#linearGradient833)"/>
 <path id="path4" class="ColorScheme-Text" d="m30.095239 28a2.3809524 2.3809524 0 0 0-2.380953 2.380953v1.428571h-3.809523a1.9047618 1.9047618 0 0 0-1.904763 1.904762v3.619791h1.428572c1.428571 0 2.570684 1.142113 2.570684 2.570686 0 1.428571-1.142113 2.570683-2.570684 2.570683h-1.428572v3.619791a1.9047618 1.9047618 0 0 0 1.904763 1.904763h3.619792v-1.428572c0-1.428571 1.142112-2.570684 2.570684-2.570684 1.428571 0 2.570684 1.142113 2.570684 2.570684v1.428572h3.619791a1.9047618 1.9047618 0 0 0 1.904762-1.904763v-3.809523h1.428571a2.3809524 2.3809524 0 0 0 2.380953-2.380951 2.3809524 2.3809524 0 0 0-2.380953-2.380953h-1.428571v-3.809524c0-1.057143-0.857142-1.904762-1.904762-1.904762h-3.809524v-1.428571a2.3809524 2.3809524 0 0 0-2.380951-2.380953z" style="color:#4d4d4d;fill:#f9f9f9"/>
</svg>
