<?xml version="1.0" encoding="UTF-8" standalone="no"?>
<svg
   xmlns:dc="http://purl.org/dc/elements/1.1/"
   xmlns:cc="http://creativecommons.org/ns#"
   xmlns:rdf="http://www.w3.org/1999/02/22-rdf-syntax-ns#"
   xmlns:svg="http://www.w3.org/2000/svg"
   xmlns="http://www.w3.org/2000/svg"
   xmlns:xlink="http://www.w3.org/1999/xlink"
   xmlns:sodipodi="http://sodipodi.sourceforge.net/DTD/sodipodi-0.dtd"
   xmlns:inkscape="http://www.inkscape.org/namespaces/inkscape"
   viewBox="0 0 64 64"
   version="1.1"
   id="svg5453"
   height="64"
   width="64"
   sodipodi:docname="folder-steam.svg"
   inkscape:version="0.92.4 (unknown)">
  <sodipodi:namedview
     pagecolor="#ffffff"
     bordercolor="#666666"
     borderopacity="1"
     objecttolerance="10"
     gridtolerance="10"
     guidetolerance="10"
     inkscape:pageopacity="0"
     inkscape:pageshadow="2"
     inkscape:window-width="1366"
     inkscape:window-height="711"
     id="namedview14"
     showgrid="false"
     inkscape:zoom="3.6875"
     inkscape:cx="32"
     inkscape:cy="32"
     inkscape:window-x="0"
     inkscape:window-y="0"
     inkscape:window-maximized="1"
     inkscape:current-layer="svg5453" />
  <defs
     id="defs5455">
    <linearGradient
       id="linearGradient831">
      <stop
         style="stop-color:#20bcfa;stop-opacity:1;"
         offset="0"
         id="stop827" />
      <stop
         style="stop-color:#46c7fc;stop-opacity:1"
         offset="1"
         id="stop829" />
    </linearGradient>
    <linearGradient
       xlink:href="#linearGradient831"
       id="linearGradient833"
       x1="32.010437"
       y1="57.89262"
       x2="31.962496"
       y2="15.119835"
       gradientUnits="userSpaceOnUse"
       gradientTransform="translate(0,-3.8146973e-6)" />
    <style
       type="text/css"
       id="current-color-scheme">
      .ColorScheme-Text {
        color:#4d4d4d;
      }
      </style>
  </defs>
  <metadata
     id="metadata5458">
    <rdf:RDF>
      <cc:Work
         rdf:about="">
        <dc:format>image/svg+xml</dc:format>
        <dc:type
           rdf:resource="http://purl.org/dc/dcmitype/StillImage" />
        <dc:title />
      </cc:Work>
    </rdf:RDF>
  </metadata>
  <path
     style="fill:#209efa;fill-opacity:1;fill-rule:evenodd;stroke:none;stroke-width:1px;stroke-linecap:butt;stroke-linejoin:miter;stroke-opacity:1"
     d="M 4,6 C 3.44878,6.05512 3,6.446 3,7 V 9 49 H 61 V 14 13 11 c 0,-1 -1,-1 -1,-1 H 58 37 33 C 31,6 27,6 27,6 H 5 Z"
     id="folderTab-3" />
  <path
     style="color:#000000;text-decoration:none;text-decoration-line:none;text-decoration-style:solid;text-decoration-color:#000000;white-space:normal;clip-rule:nonzero;display:inline;overflow:visible;visibility:visible;opacity:1;isolation:auto;mix-blend-mode:normal;color-interpolation:sRGB;color-interpolation-filters:linearRGB;solid-color:#000000;solid-opacity:1;fill:#fffbec;fill-opacity:1;fill-rule:nonzero;stroke:none;stroke-width:1;stroke-linecap:butt;stroke-linejoin:miter;stroke-miterlimit:4;stroke-dasharray:none;stroke-dashoffset:0;stroke-opacity:1;color-rendering:auto;image-rendering:auto;shape-rendering:auto;text-rendering:auto;enable-background:accumulate"
     d="M 7,13 H 57 V 45 H 7 Z"
     id="folderPaper-6" />
  <path
     style="fill:url(#linearGradient833);fill-opacity:1;fill-rule:evenodd;stroke:none;stroke-width:1px;stroke-linecap:butt;stroke-linejoin:miter;stroke-opacity:1"
     d="m 39,14.999996 c 0,0 -4,0 -6,4 H 29 4 2 c 0,0 -0.1319813,0.01691 -0.2890625,0.05859 -0.045956,0.01404 -0.091922,0.02277 -0.1347656,0.04297 C 1.3019442,19.211394 1,19.444766 1,19.999996 v 2 1 34 c 0,0.55397 0.44603,1 1,1 h 60 c 0.55397,0 1,-0.44603 1,-1 v -39 -2 c 0,-0.55397 -0.44603,-1 -1,-1 h -1 z"
     id="folderFront-2" />
  <path
     id="path14135"
     d="m 38.221926,30.000083 c -2.623292,0 -4.752303,2.101937 -4.776102,4.701171 l -2.976218,4.234368 c -0.121242,-0.01204 -0.245322,-0.01765 -0.369816,-0.01765 -0.665114,0 -1.287616,0.179295 -1.821528,0.496092 L 21,36.861328 l 0.224253,4.435548 5.391814,1.914065 C 26.964885,44.802831 28.394488,46 30.09979,46 c 1.847118,0 3.372109,-1.406088 3.548643,-3.195315 l 4.573493,-3.322259 C 40.859467,39.482426 43,37.364194 43,34.746103 43,32.126532 40.859699,30 38.221926,30 Z m 0,1.562504 c 1.767231,0 3.204397,1.4289 3.204397,3.18359 0,1.754766 -1.437166,3.17383 -3.204397,3.17383 -1.767232,0 -3.202425,-1.419064 -3.202425,-3.17383 0,-1.75469 1.435193,-3.18359 3.202425,-3.18359 z m 0.01379,0.624992 c -1.412331,0 -2.557223,1.140607 -2.557223,2.542966 0,1.402312 1.144892,2.541021 2.557223,2.541021 1.412391,0 2.559195,-1.138709 2.559195,-2.541021 0,-1.402359 -1.146804,-2.542966 -2.559195,-2.542966 z m -8.135904,7.667969 c 1.453845,0 2.622132,1.159947 2.622132,2.603522 -1e-5,1.443488 -1.168287,2.603511 -2.622132,2.603511 -1.011283,0 -1.883165,-0.559086 -2.321176,-1.386718 0.431293,0.172808 0.861609,0.343576 1.292379,0.517579 1.068962,0.426525 2.286872,-0.08688 2.716564,-1.148433 0.429672,-1.061354 -0.09145,-2.266918 -1.160583,-2.693368 l -1.093708,-0.433593 c 0.182013,-0.03898 0.372213,-0.06251 0.566524,-0.06251 z"
     style="color:#000000;display:inline;overflow:visible;visibility:visible;fill:#e3f9f9;fill-opacity:1;fill-rule:nonzero;stroke:none;stroke-width:2.28616834;stroke-miterlimit:4;stroke-dasharray:none;stroke-opacity:0.90366971;marker:none;enable-background:accumulate"
     inkscape:connector-curvature="0" />
</svg>
