<?xml version="1.0" encoding="UTF-8"?>
<svg id="svg5453" version="1.1" viewBox="0 0 64 64" xmlns="http://www.w3.org/2000/svg">
 <defs id="defs5455">
  <linearGradient id="linearGradient833" x1="32.010437" x2="31.962496" y1="57.89262" y2="15.119835" gradientTransform="translate(0,-3.8146973e-6)" gradientUnits="userSpaceOnUse">
   <stop id="stop827" style="stop-color:#20bcfa" offset="0"/>
   <stop id="stop829" style="stop-color:#46c7fc" offset="1"/>
  </linearGradient>
  <style id="current-color-scheme" type="text/css">.ColorScheme-Text {
        color:#4d4d4d;
      }</style>
 </defs>
 <path id="folderTab-3" d="m4 6c-0.55122 0.05512-1 0.446-1 1v42h58v-38c0-1-1-1-1-1h-27c-2-4-6-4-6-4h-22z" style="fill-rule:evenodd;fill:#209efa"/>
 <path id="folderPaper-6" d="m7 13h50v32h-50z" style="color-rendering:auto;color:#000000;fill:#fffbec;image-rendering:auto;isolation:auto;mix-blend-mode:normal;shape-rendering:auto;solid-color:#000000;text-decoration-color:#000000;text-decoration-line:none;text-decoration-style:solid;white-space:normal"/>
 <path id="folderFront-2" d="m39 14.999996s-4 0-6 4h-31s-0.1319813 0.01691-0.2890625 0.05859c-0.045956 0.01404-0.091922 0.02277-0.1347656 0.04297-0.2742277 0.109838-0.5761719 0.34321-0.5761719 0.89844v37c0 0.55397 0.44603 1 1 1h60c0.55397 0 1-0.44603 1-1v-41c0-0.55397-0.44603-1-1-1h-1z" style="fill-rule:evenodd;fill:url(#linearGradient833)"/>
 <path id="circle4175" d="m26.666667 26a2.6666671 2.7500002 0 0 0-2.666667 2.750001 2.6666671 2.7500002 0 0 0 1.777778 2.588867v11.322265a2.6666671 2.7500002 0 0 0-1.777778 2.58887 2.6666671 2.7500002 0 0 0 2.666667 2.749997 2.6666671 2.7500002 0 0 0 2.666667-2.749997 2.6666671 2.7500002 0 0 0-1.704862-2.563803c0.338841-2.187664 2.151795-3.852864 4.37153-3.852864 3.186408 0 5.768941-2.454864 6.145831-5.632488a2.6666671 2.7500002 0 0 0 1.854167-2.617513 2.6666671 2.7500002 0 0 0-2.666664-2.750002 2.6666671 2.7500002 0 0 0-2.666667 2.750002 2.6666671 2.7500002 0 0 0 1.70486 2.563802c-0.338839 2.187669-2.151794 3.852866-4.371527 3.852866-1.747632 0-3.316328 0.741467-4.444446 1.930012v-7.591147a2.6666671 2.7500002 0 0 0 1.777778-2.588867 2.6666671 2.7500002 0 0 0-2.666667-2.750001zm0 1.833333a0.88888908 0.91666679 0 0 1 0.888889 0.916668 0.88888908 0.91666679 0 0 1-0.888889 0.916667 0.88888908 0.91666679 0 0 1-0.888889-0.916667 0.88888908 0.91666679 0 0 1 0.888889-0.916668zm10.666669 1.833335a0.88888908 0.91666679 0 0 1 0.888888 0.916667 0.88888908 0.91666679 0 0 1-0.888888 0.916666 0.88888908 0.91666679 0 0 1-0.888892-0.916666 0.88888908 0.91666679 0 0 1 0.888892-0.916667zm-10.666669 14.666664a0.88888908 0.91666679 0 0 1 0.888889 0.916671 0.88888908 0.91666679 0 0 1-0.888889 0.916668 0.88888908 0.91666679 0 0 1-0.888889-0.916668 0.88888908 0.91666679 0 0 1 0.888889-0.916671z" style="fill:#f9f9f9"/>
</svg>
