<?xml version="1.0" encoding="UTF-8" standalone="no"?>
<svg
   xmlns:dc="http://purl.org/dc/elements/1.1/"
   xmlns:cc="http://creativecommons.org/ns#"
   xmlns:rdf="http://www.w3.org/1999/02/22-rdf-syntax-ns#"
   xmlns:svg="http://www.w3.org/2000/svg"
   xmlns="http://www.w3.org/2000/svg"
   xmlns:xlink="http://www.w3.org/1999/xlink"
   xmlns:sodipodi="http://sodipodi.sourceforge.net/DTD/sodipodi-0.dtd"
   xmlns:inkscape="http://www.inkscape.org/namespaces/inkscape"
   viewBox="0 0 64 64"
   version="1.1"
   id="svg5453"
   height="64"
   width="64"
   sodipodi:docname="folder-script.svg"
   inkscape:version="0.92.4 (unknown)">
  <sodipodi:namedview
     pagecolor="#ffffff"
     bordercolor="#666666"
     borderopacity="1"
     objecttolerance="10"
     gridtolerance="10"
     guidetolerance="10"
     inkscape:pageopacity="0"
     inkscape:pageshadow="2"
     inkscape:window-width="1366"
     inkscape:window-height="711"
     id="namedview17"
     showgrid="false"
     inkscape:zoom="3.6875"
     inkscape:cx="32"
     inkscape:cy="32"
     inkscape:window-x="0"
     inkscape:window-y="0"
     inkscape:window-maximized="1"
     inkscape:current-layer="svg5453" />
  <defs
     id="defs5455">
    <linearGradient
       id="linearGradient831">
      <stop
         style="stop-color:#20bcfa;stop-opacity:1;"
         offset="0"
         id="stop827" />
      <stop
         style="stop-color:#46c7fc;stop-opacity:1"
         offset="1"
         id="stop829" />
    </linearGradient>
    <linearGradient
       xlink:href="#linearGradient831"
       id="linearGradient833"
       x1="32.010437"
       y1="57.89262"
       x2="31.962496"
       y2="15.119835"
       gradientUnits="userSpaceOnUse"
       gradientTransform="translate(0,-3.8146973e-6)" />
    <style
       id="current-color-scheme"
       type="text/css">
      .ColorScheme-Text {
        color:#4d4d4d;
      }
      </style>
  </defs>
  <metadata
     id="metadata5458">
    <rdf:RDF>
      <cc:Work
         rdf:about="">
        <dc:format>image/svg+xml</dc:format>
        <dc:type
           rdf:resource="http://purl.org/dc/dcmitype/StillImage" />
        <dc:title />
      </cc:Work>
    </rdf:RDF>
  </metadata>
  <path
     style="fill:#209efa;fill-opacity:1;fill-rule:evenodd;stroke:none;stroke-width:1px;stroke-linecap:butt;stroke-linejoin:miter;stroke-opacity:1"
     d="M 4,6 C 3.44878,6.05512 3,6.446 3,7 V 9 49 H 61 V 14 13 11 c 0,-1 -1,-1 -1,-1 H 58 37 33 C 31,6 27,6 27,6 H 5 Z"
     id="folderTab-3" />
  <path
     style="color:#000000;text-decoration:none;text-decoration-line:none;text-decoration-style:solid;text-decoration-color:#000000;white-space:normal;clip-rule:nonzero;display:inline;overflow:visible;visibility:visible;opacity:1;isolation:auto;mix-blend-mode:normal;color-interpolation:sRGB;color-interpolation-filters:linearRGB;solid-color:#000000;solid-opacity:1;fill:#fffbec;fill-opacity:1;fill-rule:nonzero;stroke:none;stroke-width:1;stroke-linecap:butt;stroke-linejoin:miter;stroke-miterlimit:4;stroke-dasharray:none;stroke-dashoffset:0;stroke-opacity:1;color-rendering:auto;image-rendering:auto;shape-rendering:auto;text-rendering:auto;enable-background:accumulate"
     d="M 7,13 H 57 V 45 H 7 Z"
     id="folderPaper-6" />
  <path
     style="fill:url(#linearGradient833);fill-opacity:1;fill-rule:evenodd;stroke:none;stroke-width:1px;stroke-linecap:butt;stroke-linejoin:miter;stroke-opacity:1"
     d="m 39,14.999996 c 0,0 -4,0 -6,4 H 29 4 2 c 0,0 -0.1319813,0.01691 -0.2890625,0.05859 -0.045956,0.01404 -0.091922,0.02277 -0.1347656,0.04297 C 1.3019442,19.211394 1,19.444766 1,19.999996 v 2 1 34 c 0,0.55397 0.44603,1 1,1 h 60 c 0.55397,0 1,-0.44603 1,-1 v -39 -2 c 0,-0.55397 -0.44603,-1 -1,-1 h -1 z"
     id="folderFront-2" />
  <path
     id="path4"
     d="m 34.193536,28.03604 c -0.08742,0.04951 -0.158842,0.1446 -0.195538,0.265906 l -5.590375,18.455997 c -0.07655,0.252532 0.0069,0.543944 0.188017,0.650771 l 0.937578,0.552806 C 29.577438,47.98775 29.623938,48 29.671098,48 c 0.04544,0 0.09248,-0.01076 0.135372,-0.03498 0.08742,-0.04951 0.156233,-0.14811 0.19303,-0.269404 l 5.590376,-18.4525 c 0.07644,-0.252531 -0.0071,-0.543941 -0.188017,-0.650772 L 34.46428,28.03954 c -0.08681,-0.05136 -0.183223,-0.05285 -0.270744,-0.0035 z m -6.485337,3.414797 c -0.0901,-0.01815 -0.187053,0.01222 -0.26573,0.09445 l -5.299575,5.531553 c -0.08975,0.09363 -0.142892,0.242231 -0.142892,0.398859 0,0.156618 0.05314,0.305223 0.142892,0.398858 l 5.299575,5.531551 c 0.06385,0.06681 0.138982,0.101469 0.213086,0.101469 0.108356,0 0.215951,-0.06906 0.285786,-0.19943 l 0.609175,-1.137101 c 0.05652,-0.105685 0.08111,-0.23699 0.06768,-0.367371 -0.01352,-0.130375 -0.06485,-0.250003 -0.140386,-0.328881 l -3.830532,-3.99909 3.830535,-3.999092 c 0.07553,-0.07888 0.126863,-0.195007 0.140385,-0.325386 0.01341,-0.130376 -0.01104,-0.265173 -0.06769,-0.370869 l -0.609175,-1.1336 c -0.05891,-0.109804 -0.14304,-0.177793 -0.233141,-0.195931 z m 8.583607,0 c -0.09009,0.01815 -0.176792,0.0862 -0.235647,0.195932 l -0.609177,1.133599 c -0.05652,0.105539 -0.08111,0.240489 -0.06768,0.37087 0.01352,0.130232 0.06476,0.246503 0.140387,0.325386 l 3.833041,3.999091 -3.833041,3.999092 c -0.07563,0.07888 -0.126865,0.198644 -0.140387,0.328881 -0.01341,0.130376 0.01104,0.26182 0.06768,0.367371 l 0.609177,1.137102 c 0.06994,0.130374 0.177424,0.199428 0.285785,0.199428 0.0741,0 0.149148,-0.03478 0.213086,-0.101468 l 5.302078,-5.531552 c 0.0897,-0.09363 0.14289,-0.242233 0.14289,-0.398859 0,-0.156619 -0.0532,-0.305223 -0.14289,-0.398859 L 36.55503,31.545299 c -0.07868,-0.08216 -0.173136,-0.112604 -0.263224,-0.09445 z"
     class="ColorScheme-Text"
     style="color:#4d4d4d;fill:#e3f9f9;fill-opacity:1;stroke:none;stroke-width:1"
     inkscape:connector-curvature="0" />
</svg>
