<?xml version="1.0" encoding="UTF-8"?>
<svg id="svg5453" version="1.1" viewBox="0 0 64 64" xmlns="http://www.w3.org/2000/svg">
 <defs id="defs5455">
  <linearGradient id="linearGradient833" x1="32.010437" x2="31.962496" y1="57.89262" y2="15.119835" gradientTransform="translate(1.526117e-5,1.3258128)" gradientUnits="userSpaceOnUse">
   <stop id="stop827" style="stop-color:#20bcfa" offset="0"/>
   <stop id="stop829" style="stop-color:#46c7fc" offset="1"/>
  </linearGradient>
 </defs>
 <path id="folderTab-3" d="m4.0000153 7.3258166c-0.55122 0.05512-1 0.446-1 1v42h58v-38c0-1-1-1-1-1h-27c-2-4.0000004-6-4.0000004-6-4.0000004h-22z" style="fill-rule:evenodd;fill:#209efa"/>
 <path id="folderPaper-6" d="m7.0000153 14.325817h50v32h-50z" style="color-rendering:auto;color:#000000;fill:#fffbec;image-rendering:auto;isolation:auto;mix-blend-mode:normal;shape-rendering:auto;solid-color:#000000;text-decoration-color:#000000;text-decoration-line:none;text-decoration-style:solid;white-space:normal"/>
 <path id="folderFront-2" d="m39.000015 16.325813s-4 0-6 4h-31s-0.1319813 0.01691-0.2890625 0.05859c-0.045956 0.01404-0.091922 0.02277-0.1347656 0.04297-0.2742277 0.109838-0.5761719 0.34321-0.5761719 0.89844v37c0 0.55397 0.44603 1 1 1h60c0.55397 0 1-0.44603 1-1v-41c0-0.55397-0.44603-1-1-1h-1z" style="fill-rule:evenodd;fill:url(#linearGradient833)"/>
 <g id="g973">
  <path id="path8-15-6-5" d="m32.000022 38.957946c-1.781347 0-3.462938 0.901825-4.613429 2.474034-0.356967 0.487436-0.302038 1.214732 0.123231 1.624498 0.188154 0.181422 0.417181 0.270605 0.64556 0.270605 0.286616 0 0.571255-0.139904 0.769474-0.411293 0.768144-1.049446 1.889157-1.651447 3.075164-1.651447 1.186008 0 2.307056 0.602001 3.075164 1.651447 0.198902 0.272173 0.483505 0.411293 0.769474 0.411293 0.22838 0 0.457407-0.0884 0.64556-0.270605 0.425269-0.409808 0.480162-1.137103 0.123231-1.624498-1.150526-1.572209-2.832117-2.474034-4.613429-2.474034z" style="fill:#f9f9f9;stroke-width:.01524753"/>
  <path id="path8-4-43-2-6" d="m31.999669 33.884722c-2.967355 0-5.769312 1.503-7.688593 4.123913-0.356931 0.487436-0.302038 1.214731 0.123231 1.624498 0.188153 0.181421 0.41718 0.270646 0.64556 0.270646 0.286616 0 0.571255-0.139945 0.769474-0.411335 1.535569-2.098067 3.777666-3.301284 6.150364-3.301284 2.372697 0 4.614759 1.203217 6.151011 3.301284 0.198902 0.272174 0.483505 0.411335 0.769438 0.411335 0.22838 0 0.457406-0.08844 0.645596-0.270646 0.425233-0.409767 0.480126-1.137805 0.123231-1.624498-1.920001-2.620872-4.721957-4.123913-7.689312-4.123913z" style="fill:#f9f9f9;stroke-width:.01524753"/>
  <path id="path8-8-0-9-2" d="m42.764451 34.774577c-2.686742-3.670318-6.610431-5.774576-10.76444-5.774576s-8.077051 2.104258-10.764476 5.774576c-0.356967 0.487437-0.302038 1.214732 0.123231 1.624498 0.188153 0.181422 0.416533 0.270647 0.644877 0.270647 0.286616 0 0.571255-0.139945 0.770121-0.411335 2.303713-3.14673 5.666859-4.951906 9.226211-4.951906s6.922498 1.805176 9.226175 4.951163c0.198902 0.27139 0.483505 0.411335 0.770157 0.411335 0.22838 0 0.457407-0.08844 0.64556-0.270646 0.424585-0.409065 0.47955-1.137104 0.122584-1.623756z" style="fill:#f9f9f9;stroke-width:.01524753"/>
  <path id="path8-1-37-1-9" d="m30.000015 44.931426c0 1.141867 0.896022 2.068576 2 2.068576 1.103977 0 1.999999-0.926709 1.999999-2.068576-0.337882-2.936067-3.935654-2.187328-3.999999 0z" style="fill:#f9f9f9;stroke-width:.01524753"/>
 </g>
</svg>
