<?xml version="1.0" encoding="UTF-8" standalone="no"?>
<svg
   xmlns:dc="http://purl.org/dc/elements/1.1/"
   xmlns:cc="http://creativecommons.org/ns#"
   xmlns:rdf="http://www.w3.org/1999/02/22-rdf-syntax-ns#"
   xmlns:svg="http://www.w3.org/2000/svg"
   xmlns="http://www.w3.org/2000/svg"
   xmlns:xlink="http://www.w3.org/1999/xlink"
   xmlns:sodipodi="http://sodipodi.sourceforge.net/DTD/sodipodi-0.dtd"
   xmlns:inkscape="http://www.inkscape.org/namespaces/inkscape"
   viewBox="0 0 64 64"
   version="1.1"
   id="svg5453"
   height="64"
   width="64"
   sodipodi:docname="folder-git.svg"
   inkscape:version="0.92.4 (unknown)">
  <sodipodi:namedview
     pagecolor="#ffffff"
     bordercolor="#666666"
     borderopacity="1"
     objecttolerance="10"
     gridtolerance="10"
     guidetolerance="10"
     inkscape:pageopacity="0"
     inkscape:pageshadow="2"
     inkscape:window-width="1366"
     inkscape:window-height="711"
     id="namedview14"
     showgrid="false"
     inkscape:zoom="3.6875"
     inkscape:cx="32"
     inkscape:cy="32"
     inkscape:window-x="0"
     inkscape:window-y="0"
     inkscape:window-maximized="1"
     inkscape:current-layer="svg5453" />
  <defs
     id="defs5455">
    <linearGradient
       id="linearGradient831">
      <stop
         style="stop-color:#20bcfa;stop-opacity:1;"
         offset="0"
         id="stop827" />
      <stop
         style="stop-color:#46c7fc;stop-opacity:1"
         offset="1"
         id="stop829" />
    </linearGradient>
    <linearGradient
       xlink:href="#linearGradient831"
       id="linearGradient833"
       x1="32.010437"
       y1="57.89262"
       x2="31.962496"
       y2="15.119835"
       gradientUnits="userSpaceOnUse"
       gradientTransform="translate(0,-3.8146973e-6)" />
    <style
       type="text/css"
       id="current-color-scheme">
      .ColorScheme-Text {
        color:#4d4d4d;
      }
      </style>
  </defs>
  <metadata
     id="metadata5458">
    <rdf:RDF>
      <cc:Work
         rdf:about="">
        <dc:format>image/svg+xml</dc:format>
        <dc:type
           rdf:resource="http://purl.org/dc/dcmitype/StillImage" />
        <dc:title />
      </cc:Work>
    </rdf:RDF>
  </metadata>
  <path
     style="fill:#209efa;fill-opacity:1;fill-rule:evenodd;stroke:none;stroke-width:1px;stroke-linecap:butt;stroke-linejoin:miter;stroke-opacity:1"
     d="M 4,6 C 3.44878,6.05512 3,6.446 3,7 V 9 49 H 61 V 14 13 11 c 0,-1 -1,-1 -1,-1 H 58 37 33 C 31,6 27,6 27,6 H 5 Z"
     id="folderTab-3" />
  <path
     style="color:#000000;text-decoration:none;text-decoration-line:none;text-decoration-style:solid;text-decoration-color:#000000;white-space:normal;clip-rule:nonzero;display:inline;overflow:visible;visibility:visible;opacity:1;isolation:auto;mix-blend-mode:normal;color-interpolation:sRGB;color-interpolation-filters:linearRGB;solid-color:#000000;solid-opacity:1;fill:#fffbec;fill-opacity:1;fill-rule:nonzero;stroke:none;stroke-width:1;stroke-linecap:butt;stroke-linejoin:miter;stroke-miterlimit:4;stroke-dasharray:none;stroke-dashoffset:0;stroke-opacity:1;color-rendering:auto;image-rendering:auto;shape-rendering:auto;text-rendering:auto;enable-background:accumulate"
     d="M 7,13 H 57 V 45 H 7 Z"
     id="folderPaper-6" />
  <path
     style="fill:url(#linearGradient833);fill-opacity:1;fill-rule:evenodd;stroke:none;stroke-width:1px;stroke-linecap:butt;stroke-linejoin:miter;stroke-opacity:1"
     d="m 39,14.999996 c 0,0 -4,0 -6,4 H 29 4 2 c 0,0 -0.1319813,0.01691 -0.2890625,0.05859 -0.045956,0.01404 -0.091922,0.02277 -0.1347656,0.04297 C 1.3019442,19.211394 1,19.444766 1,19.999996 v 2 1 34 c 0,0.55397 0.44603,1 1,1 h 60 c 0.55397,0 1,-0.44603 1,-1 v -39 -2 c 0,-0.55397 -0.44603,-1 -1,-1 h -1 z"
     id="folderFront-2" />
  <path
     style="opacity:1;fill:#e3f9f9;fill-opacity:1;stroke:none;stroke-width:0.08424624;stroke-linecap:square;stroke-linejoin:miter;stroke-miterlimit:4;stroke-dasharray:none;stroke-dashoffset:0;stroke-opacity:1"
     d="M 26.666667,26 A 2.6666671,2.7500002 0 0 0 24,28.750001 2.6666671,2.7500002 0 0 0 25.777778,31.338868 V 42.661133 A 2.6666671,2.7500002 0 0 0 24,45.250003 2.6666671,2.7500002 0 0 0 26.666667,48 2.6666671,2.7500002 0 0 0 29.333334,45.250003 2.6666671,2.7500002 0 0 0 27.628472,42.6862 c 0.338841,-2.187664 2.151795,-3.852864 4.37153,-3.852864 3.186408,0 5.768941,-2.454864 6.145831,-5.632488 A 2.6666671,2.7500002 0 0 0 40,30.583335 a 2.6666671,2.7500002 0 0 0 -2.666664,-2.750002 2.6666671,2.7500002 0 0 0 -2.666667,2.750002 2.6666671,2.7500002 0 0 0 1.70486,2.563802 c -0.338839,2.187669 -2.151794,3.852866 -4.371527,3.852866 -1.747632,0 -3.316328,0.741467 -4.444446,1.930012 V 31.338868 A 2.6666671,2.7500002 0 0 0 29.333334,28.750001 2.6666671,2.7500002 0 0 0 26.666667,26 Z m 0,1.833333 a 0.88888908,0.91666679 0 0 1 0.888889,0.916668 0.88888908,0.91666679 0 0 1 -0.888889,0.916667 0.88888908,0.91666679 0 0 1 -0.888889,-0.916667 0.88888908,0.91666679 0 0 1 0.888889,-0.916668 z m 10.666669,1.833335 a 0.88888908,0.91666679 0 0 1 0.888888,0.916667 0.88888908,0.91666679 0 0 1 -0.888888,0.916666 0.88888908,0.91666679 0 0 1 -0.888892,-0.916666 0.88888908,0.91666679 0 0 1 0.888892,-0.916667 z M 26.666667,44.333332 a 0.88888908,0.91666679 0 0 1 0.888889,0.916671 0.88888908,0.91666679 0 0 1 -0.888889,0.916668 0.88888908,0.91666679 0 0 1 -0.888889,-0.916668 0.88888908,0.91666679 0 0 1 0.888889,-0.916671 z"
     id="circle4175"
     inkscape:connector-curvature="0" />
</svg>
