<svg id="svg102" version="1.1" viewBox="0 0 48 48" xmlns="http://www.w3.org/2000/svg" xmlns:xlink="http://www.w3.org/1999/xlink">
 <defs id="defs54">
  <linearGradient id="linearGradient2100" x1="24" x2="23.178896" y1="46" y2="14.592526" gradientTransform="matrix(1.0019059 0 0 .99999994 -.01022414 .04786655)" gradientUnits="userSpaceOnUse">
   <stop id="stop4795" style="stop-color:#54b60f" offset="0"/>
   <stop id="stop4797" style="stop-color:#92dc41" offset="1"/>
  </linearGradient>
 </defs>
 <path id="path10" d="m44.438913 11.31424c-0.013478-1.031336-0.808671-1.8833102-1.837436-1.9775207-8.549451-0.7981647-15.526533-5.3584655-17.826708-7.0265401-0.480711-0.3497576-1.132141-0.3497576-1.612851 0-2.295728 1.6680746-9.272764 6.2283754-17.822216 7.0265401-1.0288096 0.0942099-1.8195104 0.9461847-1.8374809 1.9775207-0.1033302 6.730592 0.9793908 29.581375 19.951718 34.666357 0.336945 0.08968 0.691863 0.08968 1.028809 0 18.972326-5.080454 20.055003-27.93581 19.956165-34.666357z" style="fill:url(#linearGradient2100);stroke-width:.42613864"/>
 <path id="path904" d="m30.051632 14.04786c-3.906524 0-4.639367 5.9359-2.441452 5.9359 2.197069 0 6.348437-5.9359 2.441452-5.9359zm-6.017285 0.913226c-0.06154-2.27e-4 -0.12843 0.0056-0.19769 0.01285-2.213762 0.279614-1.434689 4.026215-0.256154 4.096062 1.141149 0.06814 2.389607-4.102062 0.453075-4.1086zm-3.838601 1.383149c-0.135437-0.0085-0.285368 0.01715-0.452289 0.08544-1.779378 0.730666-0.269999 3.746831 0.726135 3.544062 0.90415-0.183729 1.033765-3.544678-0.273846-3.629677zm-2.904373 2.465913c-0.154653-0.0043-0.32152 0.04899-0.499982 0.1819-1.424302 1.062996 0.479229 3.630986 1.317303 3.232833 0.733073-0.348768 0.265383-3.375524-0.817536-3.414756zm8.412276 2.451607c-3.086143-0.05308-7.157665 1.513071-7.852278 4.659212-0.751536 3.403833 3.096142 8.126892 7.109973 8.126892 1.974531 0 4.251983-1.804532 4.678444-4.089908 0.325383-1.742454-3.829678-1.04415-3.680601 0.108708 0.17923 1.382146-1.00215 2.065375-2.158992 1.174532-3.68237-2.83645 6.097283-4.251906 5.452209-8.126892-0.200768-1.206302-1.697608-1.820608-3.549216-1.852299z" style="fill:#ffffff;stroke-width:.99999994"/>
</svg>
