<?xml version="1.0" encoding="UTF-8"?>
<svg id="svg18" version="1.1" viewBox="0 0 48 48" xmlns="http://www.w3.org/2000/svg">
 <defs id="defs5455">
  <linearGradient id="linearGradient840" x1="25" x2="25" y1="46" y2="2.4967742" gradientTransform="matrix(.95550763 0 0 1 385.63925 499.798)" gradientUnits="userSpaceOnUse">
   <stop id="stop834" style="stop-color:#d4dadc" offset="0"/>
   <stop id="stop836" style="stop-color:#f6f7f8" offset="1"/>
  </linearGradient>
  <linearGradient id="linearGradient830" x1="24.780495" x2="24.801561" y1="15.797154" y2="4.0040507" gradientTransform="matrix(.95550763 0 0 1 385.63925 499.798)" gradientUnits="userSpaceOnUse">
   <stop id="stop824" style="stop-color:#bbbdb7" offset="0"/>
   <stop id="stop826" style="stop-color:#e1e1df" offset="1"/>
  </linearGradient>
  <linearGradient id="linearGradient862" x1="23.966173" x2="23.966173" y1="35.311054" y2="22.194721" gradientTransform="matrix(.8564608 0 0 .8564608 388.01637 504.00076)" gradientUnits="userSpaceOnUse">
   <stop id="stop856" style="stop-color:#97bb00" offset="0"/>
   <stop id="stop858" style="stop-color:#97eb23" offset="1"/>
  </linearGradient>
 </defs>
 <g id="layer1" transform="translate(-384.57143,-499.798)">
  <path id="path3348" d="m406.78089 545.75012c-4.59937-0.32999-8.34387-1.64455-9.96178-3.49723-0.57607-0.65966-0.73199-1.01294-0.9027-2.04536-0.47115-2.84925-5.10042-28.91569-5.22147-29.40097-0.82884-3.32261 2.55308-6.33199 8.9686-7.98063 1.46924-0.37757 3.70172-0.75147 5.47328-0.91668 1.59058-0.14833 5.28235-0.14833 6.87294 0 7.76112 0.72378 13.57093 3.52361 14.44638 6.96189 0.16904 0.66393 0.15463 1.17139-0.0593 2.08945-0.23144 0.99307-5.22313 29.30889-5.22313 29.62868 0 0.1298-0.12643 0.50081-0.28096 0.82445-0.78419 1.64238-3.41357 3.09784-6.96466 3.8552-1.97651 0.42154-5.07296 0.63002-7.14717 0.4812z" style="fill:url(#linearGradient840);stroke-width:.75057161"/>
  <path id="path3340" d="m406.50323 515.47578c-5.59713-0.29201-10.76932-1.91433-13.00284-4.07847-0.56681-0.5492-1.01865-1.33258-1.01707-1.76336 3e-3 -0.72905 0.85927-1.81848 2.06099-2.62117 5.14297-3.43523 15.78572-4.35002 23.58744-2.02744 2.69489 0.80227 4.73112 1.89541 5.85594 3.14372 0.7605 0.84398 0.90389 1.37952 0.57339 2.14139-0.77655 1.79009-4.23451 3.6127-8.58547 4.52516-1.75131 0.36729-3.4186 0.57582-5.48428 0.68592-1.80812 0.0964-2.03719 0.096-3.9881-6e-3z" style="fill:url(#linearGradient830);stroke-width:.75057161"/>
  <path id="path3802" d="m406.29309 523.00967-1.54558 2.83482 2.47294 1.45257 1.35095-2.38986 0.4694 0.83174-0.43506 0.76151h2.51873l1.37385-2.42498-0.60679 0.35163-0.78996-1.41743h-4.71689zm6.72042 4.38089-2.47293 1.46429 1.35095 2.40156h-0.93879l-0.43505-0.7731-1.25936 2.22563 1.37384 2.43641v-0.70293h1.60283l2.15236-3.80682 0.20608-0.36317 0.0459-0.0939-1.62572-2.78802zm-10.31533 0.86692 0.60679 0.35157-0.80141 1.41736 2.15237 3.8069 0.19462 0.36329 0.0572 0.0936 3.17131-0.0469v-2.9283h-2.71336l0.4694-0.83169h0.87011l-1.25937-2.22582z" style="fill:url(#linearGradient862)"/>
 </g>
</svg>
