<?xml version="1.0" encoding="UTF-8" standalone="no"?>
<svg
   xmlns:dc="http://purl.org/dc/elements/1.1/"
   xmlns:cc="http://creativecommons.org/ns#"
   xmlns:rdf="http://www.w3.org/1999/02/22-rdf-syntax-ns#"
   xmlns:svg="http://www.w3.org/2000/svg"
   xmlns="http://www.w3.org/2000/svg"
   xmlns:sodipodi="http://sodipodi.sourceforge.net/DTD/sodipodi-0.dtd"
   xmlns:inkscape="http://www.inkscape.org/namespaces/inkscape"
   viewBox="0 0 16 16"
   version="1.1"
   id="svg6"
   sodipodi:docname="folder-temp.svg"
   inkscape:version="0.92.2 5c3e80d, 2017-08-06">
  <metadata
     id="metadata10">
    <rdf:RDF>
      <cc:Work
         rdf:about="">
        <dc:format>image/svg+xml</dc:format>
        <dc:type
           rdf:resource="http://purl.org/dc/dcmitype/StillImage" />
      </cc:Work>
    </rdf:RDF>
  </metadata>
  <sodipodi:namedview
     pagecolor="#ffffff"
     bordercolor="#666666"
     borderopacity="1"
     objecttolerance="10"
     gridtolerance="10"
     guidetolerance="10"
     inkscape:pageopacity="0"
     inkscape:pageshadow="2"
     inkscape:window-width="762"
     inkscape:window-height="480"
     id="namedview8"
     showgrid="false"
     inkscape:zoom="18.264648"
     inkscape:cx="0.66342298"
     inkscape:cy="8"
     inkscape:window-x="0"
     inkscape:window-y="0"
     inkscape:window-maximized="0"
     inkscape:current-layer="svg6" />
  <defs
     id="defs3051">
    <style
       type="text/css"
       id="current-color-scheme">
      .ColorScheme-Text {
        color:#4d4d4d;
      }
      </style>
  </defs>
  <path
     style="fill:#303030;fill-opacity:1;stroke:none"
     class="ColorScheme-Text"
     d="M 7.9863281 0.25 C 6.9351067 0.25 5.9361109 0.45747504 4.9765625 0.86914062 C 3.0705138 1.6866694 1.6744676 3.0733091 0.85546875 4.9824219 C 0.44506921 5.9388786 0.24609375 6.9390137 0.24609375 7.9902344 C 0.24609375 9.0416574 0.44506921 10.053106 0.85546875 11.009766 C 1.6744676 12.918879 3.0706907 14.313129 4.9765625 15.130859 C 5.9362878 15.542526 6.9350807 15.75 7.9863281 15.75 C 9.0375743 15.75 10.045399 15.540346 11.005859 15.130859 C 12.92782 14.311127 14.317034 12.915636 15.134766 11.009766 C 15.546406 10.05004 15.753906 9.0416574 15.753906 7.9902344 C 15.753906 6.9390137 15.546609 5.9421219 15.134766 4.9824219 C 14.317211 3.076375 12.92782 1.6888485 11.005859 0.86914062 C 10.045247 0.45945143 9.0377265 0.25 7.9863281 0.25 z M 7.5078125 3.09375 C 7.9031764 3.09375 8.2265625 3.4171352 8.2265625 3.8125 L 8.2265625 8.7363281 L 11.017578 10.917969 C 11.341058 11.157598 11.39002 11.612314 11.150391 11.923828 C 11.018589 12.103539 10.80159 12.199219 10.585938 12.199219 C 10.430201 12.199219 10.276333 12.138824 10.144531 12.042969 L 7.0644531 9.6484375 C 6.8967084 9.5166343 6.7890625 9.3116036 6.7890625 9.0839844 L 6.7890625 3.8125 C 6.7890625 3.4171352 7.1124486 3.09375 7.5078125 3.09375 z "
     id="path4" />
</svg>
