<?xml version="1.0" encoding="UTF-8" standalone="no"?>
<svg
   xmlns:dc="http://purl.org/dc/elements/1.1/"
   xmlns:cc="http://creativecommons.org/ns#"
   xmlns:rdf="http://www.w3.org/1999/02/22-rdf-syntax-ns#"
   xmlns:svg="http://www.w3.org/2000/svg"
   xmlns="http://www.w3.org/2000/svg"
   viewBox="0 0 16 16"
   version="1.1"
   id="svg6">
  <metadata
     id="metadata10">
    <rdf:RDF>
      <cc:Work
         rdf:about="">
        <dc:format>image/svg+xml</dc:format>
        <dc:type
           rdf:resource="http://purl.org/dc/dcmitype/StillImage" />
        <dc:title></dc:title>
      </cc:Work>
    </rdf:RDF>
  </metadata>
  <defs
     id="defs3051">
    <style
       type="text/css"
       id="current-color-scheme">
      .ColorScheme-Text {
        color:#4d4d4d;
      }
      </style>
  </defs>
  <path
     style="fill:#303030;fill-rule:nonzero;stroke:none;stroke-width:1"
     d="M 8,1 C 4.1340072,1 1,4.1340067 1,8 c 0,3.865993 3.1340072,7 7,7 3.865993,0 7,-3.134008 7,-7 C 15,4.1340067 11.865993,1 8,1 Z m 0,1 c 3.313709,0 6,2.6862915 6,6 0,3.313709 -2.686291,6 -6,6 C 4.686292,14 2,11.313708 2,8 2,4.6862915 4.686292,2 8,2 Z"
     id="path888" />
  <g
     id="g823"
     transform="translate(-0.25,-0.25000024)">
    <rect
       y="4.0000005"
       x="7.5"
       height="6"
       width="1.5"
       id="rect816"
       style="opacity:1;vector-effect:none;fill:#303030;fill-opacity:1;stroke:none;stroke-width:0.48999995;stroke-linecap:butt;stroke-linejoin:miter;stroke-miterlimit:4;stroke-dasharray:none;stroke-dashoffset:0;stroke-opacity:1" />
    <rect
       y="11"
       x="7.5"
       height="1.5"
       width="1.5"
       id="rect923"
       style="opacity:1;vector-effect:none;fill:#303030;fill-opacity:1;stroke:none;stroke-width:0.48999998;stroke-linecap:butt;stroke-linejoin:miter;stroke-miterlimit:4;stroke-dasharray:none;stroke-dashoffset:0;stroke-opacity:1" />
  </g>
</svg>
