<?xml version="1.0" encoding="UTF-8" standalone="no"?>
<svg
   xmlns:dc="http://purl.org/dc/elements/1.1/"
   xmlns:cc="http://creativecommons.org/ns#"
   xmlns:rdf="http://www.w3.org/1999/02/22-rdf-syntax-ns#"
   xmlns:svg="http://www.w3.org/2000/svg"
   xmlns="http://www.w3.org/2000/svg"
   xmlns:xlink="http://www.w3.org/1999/xlink"
   id="svg6"
   version="1.1"
   viewBox="0 0 16 16">
  <metadata
     id="metadata10">
    <rdf:RDF>
      <cc:Work
         rdf:about="">
        <dc:format>image/svg+xml</dc:format>
        <dc:type
           rdf:resource="http://purl.org/dc/dcmitype/StillImage" />
        <dc:title></dc:title>
      </cc:Work>
    </rdf:RDF>
  </metadata>
  <defs
     id="defs3051">
    <style
       id="current-color-scheme"
       type="text/css">
      .ColorScheme-Text {
        color:#4d4d4d;
      }
      </style>
    <linearGradient
       id="linearGradient831">
      <stop
         style="stop-color:#20bcfa;stop-opacity:1;"
         offset="0"
         id="stop827" />
      <stop
         style="stop-color:#46c7fc;stop-opacity:1"
         offset="1"
         id="stop829" />
    </linearGradient>
    <linearGradient
       xlink:href="#linearGradient831"
       id="linearGradient833"
       x1="32.010437"
       y1="57.89262"
       x2="31.962496"
       y2="15.119835"
       gradientUnits="userSpaceOnUse"
       gradientTransform="translate(-66.985618,-26.512115)" />
  </defs>
  <path
     style="opacity:1;fill:#303030;fill-opacity:1;stroke-width:1.44703114;enable-background:new"
     d="M 4.4999141,3.5003036 C 2.014666,3.5003036 0,5.5149627 0,8.0002178 0,10.485472 2.014666,12.500139 4.4999141,12.500139 6.4045776,12.497339 8.101247,11.295958 8.736142,9.5001911 l 3.263938,-0.00346 v 1.9999598 h 2.99994 V 9.4928383 L 16,9.4962982 V 6.4963534 l -7.263561,0.00346 C 8.101551,4.7040419 6.4048748,3.5025634 4.5002182,3.4998613 Z m 0,2.9999473 c 0.827983,0 1.4999736,0.6719838 1.4999736,1.4999669 0,0.8279827 -0.6719906,1.4999733 -1.4999736,1.4999733 -0.8279899,0 -1.4999737,-0.6719906 -1.4999737,-1.4999733 0,-0.8279831 0.6719838,-1.4999669 1.4999737,-1.4999669 z"
     id="path15319" />
</svg>
