<?xml version="1.0" encoding="UTF-8" standalone="no"?>
<svg
   xmlns:dc="http://purl.org/dc/elements/1.1/"
   xmlns:cc="http://creativecommons.org/ns#"
   xmlns:rdf="http://www.w3.org/1999/02/22-rdf-syntax-ns#"
   xmlns:svg="http://www.w3.org/2000/svg"
   xmlns="http://www.w3.org/2000/svg"
   id="svg11"
   version="1.1"
   viewBox="0 0 16 16"
   height="16px"
   width="16px">
  <metadata
     id="metadata15">
    <rdf:RDF>
      <cc:Work
         rdf:about="">
        <dc:format>image/svg+xml</dc:format>
        <dc:type
           rdf:resource="http://purl.org/dc/dcmitype/StillImage" />
        <dc:title>folder-recent-symbolic</dc:title>
      </cc:Work>
    </rdf:RDF>
  </metadata>
  <!-- Generator: Sketch 42 (36781) - http://www.bohemiancoding.com/sketch -->
  <title
     id="title2">folder-recent-symbolic</title>
  <desc
     id="desc4">Created with Sketch.</desc>
  <defs
     id="defs6" />
  <path
     id="path834"
     d="M 8 1 C 4.1340067 1 1 4.1340067 1 8 C 1 11.865993 4.1340067 15 8 15 C 11.865993 15 15 11.865993 15 8 C 15 4.1340067 11.865993 1 8 1 z M 8 2 C 11.313709 2 14 4.6862915 14 8 C 14 11.313709 11.313709 14 8 14 C 4.6862915 14 2 11.313709 2 8 C 2 4.6862915 4.6862915 2 8 2 z "
     style="fill:#303030;fill-rule:nonzero;stroke:none;stroke-width:1" />
  <path
     style="fill:#303030;fill-rule:nonzero;stroke:none;stroke-width:1"
     d="M 8,4 V 8 H 4 C 3.723858,8 3.5,8.2238576 3.5,8.5 3.5,8.7761424 3.723858,9 4,9 H 8.5 C 8.776142,9 9,8.7761424 9,8.5 V 4 C 9,3.7238576 8.776142,3.5 8.5,3.5 8.223858,3.5 8,3.7238576 8,4 Z"
     id="path837" />
</svg>
