<?xml version="1.0" encoding="UTF-8" standalone="no"?>
<svg
   xmlns:dc="http://purl.org/dc/elements/1.1/"
   xmlns:cc="http://creativecommons.org/ns#"
   xmlns:rdf="http://www.w3.org/1999/02/22-rdf-syntax-ns#"
   xmlns:svg="http://www.w3.org/2000/svg"
   xmlns="http://www.w3.org/2000/svg"
   viewBox="0 0 16 16"
   version="1.1"
   id="svg2"
   height="16"
   width="16">
  <defs
     id="defs4">
    <style
       type="text/css"
       id="current-color-scheme">
      .ColorScheme-Text {
        color:#4d4d4d;
      }
      </style>
  </defs>
  <metadata
     id="metadata7">
    <rdf:RDF>
      <cc:Work
         rdf:about="">
        <dc:format>image/svg+xml</dc:format>
        <dc:type
           rdf:resource="http://purl.org/dc/dcmitype/StillImage" />
        <dc:title></dc:title>
      </cc:Work>
    </rdf:RDF>
  </metadata>
  <g
     transform="translate(0,-1036.3622)"
     id="layer1">
    <path
       id="path848"
       transform="translate(0,1036.3622)"
       d="M 1 2 L 1 14 L 15 14 L 15 2 L 1 2 z M 2 3 L 14 3 L 14 11 L 2 11 L 2 3 z M 2 12 L 3 12 L 3 13 L 2 13 L 2 12 z M 4 12 L 10 12 L 10 13 L 4 13 L 4 12 z M 11 12 L 12 12 L 12 13 L 11 13 L 11 12 z M 13 12 L 14 12 L 14 13 L 13 13 L 13 12 z "
       style="opacity:1;fill:#303030;fill-opacity:1;stroke:none;stroke-width:1;stroke-linecap:round;stroke-linejoin:miter;stroke-miterlimit:4;stroke-dasharray:none;stroke-opacity:1" />
    <path
       id="path844"
       transform="translate(0,1036.3622)"
       d="M 3 4 L 3 7 L 6 7 L 6 5 C 6 5 6 4 5 4 L 3 4 z "
       style="opacity:1;fill:#303030;fill-opacity:1;stroke:none;stroke-width:1;stroke-linecap:round;stroke-linejoin:miter;stroke-miterlimit:4;stroke-dasharray:none;stroke-opacity:1" />
  </g>
</svg>
