<?xml version="1.0" encoding="UTF-8" standalone="no"?>
<svg
   xmlns:dc="http://purl.org/dc/elements/1.1/"
   xmlns:cc="http://creativecommons.org/ns#"
   xmlns:rdf="http://www.w3.org/1999/02/22-rdf-syntax-ns#"
   xmlns:svg="http://www.w3.org/2000/svg"
   xmlns="http://www.w3.org/2000/svg"
   xmlns:sodipodi="http://sodipodi.sourceforge.net/DTD/sodipodi-0.dtd"
   xmlns:inkscape="http://www.inkscape.org/namespaces/inkscape"
   viewBox="0 0 16 16"
   version="1.1"
   id="svg5"
   sodipodi:docname="folder-network.svg"
   inkscape:version="0.92.2 5c3e80d, 2017-08-06">
  <metadata
     id="metadata9">
    <rdf:RDF>
      <cc:Work
         rdf:about="">
        <dc:format>image/svg+xml</dc:format>
        <dc:type
           rdf:resource="http://purl.org/dc/dcmitype/StillImage" />
      </cc:Work>
    </rdf:RDF>
  </metadata>
  <sodipodi:namedview
     pagecolor="#ffffff"
     bordercolor="#666666"
     borderopacity="1"
     objecttolerance="10"
     gridtolerance="10"
     guidetolerance="10"
     inkscape:pageopacity="0"
     inkscape:pageshadow="2"
     inkscape:window-width="760"
     inkscape:window-height="480"
     id="namedview7"
     showgrid="false"
     inkscape:zoom="18.264648"
     inkscape:cx="0.66342298"
     inkscape:cy="8"
     inkscape:window-x="0"
     inkscape:window-y="0"
     inkscape:window-maximized="0"
     inkscape:current-layer="svg5" />
  <defs
     id="defs3051">
    <style
       type="text/css"
       id="current-color-scheme">
      .ColorScheme-Text {
        color:#4d4d4d;
      }
      </style>
  </defs>
  <path
     style="color:#4d4d4d;fill:#303030;fill-opacity:1;stroke:none;stroke-width:1.25999999"
     d="M 8,0.44 C 3.81176,0.44 0.44,3.81176 0.44,8 c 0,4.18824 3.37176,7.56 7.56,7.56 4.18824,0 7.56,-3.37176 7.56,-7.56 C 15.56,3.81176 12.18824,0.44 8,0.44 Z M 8,1.7 c 3.769416,0 6.3,2.530584 6.3,6.3 0,3.769416 -2.530584,6.3 -6.3,6.3 C 4.230584,14.3 1.7,11.769416 1.7,8 1.7,4.230584 4.230584,1.7 8,1.7 Z M 9.89,4.22 A 1.26,1.26 0 0 0 8.63,5.48 1.26,1.26 0 0 0 9.89,6.74 1.26,1.26 0 0 0 11.15,5.48 1.26,1.26 0 0 0 9.89,4.22 Z M 7.37,6.11 A 0.63,0.63 0 0 0 6.74,6.74 0.63,0.63 0 0 0 7.37,7.37 0.63,0.63 0 0 0 8,6.74 0.63,0.63 0 0 0 7.37,6.11 Z M 4.85,6.74 A 1.26,1.26 0 0 0 3.59,8 1.26,1.26 0 0 0 4.85,9.26 1.26,1.26 0 0 0 6.11,8 1.26,1.26 0 0 0 4.85,6.74 Z M 7.37,8.63 A 0.63,0.63 0 0 0 6.74,9.26 0.63,0.63 0 0 0 7.37,9.89 0.63,0.63 0 0 0 8,9.26 0.63,0.63 0 0 0 7.37,8.63 Z m 2.52,0.63 a 1.26,1.26 0 0 0 -1.26,1.26 1.26,1.26 0 0 0 1.26,1.26 1.26,1.26 0 0 0 1.26,-1.26 1.26,1.26 0 0 0 -1.26,-1.26 z"
     id="rect4175"
     class="ColorScheme-Text"
     inkscape:connector-curvature="0" />
</svg>
