<?xml version="1.0" encoding="UTF-8" standalone="no"?>
<svg
   xmlns:dc="http://purl.org/dc/elements/1.1/"
   xmlns:cc="http://creativecommons.org/ns#"
   xmlns:rdf="http://www.w3.org/1999/02/22-rdf-syntax-ns#"
   xmlns:svg="http://www.w3.org/2000/svg"
   xmlns="http://www.w3.org/2000/svg"
   xmlns:xlink="http://www.w3.org/1999/xlink"
   id="svg6"
   version="1.1"
   viewBox="0 0 16 16">
  <metadata
     id="metadata10">
    <rdf:RDF>
      <cc:Work
         rdf:about="">
        <dc:format>image/svg+xml</dc:format>
        <dc:type
           rdf:resource="http://purl.org/dc/dcmitype/StillImage" />
        <dc:title></dc:title>
      </cc:Work>
    </rdf:RDF>
  </metadata>
  <defs
     id="defs3051">
    <style
       id="current-color-scheme"
       type="text/css">
      .ColorScheme-Text {
        color:#4d4d4d;
      }
      </style>
    <linearGradient
       id="linearGradient831">
      <stop
         style="stop-color:#20bcfa;stop-opacity:1;"
         offset="0"
         id="stop827" />
      <stop
         style="stop-color:#46c7fc;stop-opacity:1"
         offset="1"
         id="stop829" />
    </linearGradient>
    <linearGradient
       xlink:href="#linearGradient831"
       id="linearGradient833"
       x1="32.010437"
       y1="57.89262"
       x2="31.962496"
       y2="15.119835"
       gradientUnits="userSpaceOnUse"
       gradientTransform="translate(-75.667289,-22.706421)" />
  </defs>
  <path
     style="color:#000000;clip-rule:nonzero;display:inline;overflow:visible;visibility:visible;opacity:1;isolation:auto;mix-blend-mode:normal;color-interpolation:sRGB;color-interpolation-filters:linearRGB;solid-color:#000000;solid-opacity:1;fill:#303030;fill-opacity:1;fill-rule:nonzero;stroke:none;stroke-width:1;stroke-linecap:butt;stroke-linejoin:miter;stroke-miterlimit:4;stroke-dasharray:none;stroke-dashoffset:0;stroke-opacity:1;color-rendering:auto;image-rendering:auto;shape-rendering:auto;text-rendering:auto;enable-background:accumulate"
     d="m 7.3749999,1.7499995 v 2.5000003 h -2.5 V 3.6249995 H 2.375 V 4.2499998 H 0.5 V 14.250001 h 15 V 4.2499998 H 13.625 V 1.7499995 Z M 8.6249998,3.0000001 H 12.375 V 4.2499998 H 8.6249998 Z M 1.75,5.4999995 H 7.3749999 13.625 14.249999 V 13 H 1.75 Z m 6.2499999,0.6250003 a 3.1249926,3.125 0 0 0 -3.125,3.1249997 3.1249926,3.125 0 0 0 3.125,3.1250015 A 3.1249926,3.125 0 0 0 11.125,9.2499995 3.1249926,3.125 0 0 0 7.9999999,6.1249998 Z m 0,1.2499997 a 1.8749955,1.875 0 0 1 1.8750001,1.875 1.8749955,1.875 0 0 1 -1.8750001,1.8749995 1.8749955,1.875 0 0 1 -1.875,-1.8749995 1.8749955,1.875 0 0 1 1.875,-1.875 z"
     id="rect4158" />
</svg>
