<?xml version="1.0" encoding="UTF-8" standalone="no"?>
<svg
   xmlns:dc="http://purl.org/dc/elements/1.1/"
   xmlns:cc="http://creativecommons.org/ns#"
   xmlns:rdf="http://www.w3.org/1999/02/22-rdf-syntax-ns#"
   xmlns:svg="http://www.w3.org/2000/svg"
   xmlns="http://www.w3.org/2000/svg"
   xmlns:sodipodi="http://sodipodi.sourceforge.net/DTD/sodipodi-0.dtd"
   xmlns:inkscape="http://www.inkscape.org/namespaces/inkscape"
   viewBox="0 0 16 16"
   version="1.1"
   id="svg6"
   sodipodi:docname="folder-publicshare-symbolic.svg"
   inkscape:version="0.92.2 2405546, 2018-03-11">
  <sodipodi:namedview
     pagecolor="#ffffff"
     bordercolor="#666666"
     borderopacity="1"
     objecttolerance="10"
     gridtolerance="10"
     guidetolerance="10"
     inkscape:pageopacity="0"
     inkscape:pageshadow="2"
     inkscape:window-width="1366"
     inkscape:window-height="701"
     id="namedview9"
     showgrid="false"
     inkscape:zoom="24.950767"
     inkscape:cx="-2.226313"
     inkscape:cy="7.2101774"
     inkscape:window-x="0"
     inkscape:window-y="0"
     inkscape:window-maximized="1"
     inkscape:current-layer="svg6" />
  <metadata
     id="metadata10">
    <rdf:RDF>
      <cc:Work
         rdf:about="">
        <dc:format>image/svg+xml</dc:format>
        <dc:type
           rdf:resource="http://purl.org/dc/dcmitype/StillImage" />
        <dc:title />
      </cc:Work>
    </rdf:RDF>
  </metadata>
  <defs
     id="defs3051">
    <style
       type="text/css"
       id="current-color-scheme">
      .ColorScheme-Text {
        color:#4d4d4d;
      }
      </style>
  </defs>
  <g
     transform="matrix(-0.99986037,0,0,-1,15.99986,16)"
     id="folder-download-symbolic"
     style="fill:#303030;fill-rule:nonzero;stroke:none;stroke-width:1">
    <path
       id="Combined-Shape"
       d="m 4.5009777,2 c -0.2761424,0 -0.5,-0.2238576 -0.5,-0.5 0,-0.2761424 0.2238576,-0.5 0.5,-0.5 h 7.0000003 c 0.276142,0 0.5,0.2238576 0.5,0.5 0,0.2761424 -0.223858,0.5 -0.5,0.5 z m 0,1 h 7.0000003 c 0.276142,0 0.5,0.2238576 0.5,0.5 v 2 c 0,0.2761424 -0.223858,0.5 -0.5,0.5 H 4.5009777 c -0.2761424,0 -0.5,-0.2238576 -0.5,-0.5 v -2 c 0,-0.2761424 0.2238576,-0.5 0.5,-0.5 z m 0.5,2 H 11.000978 V 4 H 5.0009777 Z m -1,2.5 c 0,-0.2761424 0.2238576,-0.5 0.5,-0.5 h 7.0000003 c 0.276142,0 0.5,0.2238576 0.5,0.5 V 9 h 2.5 c 0.477424,0 0.683273,0.605221 0.304855,0.896312 l -6.4999999,5 c -0.1797259,0.138251 -0.4299849,0.138251 -0.6097108,0 l -6.5,-5 C 0.81770406,9.605221 1.023553,9 1.5009777,9 h 2.5 z m 1,2 c 0,0.2761424 -0.2238577,0.5 -0.5,0.5 H 2.9710387 L 8.0009777,13.869184 13.030917,10 h -1.529939 c -0.276143,0 -0.5,-0.2238576 -0.5,-0.5 V 8 H 5.0009777 Z"
       inkscape:connector-curvature="0" />
  </g>
</svg>
