<?xml version="1.0" encoding="UTF-8"?>
<svg id="svg4" version="1.1" viewBox="0 0 24 24" xmlns="http://www.w3.org/2000/svg">
 <path id="circle865-6" d="m12 2.2126728a9.999877 9.7995638 0 0 0-9.9999998 9.7981772 9.999877 9.7995638 0 0 0 9.3511288 9.776477l-0.245227-0.896268a9.1060329 8.9236248 0 0 1-8.2118046-8.880209 9.1060329 8.9236248 0 0 1 9.1059026-8.9236112 9.1060329 8.9236248 0 0 1 0.909288 0.045573 9.1060329 8.9236248 0 0 1 0.898437 0.1323785 9.1060329 8.9236248 0 0 1 7.276476 8.1141487 9.1060329 8.9236248 0 0 1 0.0217 0.631511 9.1060329 8.9236248 0 0 1-4.670138 7.782119l0.238715 0.874566a9.999877 9.7995638 0 0 0 5.325522-8.656685 9.999877 9.7995638 0 0 0-10-9.7981772zm-0.0217 3.2139758c-0.432689 0.020436-0.880412 0.076958-1.345488 0.1757812-1.7531236 0.478745-2.6724399 1.1844273-3.8085931 2.515191 0.1244541-0.431473 0.2951389-0.7530382 0.2951389-0.7530382-0.5211005 0.7306675-0.800842 1.2746111-0.9418403 1.6796875-0.033016 0.043449-0.1299054 0.2899328-0.1844618 0.6445312-0.017098 0.017871-0.035393 0.03541-0.054253 0.054253-1.2756734 1.0819437-1.1436633 2.0681427-1.1436633 2.0681427 0.00378-0.0032 0.00709-0.0076 0.010856-0.01089 4.336e-4 0.0027 0 0.0043 0 0.0043 0.3868237-0.350597 0.9680511-0.395026 1.3237848-0.377604 0.096366 0.06184 0.17021 0.122344 0.2256944 0.173611 0.2150114 0.339269 0.5337663 0.664573 1.000434 0.939671-0.1137226 0.935891 0.7611535 1.871998 0.733507 1.762153 0.010178 0.0057 0.013784 0.0038 0.010855-0.0066-0.1566986-0.546982-0.078104-1.051102 0.2625868-1.532118 0.1731456-0.06187 0.6509238-0.191141 0.9613718 0.115018 0.177167 0.174562 0.313365 0.306004 0.418836 0.405815v0.0022c0.2585038 0.244595 0.3357588 0.29062 0.3906248 0.269097 2e-3 -7.77e-4 0.0046-0.0032 0.0066-0.0043 0.0017-8.89e-4 0.0027-0.0012 0.0043-0.0022 8.89e-4 -5.56e-4 0.0033-0.0016 0.0043-0.0022 0.0094-6e-3 0.0181-0.0152 0.02821-0.02387 0.01789-0.01573 0.03459-0.03019 0.04991-0.04558l0.0022-0.0022c0.0063-0.0066 0.01126-0.01309 0.01737-0.01953 0.0028-0.0027 0.0061-0.0039 0.0087-0.0066 3e-3 -0.0038 0.0054-0.0074 0.0087-0.01089 0.0046-0.0052 0.0087-0.01022 0.01302-0.01519l0.0022-0.0022c0.14443-0.172449 0.144882-0.321079 0.134549-0.410157-2.03e-4 -0.0017 1.95e-4 -0.0027 0-0.0043-2.98e-4 -0.0026-2e-3 -0.0062-0.0022-0.0087-0.0018-0.01311-3e-3 -0.02483-0.0043-0.03472-0.0039-0.02607-0.03362-0.136934-0.06944-0.286459-0.0405-0.168907-0.08898-0.386072-0.123698-0.577257-0.03876-0.213349-0.0597-0.395394-0.02604-0.447049 0.0012-0.0024 0.0018-0.0047 0.0022-0.0066 2.1e-4 -0.0012 3.92e-4 -0.0031 0-0.0043v-0.0022c0.122171-0.05843 0.240725-0.136706 0.349392-0.219184 0.117845-0.07389 0.206185-0.143703 0.219183-0.182292 0.07149-0.06502 0.131738-0.124897 0.175783-0.171441-0.208435-0.06582-0.387921-0.147703-0.566407-0.271267-0.05443-0.12254-0.17121-0.325526-0.07596-0.523004 0.03056-0.06333 0.06842-0.127343 0.112847-0.193143 0.161586-0.1501294 0.433347-0.3303279 1.169706-0.1453983 0.959203 0.2410823 1.001663 0.9715423 1.236979 1.3650183 0.333856 0.557781 0.88545 0.6728 1.180555 0.653211 0.294641-0.01944 0.353029-0.308148 0.136719-0.442708-0.215982-0.134663-0.246097-0.489802-0.351563-1.037327h-0.0022c-0.07872-0.5222032-0.67853-1.2899439-1.121961-1.5690106 2.366997 0.091768 3.204309 2.3935106 2.274306 3.7868936 0.49412-0.103666 0.702323-0.309066 0.716145-0.249566-0.877586 5.310025-5.8584538-0.179094-7.087673 6.158854 0.8233512-0.113265 0.8982922-0.347573 2.406683-0.175781 0 0-0.17513 0.330738-0.136718 0.572917 1.502065-0.362183 4.776078-0.908868 5.933159-2.261285 2.369724-1.88463 2.69795-5.062393 1.503907-7.571616-1.044849-2.1955544-3.255968-3.8800183-6.284782-3.7369626z" style="fill:#dfdfdf;paint-order:stroke fill markers"/>
</svg>
