<?xml version="1.0" encoding="UTF-8"?>
<svg id="svg3" version="1.1" viewBox="0 0 16 16" xmlns="http://www.w3.org/2000/svg">
 <defs id="defs7">
  <style id="current-color-scheme" type="text/css">.ColorScheme-Text {
        color:#dfdfdf;
      }</style>
 </defs>
 <path id="path823" d="m2 2v12h12v-10h-4.9921875l-2-2-0.0078125 0.0078125v-0.0078125h-4zm1 1h3.5917969l1.0019531 1h-0.59375v0.00781l-0.0078125-0.00781-2 2h-1.9921875zm4.6523438 1.1484375h0.7011718c0.1555078 0 0.28125 0.1370602 0.28125 0.3085937v0.078125c0 0.1715338-0.1257422 0.3085938-0.28125 0.3085938h-0.7011718c-0.1555078 0-0.2812499-0.13706-0.28125-0.3085938v-0.078125c-1e-7 -0.1715336 0.1257425-0.3085937 0.28125-0.3085937zm0.013672 1.0371094h0.7011719c0.1555078 0 0.28125 0.13706 0.28125 0.3085937v0.076172c0 0.1715338-0.1257422 0.3105469-0.28125 0.3105469h-0.7011721c-0.1555077 0-0.2812499-0.1390131-0.28125-0.3105469v-0.076172c0-0.1715337 0.125743-0.3085937 0.2812502-0.3085937zm0 1.0175781h0.7011719c0.1555078 0 0.28125 0.1390133 0.28125 0.3105469v0.076172c0 0.1715336-0.1257422 0.3085937-0.28125 0.3085937h-0.7011721c-0.1555077 0-0.2812499-0.1370601-0.28125-0.3085937v-0.076172c0-0.1715336 0.125743-0.3105469 0.2812502-0.3105469zm0 1.0410156h0.7011719c0.1555078 0 0.28125 0.1390133 0.28125 0.3105469v0.078125c0 0.1715337-0.1257422 0.3085937-0.28125 0.3085937h-0.7011721c-0.1555077 0-0.2812499-0.13706-0.28125-0.3085937v-0.078125c0-0.1715336 0.125743-0.3105469 0.2812502-0.3105469zm0.056641 1.0546875h0.5546876c0.1106717 0 0.2011718 0.098199 0.2011718 0.2207031v0.4394532l0.3105463 1.0097656c0.086635 0.280551 0.044824 0.590296-0.1113281 0.832031-0.1561518 0.241337-0.4095076 0.386719-0.6777344 0.386719-0.2681732 0-0.5215795-0.145381-0.6777344-0.386719-0.1561522-0.241735-0.1979881-0.551281-0.1113281-0.832031l0.3085937-1.0097656v-0.4394532c0-0.1225047 0.092453-0.2207031 0.2031256-0.2207031zm-0.0253912 1.4746094-0.1054687 0.3378905c-0.044507 0.144943-0.021945 0.304999 0.058594 0.429688 0.1607004 0.248883 0.5385436 0.248883 0.6992188 0 0.080529-0.124689 0.1011666-0.284944 0.056641-0.429688l-0.1035163-0.3378905z" style="fill:#dfdfdf"/>
</svg>
