<?xml version="1.0" encoding="UTF-8"?>
<svg id="svg6" version="1.1" viewBox="0 0 16 16" xmlns="http://www.w3.org/2000/svg">
 <defs id="defs3051">
  <style id="current-color-scheme" type="text/css">.ColorScheme-Text {
        color:#dfdfdf;
      }</style>
 </defs>
 <path id="path4" class="ColorScheme-Text" d="m7.4179688 0.15234375-5.9121094 3.3691406 2.859375 1.6269531 3.0527344-1.7363281v-3.2597656zm1.2324218 0v3.2597656l3.0507814 1.7402344 2.857422-1.625-5.9082034-3.375zm-0.6171875 3.8847656-3.4277343 1.953125-0.0019532 3.9082031 3.4257813 1.9550785 3.4277341-1.9511722 0.001953-3.9101563-3.4257809-1.9550781zm-7.1425781 0.5371094-0.00195312 6.7363282 2.8574219-1.6250001v-3.484375l-2.8554688-1.6269531zm14.283203 0.0058593-2.857422 1.625v3.484375l2.855469 1.6269529 0.001953-6.7363279zm-10.8125 6.1562499-2.8574219 1.628906 5.9121094 3.373047v-3.259765l-3.0546875-1.742188zm7.3359379 0.003906-3.0507816 1.738282v3.257812l5.9101566-3.365234-2.859375-1.63086z" style="fill:#dfdfdf"/>
</svg>
