<?xml version="1.0" encoding="UTF-8"?>
<svg id="svg6" version="1.1" viewBox="0 0 16 16" xmlns="http://www.w3.org/2000/svg">
 <defs id="defs3051">
  <style id="current-color-scheme" type="text/css">.ColorScheme-Text {
        color:#dfdfdf;
      }</style>
 </defs>
 <path id="path4" class="ColorScheme-Text" d="m8.0585938 0.21875c-0.0813182 0-0.1614739 0.00196219-0.2421876 0.00390625-0.7928705 0.02410638-1.5566588 0.16566185-2.2734374 0.40820313-0.1214897 0.04111692-0.2425785 0.08599945-0.3613282 0.1328125-0.0367589 0.01448326-0.0729184 0.02995259-0.109375 0.04492187-0.081513 0.03353508-0.1621272 0.06735605-0.2421875 0.10351563-0.1158733 0.05248969-0.2290533 0.10821862-0.3417969 0.16601562-0.1127727 0.0577387-0.224478 0.1167096-0.3339843 0.1796875-0.4405703 0.2533697-0.8549133 0.5497758-1.2363281 0.8808594-0.0452419 0.03927-0.0884775 0.078811-0.1328126 0.1191406-0.0929209 0.0843723-0.1847676 0.1710678-0.2734374 0.2597656-0.088631 0.0887465-0.1753665 0.1785874-0.2597657 0.2714844-0.1266182 0.1392824-0.2487857 0.2834156-0.3652343 0.4316406-0.2329169 0.2963432-0.4438698 0.610926-0.6328126 0.9394531-0.0629873 0.10948-0.1239282 0.2192854-0.1816406 0.3320313-0.0288611 0.0563778-0.0563908 0.1127762-0.08398435 0.1699219-0.08268311 0.1715052-0.16016861 0.3472756-0.23046875 0.5253906-0.02340088 0.0593911-0.04632354 0.119616-0.06835938 0.1796875-0.0880458 0.2402959-0.16396819 0.4856898-0.22851562 0.7363281-0.0318837 0.1251102-0.06175964 0.251298-0.08789062 0.3789063v0.0019531c-0.026131 0.127686-0.04856614 0.2549703-0.06835938 0.3847656-0.01979324 0.1298829-0.03537262 0.2606734-0.04882812 0.3925782-0.02681352 0.2636926-0.04101563 0.5318875-0.04101563 0.8027343 0 0.270808 0.01420211 0.5389931 0.04101563 0.8027344 0.013358 0.1318561 0.02893737 0.2627245 0.04882812 0.3925781 0.01979324 0.1298051 0.04232589 0.2591105 0.06835938 0.3867188 0.02613098 0.1276083 0.05571441 0.2536304 0.08789062 0.3789066 0.06454743 0.250638 0.14049907 0.496032 0.22851562 0.736328 0.04397417 0.120114 0.09103464 0.238192 0.140625 0.355469 0.04953188 0.117265 0.10318181 0.233325 0.15820313 0.347656 0.02749605 0.057155 0.05512325 0.115477 0.08398435 0.171875 0.0577222 0.112717 0.118624 0.222522 0.1816406 0.332031 0.188933 0.328527 0.3999152 0.643032 0.6328126 0.939453 0.1164681 0.148177 0.2386161 0.2923 0.3652343 0.431641 0.0844382 0.092926 0.1709885 0.182786 0.2597657 0.271484 0.0887283 0.088747 0.1805652 0.175335 0.2734374 0.259766 0.4179106 0.37985 0.8763182 0.714651 1.3691407 0.998047 0.1095161 0.06289 0.2212116 0.123921 0.3339843 0.18164 0.2255164 0.115516 0.4558307 0.22073 0.6933594 0.314453 0.1187205 0.046852 0.2398385 0.091706 0.3613282 0.132813 0.7897699 0.267279 1.6355958 0.412109 2.515625 0.412109 0.5999693 0 1.1846968-0.06783 1.7460937-0.195312 0.2620315-0.059586 0.5181575-0.131744 0.7695315-0.216797 0.121519-0.04102 0.2425-0.086029 0.361328-0.132813 0.237499-0.093606 0.469796-0.198888 0.695312-0.314453 0.112773-0.057738 0.222574-0.116738 0.332032-0.179687 0.492851-0.283347 0.953183-0.620198 1.371093-1 0.092921-0.08447 0.182786-0.171068 0.271485-0.259766 0.088728-0.088649 0.175347-0.178616 0.259765-0.271484 0.126589-0.139283 0.248815-0.283416 0.365235-0.431641 0.184282-0.234464 0.354698-0.479576 0.511719-0.734375 0.041536-0.067362 0.083557-0.136307 0.123046-0.205078 0.062988-0.109451 0.121975-0.219256 0.179688-0.332031 0.028861-0.056378 0.058344-0.11473 0.085937-0.171875 0.055187-0.114282 0.10665-0.230332 0.15625-0.347656 0.04963-0.117326 0.09669-0.235287 0.140625-0.355469 0.088046-0.240296 0.163978-0.485729 0.228516-0.736328 0.032274-0.1253637 0.06176-0.2512983 0.087891-0.3789066 0.026033-0.1277152 0.050421-0.2568943 0.070312-0.3867188 0.019793-0.1298536 0.035373-0.2606929 0.048828-0.3925781 0.026814-0.2636829 0.041016-0.5318876 0.041016-0.8027344 0-0.2708079-0.014202-0.5390514-0.041016-0.8027343-0.013455-0.1319145-0.028937-0.2626953-0.048828-0.3925782-0.019793-0.129805-0.044181-0.2571573-0.070312-0.3847656s-0.055617-0.2556131-0.087891-0.3808594c-0.064547-0.2506091-0.140528-0.4960322-0.228516-0.7363281-0.021938-0.0600715-0.045056-0.1202672-0.068359-0.1796875-0.070203-0.178115-0.145872-0.3519323-0.228516-0.5234375-0.027496-0.0571554-0.057076-0.1135246-0.085937-0.1699219-0.057722-0.1127459-0.116681-0.2244946-0.179688-0.3339844-0.188942-0.3285563-0.401868-0.6430321-0.634765-0.9394531-0.116468-0.1481667-0.238587-0.2922999-0.365235-0.4316406-0.08434-0.092829-0.171017-0.1827865-0.259765-0.2714844-0.088631-0.0887464-0.178612-0.1753641-0.271485-0.2597656-0.179894-0.1635248-0.367931-0.3184558-0.5625-0.4648437-0.257429-0.1937066-0.527939-0.3717974-0.808593-0.5332032-0.109507-0.0628904-0.219308-0.1239311-0.332032-0.1816406-0.051287-0.0262448-0.102424-0.0510935-0.154297-0.0761719-0.062304-0.03013293-0.12628-0.06136321-0.189453-0.08984372-0.026423-0.011956-0.053557-0.02153875-0.080078-0.03320313-0.089996-0.03956168-0.179743-0.07907481-0.271484-0.11523437-9.75e-4 -5.2491e-4 -0.002931-9.4222e-4 -0.003906-0.00195313-0.097719-0.03839524-0.197266-0.07470264-0.296875-0.109375-0.020086-0.00680422-0.040266-0.01468016-0.060547-0.02148437-0.232273-0.07863735-0.46946-0.14633893-0.7109378-0.203125-0.0754678-0.01778819-0.1503048-0.03317843-0.2265624-0.04882813-0.0549922-0.01127556-0.1106628-0.02319119-0.1660157-0.03320313-0.4126257-0.07504082-0.8351591-0.11726262-1.2675781-0.125-0.0476793-8.7482e-4 -0.0966082-0.00195312-0.1445312-0.00195312zm0 0.421875c0.5073213 0 1.0033668 0.05100108 1.4824218 0.1484375-0.0200857 0.05287851-0.0853111 0.02912308-0.140625 0.0546875-0.0518719 0.02410638-0.071805 0.07358363-0.1269531 0.08398438-0.1532758 0.02886933-0.2794556-0.03806329-0.4121094-0.03320313-0.0058502 0.05734985 0.0640108 0.09092589 0.0996094 0.10937495 0.1202318 0.0629878 0.2191715 0.0545722 0.3886719 0.0507813 0.0868757-0.0019441 0.1870797 0.0259326 0.2617187-0.0253906 0.0472893-0.0322715 0.0443979-0.10502791 0.0839844-0.14453128 0.0168681-0.01671893 0.0404733-0.03258612 0.0683594-0.046875 0.0832681 0.01963505 0.1657925 0.04004608 0.2480471 0.0625-0.0138461 0.05676665-0.1042892 0.04315699-0.105469 0.11914058 0.0585997 0.0351877 0.195346-0.0181506 0.248047-0.07812495 0.020378 0.00583219 0.040266 0.01145432 0.060547 0.01757813 0.119217 0.03625676 0.236872 0.07522492 0.353515 0.11718752 0.166264 0.0598771 0.329675 0.1261129 0.490235 0.1972656-0.030811 0.018177-0.064691 0.0411128-0.091797 0.0410156-0.069715-4.374e-4 -0.098081-0.0930036-0.175781-0.0585937-0.006826 0.0901073 0.095482 0.1263463 0.160156 0.1679687 0.070008 0.0451023 0.143076 0.0895842 0.167969 0.1679688-0.068545 0.1453187-0.178559-0.0068405-0.28711-0.0078125-0.119627-8.554e-4 -0.292581 0.2263237-0.394531 0.0410156 0.025351-0.0981849 0.133694-0.1140065 0.160156-0.2109375-0.023303 0.0038881-0.045933 0.0124445-0.068359 0.0214844-0.040074 0.0158441-0.080211 0.0366258-0.121094 0.0585937-0.053627 0.0288694-0.109944 0.0579768-0.173828 0.0722656-0.058795 0.0129282-0.115444 0.0101298-0.167969 0.0253907-0.1008476 0.0295497-0.1726081 0.1032303-0.2792966 0.1425781-0.0416341 0.0152609-0.0914253 0.0109074-0.1347656 0.0253906-0.101755 0.0339239-0.2231624 0.0955091-0.328125 0.1523438-0.1073127 0.057933-0.2282879 0.1179842-0.2949219 0.1757812-0.0359789 0.0310078-0.1301904 0.1407104-0.1269531 0.1757813 0.0039001 0.0500596 0.0992029 0.0679534 0.1015624 0.1191406-0.00195 0.0310078-0.055507 0.0975342-0.0175781 0.1425781 0.0345163 0.0410197 0.1044701 0.0085382 0.1777344 0.0175782 0.1287828 0.0159413 0.2137093 0.1212794 0.3125 0.1757812 0.0746878 0.0412141 0.1851905 0.090909 0.2695313 0.1015625 0.1157856 0.0144833 0.2459334-0.0340408 0.2617182 0.0585937 0.01531 0.0890382-0.110199 0.1199089-0.1191401 0.1757813 0.0624023 0.0822339-0.0413082 0.1212735-0.0410157 0.1933594 2.732e-4 0.0583219 0.0719831 0.1470559 0.1347657 0.1523437 0.0849261 0.0068042 0.2088541-0.0832562 0.2441401-0.1679687 0.041928-0.1009358 0.024525-0.238995 0.101563-0.3125 0.392745 0.0107895 0.724531-0.1777058 0.699219-0.5800781-0.002925-0.0397562-0.025964-0.0910923-0.017578-0.1347657 0.012285-0.0650289 0.124254-0.1189379 0.109375-0.2011719 0.042316-0.0130252 0.068198-0.047445 0.089843-0.0859374 0.032274-0.05735 0.057126-0.1229036 0.117188-0.1445313 0.0039-0.0019441 0.007136-0.0029341 0.011719-0.0039063 0.034321-0.0077762 0.071621-0.0013446 0.109375 0.0097657 0.067277 0.0198294 0.140418 0.0542715 0.220703 0.0488281 0.040854-0.0029161 0.093707-0.0390353 0.134765-0.0332031 0.082391 0.0114699 0.131455 0.1112054 0.19336 0.1582031 0.054699 0.0417973 0.11299 0.028287 0.126953 0.0839844-0.016186 0.0934122-0.081437 0.0978411-0.076172 0.1835937v0.0019531c0.00585 0.0770822 0.086918 0.1369009 0.126953 0.1445313 0.061427 0.01147 0.149608-0.0216202 0.210938-0.0507813 0.066205-0.0312994 0.125764-0.0994866 0.183593-0.1464843 0.082586 0.0633764 0.164246 0.1287089 0.244141 0.1953125 0.008775 0.0374232 0.014653 0.0709072 0.017578 0.09375 0.011798 0.0909821-0.011323 0.1604001-0.007812 0.2441406 0.010823 0.1418583 0.189239 0.1268406 0.277343 0.2011719 0.026521 0.0225511 0.036558 0.0800779 0.058594 0.109375 0.042804 0.056961 0.094923 0.0583886 0.101563 0.1191406 0.015795 0.1453187-0.130985 0.1561857-0.117188 0.3183594-0.030421 0.0628904-0.107764 0.0606644-0.101562 0.1445312 0.00975 0.1328184 0.200052 0.0311178 0.251953 0.1347657 0.028081 0.0556973-0.004915 0.0963662-0.025391 0.1757812 0.065425 0.0777625 0.066519 0.2010066-0.048828 0.2011719-0.070105 0-0.089271-0.0743003-0.160156-0.0917969-0.039392-0.0098175-0.094345-0.0085382-0.144532-0.0175781-0.042901-0.0077763-0.094116-0.0205304-0.134765-0.0253907-0.104046-0.0123447-0.215819 0.0188616-0.277344-0.0410156 0.100292-0.1329836 0.23238-0.2643815 0.361328-0.3789062 0.038319-0.0342155 0.121083-0.0584151 0.101563-0.1269532-0.071763-0.0628904-0.158866 0.0048652-0.226563 0.0429688-0.07108 0.0399505-0.156121 0.0974773-0.236328 0.109375-0.139391 0.0206071-0.325559-0.0410601-0.439453 0.0332031-0.015698 0.0634737 0.129636 0.0389621 0.109375 0.1347657-0.055772 0.0087482-0.10746 0.0135878-0.150391-0.0253907-0.039196-0.0351875-0.017617-0.0881458-0.042968-0.109375-0.043194-0.0357707-0.204792-0.0451591-0.277344-0.0332031-0.088533 0.0143861-0.167506 0.0669832-0.177734 0.1425781 0.106356 0.049768 0.28173-0.0508726 0.320312 0.0761719-0.058307 0.1047072-0.194209 0.1623439-0.175781 0.3027344 0.006825 0.0542393 0.070805 0.1267075 0.117187 0.1347656 0.046607 0.0077763 0.072151-0.0374801 0.117188-0.0332031 0.047679 0.0048601 0.037783 0.0570904 0.09375 0.0488281 0.081123-0.0346043 0.1258-0.147866 0.21875-0.1425781 0.111534 0.1351707-0.100469 0.2012643-0.21875 0.2441406-0.134906 0.048796-0.311294 0.0759338-0.414063 0.1191406-0.053919 0.0224539-0.256334 0.2184806-0.285156 0.0664063-0.020573-0.1096743 0.099474-0.0777059 0.125-0.1679688-0.13046-0.02537-0.25042 0.05647-0.369141 0.1015625-0.169393 0.0639597-0.457163 0.1030144-0.498046 0.2929688-0.007802 0.0380064 0.015585 0.1094247-0.009766 0.1347656-0.020183 0.0204127-0.140551 0.0250834-0.19336 0.0429687-0.081318 0.0278975-0.152891 0.086069-0.203124 0.0996094-0.03793 0.0104008-0.093153 0.0083438-0.117188 0.0175782-0.066985 0.0259532-0.0911163 0.1156222-0.1679688 0.1757812-0.0314936 0.0245924-0.1018946 0.0435726-0.1269531 0.0683594-0.0436816 0.0433526-0.0499642 0.1517066-0.1269531 0.1679687-0.0489468 0.0038882-0.0886854-0.035807-0.1347656-0.0078125-0.0058502 0.1073123 0.0388917 0.2528299-0.0078125 0.3613282-0.099834 0.0812618-0.2101802 0.1373359-0.3378907 0.2089843-0.0705926 0.0397561-0.1334439 0.0510778-0.21875 0.09375-0.0605497 0.030133-0.1159292 0.1015681-0.1855468 0.1425781-0.1609201 0.0945788-0.354754 0.2058428-0.3535156 0.4453126 2.73e-4 0.0518092 0.0265728 0.1093546 0.0332031 0.1699218 0.0039001 0.0356736-0.0039002 0.0704452 0 0.109375 0.0100429 0.0879689 0.0738102 0.1990137 0 0.2597656-0.1134553-0.046463-0.2585421-0.0619286-0.3378907-0.1425781-0.0217433-0.0830115 0.0451992-0.1509384 0.0351563-0.2265625-0.0078003-0.0607519-0.0947555-0.1699483-0.1445313-0.1777344-0.0512869-0.0077762-0.0974461 0.0472457-0.1503906 0.0429688-0.0629873-0.0048602-0.1222359-0.0922018-0.203125-0.1015625-0.1185547-0.0138028-0.2065824 0.0260867-0.3378906 0.0078125-0.1271155 0.0677506-0.162568 0.1896612-0.3183594 0.1777344-0.0548945-0.0038882-0.1065055-0.0455686-0.1699218-0.0585938-0.0687402-0.0141916-0.172573-0.0401136-0.2441407-0.0351562-0.1434766 0.0097203-0.2478491 0.1138232-0.3710937 0.1777344-0.1087459 0.0565722-0.2626287 0.1269525-0.2949219 0.2441406-0.0177457 0.0630848-0.0029648 0.150604-0.0253906 0.2089844-0.0149181 0.0383952-0.046418 0.0728362-0.0664063 0.109375-0.094481 0.1723217-0.1732862 0.4005695-0.1015625 0.6484374 0.0106279 0.0367429 0.1038887 0.2452149 0.1425781 0.2871094 0.0434868 0.0465603 0.1711592 0.1159044 0.2441407 0.1171875 0.0617198 9.721e-4 0.1354842-0.0322764 0.1953125-0.0429687 0.0693251-0.0123448 0.1557431-0.013082 0.21875-0.0332032 0.1822246-0.0582246 0.1457054-0.3038239 0.328125-0.3867187 0.0796605-0.0359652 0.172475-0.0435881 0.3125-0.0507813 0.0444616 0.0373262 0.0647365 0.1032633 0.0585937 0.1601563-0.0048752 0.0429638-0.046421 0.0813207-0.0683593 0.1425781-0.0191109 0.0536562-0.0221 0.1168426-0.0410157 0.1601563-0.0250584 0.0566694-0.081467 0.0990181-0.1015625 0.1523437-0.013163 0.0347015-0.0047046 0.0780562-0.015625 0.109375-0.0194032 0.0554058-0.0949657 0.093381-0.0605468 0.1503906 0.1804695 0.0716389 0.3991527-0.0193953 0.5566406 0.0097657 0.0664975 0.0120532 0.2043633 0.0910822 0.203125 0.1933593-8.191e-4 0.076499-0.0600716 0.1252245-0.0683594 0.2089844-0.0102379 0.1052905-0.0539135 0.2350654-0.0585938 0.3203125-0.0078002 0.1396129 0.2046861 0.3808209 0.3535157 0.3789059 0.1602277-0.001944 0.2542181-0.1596593 0.4472656-0.0761715 0.0640599 0.0276057 0.1323861 0.1320855 0.203125 0.1269535 0.0583072-0.003889 0.1446118-0.1071555 0.1835937-0.1777348 0.0474844-0.0860247 0.0509223-0.1577901 0.1347657-0.2011718 0.0904834-0.0467547 0.1635306-0.0252984 0.2792969-0.0683594 0.0516769-0.019149 0.0960006-0.0518101 0.1425781-0.0839844 0.040854-0.0279945 0.0838199-0.1017059 0.1347656-0.0507812 0.0672775 0.0670701-0.0824303 0.1059206-0.0253906 0.1777344 0.1169166 0.0618211 0.1770563-0.1144949 0.2617187-0.1171876 0.0270085-8.456e-4 0.1199092 0.0522962 0.1679688 0.0839844 0.0657174 0.043061 0.0882278 0.1031514 0.1601562 0.1171875 0.0462164 0.0087483 0.1205894-0.016658 0.1855474-0.0078125 0.085998 0.0122476 0.137953 0.0859285 0.203124 0.0839844 0.079369-0.0019441 0.117578-0.088965 0.185547-0.1015625 0.148771-0.0272169 0.204029 0.0165946 0.269532 0.109375 0.07342 0.0127336 0.075368-0.0851912 0.142578-0.0507813-0.036857 0.0732913 0.013424 0.1067989 0.042969 0.1679688 0.01911 0.0392701 0.015359 0.066974 0.033203 0.083984 0.040171 0.038298 0.118783 0.038943 0.177734 0.076172 0.062207 0.039076 0.096606 0.111515 0.167969 0.19336 0.07342 0.083692 0.196872 0.17162 0.294922 0.177734 0.092628 0.005832 0.167561-0.027007 0.24414-0.017578 0.174356 0.021385 0.28231 0.107448 0.404297 0.201172 0.068155 0.052295 0.130464 0.089695 0.152344 0.152344 0.015405 0.043741 0.007839 0.101341 0.025391 0.15039 0.037246 0.104795 0.190118 0.156792 0.134765 0.337891 0.025351 0.05317 0.081473 0.072204 0.142578 0.109375 0.04885 0.029744 0.091607 0.091094 0.144531 0.099609 0.034225 0.005832 0.071922-0.009465 0.101563-0.007812 0.095846 0.006804 0.161087 0.044094 0.244141 0.076171 0.051482 0.019831 0.116118 0.02755 0.15039 0.050782 0.042804 0.028869 0.048804 0.124836 0.101563 0.15039 0.034516 0.016719 0.112482-0.006804 0.169922 0 0.090483 0.010401 0.213194 0.066804 0.294921 0.06836 0.049631 9.72e-4 0.090753-0.02098 0.134766-0.017578 0.10233 0.007776 0.182341 0.072367 0.261719 0.144531-1.015335 1.636862-2.648938 2.852154-4.5722658 3.316406-0.0068252-0.073777-0.0280322-0.149151-0.03125-0.222656-0.0068252-0.159909 0.0187085-0.272164-0.0078124-0.419922-0.0195984-0.111764-0.0455709-0.283189-0.0859376-0.353516-0.0451441-0.078248-0.221214-0.210056-0.3105468-0.259765-0.0589897-0.032661-0.1291142-0.044581-0.1933594-0.076172-0.1372559-0.067265-0.4045961-0.209949-0.4648438-0.345703-0.0174531-0.039076-0.0144824-0.091141-0.0332031-0.134766-0.0365638-0.086219-0.1132887-0.160982-0.1679687-0.244141-0.1041047-0.158674-0.1880774-0.357638-0.2949219-0.521484-0.054017-0.083206-0.1009324-0.177867-0.1601563-0.24414-0.0347113-0.039077-0.1459012-0.075958-0.1601562-0.134766-0.0190132-0.07786-0.0775247-0.184584-0.0683594-0.244141 0.012188-0.08029 0.1682125-0.143525 0.1679688-0.216797-2.73e-4 -0.06221-0.0821465-0.099504-0.0996094-0.152343-0.0425116-0.128561 0.0234192-0.203478 0.0742188-0.310547 0.0167706-0.035188 0.033328-0.093197 0.0507812-0.119141 0.0309087-0.046269 0.0936093-0.059267 0.1347656-0.109375 0.0230109-0.028092 0.0383283-0.085273 0.0683594-0.125 0.0640599-0.084955 0.1670041-0.116676 0.1933594-0.193359 0.0214508-0.062502 0.035019-0.375946 0.0097656-0.480469-0.0146255-0.060558-0.0722017-0.110668-0.09375-0.167969-0.0381239-0.101528-0.0456717-0.2131244-0.1503906-0.2109372-0.064645 9.72e-4 -0.1108072 0.0740382-0.1523438 0.1191402-0.0099453 0.059975-0.0057619 0.124265-0.0683594 0.142578-0.0958461 0.028288-0.1323526-0.100929-0.2441406-0.134765-0.0444616-0.013511-0.1147506-0.012949-0.1425781-0.025391-0.0816106-0.036548-0.1073514-0.1548641-0.1933594-0.2011716-0.0719577-0.0383953-0.1341405-0.0249821-0.1777343-0.0839844-0.0181358-0.0406309-0.0048905-0.1154978-0.0097657-0.1699219-0.0923359-0.0539477-0.1697777-0.2552506-0.2773437-0.3027343-0.0712752-0.0316884-0.1803349-0.0283636-0.2695313-0.0585938-0.0419266-0.0141917-0.0753225-0.0315869-0.1191406-0.0410156-0.054017-0.0120532-0.1085518-0.0141604-0.1503906-0.0351563-0.1668775-0.0826226-0.2562315-0.3494752-0.4628907-0.34375-0.0881433 0.0019441-0.1740312 0.0844704-0.2539062 0.0839844-0.079368-4.374e-4 -0.2129098-0.0632521-0.3125-0.109375-0.1034514-0.0480183-0.2174089-0.0736405-0.3027344-0.1171875-0.0689351-0.0351875-0.1174965-0.1002514-0.1777344-0.1269531-0.0461192-0.0204127-0.1125494-0.0231302-0.1503906-0.0410157-0.053822-0.0254672-0.1107297-0.0804219-0.1777344-0.1269531-0.0635723-0.0439358-0.1322695-0.1110466-0.1347656-0.1679687-0.0029251-0.0659038 0.0615341-0.1222093 0.0683594-0.1855469 0.0217433-0.2003454-0.1276456-0.3445264-0.2207031-0.4628906-0.0689351-0.0879689-0.1496004-0.1627329-0.21875-0.2441407 0.0039001-0.0540449 0.0039001-0.0632494 0-0.1171874-0.0523595-0.0507402-0.0970104-0.1271219-0.1523438-0.203125-0.0500194-0.0685284-0.1456251-0.1418721-0.1582031-0.21875-0.0155031-0.0945788 0.0359789-0.1758087 0-0.2675782-0.0599648-0.1522881-0.273346-0.0841785-0.2460938 0.1171875 0.0078004 0.055503 0.0857012 0.1305202 0.109375 0.1855469 0.0242786 0.0560862 0.0203479 0.1257935 0.0429688 0.1933594 0.0217433 0.0647373 0.0867737 0.1204277 0.109375 0.1933594 0.0357838 0.1151857 0.0355006 0.2385485 0.0683594 0.3105468 0.0289586 0.0639597 0.1340372 0.125693 0.0742187 0.203125-0.079758 0.0165246-0.108603-0.0630577-0.1582031-0.109375-0.027691-0.0257588-0.1292817-0.0748301-0.1445312-0.1347656-0.0127731-0.0494764 0.0323011-0.1171671 0.0175781-0.1777344-0.0289586-0.1187239-0.268683-0.121966-0.2695313-0.2441406-4.387e-4 -0.0766933 0.0987026-0.086 0.0996094-0.1601562 6.533e-4 -0.0811648-0.11077-0.1499302-0.1347656-0.21875-0.0219383-0.063085-0.0250127-0.163197-0.0332032-0.2519532-0.0078002-0.0833031 0.0014351-0.1798699-0.0175781-0.2441406-0.0172581-0.0578359-0.1043646-0.1369317-0.1601562-0.1679688-0.0738103-0.0410197-0.1318339-0.0239128-0.1679688-0.0839843-0.0313962-0.0524897-0.0517685-0.1621778-0.0585937-0.21875-0.012188-0.101169-0.0039154-0.2123393-0.0097656-0.3203125-0.0058504-0.1081385-0.0165758-0.2119187 0-0.328125 0.0417315-0.081359 0.119588-0.1205613 0.1621093-0.2011719 0.0296411-0.0560862 0.0329625-0.1258836 0.0664063-0.1855469 0.0617198-0.1098881 0.1966844-0.2100361 0.2871094-0.3183594 0.0975036-0.1166923 0.1870814-0.2298893 0.2441406-0.3632812 0.0204757-0.0473379 0.074304-0.1509347 0.0664062-0.2089844-0.0111154-0.080873-0.1624518-0.147822-0.1503906-0.2441406 0.0078003-0.0596827 0.0918658-0.0602452 0.1171875-0.1191406 0.012968-0.0304246 0.0247081-0.1140853 0.0253906-0.1503906 9.751e-4 -0.0811648-0.0417712-0.1652869-0.0253906-0.2519532 0.0138455-0.0739716 0.1249895-0.1043628 0.0683594-0.1855468-0.0561621-0.0803871-0.1585446 0.0423352-0.2207031-0.0097657-0.0570398-0.0478239 0.0123129-0.1053711 0.0175781-0.1933593 0.00195-0.0349933-0.0212834-0.0736951-0.0175781-0.0996094 0.0048751-0.0376176 0.0800476-0.1016997 0.0605468-0.1269532-0.0304211-0.0384924-0.0636586-0.1156604-0.1113281-0.1777343 0.9400816-0.7519829 2.0669961-1.2822533 3.2988281-1.5058594h0.0019532c0.015308 0.02605044 0.0269142 0.0569866 0.0644531 0.06835938 0.0734202-0.03800644 0.1476266 0.00291609 0.2285156 0 0.078783-0.00291611 0.1494914-0.03899907 0.2363281-0.02539063 0.153461 0.02400917 0.367367 0.17513819 0.4882813 0.09375 0.0304211-0.02060706 0.0232852-0.05801219 0.0507812-0.11132813 0.0218408-0.04267217 0.0552086-0.08805753 0.0761719-0.140625 0.0611348-0.00194406 0.1221761-0.00195312 0.1835938-0.00195312z" style="fill:#dfdfdf"/>
</svg>
