<?xml version="1.0" encoding="UTF-8"?>
<svg id="svg6" version="1.1" viewBox="0 0 16 16" xmlns="http://www.w3.org/2000/svg">
 <defs id="defs3051">
  <style id="current-color-scheme" type="text/css">.ColorScheme-Text {
        color:#dfdfdf;
      }</style>
 </defs>
 <path id="path4" class="ColorScheme-Text" d="m11.945691 1c-2.5570578 0-3.0371238 4.1482794-1.598635 4.1482794 1.438279 0 4.155795-4.1482794 1.598635-4.1482794zm-4.0790097 0.5189777c-1.4390074 0.212737-0.9326182 3.0623648-0.1663949 3.1156378 0.7659116 0.053273 1.6059221-3.3283747 0.1663949-3.1156378zm-2.4119494 1.1212045c-0.063104 0.00763-0.129887 0.028025-0.2021621 0.061994-1.1566107 0.5436211-0.1751948 2.786449 0.4727482 2.6356272 0.6079339-0.1411735 0.6759804-2.8120506-0.2705861-2.6976212zm-1.7961326 1.7553138c-0.1005613-0.00385-0.2092287 0.034692-0.3250145 0.1257592-0.9258706 0.7286565 0.3121227 2.4888348 0.8568564 2.2158402 0.4766419-0.238974 0.1720869-2.3146167-0.5318419-2.3415994zm5.2873167 1.3461539c-1.9849434-0.038248-4.6028482 1.0965236-5.0493875 3.374241-0.4836187 2.4648831 1.9901794 5.8841101 4.5719739 5.8841091 1.2701101 0 2.7350236-1.304989 3.0091056-2.959767 0.209328-1.26186-2.4628899-0.757031-2.3668521 0.07794 0.1150583 1.000823-0.6447173 1.495398-1.3886982 0.850202-2.3684119-2.053857 3.9213403-3.078164 3.5067353-5.8841136-0.129051-0.8734112-1.091911-1.3196624-2.282877-1.3426115z" style="color:#dfdfdf;fill:#dfdfdf"/>
</svg>
