<?xml version="1.0" encoding="UTF-8"?>
<svg version="1.1" viewBox="0 0 48 48" xmlns="http://www.w3.org/2000/svg" xmlns:xlink="http://www.w3.org/1999/xlink">
<defs>
<style id="current-color-scheme" type="text/css">.ColorScheme-Text {
        color:#4d4d4d;
      }</style>
<style type="text/css">.ColorScheme-Text {
        color:#4d4d4d;
      }</style>
<style type="text/css">.ColorScheme-Text {
        color:#4d4d4d;
      }</style>
<style type="text/css">.ColorScheme-Text {
        color:#4d4d4d;
      }</style>
<linearGradient id="linearGradient1077-3-5-9-7" x1="23.874783" x2="23.874783" y1="31.304348" y2="15.902994" gradientTransform="matrix(2.4285714 0 0 2.875 -35.285714 -45)" gradientUnits="userSpaceOnUse">
<stop stop-color="#1b8bf3" offset="0"/>
<stop stop-color="#20b8f9" offset="1"/>
</linearGradient>
</defs>
<g>
<path d="m6 2.0001428v43.999714h36v-43.999714zm2.8333334 3.2857144h3.6666666v7.2141428h-3.6666666zm26.666667 0h3.6666666v7.2141428h-3.6666665zm-26.666667 10.499857h3.6666666v6.5714286h-3.6666666zm26.666667 0h3.6666666v6.5714286h-3.6666665zm-26.666667 9.8571428h3.6666666v6.5714286h-3.6666666zm26.666667 0h3.6666666v6.5714286h-3.6666665zm-26.666667 9.8571428h3.6666666v7.2141429h-3.6666666zm26.666667 0h3.6666666v7.2141429h-3.6666666z" fill="url(#linearGradient1077-3-5-9-7)"/>
<path d="m20 17v4h8v-4zm0 6v2h-3l7 6 7-6h-3v-2z" fill="#ffffff" stroke-width="1.5455245"/>
</g>
</svg>
