<?xml version="1.0" encoding="UTF-8"?>
<svg id="svg31" version="1.1" viewBox="0 0 48 48" xmlns="http://www.w3.org/2000/svg" xmlns:xlink="http://www.w3.org/1999/xlink">
 <defs id="defs35">
  <linearGradient id="linearGradient891" x1="-31.749992" x2="-31.749992" y1="47.293053" y2="3.2930527" gradientTransform="translate(55.750001,-1.2929688)" gradientUnits="userSpaceOnUse">
   <stop id="stop885" style="stop-color:#e63a3a" offset="0"/>
   <stop id="stop887" style="stop-color:#fd7171" offset="1"/>
  </linearGradient>
 </defs>
 <path id="rect883" d="m7 2v44h34v-29.171875l-13.414062-13.414063-1.414063-1.4140624z" style="fill:url(#linearGradient891);paint-order:stroke fill markers"/>
 <path id="rect893" d="m29 2 12 12v-12z" style="fill:#ec3f3f;paint-order:stroke fill markers"/>
 <path id="path26" d="m36.466797 12.294922c-1.391592 1.132296-2.724753 2.461975-4 4-1.602 1.942-3.058141 4.150953-4.369141 6.626953-1.262 2.427-2.208844 4.951266-2.839844 7.572266-0.679999 2.621-0.970046 5.019984-0.873046 7.208984 0.146 2.136 0.605812 3.931672 1.382812 5.388672 0.698385 1.308685 1.644091 2.265938 2.8125 2.908203h7.064453c1.187604-0.462288 2.384965-1.102012 3.59375-1.960938 0.604-0.433999 1.187719-0.90839 1.761719-1.40039v-4.570313c-0.362 0.282-0.731469 0.550782-1.105469 0.800782-1.456 0.922-2.864609 1.457515-4.224609 1.603515-1.408 0.146-2.596405-0.09847-3.566406-0.730468-0.971-0.631001-1.723813-1.577844-2.257813-2.839844-0.485-1.262-0.728515-2.765672-0.728515-4.513672 0-1.796 0.291046-3.739172 0.873046-5.826172 0.583-2.087 1.408563-4.077703 2.476563-5.970703 1.068001-1.942 2.23214-3.640656 3.494141-5.097656 0.599739-0.688489 1.210152-1.308538 1.830078-1.875z" style="fill:#ffffff"/>
</svg>
