<?xml version="1.0" encoding="UTF-8"?>
<svg version="1.1" viewBox="0 0 48 48" xmlns="http://www.w3.org/2000/svg" xmlns:xlink="http://www.w3.org/1999/xlink">
<defs>
<linearGradient id="linearGradient870" x1="23.375105" x2="23.375105" y1="47.291664" y2="3.3747985" gradientTransform="translate(-45.762716,-1.016949)" gradientUnits="userSpaceOnUse">
<stop stop-color="#3bd450" offset="0"/>
<stop stop-color="#52ef84" offset="1"/>
</linearGradient>
</defs>
<g>
<path d="m47 24a23 23 0 0 1-23 23 23 23 0 0 1-23-23 23 23 0 0 1 23-23 23 23 0 0 1 23 23z" fill="url(#linearGradient870)" style="paint-order:fill markers stroke"/>
<path d="m17.275862 16.758621h13.448276v1.5517241h-13.448276z" color="#000000" color-rendering="auto" dominant-baseline="auto" fill="#ffffff" image-rendering="auto" shape-rendering="auto" solid-color="#000000" style="font-feature-settings:normal;font-variant-alternates:normal;font-variant-caps:normal;font-variant-ligatures:normal;font-variant-numeric:normal;font-variant-position:normal;isolation:auto;mix-blend-mode:normal;paint-order:fill markers stroke;shape-padding:0;text-decoration-color:#000000;text-decoration-line:none;text-decoration-style:solid;text-indent:0;text-orientation:mixed;text-transform:none;white-space:normal"/>
<path d="m18.827586 18.827586h10.344828v16.293103c0 0.46668989-0.0940171 0.90884338-0.26367187 1.3112877-0.16967884 0.40250129-0.41454711 0.76408913-0.71827856 1.0678206-0.30391964 0.30391963-0.66563369 0.5497425-1.0678206 0.7192888-0.4023118 0.16959894-0.84560807 0.26367187-1.312298 0.26367187h-3.6206897c-0.46668989 0-0.90998614-0.0940729-1.312298-0.26367187-0.40218688-0.16954631-0.76390094-0.41536916-1.0678206-0.7192888-0.30373145-0.30373144-0.54859972-0.66531929-0.71827856-1.0678206-0.16965481-0.40244434-0.26367187-0.84459783-0.26367187-1.3112877v-3.362069h2.0689655v-0.51724138h-2.0689655v-1.0344828h3.1034483v-0.51724138h-3.1034483v-1.0344828h2.0689655v-0.51724138h-2.0689655v-1.0344828h3.1034483v-0.51724138h-3.1034483v-1.0344828h2.0689655v-0.51724138h-2.0689655v-1.0344828h3.1034483v-0.51724138h-3.1034483v-1.0344828h2.0689655v-0.51724138h-2.0689655v-1.0344828h3.1034483v-0.51724138h-3.1034483z" color="#000000" color-rendering="auto" dominant-baseline="auto" fill="#ffffff" image-rendering="auto" shape-rendering="auto" solid-color="#000000" style="font-feature-settings:normal;font-variant-alternates:normal;font-variant-caps:normal;font-variant-ligatures:normal;font-variant-numeric:normal;font-variant-position:normal;isolation:auto;mix-blend-mode:normal;paint-order:fill markers stroke;shape-padding:0;text-decoration-color:#000000;text-decoration-line:none;text-decoration-style:solid;text-indent:0;text-orientation:mixed;text-transform:none;white-space:normal"/>
<path d="m24.205078 9c-0.56826579 0-1.0351563 0.46689046-1.0351562 1.0351562 0 0.56826578 0.46689046 1.0332031 1.0351562 1.0332031 0.56826579 0 1.0351562-0.46493735 1.0351563-1.0332031 0-0.56826578-0.46689047-1.0351562-1.0351563-1.0351562z" color="#000000" color-rendering="auto" dominant-baseline="auto" fill="#ffffff" image-rendering="auto" shape-rendering="auto" solid-color="#000000" style="font-feature-settings:normal;font-variant-alternates:normal;font-variant-caps:normal;font-variant-ligatures:normal;font-variant-numeric:normal;font-variant-position:normal;isolation:auto;mix-blend-mode:normal;paint-order:fill markers stroke;shape-padding:0;text-decoration-color:#000000;text-decoration-line:none;text-decoration-style:solid;text-indent:0;text-orientation:mixed;text-transform:none;white-space:normal"/>
<path d="m21.359375 11.068359c-0.71109805 0-1.2929688 0.58187069-1.2929688 1.2929687 0 0.71109804 0.5818707 1.2929688 1.2929688 1.2929688 0.71109804 0 1.2949219-0.58187072 1.2949219-1.2929688 0-0.71109805-0.58382384-1.2929688-1.2949219-1.2929687z" color="#000000" color-rendering="auto" dominant-baseline="auto" fill="#ffffff" image-rendering="auto" shape-rendering="auto" solid-color="#000000" style="font-feature-settings:normal;font-variant-alternates:normal;font-variant-caps:normal;font-variant-ligatures:normal;font-variant-numeric:normal;font-variant-position:normal;isolation:auto;mix-blend-mode:normal;paint-order:fill markers stroke;shape-padding:0;text-decoration-color:#000000;text-decoration-line:none;text-decoration-style:solid;text-indent:0;text-orientation:mixed;text-transform:none;white-space:normal"/>
<path d="m25.240234 13.138672c-0.5682658 0-1.0351562 0.46493734-1.0351563 1.0332031 0 0.56826579 0.46689047 1.0351562 1.0351563 1.0351562 0.56826578 0 1.0332031-0.46689046 1.0332031-1.0351562 0-0.56826578-0.46493735-1.0332031-1.0332031-1.0332031z" color="#000000" color-rendering="auto" dominant-baseline="auto" fill="#ffffff" image-rendering="auto" shape-rendering="auto" solid-color="#000000" style="font-feature-settings:normal;font-variant-alternates:normal;font-variant-caps:normal;font-variant-ligatures:normal;font-variant-numeric:normal;font-variant-position:normal;isolation:auto;mix-blend-mode:normal;paint-order:fill markers stroke;shape-padding:0;text-decoration-color:#000000;text-decoration-line:none;text-decoration-style:solid;text-indent:0;text-orientation:mixed;text-transform:none;white-space:normal"/>
</g>
</svg>
