<?xml version="1.0" encoding="UTF-8"?>
<svg version="1.1" viewBox="0 0 48 48" xmlns="http://www.w3.org/2000/svg" xmlns:xlink="http://www.w3.org/1999/xlink">
<defs>
<linearGradient id="linearGradient860" x1="-18.532173" x2="-18.532173" y1="55.719997" y2="10.307825" gradientTransform="translate(41.904348 -56.513042)" gradientUnits="userSpaceOnUse">
<stop stop-color="#3ccdfb" offset="0"/>
<stop stop-color="#1c8ef3" offset="1"/>
</linearGradient>
<linearGradient id="linearGradient1301-3-7" x1="-46.576271" x2="-.30630216" y1="24.20339" y2="24.20339" gradientTransform="matrix(0 -.86976835 .86974904 0 3.1302502 3.1209844)" gradientUnits="userSpaceOnUse">
<stop stop-color="#f2f2f2" offset="0"/>
<stop stop-color="#f9f9f9" offset="1"/>
</linearGradient>
</defs>
<clipPath id="l">
<path d="m45.8701 23.99998c0 12.0864-9.79158 21.88437-21.8701 21.88436-12.07852 0-21.87009-9.79796-21.87009-21.88436 0-12.08639 9.79157-21.88435 21.87009-21.88435 12.07852-1e-5 21.8701 9.79795 21.8701 21.88435z"/>
</clipPath>
<g>
<circle transform="scale(1,-1)" cx="24" cy="-24" r="23" fill="url(#linearGradient860)" style="paint-order:fill markers stroke"/>
<path d="m4 24c0-11.08 8.92-20 20-20s20 8.92 20 20-8.92 20-20 20-20-8.92-20-20z" fill="url(#linearGradient1301-3-7)"/>
<path d="m19.757812 12.964844-1.4140625 1.4140625 3.6210938 3.6210938h-7.9648438c-1.108 0-2 0.892-2 2v12c0 1.108 0.892 2 2 2h20c1.108 0 2-0.892 2-2v-12c0-1.108-0.892-2-2-2h-7.9648438l3.6210938-3.6210938-1.4140625-1.4140625-4.2421875 4.2421875zm-4.7578125 7.0351562c6.0318233 0.0297004 11.968177 0 18 0 0.554 0 1 0.446 1 1v10c0 0.554-0.446 1-1 1h-18c-0.554 0-1-0.446-1-1v-10c0-0.554 0.446-1 1-1z" fill="#43b4f7" style="paint-order:fill markers stroke"/>
</g>
</svg>
