<?xml version="1.0" encoding="UTF-8"?>
<svg width="48" height="48" version="1.1" viewBox="0 0 48 48.000001" xmlns="http://www.w3.org/2000/svg" xmlns:xlink="http://www.w3.org/1999/xlink">
<defs>
<linearGradient id="linearGradient851" x1="-33.057392" x2="2.3373909" y1="28.132174" y2="28.132174" gradientTransform="matrix(1.13011 0 0 .69844642 -6.6415078 4.3511822)" gradientUnits="userSpaceOnUse">
<stop stop-color="#253444" offset="0"/>
<stop stop-color="#405a75" offset="1"/>
</linearGradient>
</defs>
<g>
<path transform="rotate(-90)" d="m-40 4h32c2.216 0 4 1.784 4 4v32c0 2.216-1.784 4-4 4h-32c-2.216 0-4-1.784-4-4v-32c0-2.216 1.784-4 4-4z" fill="url(#linearGradient851)" style="paint-order:fill markers stroke"/>
<path d="m23 12v13h-3v2h8v-2h-3v-13zm0 17v7h2v-7z" fill="#b836d8" style="paint-order:fill markers stroke"/>
<path d="m13 12v5h-3v2h8v-2h-3v-5zm0 9v15h2v-15z" fill="#b836d8" style="paint-order:fill markers stroke"/>
<path d="m33 12v7h-3v2h8v-2h-3v-7zm0 11v13h2v-13z" fill="#b836d8" style="paint-order:fill markers stroke"/>
</g>
</svg>
