<?xml version="1.0" encoding="UTF-8"?>
<svg id="svg50" version="1.1" viewBox="0 0 48 48" xmlns="http://www.w3.org/2000/svg" xmlns:xlink="http://www.w3.org/1999/xlink">
 <defs id="defs54">
  <linearGradient id="g-36" x1="71.014915" x2="72.261932" y1="83.189148" y2="17.551149" gradientTransform="matrix(-.27644282 0 0 .27109811 -.53690115 8.4516987)" gradientUnits="userSpaceOnUse">
   <stop id="stop950" stop-color="#197cf1" offset="0"/>
   <stop id="stop952" stop-color="#20bcfa" style="stop-color:#4fcafb" offset="1"/>
  </linearGradient>
  <linearGradient id="linearGradient1122" x1="72.327698" x2="72.327698" y1="14.764459" y2="83.672127" gradientTransform="matrix(-.27644282 0 0 -.27109811 -13.240895 35.58578)" gradientUnits="userSpaceOnUse">
   <stop id="stop1124" stop-color="#cf003b" style="stop-color:#ff0808" offset="0"/>
   <stop id="stop1126" stop-color="#eb678d" style="stop-color:#ff4646" offset="1"/>
  </linearGradient>
  <linearGradient id="linearGradient1237" x1="-25.830509" x2="-25.830509" y1="13.423729" y2="-9.5593224" gradientTransform="matrix(1 0 0 .94578771 50.441406 15.934367)" gradientUnits="userSpaceOnUse">
   <stop id="stop1231" style="stop-color:#3ecdf6" offset="0"/>
   <stop id="stop1233" style="stop-color:#5ad5f7" offset="1"/>
  </linearGradient>
 </defs>
 <path id="rect4159" d="m9 2.7099641c-0.553971 0-1 0.4218497-1 0.9457877v24.59048h32v-24.59048c0-0.523938-0.44603-0.9457877-1-0.9457877z" style="fill:#323438"/>
 <path id="rect4157" d="m9 6.4931151v21.753117h30v-21.753117z" style="fill:url(#linearGradient1237)"/>
 <g id="g1229" transform="matrix(1 0 0 .94578771 50.44067 15.934367)">
  <path id="path71" d="m-19.677086 30.776551 6.858599-6.90881s1.017328-1.028626-0.226351-1.028626h-3.726505v-9.307701c0.02424-0.481549-0.0029-0.522006-0.480397-0.519572h-5.80613c-0.412865-0.04497-0.509236 0.01338-0.50901 0.442194v9.385073l-3.567331-8e-6c-1.149518-2e-6 -0.339118 0.860007-0.339118 0.860007s5.835283 6.45748 6.649178 7.134969c0.585432 0.491013 1.147065-0.05754 1.147065-0.05754z" style="fill:url(#g-36);stroke-width:.36065409"/>
  <path id="path1120" d="m-32.38108 13.260928 6.858599 6.90881s1.017328 1.028626-0.226351 1.028626h-3.726505v9.307701c0.02424 0.481549-0.0029 0.522006-0.480397 0.519572h-5.80613c-0.412865 0.04498-0.509236-0.01338-0.50901-0.442194v-9.385073l-3.567331 7e-6c-1.149518 3e-6 -0.339118-0.860006-0.339118-0.860006s5.835283-6.45748 6.649178-7.134969c0.585432-0.491013 1.147065 0.05754 1.147065 0.05754z" style="fill:url(#linearGradient1122);stroke-width:.36065409"/>
 </g>
 <path id="path46" d="m17.802509 11.74522c-0.06038 0.0062-0.119195 0.02302-0.175167 0.0486-0.223889 0.102608-0.29894 0.325655-0.167117 0.499923l2.253056 2.976016c-2.495487 1.141465-4.280011 3.40232-3.980593 6.873492 4.472054 2.228294 11.874194 2.106785 16.465988 0.07991 0.577951-3.512034-1.382772-5.888103-4.131602-7.038056l2.176537-2.878847c0.131831-0.174267 0.05675-0.397315-0.167117-0.499922-0.223889-0.102599-0.510465-0.04423-0.642304 0.130082l-2.222843 2.93996c-2.120565-0.660422-4.565622-0.652605-6.660477 0.06116l-2.28124-3.015174c-0.09887-0.130706-0.285949-0.195986-0.467121-0.177099z" style="fill-rule:evenodd;fill:#ffffff;stroke-width:.80215162"/>
</svg>
