<?xml version="1.0" encoding="UTF-8"?>
<svg version="1.1" viewBox="0 0 48 48" xmlns="http://www.w3.org/2000/svg">
 <defs>
  <linearGradient id="linearGradient850-3" x1="1.0169487" x2="46" y1="22.966103" y2="22.966103" gradientTransform="rotate(-90,24.525423,23.491525)" gradientUnits="userSpaceOnUse">
   <stop style="stop-color:#fe9e22" offset="0"/>
   <stop style="stop-color:#feb336" offset="1"/>
  </linearGradient>
 </defs>
 <path d="m24 1a23 23 0 0 1 23 23 23 23 0 0 1-23 23 23 23 0 0 1-23-23 23 23 0 0 1 23-23z" style="fill:url(#linearGradient850-3)"/>
 <path d="m24 11c7.179545 0 13 5.820455 13 13 0 7.179546-5.820456 13-13 13-7.179546 0-13-5.820454-13-13 0-7.179545 5.819272-13 13-13zm0 24.266272c6.222271 0 11.266272-5.044 11.266272-11.266272s-5.044-11.266273-11.266272-11.266273c-6.222274 0-11.266273 5.044001-11.266273 11.266273s5.042817 11.266272 11.266273 11.266272zm-4.370364-4.64809 6.123-6.121818c0.335637-0.335636 1.061273-0.309636 1.536364-0.297818 0.965545 0.02482 1.924-0.335637 2.646091-1.05891 1.048272-1.048272 1.523364-2.652 0.614545-4.455454l-2.377819 2.377818c-0.490455-0.134727-1.141637-0.782364-1.277544-1.277545l2.377816-2.377818c-1.823545-0.918273-3.404816-0.434909-4.455453 0.614545-0.711456 0.711455-1.083728 1.669909-1.058909 2.647273 0.01182 0.475091 0.113454 1.220818-0.222182 1.556454l-6.115908 6.127727c-0.380546 0.380546-0.782364 1.440636-0.0201 2.20291 0.765818 0.767 1.688818 0.603908 2.230091 0.06264z" style="fill:#ffffff"/>
</svg>
