<?xml version="1.0" encoding="UTF-8"?>
<svg width="48" height="48" version="1.1" viewBox="0 0 12.7 12.7" xmlns="http://www.w3.org/2000/svg">
 <defs>
  <linearGradient id="linearGradient4575" x1="-26.63039" x2="-26.63039" y1="-100.24435" y2="-55.66119" gradientTransform="matrix(.26458333 0 0 .26458333 13.493749 14.02293)" gradientUnits="userSpaceOnUse">
   <stop style="stop-color:#53e418" offset="0"/>
   <stop style="stop-color:#80ed54" offset="1"/>
  </linearGradient>
 </defs>
 <circle transform="scale(1,-1)" cx="6.3499999" cy="-6.3500137" r="6.0854168" style="fill:url(#linearGradient4575);stroke-width:.26458332"/>
 <path d="m9.1642069 3.85979c-0.3470886-0.10895-0.7285683-0.15564-1.0944135-0.15564-0.6097474 0-1.2663922 0.12451-1.7197949 0.46692-0.4533997-0.34241-1.110045-0.46692-1.7197898-0.46692-0.6097473 0-1.2663924 0.12451-1.7197922 0.46692v4.56017c0 0.0778 0.078172 0.15564 0.156345 0.15564 0.031269 0 0.046903-0.0156 0.078175-0.0156 0.4221281-0.20233 1.0318697-0.3424 1.4852721-0.3424 0.6097448 0 1.2663901 0.12451 1.7197925 0.46691 0.4221281-0.26458 1.1882202-0.46691 1.7197922-0.46691 0.5159351 0 1.0475071 0.0934 1.4852727 0.32684 0.031269 0.0156 0.046903 0.0156 0.078172 0.0156 0.078172 0 0.1563449-0.0778 0.1563449-0.15564v-4.54461c-0.1876136-0.14008-0.3908586-0.23346-0.625376-0.31128m0 4.20221c-0.3439642-0.10894-0.7191888-0.15563-1.0944135-0.15563-0.531572 0-1.2976641 0.20232-1.7197922 0.46691v-3.57966c0.4221281-0.26459 1.1882202-0.46692 1.7197922-0.46692 0.3752247 0 0.7504493 0.0467 1.0944135 0.15564z" style="fill:#ffffff;stroke-width:.40746155"/>
</svg>
