<?xml version="1.0" encoding="UTF-8"?>
<svg id="svg12" version="1" viewBox="0 0 48 48" xmlns="http://www.w3.org/2000/svg" xmlns:xlink="http://www.w3.org/1999/xlink">
 <defs id="defs16">
  <linearGradient id="linearGradient1019-3" x1="-44.92683" x2="-2.0000038" y1="-24" y2="-24" gradientTransform="matrix(0 -1.0250001 -1 0 0 -.05000467)" gradientUnits="userSpaceOnUse">
   <stop id="stop13-5" stop-color="#69159f" offset="0"/>
   <stop id="stop15-3" stop-color="#b92ff5" offset="1"/>
  </linearGradient>
 </defs>
 <path id="rect4" d="m46 43.800001v-39.600002c0-1.2188001-0.957268-2.2000001-2.146341-2.2000001h-39.707318c-1.1890731 0-2.1463413 0.9812-2.1463413 2.2000001v39.600002c0 1.2188 0.9572682 2.2 2.1463413 2.2h39.707318c1.189073 0 2.146341-0.9812 2.146341-2.2z" style="fill:url(#linearGradient1019-3);stroke-width:1.0731708"/>
 <path id="circle855" d="m26.506377 12.207032a19 19 0 0 0-13.158203 5.5625 19 19 0 0 0 0 26.871094l1.359375 1.359375h4.242188l-3.480469-3.480469a15.999999 15.999999 0 0 1 0-22.628906 15.999999 15.999999 0 0 1 22.626953 0l2.121094-2.121094a19 19 0 0 0-13.710938-5.5625zm0.07227 5a14 14 0 0 0-9.695313 4.09961 14 14 0 0 0 0 19.798828l4.894528 4.894531h4.242187l-7.015625-7.015625a11 11 0 0 1 0-15.556641 11 11 0 0 1 15.556641 0l2.121094-2.121093a14 14 0 0 0-10.103516-4.09961zm0.07227 5a9 9 0 0 0-6.232422 2.634766 9 9 0 0 0 0 12.726562l8.431632 8.431641h4.242188l-10.552735-10.552734a6 6 0 0 1 0-8.484375 6 6 0 0 1 8.486329 0l2.121093-2.121094a9 9 0 0 0-6.496093-2.634766z" style="fill:#f9f9f9;paint-order:fill markers stroke"/>
</svg>
