<?xml version="1.0" encoding="UTF-8"?>
<svg id="svg25" version="1.1" viewBox="0 0 48 48" xmlns="http://www.w3.org/2000/svg" xmlns:xlink="http://www.w3.org/1999/xlink">
 <defs id="defs29">
  <linearGradient id="linearGradient850" x1="1.0169487" x2="46" y1="22.966103" y2="22.966103" gradientTransform="translate(-46.983051,1.0508461)" gradientUnits="userSpaceOnUse">
   <stop id="stop844" style="stop-color:#f77901" offset="0"/>
   <stop id="stop846" style="stop-color:#fead27" offset="1"/>
  </linearGradient>
 </defs>
 <circle id="path842" transform="rotate(-90)" cx="-22.966103" cy="24.016949" r="23" style="fill:url(#linearGradient850)"/>
 <path id="path21" d="m23.476924 9.9576156c-0.567297-0.0051-1.271254 0-2.165037 0.00846-3.32567 0.029287-3.32567 0.029287-4.096875 0.2375414-1.576063 0.424117-3.236709 1.520736-4.258501 2.720398-1.126983 1.322241-1.957859 2.82237-1.957859 4.627287v9.266512c0.177888 6.999487 4.258483 8.999663 7.592821 9.173209h10.846899c4.147862-0.335171 7.486525-4.19883 7.592821-6.983223v-3.880975c0.01362-3.216103 0.01362-4.325733-0.351433-4.758533-0.381813-0.453388-0.669252-0.664909-1.822271-0.664909-1.122657 0-1.525077 0.05091-1.89388-0.228874-0.466416-0.351433-0.584651-0.660565-0.660567-1.664987-0.253822-3.593576-2.487198-6.470182-5.821535-7.516905-0.81785-0.258148-1.309213-0.3395138-3.012178-0.3514345m-4.224868 6.5298195h4.774796c0.957796 0 1.737687 0.771223 1.737687 1.737686 0 0.962105-0.775566 1.516392-1.737687 1.516392h-4.774796c-0.962121 0-1.73767-0.55536-1.73767-1.516392 0-0.962121 0.771207-1.737686 1.73767-1.737686m0 9.762217h9.546355c0.962122 0 1.73767 0.559702 1.73767 1.516392 0 0.962121-0.771206 1.73767-1.73767 1.73767h-9.546355c-0.962121 0-1.73767-0.771207-1.73767-1.73767 0-0.957779 0.771207-1.516392 1.73767-1.516392" style="fill-opacity:.85;fill:#ffffff;stroke-width:1.5699702"/>
</svg>
