<?xml version="1.0" encoding="UTF-8"?>
<svg id="svg18" version="1.1" viewBox="0 0 48 48" xmlns="http://www.w3.org/2000/svg" xmlns:xlink="http://www.w3.org/1999/xlink">
 <defs id="defs22">
  <linearGradient id="linearGradient851" x1="24.000002" x2="24.000002" y1="46.000008" y2="2.1595092" gradientUnits="userSpaceOnUse">
   <stop id="stop845" style="stop-color:#818181" offset="0"/>
   <stop id="stop847" style="stop-color:#9c9c9c" offset="1"/>
  </linearGradient>
 </defs>
 <path id="path1021" d="m24.000001 1.999993-18.975471 8.310123s-0.6180797 16.664126 4.3510407 24.672718c4.1454302 6.681072 12.08098 10.066471 14.62443 11.017173 2.54346-0.950702 10.479-4.336101 14.624428-11.017173 4.969123-8.008592 4.351041-24.672718 4.351041-24.672718z" style="fill:url(#linearGradient851);paint-order:stroke fill markers"/>
 <path id="path9" d="m23.227353 14.005845c-0.199506-0.0189-0.40592 0.0076-0.594209 0.08655-0.376482 0.156094-0.615999 0.484649-0.615999 0.845102v6.730885l-3.248532-2.267112c-0.466303-0.325417-1.149871-0.263433-1.526925 0.139087-0.377053 0.402558-0.305133 0.993676 0.161261 1.319093l4.503779 3.142223-4.503779 3.142224c-0.466396 0.325417-0.538317 0.915326-0.161261 1.317846 0.214617 0.229039 0.528945 0.348472 0.845548 0.348472 0.239803 0 0.480446-0.06916 0.681377-0.209386l3.248532-2.265751v6.728315c0 0.360567 0.239516 0.689197 0.615999 0.84514 0.149511 0.06198 0.31104 0.09146 0.470718 0.09146 0.242468 0 0.482009-0.06992 0.678472-0.205607l6.810875-4.71212c0.257102-0.178015 0.406793-0.446589 0.406793-0.730998 0-0.284221-0.149692-0.553134-0.406793-0.730999l-5.231647-3.619729 5.231647-3.619955c0.257102-0.178016 0.406793-0.44674 0.406793-0.731036 0-0.284221-0.149692-0.553172-0.406793-0.730999l-6.810875-4.712088c-0.162909-0.11263-0.355476-0.181039-0.554981-0.200693zm0.961776 2.88393 3.988021 2.759774-3.988021 2.758563zm0 8.701909 3.988021 2.759811-3.988021 2.758563z" style="fill:#e6e6e6;stroke-width:.09764697"/>
</svg>
