<?xml version="1.0" encoding="UTF-8"?>
<svg id="SVGRoot" version="1.1" viewBox="0 0 48 48" xmlns="http://www.w3.org/2000/svg" xmlns:xlink="http://www.w3.org/1999/xlink">
 <defs id="defs1007">
  <linearGradient id="linearGradient1738" x1="2.75" x2="29.124996" y1="38.999996" y2="4.8749943" gradientTransform="translate(1.5e-6,-7.186e-4)" gradientUnits="userSpaceOnUse">
   <stop id="stop1732" style="stop-color:#34f8af;stop-opacity:.94117647" offset="0"/>
   <stop id="stop1734" style="stop-color:#7af4e2;stop-opacity:.18099548" offset="1"/>
  </linearGradient>
  <linearGradient id="linearGradient1748" x1="46" x2="28.749996" y1="35.944389" y2="15.749994" gradientTransform="translate(-1.0000001e-7,-7.186e-4)" gradientUnits="userSpaceOnUse">
   <stop id="stop1742" style="stop-color:#feef11" offset="0"/>
   <stop id="stop1744" style="stop-color:#feef11;stop-opacity:0" offset="1"/>
  </linearGradient>
  <linearGradient id="linearGradient969" x1="27.284924" x2="26.525362" y1="31.723986" y2="45.961273" gradientTransform="translate(-1.0000001e-7,-7.186e-4)" gradientUnits="userSpaceOnUse">
   <stop id="stop963" style="stop-color:#3a79fd" offset="0"/>
   <stop id="stop965" style="stop-color:#dfeb37" offset="1"/>
  </linearGradient>
  <linearGradient id="linearGradient977" x1="35.299366" x2="35.299366" y1="24.592312" y2="42.744854" gradientTransform="translate(-1.0000001e-7,-7.186e-4)" gradientUnits="userSpaceOnUse">
   <stop id="stop971" style="stop-color:#bb6bff" offset="0"/>
   <stop id="stop973" style="stop-color:#eeea2d" offset="1"/>
  </linearGradient>
  <linearGradient id="linearGradient944" x1="22.062117" x2="24.761248" y1="22.874729" y2="28.271175" gradientTransform="matrix(1.0012576,0,0,1.0012576,16.523524,10.493745)" gradientUnits="userSpaceOnUse">
   <stop id="stop937" style="stop-color:#aaaaaa" offset="0"/>
   <stop id="stop943" style="stop-color:#2a2a2a" offset=".78410405"/>
   <stop id="stop939" style="stop-color:#333333" offset="1"/>
  </linearGradient>
  <linearGradient id="linearGradient952" x1="27.224386" x2="23.616724" y1="35.230782" y2="28.982126" gradientTransform="matrix(1.0012576,0,0,1.0012576,16.327965,10.452699)" gradientUnits="userSpaceOnUse">
   <stop id="stop946" style="stop-color:#999999" offset="0"/>
   <stop id="stop1189" style="stop-color:#808080" offset=".30666909"/>
   <stop id="stop945" style="stop-color:#2b2b2b" offset=".75545245"/>
   <stop id="stop948" style="stop-color:#161616" offset="1"/>
  </linearGradient>
  <linearGradient id="linearGradient961" x1="18.788361" x2="19.245987" y1="33.629921" y2="47.86721" gradientTransform="translate(-1.0000001e-7,-7.186e-4)" gradientUnits="userSpaceOnUse">
   <stop id="stop955" style="stop-color:#1dbbe8" offset="0"/>
   <stop id="stop957" style="stop-color:#bde74d" offset="1"/>
  </linearGradient>
  <linearGradient id="linearGradient953" x1="11.667526" x2="11.565831" y1="30.444071" y2="45.037292" gradientTransform="translate(.1525423 .7620279)" gradientUnits="userSpaceOnUse">
   <stop id="stop947" style="stop-color:#05eed7" offset="0"/>
   <stop id="stop979" style="stop-color:#18edd1" offset=".48416078"/>
   <stop id="stop949" style="stop-color:#89f175" offset="1"/>
  </linearGradient>
  <linearGradient id="linearGradient1764" x1="17.704529" x2="36.970001" y1="33.05032" y2="32.6502" gradientTransform="matrix(-1.3960436 .37406877 .37406877 1.3960436 49.383879 -31.468725)" gradientUnits="userSpaceOnUse">
   <stop id="stop1776" style="stop-color:#cd69ff" offset="0"/>
   <stop id="stop1778" style="stop-color:#3b77fd" offset=".41336209"/>
   <stop id="stop1780" style="stop-color:#03f4d6" offset="1"/>
  </linearGradient>
 </defs>
 <path id="rect1408" d="m4.869565 1.9992523h38.260866c1.589739 0 2.869565 1.279826 2.869565 2.869565v38.260866c0 1.58974-1.279826 2.869566-2.869565 2.869566h-38.260866c-1.589739 0-2.869565-1.279826-2.869565-2.869566v-38.260866c0-1.589739 1.279826-2.869565 2.869565-2.869565z" style="fill:#f892ef;paint-order:normal"/>
 <path id="rect1726" d="m4.869565 1.9992523h38.260866c1.589739 0 2.869565 1.279826 2.869565 2.869565v38.260866c0 1.58974-1.279826 2.869566-2.869565 2.869566h-38.260866c-1.589739 0-2.869565-1.279826-2.869565-2.869566v-38.260866c0-1.589739 1.279826-2.869565 2.869565-2.869565z" style="fill:url(#linearGradient1738);paint-order:normal"/>
 <path id="rect1740" d="m4.869565 1.9992523h38.260866c1.589739 0 2.869565 1.279826 2.869565 2.869565v38.260866c0 1.58974-1.279826 2.869566-2.869565 2.869566h-38.260866c-1.589739 0-2.869565-1.279826-2.869565-2.869566v-38.260866c0-1.589739 1.279826-2.869565 2.869565-2.869565z" style="fill:url(#linearGradient1748);paint-order:normal"/>
 <path id="path925" d="m26.558594 28.114545c-0.659081 0-1.17168 0.496025-1.398438 1.150374-0.226756 0.65435 1.172239 2.474533 1.074219 3.289059-0.186871 1.553045-1.63429 2.245908-1.285156 3.919937 0.434874 1.602671 1.043294 2.461001 1.027343 3.738293-0.0147 1.176151-1.093099 2.248668-1.03125 3.423798 0.04405 0.836825 0.830915 1.561512 1.087891 2.363301h2.796875c-0.256978-0.801789-1.045801-1.526476-1.089844-2.363301-0.06186-1.17513 1.018513-2.247647 1.033204-3.423798 0.01595-1.277292-0.368542-2.155994-1.027344-3.738293 0-1.632567 0.809243-2.299578 1.099609-3.919937 0.143324-0.799786-0.511886-2.689021-0.888672-3.289059-0.376785-0.600037-0.739357-1.150374-1.398437-1.150374z" style="fill:url(#linearGradient969)"/>
 <path id="path927" d="m35.399435 18.419149c0.502738-0.048 0.970487 0.09298 1.347272 0.692939 0.376785 0.600038 0.392512 2.283137 0.175669 3.493228-0.216843 1.210092-1.099401 2.286501-1.099401 3.919068 0.658802 1.582299 1.043869 2.46017 1.027921 3.737461-0.0147 1.176152-1.09417 2.249802-1.032312 3.424933 0.0523 0.993713 1.161375 1.828611 1.173987 2.823194 0.01119 0.883955-0.653047 1.684384-0.979572 2.526576-0.235431 0.607257 0.337648 1.9056-0.436912 1.9056-0.774559 0-2.59476-1.298343-2.359328-1.9056 0.326525-0.842192 0.990781-1.642621 0.979571-2.526576-0.01262-0.994583-1.121679-1.829481-1.173987-2.823194-0.06185-1.175131 1.017625-2.248781 1.032312-3.424933 0.01595-1.277291-0.593046-2.134828-1.02792-3.737461-0.349134-1.674066 0.786389-2.938696 0.928834-4.122444 0.142446-1.183786 0.07323-2.432126 0.299981-3.086476 0.226756-0.654349 0.661653-0.850431 1.143885-0.896315z" style="fill:url(#linearGradient977)"/>
 <path id="path1412" d="m38.363456 33.115918a8.8773329 13.28159 51.253564 0 1-6.144438 10.088844 8.8773329 13.28159 51.253564 0 1-1.646598 1.169424l15.42758-8.379666a8.7514361 5.8494055 36.253564 0 1-6.854314-2.252826 8.7514361 5.8494055 36.253564 0 1-0.78223-0.625776z" style="fill:url(#linearGradient944);stroke-width:.35998923"/>
 <path id="path1414" d="m46 35.944592-17.314453 9.402369h-2e-3l-1.146485 0.624982 15.558639 0.02646c1.590557 0.0028 2.875529-1.274684 2.880858-2.86526z" style="fill:url(#linearGradient952);stroke-width:.35998923"/>
 <path id="rect1930" d="m18.03125 31.796182c-8.85e-4 0.0036-0.0011 0.0076-2e-3 0.01134-0.27481 1.145046-1.115654 2.590942 0 4.626973 1.115654 2.035994 0.741714 3.608844 0 5.150363-0.739604 1.537133-0.748049 3.342954-0.0059 4.416037h2.839843c-0.08223-0.383848-0.17475-0.724875-0.289062-0.955086-0.627028-1.262816-0.506642-2.188309 0-3.136706 0.506642-0.948434 1.123846-3.036775 0-5.632819-1.123846-2.596082-0.104531-3.284145 0-4.468762 3.15e-4 -0.0036-3.01e-4 -0.0076 0-0.01134z" style="fill:url(#linearGradient961)"/>
 <path id="rect905" d="m11.144531 26.579376c-0.659081 0-1.1697266 0.496025-1.3964842 1.150375-0.2267603 0.654387 1.1702822 2.476498 1.0722652 3.291024-0.186868 1.553007-1.63429 2.243943-1.2851562 3.917971 0.4348747 1.602671 1.0432992 2.461002 1.0273442 3.738293-0.0147 1.176189-1.0931027 2.250633-1.0312503 3.425764 0.052309 0.993713 1.1612143 1.827704 1.1738283 2.822287 0.0047 0.370393-0.121474 0.724119-0.279296 1.074217h2.796875c0.157822-0.349984 0.283979-0.704013 0.279296-1.074217-0.01262-0.994583-1.123481-1.828574-1.175781-2.822287-0.06186-1.175131 1.018513-2.249575 1.033203-3.425764 0.01595-1.277291-0.368542-2.155956-1.027344-3.738293 0-1.632529 0.809244-2.297612 1.09961-3.917971 0.143323-0.799786-0.511886-2.690986-0.888672-3.291024-0.376785-0.6-0.739358-1.150375-1.398438-1.150375z" style="fill:url(#linearGradient953)"/>
 <path id="path1750" d="m9.9682882 27.87719c-0.9931533-3.706507 1.2396418-7.524775 4.9866228-8.528768 2.269967-0.60824 4.564442-0.03024 6.250894 1.332586l0.0058-0.01134s2.718378 2.539465 5.782126 1.78885c3.191537-0.781833 8.437748-3.2993 8.914918-10.425222 0 0 4.471781 8.195414-2.998956 15.835163-8.268929 8.458091-17.242747 5.066041-17.272638 5.060598l0.0038-0.0076c-2.535105-0.91124-4.939767-2.307851-5.6725668-5.042679z" style="fill:url(#linearGradient1764);stroke-width:.99999994"/>
 <path id="path1754" d="m10.400792 22.988674c-2.1860474 3.682393-0.6724951 6.631143 0.219601 7.160919 0.366977-3.766261 1.626097-3.077215 3.346873-5.04393 2.240297-2.558363 1.668546-4.458066 0.776448-4.987843-0.892097-0.529776-2.597569-0.0703-4.342922 2.870854z" style="fill:#2e2e2e;stroke-width:.88320053"/>
 <path id="path1752" d="m25.648438 1.999294c-7.233991 10.836662-10.648911 16.684989-10.210938 16.978507 0.453657 0.303874 4.767312-5.333971 12.550781-16.937499 0.01002-0.015118 0.01739-0.026457 0.02733-0.041197z" style="fill:#333333;stroke-width:.88320053"/>
 <path id="path1756" d="m20.866128 12.423458c-4.368819 6.206098-6.16244 8.91103-6.746365 8.519698-0.608349-0.40732 1.238692-3.077367 5.323813-9.474256z" style="fill:#9fa0a0;stroke-width:.88320053"/>
</svg>
