<?xml version="1.0" encoding="UTF-8"?>
<svg id="svg20" version="1.1" viewBox="0 0 48 48" xmlns="http://www.w3.org/2000/svg" xmlns:xlink="http://www.w3.org/1999/xlink">
 <defs id="defs24">
  <linearGradient id="linearGradient868" x1="23.998451" x2="23.998451" y1=".50001007" y2="47.363766" gradientTransform="rotate(180 24.036514 24.053508)" gradientUnits="userSpaceOnUse">
   <stop id="stop913" style="stop-color:#178b70" offset="0"/>
   <stop id="stop915" style="stop-color:#09b26e" offset="1"/>
  </linearGradient>
  <linearGradient id="linearGradient960" x1="19.844656" x2="19.844656" y1="44.061367" y2="5.2809682" gradientTransform="matrix(.95549562 0 0 .95549562 1.0683793 1.0699646)" gradientUnits="userSpaceOnUse">
   <stop id="stop954" style="stop-color:#008066" offset="0"/>
   <stop id="stop956" style="stop-color:#09b16e" offset="1"/>
  </linearGradient>
 </defs>
 <path id="ellipse841" transform="scale(1,-1)" d="m46.464407-24.041414a22.458168 22.456673 0 0 1-22.458168 22.456672 22.458168 22.456673 0 0 1-22.458168-22.456672 22.458168 22.456673 0 0 1 22.458168-22.456673 22.458168 22.456673 0 0 1 22.458168 22.456673z" style="fill:#ececec;stroke-width:1.6041062"/>
 <path id="path849" d="m24.074577 47.607006c12.967577 0 23.498436-10.533286 23.498436-23.500001 0-12.966698-10.530859-23.499999-23.498436-23.499999s-23.501564 10.533301-23.501564 23.499999c0 12.966715 10.533987 23.500001 23.501564 23.500001zm0-1.958067c-11.909057 0-21.543367-9.633669-21.543367-21.541934 0-11.908248 9.63431-21.538789 21.543367-21.538789 11.909056 0 21.540222 9.6305406 21.540222 21.538789 0 11.908265-9.631166 21.541934-21.540222 21.541934z" style="fill:url(#linearGradient868);stroke-width:1.6041062"/>
 <path id="path880" d="m24.005872 4.5280376a19.515093 19.513792 0 0 0-19.514878 19.513012 19.515093 19.513792 0 0 0 19.514878 19.514878 19.515093 19.513792 0 0 0 10.919151-3.3461l-3.081101-3.081101a15.124291 15.322393 0 0 1-7.83805 2.23571 15.124291 15.322393 0 0 1-15.123703-15.323387 15.124291 15.322393 0 0 1 15.123703-15.321522 15.124291 15.322393 0 0 1 7.798861 2.2170488l3.077367-3.0773681a19.515093 19.513792 0 0 0-10.876228-3.3311713z" style="fill:url(#linearGradient960);paint-order:normal;stroke-width:1.5327164"/>
 <path id="path929" d="m23.75444 14.041414v13.452913c-1.012279-0.316811-2.128993-0.22527-3.294324 0.257574-1.095863 0.453993-1.96397 1.177011-2.483866 1.99989-0.519897 0.82288-0.691964 1.76237-0.347808 2.593788 0.344283 0.831726 1.130519 1.373732 2.08028 1.5881 0.949762 0.214368 2.075018 0.112948 3.171279-0.341245 0.884391-0.367336 1.587096-1.020078 2.072076-1.72263 0.484981-0.702551 0.761238-1.45019 0.761237-2.068794v-10.202887c0.221467 0.03741 0.776838 0.09855 1.553649 0.584053 0.91871 0.574195 1.821065 1.568066 1.821065 3.423931 0 1.4269-0.229535 2.334322-0.751395 3.20409-0.521861 0.869768-1.356763 1.70949-2.569178 2.921907l0.308433 0.393744c2.458727-1.475239 4.487038-3.497944 4.487038-6.519741 0-2.004719-0.781186-3.476386-1.652083-4.524773-0.870898-1.048385-1.85034-1.709247-2.185278-2.044186-0.16586-0.165859-0.461869-0.7534-0.669364-1.268183-0.207496-0.514783-0.356011-0.971235-0.356011-0.971235l-0.03937-0.119763z" style="color-rendering:auto;color:#000000;dominant-baseline:auto;fill-rule:evenodd;fill:#08ae6e;font-feature-settings:normal;font-variant-alternates:normal;font-variant-caps:normal;font-variant-ligatures:normal;font-variant-numeric:normal;font-variant-position:normal;image-rendering:auto;isolation:auto;mix-blend-mode:normal;shape-padding:0;shape-rendering:auto;solid-color:#000000;text-decoration-color:#000000;text-decoration-line:none;text-decoration-style:solid;text-indent:0;text-orientation:mixed;text-transform:none;white-space:normal"/>
</svg>
