<?xml version="1.0" encoding="UTF-8"?>
<svg id="svg49" version="1.1" viewBox="0 0 48 48" xmlns="http://www.w3.org/2000/svg" xmlns:xlink="http://www.w3.org/1999/xlink">
 <defs id="defs53">
  <linearGradient id="linearGradient1055" x1="-21.037291" x2="-13.596727" y1="74.323746" y2="66.883179" gradientTransform="matrix(-.95044767 .95044767 .95044767 .95044767 -43.704947 -26.189955)" gradientUnits="userSpaceOnUse">
   <stop id="stop1292" style="stop-color:#91b1e5" offset="0"/>
   <stop id="stop1294" style="stop-color:#adc9f9" offset="1"/>
  </linearGradient>
  <linearGradient id="linearGradient984" x1="3.2752512" x2="-3.4983921" y1="-2.3242681" y2="-9.2188692" gradientTransform="matrix(-.95044767 .95044767 -.95044767 -.95044767 1.9638804 19.478873)" gradientUnits="userSpaceOnUse">
   <stop id="stop1300" style="stop-color:#649af5" offset="0"/>
   <stop id="stop1302" style="stop-color:#74aafc" offset="1"/>
  </linearGradient>
  <linearGradient id="linearGradient1037" x1="407.08405" x2="407.08405" y1="509.8331" y2="522.17792" gradientTransform="matrix(.97872279 0 0 .97872279 -374.13448 -480.99856)" gradientUnits="userSpaceOnUse">
   <stop id="stop22" stop-color="#59f" style="stop-color:#448fff" offset="0"/>
   <stop id="stop24" stop-color="#80b3ff" offset="1"/>
  </linearGradient>
  <linearGradient id="linearGradient1080" x1="3.0938144" x2="-3.9365849" y1="-26.092499" y2="-19.062099" gradientTransform="matrix(-.95044767 .95044767 -.95044767 -.95044767 1.9638804 19.478873)" gradientUnits="userSpaceOnUse">
   <stop id="stop908" style="stop-color:#bacdda" offset="0"/>
   <stop id="stop910" style="stop-color:#c4d2db" offset="1"/>
  </linearGradient>
  <linearGradient id="linearGradient1030" x1="-21.339685" x2="-14.62652" y1="49.950722" y2="56.663887" gradientTransform="matrix(-.95044767 .95044767 .95044767 .95044767 -43.704947 -26.189955)" gradientUnits="userSpaceOnUse">
   <stop id="stop1284" style="stop-color:#406ed5" offset="0"/>
   <stop id="stop1286" style="stop-color:#6c8fde" offset="1"/>
  </linearGradient>
 </defs>
 <path id="path990" d="m37.402228 12.866789c-0.879433 0-1.757569 0.33025-2.419611 0.992293l-3.665371 3.663572 0.654339 0.947352c2.282436 3.310233 2.274516 7.730261-0.01977 11.03566l-0.657934 0.947351 3.685145 3.685144c1.318841 1.318842 3.499229 1.326627 4.82664 0.01977l0.0036-0.0036 5.105274-5.105273c2.772546-2.772548 2.780216-7.290247 0.02516-10.073927l-0.0036-0.0036-5.112463-5.112464c-0.662042-0.661979-1.541975-0.992229-2.421409-0.992229z" style="color-rendering:auto;color:#000000;dominant-baseline:auto;fill:url(#linearGradient1055);font-feature-settings:normal;font-variant-alternates:normal;font-variant-caps:normal;font-variant-ligatures:normal;font-variant-numeric:normal;font-variant-position:normal;image-rendering:auto;isolation:auto;mix-blend-mode:normal;paint-order:stroke fill markers;shape-padding:0;shape-rendering:auto;solid-color:#000000;text-decoration-color:#000000;text-decoration-line:none;text-decoration-style:solid;text-indent:0;text-orientation:mixed;text-transform:none;white-space:normal"/>
 <path id="path952" d="m10.628307 12.893754c-0.8799371-3.98e-4 -1.7602451 0.331128-2.4232067 0.994089l-5.5978242 5.597826-0.048536 0.05932c-2.2392374 2.794525-2.0614988 6.887412 0.5051345 9.480711l0.00179 0.0036 5.1412258 5.139427c1.3240846 1.324087 3.5169376 1.324087 4.8410206 0l3.663572-3.663572-0.657932-0.947351c-2.302381-3.313873-2.303929-7.750181-0.0036-11.064422l0.657933-0.947351-3.658179-3.65818c-0.662531-0.662472-1.541496-0.993667-2.421434-0.994064z" style="color-rendering:auto;color:#000000;dominant-baseline:auto;fill:url(#linearGradient984);font-feature-settings:normal;font-variant-alternates:normal;font-variant-caps:normal;font-variant-ligatures:normal;font-variant-numeric:normal;font-variant-position:normal;image-rendering:auto;isolation:auto;mix-blend-mode:normal;paint-order:stroke fill markers;shape-padding:0;shape-rendering:auto;solid-color:#000000;text-decoration-color:#000000;text-decoration-line:none;text-decoration-style:solid;text-indent:0;text-orientation:mixed;text-transform:none;white-space:normal"/>
 <path id="path879" d="m28.863582 28.862453c2.668208-2.668208 2.667725-7.010216-4.84e-4 -9.678423-2.668208-2.66821-7.009248-2.667725-9.677455 4.82e-4 -2.667725 2.667726-2.668694 7.009249-4.84e-4 9.677456 2.668208 2.668209 7.010698 2.66821 9.678423 4.85e-4z" style="fill-rule:evenodd;fill:url(#linearGradient1037)"/>
 <path id="path993" d="m35.133151 37.625625c0-0.879433-0.330249-1.757568-0.992291-2.419611l-3.663574-3.66537-0.947352 0.654337c-3.310231 2.282438-7.730261 2.274517-11.035658-0.01978l-0.947352-0.657932-3.685144 3.685145c-1.318842 1.318839-1.326626 3.499227-0.01978 4.82664l5.108874 5.108874c2.772547 2.772546 7.290248 2.780216 10.073926 0.02516l0.0036-0.0036 5.112464-5.112463c0.662042-0.662045 0.992292-1.541977 0.992292-2.42141z" style="color-rendering:auto;color:#000000;dominant-baseline:auto;fill:url(#linearGradient1080);font-feature-settings:normal;font-variant-alternates:normal;font-variant-caps:normal;font-variant-ligatures:normal;font-variant-numeric:normal;font-variant-position:normal;image-rendering:auto;isolation:auto;mix-blend-mode:normal;paint-order:stroke fill markers;shape-padding:0;shape-rendering:auto;solid-color:#000000;text-decoration-color:#000000;text-decoration-line:none;text-decoration-style:solid;text-indent:0;text-orientation:mixed;text-transform:none;white-space:normal"/>
 <path id="path1003" d="m35.134766 10.374366c0 0.879433-0.330249 1.757569-0.992293 2.419612l-3.663572 3.66537-0.947352-0.654338c-3.310232-2.282438-7.730261-2.274517-11.035659 0.01978l-0.947352 0.657933-3.685144-3.685145c-1.318842-1.318841-1.326626-3.4992293-0.019779-4.8266413l0.0036-0.00359 5.105275-5.1052741c2.772546-2.772546 7.290246-2.7802165 10.073926-0.025163l0.0036 0.00359 5.112464 5.1124632c0.662043 0.6620437 0.992293 1.5419763 0.992293 2.4214102z" style="color-rendering:auto;color:#000000;dominant-baseline:auto;fill:url(#linearGradient1030);font-feature-settings:normal;font-variant-alternates:normal;font-variant-caps:normal;font-variant-ligatures:normal;font-variant-numeric:normal;font-variant-position:normal;image-rendering:auto;isolation:auto;mix-blend-mode:normal;paint-order:stroke fill markers;shape-padding:0;shape-rendering:auto;solid-color:#000000;text-decoration-color:#000000;text-decoration-line:none;text-decoration-style:solid;text-indent:0;text-orientation:mixed;text-transform:none;white-space:normal"/>
</svg>
