<?xml version="1.0" encoding="UTF-8"?>
<svg id="SVGRoot" version="1.1" viewBox="0 0 48 48" xmlns="http://www.w3.org/2000/svg" xmlns:xlink="http://www.w3.org/1999/xlink">
 <defs id="defs815">
  <linearGradient id="linearGradient1848" x1="23.949154" x2="23.949154" y1="45.355934" y2="3.8644073" gradientTransform="matrix(1.047619,0,0,1.047619,-1.1428572,-1.5690064)" gradientUnits="userSpaceOnUse">
   <stop id="stop1091" style="stop-color:#5cc610" offset="0"/>
   <stop id="stop1093" style="stop-color:#92dc41" offset="1"/>
  </linearGradient>
 </defs>
 <g id="g1252">
  <path id="rect14" d="m5.186908 2.000001h37.626182c1.765547 0 3.186907 1.4213604 3.186907 3.1869068v37.626182c0 1.765547-1.42136 3.186907-3.186907 3.186907h-37.626182c-1.7655465 0-3.186907-1.42136-3.186907-3.186907v-37.626182c0-1.7655464 1.4213605-3.1869068 3.186907-3.1869068z" style="fill-rule:evenodd;fill:url(#linearGradient1848);stroke-width:1.0624604"/>
  <path id="path30" d="m12.853641 11.2613c-0.882137 0-1.592342 0.567384-1.592342 1.273101v22.929277c0 0.705716 0.710205 1.275022 1.592342 1.275022h22.292727c0.882137 0 1.592332-0.569306 1.592332-1.275022v-22.929277c0-0.705717-0.710195-1.273101-1.592332-1.273101zm11.022113 4.258975c0.750748 0 1.355299 0.60455 1.355299 1.355309 0 0.75076-0.604551 1.355299-1.355299 1.355299-0.750758 0-1.355307-0.604539-1.355307-1.355299 0-0.750759 0.60455-1.355309 1.355307-1.355309zm-0.0044 5.421213h0.0078c0.748415 0 1.351476 0.601185 1.351476 1.349567v9.494759c0 0.748459-0.603061 1.351477-1.351476 1.351477h-0.0078c-0.748404 0-1.351488-0.603018-1.351488-1.351477v-9.494759c0-0.748382 0.603084-1.349567 1.351488-1.349567z" style="fill:#ffffff;stroke-width:1.1107542"/>
  <g id="g1505" transform="matrix(-1.0882165,0,0,-1.0340468,466.0277,566.38736)" style="fill:#ffffff">
   <path id="path1503" d="m422.52101 532.23704v0.79641h0.79641v-0.79641zm0.79641 0.79641v0.79641h0.79641v-0.79641zm0 0.79641h-0.79641v0.79641h0.79641zm0 0.79641v0.79641h0.79641v-0.79641zm0 0.79641h-0.79641v0.79641h0.79641zm0 0.79641v0.7964h0.79641v-0.7964zm0 0.7964h-0.79641v0.79642h0.79641zm0 0.79642v0.79641h0.79641v-0.79641zm0 0.79641h-0.79641v0.7964h0.79641zm0.79641-14.33537h-0.79642v-0.79642h0.79642zm-0.79642-0.79642h-0.79641v-0.79641h0.79641zm0-0.79641v-0.7964h0.79642v0.7964zm0-0.7964h-0.79641v-0.79641h0.79641zm0-0.79641v-0.79642h0.79642v0.79642zm0-0.79642h-0.79641v-0.79641h0.79641zm0-0.79641v-0.7964h0.79642v0.7964zm0-0.7964h-0.79641v-0.79642h0.79641zm0-0.79642v-0.79641h0.79642v0.79641zm0-0.79641h-0.79641v-0.7964h0.79641zm0-0.7964v-0.79641h0.79642v0.79641zm0-0.79641h-0.79641v-0.79642h0.79641zm0-0.79642v-0.7964h0.79642v0.7964zm0-0.7964h-0.79641v-0.79641h0.79641zm0-0.79641v-0.79642h0.79642v0.79642zm0-0.79642h-0.79641v-0.7964h0.79641zm-35.04203 29.46716v0.79641h0.79642v-0.79641zm0.79642 0.79641v0.79642h0.7964v-0.79642zm0.7964 0h0.79641v-0.79641h-0.79641zm0.79641 0v0.79642h0.79642v-0.79642zm0.79642 0h0.7964v-0.79641h-0.7964zm0.7964 0v0.79642h0.79641v-0.79642zm0.79641 0h0.79642v-0.79641h-0.79642zm0.79642 0v0.79642h0.7964v-0.79642zm0.7964 0h0.79641v-0.79641h-0.79641zm0.79641 0v0.79642h0.79641v-0.79642zm0.79641 0h0.79642v-0.79641h-0.79642zm0.79642 0v0.79642h0.7964v-0.79642zm0.7964 0h0.79641v-0.79641h-0.79641zm0.79641 0v0.79642h0.79642v-0.79642zm0.79642 0h0.7964v-0.79641h-0.7964zm0.7964 0v0.79642h0.79641v-0.79642zm23.09588-0.79641-1.59282 1.59283h1.59282zm-3.18564 0v0.79641h-0.79641v-0.79641zm-0.79641 0.79641v0.79642h-0.7964v-0.79642zm-0.7964 0h-0.79642v-0.79641h0.79642zm-0.79642 0v0.79642h-0.79641v-0.79642zm-0.79641 0h-0.7964v-0.79641h0.7964zm-0.7964 0v0.79642h-0.79642v-0.79642zm-0.79642 0h-0.79641v-0.79641h0.79641zm-0.79641 0v0.79642h-0.7964v-0.79642zm-0.7964 0h-0.79641v-0.79641h0.79641zm-0.79641 0v0.79642h-0.79642v-0.79642zm-0.79642 0h-0.7964v-0.79641h0.7964zm-0.7964 0v0.79642h-0.79641v-0.79642zm-0.79641 0h-0.79642v-0.79641h0.79642zm-0.79642 0v0.79642h-0.7964v-0.79642zm-0.7964 0h-0.79641v-0.79641h0.79641zm-0.79641 0v0.79642h-0.79642v-0.79642zm-18.31741-25.76974v-0.79641h-0.79641v0.79641zm-0.79641-0.79641v-0.79641h-0.79641v0.79641zm0-0.79641h0.79641v-0.79641h-0.79641zm0-0.79641v-0.79641h-0.79641v0.79641zm0-0.79641h0.79641v-0.79641h-0.79641zm0-0.79641v-0.7964h-0.79641v0.7964zm0-0.7964h0.79641v-0.79642h-0.79641zm0-0.79642v-0.79641h-0.79641v0.79641zm0-0.79641h0.79641v-0.7964h-0.79641zm-0.79641 14.33537h0.79642v0.79642h-0.79642zm0.79642 0.79642h0.79641v0.79641h-0.79641zm0 0.79641v0.7964h-0.79642v-0.7964zm0 0.7964h0.79641v0.79641h-0.79641zm0 0.79641v0.79642h-0.79642v-0.79642zm0 0.79642h0.79641v0.79641h-0.79641zm0 0.79641v0.7964h-0.79642v-0.7964zm0 0.7964h0.79641v0.79642h-0.79641zm0 0.79642v0.79641h-0.79642v-0.79641zm0 0.79641h0.79641v0.7964h-0.79641zm0 0.7964v0.79641h-0.79642v-0.79641zm0 0.79641h0.79641v0.79642h-0.79641zm0 0.79642v0.7964h-0.79642v-0.7964zm0 0.7964h0.79641v0.79641h-0.79641zm0 0.79641v0.79642h-0.79642v-0.79642zm0 0.79642h0.79641v0.7964h-0.79641zm35.04203-29.46716v-0.79641h-0.79642v0.79641zm-0.79642-0.79641v-0.79642h-0.7964v0.79642zm-0.7964 0h-0.79641v0.79641h0.79641zm-0.79641 0v-0.79642h-0.79642v0.79642zm-0.79642 0h-0.7964v0.79641h0.7964zm-0.7964 0v-0.79642h-0.79641v0.79642zm-0.79641 0h-0.79642v0.79641h0.79642zm-0.79642 0v-0.79642h-0.7964v0.79642zm-0.7964 0h-0.79641v0.79641h0.79641zm-0.79641 0v-0.79642h-0.79641v0.79642zm-0.79641 0h-0.79642v0.79641h0.79642zm-0.79642 0v-0.79642h-0.7964v0.79642zm-0.7964 0h-0.79641v0.79641h0.79641zm-0.79641 0v-0.79642h-0.79642v0.79642zm-0.79642 0h-0.7964v0.79641h0.7964zm-0.7964 0v-0.79642h-0.79641v0.79642zm-23.09588 0.79641 1.59282-1.59283h-1.59282zm3.18564 0v-0.79641h0.79641v0.79641zm0.79641-0.79641v-0.79642h0.7964v0.79642zm0.7964 0h0.79642v0.79641h-0.79642zm0.79642 0v-0.79642h0.79641v0.79642zm0.79641 0h0.7964v0.79641h-0.7964zm0.7964 0v-0.79642h0.79642v0.79642zm0.79642 0h0.79641v0.79641h-0.79641zm0.79641 0v-0.79642h0.7964v0.79642zm0.7964 0h0.79641v0.79641h-0.79641zm0.79641 0v-0.79642h0.79642v0.79642zm0.79642 0h0.7964v0.79641h-0.7964zm0.7964 0v-0.79642h0.79641v0.79642zm0.79641 0h0.79642v0.79641h-0.79642zm0.79642 0v-0.79642h0.7964v0.79642zm0.7964 0h0.79641v0.79641h-0.79641zm0.79641 0v-0.79642h0.79642v0.79642z" style="fill:#ffffff"/>
  </g>
 </g>
</svg>
