<?xml version="1.0" encoding="UTF-8"?>
<svg id="svg8" width="48" height="49" version="1.1" viewBox="0 0 12.7 12.964583" xmlns="http://www.w3.org/2000/svg" xmlns:xlink="http://www.w3.org/1999/xlink">
 <defs id="defs2">
  <linearGradient id="linearGradient19702" x1="6.9891033" x2="6.9891033" y1="295.52142" y2="285.61179" gradientTransform="matrix(1.1724138,0,0,1.1578947,-1.6775565,-45.827218)" gradientUnits="userSpaceOnUse">
   <stop id="stop19696" style="stop-color:#0cc385" offset="0"/>
   <stop id="stop19698" style="stop-color:#0ee39b" offset="1"/>
  </linearGradient>
 </defs>
 <g id="layer1" transform="translate(0,-284.0354)">
  <path id="rect1378" d="m1.8520832 284.69687h8.9958338v11.64167h-8.9958338z" style="fill:url(#linearGradient19702);paint-order:stroke fill markers"/>
  <path id="rect4596" d="m3.7041669 287.34269v0.37374h1.3925116v-0.37374zm1.6708919 0v0.37374h1.1141314v-0.37374zm1.3925116 0v0.37374h1.6715024v-0.37374zm-3.0634035 0.74689v0.37373h1.9498826v-0.37373zm2.2282628 0v0.37373h0.8351407v-0.37373zm1.1141314 0v0.37373h1.9492722v-0.37373zm-3.3423942 0.74747v0.37315h2.2282628v-0.37315zm2.5066431 0v0.37315h1.3925116v-0.37315zm1.6708919 0v0.37315h1.1141314v-0.37315zm-4.177535 0.74689v0.37315h1.6708919v-0.37315zm1.9498826 0v0.37315h0.8351407v-0.37315zm1.1135209 0v0.37315h1.1141315v-0.37315zm1.3925117 0v0.37315h0.8357512v-0.37315zm-4.4559152 0.74688v0.37374h1.1226779v-0.37374zm1.3925116 0v0.37374h1.9498826v-0.37374z" style="fill-rule:evenodd;fill:#ffffff;stroke-width:.23738609"/>
  <path id="rect4628" d="m3.7041669 291.82518v0.37315h2.7850233v-0.37315zm3.0634035 0v0.37315h1.3925117v-0.37315zm1.6715024 0v0.37315h0.5567605v-0.37315zm-4.7349059 0.74689v0.37373h1.1226779v-0.37373zm1.3925116 0v0.37373h2.2282629v-0.37373zm2.5066431 0v0.37373h1.1220678v-0.37373zm-3.8991547 0.74688v0.37374h1.9498826v-0.37374zm2.2282628 0v0.37374h0.8351407v-0.37374z" style="fill-rule:evenodd;fill:#ffff24;stroke-width:.23738609"/>
 </g>
</svg>
