<?xml version="1.0" encoding="UTF-8"?>
<svg id="svg30" version="1.1" viewBox="0 0 48 48" xmlns="http://www.w3.org/2000/svg" xmlns:xlink="http://www.w3.org/1999/xlink">
 <defs id="defs34">
  <linearGradient id="linearGradient842" x1="25.220337" x2="25.220337" y1="42.706993" y2="10.414769" gradientUnits="userSpaceOnUse">
   <stop id="stop836" style="stop-color:#666666" offset="0"/>
   <stop id="stop838" style="stop-color:#898989" offset="1"/>
  </linearGradient>
 </defs>
 <path id="rect4148-2" d="m2.7586205 3.5172413c-0.4203047 0-0.7586207 0.3383449-0.7586207 0.7586207v39.448276c0 0.420276 0.338316 0.758621 0.7586207 0.758621h42.482758c0.420305 0 0.758621-0.338345 0.758621-0.758621v-39.448276c0-0.4202758-0.338316-0.7586207-0.758621-0.7586207h-41.724138z" style="fill:#34495e"/>
 <path id="path4155-0" d="m35.835938 4.8984375a0.9889245 0.9889245 0 0 0-0.988282 0.9882813 0.9889245 0.9889245 0 0 0 0.324219 0.7324218 0.9889245 0.9889245 0 0 0 0.734375 0.328125 0.9889245 0.9889245 0 0 0 0.990234-0.9882812 0.9889245 0.9889245 0 0 0-0.322265-0.7285156 0.9889245 0.9889245 0 0 0-0.738281-0.3320313zm3.414062 0.0703125a0.9889245 0.9889245 0 0 0-0.990234 0.9902344 0.9889245 0.9889245 0 0 0 0.990234 0.9882812 0.9889245 0.9889245 0 0 0 0.988281-0.9882812 0.9889245 0.9889245 0 0 0-0.988281-0.9902344zm3.341797 0a0.9889245 0.9889245 0 0 0-0.990235 0.9902344 0.9889245 0.9889245 0 0 0 0.990235 0.9882812 0.9889245 0.9889245 0 0 0 0.988281-0.9882812 0.9889245 0.9889245 0 0 0-0.988281-0.9902344z" style="fill:#ff5555"/>
 <path id="rect12-6" d="m4.5856442 8.6521521h38.828711c0.599018 0 1.08126 0.4822417 1.08126 1.0812595v32.18445c0 0.599018-0.482242 1.08126-1.08126 1.08126h-38.828711c-0.5990177 0-1.0812594-0.482242-1.0812594-1.08126v-32.18445c0-0.5990178 0.4822417-1.0812595 1.0812594-1.0812595z" style="fill:url(#linearGradient842);stroke-width:.65762758"/>
 <path id="path26" d="m31.91942 13.303938c-5.087315 0-6.041665 7.432807-3.179368 7.432807 2.861133 0 8.26731-7.432807 3.179368-7.432807zm-7.836068 1.143552c-0.08013-2.82e-4 -0.167254 0.0073-0.257438 0.01608-2.882947 0.350123-1.868291 5.041545-0.33358 5.129032 1.486053 0.08531 3.111877-5.136527 0.590018-5.144685zm-4.998892 1.73198c-0.176374-0.01077-0.371626 0.02144-0.589 0.106981-2.317193 0.914922-0.351613 4.691704 0.945619 4.437817 1.177411-0.230065 1.34621-4.438607-0.356619-4.545001zm-3.782214 3.087747c-0.201403-0.0054-0.418705 0.06132-0.651106 0.227768-1.854863 1.331038 0.624078 4.546664 1.715456 4.048103 0.954649-0.43672 0.345599-4.226729-1.064596-4.275871zm10.955148 3.069805c-4.018876-0.06623-9.320512 1.894674-10.224878 5.833748-0.978679 4.262425 4.031533 10.176564 9.258628 10.176564 2.571407 0 5.537226-2.259595 6.092594-5.121228 0.423738-2.181856-4.9872-1.307462-4.793055 0.136129 0.233401 1.730692-1.305046 2.586207-2.811529 1.47071-4.795363-3.551768 7.940234-5.324105 7.100208-10.176584-0.261453-1.510545-2.2107-2.279754-4.621968-2.319447z" style="fill-opacity:.85204103;fill:#ffffff;stroke-width:.65762752"/>
</svg>
