<?xml version="1.0" encoding="UTF-8"?>
<svg id="svg8" width="48" height="49" version="1.1" viewBox="0 0 12.7 12.964583" xmlns="http://www.w3.org/2000/svg" xmlns:xlink="http://www.w3.org/1999/xlink">
 <defs id="defs2">
  <linearGradient id="linearGradient1453" x1="6.1544147" x2="6.1544147" y1="296.06116" y2="285.99506" gradientTransform="matrix(1.1724138,0,0,1.1578947,-1.1441926,-46.408727)" gradientUnits="userSpaceOnUse">
   <stop id="stop1548" style="stop-color:#1b90f3" offset="0"/>
   <stop id="stop1550" style="stop-color:#20bffa" offset="1"/>
  </linearGradient>
 </defs>
 <g id="layer1" transform="translate(0,-284.0354)">
  <path id="rect1378" d="m1.8520832 284.69687h8.9958338v11.64167h-8.9958338z" style="fill:url(#linearGradient1453);paint-order:stroke fill markers"/>
  <path id="rect3264-3" d="m3.7041666 287.3427v0.27579h1.3925115v-0.27579zm1.6708918 0v0.27579h1.1141316v-0.27579zm1.3925121 0v0.27579h0.8357513v-0.27579zm-2.5060331 0.55216v0.27577h1.9492725v-0.27577zm2.2276526 0v0.27577h0.8357515v-0.27577zm-1.6708919 0.55215v0.27578h2.2276522v-0.27578zm2.5066434 0v0.27578h1.3925116v-0.27578zm-3.0634041 0.55216v0.27575h1.670892v-0.27575zm1.9492725 0v0.27575h0.8351404v-0.27575zm1.1141316 0v0.27575h1.3925116v-0.27575zm-3.063404 0.55213v0.27637h1.122068v-0.27637zm1.3925121 0v0.27637h1.9492722v-0.27637zm-1.9498829 0.55216v0.27636h1.9498829v-0.27636zm2.5066432 0v0.27636h1.3925119v-0.27636zm-1.9492724 0.55213v0.27639h2.7844128v-0.27639zm3.063404 0v0.27639h1.3925116v-0.27639zm-3.6207748 0.55217v0.27635h1.1226782v-0.27635zm1.3925117 0v0.27635h2.2282631v-0.27635zm-0.8351409 0.55212v0.27639h1.9492724v-0.27639zm2.2276525 0v0.27639h0.8357515v-0.27639zm-1.6708919 0.55274v0.27578h2.2276522v-0.27578zm2.5066434 0v0.27578h1.6708916v-0.27578zm-3.6207748 0.55216v0.27578h2.7850233v-0.27578zm0.5573708 0.55214v0.27578h1.9492724v-0.27578zm2.2276525 0v0.27578h1.3925118v-0.27578z" style="fill-rule:evenodd;fill:#ffffff;stroke-width:.19922869"/>
 </g>
</svg>
