<?xml version="1.0" encoding="UTF-8"?>
<svg id="svg1087" width="48" height="48" version="1.1" viewBox="0 0 12.7 12.7" xmlns="http://www.w3.org/2000/svg" xmlns:xlink="http://www.w3.org/1999/xlink">
 <defs id="defs1081">
  <linearGradient id="linearGradient945" x1="23.871" x2="38" y1="24.0602" y2="37" gradientTransform="matrix(.96270913 .06420809 -.06420809 .96270913 2.5640297 -.69562205)" gradientUnits="userSpaceOnUse" xlink:href="#a"/>
  <linearGradient id="a">
   <stop id="stop2" stop-color="#b3b3b3" offset="0"/>
   <stop id="stop4" stop-color="#fff" offset="1"/>
  </linearGradient>
  <linearGradient id="c" x1="405.50961" x2="422.13824" y1="524.23206" y2="529.64691" gradientTransform="matrix(0 -.92464592 .92464592 0 -460.702 401.35026)" gradientUnits="userSpaceOnUse" xlink:href="#a"/>
  <linearGradient id="b-3" x1="408.57135" x2="408.57135" y1="546.7981" y2="500.79807" gradientTransform="matrix(.26458333 0 0 .26458333 -101.7512 -132.23821)" gradientUnits="userSpaceOnUse">
   <stop id="stop7-6" stop-color="#2a2c2f" style="stop-color:#1c1e20" offset="0"/>
   <stop id="stop9-7" stop-color="#424649" style="stop-color:#747b80" offset="1"/>
  </linearGradient>
 </defs>
 <path id="rect14" d="m6.0964418 0.26458368h0.5071164c3.2308494 0 5.8318578 2.6010087 5.8318578 5.8318581v0.5071164c0 3.2308494-2.6010084 5.8318578-5.8318578 5.8318578h-0.5071164c-3.2308494 0-5.8318581-2.6010084-5.8318581-5.8318578v-0.5071164c0-3.2308494 2.6010087-5.8318581 5.8318581-5.8318581z" style="fill:url(#b-3);stroke-width:.25355902"/>
 <path id="path935" transform="scale(.26458333)" d="m25.646484 25.001953a1.9296958 1.9296958 0 0 1-0.628906 0.636719c3.450614 3.295774 10.180193 9.454752 12.587891 11.839844-2.407822-2.385214-8.630996-9.057328-11.958985-12.476563z" style="fill:url(#linearGradient945)"/>
 <path id="path870" transform="scale(.26458333)" d="m29.423828 14.40625c-0.212677 0.034535-0.413089 0.145699-0.55664 0.326172l-5.220704 6.550781c-0.487029 0.058583-0.93184 0.244812-1.302734 0.529297l-12.121094-1.953125c-0.451004-0.072567-0.8815716 0.215079-0.9843748 0.660156l-0.0039062 0.023438c-0.1029317 0.445039 0.1565686 0.892956 0.59375 1.02539l11.75 3.558594c0.440908 0.876888 1.339964 1.486328 2.386719 1.486328 1.47799 0 2.68164-1.201779 2.68164-2.679687 0-0.275528-0.053462-0.536943-0.130859-0.78711l3.861328-7.433593c0.212455-0.408983 0.079933-0.911149-0.306641-1.16211l-0.015624-0.011719c-0.19321-0.12548-0.418183-0.167347-0.63086-0.132812zm-5.423828 7.664062a1.9296958 1.9296958 0 0 1 1.929688 1.929688 1.9296958 1.9296958 0 0 1-1.929688 1.929688 1.9296958 1.9296958 0 0 1-1.929688-1.929688 1.9296958 1.9296958 0 0 1 1.929688-1.929688z" style="fill:url(#c);stroke-width:.95833331"/>
</svg>
