<?xml version="1.0" encoding="UTF-8"?>
<svg id="SVGRoot" version="1.1" viewBox="0 0 48 48" xmlns="http://www.w3.org/2000/svg" xmlns:xlink="http://www.w3.org/1999/xlink">
 <defs id="defs1738">
  <linearGradient id="linearGradient1055" x1="-21.037291" x2="-12.025924" y1="74.323746" y2="65.312378" gradientTransform="matrix(-.95044766 .95044766 .95044766 .95044766 -43.704946 -26.189956)" gradientUnits="userSpaceOnUse">
   <stop id="stop1292" style="stop-color:#f1ee13" offset="0"/>
   <stop id="stop1294" style="stop-color:#fefa5b" offset="1"/>
  </linearGradient>
  <linearGradient id="linearGradient984" x1="3.2752512" x2="-3.4983921" y1="-2.3242681" y2="-9.2188692" gradientTransform="matrix(-.95044766 .95044766 -.95044766 -.95044766 1.9638805 19.478872)" gradientUnits="userSpaceOnUse">
   <stop id="stop1300" style="stop-color:#47dc02" offset="0"/>
   <stop id="stop1302" style="stop-color:#7bfa40" offset="1"/>
  </linearGradient>
  <linearGradient id="linearGradient891" x1="19.576361" x2="32.201202" y1="25.547342" y2="25.547342" gradientTransform="matrix(-.69581643 .69581643 .69581643 .69581643 24.708874 -11.319938)" gradientUnits="userSpaceOnUse">
   <stop id="stop902" style="stop-color:#2c95ff" offset="0"/>
   <stop id="stop904" style="stop-color:#00c5f7" offset="1"/>
  </linearGradient>
  <linearGradient id="linearGradient1080" x1="3.0938144" x2="-7.2876334" y1="-26.092499" y2="-15.711051" gradientTransform="matrix(-.95044766 .95044766 -.95044766 -.95044766 1.9638805 19.478872)" gradientUnits="userSpaceOnUse">
   <stop id="stop908" style="stop-color:#b8b8b8" offset="0"/>
   <stop id="stop910" style="stop-color:#d6d6d6" offset="1"/>
  </linearGradient>
  <linearGradient id="linearGradient1030" x1="-21.339685" x2="-14.62652" y1="49.950722" y2="56.663887" gradientTransform="matrix(-.95044766 .95044766 .95044766 .95044766 -43.704946 -26.189956)" gradientUnits="userSpaceOnUse">
   <stop id="stop1284" style="stop-color:#fa1818" offset="0"/>
   <stop id="stop1286" style="stop-color:#fe5252" offset="1"/>
  </linearGradient>
 </defs>
 <path id="path990" d="m37.402229 12.866788c-0.879434 0-1.757569 0.330251-2.419611 0.992293l-3.665371 3.663573 0.654339 0.947352c2.282436 3.310232 2.274515 7.73026-0.01977 11.035659l-0.657934 0.947352 3.685145 3.685143c1.31884 1.318842 3.499228 1.326627 4.82664 0.01977l5.108873-5.108873c2.772547-2.772548 2.780217-7.290247 0.02516-10.073926l-0.0036-0.0036-5.112463-5.112464c-0.662043-0.661978-1.541975-0.992229-2.421409-0.992229z" style="color-rendering:auto;color:#000000;dominant-baseline:auto;fill:url(#linearGradient1055);font-feature-settings:normal;font-variant-alternates:normal;font-variant-caps:normal;font-variant-ligatures:normal;font-variant-numeric:normal;font-variant-position:normal;image-rendering:auto;isolation:auto;mix-blend-mode:normal;paint-order:stroke fill markers;shape-padding:0;shape-rendering:auto;solid-color:#000000;text-decoration-color:#000000;text-decoration-line:none;text-decoration-style:solid;text-indent:0;text-orientation:mixed;text-transform:none;white-space:normal"/>
 <path id="path952" d="m10.628308 12.893753c-0.8799381-3.97e-4 -1.7602461 0.331128-2.4232077 0.99409l-5.5978241 5.597825-0.048536 0.05932c-2.2392373 2.794524-2.0614988 6.887411 0.5051344 9.48071l0.00179 0.0036 5.1412257 5.139427c1.3240846 1.324087 3.5169387 1.324087 4.8410217 0l3.663572-3.663571-0.657932-0.947352c-2.302381-3.313872-2.303929-7.750181-0.0036-11.064422l0.657933-0.947351-3.658179-3.65818c-0.662531-0.66247-1.541496-0.993665-2.421434-0.994063z" style="color-rendering:auto;color:#000000;dominant-baseline:auto;fill:url(#linearGradient984);font-feature-settings:normal;font-variant-alternates:normal;font-variant-caps:normal;font-variant-ligatures:normal;font-variant-numeric:normal;font-variant-position:normal;image-rendering:auto;isolation:auto;mix-blend-mode:normal;paint-order:stroke fill markers;shape-padding:0;shape-rendering:auto;solid-color:#000000;text-decoration-color:#000000;text-decoration-line:none;text-decoration-style:solid;text-indent:0;text-orientation:mixed;text-transform:none;white-space:normal"/>
 <path id="path879" d="m28.863583 28.862452c2.668208-2.668208 2.667724-7.010215-4.84e-4 -9.678423-2.668208-2.66821-7.009248-2.667724-9.677456 4.82e-4 -2.667724 2.667727-2.668693 7.009249-4.83e-4 9.677457 2.668208 2.668208 7.010698 2.668209 9.678423 4.84e-4z" style="fill-rule:evenodd;fill:url(#linearGradient891)"/>
 <path id="path993" d="m35.133152 37.625625c0-0.879434-0.330249-1.757569-0.992292-2.419612l-3.663574-3.66537-0.947351 0.654338c-3.310232 2.282437-7.730261 2.274516-11.035659-0.01978l-0.947351-0.657933-3.685144 3.685145c-1.318842 1.318839-1.326627 3.499227-0.01978 4.82664l5.108874 5.108874c2.772547 2.772546 7.290247 2.780216 10.073926 0.02516l0.0036-0.0036 5.112464-5.112463c0.662042-0.662044 0.992292-1.541977 0.992292-2.42141z" style="color-rendering:auto;color:#000000;dominant-baseline:auto;fill:url(#linearGradient1080);font-feature-settings:normal;font-variant-alternates:normal;font-variant-caps:normal;font-variant-ligatures:normal;font-variant-numeric:normal;font-variant-position:normal;image-rendering:auto;isolation:auto;mix-blend-mode:normal;paint-order:stroke fill markers;shape-padding:0;shape-rendering:auto;solid-color:#000000;text-decoration-color:#000000;text-decoration-line:none;text-decoration-style:solid;text-indent:0;text-orientation:mixed;text-transform:none;white-space:normal"/>
 <path id="path1003" d="m35.134767 10.374365c0 0.879433-0.33025 1.757569-0.992293 2.419612l-3.663573 3.66537-0.947351-0.654338c-3.310233-2.282437-7.730261-2.274516-11.03566 0.01978l-0.947351 0.657934-3.685144-3.685146c-1.318842-1.31884-1.326627-3.4992275-0.01978-4.8266394l0.0036-0.00359 5.105275-5.105274c2.772546-2.772546 7.290246-2.7802165 10.073926-0.025163l0.0036 0.00359 5.112464 5.1124632c0.662042 0.6620437 0.992293 1.5419763 0.992293 2.4214092z" style="color-rendering:auto;color:#000000;dominant-baseline:auto;fill:url(#linearGradient1030);font-feature-settings:normal;font-variant-alternates:normal;font-variant-caps:normal;font-variant-ligatures:normal;font-variant-numeric:normal;font-variant-position:normal;image-rendering:auto;isolation:auto;mix-blend-mode:normal;paint-order:stroke fill markers;shape-padding:0;shape-rendering:auto;solid-color:#000000;text-decoration-color:#000000;text-decoration-line:none;text-decoration-style:solid;text-indent:0;text-orientation:mixed;text-transform:none;white-space:normal"/>
</svg>
