<?xml version="1.0" encoding="UTF-8"?>
<svg width="48" height="48" version="1.1" viewBox="0 0 48 48.000001" xmlns="http://www.w3.org/2000/svg" xmlns:xlink="http://www.w3.org/1999/xlink">
<defs>
<linearGradient id="linearGradient1045">
<stop stop-color="#696969" offset="0"/>
<stop stop-color="#868686" offset="1"/>
</linearGradient>
<linearGradient id="linearGradient991" x1="44" x2="4" y1="44" y2="4" gradientUnits="userSpaceOnUse">
<stop stop-color="#ffd700" offset="0"/>
<stop stop-color="#ffff00" offset="1"/>
</linearGradient>
<linearGradient id="linearGradient1047" x1="24" x2="4" y1="24" y2="4" gradientUnits="userSpaceOnUse" xlink:href="#linearGradient1045"/>
<linearGradient id="linearGradient1051" x1="24" x2="4" y1="24" y2="4" gradientTransform="translate(20,20)" gradientUnits="userSpaceOnUse" xlink:href="#linearGradient1045"/>
</defs>
<g>
<path d="m4 4v40h40v-40z" color="#000000" color-rendering="auto" dominant-baseline="auto" fill="url(#linearGradient991)" image-rendering="auto" shape-rendering="auto" solid-color="#000000" style="font-feature-settings:normal;font-variant-alternates:normal;font-variant-caps:normal;font-variant-ligatures:normal;font-variant-numeric:normal;font-variant-position:normal;isolation:auto;mix-blend-mode:normal;paint-order:fill markers stroke;shape-padding:0;text-decoration-color:#000000;text-decoration-line:none;text-decoration-style:solid;text-indent:0;text-orientation:mixed;text-transform:none;white-space:normal"/>
<path d="m4 4h20v20h-20z" fill="url(#linearGradient1047)" style="paint-order:fill markers stroke"/>
<path d="m30.207031 9.5-0.70703125 0.70703125 3.7929688 3.7929688-3.7929688 3.7929688 0.70703125 0.70703125 3.7929688-3.7929688 3.7929688 3.7929688 0.70703125-0.70703125-3.7929688-3.7929688 3.7929688-3.7929688-0.70703125-0.70703125-3.7929688 3.7929687-3.4394531-3.4394531z" color="#000000" color-rendering="auto" dominant-baseline="auto" fill="#696969" image-rendering="auto" shape-rendering="auto" solid-color="#000000" style="font-feature-settings:normal;font-variant-alternates:normal;font-variant-caps:normal;font-variant-ligatures:normal;font-variant-numeric:normal;font-variant-position:normal;isolation:auto;mix-blend-mode:normal;paint-order:fill markers stroke;shape-padding:0;text-decoration-color:#000000;text-decoration-line:none;text-decoration-style:solid;text-indent:0;text-orientation:mixed;text-transform:none;white-space:normal"/>
<path d="m19 33.5v1h-10v-1z" fill="#696969" style="paint-order:fill markers stroke"/>
<path d="m14 28c-1.0986472 0-2 0.90135283-2 2s0.90135283 2 2 2 2-0.90135283 2-2-0.90135283-2-2-2zm0 1c0.55820708 0 1 0.44179292 1 1s-0.44179292 1-1 1-1-0.44179292-1-1 0.44179292-1 1-1z" color="#000000" color-rendering="auto" dominant-baseline="auto" fill="#696969" image-rendering="auto" shape-rendering="auto" solid-color="#000000" style="font-feature-settings:normal;font-variant-alternates:normal;font-variant-caps:normal;font-variant-ligatures:normal;font-variant-numeric:normal;font-variant-position:normal;isolation:auto;mix-blend-mode:normal;paint-order:fill markers stroke;shape-padding:0;text-decoration-color:#000000;text-decoration-line:none;text-decoration-style:solid;text-indent:0;text-orientation:mixed;text-transform:none;white-space:normal"/>
<path d="m14 36c-1.0986472 0-2 0.90135283-2 2s0.90135283 2 2 2 2-0.90135283 2-2-0.90135283-2-2-2zm0 1c0.55820708 0 1 0.44179292 1 1s-0.44179292 1-1 1-1-0.44179292-1-1 0.44179292-1 1-1z" color="#000000" color-rendering="auto" dominant-baseline="auto" fill="#696969" image-rendering="auto" shape-rendering="auto" solid-color="#000000" style="font-feature-settings:normal;font-variant-alternates:normal;font-variant-caps:normal;font-variant-ligatures:normal;font-variant-numeric:normal;font-variant-position:normal;isolation:auto;mix-blend-mode:normal;paint-order:fill markers stroke;shape-padding:0;text-decoration-color:#000000;text-decoration-line:none;text-decoration-style:solid;text-indent:0;text-orientation:mixed;text-transform:none;white-space:normal"/>
<path d="m24 24h20v20h-20z" fill="url(#linearGradient1051)" style="paint-order:fill markers stroke"/>
<path d="m23.457066 7.1288014v16.5h-16.5v1h16.5v16.5h1v-16.5h16.5v-1h-16.5v-16.5z" fill="#ffffff" style="paint-order:fill markers stroke"/>
<path d="m13.5 9v4.5h-4.5v1h4.5v4.5h1v-4.5h4.5v-1h-4.5v-4.5z" fill="#ffffff" style="paint-order:fill markers stroke"/>
<path d="m39 33.5v1h-10v-1z" fill="#ffffff" style="paint-order:fill markers stroke"/>
</g>
</svg>
