<?xml version="1.0" encoding="UTF-8"?>
<svg id="SVGRoot" version="1.1" viewBox="0 0 48 48" xmlns="http://www.w3.org/2000/svg" xmlns:xlink="http://www.w3.org/1999/xlink">
 <defs id="defs823">
  <linearGradient id="linearGradient824" x1="26.20339" x2="19.102316" y1="45.762711" y2="1.999645" gradientUnits="userSpaceOnUse">
   <stop id="stop818" style="stop-color:#00b5c2" offset="0"/>
   <stop id="stop820" style="stop-color:#42f2ff" offset="1"/>
  </linearGradient>
 </defs>
 <g id="layer1">
  <path id="path27" d="m19.102316 1.999645a17.102326 17.102324 0 0 0-17.102316 17.102317 17.102326 17.102324 0 0 0 17.102316 17.10234 17.102326 17.102324 0 0 0 10.226092-3.421441l13.217492 13.217494 3.4541-3.4541-13.217492-13.217494a17.102326 17.102324 0 0 0 3.421416-10.226091 17.102326 17.102324 0 0 0-17.10234-17.102316m0 4.8863903a12.215948 12.215946 0 0 1 12.21595 12.215926 12.215948 12.215946 0 0 1-0.0621 1.221598 12.215948 12.215946 0 0 1-1.970792 5.506735 12.215948 12.215946 0 0 1-3.454809 3.454809 12.215948 12.215946 0 0 1-0.930529 0.553536 12.215948 12.215946 0 0 1-0.119291 0.07162 12.215948 12.215946 0 0 1-0.02445 0.0098 12.215948 12.215946 0 0 1-1.083214 0.501052 12.215948 12.215946 0 0 1-1.064122 0.372227 12.215948 12.215946 0 0 1-0.09069 0.03349 12.215948 12.215946 0 0 1-0.01467 0.0049 12.215948 12.215946 0 0 1-1.111839 0.262443 12.215948 12.215946 0 0 1-0.0621 0.01467 12.215948 12.215946 0 0 1-0.0098 0 12.215948 12.215946 0 0 1-0.897089 0.124181 12.215948 12.215946 0 0 1-0.362669 0.04767 12.215948 12.215946 0 0 1-0.959154 0.03814 12.215948 12.215946 0 0 1-12.215949-12.215915 12.215948 12.215946 0 0 1 0.06209-1.221597 12.215948 12.215946 0 0 1 5.5544517-9.0569782 12.215948 12.215946 0 0 1 2.171194-1.1070718 12.215948 12.215946 0 0 1 4.428263-0.8303038" style="fill:url(#linearGradient824);stroke-width:1.3000001"/>
  <path id="path847" d="m14.453402 10.747833a10.208933 10.208933 0 0 0-4.881634 10.913398 14.012261 14.012261 0 0 1 6.823623-9.952595 14.012261 14.012261 0 0 1 6.239107-1.8419848 10.208933 10.208933 0 0 0-8.181096 0.8811818z" style="fill:#80edfc"/>
 </g>
</svg>
