<?xml version="1.0" encoding="UTF-8"?>
<svg id="svg2" version="1.1" viewBox="0 0 48 48" xmlns="http://www.w3.org/2000/svg" xmlns:xlink="http://www.w3.org/1999/xlink">
 <defs id="defs4">
  <style id="current-color-scheme" type="text/css">.ColorScheme-Text { color:#f2f2f2 }</style>
  <style id="current-color-scheme-3" type="text/css">.ColorScheme-Text { color:#f2f2f2 }</style>
  <style id="current-color-scheme-6" type="text/css">.ColorScheme-Text { color:#f2f2f2 }</style>
  <linearGradient id="linearGradient927" x1="23.38983" x2="23.38983" y1="46.372883" y2="1.6271186" gradientTransform="translate(.5932045 1.2372818)" gradientUnits="userSpaceOnUse">
   <stop id="stop921" style="stop-color:#ef8f2d" offset="0"/>
   <stop id="stop923" style="stop-color:#f4b26e" offset="1"/>
  </linearGradient>
 </defs>
 <path id="path919" d="m47 24a23 23 0 0 1-23 23 23 23 0 0 1-23-23 23 23 0 0 1 23-23 23 23 0 0 1 23 23z" style="fill:url(#linearGradient927);paint-order:stroke fill markers"/>
 <path id="path4719" d="m33.154808 35.046917c0.76421-1.242976 2.200885-1.295154 2.291346-2.813951 0.06996-1.171108-0.217127-1.824411-0.987347-2.248335-1.415957-0.779338-2.883839-0.04389-2.976178 1.491147-0.09063 1.506597 1.295423 2.428753 2.305131 1.53363 0.421189-0.373397 0.557204-1.034133 0.299315-1.454069-0.114457-0.186377-0.129738-0.158885-0.0682 0.122691 0.212357 0.971708-0.562797 1.588419-1.382591 1.09998-0.856755-0.51046-0.600691-1.96906 0.377969-2.153041 0.483412-0.09088 1.094066 0.364925 1.367967 1.021084 0.147606 0.353586 0.141218 0.55987-0.03199 1.03255-0.568118 1.550683-2.695167 1.433398-5.801171-0.319873-0.752879-0.424987-1.758209-1.058891-2.23406-1.408673-0.820146-0.60286-1.831359-1.128056-3.241982-2.526335-0.747273-0.740739-0.869298-0.653382 1.208622-0.865284 0.597402-0.06092 2.356292-0.458899 3.90863-0.884392 2.757808-0.755908 2.861185-0.771576 4.513459-0.684108 0.930054 0.04923-0.608719-0.102206 0.929623 0.05762l2.796986 0.290541 0.09154-1.52169 0.09154-1.521666-3.260148-0.282177c-4.661152-0.403438-2.376678-0.428387-7.083428-2.579813-0.898751-0.410813-2.152205-0.91626-2.785457-1.123213-1.497327-0.489344-3.792984-0.763309-4.962064-0.592168-1.348003 0.19733-3.291005 1.093524-4.446135 2.050742-1.790499 1.483728-3.884086 4.332851-3.741437 5.091658 0.06424 0.341698 0.150452 0.36914 1.640283 0.522105 0.864862 0.0888 2.651454 0.394835 3.970201 0.680082l2.397726 0.518634-0.06274 1.043004c-0.532577 1.887871-0.296765 2.938137-0.264392 3.639303 0.126553 2.538241 0.213853 2.81783 0.86348 2.765264 1.093481-1.576511 1.296607-4.711 1.412612-6.519171l1.054245 1.061048c2.632357 2.649335 3.453343 2.663032 5.769175 3.967002 2.186424 1.231097 4.632972 1.842752 6.039434 1.509893zm-20.634038-10.122267c-0.144582-0.163086 0.87537-1.279885 2.19149-2.399579 1.959898-1.667392 1.952375-1.666431 1.870857-0.239216-0.08027 1.404326 0.210518 2.188653 1.131312 3.052043l0.602299 0.564754-2.861308-0.447635c-1.573721-0.246198-2.894312-0.484861-2.93465-0.530365zm10.370194 0.758275c0.287746-0.199986 0.732743-0.675583 0.988882-1.056881 0.406374-0.604936 0.475431-0.854792 0.541972-1.960974 0.04194-0.69724 0.122015-1.264955 0.177954-1.261589 0.05594 0.0033 1.125237 0.519289 2.376231 1.146498 1.250994 0.627213 2.437604 1.191898 2.636912 1.254865 0.199314 0.06297 0.359183 0.167763 0.355265 0.232887-0.0039 0.06512-0.80827 0.457873-1.787447 0.872782-1.996871 0.84613-3.471467 1.160547-5.350569 1.140864l-0.462362-0.0049zm15.054922-6.515479c0.05154-0.856862-0.04641-0.944596-1.127269-1.009614-2.409646-0.144951-2.985717-0.569709-6.515768-2.394403-3.781004-1.954414-6.0977-2.711422-8.794261-2.873631-2.639432-0.158773-5.463385 0.394334-8.406116 1.646439-2.395304 1.019181-3.4471457 1.916297-2.930322 2.499274 0.182311 0.205652 0.04683 0.23909 3.380628-0.83427 2.278346-0.733539 5.059388-1.301876 6.547016-1.337955 2.297027-0.05571 4.983913 0.708416 9.696686 2.757648 1.69237 0.735882 3.64206 1.519003 4.332657 1.740269 1.476973 0.473218 1.637797 0.422482 2.888152 0.501958l0.883363 0.05625z" style="color-rendering:auto;color:#000000;fill:#1a1a1a;image-rendering:auto;isolation:auto;mix-blend-mode:normal;shape-rendering:auto;solid-color:#000000;stroke-width:.99999994"/>
</svg>
