<?xml version="1.0" encoding="UTF-8"?>
<svg id="svg8" width="48" height="48" version="1.1" viewBox="0 0 12.7 12.7" xmlns="http://www.w3.org/2000/svg">
 <defs id="defs2">
  <linearGradient id="a" x1="368.48416" x2="368.96432" y1="544.92139" y2="517.39703" gradientTransform="matrix(.36451389 0 0 .3865627 -127.94244 85.064632)" gradientUnits="userSpaceOnUse">
   <stop id="stop2" stop-color="#00a199" offset="0"/>
   <stop id="stop4" stop-color="#00f89a" stop-opacity=".988235" offset="1"/>
  </linearGradient>
 </defs>
 <g id="layer1" transform="translate(0,-284.29998)">
  <rect id="rect7" x=".52916682" y="285.22601" width="11.641666" height="10.847917" rx=".74759549" ry=".74759549" style="fill:url(#a);opacity:.98799995;stroke-width:.37379774"/>
  <path id="path919" transform="matrix(.26458333 0 0 .26458333 0 284.29998)" d="m8.7324219 9.2792969c-0.3020674 0-0.5449219 0.2449285-0.5449219 0.546875v27.802734 0.544922c0 0.301984 0.2428575 0.546875 0.5449219 0.546875h0.546875 29.988281c0.30206 0 0.544922-0.244928 0.544922-0.546875v-28.347656c0-0.3019843-0.242836-0.546875-0.544922-0.546875h-29.988281-0.546875zm14.248047 9.2207031c0.759588 0 1.486305 0.146603 2.179687 0.441406 0.693185 0.294766 1.290979 0.693354 1.792969 1.195313 0.501993 0.501997 0.898598 1.09969 1.193359 1.792969 0.294859 0.693203 0.44336 1.420115 0.44336 2.179687 0 1.168592-0.329619 2.228872-0.988282 3.179687l2.732422 2.732422c0.196669 0.196498 0.29502 0.435222 0.294922 0.716797 0 0.27617-0.100881 0.51497-0.302734 0.716797-0.201657 0.201827-0.440619 0.302734-0.716797 0.302734-0.287034 0-0.525602-0.100907-0.716797-0.302734l-2.732422-2.724609c-0.950783 0.658582-2.010917 0.988281-3.179687 0.988281-0.759589 0-1.486406-0.148556-2.179688-0.443359-0.693184-0.294841-1.290976-0.693203-1.792969-1.195313-0.501992-0.501997-0.90055-1.097812-1.195312-1.791016-0.294859-0.693392-0.441406-1.420078-0.441406-2.179687 0-0.759572 0.14655-1.486409 0.441406-2.179687 0.29476-0.693204 0.69332-1.290972 1.195312-1.792969 0.501993-0.501959 1.099687-0.90051 1.792969-1.195313 0.693185-0.294841 1.420099-0.441406 2.179688-0.441406zm0 2.039062c-0.982666 0-1.823019 0.350259-2.521485 1.048829-0.698465 0.698456-1.048828 1.538845-1.048828 2.521484 0 0.982753 0.350265 1.822952 1.048828 2.521484 0.698563 0.69857 1.538819 1.046875 2.521485 1.046875 0.98276 0 1.822921-0.348305 2.521484-1.046875 0.698467-0.698532 1.048828-1.538731 1.048828-2.521484 0-0.982639-0.350262-1.823028-1.048828-2.521484-0.698661-0.698608-1.538822-1.048829-2.521484-1.048829z" style="fill:#34495e"/>
  <path id="path914" transform="matrix(.26458333 0 0 .26458333 0 284.29998)" d="m10.318359 12.603516c-0.5794945 0-1.0468746 0.528538-1.0468746 1.18164v22.689453c0 0.653103 0.4673801 1.179688 1.0468746 1.179688h27.363282c0.579491 0 1.046875-0.526585 1.046875-1.179688v-22.689453c0-0.653102-0.467384-1.18164-1.046875-1.18164h-27.363282zm12.66211 5.896484c0.759588 0 1.486305 0.146603 2.179687 0.441406 0.693185 0.294766 1.290979 0.693354 1.792969 1.195313 0.501993 0.501997 0.898598 1.09969 1.193359 1.792969 0.294859 0.693203 0.44336 1.420115 0.44336 2.179687 0 1.168592-0.329619 2.228872-0.988282 3.179687l2.732422 2.732422c0.196669 0.196498 0.29502 0.435222 0.294922 0.716797 0 0.27617-0.100881 0.51497-0.302734 0.716797-0.201657 0.201827-0.440619 0.302734-0.716797 0.302734-0.287034 0-0.525602-0.100907-0.716797-0.302734l-2.732422-2.724609c-0.950783 0.658582-2.010917 0.988281-3.179687 0.988281-0.759589 0-1.486406-0.148556-2.179688-0.443359-0.693184-0.294841-1.290976-0.693203-1.792969-1.195313-0.501992-0.501997-0.90055-1.097812-1.195312-1.791016-0.294859-0.693392-0.441406-1.420078-0.441406-2.179687 0-0.759572 0.14655-1.486409 0.441406-2.179687 0.29476-0.693204 0.69332-1.290972 1.195312-1.792969 0.501993-0.501959 1.099687-0.90051 1.792969-1.195313 0.693185-0.294841 1.420099-0.441406 2.179688-0.441406zm0 2.039062c-0.982666 0-1.823019 0.350259-2.521485 1.048829-0.698465 0.698456-1.048828 1.538845-1.048828 2.521484 0 0.982753 0.350265 1.822952 1.048828 2.521484 0.698563 0.69857 1.538819 1.046875 2.521485 1.046875 0.98276 0 1.822921-0.348305 2.521484-1.046875 0.698467-0.698532 1.048828-1.538731 1.048828-2.521484 0-0.982639-0.350262-1.823028-1.048828-2.521484-0.698661-0.698608-1.538822-1.048829-2.521484-1.048829z" style="fill:#ffffff;stroke-width:1.7654083"/>
  <g id="g916" transform="matrix(.24285684 0 0 .24285684 2.5637073 285.45124)" style="fill-opacity:.98823529;fill:#00ab99;stroke-width:1.0894622">
   <g id="g17" transform="matrix(.6134646 0 0 .6134646 -178.01914 -297.8473)" style="fill-opacity:.98823529;fill:#00ab99;stroke-width:1.6303915">
    <path id="path9" d="m294.90044 506.26511v5h1v-4h4v-1z" style="fill-opacity:.98823529;fill:#00ab99;opacity:.75;stroke-width:1.6303915"/>
    <path id="path11" d="m294.90044 538.56511h5v-1h-4v-4h-1z" style="fill-opacity:.98823529;fill:#00ab99;opacity:.75;stroke-width:1.6303915"/>
    <path id="path13" d="m336.2007 538.06511v-5h-1v4h-4v1z" style="fill-opacity:.98823529;fill:#00ab99;opacity:.75;stroke-width:1.6303915"/>
    <path id="path15" d="m336.3007 506.56472h-5v1h4v4h1z" style="fill-opacity:.98823529;fill:#00ab99;opacity:.75;stroke-width:1.6303915"/>
   </g>
  </g>
 </g>
</svg>
