<?xml version="1.0" encoding="UTF-8"?>
<svg id="SVGRoot" version="1.1" viewBox="0 0 48 48" xmlns="http://www.w3.org/2000/svg" xmlns:xlink="http://www.w3.org/1999/xlink">
 <defs id="defs855">
  <linearGradient id="linearGradient1560" x1="-18.477501" x2="-18.477501" y1="40.485661" y2="-1.5088551" gradientUnits="userSpaceOnUse">
   <stop id="stop1554" style="stop-color:#203040" offset="0"/>
   <stop id="stop1556" style="stop-color:#395674" offset="1"/>
  </linearGradient>
 </defs>
 <g id="layer1">
  <g id="g1525" transform="matrix(1 0 0 .9286927 43.540001 2.9012627)" style="stroke-width:1.0376813">
   <rect id="rect1470" x="-41.540001" y="4.3125" width="44" height="36.8125" rx="2.4375" ry="2.6246572" style="fill:url(#linearGradient1560)"/>
   <g id="g1517" transform="translate(-44.29 -.835)" style="stroke-width:1.0376813">
    <g id="g1511" style="stroke-width:1.0376813">
     <path id="path1509" d="m7.469 17.594c0.813 0.403 1.631 0.607 2.538 0.607 1.215 0 2.118-0.463 2.118-1.232 0-0.328-0.212-0.571-0.477-0.783s-1.021-0.415-1.832-0.707c-0.976-0.38-1.609-0.755-1.902-1.126-0.292-0.372-0.438-0.822-0.438-1.349 0-0.754 0.33-1.357 0.991-1.811 0.659-0.454 1.473-0.68 2.438-0.68 0.748 0 1.442 0.126 2.085 0.377v1.19c-0.618-0.257-1.403-0.352-2.236-0.352-0.499 0-1.174 0.126-1.486 0.337s-0.534 0.531-0.534 0.874c0 0.338 0.24 0.59 0.466 0.779 0.225 0.189 0.761 0.49 1.705 0.678 0.981 0.354 1.645 0.72 1.989 1.1s0.517 0.849 0.517 1.407c0 0.779-0.33 1.393-0.991 1.841-0.659 0.449-1.515 0.673-2.565 0.673-0.913 0-1.708-0.166-2.387-0.5v-1.323z" style="fill:#ffffff;stroke-width:1.0376813"/>
    </g>
    <rect id="rect1513" x="10" y="9" width="1" height="12" style="fill:#ffffff;stroke-width:1.0376813"/>
    <rect id="rect1515" x="16" y="9" width="4" height="12" style="fill:#ffffff;stroke-width:1.0376813"/>
   </g>
  </g>
 </g>
</svg>
