<?xml version="1.0" encoding="UTF-8"?>
<svg version="1.1" viewBox="0 0 48 48" xmlns="http://www.w3.org/2000/svg">
 <defs>
  <linearGradient id="linearGradient5578" x1="24.138405" x2="24.276943" y1="35.79874" y2="6.2055192" gradientTransform="matrix(.91666665 0 0 .91666665 1.9999893 .1666644)" gradientUnits="userSpaceOnUse">
   <stop style="stop-color:#2f4e6d" offset="0"/>
   <stop style="stop-color:#3b6289" offset="1"/>
  </linearGradient>
 </defs>
 <path d="m18.499989 34.083331v10.083334h11v-10.083334z" style="fill:#999999"/>
 <path d="m2 3.8333349h44v32.999996h-44z" style="fill:#4d4d4d"/>
 <path d="m13.916666 43.249973h20.166666v0.916643h-20.166666z" style="fill:#797474"/>
 <path d="m24.916656 34.999999a0.91666665 0.91666665 0 0 1-0.916667 0.916666 0.91666665 0.91666665 0 0 1-0.916667-0.916666 0.91666665 0.91666665 0 0 1 0.916667-0.916668 0.91666665 0.91666665 0 0 1 0.916667 0.916668z" style="fill-rule:evenodd;fill:#dfdfdf;opacity:.75"/>
 <path d="m4.4573684 5.8455772h39.279534v27.239298h-39.279534z" style="fill:url(#linearGradient5578)"/>
 <path d="m24.099609 10.259766c-0.317557 0-0.63307 0.097002-0.90039 0.292968-0.741875 0.543108-3.123847 2.08479-5.876953 2.34375-0.887881 0.0831-1.589931 0.843848-1.605469 1.742188v0.001953c-0.01967 1.290738 0.061035 4.066557 1.076172 6.863281 1.015141 2.796724 3.078563 5.675927 6.853515 6.695313h0.001954c0.296648 0.07955 0.607649 0.07955 0.904296 0h0.001954c3.775027-1.018515 5.838188-3.896482 6.853515-6.69336 1.015075-2.796188 1.096872-5.572924 1.078125-6.863281-0.01169-0.904246-0.717527-1.663342-1.605469-1.746094l-0.001953-0.001953c-2.750892-0.259115-5.128676-1.796717-5.875-2.341797-0.267319-0.195962-0.584788-0.292968-0.902344-0.292968h-0.001953zm0.001953 4.646484c2.159327 0 4.199089 1.017724 5.595704 2.792969 0.185558 0.235381 0.156254 0.587301-0.064454 0.785156-0.097804 0.088125-0.217222 0.130859-0.335937 0.130859-0.149007 0-0.295044-0.067953-0.398437-0.199218-1.197493-1.521638-2.946664-2.394532-4.796876-2.394532s-3.599364 0.872534-4.796874 2.394532c-0.103374 0.131263-0.251403 0.199218-0.400391 0.199218-0.118697 0-0.236175-0.043109-0.333985-0.130859-0.221064-0.198194-0.25001-0.549395-0.064453-0.785156 1.39697-1.775245 3.436379-2.792969 5.595703-2.792969zm0 2.363281c1.542484 0 2.998045 0.726488 3.996094 1.994141 0.185518 0.235401 0.158544 0.586962-0.0625 0.785156-0.097824 0.088126-0.217221 0.13086-0.335937 0.13086-0.148633 0-0.296998-0.067575-0.400391-0.199219-0.79857-1.014785-1.963897-1.595703-3.197266-1.595703-1.233368 0-2.39905 0.580918-3.197265 1.595703-0.103038 0.131263-0.251403 0.199219-0.400391 0.199219-0.118715 0-0.238127-0.04311-0.335937-0.13086-0.221065-0.198194-0.248039-0.549395-0.0625-0.785156 0.997675-1.267673 2.453612-1.994141 3.996093-1.994141zm0 2.453125c0.925958 0 1.800374 0.436826 2.398438 1.197266 0.185537 0.235741 0.156609 0.586942-0.064453 0.785156-0.097805 0.088126-0.217222 0.13086-0.335938 0.13086-0.148652-1e-6 -0.296997-0.067575-0.40039-0.199219-0.399276-0.507592-0.98115-0.798828-1.597657-0.798828-0.616506 0-1.198362 0.291236-1.597656 0.798828-0.103038 0.131263-0.251402 0.199219-0.40039 0.199219-0.118716 0-0.238128-0.04311-0.335938-0.13086-0.221064-0.198194-0.25001-0.549395-0.064453-0.785156 0.598045-0.76044 1.472462-1.197266 2.398437-1.197266zm-0.044921 2.117188c0.4084-0.041567 0.831648 0.201525 0.904297 0.853515 0 0.507133-0.384641 0.917969-0.859376 0.917969-0.474733 0-0.859374-0.410836-0.859374-0.917969 0.013834-0.485723 0.406052-0.811949 0.814453-0.853515z" style="color-rendering:auto;color:#000000;dominant-baseline:auto;fill:#c1e6e3;font-feature-settings:normal;font-variant-alternates:normal;font-variant-caps:normal;font-variant-ligatures:normal;font-variant-numeric:normal;font-variant-position:normal;image-rendering:auto;isolation:auto;mix-blend-mode:normal;shape-padding:0;shape-rendering:auto;solid-color:#000000;stroke-width:1.141378;text-decoration-color:#000000;text-decoration-line:none;text-decoration-style:solid;text-indent:0;text-orientation:mixed;text-transform:none;white-space:normal"/>
</svg>
