<?xml version="1.0" encoding="UTF-8"?>
<svg version="1.1" viewBox="0 0 48 48" xmlns="http://www.w3.org/2000/svg" xmlns:xlink="http://www.w3.org/1999/xlink">
 <defs>
  <linearGradient id="linearGradient1580" x1="24.734921" x2="24.734921" y1="46.879002" y2="3.5569685" gradientTransform="translate(-.2942408 -.7095103)" gradientUnits="userSpaceOnUse">
   <stop stop-color="#ff3069" offset="0"/>
   <stop stop-color="#ffa548" offset="1"/>
  </linearGradient>
 </defs>
 <path d="m5.1428549 2.000005h37.714277c1.741149 0 3.142868 1.4017138 3.142868 3.1428546v37.714278c0 1.741143-1.401719 3.142857-3.142868 3.142857h-37.714277c-1.7411421 0-3.1428554-1.401714-3.1428554-3.142857v-37.714277c0-1.7411424 1.4017133-3.1428562 3.1428554-3.1428562z" style="fill:url(#linearGradient1580);paint-order:stroke fill markers"/>
 <path d="m12.460938 35.000132c-0.805665 0-1.460938 0.672851-1.460938 1.5 0 0.827148 0.655273 1.5 1.460938 1.5h23.076171c0.805665 0 1.462891-0.672852 1.462891-1.5 0-0.827149-0.657226-1.5-1.462891-1.5z" style="fill:#ffa548"/>
 <path d="m31.500682 9.9998685c-0.255859 0-0.511719 0.09766-0.707031 0.2929685l-3.292969 3.292969-1.292969-1.292969c-0.390625-0.390625-1.023437-0.390625-1.414062 0l-5 5c-0.390625 0.390626-0.390625 1.023438 0 1.414063 0.195312 0.195309 0.451171 0.292968 0.707031 0.292968 0.255858 0 0.511719-0.09766 0.707031-0.292968l4.292969-4.292969 4.292969 4.292969c0.195312 0.195309 0.451171 0.292968 0.707031 0.292968 0.255859 0 0.511719-0.09766 0.707031-0.292968l3.999999-4c0.390625-0.390625 0.390625-1.023438 0-1.414063l-3-3c-0.195312-0.195312-0.451171-0.2929685-0.70703-0.2929685zm-6 6.0000005c-0.255859 0-0.511719 0.09766-0.707031 0.292968l-12 12c-0.1875 0.1875-0.292969 0.441406-0.292969 0.707031v3c0 0.552734 0.447265 1 1 1h3c0.265625 0 0.519531-0.105468 0.707031-0.292968l12-12c0.390625-0.390625 0.390625-1.023438 0-1.414063l-3-3c-0.195312-0.195313-0.451172-0.292969-0.707031-0.292968z" style="fill:#ffffff"/>
</svg>
