<?xml version="1.0" encoding="UTF-8"?>
<svg id="SVGRoot" version="1.1" viewBox="0 0 48 48" xmlns="http://www.w3.org/2000/svg" xmlns:xlink="http://www.w3.org/1999/xlink">
 <defs id="defs1146">
  <linearGradient id="linearGradient1094" x1="6.4718246" x2="14.094196" y1="7.2994127" y2="10.894871" gradientTransform="matrix(.99959155 0 0 .99959155 .00081808374 -.24831903)" gradientUnits="userSpaceOnUse">
   <stop id="stop1088" style="stop-color:#ffd911" offset="0"/>
   <stop id="stop1090" style="stop-color:#ffdd27" offset="1"/>
  </linearGradient>
  <linearGradient id="linearGradient1086" x1="22.271187" x2="22.271187" y1="30.813559" y2="26.440678" gradientTransform="matrix(.99959155 0 0 .99959155 .00081808374 -.24831903)" gradientUnits="userSpaceOnUse">
   <stop id="stop1080" style="stop-color:#4ec300" offset="0"/>
   <stop id="stop1082" style="stop-color:#94ff4d" offset="1"/>
  </linearGradient>
  <linearGradient id="linearGradient1068" x1="10.644068" x2="10.644068" y1="30.725454" y2="19.188858" gradientTransform="matrix(.99959155 0 0 .99959155 .00081808374 -.24831903)" gradientUnits="userSpaceOnUse">
   <stop id="stop1062" style="stop-color:#183058" offset="0"/>
   <stop id="stop1064" style="stop-color:#284f92" offset="1"/>
  </linearGradient>
  <linearGradient id="linearGradient1076" x1="39.013706" x2="39.013706" y1="28.650434" y2="19.333633" gradientTransform="matrix(.99959155 0 0 .99959155 .00081808374 -.24831903)" gradientUnits="userSpaceOnUse">
   <stop id="stop1070" style="stop-color:#264c8c" offset="0"/>
   <stop id="stop1072" style="stop-color:#376ec9" offset="1"/>
  </linearGradient>
  <linearGradient id="linearGradient899" x1="24.736753" x2="24.736753" y1="41.285217" y2="30.93395" gradientTransform="matrix(.99959155 0 0 .99959155 .01878778 -.28425938)" gradientUnits="userSpaceOnUse">
   <stop id="stop893" style="stop-color:#0055d4" offset="0"/>
   <stop id="stop895" style="stop-color:#2ed1c2" offset="1"/>
  </linearGradient>
  <linearGradient id="linearGradient882" x1="24.570492" x2="24.570492" y1="7.0294371" y2="30.399916" gradientTransform="matrix(.99959155 0 0 .99959155 .00980241 .00980248)" gradientUnits="userSpaceOnUse">
   <stop id="stop876" style="stop-color:#3ecdf6" offset="0"/>
   <stop id="stop878" style="stop-color:#97e4fa" offset="1"/>
  </linearGradient>
 </defs>
 <path id="path27" d="m3.5617811 6.912482h40.858465c0.865226 0 1.561782 0.7195089 1.561782 1.6131469v30.94886c0 0.893638-0.696556 1.613029-1.561782 1.613029h-40.858465c-0.8652255 0-1.5617779-0.719391-1.5617779-1.613029v-30.94886c0-0.893638 0.6965524-1.6131469 1.5617779-1.6131469z" style="fill:url(#linearGradient882);stroke-width:1.5540378"/>
 <path id="path869" d="m2.0179709 30.462943v8.974848c0 0.893637 0.6966363 1.614575 1.5618617 1.614575h40.858306c0.865226 0 1.561861-0.720938 1.561861-1.614575v-8.974848z" style="fill:url(#linearGradient899);stroke-width:1.5540378"/>
 <path id="rect989" d="m33.629345 15.898338a2.533222 2.4266931 0 0 0-2.289204 1.394227 2.4045958 1.9194353 0 0 0-0.111989-0.0044 2.4045958 1.9194353 0 0 0-2.399548 1.853193 2.1711833 1.3175533 0 0 0-1.299411 1.205152 2.1711833 1.3175533 0 0 0 1.798426 1.296082v0.0202h7.369923v-0.013a2.6875728 1.3688865 0 0 0 2.332016-1.355255 2.6875728 1.3688865 0 0 0-1.533273-1.234019 3.4163067 1.9253445 0 0 0 0.01979-0.203505 3.4163067 1.9253445 0 0 0-1.633733-1.639586 2.533222 2.4266931 0 0 0-2.252969-1.319172z" style="fill:#ffffff"/>
 <path id="path968" d="m38.385521 18.548688c-5.911092 5.398562-12.482601 7.824756-18.904383 10.925223l26.50089 0.907832v-9.515642c-0.806171-0.670166-1.802354-1.517158-2.623928-2.3057-2.76589 1.440702-5.085232-0.03772-4.972579-0.01172z" style="fill:url(#linearGradient1076)"/>
 <path id="path956" d="m11.595689 18.745873s-3.0186983 1.869245-5.4626117 0.862929c-1.0250281-0.422071-1.2013741-0.50224-1.3119639-0.556414l-2.8211122 2.821113v8.076779l2.2510332 0.171803 30.058034 0.269422c-8.473109-3.180134-16.646974-6.593618-22.713379-11.645632zm-6.7745756 0.306515 0.017573-0.01757s-0.1706523-0.05742-0.017573 0.01757z" style="fill:url(#linearGradient1068)"/>
 <path id="path867" d="m2.0000001 30.498767v-1.142534s3.1716542-1.903922 4.0633897-2.069954c0.8917026-0.166112 1.9447753-0.03089 3.0269532 0.154787 1.082256 0.185074 2.697968 0.435372 3.202222 0.451015 0.504275 0.01599 1.416771-0.03998 2.477067-0.09826 1.060275-0.05708 2.815839-0.109674 3.363415-0.103957 0.547576 0 1.914538 0.06857 3.371772 0.149419 1.457125 0.08107 3.458637 0.216602 3.912644 0.254526 0.454103 0.03769 0.98788 0.107386 1.593689 0.183355 0.605742 0.07537 1.654384 0.189293 2.025481 0.2206 0.370978 0.03079 1.231057 0.138344 2.229009 0.221849 0.997931 0.08337 2.594938 0.111954 3.05609 0.08107 0.461201-0.03089 1.427876-0.34134 2.505217-0.627513 1.077289-0.286053 2.265184-0.548006 3.168684-0.483233 0.903562 0.06507 5.986395 1.66622 5.986395 1.66622v1.142433h-38.64041z" style="fill:url(#linearGradient1086)"/>
 <path id="path941" d="m6.7812505 6.9128178c-0.2700686 0.6038033-0.4275603 1.2676221-0.4275603 1.9718503 0 2.6771769 2.1704511 4.8476279 4.8476288 4.8476279 2.677178 0 4.847628-2.170451 4.847628-4.8476279 0-0.7042282-0.15749-1.368047-0.42756-1.9718503z" style="enable-background:new;fill-rule:evenodd;fill:url(#linearGradient1094)"/>
 <path id="path945" d="m30.451253 6.912482c-0.572345 0.9973914-0.904791 2.1516857-0.904791 3.384096 0 3.762455 3.05009 6.812544 6.812547 6.812544 3.762453 0 6.812546-3.050089 6.812546-6.812544 0-1.2324103-0.332453-2.3867046-0.90479-3.384096z" style="enable-background:new;fill-opacity:0"/>
 <path id="path1000" d="m15.708913 7.3844611a3.8363493 3.1308971 0 0 1 3.556257 1.962861 1.8048533 1.5860346 0 0 1 1.564247 1.4519709 2.4381353 2.1425379 0 0 1 2.258286 2.136543 2.4381353 2.1425379 0 0 1-2.020864 2.108753v0.03367h-8.275324v-0.02191a3.0180159 2.2260134 0 0 1-2.619226-2.203877 3.0180159 2.2260134 0 0 1 1.72219-2.007751 3.8363493 3.1308971 0 0 1-0.02227-0.329726 3.8363493 3.1308971 0 0 1 3.836707-3.1305309z" style="fill:#ffffff"/>
</svg>
