<?xml version="1.0" encoding="UTF-8"?>
<svg id="svg35" version="1.1" viewBox="0 0 48 48" xmlns="http://www.w3.org/2000/svg">
 <title id="title2">drive-removable-media-48px</title>
 <desc id="desc4">Created with Sketch.</desc>
 <path id="Rectangle-1" d="m8 4h32c0.554 0 1 0.446 1 1v33c0 0.554-0.446 1-1 1h-32c-0.554 0-1-0.446-1-1v-33c0-0.554 0.446-1 1-1z" style="fill-rule:evenodd;fill:#bbbec4"/>
 <path id="Rectangle-3" d="m7 34h34v6h-34z" style="fill-rule:evenodd;fill:#ffffff"/>
 <path id="rect16" d="m8 38h32c0.554 0 1 0.446 1 1v4c0 0.554-0.446 1-1 1h-32c-0.554 0-1-0.446-1-1v-4c0-0.554 0.446-1 1-1z" style="fill-rule:evenodd;fill:#bbbec4"/>
 <path id="Rectangle-path" d="m26.986328 39.996094v2h1v-2zm2 0v2h1v-2zm2 0v2h1v-2zm2 0v2h1v-2zm2 0v2h1v-2zm2 0v2h1v-2z" style="fill-rule:evenodd;fill:#2e2e2f"/>
 <path id="Oval" d="m13 41a1 1 0 0 1-1 1 1 1 0 0 1-1-1 1 1 0 0 1 1-1 1 1 0 0 1 1 1z" style="fill-rule:evenodd;fill:#2c2c2e"/>
 <path id="path54" d="m24.218405 9.6919072c-3.236653 0-6.107908 1.4922038-7.962884 3.7977408l1.271205 0.787728c1.586457-1.895589 4.009905-3.103244 6.711223-3.103244 4.776372 0 8.653726 3.781327 8.653726 8.441379 0 4.656769-3.877354 8.437965-8.653726 8.437965-2.691968 0-5.106919-1.201221-6.69508-3.08683l-1.271205 0.787859c1.86177 2.298971 4.723691 3.781195 7.962885 3.781195 5.606563 0 10.153509-4.443521 10.153509-9.920189 0-5.473648-4.550346-9.9170382-10.153509-9.9170382m-10.25633 4.1268032v11.573774l10.316662-5.84473m-0.07647-5.986806c-1.825237 0-3.465229 0.771971-4.603876 1.995383l1.317943 0.801253c0.846337-0.816878 2.007928-1.317825 3.289334-1.317825 2.592547 0 4.696496 2.066684 4.696496 4.611205 0 2.547934-2.101404 4.61475-4.696496 4.61475-1.30435 0-2.482936-0.519986-3.332671-1.36247l-1.271206 0.787859c1.138645 1.223676 2.775239 1.995645 4.603877 1.995645 3.432933 0 6.216672-2.719031 6.216672-6.064541 0-3.348924-2.784581-6.064673-6.216672-6.064673" style="fill-rule:evenodd;fill:#1b61ff;stroke-width:1.7538509"/>
</svg>
