<?xml version="1.0" encoding="UTF-8"?>
<svg version="1.1" viewBox="0 0 48 48" xmlns="http://www.w3.org/2000/svg">
<defs>
<linearGradient id="linearGradient1301-3" x1="-46.576271" x2="-.30630216" y1="24.20339" y2="24.20339" gradientTransform="matrix(0 -.86976835 .86974904 0 3.1302502 3.1209844)" gradientUnits="userSpaceOnUse">
<stop stop-color="#f2f2f2" offset="0"/>
<stop stop-color="#f9f9f9" offset="1"/>
</linearGradient>
<linearGradient id="linearGradient1023" x1="22.324791" x2="22.324791" y1="36.893955" y2="16.680523" gradientTransform="matrix(.90890579 0 0 .90890579 -41.493409 3.1259761)" gradientUnits="userSpaceOnUse">
<stop stop-color="#fe9e22" offset="0"/>
<stop stop-color="#feb336" offset="1"/>
</linearGradient>
<linearGradient id="linearGradient860" x1="-18.532173" x2="-18.532173" y1="55.719997" y2="10.307825" gradientTransform="translate(41.904348,-56.513042)" gradientUnits="userSpaceOnUse">
<stop stop-color="#3ccdfb" offset="0"/>
<stop stop-color="#1c8ef3" offset="1"/>
</linearGradient>
</defs>
<g>
<circle transform="scale(1,-1)" cx="24" cy="-24" r="23" fill="url(#linearGradient860)" style="paint-order:fill markers stroke"/>
<path d="m4 24c0-11.08 8.92-20 20-20s20 8.92 20 20-8.92 20-20 20-20-8.92-20-20z" fill="url(#linearGradient1301-3)"/>
<path d="m17.931986 14.00029a0.9090075 0.90898586 0 0 0-0.93198347 0.91068101v18.178116a0.9090075 0.90898586 0 0 0 1.3651338 0.78819174l15.742532-9.090833a0.9090075 0.90898586 0 0 0 0.45267769-0.83612232 0.9090075 0.90898586 0 0 0-0.45267769-0.73848595l-15.742532-9.0890579a0.9090075 0.90898586 0 0 0-0.43315036-0.12248921z" color="#000000" color-rendering="auto" dominant-baseline="auto" fill="url(#linearGradient1023)" image-rendering="auto" shape-rendering="auto" solid-color="#000000" style="font-feature-settings:normal;font-variant-alternates:normal;font-variant-caps:normal;font-variant-ligatures:normal;font-variant-numeric:normal;font-variant-position:normal;isolation:auto;mix-blend-mode:normal;paint-order:fill markers stroke;shape-padding:0;text-decoration-color:#000000;text-decoration-line:none;text-decoration-style:solid;text-indent:0;text-orientation:mixed;text-transform:none;white-space:normal"/>
</g>
</svg>
