<?xml version="1.0" encoding="UTF-8"?>
<svg id="svg8" version="1.1" viewBox="0 0 48 48" xmlns="http://www.w3.org/2000/svg" xmlns:xlink="http://www.w3.org/1999/xlink">
 <defs id="defs2">
  <linearGradient id="linearGradient995" x1="24.000002" x2="24.000002" y1="46.000008" y2="15.90184" gradientTransform="translate(-4.9903337e-8,284.29998)" gradientUnits="userSpaceOnUse">
   <stop id="stop989" style="stop-color:#54e419" offset="0"/>
   <stop id="stop991" style="stop-color:#85ed5d" offset="1"/>
  </linearGradient>
 </defs>
 <g id="layer1" transform="translate(0,-284.29998)">
  <path id="path1021" d="m24.000001 286.29998-18.975471 8.31011s-0.61808 16.66413 4.3510409 24.67273c4.1454299 6.68106 12.08098 10.06646 14.62443 11.01717 2.54346-0.9507 10.479-4.3361 14.624428-11.01717 4.969123-8.0086 4.351041-24.67273 4.351041-24.67273z" style="fill:url(#linearGradient995);paint-order:stroke fill markers"/>
  <g id="g848">
   <path id="path1121" d="m24 293.79998c-3.843405 0-6.999999 3.15662-7 7v17.59375c0 0.554 0.446 1 1 1s1-0.446 1-1v-17.59375c0-2.76998 2.230002-5 5-5 2.77 0 5 2.23002 5 5v17.59375c0 0.554 0.446 1 1 1s1-0.446 1-1v-17.59375c0-3.84338-3.156593-7-7-7z" style="color-rendering:auto;color:#000000;dominant-baseline:auto;fill:#ffffff;font-feature-settings:normal;font-variant-alternates:normal;font-variant-caps:normal;font-variant-ligatures:normal;font-variant-numeric:normal;font-variant-position:normal;image-rendering:auto;isolation:auto;mix-blend-mode:normal;paint-order:stroke fill markers;shape-padding:0;shape-rendering:auto;solid-color:#000000;text-decoration-color:#000000;text-decoration-line:none;text-decoration-style:solid;text-indent:0;text-orientation:mixed;text-transform:none;white-space:normal"/>
   <path id="rect1009" d="m22 308.79968c0.554 0 1 0.446 1 1v11c0 0.554-0.446 1-1 1s-1-0.446-1-1v-11c0-0.554 0.446-1 1-1z" style="fill:#ffffff;paint-order:stroke fill markers"/>
   <path id="rect1013" d="m26 308.79968c0.554 0 1 0.446 1 1v11c0 0.554-0.446 1-1 1s-1-0.446-1-1v-11c0-0.554 0.446-1 1-1z" style="fill:#ffffff;paint-order:stroke fill markers"/>
   <path id="rect1090" d="m34 306.39212c0.554 0 1 0.446 1 1v8c0 0.554-0.446 1-1 1s-1-0.446-1-1v-8c0-0.554 0.446-1 1-1z" style="fill:#ffffff;paint-order:stroke fill markers"/>
   <path id="rect1094" d="m14 306.39212c0.554 0 1 0.446 1 1v8c0 0.554-0.446 1-1 1s-1-0.446-1-1v-8c0-0.554 0.446-1 1-1z" style="fill:#ffffff;paint-order:stroke fill markers"/>
   <path id="path1154" d="m23 302.39029a1 1 0 0 1-1 1 1 1 0 0 1-1-1 1 1 0 0 1 1-1 1 1 0 0 1 1 1z" style="fill:#ffffff;paint-order:stroke fill markers"/>
   <path id="circle1156" d="m27 302.39029a1 1 0 0 1-1 1 1 1 0 0 1-1-1 1 1 0 0 1 1-1 1 1 0 0 1 1 1z" style="fill:#ffffff;paint-order:stroke fill markers"/>
  </g>
 </g>
</svg>
