<?xml version="1.0" encoding="UTF-8"?>
<svg version="1.1" viewBox="0 0 48 48" xmlns="http://www.w3.org/2000/svg" xmlns:xlink="http://www.w3.org/1999/xlink">
 <defs>
  <linearGradient id="linearGradient1542-2" x1="24.811687" x2="24.811687" y1="56.627228" y2="12.176363" gradientTransform="matrix(.96260634 0 0 .98168802 -6.7946539 -8.0476577)" gradientUnits="userSpaceOnUse">
   <stop style="stop-color:#1078e8" offset="0"/>
   <stop style="stop-color:#1fcaff" offset="1"/>
  </linearGradient>
 </defs>
 <linearGradient id="e" x1="74.642997" x2="74.642998" y1="18.268514" y2="103.81761" gradientTransform="matrix(.43781095 0 0 .43781095 -2.151819 -2.127537)" gradientUnits="userSpaceOnUse">
  <stop stop-color="#ccc" offset="0"/>
  <stop stop-color="#fff" style="stop-color:#e6e6e6" offset="1"/>
 </linearGradient>
 <path d="m16.604211 11.694746c2.034172-2.4004109 4.664034-3.8521303 7.532172-3.8521303 6.455518 0 11.688767 7.3203713 11.688767 16.343974 0 9.028016-5.233249 16.343975-11.688767 16.343975-2.872551 0-5.498-1.447307-7.532172-3.847718 3.181427 4.130119 7.907236 6.751157 13.189024 6.751157 3.247614 0 6.287841-0.992815 8.886816-2.713701 4.54048-4.059519 7.395383-9.959058 7.395383-16.5293 0-6.56583-2.854903-12.469782-7.395383-16.5293-2.598975-1.7252961-5.639202-2.7137007-8.886816-2.7137007-5.281788 0-10.007597 2.6210375-13.189024 6.7511556" style="fill:url(#e);stroke-width:.43781096"/>
 <path d="m24.116838 2.1411198c-12.149254 0-22 9.8507462-22 22 0 11.799005 9.2903482 21.426468 20.953632 21.973732 0.350249 0.01751 0.696119 0.02627 1.046368 0.02627 5.634627 0 10.770149-2.119005 14.662289-5.599602-2.578707 1.711841-5.595224 2.692538-8.817513 2.692538-5.240597 0-9.929552-2.600598-13.086169-6.698508-2.434229-2.87204-4.00597-7.114428-4.115423-11.877811v-1.037612c0.109453-4.763383 1.681194-9.010149 4.115423-11.877811 3.156617-4.0979106 7.84995-6.6985076 13.086169-6.6985076 3.222289 0 6.238806 0.9850746 8.817513 2.6969154-3.870249-3.4630846-8.979503-5.5777115-14.579105-5.599602h-0.08318z" style="fill:url(#linearGradient1542-2);font-variant-east_asian:normal;paint-order:stroke fill markers;stroke-width:.06540271"/>
</svg>
