<?xml version="1.0" encoding="UTF-8"?>
<svg id="svg13" version="1.1" viewBox="0 0 48 48" xmlns="http://www.w3.org/2000/svg" xmlns:xlink="http://www.w3.org/1999/xlink">
 <defs id="defs17">
  <linearGradient id="linearGradient1311" x1="-28.003857" x2="-26.894215" y1="32.521339" y2="-3.5512378" gradientTransform="matrix(1 0 0 .93224753 50.54623 10.655077)" gradientUnits="userSpaceOnUse">
   <stop id="stop7-6" stop-color="#197ff1" offset="0"/>
   <stop id="stop9-7" stop-color="#21c6fb" offset="1"/>
  </linearGradient>
 </defs>
 <path id="rect1247" d="m1.9999996 8.2355003h44v33.999825h-44z" style="fill:url(#linearGradient1311)"/>
 <path id="rect4267-7-3" d="m1.9999999 38.506363h44v3.72896h-44z" style="fill:#172f55;stroke-width:.99999994"/>
 <path id="rect4183-0" d="m3.999986 39.438525v0.932248h1v-0.932248zm1 0.932248v0.932247h1v-0.932247z" style="fill:#c5eff7;stroke-width:.99999994"/>
 <path id="rect4158-9" d="m42.495396 8.2355002h-8.244885l-28.745908 34h8.244887z" style="fill:#172f55"/>
 <path id="path1017-5" d="m37.548828 39.484375a0.89674062 0.88723665 0 0 0-0.898437 0.886719 0.89674062 0.88723665 0 0 0 0.898437 0.886718 0.89674062 0.88723665 0 0 0 0.896484-0.886718 0.89674062 0.88723665 0 0 0-0.896484-0.886719zm2.896484 0a0.89674062 0.88723665 0 0 0-0.896484 0.886719 0.89674062 0.88723665 0 0 0 0.896484 0.886718 0.89674062 0.88723665 0 0 0 0.896485-0.886718 0.89674062 0.88723665 0 0 0-0.896485-0.886719zm2.900391 0a0.89674062 0.88723665 0 0 0-0.896484 0.886719 0.89674062 0.88723665 0 0 0 0.896484 0.886718 0.89674062 0.88723665 0 0 0 0.896485-0.886718 0.89674062 0.88723665 0 0 0-0.896485-0.886719z" style="fill:#c5eff7"/>
</svg>
