<?xml version="1.0" encoding="UTF-8"?>
<svg id="svg5453" version="1.1" viewBox="0 0 48 48" xmlns="http://www.w3.org/2000/svg" xmlns:xlink="http://www.w3.org/1999/xlink">
 <defs id="defs5455">
  <linearGradient id="linearGradient5578" x1="24.138405" x2="24.276943" y1="35.79874" y2="6.2055192" gradientTransform="matrix(.91666665 0 0 .91666665 1.9999893 .1666648)" gradientUnits="userSpaceOnUse">
   <stop id="stop919" style="stop-color:#2f4e6d" offset="0"/>
   <stop id="stop921" style="stop-color:#3b6289" offset="1"/>
  </linearGradient>
 </defs>
 <path id="rect4254" d="m18.499989 34.083331v10.083334h11v-10.083334z" style="fill:#999999"/>
 <path id="rect4173" d="m2 3.8333354h44v32.999997h-44z" style="fill:#4d4d4d"/>
 <path id="rect4295" d="m13.916666 43.249973h20.166666v0.916643h-20.166666z" style="fill:#797474"/>
 <path id="path3072" d="m24.916656 34.999999a0.91666665 0.91666665 0 0 1-0.916667 0.916666 0.91666665 0.91666665 0 0 1-0.916667-0.916666 0.91666665 0.91666665 0 0 1 0.916667-0.916668 0.91666665 0.91666665 0 0 1 0.916667 0.916668z" style="fill-rule:evenodd;fill:#dfdfdf;opacity:.75"/>
 <path id="rect4228" d="m4.4573684 5.8455777h39.279534v27.239298h-39.279534z" style="fill:url(#linearGradient5578)"/>
 <g id="g4130" transform="translate(-30.769953 .15220215)">
  <g id="g4142" transform="matrix(.92973468 0 0 .92973468 3.8699694 1.3730157)" style="stroke-width:1.0755757">
   <path id="circle4299" transform="translate(30.769953 -.15220215)" d="m27.097136 19.465227a3 3 0 0 1-3 3 3 3 0 0 1-3-3 3 3 0 0 1 3-3 3 3 0 0 1 3 3z" style="fill:#35587b"/>
   <path id="path4123" d="m57.18433 12.902629-0.961909-0.765326-1.251406 0.273648 0.517937-1.053341-0.678181-0.978121 1.28201 0.114326 0.832268-0.8781591 0.274389 1.1239991 1.192552 0.435387-1.112429 0.580343z" style="fill-rule:evenodd;fill:#c1cede"/>
   <path id="path4141-2" d="m49.254419 24.426707-0.950835-0.872754-1.389076 0.167713 0.687546-1.034547-0.617833-1.065545 1.375762 0.233369 1.007236-0.826256 0.162721 1.178776 1.240339 0.554892-1.275196 0.495155z" style="fill-rule:evenodd;fill:#c1cede"/>
   <path id="path4129" d="m59.634056 19.380226-0.982377-1.349934-1.802366-0.04272 1.134301-1.251377-0.511461-1.543752 1.683414 0.57654 1.486266-0.911373-0.09389 1.607699 1.430025 0.980492-1.741445 0.417072z" style="fill-rule:evenodd;fill:#c1cede"/>
   <path id="path3095" d="m52.862025 15.922523-1.598653-0.203474-1.094024 1.060525-0.277283-1.420437-1.467682-0.601314 1.427283-0.674404 0.186947-1.432158 1.159392 1.003632 1.583222-0.283808-0.71074 1.294684z" style="fill-rule:evenodd;fill:#c1cede"/>
   <path id="path4135" d="m54.658029 21.61629-0.994756-0.393663-0.927133 0.508512 0.11191-0.966385-0.828137-0.630174 1.06392-0.203596 0.415316-0.897981 0.545629 0.840556 1.084818 0.07519-0.726704 0.723089z" style="fill-rule:evenodd;fill:#c1cede"/>
   <path id="path4141" d="m58.074306 25.778034-0.560363-0.542988-0.818636 0.104344 0.405197-0.643648-0.364113-0.662933 0.81079 0.145191 0.593602-0.514058 0.0959 0.73338 0.730979 0.345228-0.751521 0.308062z" style="fill-rule:evenodd;fill:#c1cede"/>
   <path id="path4147" d="m53.603296 28.517862-0.737249-0.116317-0.508828 0.574473-0.122914-0.775308-0.675366-0.332764 0.661285-0.36285 0.09143-0.780133 0.531611 0.551054 0.731872-0.149384-0.332732 0.703421z" style="fill-rule:evenodd;fill:#c1cede"/>
   <path id="path4147-7" d="m62.330477 20.580552-0.116159 0.738251 0.573694 0.509518-0.774257 0.123081-0.332313 0.676283-0.362357-0.662183-0.779075-0.09155 0.550307-0.532332-0.149182-0.732866 0.702467 0.333183z" style="fill-rule:evenodd;fill:#c1cede"/>
  </g>
 </g>
</svg>
