<?xml version="1.0" encoding="UTF-8"?>
<svg id="svg21" version="1.1" viewBox="0 0 48 48" xmlns="http://www.w3.org/2000/svg" xmlns:xlink="http://www.w3.org/1999/xlink">
 <defs id="defs5455">
  <linearGradient id="linearGradient824" x1="26.10714" x2="26.10714" y1="45.762711" y2="2.4374466" gradientTransform="matrix(.48669328 0 0 .48669328 12.319359 9.1232222)" gradientUnits="userSpaceOnUse">
   <stop id="stop818" style="stop-color:#0652ff" offset="0"/>
   <stop id="stop820" style="stop-color:#1b99ff" offset="1"/>
  </linearGradient>
  <linearGradient id="linearGradient829" x1="400.55444" x2="400.55444" y1="517.83185" y2="545.22168" gradientTransform="matrix(1.5454552,0,0,-1.5714286,-595.06511,859.68259)" gradientUnits="userSpaceOnUse">
   <stop id="stop859" style="stop-color:#a5a5a5" offset="0"/>
   <stop id="stop861" style="stop-color:#dbdbdb" offset="1"/>
  </linearGradient>
 </defs>
 <path id="rect4144" d="m7.000005 46.000004v-44.000001h33.999999v33.000001l-10.818171 11z" style="fill:url(#linearGradient829)"/>
 <path id="path4164" d="m41.000004 35.000004-10.818171 11v-11z" style="fill-rule:evenodd;fill:#333333"/>
 <path id="path27" d="m21.616324 10.09644a8.3235872 8.3235862 0 0 0-8.323575 8.323575 8.3235872 8.3235862 0 0 0 8.323575 8.323606 8.3235872 8.3235862 0 0 0 4.976981-1.665196l6.432863 6.432863 1.681083-1.681083-6.432863-6.432879a8.3235872 8.3235862 0 0 0 1.66518-4.976965 8.3235872 8.3235862 0 0 0-8.32359-8.323575m0 2.378169a5.9454198 5.9454189 0 0 1 5.945421 5.945406 5.9454198 5.9454189 0 0 1-0.03017 0.59455 5.9454198 5.9454189 0 0 1-0.959169 2.680087 5.9454198 5.9454189 0 0 1-1.681428 1.681428 5.9454198 5.9454189 0 0 1-0.452886 0.269406 5.9454198 5.9454189 0 0 1-0.05799 0.03489 5.9454198 5.9454189 0 0 1-0.01257 0.0047 5.9454198 5.9454189 0 0 1-0.527183 0.243854 5.9454198 5.9454189 0 0 1-0.517911 0.181155 5.9454198 5.9454189 0 0 1-0.04416 0.01634 5.9454198 5.9454189 0 0 1-0.0079 0.0031 5.9454198 5.9454189 0 0 1-0.541121 0.127757 5.9454198 5.9454189 0 0 1-0.03017 0.0079 5.9454198 5.9454189 0 0 1-0.0047 0 5.9454198 5.9454189 0 0 1-0.436606 0.0605 5.9454198 5.9454189 0 0 1-0.176502 0.02326 5.9454198 5.9454189 0 0 1-0.466825 0.01854 5.9454198 5.9454189 0 0 1-5.945421-5.945406 5.9454198 5.9454189 0 0 1 0.03017-0.59455 5.9454198 5.9454189 0 0 1 2.703329-4.407967 5.9454198 5.9454189 0 0 1 1.056691-0.538796 5.9454198 5.9454189 0 0 1 2.155215-0.404109" style="fill:url(#linearGradient824);stroke-width:1.3000001"/>
 <path id="path847" d="m19.418445 14.354116a4.9686192 4.9686192 0 0 0-2.375859 5.311476 6.8196733 6.8196733 0 0 1 3.32101-4.84385 6.8196733 6.8196733 0 0 1 3.036535-0.896484 4.9686192 4.9686192 0 0 0-3.981686 0.428858z" style="fill:#1689ff"/>
</svg>
