<?xml version="1.0" encoding="UTF-8"?>
<svg id="svg34" version="1.1" viewBox="0 0 48 48" xmlns="http://www.w3.org/2000/svg" xmlns:xlink="http://www.w3.org/1999/xlink">
 <defs id="defs38">
  <linearGradient id="linearGradient3364" x1="399.9939" x2="399.9939" y1="545.13873" y2="518.13873" gradientTransform="matrix(1.6428584,0,0,1.6428584,-634.08211,-849.66872)" gradientUnits="userSpaceOnUse">
   <stop id="stop7-6" stop-color="#197ff1" offset="0"/>
   <stop id="stop9-7" stop-color="#21c6fb" offset="1"/>
  </linearGradient>
 </defs>
 <path id="circle12" d="M 46.999895,23.999949 A 22.999949,22.999949 0 0 1 23.999947,46.999897 22.999949,22.999949 0 0 1 0.99999809,23.999949 22.999949,22.999949 0 0 1 23.999947,1 22.999949,22.999949 0 0 1 46.999895,23.999949 Z" style="fill:url(#linearGradient3364);stroke-width:2.1357157"/>
 <path id="path30" d="m25.261719 14c-0.246173 0-0.460702 0.104371-0.640625 0.3125l-4.728516 5.476562v8.421876l4.728516 5.476562c0.179922 0.20813 0.394452 0.3125 0.640625 0.3125 0.246348 0 0.45875-0.10437 0.638672-0.3125 0.179923-0.208129 0.269531-0.455192 0.269531-0.740234v-17.894532c0-0.285042-0.08978-0.531903-0.269531-0.740234-0.180097-0.208129-0.392325-0.3125-0.638672-0.3125zm5.638672 3.933594c-0.255619 0-0.511163 0.097099-0.707032 0.292968l-1.414062 1.414063c-0.391737 0.391737-0.391737 1.022326 0 1.414063 0.391737 0.391735 1.022325 0.391736 1.414062 0l1.414063-1.414063c0.391737-0.391737 0.391737-1.022326 0-1.414063-0.195869-0.195868-0.451412-0.292968-0.707031-0.292968zm-16.080079 1.816406c-0.600949 0-1.083984 0.483035-1.083984 1.083984v6.332032c0 0.600949 0.483036 1.083984 1.083984 1.083984h1.830079c0.600949 0 1.085937-0.483035 1.085937-1.083984v-6.332032c0-0.600949-0.484988-1.083984-1.085937-1.083984h-1.830079zm16.44336 3.298828c-0.554 0-1 0.446-1 1s0.446 1 1 1h2c0.554 0 1-0.446 1-1s-0.446-1-1-1h-2zm-1.777344 3.701172c-0.255619 0-0.511163 0.0971-0.707031 0.292969-0.391738 0.391737-0.391737 1.022325 0 1.414062l1.414062 1.414063c0.391737 0.391737 1.022326 0.391737 1.414063 0s0.391737-1.022326 0-1.414063l-1.414063-1.414062c-0.195868-0.195869-0.451412-0.292969-0.707031-0.292969z" style="fill:#ffffff;stroke-width:.30016518"/>
</svg>
