<?xml version="1.0" encoding="UTF-8"?>
<svg id="svg942" width="48" height="48" version="1.1" viewBox="0 0 12.7 12.7" xmlns="http://www.w3.org/2000/svg">
 <defs id="defs936">
  <linearGradient id="b" x1="399.9939" x2="399.9939" y1="545.13873" y2="518.13873" gradientTransform="matrix(.43467295 0 0 .43467295 -167.76756 -224.80818)" gradientUnits="userSpaceOnUse">
   <stop id="stop7" stop-color="#197ff1" offset="0"/>
   <stop id="stop9" stop-color="#21c6fb" offset="1"/>
  </linearGradient>
 </defs>
 <path id="circle12" d="m12.435387 6.3499875a6.085403 6.085403 0 0 1-6.0854033 6.0854025 6.085403 6.085403 0 0 1-6.085403-6.0854025 6.085403 6.085403 0 0 1 6.085403-6.085403 6.085403 6.085403 0 0 1 6.0854033 6.085403z" style="fill:url(#b);stroke-width:.5650748"/>
 <path id="path837" transform="scale(.26458333)" d="m24 12.914062c-0.87949 0-1.587891 0.743202-1.587891 1.66211v0.755859c-3.041247 0.752561-5.294921 3.602936-5.294921 7.00586v6.097656l-2.117188 2.214844v1.107421h18v-1.107421l-2.117188-2.214844v-6.097656c0-3.403852-2.253673-6.253299-5.294921-7.00586v-0.755859c0-0.918908-0.708403-1.662109-1.587891-1.66211zm-2.119141 19.953126c0 1.219772 0.954198 2.218748 2.119141 2.21875 0.148732 0 0.286298-0.010083 0.425781-0.044922 0.68549-0.143139 1.258199-0.641173 1.521485-1.308594 0.106223-0.263116 0.171875-0.553761 0.171875-0.865234h-4.238282z" style="fill:#ffffff;stroke-width:.05444496"/>
</svg>
