<?xml version="1.0" encoding="UTF-8"?>
<svg id="svg29" version="1.1" viewBox="0 0 48 48" xmlns="http://www.w3.org/2000/svg" xmlns:xlink="http://www.w3.org/1999/xlink">
 <defs id="defs33">
  <linearGradient id="linearGradient1380-7" x1="46.189655" x2="51.591782" y1="19.516348" y2="20.272301" gradientTransform="matrix(.43611511 0 0 .43611859 23.499386 -2.3967386)" gradientUnits="userSpaceOnUse">
   <stop id="stop1374" style="stop-color:#111111" offset="0"/>
   <stop id="stop1376" style="stop-color:#5b5b5b" offset="1"/>
  </linearGradient>
  <linearGradient id="linearGradient1364-2" x1="48.095524" x2="54.367523" y1="46.430908" y2="46.568394" gradientTransform="matrix(.43611636 0 0 .43611735 17.387707 -15.988663)" gradientUnits="userSpaceOnUse">
   <stop id="stop1358" style="stop-color:#181818" offset="0"/>
   <stop id="stop1360" style="stop-color:#646464" offset="1"/>
  </linearGradient>
  <linearGradient id="linearGradient1372-2" x1="30.768103" x2="35.706829" y1="39.531185" y2="43.022717" gradientTransform="matrix(.43611511 0 0 .43611859 23.499386 -2.3967386)" gradientUnits="userSpaceOnUse">
   <stop id="stop1366" style="stop-color:#696969" offset="0"/>
   <stop id="stop1368" style="stop-color:#a8a8a8" offset="1"/>
  </linearGradient>
  <linearGradient id="linearGradient883" x1="23.75" x2="23.75" y1="44.125" y2="10.5" gradientTransform="matrix(1.0047609 0 0 1.0289305 -.0095222 -1.0622685)" gradientUnits="userSpaceOnUse">
   <stop id="stop877" style="stop-color:#2e3e46" offset="0"/>
   <stop id="stop879" style="stop-color:#425965" offset="1"/>
  </linearGradient>
 </defs>
 <g id="g968" transform="translate(4.6756544e-8 -.75261478)">
  <path id="rect15" d="m3.50405 10.000049h40.991899c0.833244 0 1.50405 0.670806 1.50405 1.50405v30.991899c0 0.833244-0.670806 1.504051-1.50405 1.504051h-40.991899c-0.833244 0-1.5040506-0.670807-1.5040506-1.504051v-30.991899c0-0.833244 0.6708066-1.50405 1.5040506-1.50405z" style="fill:url(#linearGradient883);stroke-width:1.2051398"/>
  <path id="rect935" d="m6.1261709 12.796852h35.747657c0.696161 0 1.256607 0.560447 1.256607 1.256607v25.893183c0 0.69616-0.560446 1.256607-1.256607 1.256607h-35.747657c-0.6961605 0-1.2566073-0.560447-1.2566073-1.256607v-25.893183c0-0.69616 0.5604468-1.256607 1.2566073-1.256607z" style="fill:#fafafa;stroke-width:1.0272051"/>
  <path id="path871" d="m28.541451 16.763665c-0.05222 0.0062-0.08843 0.0185-0.116341 0.02902-0.111628 0.04202-0.12918 0.0699-0.156965 0.09248-0.0278 0.02258-0.04869 0.04263-0.07017 0.06346-0.0859 0.08337-0.183569 0.191795-0.319473 0.346357-0.271808 0.309125-0.674259 0.782124-1.192945 1.374545-2.074745 2.369686-5.991235 6.639859-10.23606 9.494876-0.734584 0.494072-1.070679 0.65986-1.4681 0.877677 0.0401-0.05591 0.02987-0.05644 0.07387-0.114243 0.364113-0.478351 0.851381-1.064894 1.373919-1.679193 1.045075-1.228598 2.225346-2.564283 2.899264-3.490762 0.168478-0.231621 0.306632-0.436766 0.408111-0.625618 0.10148-0.188852 0.218311-0.33188 0.156967-0.652819-0.03067-0.160468-0.196003-0.36328-0.36564-0.424332-0.169636-0.06106-0.296263-0.04291-0.409959-0.01994-0.227393 0.04594-0.442859 0.145968-0.734971 0.301021-1.070619 0.568283-1.799832 0.827049-2.145824 0.874051-0.04321 0.0059-0.01452 0.0036-0.04247 0.0036 0.03799-0.143842 0.167323-0.473529 0.483826-0.897624 0.352405-0.472201 0.853803-1.02072 1.427472-1.555884 0.309729-0.288938 0.485143-0.413722 0.600167-0.728979 0.02875-0.07881 0.05665-0.190342 0.0203-0.331849-0.03632-0.141506-0.157816-0.273726-0.262227-0.330036-0.208822-0.11262-0.324529-0.08084-0.435813-0.07072-0.445133 0.04046-0.980845 0.232537-1.543812 0.333663-0.281482 0.05057-0.554772 0.07747-0.760825 0.06346-0.206051-0.01402-0.323525-0.06646-0.37672-0.116056-0.05319-0.0496-0.106697-0.123315-0.09603-0.384438 0.01067-0.261121 0.111519-0.680456 0.363793-1.258487a0.47279336 0.46427259 0 1 0-0.867921-0.366279c-0.279567 0.640564-0.423402 1.149229-0.441355 1.588525-0.01795 0.439298 0.115981 0.838416 0.391493 1.095282 0.275513 0.256868 0.628014 0.345405 0.962113 0.368119 0.334097 0.02271 0.671129-0.01792 0.995352-0.07616 0.211238-0.03795 0.280658-0.05995 0.47644-0.105176-0.452546 0.450061-0.899853 0.90745-1.21326 1.327397-0.39734 0.532413-0.682932 0.977784-0.720199 1.477908-0.01863 0.250061 0.08484 0.579578 0.339787 0.748926 0.254962 0.169349 0.534943 0.175972 0.829152 0.136004 0.510391-0.06934 1.251012-0.399881 2.140285-0.848664-0.627765 0.852776-1.768554 2.15687-2.801391 3.371082-0.526367 0.6188-1.022449 1.211864-1.407158 1.717273s-0.662048 0.858068-0.768212 1.278435c-0.02655 0.105091-0.0509 0.233252 0.0073 0.400758 0.05828 0.167506 0.249781 0.326367 0.408114 0.366303 0.316664 0.07987 0.492225-0.01737 0.740511-0.121497 0.496577-0.20823 1.210434-0.633254 2.299098-1.365477 3.450953-2.321067 6.35192-5.281084 8.568523-7.69056-2.786826 4.51979-3.606793 8.107589-3.636082 10.581093-0.03063 2.587046 0.768212 4.031151 0.768212 4.031152a0.47280426 0.4642833 0 1 0 0.827306-0.44972s-0.678485-1.167167-0.650026-3.570552c0.02846-2.403385 0.792735-5.997867 3.826289-10.695336 0.767818-1.188969 1.329193-2.051224 1.708165-2.642099 0.189485-0.295437 0.332511-0.523284 0.435812-0.692712 0.103301-0.169429 0.157059-0.233147 0.214214-0.393505 0.01429-0.04008 0.06468-0.06365 0.0203-0.272008-0.01109-0.05209-0.08995-0.191524-0.09049-0.192218-5.46e-4 -6.95e-4 -0.226287-0.157488-0.22714-0.157764s-0.156442-0.02801-0.208674-0.02176z" style="color-rendering:auto;color:#000000;dominant-baseline:auto;fill:#0da2e5;font-feature-settings:normal;font-variant-alternates:normal;font-variant-caps:normal;font-variant-ligatures:normal;font-variant-numeric:normal;font-variant-position:normal;image-rendering:auto;isolation:auto;mix-blend-mode:normal;paint-order:stroke fill markers;shape-padding:0;shape-rendering:auto;solid-color:#000000;text-decoration-color:#000000;text-decoration-line:none;text-decoration-style:solid;text-indent:0;text-orientation:mixed;text-transform:none;white-space:normal"/>
  <path id="rect1010-3" d="m43.887041 5.8438822-20.321352 27.187904 2.053911 1.535203 20.321354-27.187905c0.294331-1.9202319-0.530546-2.2301973-2.053913-1.5352019z" style="fill:url(#linearGradient1372-2)"/>
  <path id="rect1023-6" d="m23.575989 33.018741-0.01035 0.01305s-1.296046 2.713096-0.72719 3.138289c0.568863 0.425198 2.777276-1.598504 2.777276-1.598504l0.01368-0.01792z" style="fill:#454545"/>
  <path id="rect1056-0" transform="matrix(.80097825 .59869345 -.59868733 .80098282 0 0)" d="m38.678326-3.8111804h2.510453c0.174717 0 0.315373 0.1406564 0.315373 0.3153731v15.512934c0 0.174717-0.140656 0.315373-0.315373 0.315373h-2.510453c-0.174716 0-0.315373-0.140656-0.315373-0.315373v-15.512934c0-0.1747167 0.140657-0.3153731 0.315373-0.3153731z" style="fill:url(#linearGradient1364-2)"/>
  <path id="rect1078-6" transform="matrix(.80097825 .59869345 -.59868733 .80098282 0 0)" d="m39.900852 4.9845209h0.10553c0.436412 0 0.787747 0.351335 0.787747 0.7877466v4.5494555c0 0.436412-0.351335 0.787747-0.787747 0.787747h-0.10553c-0.436411 0-0.787746-0.351335-0.787746-0.787747v-4.5494555c0-0.4364116 0.351335-0.7877466 0.787746-0.7877466z" style="fill:#e6e6e6"/>
  <path id="path1183-2" d="m45.659981 5.6823203c-0.351334-0.2882876-0.962125-0.2033309-1.769328 0.1642605l2.050301 1.5325033c0.136883-0.897341 0.02903-1.4423852-0.280973-1.6967638z" style="fill:url(#linearGradient1380-7)"/>
 </g>
</svg>
