<?xml version="1.0" encoding="UTF-8"?>
<svg id="svg18" version="1" viewBox="0 0 48 48" xmlns="http://www.w3.org/2000/svg" xmlns:xlink="http://www.w3.org/1999/xlink">
 <defs id="defs22">
  <linearGradient id="linearGradient1105" x1="6.689805" x2="6.689805" y1="12.269572" y2=".93009663" gradientTransform="matrix(2.6128567 0 0 2.9956707 .42256344 8.677633)" gradientUnits="userSpaceOnUse">
   <stop id="stop836-6" stop-color="#197cf1" offset="0"/>
   <stop id="stop838-7" stop-color="#20bcfa" offset="1"/>
  </linearGradient>
  <linearGradient id="linearGradient888" x1="6.689805" x2="6.2024794" y1="12.269572" y2="-5.8707147" gradientTransform="matrix(-2.6128567 0 0 2.9956707 47.577436 -.44747646)" gradientUnits="userSpaceOnUse">
   <stop id="stop828" stop-color="#197cf1" style="stop-color:#0a53aa" offset="0"/>
   <stop id="stop830" stop-color="#20bcfa" style="stop-color:#05aef1" offset="1"/>
  </linearGradient>
 </defs>
 <path id="path878" d="m44.453985 2.0001468c0.856861 0 1.546015 0.791672 1.546015 1.7740719v22.609353c0 0.9824-0.689154 1.772523-1.546015 1.772523h-3.991281v8.718649l-7.604502-8.718649h-15.728843c-0.856859 0-1.547364-0.790123-1.547364-1.772523v-22.609353c0-0.9823993 0.690505-1.7740719 1.547364-1.7740719z" style="fill:url(#linearGradient888);stroke-width:1.5714285"/>
 <path id="path826" d="m33.555172 9.3667663-3.005199 7.9728627h6.021365zm-1.250338-2.1353966h2.511643l6.240723 16.020839h-2.303255l-1.491631-4.109833h-7.381381l-1.491632 4.109833h-2.336158z" style="fill:#ececec"/>
 <path id="path1325" d="m3.5460143 11.125256c-0.8568603 0-1.5460143 0.791673-1.5460143 1.774072v22.609352c0 0.982401 0.689154 1.772525 1.5460143 1.772525h3.9912822v8.718648l7.6045005-8.718648h15.728843c0.856859 0 1.547364-0.790124 1.547364-1.772525v-22.609352c0-0.982399-0.690505-1.774072-1.547364-1.774072z" style="fill:url(#linearGradient1105);stroke-width:1.5714285"/>
 <path id="path829" d="m11.788243 19.326377h1.129326q1.129324 0 1.806919-0.142649 0-0.142649 0.07529-0.427946 0.150577-1.069866 0.150577-1.711786 0-0.427947-0.07529-0.784568h0.376442q0.376442 0 0.978748 0.07132 0.677595 0.07132 0.978749 0.07132 0.07529 0.285298-0.150577 0.784569-0.150577 0.213973-0.150577 0.356622-0.150576 0.356621-0.225865 1.14119-0.07529 0.213974-0.07529 0.285298 0.376442 0 0.828171-0.142649 1.882208-0.213973 3.387974-0.64192v1.711786q-2.032784 0.49927-4.140857 0.784568-0.150576 0-0.376442 0-0.07529 0.713245-0.150576 1.711786 0.150576 0 0.45173-0.07132 1.279901-0.213974 1.882208-0.285298 0-0.07132 0.07529-0.285298 0-0.213972 0-0.285297 0-0.07132 0-0.142649-0.07529-0.285298 0.150576-0.356622l1.80692 0.285298 0.07529 0.213973q-0.07529 0.142649-0.225865 0.570595 1.80692 0.142649 2.936244 1.069866 1.731632 1.640461 1.731632 3.56622v0.49927q-0.07529 2.567679-2.936245 4.279465-1.129324 0.64192-1.806919 0.64192h-0.07529q-0.150576-0.142649-0.37644-0.356623-0.828172-0.64192-1.279902-0.927216 1.882207-0.285298 3.237397-1.141192 1.35519-1.14119 1.430478-2.639002v-0.285297q-0.07529-1.640462-1.581055-2.710328-0.301152-0.213973-0.903459-0.356622-0.07529 0-0.07529 0-0.301154-0.142649-0.828171-0.213973-0.978749 2.639003-3.237398 5.278005 0.225865 0.713245 0.527019 1.212515-0.376442 0.07132-1.054038 0.427947-0.37644 0.07132-0.527017 0.142649-0.225865-0.142649-0.376442-0.499271-0.527019 0.356622-0.828171 0.499271-1.581055 1.069866-2.785668 1.069866h-0.301153q-1.7316314-0.142645-1.882208-2.425026v-0.285298q0.075288-2.211056 2.183361-4.208139 0.978748-0.927217 2.785668-1.711785 0.07529-0.499272 0.07529-1.497813 0.07529-0.64192 0.07529-0.570595-0.376441 0-1.129325 0-0.828171 0.07132-1.279901 0.07132h-1.129325q-0.07529 0-0.225865-0.07132-0.07529-0.142649-0.301153-0.570595-0.07529-0.213973-0.150576-0.356622 0 0 0-0.07132-0.225865-0.427947-0.07529-0.64192 0.301152 0 0.828171 0 0.527018 0.07132 0.752882 0.07132zm2.860956 9.058198-0.07529-0.213972q-0.225864-1.711786-0.225864-3.566221-1.80692 0.998542-2.785668 2.781652-0.45173 0.570595-0.45173 1.426488 0 0.998541 0.978748 0.998541 0.90346 0 1.882208-0.784568 0.07529-0.07132 0.150577-0.142649 0.376441-0.427946 0.527017-0.499271zm1.505767-4.493436v1.640461q0 1.283839 0.07529 1.283839 1.430478-1.854435 1.957496-3.423572-1.279901 0.213974-1.806919 0.427947-0.07529 0-0.225865 0.07132z" style="fill:#ffffff"/>
</svg>
