<?xml version="1.0" encoding="UTF-8"?>
<svg id="svg32" version="1.1" viewBox="0 0 48 48" xmlns="http://www.w3.org/2000/svg" xmlns:xlink="http://www.w3.org/1999/xlink">
 <defs id="defs18">
  <linearGradient id="linearGradient951" x1="-46.147171" x2="-3.2203445" y1="-24.203388" y2="-24.203388" gradientTransform="matrix(1.0250001 0 0 1 1.3008534 .20338821)" gradientUnits="userSpaceOnUse">
   <stop id="stop945" style="stop-color:#1c90e5" offset="0"/>
   <stop id="stop947" style="stop-color:#21b4f6" offset="1"/>
  </linearGradient>
 </defs>
 <path id="rect4" transform="matrix(0,-1,-1,0,0,0)" d="M -43.853658,-46 H -4.1463416 C -2.9572683,-46 -2,-45.042732 -2,-43.853659 V -4.1463413 C -2,-2.9572682 -2.9572683,-2 -4.1463416,-2 H -43.853658 C -45.042732,-2 -46,-2.9572682 -46,-4.1463413 V -43.853659 C -46,-45.042732 -45.042732,-46 -43.853658,-46 Z" style="fill:url(#linearGradient951);stroke-width:1.0731709"/>
 <path id="path908" d="m25.053099 13.243526v17.601503h2.106199v-2.039757a7.3716961 5.8671675 0 0 0 4.212398 1.061895 7.3716961 5.8671675 0 0 0 7.371696-5.867167 7.3716961 5.8671675 0 0 0-7.371696-5.867167 7.3716961 5.8671675 0 0 0-4.212398 1.056167v-5.945474zm6.318597 6.845029a5.2654973 3.911445 0 0 1 5.265497 3.911445 5.2654973 3.911445 0 0 1-5.265497 3.911445 5.2654973 3.911445 0 0 1-4.212398-1.571835v-4.67731a5.2654973 3.911445 0 0 1 4.212398-1.573745z" style="color:#000000;fill-rule:evenodd;fill:#ffffff;stroke-width:.5;stroke:#ffffff"/>
 <path id="path906" d="m20.840702 17.154972v2.039757a7.3716961 5.8671675 0 0 0-4.212398-1.061896 7.3716961 5.8671675 0 0 0-7.3716965 5.867167 7.3716961 5.8671675 0 0 0 7.3716965 5.867167 7.3716961 5.8671675 0 0 0 4.212398-1.056166v5.945473h2.106199v-17.601502zm-4.212398 2.933583a5.2654973 3.911445 0 0 1 4.212398 1.571836v4.677309a5.2654973 3.911445 0 0 1-4.212398 1.573745 5.2654973 3.911445 0 0 1-5.265498-3.911445 5.2654973 3.911445 0 0 1 5.265498-3.911445z" style="color:#000000;fill-rule:evenodd;fill:#004048;stroke-width:.5;stroke:#004048"/>
</svg>
