<?xml version="1.0" encoding="UTF-8"?>
<svg id="svg18" version="1.1" viewBox="0 0 48 48" xmlns="http://www.w3.org/2000/svg" xmlns:xlink="http://www.w3.org/1999/xlink">
 <defs id="defs22">
  <linearGradient id="linearGradient853" x1="24.291534" x2="24.476511" y1="39.416004" y2="7.7963228" gradientTransform="matrix(1.0003509 0 0 1.0003509 -.00839884 .32152214)" gradientUnits="userSpaceOnUse">
   <stop id="stop841" style="stop-color:#1c1c1c" offset="0"/>
   <stop id="stop843" style="stop-color:#555555" offset="1"/>
  </linearGradient>
  <linearGradient id="linearGradient842" x1="23.57954" x2="24" y1="43.938797" y2="4" gradientTransform="matrix(1.15,0,0,1.15,-3.5999996,-3.5999998)" gradientUnits="userSpaceOnUse">
   <stop id="stop836" style="stop-color:#c6c6c6" offset="0"/>
   <stop id="stop838" style="stop-color:#edecec" offset="1"/>
  </linearGradient>
 </defs>
 <path id="path2" d="m40.1 24a16.1 16.1 0 0 1-16.1 16.1 16.1 16.1 0 0 1-16.1-16.1 16.1 16.1 0 0 1 16.1-16.1 16.1 16.1 0 0 1 16.1 16.1z" style="fill:url(#linearGradient853);stroke-width:1.1495966"/>
 <path id="path4" d="m24 1c-12.742 0-23 10.258-23 23s10.258 23 23 23 23-10.258 23-23-10.258-23-23-23zm0 3.4492188a6.9 6.9 0 0 1 6.900391 6.9003902 6.9 6.9 0 0 1-6.900391 6.900391 6.9 6.9 0 0 1-6.900391-6.900391 6.9 6.9 0 0 1 6.900391-6.9003902zm-12.650391 12.65039a6.9 6.9 0 0 1 6.900391 6.900391 6.9 6.9 0 0 1-6.900391 6.900391 6.9 6.9 0 0 1-6.9003902-6.900391 6.9 6.9 0 0 1 6.9003902-6.900391zm25.300782 0a6.9 6.9 0 0 1 6.90039 6.900391 6.9 6.9 0 0 1-6.90039 6.900391 6.9 6.9 0 0 1-6.900391-6.900391 6.9 6.9 0 0 1 6.900391-6.900391zm-12.648438 2.298829a1.15 1.15 0 0 1 1.148438 1.15039 1.15 1.15 0 0 1-1.148438 1.148438 1.15 1.15 0 0 1-1.150391-1.148438 1.15 1.15 0 0 1 1.150391-1.15039zm-3.414062 3.386718a1.15 1.15 0 0 1 1.15039 1.148438 1.15 1.15 0 0 1-1.15039 1.15039 1.15 1.15 0 0 1-1.150391-1.15039 1.15 1.15 0 0 1 1.150391-1.148438zm6.90039 0a1.15 1.15 0 0 1 1.150391 1.148438 1.15 1.15 0 0 1-1.150391 1.15039 1.15 1.15 0 0 1-1.15039-1.15039 1.15 1.15 0 0 1 1.15039-1.148438zm-3.490234 3.517578a1.15 1.15 0 0 1 1.150391 1.148438 1.15 1.15 0 0 1-1.150391 1.15039 1.15 1.15 0 0 1-1.148438-1.15039 1.15 1.15 0 0 1 1.148438-1.148438zm0.001953 3.447266a6.9 6.9 0 0 1 6.900391 6.900391 6.9 6.9 0 0 1-6.900391 6.90039 6.9 6.9 0 0 1-6.900391-6.90039 6.9 6.9 0 0 1 6.900391-6.900391z" style="fill:url(#linearGradient842);stroke-width:1.1495966"/>
</svg>
