<?xml version="1.0" encoding="UTF-8"?>
<svg version="1.1" viewBox="0 0 48 48" xmlns="http://www.w3.org/2000/svg" xmlns:xlink="http://www.w3.org/1999/xlink">
<defs>
<linearGradient id="linearGradient1301" x1="32" x2="37" y1="38.953079" y2="12" gradientTransform="translate(1,2)" gradientUnits="userSpaceOnUse">
<stop stop-color="#808080" offset="0"/>
<stop stop-color="#969696" offset="1"/>
</linearGradient>
<linearGradient id="linearGradient1279" x1="42" x2="37" y1="39.02116" y2="12" gradientTransform="translate(1,2)" gradientUnits="userSpaceOnUse">
<stop stop-color="#545454" offset="0"/>
<stop stop-color="#7c7c7c" stop-opacity=".93725491" offset="1"/>
</linearGradient>
<linearGradient id="linearGradient1277" x1="32" x2="42" y1="40" y2="40" gradientTransform="translate(1,2)" gradientUnits="userSpaceOnUse">
<stop stop-color="#4d4d4d" offset="0"/>
<stop stop-color="#6c6c6c" stop-opacity=".93725491" offset="1"/>
</linearGradient>
<linearGradient id="linearGradient1015" x1="38" x2="5" y1="46" y2="12" gradientUnits="userSpaceOnUse">
<stop stop-color="#ec396c" offset="0"/>
<stop stop-color="#ff709a" offset="1"/>
</linearGradient>
</defs>
<g>
<path d="M 29,2 C 25.1219571,2 22,5.2333734 22,9.2109375 V 14.5 h 1 V 9.2109375 C 23,5.7532384 25.6760429,3 29,3 c 3.3239571,0 6,2.7532384 6,6.2109375 V 14.5 h 1 V 9.2109375 C 36,5.2333734 32.8780429,2 29,2 Z" color="#000000" color-rendering="auto" dominant-baseline="auto" fill="#545454" image-rendering="auto" shape-rendering="auto" solid-color="#000000" style="font-feature-settings:normal;font-variant-alternates:normal;font-variant-caps:normal;font-variant-ligatures:normal;font-variant-numeric:normal;font-variant-position:normal;isolation:auto;mix-blend-mode:normal;paint-order:fill markers stroke;shape-padding:0;text-decoration-color:#000000;text-decoration-line:none;text-decoration-style:solid;text-indent:0;text-orientation:mixed;text-transform:none;white-space:normal"/>
<path d="m5 12v34h38v-34zm7.5 2.5c0.82842712 0 1.5 0.67157288 1.5 1.5s-0.67157288 1.5-1.5 1.5-1.5-0.67157288-1.5-1.5 0.67157288-1.5 1.5-1.5zm13 0c0.82842712 0 1.5 0.67157288 1.5 1.5s-0.67157288 1.5-1.5 1.5-1.5-0.67157288-1.5-1.5 0.67157288-1.5 1.5-1.5z" color="#000000" color-rendering="auto" dominant-baseline="auto" fill="url(#linearGradient1015)" image-rendering="auto" shape-rendering="auto" solid-color="#000000" style="font-feature-settings:normal;font-variant-alternates:normal;font-variant-caps:normal;font-variant-ligatures:normal;font-variant-numeric:normal;font-variant-position:normal;isolation:auto;mix-blend-mode:normal;paint-order:fill markers stroke;shape-padding:0;text-decoration-color:#000000;text-decoration-line:none;text-decoration-style:solid;text-indent:0;text-orientation:mixed;text-transform:none;white-space:normal"/>
<path d="m33 12v34h10v-34z" color="#000000" color-rendering="auto" dominant-baseline="auto" fill="url(#linearGradient1301)" image-rendering="auto" shape-rendering="auto" solid-color="#000000" style="font-feature-settings:normal;font-variant-alternates:normal;font-variant-caps:normal;font-variant-ligatures:normal;font-variant-numeric:normal;font-variant-position:normal;isolation:auto;mix-blend-mode:normal;paint-order:fill markers stroke;shape-padding:0;text-decoration-color:#000000;text-decoration-line:none;text-decoration-style:solid;text-indent:0;text-orientation:mixed;text-transform:none;white-space:normal"/>
<path d="m38 12v34h5v-34z" color="#000000" color-rendering="auto" dominant-baseline="auto" fill="url(#linearGradient1279)" image-rendering="auto" shape-rendering="auto" solid-color="#000000" style="font-feature-settings:normal;font-variant-alternates:normal;font-variant-caps:normal;font-variant-ligatures:normal;font-variant-numeric:normal;font-variant-position:normal;isolation:auto;mix-blend-mode:normal;paint-order:fill markers stroke;shape-padding:0;text-decoration-color:#000000;text-decoration-line:none;text-decoration-style:solid;text-indent:0;text-orientation:mixed;text-transform:none;white-space:normal"/>
<path d="m38 38 5 8h-10z" fill="url(#linearGradient1277)" style="paint-order:fill markers stroke"/>
<path d="m19 2c-3.8780429 0-7 3.2333734-7 7.2109375v4.8613281c-0.8581098 0.22478884-1.5 1.0024289-1.5 1.9277344 0 1.0986472 0.90135282 2 2 2s2-0.90135282 2-2c0-0.92530551-0.6418902-1.7029455-1.5-1.9277344v-4.8613281c0-3.4576991 2.6760429-6.2109375 6-6.2109375s6 2.7532384 6 6.2109375v4.8613281c-0.8581098 0.22478884-1.5 1.0024289-1.5 1.9277344 0 1.0986472 0.90135282 2 2 2s2-0.90135282 2-2c0-0.92530551-0.6418902-1.7029455-1.5-1.9277344v-4.8613281c0-3.9775641-3.1219571-7.2109375-7-7.2109375zm-6.5 13c0.55820707 0 1 0.44179293 1 1s-0.44179293 1-1 1-1-0.44179293-1-1 0.44179293-1 1-1zm13 0c0.55820707 0 1 0.44179293 1 1s-0.44179293 1-1 1-1-0.44179293-1-1 0.44179293-1 1-1z" color="#000000" color-rendering="auto" dominant-baseline="auto" fill="#696969" image-rendering="auto" shape-rendering="auto" solid-color="#000000" style="font-feature-settings:normal;font-variant-alternates:normal;font-variant-caps:normal;font-variant-ligatures:normal;font-variant-numeric:normal;font-variant-position:normal;isolation:auto;mix-blend-mode:normal;paint-order:fill markers stroke;shape-padding:0;text-decoration-color:#000000;text-decoration-line:none;text-decoration-style:solid;text-indent:0;text-orientation:mixed;text-transform:none;white-space:normal"/>
<path d="m19.922764 39c-2.4425646-0.87873605-3.8933815-1.9572277-5.4840874-4.3640562-0.3903458-0.6630996-1.1081183-2.1429326-1.0809343-4.0745042-0.0635289-1.9257681 0.90958583-4.144754 2.7257024-5.3289256 1.7538081-1.2498401 4.017082-1.2684721 5.3634403-0.77488893 1.3888134 0.51557425 1.9520357 1.3744578 1.9679183 1.3335298-0.0424533 0.0106933 0.74404004 0.67226226 1.0946792 2.1123886 0.39065158 1.3842321-0.006133 3.6786606-1.9153832 4.6181789-0.87812627 0.47067558-2.0186206 0.55589158-2.9129344 0.21930223-0.89431383-0.36071913-1.5433636-1.1527121-1.7596116-1.9801352-0.47128625-1.8268072 0.91477782-2.8393246 1.5262588-2.9431726 2.487769-0.82956182 3.7476891 3.0635139 0.83811382 3.3946055 1.3261992 0.44288091 2.6933273-0.91813783 2.4334019-2.3045077-0.0525333-1.3866756-1.7312063-2.7629664-3.582754-2.1988277-0.48350314 0.13347556-1.2156312 0.47281336-1.7886277 1.2360961-0.58765692 0.75870048-0.85430226 1.9477592-0.54886669 3.1035255 0.29779912 1.1621805 1.2034143 2.2745752 2.4648606 2.7745726 1.2742756 0.47006492 2.6930215 0.33567291 3.8646704-0.27397512 2.5012081-1.2373174 3.0018162-4.2522669 2.504873-5.9110856-0.43860447-1.7828241-1.4071396-2.5992517-1.3570481-2.6117753-0.0180178 0.04856-0.71471826-1.0106845-2.4364552-1.653625-1.6835583-0.61392447-4.3084678-0.57055292-6.4101666 0.90317161-2.1508739 1.3793441-3.3161086 4.0897753-3.2315033 6.2742474-0.0290133 2.2183743 0.79779649 3.9162882 1.2489245 4.671018 1.8185601 2.7733513 3.9022384 3.6401753 6.4755292 3.7788429" fill="#ffffff"/>
</g>
</svg>
