<?xml version="1.0" encoding="UTF-8"?>
<svg id="svg11" version="1.1" viewBox="0 0 48 48" xmlns="http://www.w3.org/2000/svg" xmlns:xlink="http://www.w3.org/1999/xlink">
 <defs id="defs15">
  <linearGradient id="linearGradient832" x1="-37.152546" x2="-37.152546" y1="47.864407" y2="9.2203398" gradientTransform="matrix(1,0,0,1.025,61.389832,-5.2559318)" gradientUnits="userSpaceOnUse">
   <stop id="stop834" stop-color="#42a603" style="stop-color:#4bbc03" offset="0"/>
   <stop id="stop836" stop-color="#78da06" style="stop-color:#7af811" offset="1"/>
  </linearGradient>
 </defs>
 <path id="rect824" d="M 5.020551,3.5 H 42.979449 C 44.652834,3.5 46,4.8471657 46,6.520551 V 41.479449 C 46,43.152834 44.652834,44.5 42.979449,44.5 H 5.020551 C 3.3471657,44.5 2,43.152834 2,41.479449 V 6.520551 C 2,4.8471657 3.3471657,3.5 5.020551,3.5 Z" style="fill:url(#linearGradient832)"/>
 <path id="rect4148-2" d="m9.5770476 10.092027c-0.2853731 0-0.5149799 0.231385-0.5149799 0.516738v26.78247c0 0.285353 0.2296068 0.516737 0.5149799 0.516737h28.845905c0.285372 0 0.514979-0.231384 0.514979-0.516737v-26.78247c0-0.285353-0.229607-0.516738-0.514979-0.516738h-28.330925zm12.408731 8.046341h4.028443c0.277693 0 0.548979 0.09115 0.813773 0.27243 0.264795 0.181282 0.44681 0.396264 0.546617 0.6468l0.400735 1.042264h1.762884c0.556068 0 1.030546 0.191806 1.423664 0.574739 0.393118 0.382934 0.5888 0.844945 0.5888 1.386754v6.866985c0 0.54181-0.195682 1.003822-0.5888 1.386755-0.393796 0.383612-0.867596 0.574738-1.423664 0.574738h-11.074704c-0.556069 0-1.030548-0.191804-1.423665-0.574738-0.393118-0.382933-0.590557-0.844945-0.590557-1.386755v-6.866985c0-0.541809 0.197439-1.003821 0.590557-1.386754 0.393117-0.382933 0.867596-0.574739 1.423665-0.574739h1.761126l0.400735-1.042264c0.09981-0.250536 0.281822-0.465518 0.546617-0.6468 0.264794-0.181282 0.536079-0.27243 0.813774-0.27243zm2.014221 3.924745c-0.970233 0-1.800711 0.33494-2.490534 1.007111-0.689144 0.671491-1.033475 1.48039-1.033475 2.425502 0 0.945113 0.343651 1.754012 1.033475 2.425503 0.689823 0.671491 1.520301 1.007111 2.490534 1.007111 0.970234 0 1.798954-0.33494 2.488777-1.007111 0.689144-0.671491 1.035233-1.48039 1.035233-2.425503 0-0.945112-0.34541-1.754011-1.035233-2.425502s-1.518543-1.007111-2.488777-1.007111zm0 1.225054c0.623964 0 1.157822 0.216741 1.601183 0.648559 0.443362 0.431819 0.664377 0.950652 0.664377 1.559 0 0.60767-0.221015 1.127182-0.664377 1.559001-0.443361 0.431818-0.977219 0.648558-1.601183 0.648558-0.624643 0-1.157823-0.21674-1.601183-0.648558-0.443361-0.431819-0.664377-0.950652-0.664377-1.559001 0-0.608348 0.221016-1.127182 0.664377-1.559 0.44336-0.431818 0.977218-0.648559 1.601183-0.648559z" style="fill:#34495e"/>
 <path id="path865" d="m11.074532 13.232877c-0.547471 0-0.989535 0.499087-0.989535 1.116083v21.435819c0 0.617011 0.442064 1.114325 0.989535 1.114325h25.850936c0.547467 0 0.989535-0.497314 0.989535-1.114325v-21.435819c0-0.616996-0.442068-1.116083-0.989535-1.116083zm10.911247 4.905491h4.028443c0.277693 0 0.548979 0.09115 0.813773 0.27243 0.264795 0.181282 0.44681 0.396264 0.546617 0.6468l0.400735 1.042264h1.762884c0.556068 0 1.030546 0.191806 1.423664 0.574739 0.393118 0.382934 0.5888 0.844945 0.5888 1.386754v6.866985c0 0.54181-0.195682 1.003822-0.5888 1.386755-0.393796 0.383612-0.867596 0.574738-1.423664 0.574738h-11.074704c-0.556069 0-1.030548-0.191804-1.423665-0.574738-0.393118-0.382933-0.590557-0.844945-0.590557-1.386755v-6.866985c0-0.541809 0.197439-1.003821 0.590557-1.386754 0.393117-0.382933 0.867596-0.574739 1.423665-0.574739h1.761126l0.400735-1.042264c0.09981-0.250536 0.281822-0.465518 0.546617-0.6468 0.264794-0.181282 0.536079-0.27243 0.813774-0.27243zm2.014221 3.924745c-0.970233 0-1.800711 0.33494-2.490534 1.007111-0.689144 0.671491-1.033475 1.48039-1.033475 2.425502 0 0.945113 0.343651 1.754012 1.033475 2.425503 0.689823 0.671491 1.520301 1.007111 2.490534 1.007111 0.970234 0 1.798954-0.33494 2.488777-1.007111 0.689144-0.671491 1.035233-1.48039 1.035233-2.425503 0-0.945112-0.34541-1.754011-1.035233-2.425502s-1.518543-1.007111-2.488777-1.007111zm0 1.225054c0.623964 0 1.157822 0.216741 1.601183 0.648559 0.443362 0.431819 0.664377 0.950652 0.664377 1.559 0 0.60767-0.221015 1.127182-0.664377 1.559001-0.443361 0.431818-0.977219 0.648558-1.601183 0.648558-0.624643 0-1.157823-0.21674-1.601183-0.648558-0.443361-0.431819-0.664377-0.950652-0.664377-1.559001 0-0.608348 0.221016-1.127182 0.664377-1.559 0.44336-0.431818 0.977218-0.648559 1.601183-0.648559z" style="fill:#ffffff;stroke-width:1.7654082"/>
</svg>
