<?xml version="1.0" encoding="UTF-8"?>
<svg id="svg32" version="1.1" viewBox="0 0 48 48" xmlns="http://www.w3.org/2000/svg" xmlns:xlink="http://www.w3.org/1999/xlink">
 <defs id="defs36">
  <linearGradient id="linearGradient888" x1="18" x2="18" y1="34" y2="11.216492" gradientTransform="matrix(.91015321 0 0 .84147206 7.5151662 5.0685715)" gradientUnits="userSpaceOnUse">
   <stop id="stop882" style="stop-color:#e4e4e4" offset="0"/>
   <stop id="stop884" style="stop-color:#ffffff;stop-opacity:.99215686" offset="1"/>
  </linearGradient>
 </defs>
 <linearGradient id="b" x1="399.9939" x2="399.9939" y1="545.13873" y2="518.13873" gradientTransform="matrix(1.6428571,0,0,1.6428571,-634.08213,-849.66874)" gradientUnits="userSpaceOnUse">
  <stop id="stop15" stop-color="#197ff1" offset="0"/>
  <stop id="stop17" stop-color="#21c6fb" offset="1"/>
 </linearGradient>
 <path id="circle20" d="m46.999338 23.999237a22.999931 22.999931 0 0 1-22.999931 22.999931 22.999931 22.999931 0 0 1-22.999932-22.999931 22.999931 22.999931 0 0 1 22.999932-22.999931 22.999931 22.999931 0 0 1 22.999931 22.999931z" style="fill:url(#b);stroke-width:2.135714"/>
 <path id="path845" d="m23.999457 22.357382a3.8571401 4.2454565 0 0 0 3.857135-4.245433 3.8571401 4.2454565 0 0 0-3.857135-4.245454 3.8571401 4.2454565 0 0 0-3.857162 4.245454 3.8571401 4.2454565 0 0 0 3.857162 4.245433m0 2.830309c-2.995715 0-9 1.744142-9 5.217552v3.726835h18v-3.726835c0-3.47341-6.004297-5.217552-9-5.217552" style="fill:url(#linearGradient888);stroke-width:2.1193335"/>
</svg>
