<?xml version="1.0" encoding="UTF-8"?>
<svg id="svg35" version="1.1" viewBox="0 0 48 48" xmlns="http://www.w3.org/2000/svg" xmlns:xlink="http://www.w3.org/1999/xlink">
 <title id="title2">drive-removable-media-48px</title>
 <desc id="desc4">Created with Sketch.</desc>
 <defs id="defs11">
  <linearGradient id="linearGradient948">
   <stop id="stop944" stop-color="#cf003b" offset="0"/>
   <stop id="stop946" stop-color="#eb678d" style="stop-color:#e95881" offset="1"/>
  </linearGradient>
  <linearGradient id="g-36" x1="71.183701" x2="71.169975" y1="83.264259" y2="17.458645" gradientTransform="matrix(.29533162 0 0 .29274341 11.92671 19.609987)" gradientUnits="userSpaceOnUse" xlink:href="#linearGradient948"/>
  <linearGradient id="linearGradient942" x1="25" x2="25" y1="31" y2="10" gradientTransform="matrix(.99561589 0 0 1.0087705 .00338822 -.54676891)" gradientUnits="userSpaceOnUse" xlink:href="#linearGradient948"/>
 </defs>
 <path id="Rectangle-1" d="m8 4h32c0.554 0 1 0.446 1 1v33c0 0.554-0.446 1-1 1h-32c-0.554 0-1-0.446-1-1v-33c0-0.554 0.446-1 1-1z" style="fill-rule:evenodd;fill:#bbbec4"/>
 <path id="Rectangle-3" d="m7 34h34v6h-34z" style="fill-rule:evenodd;fill:#ffffff"/>
 <path id="rect16" d="m8 38h32c0.554 0 1 0.446 1 1v4c0 0.554-0.446 1-1 1h-32c-0.554 0-1-0.446-1-1v-4c0-0.554 0.446-1 1-1z" style="fill-rule:evenodd;fill:#bbbec4"/>
 <path id="Oval" d="m13 41a1 1 0 0 1-1 1 1 1 0 0 1-1-1 1 1 0 0 1 1-1 1 1 0 0 1 1 1z" style="fill-rule:evenodd;fill:#2c2c2e"/>
 <path id="path59" d="m25.355811 31c-3.588844-1.208261-5.72052-2.691187-8.057733-6.000578-0.57353-0.911762-1.628149-2.946531-1.588207-5.60244-0.09335-2.647932 1.336448-5.699039 4.004854-7.327275 2.576857-1.71853 5.90227-1.744149 7.880464-1.065472 2.040571 0.708915 2.868111 1.889879 2.891449 1.833603-0.06237 0.0147 1.093211 0.924361 1.608404 2.904537 0.573981 1.903318-9e-3 5.058155-2.814259 6.349993-1.290225 0.647179-2.965944 0.764351-4.279953 0.301541-1.314009-0.495987-2.267655-1.584977-2.585386-2.722686-0.692458-2.511859 1.344076-3.904071 2.242523-4.046861 3.655261-1.140648 5.50645 4.212331 1.231434 4.667583 1.948574 0.60896 3.957285-1.262442 3.575379-3.168698-0.07719-1.906679-2.54365-3.79908-5.264115-3.023389-0.710409 0.183528-1.786119 0.650118-2.628017 1.699633-0.86344 1.043212-1.25522 2.678169-0.806447 4.267347 0.437555 1.597997 1.768169 3.127539 3.621602 3.815037 1.872285 0.646337 3.956837 0.461551 5.678334-0.376718 3.675006-1.70131 4.410545-5.846867 3.680392-8.127742-0.64444-2.451383-2.0675-3.573971-1.993901-3.59119-0.02647 0.06678-1.050132-1.389691-3.579868-2.2737356-2.47364-0.8441462-6.3304-0.7845098-9.418411 1.2418616-3.160263 1.896599-4.872335 5.623441-4.748023 8.627092-0.04263 3.050264 1.172194 5.384894 1.835035 6.422648 2.671998 3.813358 5.733531 5.005242 9.51445 5.195909" style="fill:url(#linearGradient942)"/>
 <path id="path71" d="m32.374705 43.717324-7.327234-7.460431s-1.086839-1.110755 0.241818-1.110755h3.981131v-10.050856c-0.02591-0.519997 0.0031-0.563684 0.513221-0.561056h6.202851c0.441076-0.04856 0.544032 0.01444 0.543789 0.477501v10.134405l3.81108-9e-6c1.228063-2e-6 0.36229 0.928672 0.36229 0.928672s-6.233998 6.973066-7.103503 7.704648c-0.625434 0.530217-1.225443-0.06213-1.225443-0.06213z" style="fill:url(#g-36);stroke-width:.38736776"/>
</svg>
