<?xml version="1.0" encoding="UTF-8"?>
<svg id="svg30" version="1.1" viewBox="0 0 48 48" xmlns="http://www.w3.org/2000/svg" xmlns:xlink="http://www.w3.org/1999/xlink">
 <defs id="defs34">
  <linearGradient id="linearGradient855" x1="23.843369" x2="23.843369" y1="42.910385" y2="9.3510618" gradientUnits="userSpaceOnUse">
   <stop id="stop849" style="stop-color:#333333" offset="0"/>
   <stop id="stop851" style="stop-color:#4d4d4d" offset="1"/>
  </linearGradient>
 </defs>
 <path id="rect4148-2" d="m2.7586205 3.5172413c-0.4203047 0-0.7586207 0.3383449-0.7586207 0.7586207v39.448276c0 0.420276 0.338316 0.758621 0.7586207 0.758621h42.482758c0.420305 0 0.758621-0.338345 0.758621-0.758621v-39.448276c0-0.4202758-0.338316-0.7586207-0.758621-0.7586207h-41.724138z" style="fill:#34495e"/>
 <path id="path4155-0" d="m35.835938 4.8984375a0.9889245 0.9889245 0 0 0-0.988282 0.9882813 0.9889245 0.9889245 0 0 0 0.324219 0.7324218 0.9889245 0.9889245 0 0 0 0.734375 0.328125 0.9889245 0.9889245 0 0 0 0.990234-0.9882812 0.9889245 0.9889245 0 0 0-0.322265-0.7285156 0.9889245 0.9889245 0 0 0-0.738281-0.3320313zm3.414062 0.0703125a0.9889245 0.9889245 0 0 0-0.990234 0.9902344 0.9889245 0.9889245 0 0 0 0.990234 0.9882812 0.9889245 0.9889245 0 0 0 0.988281-0.9882812 0.9889245 0.9889245 0 0 0-0.988281-0.9902344zm3.341797 0a0.9889245 0.9889245 0 0 0-0.990235 0.9902344 0.9889245 0.9889245 0 0 0 0.990235 0.9882812 0.9889245 0.9889245 0 0 0 0.988281-0.9882812 0.9889245 0.9889245 0 0 0-0.988281-0.9902344z" style="fill:#ff5555"/>
 <path id="rect12-6" d="m4.5856442 8.6521521h38.828711c0.599018 0 1.08126 0.4822417 1.08126 1.0812595v32.18445c0 0.599018-0.482242 1.08126-1.08126 1.08126h-38.828711c-0.5990177 0-1.0812594-0.482242-1.0812594-1.08126v-32.18445c0-0.5990178 0.4822417-1.0812595 1.0812594-1.0812595z" style="fill:url(#linearGradient855);stroke-width:.65762758"/>
 <path id="path11" d="m8.4472656 12.994141c-0.0561 0-0.1053075 0.019947-0.1484375 0.060547l-0.3242187 0.304687c-0.0432 0.0406-0.0644532 0.087795-0.0644532 0.140625 0 0.0529 0.0212532 0.099995 0.0644532 0.140625l2.5449216 2.396484-2.5449216 2.394532c-0.0432 0.0406-0.0644532 0.087865-0.0644532 0.140625 0 0.0529 0.0212532 0.099995 0.0644532 0.140625l0.3242187 0.304687c0.0432 0.0406 0.0923075 0.060547 0.1484375 0.060547 0.0561 0 0.1052875-0.019947 0.1484375-0.060547l3.0175779-2.841797c0.0432-0.0406 0.064453-0.085862 0.064453-0.138672 0-0.0528-0.021253-0.100005-0.064453-0.140625l-3.0175779-2.841796c-0.0432-0.0405-0.0923175-0.060547-0.1484375-0.060547zm3.7285154 5.773437c-0.0604 0-0.109577 0.018188-0.148437 0.054688-0.0389 0.0366-0.058594 0.083695-0.058594 0.140625v0.390625c0 0.0568 0.019694 0.104115 0.058594 0.140625 0.0389 0.0365 0.088017 0.054687 0.148437 0.054687h6.214844c0.0604 0 0.111611-0.018187 0.150391-0.054687 0.0389-0.0365 0.05664-0.083765 0.05664-0.140625v-0.390625c7e-5 -0.0569-0.01774-0.104025-0.05664-0.140625-0.0387-0.0366-0.089951-0.054688-0.150391-0.054688h-6.214844z" style="fill:#ffffff;stroke-width:.89073402"/>
</svg>
