<?xml version="1.0" encoding="UTF-8"?>
<svg id="SVGRoot" version="1.1" viewBox="0 0 48 48" xmlns="http://www.w3.org/2000/svg" xmlns:xlink="http://www.w3.org/1999/xlink">
 <defs id="defs1191">
  <linearGradient id="linearGradient1170" x1="24.4" x2="24.4" y1="45.27766" y2="2.6209366" gradientTransform="matrix(1 0 0 1.0124789 -5.9829712e-8 -.02713096)" gradientUnits="userSpaceOnUse">
   <stop id="stop1164" style="stop-color:#cb9862" offset="0"/>
   <stop id="stop1166" style="stop-color:#d7b187" offset="1"/>
  </linearGradient>
  <linearGradient id="b-2-7-7-2" x2="0" y1="543.79999" y2="503.79999" gradientTransform="matrix(1.0864499,0,0,1.0999999,-419.89085,-552.17991)" gradientUnits="userSpaceOnUse">
   <stop id="stop7-8-5-5-9" stop-color="#1d1e1e" offset="0"/>
   <stop id="stop9-9-3-3-1" stop-color="#44484c" offset="1"/>
  </linearGradient>
 </defs>
 <path id="rect9" d="M 4.1975729,2 H 43.802427 C 45.019882,2 46,2.9801174 46,4.1975727 V 43.802427 C 46,45.019883 45.019882,46 43.802427,46 H 4.1975729 C 2.9801175,46 2,45.019883 2,43.802427 V 4.1975727 C 2,2.9801174 2.9801175,2 4.1975729,2 Z" style="fill:url(#linearGradient1170)"/>
 <path id="rect31-6" d="m19.6542 2h8.691599v44h-8.691599z" style="fill:url(#b-2-7-7-2);stroke-opacity:.55;stroke-width:2.8000004"/>
 <path id="rect13-7" d="m22.619144 3.2218996c-0.540946 0-0.976563 0.4410499-0.976563 0.9887418v0.2234543c0 0.5476922 0.435617 0.9887422 0.976563 0.9887422h2.9375c0.540945 0 0.974609-0.44105 0.974609-0.9887422v-0.2234543c0-0.5476919-0.433664-0.9887418-0.974609-0.9887418zm-0.0098 3.1817718c-0.540946 0-0.976563 0.44105-0.976563 0.9887418v0.2234543c0 0.5476918 0.435617 0.9887417 0.976563 0.9887417h2.935547c0.540945 0 0.976562-0.4410499 0.976562-0.9887417v-0.2234543c0-0.5476918-0.435617-0.9887418-0.976562-0.9887418zm-0.03126 3.1441998c-0.540946 0-0.976563 0.441049-0.976563 0.9887418v0.223454c1e-6 0.547691 0.435617 0.988741 0.976563 0.988741h2.937496c0.540946 0 0.976563-0.44105 0.976563-0.988741v-0.223454c0-0.5476928-0.435617-0.9887418-0.976563-0.9887418zm0.05469 3.2727348c-0.540945 0-0.976562 0.44105-0.976562 0.988743v0.22148c0 0.547691 0.435617 0.988741 0.976562 0.988741h2.935547c0.540946 0 0.976563-0.44105 0.976563-0.988741v-0.22148c0-0.547693-0.435617-0.988743-0.976563-0.988743zm0 3.215389c-0.540945 0-0.976562 0.44105-0.976562 0.988743v0.221479c0 0.547692 0.435617 0.988742 0.976562 0.988742h2.935547c0.540946 0 0.976563-0.44105 0.976563-0.988742v-0.221479c0-0.547693-0.435617-0.988743-0.976563-0.988743zm0 3.290534c-0.540945 0-0.976562 0.44105-0.976562 0.988742v0.22148c0 0.547691 0.435617 0.988741 0.976562 0.988741h2.935547c0.540946 0 0.976563-0.44105 0.976563-0.988741v-0.22148c0-0.547692-0.435617-0.988742-0.976563-0.988742zm0.326173 3.326128c-0.428227 0-0.77539 0.313308-0.77539 0.700029v1.388195l-1.197266 3.179794c-0.134566 0.355703-0.168321 0.726825-0.146483 1.093548-0.08504 0.704782 0.110627 1.425029 0.576172 2.013078 0.604232 0.761851 1.583428 1.216153 2.621093 1.216153 1.037854 0 2.016884-0.454302 2.621094-1.216153 0.465518-0.588006 0.661169-1.306683 0.576172-2.011101 0.02215-0.367264-0.01172-0.737483-0.146483-1.093548l-1.197259-3.181771v-1.388195c0-0.386799-0.347165-0.700029-0.775391-0.700029zm-0.09375 5.127616h2.34375l0.402344 1.067841c0.03209 0.08515 0.046 0.173417 0.06055 0.261028-0.04158 0.222387-0.134173 0.43863-0.283203 0.626862-0.621718 0.785921-2.083273 0.785921-2.705079 0-0.149-0.188234-0.239697-0.404394-0.281249-0.626862 0.01455-0.0877 0.02846-0.175747 0.06055-0.261028z" style="fill:#ffffff;opacity:.92900002"/>
</svg>
