<?xml version="1.0" encoding="UTF-8"?>
<svg id="svg42" version="1.1" viewBox="0 0 48 48" xmlns="http://www.w3.org/2000/svg" xmlns:xlink="http://www.w3.org/1999/xlink">
 <defs id="defs46">
  <style id="current-color-scheme" type="text/css">.ColorScheme-Text {
        color:#4d4d4d;
      }</style>
  <linearGradient id="linearGradient851" x1="24.000002" x2="24.000002" y1="46.000008" y2="2.1595092" gradientUnits="userSpaceOnUse">
   <stop id="stop845" style="stop-color:#05a0de" offset="0"/>
   <stop id="stop847" style="stop-color:#2dc0fa" offset="1"/>
  </linearGradient>
 </defs>
 <path id="path1021" d="m24.000001 1.999993-18.975471 8.310124s-0.61808 16.664125 4.3510409 24.672717c4.1454304 6.681072 12.08098 10.066471 14.62443 11.017173 2.54346-0.950702 10.479-4.336101 14.624428-11.017173 4.969123-8.008592 4.351041-24.672718 4.351041-24.672718z" style="fill:url(#linearGradient851);paint-order:stroke fill markers"/>
 <path id="path983" d="m24.000386 6.7815693-12.146462 5.3178537c-7.22e-4 0.146276-0.194283 0.235727-0.22505 0.404258-0.04562 0.24727 0.07335 0.491504 0.07085 0.723077-0.0019 0.103586-0.03474 0.340376-0.07085 0.42718-0.07047 0.168035-0.305502 0.17146-0.327156 0.341742-0.03356 0.27481 0.385795 0.463165 0.416759 0.693905 0.02194 0.165622-0.124281 0.462991-0.181289 0.598051-0.158829 0.380584-0.410008 0.702708-0.681402 1.035647-0.251701 0.30906-0.624222 0.595011-0.796012 0.908536-0.093119 0.170227-0.1050257 0.371346-0.1875412 0.531369-0.1162958 0.225977-0.3242921 0.338627-0.4417658 0.562625 0.050763 0.790997 0.1222054 1.637571 0.2333854 2.546402 0.1006625 0.09213 0.2402947 0.07689 0.4125926 0.175039 0.155294 0.08855 0.397806 0.316346 0.445933 0.481357 0.05276 0.183373 0.02836 0.45624 0.05001 0.693906 0.02277 0.253231 0.03062 0.538961 0.09169 0.71891 0.06679 0.196354 0.37901 0.391505 0.377167 0.623055-0.0026 0.211587-0.278338 0.23963-0.277145 0.458437 0.0023 0.348581 0.669565 0.361424 0.750167 0.700156 0.04098 0.172806-0.08554 0.365166-0.05001 0.506362 0.04245 0.17099 0.327199 0.307857 0.404257 0.381336 0.138062 0.132145 0.213499 0.359705 0.435515 0.31257 0.166517-0.220924-0.123611-0.394732-0.204213-0.577213-0.09149-0.205417-0.09213-0.556973-0.191709-0.885614-0.06294-0.208082-0.241641-0.371673-0.302151-0.556375-0.06296-0.192775-0.0512-0.387989-0.118777-0.548038-0.0659-0.156996-0.284664-0.37304-0.306318-0.531369-0.07586-0.574517 0.520728-0.76582 0.687653-0.331324 0.10014 0.26183-0.04315 0.490738 0 0.760587 0.03502 0.219341 0.296297 0.427543 0.435515 0.623055 0.15402 0.21685 0.283504 0.438695 0.429262 0.583464 0.01098 0.153895 0.01098 0.1771 0 0.331324 0.192478 0.232264 0.416608 0.447084 0.608469 0.698073 0.25903 0.337712 0.675228 0.747434 0.614721 1.319044-0.019 0.180708-0.197995 0.343349-0.189626 0.531369 0.0069 0.162404 0.193959 0.351848 0.370917 0.477189 0.186508 0.132778 0.346132 0.291998 0.495943 0.364665 0.105335 0.05103 0.29048 0.05638 0.418843 0.114609 0.167675 0.07618 0.304083 0.262177 0.495944 0.362581 0.237506 0.124237 0.553898 0.20051 0.841855 0.337575 0.277215 0.131572 0.650038 0.311231 0.871028 0.31257 0.222335 0.0014 0.461061-0.238281 0.706407-0.243805 0.575248-0.01633 0.823278 0.747827 1.287787 0.983553 0.116463 0.05991 0.266391 0.06356 0.416761 0.09794 0.121979 0.0269 0.216679 0.07621 0.333408 0.116693 0.248284 0.08624 0.551788 0.07835 0.750166 0.168787 0.299416 0.135477 0.516046 0.708779 0.77309 0.862693 0.01356 0.155278-0.0255 0.367522 0.02501 0.483441 0.121345 0.168361 0.297737 0.132198 0.498028 0.24172 0.239407 0.132123 0.308355 0.468773 0.535536 0.573046 0.07747 0.0355 0.272167 0.03856 0.395922 0.07711 0.311167 0.09654 0.414604 0.462044 0.681403 0.381335 0.174237-0.05225 0.164166-0.233135 0.191709-0.404257 0.11562-0.128682 0.243048-0.338897 0.423011-0.341743 0.291514-0.0063 0.312739 0.310465 0.418844 0.600134 0.05999 0.163486 0.21766 0.308566 0.25839 0.481357 0.07017 0.298214 0.03261 1.190751-0.02709 1.369057-0.07336 0.218784-0.357225 0.309791-0.535536 0.552206-0.08356 0.113353-0.127655 0.276155-0.19171 0.35633-0.114555 0.142955-0.286968 0.182625-0.372999 0.314653-0.0486 0.07401-0.09502 0.239255-0.141699 0.339659-0.141387 0.305482-0.32671 0.518816-0.208379 0.885614 0.04862 0.150772 0.276382 0.255938 0.277144 0.43343 6.79e-4 0.209053-0.434911 0.389798-0.468854 0.618889-0.02554 0.169923 0.138809 0.473841 0.19171 0.695988 0.03968 0.167801 0.349322 0.276108 0.445933 0.387586 0.164851 0.189089 0.295562 0.456507 0.445932 0.693906 0.236949 0.372439 0.437333 0.79329 0.654313 1.183597 2.464945-1.042941 7.108578-3.424707 10.020987-7.518344-0.115395-0.04531-0.23853-0.08024-0.379252-0.09794-0.21316-0.02689-0.421478 0.06646-0.679318 0.05-0.272926-0.01744-0.618735-0.267593-0.8231-0.506362-0.19863-0.233514-0.28944-0.440704-0.462604-0.552207-0.164091-0.106231-0.384132-0.109539-0.495944-0.218798-0.04964-0.04854-0.03847-0.123418-0.09169-0.23547-0.08224-0.174526-0.223476-0.272265-0.12086-0.481357-0.187094-0.09819-0.191556 0.180111-0.395922 0.143781-0.182325-0.264675-0.338142-0.390233-0.752251-0.312568-0.189194 0.03597-0.297923 0.284124-0.518866 0.289647-0.181405 0.0055-0.323249-0.202587-0.562625-0.237553-0.180814-0.02528-0.386056 0.04764-0.514699 0.02292-0.200212-0.04004-0.267179-0.212628-0.4501-0.335491-0.133776-0.09041-0.387408-0.239897-0.462604-0.237553-0.23566 0.0077-0.408056 0.507697-0.733497 0.331324-0.158769-0.204897 0.26021-0.31086 0.07293-0.502196-0.141816-0.145303-0.259276 0.06392-0.373001 0.143783-0.129652 0.09178-0.25624 0.180844-0.400089 0.235469-0.322243 0.122831-0.525405 0.06249-0.777256 0.195877-0.233393 0.123773-0.24084 0.32969-0.373001 0.575128-0.108506 0.201373-0.352382 0.497233-0.514698 0.508447-0.196898 0.01465-0.384292-0.285888-0.562625-0.364665-0.537352-0.238193-0.800109 0.213276-1.246112 0.218799-0.414271 0.0054-1.003128-0.683157-0.981469-1.081492 0.01304-0.24322 0.134048-0.612294 0.162537-0.912704 0.02304-0.238978 0.189449-0.377707 0.191709-0.595965 0.0034-0.291816-0.383767-0.517817-0.568877-0.552207-0.438373-0.08328-1.043835 0.17732-1.546179-0.02709-0.09581-0.162656 0.114774-0.27534 0.168788-0.43343 0.03042-0.08935 0.0029-0.207322 0.03959-0.306318 0.05592-0.15214 0.21155-0.277989 0.281313-0.439682 0.05266-0.12358 0.06559-0.30325 0.118777-0.456352 0.06108-0.17475 0.173807-0.283766 0.187541-0.40634 0.01709-0.162328-0.03461-0.349859-0.158368-0.456353-0.389765 0.02051-0.653462 0.04116-0.875196 0.143783-0.507776 0.23651-0.405476 0.940363-0.912704 1.106496-0.175383 0.0574-0.413405 0.05648-0.606385 0.09169-0.166535 0.0305-0.374163 0.123706-0.545955 0.12086-0.203144-0.0037-0.554096-0.196401-0.67515-0.32924-0.107696-0.119533-0.372605-0.716202-0.402173-0.821017-0.199643-0.707201 0.01832-1.358758 0.281312-1.850413 0.05563-0.104247 0.146024-0.203024 0.187542-0.31257 0.06225-0.166567 0.02353-0.418075 0.07293-0.59805 0.08989-0.33435 0.516234-0.530412 0.818933-0.69182 0.343056-0.182348 0.632108-0.480788 1.03148-0.508448 0.199211-0.01413 0.49216 0.05746 0.683486 0.09794 0.176519 0.03713 0.320232 0.15549 0.473022 0.166704 0.433653 0.03402 0.531781-0.310987 0.885615-0.504279 0.365501 0.05218 0.60771-0.0623 0.937709-0.02292 0.225161 0.02671 0.391463 0.275563 0.566793 0.289647 0.147361 0.01222 0.276087-0.143054 0.418844-0.12086 0.13854 0.02222 0.378439 0.330962 0.400089 0.504279 0.02796 0.215765-0.154278 0.40913-0.09377 0.645978 0.22087 0.2301 0.626074 0.273763 0.941877 0.40634 0.20546-0.173331 0.02793-0.490844 0-0.741832-0.01098-0.111098 0.01098-0.208695 0-0.310486-0.01844-0.172803-0.09718-0.337696-0.09794-0.485525-0.0034-0.683236 0.539793-0.999183 0.98772-1.269033 0.193782-0.117007 0.344086-0.32037 0.512615-0.406341 0.237452-0.121742 0.414059-0.155397 0.610553-0.26881 0.355488-0.204421 0.663993-0.364106 0.941877-0.595967 0.129981-0.309557 0.0066-0.72322 0.02292-1.029395 0.128282-0.07981 0.236742 0.03389 0.373 0.02292 0.214318-0.0464 0.232655-0.357659 0.354246-0.481358 0.06974-0.07071 0.266609-0.125703 0.354245-0.195877 0.213915-0.17164 0.278297-0.42397 0.464688-0.498027 0.0669-0.02634 0.22156-0.02243 0.327156-0.0521 0.139826-0.03863 0.336256-0.203799 0.562626-0.283396 0.146994-0.05102 0.485607-0.06263 0.541787-0.12086 0.07064-0.07231 0.0054-0.27915 0.02709-0.387587 0.113799-0.541963 0.916295-0.651033 1.387809-0.833519 0.330462-0.128655 0.664175-0.362038 1.027313-0.289648-0.07106 0.257531-0.407339 0.162191-0.350078 0.475106 0.08022 0.43389 0.645919-0.121394 0.79601-0.185458 0.286063-0.123276 0.774741-0.202522 1.150257-0.341743 0.329241-0.122331 0.921013-0.312413 0.610554-0.698073-0.25873-0.01509-0.384746 0.311785-0.610554 0.410509-0.155793 0.02358-0.125669-0.127831-0.25839-0.141698-0.125372-0.01221-0.197417 0.115962-0.327157 0.09377-0.129098-0.02299-0.308058-0.228671-0.327156-0.383419-0.05131-0.400552 0.32738-0.566033 0.489693-0.864776-0.107393-0.362475-0.593738-0.07264-0.889782-0.214632 0.02848-0.215683 0.243265-0.365306 0.489692-0.40634 0.20195-0.03411 0.652873-0.0082 0.773089 0.09377 0.07057 0.06057 0.01592 0.212176 0.125028 0.312569 0.119501 0.111206 0.261526 0.09374 0.41676 0.06876 0.0564-0.273342-0.347937-0.200236-0.304234-0.381335 0.317027-0.211881 0.835189-0.03497 1.223189-0.09377 0.223259-0.03395 0.456442-0.198585 0.654313-0.31257 0.188433-0.108699 0.433742-0.304462 0.633474-0.125028 0.05433 0.195548-0.176728 0.264951-0.283396 0.362582-0.358934 0.326753-0.725226 0.704152-1.004391 1.083575 0.171258 0.170852 0.479305 0.07939 0.768922 0.114609 0.113136 0.01386 0.257745 0.05282 0.377168 0.07501 0.139713 0.02579 0.288364 0.01783 0.398005 0.04584 0.197312 0.04992 0.252872 0.262558 0.448017 0.262558 0.321087-4.74e-4 0.317552-0.353262 0.135447-0.575128 0.05693-0.226583 0.151072-0.33912 0.07293-0.498028-0.14447-0.295727-0.673174-0.0086-0.700156-0.387586-0.01726-0.239283 0.196624-0.231076 0.281313-0.410509-0.02452-0.295347 0.128361-0.417294 0.233385-0.573044l-6.138869-2.6881c0.0066 0.03109 0.01469 0.06399 0.01667 0.09169 0.07046 1.148017-0.853047 1.685324-1.946268 1.654535-0.214412 0.20972-0.164595 0.603885-0.281313 0.891867-0.09822 0.241697-0.444999 0.498672-0.681402 0.479274-0.174763-0.01509-0.374323-0.271199-0.375083-0.437599-7.87e-4 -0.20567 0.288306-0.315502 0.114609-0.550123 0.02489-0.159412 0.373938-0.243991 0.331323-0.498028-0.04393-0.2643-0.404947-0.12746-0.727245-0.168787-0.234766-0.0304-0.542264-0.169974-0.750167-0.287564-0.274988-0.1555-0.510475-0.458802-0.868944-0.504279-0.203936-0.02579-0.399843 0.06494-0.495945-0.0521-0.10557-0.128517 0.04456-0.315785 0.05001-0.404257-0.0065-0.146045-0.274499-0.198918-0.28548-0.341743-9e-3 -0.100065 0.254102-0.4137244 0.354245-0.5021954 0.185481-0.1649018 0.524395-0.3327409 0.8231-0.4980279 0.292167-0.1621589 0.627382-0.3366461 0.910621-0.4334303 0.0549-0.01881 0.112172-0.025841 0.170871-0.033341z" style="color-rendering:auto;color:#000000;dominant-baseline:auto;fill:#ffffff;font-feature-settings:normal;font-variant-alternates:normal;font-variant-caps:normal;font-variant-ligatures:normal;font-variant-numeric:normal;font-variant-position:normal;image-rendering:auto;isolation:auto;mix-blend-mode:normal;shape-padding:0;shape-rendering:auto;solid-color:#000000;text-decoration-color:#000000;text-decoration-line:none;text-decoration-style:solid;text-indent:0;text-orientation:mixed;text-transform:none;white-space:normal"/>
</svg>
