<?xml version="1.0" encoding="UTF-8"?>
<svg id="svg13" version="1.1" viewBox="0 0 48 48" xmlns="http://www.w3.org/2000/svg" xmlns:xlink="http://www.w3.org/1999/xlink">
 <defs id="defs17">
  <linearGradient id="linearGradient842" x1="25.220337" x2="25.220337" y1="42.706993" y2="6.1435828" gradientUnits="userSpaceOnUse">
   <stop id="stop836" style="stop-color:#666666" offset="0"/>
   <stop id="stop838" style="stop-color:#808080" offset="1"/>
  </linearGradient>
 </defs>
 <path id="rect4148-2" d="m2.7586205 3.5172413c-0.4203047 0-0.7586207 0.3383449-0.7586207 0.7586207v39.448276c0 0.420276 0.338316 0.758621 0.7586207 0.758621h42.482758c0.420305 0 0.758621-0.338345 0.758621-0.758621v-39.448276c0-0.4202758-0.338316-0.7586207-0.758621-0.7586207h-41.724138z" style="fill:#34495e"/>
 <path id="path4155-0" d="m35.835938 4.8984375a0.98892453 0.98892453 0 0 0-0.988282 0.9882813 0.98892453 0.98892453 0 0 0 0.324219 0.7324218 0.98892453 0.98892453 0 0 0 0.734375 0.328125 0.98892453 0.98892453 0 0 0 0.990234-0.9882812 0.98892453 0.98892453 0 0 0-0.322265-0.7285156 0.98892453 0.98892453 0 0 0-0.738281-0.3320313zm3.414062 0.0703125a0.98892453 0.98892453 0 0 0-0.990234 0.9902344 0.98892453 0.98892453 0 0 0 0.990234 0.9882812 0.98892453 0.98892453 0 0 0 0.988281-0.9882812 0.98892453 0.98892453 0 0 0-0.988281-0.9902344zm3.341797 0a0.98892453 0.98892453 0 0 0-0.990235 0.9902344 0.98892453 0.98892453 0 0 0 0.990235 0.9882812 0.98892453 0.98892453 0 0 0 0.988281-0.9882812 0.98892453 0.98892453 0 0 0-0.988281-0.9902344z" style="fill:#ff5555"/>
 <path id="rect12-6" d="m4.5856442 8.6521521h38.828711c0.599018 0 1.08126 0.4822417 1.08126 1.0812595v32.18445c0 0.599018-0.482242 1.08126-1.08126 1.08126h-38.828711c-0.5990177 0-1.0812594-0.482242-1.0812594-1.08126v-32.18445c0-0.5990178 0.4822417-1.0812595 1.0812594-1.0812595z" style="fill:url(#linearGradient842);stroke-width:.65762758"/>
 <path id="path848" d="m34.56989 15.256144c-0.178677-0.178678-0.39063-0.268378-0.635136-0.268378h-19.868785c-0.244506 0-0.456459 0.08898-0.635137 0.268378-0.178677 0.178677-0.268378 0.390631-0.268378 0.635137v19.868712c0 0.244506 0.0897 0.456459 0.268378 0.635137 0.178678 0.178677 0.390631 0.268377 0.635137 0.268377h19.868785c0.244506 0 0.456459-0.0897 0.635136-0.268377 0.178678-0.178678 0.267655-0.390631 0.267655-0.635137v-19.868712c0-0.244506-0.08898-0.45646-0.267655-0.635137zm-11.472392 16.891237c0 0.131657-0.0434 0.240166-0.126593 0.324803-0.08464 0.08464-0.193146 0.127316-0.324803 0.127316h-6.773393c-0.131657 0-0.240166-0.0434-0.324802-0.127316-0.08464-0.08464-0.127317-0.192422-0.127317-0.324803v-14.450156c0-0.131657 0.0434-0.240166 0.127317-0.324803 0.08464-0.08464 0.192421-0.127316 0.324802-0.127316h6.773393c0.131657 0 0.240166 0.0434 0.324803 0.127316 0.08464 0.08464 0.126593 0.192422 0.126593 0.324803zm9.482852-5.418845c0 0.131657-0.0434 0.240166-0.127317 0.324803-0.08464 0.08464-0.192422 0.127316-0.324079 0.127316h-6.773248c-0.132381 0-0.240166-0.0434-0.324803-0.127316-0.08464-0.08464-0.126593-0.192422-0.126593-0.324803v-9.031311c0-0.131657 0.0434-0.240166 0.126593-0.324803 0.08464-0.08464 0.192422-0.127316 0.324803-0.127316h6.773248c0.131657 0 0.240166 0.0434 0.324079 0.127316 0.08464 0.08464 0.127317 0.192422 0.127317 0.324803z" style="fill-opacity:.84693903;fill:#ffffff;stroke-width:.17320201"/>
</svg>
