<?xml version="1.0" encoding="UTF-8"?>
<svg version="1.1" viewBox="0 0 48 48" xmlns="http://www.w3.org/2000/svg">
<defs>
<linearGradient id="linearGradient971" x1="25.217392" x2="25.217392" y1="45.833042" y2="25.346086" gradientTransform="translate(-1,-1)" gradientUnits="userSpaceOnUse">
<stop stop-color="#d6d6d6" offset="0"/>
<stop stop-color="#eaeaea" offset="1"/>
</linearGradient>
<linearGradient id="linearGradient979" x1="25.537392" x2="25.537392" y1="24.28606" y2="10.003478" gradientTransform="translate(-1,-1)" gradientUnits="userSpaceOnUse">
<stop stop-color="#f71853" offset="0"/>
<stop stop-color="#f64775" offset="1"/>
</linearGradient>
</defs>
<g>
<path d="m4 7v38h40v-38zm11 2c1.6497475 0 3 1.3502525 3 3s-1.3502525 3-3 3-3-1.3502525-3-3 1.3502525-3 3-3zm18 0c1.6497475 0 3 1.3502525 3 3s-1.3502525 3-3 3-3-1.3502525-3-3 1.3502525-3 3-3z" color="#000000" color-rendering="auto" dominant-baseline="auto" fill="url(#linearGradient971)" image-rendering="auto" shape-rendering="auto" solid-color="#000000" style="font-feature-settings:normal;font-variant-alternates:normal;font-variant-caps:normal;font-variant-ligatures:normal;font-variant-numeric:normal;font-variant-position:normal;isolation:auto;mix-blend-mode:normal;paint-order:fill markers stroke;shape-padding:0;text-decoration-color:#000000;text-decoration-line:none;text-decoration-style:solid;text-indent:0;text-orientation:mixed;text-transform:none;white-space:normal"/>
<path d="m4 7v10h40v-10zm11 2c1.6497475 0 3 1.3502525 3 3s-1.3502525 3-3 3-3-1.3502525-3-3 1.3502525-3 3-3zm18 0c1.6497475 0 3 1.3502525 3 3s-1.3502525 3-3 3-3-1.3502525-3-3 1.3502525-3 3-3z" color="#000000" color-rendering="auto" dominant-baseline="auto" fill="url(#linearGradient979)" image-rendering="auto" shape-rendering="auto" solid-color="#000000" style="font-feature-settings:normal;font-variant-alternates:normal;font-variant-caps:normal;font-variant-ligatures:normal;font-variant-numeric:normal;font-variant-position:normal;isolation:auto;mix-blend-mode:normal;paint-order:fill markers stroke;shape-padding:0;text-decoration-color:#000000;text-decoration-line:none;text-decoration-style:solid;text-indent:0;text-orientation:mixed;text-transform:none;white-space:normal"/>
<path d="M 33,3 C 32.06644601,3 31.29976682,3.667450983 30.79492188,4.576171875 30.42146535,5.248393612 30.16651298,6.079993226 30.05859375,7 h 1.015625 C 31.17830809,6.241222167 31.38883361,5.566505741 31.66992188,5.060546875 32.06989896,4.34058811 32.55284212,4 33,4 33.44715788,4 33.93010104,4.34058811 34.33007812,5.060546875 34.73005522,5.78050564 35,6.832420441 35,8 35,9.167579558 34.73005523,10.21949436 34.33007812,10.93945312 33.93010103,11.65941189 33.44715788,12 33,12 h -0.5 v 1 H 33 c 0.93355399,0 1.70023319,-0.66745098 2.20507812,-1.57617188 C 35.70992307,10.51510724 36,9.317701812 36,8 36,6.682298186 35.70992308,5.484892767 35.20507812,4.576171875 34.70023318,3.667450983 33.93355399,3 33,3 Z" color="#000000" color-rendering="auto" dominant-baseline="auto" fill="#414549" image-rendering="auto" shape-rendering="auto" solid-color="#000000" style="font-feature-settings:normal;font-variant-alternates:normal;font-variant-caps:normal;font-variant-ligatures:normal;font-variant-numeric:normal;font-variant-position:normal;isolation:auto;mix-blend-mode:normal;paint-order:fill markers stroke;shape-padding:0;text-decoration-color:#000000;text-decoration-line:none;text-decoration-style:solid;text-indent:0;text-orientation:mixed;text-transform:none;white-space:normal"/>
<path d="M 15,3 C 14.06644601,3 13.29976682,3.667450983 12.79492188,4.576171875 12.42146535,5.248393612 12.16651298,6.079993226 12.05859375,7 h 1.015625 C 13.17830809,6.241222167 13.38883361,5.566505741 13.66992188,5.060546875 14.06989897,4.34058811 14.55284212,4 15,4 15.44715788,4 15.93010103,4.34058811 16.33007812,5.060546875 16.73005523,5.78050564 17,6.832420441 17,8 17,9.167579558 16.73005522,10.21949436 16.33007812,10.93945312 15.93010103,11.65941189 15.44715788,12 15,12 h -0.5 v 1 H 15 c 0.93355399,0 1.70023318,-0.66745098 2.20507812,-1.57617188 C 17.70992307,10.51510724 18,9.317701812 18,8 18,6.682298186 17.70992307,5.484892767 17.20507812,4.576171875 16.70023319,3.667450983 15.93355399,3 15,3 Z" color="#000000" color-rendering="auto" dominant-baseline="auto" fill="#414549" image-rendering="auto" shape-rendering="auto" solid-color="#000000" style="font-feature-settings:normal;font-variant-alternates:normal;font-variant-caps:normal;font-variant-ligatures:normal;font-variant-numeric:normal;font-variant-position:normal;isolation:auto;mix-blend-mode:normal;paint-order:fill markers stroke;shape-padding:0;text-decoration-color:#000000;text-decoration-line:none;text-decoration-style:solid;text-indent:0;text-orientation:mixed;text-transform:none;white-space:normal"/>
<path d="m21.851515 22v18h-2.6808511v-15.455927h-2.0516718v-2.544073z" fill="#414549"/>
<path d="m30.881008 22v18h-2.6808511v-15.455927h-2.0516717v-2.544073z" fill="#414549"/>
</g>
</svg>
