<?xml version="1.0" encoding="UTF-8"?>
<svg id="svg8" width="48" height="48" version="1.1" viewBox="0 0 12.7 12.7" xmlns="http://www.w3.org/2000/svg" xmlns:xlink="http://www.w3.org/1999/xlink">
 <defs id="defs2">
  <linearGradient id="linearGradient2433" x1="23.263056" x2="23.263056" y1="30.38965" y2="5.0611835" gradientTransform="matrix(.26458333 0 0 .27672112 .0986848 284.74954)" gradientUnits="userSpaceOnUse">
   <stop id="stop2427" style="stop-color:#316dae" offset="0"/>
   <stop id="stop2429" style="stop-color:#4497d5" offset="1"/>
  </linearGradient>
  <linearGradient id="linearGradient2464" x1="23.480467" x2="23.480467" y1="37.890354" y2="33.868237" gradientTransform="matrix(.26458333 0 0 .27171192 .0986848 284.92262)" gradientUnits="userSpaceOnUse">
   <stop id="stop2458" style="stop-color:#2b6099" offset="0"/>
   <stop id="stop2460" style="stop-color:#3679b9" offset="1"/>
  </linearGradient>
 </defs>
 <g id="layer1" transform="translate(0,-284.29998)">
  <path id="rect873" d="m1.0180048 286.15206c-0.27087 0-0.48886 0.22798-0.48886 0.51129v7.13583c0 0.28331 0.21799 0.5113 0.48886 0.5113h10.66395c0.27088 0 0.48886-0.22799 0.48886-0.5113v-7.13583c0-0.28331-0.21798-0.51129-0.48886-0.51129z" style="fill:url(#linearGradient2433);paint-order:normal"/>
  <path id="rect2392" d="m0.52918881 293.35519h11.641666v0.95545h-11.641666z" style="fill:#f2f2f2;paint-order:normal"/>
  <path id="rect2394" d="m0.5291448 294.10404v0.54182c0 0.27818 0.21799 0.50204 0.48886 0.50204h10.66395c0.27088 0 0.48886-0.22386 0.48886-0.50204v-0.54182z" style="fill:url(#linearGradient2464);paint-order:normal"/>
  <path id="path15" d="m6.2776804 290.0312c-0.016994-0.0162-0.03873-0.0242-0.065177-0.0242h-2.7217504c-0.026458 0-0.048198 8e-3 -0.065212 0.0242-0.016994 0.0162-0.025473 0.0369-0.025473 0.062v0.17267c0 0.0251 0.00848 0.0459 0.025473 0.062 0.017029 0.0162 0.038765 0.0242 0.065212 0.0242h2.7217501c0.026458 0 0.048194-8e-3 0.065177-0.0242 0.016994-0.0161 0.025473-0.0368 0.025473-0.062v-0.17267c3.17e-5 -0.0252-0.00844-0.0459-0.025473-0.062z" style="fill:#ffffff;stroke-width:.03394355"/>
  <path id="path17" d="m1.9229133 287.47926c-0.018894-0.0179-0.040644-0.027-0.065213-0.027-0.024558 0-0.046284 9e-3 -0.065177 0.027l-0.1417681 0.13489c-0.018894 0.018-0.028323 0.0386-0.028323 0.062s0.00943 0.0441 0.028323 0.062l1.1142411 1.06014-1.1142411 1.06018c-0.018894 0.018-0.028323 0.0387-0.028323 0.062 0 0.0234 0.00943 0.0441 0.028323 0.062l0.1417681 0.13485c0.018893 0.018 0.040609 0.0269 0.065177 0.0269 0.024593 0 0.046319-9e-3 0.065213-0.0269l1.3211899-1.25704c0.018893-0.018 0.028323-0.0387 0.028323-0.0621s-0.00943-0.0441-0.028323-0.062z" style="fill:#ffffff;stroke-width:.03394355"/>
 </g>
</svg>
