<?xml version="1.0" encoding="UTF-8"?>
<svg id="svg35" version="1.1" viewBox="0 0 48 48" xmlns="http://www.w3.org/2000/svg" xmlns:xlink="http://www.w3.org/1999/xlink">
 <title id="title2">drive-removable-media-48px</title>
 <desc id="desc4">Created with Sketch.</desc>
 <defs id="defs11">
  <linearGradient id="linearGradient929" x1="24.934484" x2="26.272717" y1="28.261925" y2="8.9584866" gradientUnits="userSpaceOnUse">
   <stop id="stop923" style="stop-color:#198e08" offset="0"/>
   <stop id="stop925" style="stop-color:#24cb0b" offset="1"/>
  </linearGradient>
 </defs>
 <g id="g939">
  <path id="Rectangle-1" d="m8 4h32c0.554 0 1 0.446 1 1v33c0 0.554-0.446 1-1 1h-32c-0.554 0-1-0.446-1-1v-33c0-0.554 0.446-1 1-1z" style="fill-rule:evenodd;fill:#bbbec4"/>
  <path id="Rectangle-3" d="m7 34h34v6h-34z" style="fill-rule:evenodd;fill:#ffffff"/>
  <path id="rect16" d="m8 38h32c0.554 0 1 0.446 1 1v4c0 0.554-0.446 1-1 1h-32c-0.554 0-1-0.446-1-1v-4c0-0.554 0.446-1 1-1z" style="fill-rule:evenodd;fill:#bbbec4"/>
  <path id="Rectangle-path" d="m36.987 39.995998h1v2h-1z" style="fill-rule:evenodd;fill:#2e2e2f"/>
  <path id="rect19" d="m34.987 39.995998h1v2h-1z" style="fill-rule:evenodd;fill:#2e2e2f"/>
  <path id="rect21" d="m32.987 39.995998h1v2h-1z" style="fill-rule:evenodd;fill:#2e2e2f"/>
  <path id="rect23" d="m30.987 39.995998h1v2h-1z" style="fill-rule:evenodd;fill:#2e2e2f"/>
  <path id="rect25" d="m28.987 39.995998h1v2h-1z" style="fill-rule:evenodd;fill:#2e2e2f"/>
  <path id="rect27" d="m26.987 39.995998h1v2h-1z" style="fill-rule:evenodd;fill:#2e2e2f"/>
  <path id="Oval" d="m13 41a1 1 0 0 1-1 1 1 1 0 0 1-1-1 1 1 0 0 1 1-1 1 1 0 0 1 1 1z" style="fill-rule:evenodd;fill:#2c2c2e"/>
  <path id="path52" d="m26.281646 28.509397c-2.727721-0.884991-3.96961-3.688593-2.714551-6.128203 0.569406-1.10682 1.320043-1.717252 2.547707-2.071837 1.600624-0.462311 3.356718 0.176156 4.278491 1.555542 0.631046 0.944321 0.703482 2.460998 0.165196 3.458979-1.263568 2.342613-4.728263 2.292703-5.643783-0.08129-0.531284-1.377646 0.08376-2.814463 1.421267-3.320314 1.356419-0.512991 2.781384 0.308883 2.939185 1.695226 0.06642 0.583745 0.01207 0.770599-0.347603 1.193842-0.776678 0.914083-2.050218 0.808483-2.518271-0.20881-0.248427-0.539971-0.0626-0.642636 0.445997-0.246441 0.537743 0.418891 0.935365 0.424224 1.34551 0.01803 0.421845-0.417746 0.403691-0.835385-0.05947-1.368594-0.861711-0.992091-2.530345-0.186088-2.561842 1.237438-0.01776 0.804125 0.373536 1.424982 1.12695 1.787979 1.909263 0.919872 4.018661-1.155337 3.242443-3.189865-0.213914-0.560662-0.88521-1.270255-1.504587-1.590384-1.25138-0.646805-3.167988-0.04921-4.043343 1.260691-0.365015 0.546233-0.43598 0.823803-0.43598 1.705297 0 0.895681 0.07223 1.168551 0.48376 1.827723 0.300257 0.480958 0.780811 0.956566 1.266928 1.253916 0.682615 0.417544 0.928392 0.478277 1.913881 0.472874 2.334014-0.01265 3.935131-1.495872 4.418405-4.092726 0.34239-1.839767-0.335196-3.92881-1.700546-5.242902-0.486903-0.468624-0.708031-0.812708-0.708031-1.101709 0-0.482369-0.258519-1.032613-0.485146-1.032613-0.087 0-0.154216 0.588129-0.154216 1.349377v1.349377l0.719286 0.430252c0.788903 0.471901 0.972356 0.986575 0.35165 0.986575-0.2022 0-0.447611-0.07921-0.545368-0.176011-0.09776-0.09681-0.633628-0.331471-1.190821-0.521475-1.035351-0.353067-1.345337-0.759554-0.653454-0.856861 0.30939-0.04352 0.359643-0.14585 0.359643-0.732284v-0.681697l-0.89384-0.07341c-1.006428-0.08265-1.178071-0.244385-1.181654-1.113411-2e-3 -0.326467-0.06555-0.593593-0.142712-0.593593-0.358199 0-0.562642 0.592315-0.627618 1.818405-0.06838 1.290201-0.06132 1.321601 0.307355 1.373484 0.727762 0.102394 0.546544 0.573434-0.376052 0.977492-0.472398 0.206881-1.124971 0.607503-1.450172 0.890261-0.591309 0.514142-1.069933 0.55784-1.069933 0.09768 0-0.128993 0.323679-0.502466 0.719285-0.829945 0.709116-0.586996 0.719298-0.609168 0.719298-1.567378 0-1.209504-0.404784-1.878949-1.476533-2.441995l-0.750571-0.394311-0.694265 0.674765-0.694278 0.67477-3.187254-0.04308c-3.168622-0.04276-3.187549-0.04504-3.238312-0.399168l-0.0511-0.356154h2.469099c1.999756 0 2.506934-0.04516 2.668088-0.23744 0.175621-0.209556-0.138817-0.23744-2.678167-0.23744-2.10991 0-2.921471-0.05295-3.043329-0.198266-0.181951-0.217115-0.0098-1.447835 0.311793-2.228763 0.514658-1.200578 1.375334-2.332973 2.405531-3.175809 0.875257-0.7160715 3.420721-1.5412792 4.034657-1.3079698 0.1976 0.075096 0.24826 0.3698737 0.24826 1.4447808 0 0.742752 0.05756 1.350452 0.127867 1.350452 0.313754 0 0.511497-0.438235 0.511497-1.133596 0-0.7516784 0.0025-0.7542019 0.67933-0.9417771 1.053876-0.2917837 3.525696-0.2121245 4.960977 0.1598874 3.94852 1.0234037 6.832081 3.7597577 7.804443 7.4059937 0.441622 1.656044 0.478517 4.333051 0.07811 5.669042-0.733184 2.446386-2.32309 4.395075-4.353647 5.336054-0.848763 0.39333-1.325541 0.506946-2.283763 0.544184-0.666082 0.02594-1.391346-0.01145-1.611701-0.08292zm-4.946669-9.577079c-0.138458-0.360632-0.251296-0.404115-1.159328-0.446813-0.904407-0.04258-1.011091-0.08325-1.057019-0.403463-0.04861-0.33929 1.59e-4 -0.356154 1.032248-0.356154 1.027801 0 1.113453-0.02922 1.671712-0.568999 0.508819-0.492023 0.634048-0.544785 0.925836-0.390154 0.460292 0.243949 0.425275 0.458598-0.174913 1.0718-0.313601 0.320433-0.515099 0.690617-0.519487 0.954384-0.0097 0.584997-0.51069 0.682108-0.719049 0.139399z" style="fill:url(#linearGradient929)"/>
 </g>
</svg>
