<?xml version="1.0" encoding="UTF-8"?>
<svg width="48" height="48" version="1.1" viewBox="0 0 12.7 12.7" xmlns="http://www.w3.org/2000/svg">
 <defs>
  <linearGradient id="linearGradient4575" x1="-26.63039" x2="-26.63039" y1="-100.24435" y2="-55.66119" gradientTransform="matrix(.26458333 0 0 .26458333 13.49375 14.02293)" gradientUnits="userSpaceOnUse">
   <stop style="stop-color:#53e418" offset="0"/>
   <stop style="stop-color:#80ed54" offset="1"/>
  </linearGradient>
 </defs>
 <circle transform="scale(1,-1)" cx="6.3500004" cy="-6.3500137" r="6.0854168" style="fill:url(#linearGradient4575);stroke-width:.26458332"/>
 <path d="m5.5824536 4.13205c-0.1948304 0.0523-0.3506946 0.27438-0.3506946 0.47037v3.31868c-0.1948305-0.10452-0.4416155-0.14372-0.7013893-0.0784-0.4675925 0.13066-0.7533439 0.53569-0.662423 0.9146 0.1039096 0.3789 0.5585135 0.58796 1.0261063 0.47036 0.376672-0.10452 0.623457-0.39197 0.662423-0.69248l0.012988-3.1227 2.4158959-0.67942v2.46942c-0.1948305-0.10452-0.4416155-0.14372-0.7013893-0.0784-0.4675928 0.13065-0.7533439 0.53569-0.662423 0.9146 0.1039096 0.3789 0.5585135 0.58795 1.0261063 0.47036 0.376672-0.10452 0.623457-0.39197 0.662423-0.69248l0.038966-4.0765c0-0.15679-0.090921-0.27438-0.2208078-0.30051z" style="fill:#ffffff;font-variant-east_asian:normal;stroke-width:.40746155"/>
</svg>
